<?xml version="1.0" encoding="utf-8"?>
<!-- Generator: Adobe Illustrator 24.2.1, SVG Export Plug-In . SVG Version: 6.00 Build 0)  -->
<svg version="1.1" id="Layer_1" xmlns="http://www.w3.org/2000/svg" xmlns:xlink="http://www.w3.org/1999/xlink" x="0px" y="0px"
	 viewBox="0 0 536.6 105.3" style="enable-background:new 0 0 536.6 105.3;" xml:space="preserve">
<style type="text/css">
	.st0{fill:#EFEDE1;}
	.st1{fill:#A26054;fill-opacity:0;stroke:#EFEDE1;stroke-width:2;}
</style>
<g transform="rotate(180 298.2965 23.3129)">
	<g transform="matrix(1 0 0 1 0 0)">
	</g>
</g>
<g>
	<g transform="rotate(0 103.2705 87.3129)">
		<g transform="matrix(1 0 0 1 0 0)">
			<path class="st0" d="M104.7,100.3h8.1v1.2h-9.5V88.1h9.2v1.2h-7.8v4.8h6.9v1.2h-6.9V100.3z M123.6,91.4h1.3l-4.5,10.1h-1.4
				l-4.5-10.1h1.4l3.8,8.6L123.6,91.4z M136.3,96.5l0,0.4h-8.4c0.1,1,0.5,1.9,1.2,2.5c0.7,0.6,1.6,1,2.8,1l0,0
				c0.6,0,1.2-0.1,1.7-0.3s1-0.6,1.4-1l0,0l0.8,0.9c-0.4,0.5-1,0.9-1.7,1.2c-0.7,0.3-1.4,0.4-2.2,0.4l0,0c-1,0-1.9-0.2-2.7-0.7
				s-1.4-1-1.9-1.8c-0.4-0.8-0.7-1.7-0.7-2.6l0,0c0-1,0.2-1.9,0.6-2.6s1-1.4,1.8-1.8c0.7-0.4,1.6-0.7,2.5-0.7l0,0
				c0.9,0,1.8,0.2,2.5,0.7c0.7,0.4,1.3,1,1.7,1.8C136.1,94.6,136.3,95.5,136.3,96.5L136.3,96.5z M131.5,92.5c-1,0-1.8,0.3-2.4,0.9
				s-1,1.4-1.1,2.4l0,0h7.1c-0.1-1-0.5-1.8-1.1-2.4S132.5,92.5,131.5,92.5L131.5,92.5z M141.4,93.4c0.3-0.7,0.8-1.2,1.4-1.5
				c0.6-0.3,1.4-0.5,2.3-0.5l0,0v1.3l-0.3,0c-1.1,0-1.9,0.3-2.5,1c-0.6,0.7-0.9,1.6-0.9,2.7l0,0v5.1h-1.4V91.4h1.3V93.4z
				 M156.1,91.4h1.3l-5,11.3c-0.4,0.9-0.9,1.6-1.4,2s-1.2,0.6-1.9,0.6l0,0c-0.5,0-0.9-0.1-1.4-0.2c-0.4-0.2-0.8-0.4-1.1-0.7l0,0
				l0.6-1c0.5,0.5,1.1,0.8,1.8,0.8l0,0c0.5,0,0.9-0.1,1.2-0.4c0.3-0.3,0.6-0.7,0.9-1.3l0,0l0.4-1l-4.5-10h1.4l3.8,8.6L156.1,91.4z
				 M169.2,101.5V89.3h-4.7v-1.2h10.8v1.2h-4.7v12.2H169.2z M181.3,101.6c-1,0-1.8-0.2-2.6-0.7c-0.8-0.4-1.4-1-1.8-1.8
				c-0.4-0.8-0.7-1.7-0.7-2.6l0,0c0-1,0.2-1.9,0.7-2.6c0.4-0.8,1.1-1.4,1.8-1.8c0.8-0.4,1.7-0.7,2.6-0.7l0,0c1,0,1.8,0.2,2.6,0.7
				c0.8,0.4,1.4,1,1.8,1.8c0.4,0.8,0.7,1.7,0.7,2.6l0,0c0,1-0.2,1.9-0.7,2.6c-0.4,0.8-1,1.4-1.8,1.8
				C183.1,101.4,182.3,101.6,181.3,101.6L181.3,101.6z M181.3,100.4c0.7,0,1.4-0.2,1.9-0.5c0.6-0.3,1-0.8,1.3-1.4
				c0.3-0.6,0.5-1.3,0.5-2l0,0c0-0.8-0.2-1.4-0.5-2c-0.3-0.6-0.8-1.1-1.3-1.4c-0.6-0.3-1.2-0.5-1.9-0.5l0,0c-0.7,0-1.4,0.2-1.9,0.5
				c-0.6,0.3-1,0.8-1.3,1.4c-0.3,0.6-0.5,1.3-0.5,2l0,0c0,0.8,0.2,1.4,0.5,2c0.3,0.6,0.8,1.1,1.3,1.4
				C179.9,100.2,180.6,100.4,181.3,100.4L181.3,100.4z M194.2,101.6c-1,0-1.8-0.2-2.6-0.7c-0.8-0.4-1.4-1-1.8-1.8
				c-0.4-0.8-0.7-1.7-0.7-2.6l0,0c0-1,0.2-1.9,0.7-2.6c0.4-0.8,1.1-1.4,1.8-1.8c0.8-0.4,1.7-0.7,2.6-0.7l0,0c1,0,1.8,0.2,2.6,0.7
				c0.8,0.4,1.4,1,1.8,1.8c0.4,0.8,0.7,1.7,0.7,2.6l0,0c0,1-0.2,1.9-0.7,2.6c-0.4,0.8-1,1.4-1.8,1.8S195.2,101.6,194.2,101.6
				L194.2,101.6z M194.2,100.4c0.7,0,1.4-0.2,1.9-0.5c0.6-0.3,1-0.8,1.3-1.4c0.3-0.6,0.5-1.3,0.5-2l0,0c0-0.8-0.2-1.4-0.5-2
				c-0.3-0.6-0.8-1.1-1.3-1.4c-0.6-0.3-1.2-0.5-1.9-0.5l0,0c-0.7,0-1.4,0.2-1.9,0.5c-0.6,0.3-1,0.8-1.3,1.4c-0.3,0.6-0.5,1.3-0.5,2
				l0,0c0,0.8,0.2,1.4,0.5,2c0.3,0.6,0.8,1.1,1.3,1.4C192.9,100.2,193.5,100.4,194.2,100.4L194.2,100.4z M203.1,101.5V87.3h1.4v14.2
				H203.1z M214.4,91.4c0.9,0,1.8,0.2,2.6,0.6c0.8,0.4,1.4,1,1.8,1.8c0.4,0.8,0.7,1.7,0.7,2.7l0,0c0,1-0.2,1.9-0.7,2.7
				c-0.4,0.8-1,1.4-1.8,1.8c-0.8,0.4-1.6,0.7-2.6,0.7l0,0c-0.8,0-1.6-0.2-2.3-0.5c-0.7-0.4-1.2-0.9-1.6-1.5l0,0v2h-1.3V87.3h1.4v6
				c0.4-0.7,1-1.1,1.6-1.5C212.8,91.5,213.5,91.4,214.4,91.4L214.4,91.4z M214.3,100.4c0.7,0,1.3-0.2,1.9-0.5c0.6-0.3,1-0.8,1.3-1.4
				c0.3-0.6,0.5-1.3,0.5-2l0,0c0-0.8-0.2-1.4-0.5-2c-0.3-0.6-0.8-1.1-1.3-1.4c-0.6-0.3-1.2-0.5-1.9-0.5l0,0c-0.7,0-1.4,0.2-1.9,0.5
				c-0.6,0.3-1,0.8-1.3,1.4c-0.3,0.6-0.5,1.3-0.5,2l0,0c0,0.8,0.2,1.4,0.5,2c0.3,0.6,0.8,1.1,1.3,1.4
				C212.9,100.2,213.5,100.4,214.3,100.4L214.3,100.4z M227.2,101.6c-1,0-1.8-0.2-2.6-0.7s-1.4-1-1.8-1.8c-0.4-0.8-0.7-1.7-0.7-2.6
				l0,0c0-1,0.2-1.9,0.7-2.6s1.1-1.4,1.8-1.8c0.8-0.4,1.7-0.7,2.6-0.7l0,0c1,0,1.8,0.2,2.6,0.7c0.8,0.4,1.4,1,1.8,1.8
				c0.4,0.8,0.7,1.7,0.7,2.6l0,0c0,1-0.2,1.9-0.7,2.6c-0.4,0.8-1,1.4-1.8,1.8S228.2,101.6,227.2,101.6L227.2,101.6z M227.2,100.4
				c0.7,0,1.4-0.2,1.9-0.5c0.6-0.3,1-0.8,1.3-1.4c0.3-0.6,0.5-1.3,0.5-2l0,0c0-0.8-0.2-1.4-0.5-2c-0.3-0.6-0.8-1.1-1.3-1.4
				c-0.6-0.3-1.2-0.5-1.9-0.5l0,0c-0.7,0-1.4,0.2-1.9,0.5s-1,0.8-1.3,1.4c-0.3,0.6-0.5,1.3-0.5,2l0,0c0,0.8,0.2,1.4,0.5,2
				c0.3,0.6,0.8,1.1,1.3,1.4S226.5,100.4,227.2,100.4L227.2,100.4z M243.6,101.5h-1.5l-3.2-4.2l-3.2,4.2h-1.5l4-5.2l-3.8-4.9h1.5
				l3,3.9l3-3.9h1.5l-3.8,4.9L243.6,101.5z M262.9,88.1h1.4v13.4h-1.2l-8.6-10.9v10.9h-1.4V88.1h1.2l8.6,10.9V88.1z M278.1,96.5
				l0,0.4h-8.4c0.1,1,0.5,1.9,1.2,2.5c0.7,0.6,1.6,1,2.8,1l0,0c0.6,0,1.2-0.1,1.7-0.3c0.5-0.2,1-0.6,1.4-1l0,0l0.8,0.9
				c-0.4,0.5-1,0.9-1.7,1.2c-0.7,0.3-1.4,0.4-2.2,0.4l0,0c-1,0-1.9-0.2-2.7-0.7s-1.4-1-1.9-1.8c-0.4-0.8-0.7-1.7-0.7-2.6l0,0
				c0-1,0.2-1.9,0.6-2.6c0.4-0.8,1-1.4,1.8-1.8c0.7-0.4,1.6-0.7,2.5-0.7l0,0c0.9,0,1.8,0.2,2.5,0.7c0.7,0.4,1.3,1,1.7,1.8
				C277.9,94.6,278.1,95.5,278.1,96.5L278.1,96.5z M273.2,92.5c-1,0-1.8,0.3-2.4,0.9s-1,1.4-1.1,2.4l0,0h7.1c-0.1-1-0.5-1.8-1.1-2.4
				S274.2,92.5,273.2,92.5L273.2,92.5z M290.6,96.5l0,0.4h-8.4c0.1,1,0.5,1.9,1.2,2.5c0.7,0.6,1.6,1,2.8,1l0,0
				c0.6,0,1.2-0.1,1.7-0.3s1-0.6,1.4-1l0,0l0.8,0.9c-0.4,0.5-1,0.9-1.7,1.2c-0.7,0.3-1.4,0.4-2.2,0.4l0,0c-1,0-1.9-0.2-2.7-0.7
				s-1.4-1-1.9-1.8c-0.4-0.8-0.7-1.7-0.7-2.6l0,0c0-1,0.2-1.9,0.6-2.6s1-1.4,1.8-1.8c0.7-0.4,1.6-0.7,2.5-0.7l0,0
				c0.9,0,1.8,0.2,2.5,0.7c0.7,0.4,1.3,1,1.7,1.8C290.4,94.6,290.6,95.5,290.6,96.5L290.6,96.5z M285.8,92.5c-1,0-1.8,0.3-2.4,0.9
				s-1,1.4-1.1,2.4l0,0h7.1c-0.1-1-0.5-1.8-1.1-2.4C287.6,92.8,286.7,92.5,285.8,92.5L285.8,92.5z M302.2,87.3h1.4v14.2h-1.3v-2
				c-0.4,0.7-0.9,1.2-1.6,1.5c-0.7,0.4-1.4,0.5-2.3,0.5l0,0c-0.9,0-1.8-0.2-2.6-0.7c-0.8-0.4-1.4-1-1.8-1.8
				c-0.4-0.8-0.7-1.7-0.7-2.7l0,0c0-1,0.2-1.9,0.7-2.7c0.4-0.8,1-1.4,1.8-1.8c0.8-0.4,1.6-0.6,2.6-0.6l0,0c0.8,0,1.6,0.2,2.2,0.5
				c0.7,0.3,1.2,0.8,1.6,1.5l0,0V87.3z M298.5,100.4c0.7,0,1.3-0.2,1.9-0.5s1-0.8,1.3-1.4c0.3-0.6,0.5-1.3,0.5-2l0,0
				c0-0.8-0.2-1.4-0.5-2c-0.3-0.6-0.8-1.1-1.3-1.4s-1.2-0.5-1.9-0.5l0,0c-0.7,0-1.4,0.2-1.9,0.5s-1,0.8-1.3,1.4
				c-0.3,0.6-0.5,1.3-0.5,2l0,0c0,0.8,0.2,1.4,0.5,2c0.3,0.6,0.8,1.1,1.3,1.4S297.8,100.4,298.5,100.4L298.5,100.4z M311,101.6
				c-0.8,0-1.6-0.1-2.3-0.4c-0.7-0.2-1.3-0.5-1.8-0.9l0,0l0.6-1.1c0.4,0.3,1,0.6,1.6,0.8c0.6,0.2,1.3,0.3,2,0.3l0,0
				c0.9,0,1.6-0.1,2-0.4s0.7-0.7,0.7-1.2l0,0c0-0.4-0.1-0.7-0.4-0.9c-0.2-0.2-0.5-0.4-0.9-0.5c-0.4-0.1-0.9-0.2-1.5-0.3l0,0
				c-0.8-0.2-1.5-0.3-2-0.5c-0.5-0.2-0.9-0.4-1.3-0.8s-0.5-0.9-0.5-1.6l0,0c0-0.8,0.4-1.5,1.1-2.1c0.7-0.5,1.7-0.8,2.9-0.8l0,0
				c0.7,0,1.3,0.1,2,0.3s1.2,0.4,1.6,0.7l0,0l-0.6,1.1c-0.8-0.6-1.8-0.9-3-0.9l0,0c-0.9,0-1.5,0.2-2,0.5c-0.4,0.3-0.7,0.7-0.7,1.2
				l0,0c0,0.4,0.1,0.7,0.4,0.9c0.2,0.2,0.6,0.4,0.9,0.5c0.4,0.1,0.9,0.2,1.5,0.3l0,0c0.8,0.2,1.4,0.3,1.9,0.5
				c0.5,0.2,0.9,0.4,1.2,0.8s0.5,0.9,0.5,1.5l0,0c0,0.9-0.4,1.6-1.1,2.1C313.3,101.3,312.3,101.6,311,101.6L311,101.6z M328.1,91.4
				c1.3,0,2.3,0.3,3,1s1.1,1.6,1.1,2.9l0,0v6.2h-1.3v-1.6c-0.3,0.5-0.8,0.9-1.3,1.2c-0.6,0.3-1.3,0.4-2.1,0.4l0,0
				c-1.1,0-2-0.3-2.7-0.8s-1-1.2-1-2.1l0,0c0-0.9,0.3-1.5,0.9-2.1s1.6-0.8,3-0.8l0,0h3.2v-0.6c0-0.9-0.2-1.5-0.7-2
				c-0.5-0.5-1.2-0.7-2.1-0.7l0,0c-0.6,0-1.2,0.1-1.8,0.3c-0.6,0.2-1.1,0.5-1.5,0.9l0,0l-0.6-1c0.5-0.4,1.1-0.8,1.8-1
				C326.5,91.5,327.3,91.4,328.1,91.4L328.1,91.4z M327.6,100.5c0.8,0,1.4-0.2,2-0.5c0.5-0.4,1-0.9,1.2-1.5l0,0v-1.6h-3.2
				c-1.7,0-2.6,0.6-2.6,1.8l0,0c0,0.6,0.2,1,0.7,1.4C326.2,100.4,326.8,100.5,327.6,100.5L327.6,100.5z M352.9,88.1h1.4v13.4h-1.4
				v-6.2h-8.4v6.2h-1.4V88.1h1.4v6h8.4V88.1z M362.8,91.4c1.3,0,2.3,0.3,3,1c0.7,0.7,1.1,1.6,1.1,2.9l0,0v6.2h-1.3v-1.6
				c-0.3,0.5-0.8,0.9-1.3,1.2s-1.3,0.4-2.1,0.4l0,0c-1.1,0-2-0.3-2.7-0.8c-0.7-0.5-1-1.2-1-2.1l0,0c0-0.9,0.3-1.5,0.9-2.1
				c0.6-0.5,1.6-0.8,3-0.8l0,0h3.2v-0.6c0-0.9-0.2-1.5-0.7-2c-0.5-0.5-1.2-0.7-2.1-0.7l0,0c-0.6,0-1.2,0.1-1.8,0.3
				c-0.6,0.2-1.1,0.5-1.5,0.9l0,0l-0.6-1c0.5-0.4,1.1-0.8,1.8-1C361.3,91.5,362,91.4,362.8,91.4L362.8,91.4z M362.3,100.5
				c0.8,0,1.4-0.2,2-0.5s1-0.9,1.2-1.5l0,0v-1.6h-3.2c-1.7,0-2.6,0.6-2.6,1.8l0,0c0,0.6,0.2,1,0.7,1.4
				C360.9,100.4,361.5,100.5,362.3,100.5L362.3,100.5z M384.1,91.4c1.3,0,2.3,0.4,3,1.1c0.7,0.7,1.1,1.8,1.1,3.2l0,0v5.8h-1.4v-5.7
				c0-1-0.3-1.8-0.8-2.4c-0.5-0.5-1.2-0.8-2.1-0.8l0,0c-1,0-1.9,0.3-2.5,1c-0.6,0.6-0.9,1.5-0.9,2.7l0,0v5.3h-1.4v-5.7
				c0-1-0.3-1.8-0.8-2.4c-0.5-0.5-1.2-0.8-2.2-0.8l0,0c-1,0-1.9,0.3-2.5,1c-0.6,0.6-0.9,1.5-0.9,2.7l0,0v5.3h-1.4V91.4h1.3v1.8
				c0.4-0.6,0.9-1.1,1.5-1.4c0.6-0.3,1.4-0.5,2.2-0.5l0,0c0.8,0,1.6,0.2,2.2,0.5c0.6,0.4,1.1,0.9,1.4,1.6l0,0
				c0.4-0.7,0.9-1.2,1.6-1.6C382.4,91.6,383.2,91.4,384.1,91.4L384.1,91.4z M405.3,91.4c1.3,0,2.3,0.4,3,1.1
				c0.7,0.7,1.1,1.8,1.1,3.2l0,0v5.8H408v-5.7c0-1-0.3-1.8-0.8-2.4s-1.2-0.8-2.1-0.8l0,0c-1,0-1.9,0.3-2.5,1s-0.9,1.5-0.9,2.7l0,0
				v5.3h-1.4v-5.7c0-1-0.3-1.8-0.8-2.4c-0.5-0.5-1.2-0.8-2.2-0.8l0,0c-1,0-1.9,0.3-2.5,1s-0.9,1.5-0.9,2.7l0,0v5.3h-1.4V91.4h1.3
				v1.8c0.4-0.6,0.9-1.1,1.5-1.4s1.4-0.5,2.2-0.5l0,0c0.8,0,1.6,0.2,2.2,0.5c0.6,0.4,1.1,0.9,1.4,1.6l0,0c0.4-0.7,0.9-1.2,1.6-1.6
				C403.6,91.6,404.4,91.4,405.3,91.4L405.3,91.4z M422.9,96.5l0,0.4h-8.4c0.1,1,0.5,1.9,1.2,2.5c0.7,0.6,1.6,1,2.8,1l0,0
				c0.6,0,1.2-0.1,1.7-0.3c0.5-0.2,1-0.6,1.4-1l0,0l0.8,0.9c-0.4,0.5-1,0.9-1.7,1.2c-0.7,0.3-1.4,0.4-2.2,0.4l0,0
				c-1,0-1.9-0.2-2.7-0.7c-0.8-0.4-1.4-1-1.9-1.8c-0.4-0.8-0.7-1.7-0.7-2.6l0,0c0-1,0.2-1.9,0.6-2.6c0.4-0.8,1-1.4,1.8-1.8
				c0.7-0.4,1.6-0.7,2.5-0.7l0,0c0.9,0,1.8,0.2,2.5,0.7c0.7,0.4,1.3,1,1.7,1.8C422.6,94.6,422.9,95.5,422.9,96.5L422.9,96.5z
				 M418,92.5c-1,0-1.8,0.3-2.4,0.9s-1,1.4-1.1,2.4l0,0h7.1c-0.1-1-0.5-1.8-1.1-2.4S419,92.5,418,92.5L418,92.5z M427.9,93.4
				c0.3-0.7,0.8-1.2,1.4-1.5c0.6-0.3,1.4-0.5,2.3-0.5l0,0v1.3l-0.3,0c-1.1,0-1.9,0.3-2.5,1c-0.6,0.7-0.9,1.6-0.9,2.7l0,0v5.1h-1.4
				V91.4h1.3V93.4z"/>
		</g>
	</g>
	<g transform="rotate(0 28.32 43.3129)">
		<g transform="matrix(1 0 0 1 0 0)">
			<path class="st0" d="M34,46.4L34,46.4c0.9,0,1.8,0.1,2.6,0.4c0.8,0.3,1.5,0.4,2.1,0.5l0,0c-0.3,1.2-0.4,2.5,0,3.9l0,0
				c-0.3,0.3-0.7,0.4-1.1,0.5l0,0c0-0.1-0.1-0.4-0.3-0.8c-0.1-0.4-0.3-0.7-0.4-1c-0.1-0.3-0.3-0.5-0.5-0.9c-0.2-0.3-0.5-0.6-0.8-0.8
				c-0.3-0.2-0.7-0.3-1.2-0.4l0,0c-0.7,0.1-1.2,0.3-1.5,0.6c-0.4,0.3-0.5,0.8-0.5,1.3l0,0c0,0.6,0.1,1,0.4,1.4
				c0.3,0.4,0.7,0.6,1.1,0.8c0.5,0.2,1,0.3,1.5,0.5c0.6,0.1,1.1,0.3,1.6,0.5c0.5,0.2,1,0.4,1.5,0.7c0.5,0.3,0.8,0.8,1.1,1.4
				c0.3,0.6,0.4,1.4,0.4,2.2l0,0c0,1.1-0.3,2-0.9,2.7c-0.6,0.8-1.3,1.3-2.2,1.7c-0.8,0.3-1.7,0.5-2.6,0.5l0,0
				c-1.9,0-3.8-0.4-5.7-1.3l0,0c0-0.8,0.1-1.4,0.1-1.5l0,0c0-1.1-0.1-2.2-0.3-3.4l0,0c0.6-0.3,1.2-0.3,2,0l0,0
				c0.2,1.5,0.7,2.6,1.4,3.4s1.5,1.2,2.3,1.3l0,0c0.8-0.1,1.4-0.3,1.8-0.8s0.6-1,0.6-1.7l0,0c0-0.6-0.1-1.1-0.4-1.5
				c-0.3-0.4-0.6-0.7-1.1-0.9c-0.4-0.2-0.9-0.4-1.5-0.6c-0.5-0.2-1.1-0.4-1.6-0.6c-0.5-0.2-1-0.5-1.5-0.7c-0.4-0.3-0.8-0.7-1.1-1.2
				c-0.3-0.5-0.4-1.1-0.4-1.9l0,0c0-0.7,0.1-1.3,0.3-1.8c0.2-0.5,0.5-0.9,0.8-1.3c0.3-0.3,0.7-0.6,1.2-0.8c0.5-0.2,0.9-0.4,1.4-0.4
				C33,46.4,33.5,46.4,34,46.4z M34,46.8L34,46.8c-0.5,0-1.1,0.1-1.6,0.2c-0.5,0.1-1,0.3-1.5,0.6c-0.5,0.3-0.9,0.7-1.2,1.3
				c-0.3,0.6-0.4,1.2-0.4,1.9l0,0c0,0.7,0.1,1.2,0.4,1.7c0.3,0.5,0.6,0.8,1.1,1.1c0.4,0.3,0.9,0.5,1.5,0.7c0.5,0.2,1.1,0.4,1.6,0.6
				c0.5,0.2,1,0.4,1.5,0.7c0.4,0.3,0.8,0.6,1.1,1.1s0.4,1,0.4,1.6l0,0c0,0.9-0.3,1.6-0.8,2.1c-0.6,0.5-1.3,0.8-2.4,0.8l0,0
				c-1,0-1.9-0.4-2.7-1.2c-0.8-0.8-1.4-2-1.7-3.6l0,0c-0.1-0.1-0.3-0.1-0.5,0l0,0c0.2,1,0.3,2.1,0.3,3.2l0,0c0,0.3,0,0.7,0,1.3l0,0
				c1.6,0.7,3.2,1.1,4.6,1.1l0,0c1.2,0,2.3-0.4,3.4-1.1s1.5-1.7,1.5-3l0,0c0-0.7-0.1-1.4-0.4-1.9c-0.3-0.5-0.7-0.9-1.1-1.2
				c-0.5-0.3-1-0.5-1.5-0.7c-0.6-0.2-1.1-0.4-1.6-0.6s-1-0.4-1.5-0.6c-0.5-0.2-0.8-0.6-1.1-1c-0.3-0.4-0.4-0.9-0.4-1.5l0,0
				c0-0.8,0.3-1.5,0.8-2c0.6-0.5,1.4-0.8,2.4-0.8l0,0c1.8,0,3.1,1.3,3.7,3.8l0,0c0.2,0,0.3,0,0.4-0.1l0,0c-0.2-1.6-0.7-2.7-1.4-3.3
				C36,47.1,35.1,46.8,34,46.8z M47.5,61L47.5,61c-1.5-0.1-2.3-0.5-2.3-0.9l0,0c-0.1-3.6-0.1-8-0.1-13.2l0,0
				c-0.1-0.1-0.2-0.2-0.3-0.3l0,0c-0.9,0.4-1.8,0.7-2.8,0.8l0,0c0,0.2,0,0.3,0,0.5l0,0c0.7,0,1.3,0.2,1.7,0.4l0,0
				c0.1,4.9,0,8.8,0,11.8l0,0c0,0.5-0.6,0.8-1.7,0.9l0,0c-0.1,0.2-0.1,0.3,0,0.5l0,0c1.5-0.1,3.4-0.1,5.6,0l0,0
				C47.5,61.3,47.5,61.1,47.5,61z M47.8,60.6L47.8,60.6c0.1,0.4,0.1,0.8,0,1.2l0,0c-2.5,0-4.6,0-6.3,0l0,0c-0.1-0.4-0.1-0.8,0-1.2
				l0,0c1.1-0.1,1.6-0.3,1.6-0.6l0,0c0.1-3.8,0.1-7.7,0-11.5l0,0c-0.4-0.1-1-0.2-1.6-0.3l0,0c-0.1-0.4-0.1-0.8,0-1.2l0,0
				c1,0,2.1-0.3,3.3-0.9l0,0c0.7,0,1.2,0.3,1.6,0.6l0,0c0,5.8,0,10.2,0.1,13.3l0,0C46.5,60.3,47,60.5,47.8,60.6z M54,53.2L54,53.2
				c0.7,0,1.2,0.3,1.6,1s0.6,1.6,0.6,3l0,0c0,1.3-0.2,2.3-0.6,3c-0.4,0.6-0.9,1-1.6,1l0,0c-0.4,0-0.7-0.1-1-0.2s-0.6-0.4-0.8-0.7
				c-0.2-0.3-0.4-0.7-0.5-1.2c-0.1-0.5-0.2-1.1-0.2-1.7l0,0c0-0.7,0.1-1.3,0.2-1.8c0.1-0.5,0.3-0.9,0.5-1.2c0.2-0.3,0.5-0.6,0.8-0.7
				C53.3,53.3,53.6,53.2,54,53.2z M54,61.7L54,61.7c0.6,0,1.1-0.1,1.6-0.3c0.5-0.2,0.9-0.5,1.2-0.9c0.3-0.4,0.6-0.9,0.8-1.4
				c0.2-0.6,0.3-1.2,0.3-1.8l0,0c0-0.7-0.1-1.3-0.3-1.8c-0.2-0.6-0.4-1-0.8-1.4c-0.3-0.4-0.8-0.7-1.2-0.9s-1-0.3-1.6-0.3l0,0
				c-0.6,0-1.2,0.1-1.7,0.3s-1,0.5-1.3,0.9c-0.4,0.4-0.6,0.9-0.8,1.4c-0.2,0.6-0.3,1.2-0.3,1.8l0,0c0,0.7,0.1,1.3,0.3,1.8
				c0.2,0.6,0.5,1,0.8,1.4c0.4,0.4,0.8,0.7,1.3,0.9C52.8,61.6,53.4,61.7,54,61.7z M54.4,52.2L54.4,52.2c0.8,0,1.5,0.1,2.1,0.4
				c0.6,0.2,1.1,0.6,1.6,1c0.4,0.4,0.7,1,1,1.6c0.2,0.6,0.3,1.3,0.3,2l0,0c0,0.7-0.1,1.4-0.3,2s-0.5,1.1-1,1.6
				c-0.4,0.4-0.9,0.8-1.6,1c-0.6,0.2-1.3,0.4-2.1,0.4l0,0c-0.8,0-1.5-0.1-2.1-0.4c-0.6-0.2-1.1-0.6-1.5-1c-0.4-0.4-0.7-1-1-1.6
				c-0.2-0.6-0.3-1.3-0.3-2l0,0c0-0.7,0.1-1.4,0.3-2c0.2-0.6,0.5-1.1,1-1.6c0.4-0.4,0.9-0.8,1.5-1C52.9,52.3,53.6,52.2,54.4,52.2z
				 M52.9,57.1L52.9,57.1c0,2.1,0.5,3.3,1.4,3.5l0,0c1-0.2,1.4-1.4,1.4-3.5l0,0c0-2.1-0.5-3.2-1.4-3.5l0,0
				C53.4,53.9,52.9,55.1,52.9,57.1z M70.8,52.8L70.8,52.8h-4.9c-0.1,0.1-0.1,0.3,0,0.5l0,0c0.6,0.1,1,0.4,1.1,0.9l0,0l0.4,1.1
				l-1.8,3.9h0l-2-5c-0.1-0.3,0-0.5,0.2-0.6c0.2-0.1,0.6-0.2,1.1-0.3l0,0c0.1-0.2,0.1-0.3,0-0.5l0,0h-4.7c-0.1,0.1-0.1,0.3,0,0.5
				l0,0c0.9,0.1,1.4,0.5,1.6,0.9l0,0l3.1,7.5h0.5l2.5-5.5l2.1,5.5h0.5l3.3-7.5c0.2-0.6,0.7-0.9,1.5-0.9l0,0c0.1-0.2,0.1-0.3,0-0.5
				l0,0h-3.3c-0.1,0.1-0.1,0.3,0,0.5l0,0c0.2,0,0.3,0,0.5,0.1s0.2,0.1,0.4,0.1c0.1,0.1,0.2,0.2,0.2,0.3c0,0.1,0,0.3-0.1,0.5l0,0
				l-2.1,5h0l-1.8-5c0-0.1,0-0.2,0-0.3c0-0.1,0-0.1,0-0.2c0.1-0.1,0.1-0.1,0.1-0.1c0,0,0.1-0.1,0.2-0.1c0.1,0,0.2-0.1,0.3-0.1
				c0.1,0,0.2,0,0.4-0.1c0.2,0,0.3,0,0.4,0c0.1,0,0.3,0,0.5,0l0,0C70.9,53.1,70.9,52.9,70.8,52.8z M65.7,52.4L65.7,52.4h5.4
				c0.2,0.4,0.2,0.8,0,1.2l0,0c-0.2,0-0.3,0-0.3,0c-0.1,0-0.2,0-0.3,0c-0.1,0-0.2,0-0.2,0.1c0,0-0.1,0.1-0.1,0.1
				C70,53.9,70,54,70,54c0,0.1,0,0.1,0,0.2l0,0l1.1,2.9l1.2-2.9c0.1-0.2,0.1-0.4-0.1-0.5c-0.1-0.1-0.4-0.2-0.7-0.2l0,0
				c-0.2-0.4-0.2-0.8,0-1.2l0,0h3.9c0.2,0.4,0.2,0.8,0,1.2l0,0c-0.4,0-0.8,0.1-1,0.2c-0.2,0.1-0.3,0.3-0.4,0.5l0,0l-3.4,7.8h-1
				l-1.9-4.9l-2.2,4.9h-1l-3.2-7.8c-0.1-0.2-0.3-0.4-0.5-0.5c-0.2-0.1-0.6-0.2-1-0.3l0,0c-0.2-0.3-0.2-0.7,0-1.2l0,0h5.3
				c0.2,0.4,0.2,0.8,0,1.2l0,0c-0.4,0-0.5,0.2-0.3,0.7l0,0l1.3,3.1l1-2.1l-0.4-1c-0.1-0.4-0.5-0.6-1-0.7l0,0
				C65.5,53.3,65.5,52.9,65.7,52.4z M93.1,60.1L93.1,60.1c0,0.5-0.8,0.8-2.3,0.9l0,0c-0.1,0.1-0.1,0.3,0,0.5l0,0
				c1.1,0,2.2-0.1,3.4-0.1l0,0c1.4,0,2.7,0,4,0.1l0,0c0.1-0.1,0.1-0.3,0-0.5l0,0c-2.2-0.1-3.2-0.4-3.3-0.9l0,0
				c-0.1-1.6-0.1-3.5-0.1-5.8l0,0c0-2.3,0-4.2,0.1-5.8l0,0c0-0.5,1.1-0.8,3.3-0.9l0,0c0.1-0.2,0.1-0.3,0-0.5l0,0
				c-1.7,0.1-3,0.1-4,0.1l0,0c-0.8,0-1.9,0-3.4-0.1l0,0c0,0.2,0,0.3,0,0.5l0,0c1.5,0.1,2.2,0.5,2.3,0.9l0,0c0,1.2,0.1,3,0.1,5.4l0,0
				c-1.2,0-2.3,0.1-3.4,0.1l0,0c-1.8,0-3.1,0-3.9,0l0,0c0-2.2,0-4,0.1-5.4l0,0c0-0.5,1.1-0.8,3.3-0.9l0,0c0-0.1,0-0.3,0-0.5l0,0
				c-1.7,0.1-3,0.1-4,0.1l0,0c-0.8,0-1.9,0-3.4-0.1l0,0c-0.1,0.1-0.1,0.3,0,0.5l0,0c1.5,0.1,2.2,0.5,2.3,0.9l0,0
				c0.1,1.5,0.1,3.3,0.1,5.5l0,0c0,2.1,0,4.1-0.1,6.1l0,0c0,0.5-0.8,0.8-2.3,0.9l0,0c-0.1,0.1-0.1,0.3,0,0.5l0,0
				c1.1,0,2.2-0.1,3.4-0.1l0,0c1.4,0,2.7,0,4,0.1l0,0c0.1-0.1,0.1-0.3,0-0.5l0,0c-2.2-0.1-3.2-0.4-3.3-0.9l0,0
				c-0.1-2-0.1-3.8-0.1-5.5l0,0c1.6,0,2.9,0,3.9,0l0,0c1.1,0,2.2,0,3.4,0.1l0,0C93.2,56.1,93.2,57.9,93.1,60.1z M92.7,60.1
				L92.7,60.1c0-2.6,0.1-4.2,0.1-4.9l0,0c-1.3,0-2.3,0-3,0l0,0c-0.6,0-1.1,0-1.6,0c-0.5,0-0.8,0-0.8,0l0,0c0,1.5,0,3.1,0.1,4.9l0,0
				c0,0,0,0.1,0,0.1c0,0,0.1,0.1,0.1,0.1c0.1,0,0.1,0.1,0.2,0.1c0.1,0,0.2,0.1,0.3,0.1c0.1,0,0.2,0,0.3,0.1c0.1,0,0.2,0,0.3,0.1
				c0.1,0,0.2,0,0.3,0c0.1,0,0.2,0,0.3,0c0.1,0,0.2,0,0.3,0l0,0c0.1,0.4,0.1,0.8-0.1,1.2l0,0c-2.4-0.1-3.9-0.1-4.4-0.1l0,0
				c-0.3,0-1.6,0-3.7,0.1l0,0c-0.2-0.4-0.2-0.9,0-1.3l0,0c1.4-0.1,2.1-0.3,2.1-0.6l0,0c0.1-2,0.1-4.1,0.1-6.1l0,0
				c0-2.1,0-3.9-0.1-5.4l0,0c0-0.2-0.7-0.4-2.2-0.6l0,0c-0.1-0.4-0.1-0.8,0-1.3l0,0c0.6,0,1.3,0,2.3,0c1,0,1.7,0,2,0l0,0
				c0.3,0,0.8,0,1.6,0c0.8,0,1.5,0,2.1,0l0,0c0.1,0.4,0.1,0.8,0,1.2l0,0c-1.4,0.1-2.2,0.3-2.2,0.6l0,0c-0.1,1.8-0.1,3.5-0.1,5l0,0
				c0.6,0,1.4,0,2.4,0l0,0l3,0c0-2.1-0.1-3.8-0.1-5l0,0c0-0.2-0.7-0.4-2.2-0.6l0,0c-0.1-0.5-0.1-0.9,0-1.3l0,0
				c0.9,0.1,2.2,0.1,3.8,0.1l0,0c0.3,0,0.9,0,1.9,0c0.9,0,1.7,0,2.4,0l0,0c0.1,0.4,0.1,0.8,0,1.2l0,0c-1.4,0.1-2.2,0.3-2.2,0.6l0,0
				c-0.1,1.6-0.1,3.5-0.1,5.8l0,0c0,2.2,0,4.2,0.1,5.8l0,0c0,0.2,0.7,0.4,2.2,0.6l0,0c0.1,0.4,0.1,0.8,0,1.3l0,0
				c-2.1-0.1-3.3-0.1-3.7-0.1l0,0c-0.5,0-2,0-4.4,0.1l0,0c-0.2-0.4-0.2-0.9,0-1.3l0,0C92,60.5,92.7,60.3,92.7,60.1z M102.4,54.3
				L102.4,54.3c0.3,0.1,0.5,0.2,0.7,0.4c0.2,0.2,0.3,0.4,0.3,0.7l0,0c0,0.3-0.1,0.6-0.3,0.9c-0.2,0.2-0.5,0.3-0.9,0.3l0,0
				c-0.4,0-0.7-0.1-1-0.4c-0.3-0.3-0.5-0.7-0.5-1.2l0,0c0-0.9,0.4-1.5,1.2-2.1c0.8-0.5,1.9-0.8,3.2-0.8l0,0c1.2,0,2.1,0.2,2.6,0.7
				c0.5,0.5,0.8,1.3,0.8,2.5l0,0v3.4l0.6,0c0.5,0,0.9,0.3,1.1,0.8l0,0l-0.3,0.5c-0.2,0.3-0.4,0.5-0.5,0.7c-0.1,0.2-0.3,0.4-0.6,0.6
				c-0.2,0.2-0.5,0.4-0.9,0.4c-0.3,0.1-0.7,0.1-1.2,0.1l0,0c-0.5,0-1-0.2-1.2-0.6l0,0c-0.7,0.5-1.6,0.8-2.7,0.8l0,0
				c-0.5,0-0.9-0.1-1.3-0.2c-0.3-0.2-0.6-0.4-0.8-0.6s-0.3-0.5-0.3-0.7c-0.1-0.2-0.1-0.4-0.1-0.7l0,0c0-1,0.3-1.7,1-2.1
				c0.6-0.5,1.9-1,3.9-1.5l0,0v-1.1c0-0.5-0.1-0.9-0.3-1.1c-0.2-0.2-0.5-0.4-0.8-0.4l0,0C103.3,53.7,102.7,53.9,102.4,54.3z
				 M105.6,57.2L105.6,57.2v2c-0.6,0.8-1.3,1.2-1.9,1.2l0,0c-0.4,0-0.7-0.1-0.9-0.3c-0.2-0.2-0.4-0.4-0.4-0.8l0,0
				c0-0.5,0.2-1,0.7-1.3C103.5,57.8,104.3,57.5,105.6,57.2z M105.2,59.1L105.2,59.1v-1.2c-0.9,0.3-1.4,0.8-1.4,1.5l0,0
				c0,0.3,0.1,0.5,0.3,0.6l0,0C104.4,59.9,104.8,59.6,105.2,59.1z M102.2,55.7L102.2,55.7c-0.2,0-0.4-0.2-0.5-0.5l0,0
				c-0.1-0.5,0-1,0.5-1.4l0,0c0.4-0.4,1.1-0.6,2-0.6l0,0c0.4,0,0.8,0.2,1,0.5c0.3,0.3,0.4,0.8,0.4,1.5l0,0v1.4
				c-1.9,0.5-3.2,1-3.9,1.4c-0.7,0.4-1,1.1-1,1.9l0,0c0,0.4,0.1,0.9,0.4,1.2c0.3,0.4,0.8,0.6,1.6,0.6l0,0c0.3,0,0.6,0,0.9-0.1
				c0.3-0.1,0.5-0.3,0.8-0.5c0.3-0.2,0.5-0.4,0.5-0.4c0.1-0.1,0.2-0.2,0.3-0.3c0.2-0.1,0.2-0.2,0.2-0.2l0,0c0.1,1,0.5,1.4,1.2,1.4
				l0,0c0.2,0,0.4,0,0.6-0.1c0.2-0.1,0.5-0.3,0.7-0.5c0.2-0.3,0.4-0.4,0.4-0.5c0.1-0.1,0.2-0.2,0.3-0.4c0.1-0.2,0.2-0.3,0.3-0.4l0,0
				c-0.1-0.2-0.2-0.3-0.5-0.3l0,0c-0.4,0.5-0.7,0.8-1.1,0.8l0,0c-0.3,0-0.4-0.2-0.4-0.6l0,0v-4c0-1-0.2-1.8-0.6-2.2
				c-0.4-0.4-1.1-0.6-2.1-0.6l0,0c-0.9,0-1.7,0.2-2.3,0.7c-0.7,0.5-1,1-1,1.8l0,0c0,0.4,0.1,0.7,0.3,0.9c0.2,0.2,0.5,0.3,0.8,0.3
				l0,0C102.3,56.1,102.3,55.9,102.2,55.7z M117.7,61L117.7,61c-0.1,0.1-0.1,0.3,0,0.5l0,0c1.7,0,3.4,0,5.1,0l0,0
				c0.1-0.2,0.1-0.3,0-0.5l0,0c-1.6-0.1-2.4-0.4-2.4-0.9l0,0l-0.1-4.9c0-0.9-0.2-1.5-0.4-2c-0.3-0.4-0.7-0.6-1.4-0.6l0,0
				c-1.1,0-2.4,0.7-3.8,2.2l0,0v-1.9c-0.1-0.1-0.2-0.2-0.3-0.3l0,0c-0.9,0.4-1.8,0.7-2.8,0.8l0,0c0,0.2,0,0.3,0,0.5l0,0
				c0.7,0,1.3,0.2,1.7,0.4l0,0c0.1,1.9,0.1,3.9,0,5.8l0,0c0,0.5-0.6,0.8-1.7,0.9l0,0c-0.1,0.1-0.1,0.3,0,0.5l0,0
				c1.7-0.1,3.4-0.1,5.1,0l0,0c0.1-0.2,0.1-0.3,0-0.5l0,0c-1.2-0.1-1.8-0.4-1.8-0.9l0,0c0-1.4-0.1-2.9-0.1-4.6l0,0
				c1.3-1.2,2.3-1.7,3.1-1.7l0,0c0.7,0,1.1,0.6,1.1,1.8l0,0l0,4.6c0,0.3-0.1,0.5-0.3,0.7C118.2,60.8,118,60.9,117.7,61z M117.3,61.8
				L117.3,61.8c-0.2-0.4-0.2-0.8,0-1.2l0,0c0.2,0,0.4-0.1,0.6-0.2c0.2-0.1,0.3-0.2,0.3-0.4l0,0l0-4.6c0-0.7-0.1-1.1-0.4-1.3l0,0
				c-0.5,0.1-1.1,0.5-1.9,1.1l0,0c0,1.8,0,3.4,0.1,4.8l0,0c0,0.3,0.3,0.5,0.8,0.6l0,0c0.2,0.4,0.2,0.8,0,1.2l0,0
				c-1.9-0.1-3.8-0.1-5.7,0l0,0c-0.2-0.4-0.2-0.8,0-1.2l0,0c1.1-0.1,1.6-0.3,1.6-0.6l0,0c0.1-1.8,0.1-3.7,0-5.5l0,0
				c-0.4-0.1-1-0.2-1.6-0.2l0,0c-0.1-0.4-0.1-0.8,0-1.2l0,0c1,0,2.1-0.3,3.3-0.9l0,0c0.7,0,1.2,0.3,1.6,0.6l0,0v0.3
				c0.9-0.6,2-0.9,3.2-0.9l0,0c0.9,0,1.5,0.2,1.9,0.7c0.4,0.5,0.6,1.2,0.6,2.3l0,0c0,2.6,0.1,4.2,0.1,4.9l0,0c0,0.3,0.5,0.5,1.4,0.6
				l0,0c0.1,0.4,0.1,0.8,0,1.2l0,0C121.1,61.8,119.2,61.8,117.3,61.8z M129.1,60.4L129.1,60.4c-0.8,0-1.4-0.3-1.8-0.9
				c-0.4-0.6-0.6-1.4-0.6-2.4l0,0c0-0.8,0.1-1.4,0.2-2c0.2-0.6,0.4-1,0.6-1.2c0.3-0.3,0.5-0.4,0.8-0.5c0.2-0.1,0.5-0.2,0.7-0.2l0,0
				c0.9,0,1.6,0.4,2.1,1.2l0,0v1.4c0,1.8,0,3,0,3.6l0,0C130.5,60.1,129.8,60.4,129.1,60.4z M135.5,60.6L135.5,60.6
				c0.2,0.4,0.2,0.8,0,1.2l0,0c-1.7-0.1-3.1-0.1-4.2,0l0,0c-0.2-0.1-0.4-0.2-0.5-0.4l0,0c-0.6,0.4-1.5,0.6-2.6,0.6l0,0
				c-1.1,0-2-0.4-2.7-1.2c-0.7-0.8-1-1.9-1-3.4l0,0c0-0.6,0.1-1.2,0.3-1.8c0.2-0.6,0.5-1.2,0.8-1.7c0.4-0.5,0.9-1,1.6-1.3
				c0.7-0.3,1.4-0.5,2.3-0.5l0,0c0.6,0,1,0,1.3,0l0,0c0-1,0-2.3,0-3.7l0,0c-0.4-0.1-1-0.2-1.8-0.3l0,0c-0.1-0.4-0.1-0.8,0-1.2l0,0
				c0.9-0.1,2.1-0.4,3.5-0.9l0,0c0.7,0,1.2,0.3,1.6,0.6l0,0c0,7.4,0,11.9,0.1,13.3l0,0C134.1,60.3,134.6,60.5,135.5,60.6z
				 M130.8,55.8v-1.3c-0.3-0.5-0.8-0.7-1.3-0.8l0,0c-0.5,0.1-0.8,0.4-1.2,0.9c-0.3,0.5-0.5,1.4-0.5,2.5l0,0c0,0.8,0.1,1.4,0.4,1.9
				c0.3,0.5,0.7,0.8,1.2,1l0,0c0.4-0.1,0.9-0.3,1.3-0.8l0,0C130.8,58.6,130.8,57.4,130.8,55.8L130.8,55.8z M135.2,61L135.2,61
				c-0.3,0-0.6-0.1-0.8-0.1c-0.2,0-0.4-0.1-0.7-0.1c-0.3-0.1-0.5-0.2-0.7-0.3c-0.2-0.1-0.2-0.3-0.2-0.4l0,0c0-1.4-0.1-5.9-0.1-13.2
				l0,0c-0.1-0.1-0.2-0.2-0.3-0.3l0,0c-0.9,0.4-1.9,0.7-3,0.8l0,0c0,0.2,0,0.3,0,0.5l0,0c0.9,0,1.5,0.2,1.9,0.4l0,0
				c0,1.8,0,3.4,0,4.6l0,0c-0.7-0.2-1.2-0.3-1.7-0.3l0,0c-0.8,0-1.4,0.2-2,0.5c-0.6,0.3-1,0.7-1.4,1.2c-0.3,0.5-0.6,1-0.7,1.6
				c-0.2,0.6-0.2,1.1-0.2,1.7l0,0c0,1.3,0.3,2.3,0.9,3.1c0.6,0.8,1.3,1.1,2.1,1.1l0,0c1,0,2.1-0.5,3.1-1.6l0,0c0,0.5,0,0.9,0,1.1
				l0,0c0.1,0.1,0.2,0.3,0.2,0.3l0,0c0.2,0,0.4,0,0.6,0c0.2,0,0.4,0,0.5,0c0.1,0,0.2,0,0.3,0l0,0c0.4,0,1.1,0,2.3,0.1l0,0
				C135.2,61.3,135.2,61.2,135.2,61z M146.8,53.9L146.8,53.9c0-1.6,0-3.4,0.1-5.5l0,0c0-0.5,1.1-0.8,3.3-0.9l0,0c0-0.1,0-0.3,0-0.5
				l0,0c-1.7,0.1-3,0.1-4,0.1l0,0c-0.8,0-1.9,0-3.4-0.1l0,0c-0.1,0.1-0.1,0.3,0,0.5l0,0c1.5,0.1,2.2,0.5,2.3,0.9l0,0
				c0.1,1.5,0.1,3.3,0.1,5.5l0,0v7c0,1.9-0.1,3.2-0.4,4c-0.3,0.8-0.8,1.1-1.7,1.1l0,0c-0.6,0-1.1-0.2-1.4-0.5
				c-0.3-0.3-0.5-0.7-0.5-1.2l0,0c0-0.3,0.1-0.6,0.3-0.8c0.2-0.2,0.4-0.3,0.6-0.3l0,0c0.2,0,0.4,0.1,0.6,0.2l0,0
				c0.2,0,0.3-0.1,0.3-0.3l0,0c-0.2-0.3-0.6-0.5-1.1-0.5c-0.5,0-0.8,0.1-1.1,0.4c-0.3,0.3-0.4,0.7-0.4,1.2l0,0
				c0,0.6,0.2,1.2,0.7,1.6c0.5,0.5,1.2,0.7,2,0.7l0,0c0.4,0,0.7,0,1-0.1c0.3-0.1,0.6-0.2,0.8-0.4c0.2-0.2,0.5-0.4,0.6-0.6
				c0.2-0.2,0.3-0.5,0.5-0.9c0.1-0.4,0.3-0.8,0.4-1.1c0.1-0.4,0.2-0.8,0.2-1.4c0.1-0.6,0.1-1.1,0.2-1.6c0-0.5,0.1-1.2,0.1-1.9
				c0-0.8,0-1.5,0-2.1C146.8,55.7,146.8,54.9,146.8,53.9z M143.3,67L143.3,67c-1.1,0-2-0.3-2.5-0.8c-0.6-0.5-0.9-1.2-0.9-1.9l0,0
				c0-0.7,0.2-1.2,0.6-1.6c0.4-0.4,0.9-0.6,1.4-0.6l0,0c0.5,0,0.9,0.2,1.3,0.5c0.4,0.3,0.5,0.8,0.5,1.4l0,0c0,0.3,0,0.5-0.1,0.6
				c-0.1,0.2-0.2,0.3-0.3,0.4c-0.1,0.1-0.1,0.2-0.2,0.2l0,0c0,0.1,0.2,0.2,0.3,0.3l0,0c0.5-0.1,0.9-0.5,1.1-1.2
				c0.2-0.7,0.3-1.9,0.3-3.4l0,0v-7c0-2.1,0-3.9-0.1-5.4l0,0c0-0.2-0.7-0.4-2.2-0.6l0,0c-0.1-0.4-0.1-0.8,0-1.3l0,0
				c1.1,0.1,2.6,0.1,4.4,0.1l0,0c0.3,0,0.8,0,1.6,0c0.8,0,1.5,0,2.1,0l0,0c0.1,0.4,0.1,0.8,0,1.2l0,0c-1.4,0.1-2.2,0.3-2.2,0.6l0,0
				c-0.1,1.6-0.1,3.7-0.1,6.2l0,0c0,1.1,0,2,0,2.8c0,0.8-0.1,1.7-0.2,2.6c-0.1,0.9-0.2,1.7-0.3,2.3c-0.1,0.7-0.3,1.3-0.6,1.9
				c-0.3,0.6-0.6,1.1-0.9,1.5c-0.3,0.4-0.8,0.7-1.3,0.9C144.5,66.9,143.9,67,143.3,67z M158.9,59.1L158.9,59.1c0-1.6,0-3.3,0-4.9
				l0,0c0-0.2-0.5-0.4-1.5-0.6l0,0c-0.1-0.4-0.1-0.8,0-1.2l0,0h4.2c0.2,0.1,0.3,0.2,0.4,0.2c0.1,0.1,0.2,0.2,0.2,0.4l0,0
				c0,0.1,0,0.3,0,0.6s0,0.5,0,0.6l0,0c-0.1,2.1-0.1,4,0,5.6l0,0c0.5,0.1,1,0.2,1.5,0.3l0,0c0.1,0.4,0.1,0.8,0,1.2l0,0
				c-0.9,0-1.9,0.3-3.2,0.9l0,0c-0.7-0.1-1.2-0.3-1.6-0.6l0,0v-0.3c-0.9,0.6-1.9,0.9-3.2,0.9l0,0c-0.9,0-1.5-0.2-1.9-0.7
				c-0.4-0.5-0.6-1.2-0.6-2.3l0,0c0-1.6,0-3.3,0-4.9l0,0c0-0.2-0.5-0.4-1.5-0.6l0,0c-0.1-0.4-0.1-0.8,0-1.2l0,0h4.2
				c0.2,0.1,0.3,0.2,0.4,0.2c0.1,0.1,0.2,0.2,0.2,0.4l0,0c0,0.1,0,0.3,0,0.6c0,0.3,0,0.5,0,0.6l0,0c0,1.5,0,3.1,0,4.6l0,0
				c0,0.7,0.2,1.2,0.4,1.3l0,0C157.4,60,158,59.6,158.9,59.1z M159.3,54.2L159.3,54.2c0,1.7,0,3.4,0,5.1l0,0
				c-1.2,0.9-2.1,1.3-2.8,1.3l0,0c-0.9,0-1.3-0.6-1.3-1.8l0,0c0-1.6,0-3.1,0-4.6l0,0c0-0.2,0-0.4,0-0.6c0-0.2,0.1-0.4,0.1-0.5l0,0
				c-0.1-0.1-0.2-0.2-0.3-0.3l0,0c-1,0.1-1.9,0.1-2.9,0l0,0c0,0.1,0,0.3,0,0.5l0,0c1,0.2,1.5,0.5,1.6,0.9l0,0c0,1.7,0,3.3,0,4.9l0,0
				c0,0.9,0.1,1.5,0.5,2c0.3,0.4,0.8,0.6,1.6,0.6l0,0c1,0,2.2-0.6,3.6-1.8l0,0v1.4c0,0.1,0.2,0.2,0.3,0.2l0,0
				c0.9-0.3,2.1-0.6,3.6-0.7l0,0c0-0.2,0-0.3,0-0.5l0,0c-1.1,0-1.9-0.2-2.5-0.4l0,0c-0.1-2.3-0.1-4.3,0-5.8l0,0c0-0.2,0-0.4,0-0.6
				c0-0.2,0-0.4,0-0.5l0,0c-0.1-0.1-0.2-0.2-0.3-0.3l0,0c-0.9,0-1.9,0-2.9,0l0,0c0,0.1,0,0.3,0,0.5l0,0
				C158.7,53.4,159.2,53.7,159.3,54.2z M166.9,61.5L166.9,61.5c-0.3,0.1-0.6,0.2-0.9,0.4l0,0c-0.3-0.2-0.5-0.4-0.6-0.6l0,0
				c0,0,0-0.2,0.1-0.4c0-0.2,0.1-0.5,0.1-0.8c0-0.3,0.1-0.6,0.1-0.9c0-0.3,0-0.6,0-0.8l0,0c0.3-0.1,0.8-0.2,1.4-0.2l0,0
				c0.1,0,0.1,0,0.2,0c0.1,0,0.1,0,0.2,0l0,0c0.5,1.5,1.1,2.3,1.9,2.5l0,0c0.3-0.1,0.6-0.2,0.8-0.4c0.2-0.2,0.3-0.4,0.3-0.6l0,0
				c0-0.2,0-0.3-0.1-0.5c-0.1-0.2-0.2-0.3-0.4-0.4s-0.4-0.2-0.6-0.4c-0.2-0.1-0.4-0.2-0.7-0.3c-0.2-0.1-0.5-0.2-0.7-0.3
				c-0.2-0.1-0.5-0.2-0.7-0.3l0,0c-0.2-0.1-0.5-0.2-0.7-0.4c-0.2-0.2-0.4-0.3-0.6-0.5c-0.2-0.2-0.3-0.4-0.4-0.7
				c-0.1-0.2-0.1-0.5-0.1-0.8l0,0c0-0.3,0.1-0.6,0.2-1c0.1-0.3,0.3-0.6,0.5-0.9c0.3-0.3,0.6-0.5,1-0.7c0.4-0.2,1-0.3,1.6-0.3l0,0
				c0.7,0,1.3,0,1.6,0.1l0,0l0.4-0.1h0.7c0.1,0.6,0.2,1.1,0.3,1.5c0.1,0.5,0.3,0.9,0.4,1.3l0,0c-0.3,0.3-0.6,0.4-1,0.4l0,0
				c-0.2-0.3-0.4-0.5-0.6-0.7c-0.2-0.2-0.4-0.4-0.5-0.5c-0.2-0.2-0.3-0.3-0.5-0.4c-0.2-0.1-0.3-0.2-0.5-0.2l0,0
				c-0.4,0.1-0.6,0.3-0.6,0.6l0,0c0,0.3,0.1,0.5,0.3,0.7c0.2,0.2,0.5,0.4,0.8,0.5c0.3,0.2,0.7,0.3,1.1,0.4c0.4,0.1,0.8,0.3,1.1,0.4
				l0,0c0.3,0.1,0.5,0.3,0.7,0.4c0.2,0.2,0.4,0.4,0.6,0.6c0.2,0.2,0.3,0.5,0.4,0.8c0.1,0.3,0.1,0.6,0.1,0.9l0,0
				c0,0.5-0.1,0.9-0.4,1.3c-0.2,0.4-0.6,0.7-1,1c-0.4,0.3-0.9,0.5-1.4,0.6c-0.5,0.1-1,0.2-1.6,0.2l0,0
				C168.2,62.1,167.5,61.9,166.9,61.5z M169.1,61.7L169.1,61.7c0.8,0,1.5-0.2,2.1-0.7c0.6-0.5,0.9-1,0.9-1.6l0,0
				c0-0.6-0.2-1.1-0.5-1.5c-0.4-0.4-0.8-0.8-1.3-1c-0.5-0.2-1-0.4-1.5-0.6c-0.5-0.2-1-0.4-1.3-0.7c-0.4-0.3-0.5-0.6-0.5-0.9l0,0
				c0-0.5,0.2-0.8,0.5-1c0.3-0.2,0.7-0.3,1.2-0.3l0,0c0.5,0,0.9,0.1,1.3,0.4c0.4,0.3,0.8,0.8,1.4,1.4l0,0c0.2,0,0.3,0,0.4-0.1l0,0
				c-0.2-0.7-0.6-1.3-1.1-1.7c-0.5-0.4-1.1-0.7-1.8-0.7l0,0c-1,0-1.8,0.2-2.3,0.7c-0.5,0.5-0.7,1-0.7,1.7l0,0c0,0.5,0.2,1,0.5,1.3
				c0.3,0.4,0.8,0.6,1.3,0.8c0.5,0.2,1,0.4,1.5,0.6c0.5,0.2,0.9,0.4,1.2,0.8c0.3,0.3,0.5,0.7,0.5,1.1l0,0c0,0.4-0.2,0.7-0.5,1
				c-0.3,0.3-0.8,0.4-1.3,0.4l0,0c-0.7,0-1.2-0.2-1.6-0.7c-0.4-0.4-0.7-1.1-0.9-1.8l0,0c-0.2,0-0.4,0-0.5,0.1l0,0c0,0.5,0,1-0.1,1.6
				c0,0.6-0.1,1-0.1,1.1l0,0c0,0.1,0.1,0.1,0.2,0.2l0,0c0.3-0.2,0.5-0.4,0.6-0.6l0,0c0.6,0.3,1,0.5,1.3,0.6
				C168.2,61.7,168.6,61.7,169.1,61.7z M178.2,58.9v-5.2h3.8c0.1-0.3,0.1-0.5,0-0.7l0,0h-3.8v-2.1c-0.2-0.1-0.3-0.1-0.5,0l0,0
				c-0.2,0.4-0.5,0.8-0.8,1.2c-0.3,0.3-0.5,0.6-0.7,0.7c-0.2,0.1-0.5,0.3-0.9,0.5l0,0c0,0.1,0,0.3,0,0.4l0,0h1.2v5.1
				c0,1.9,0.8,2.9,2.4,2.9l0,0c0.7,0,1.3-0.2,1.9-0.5c0.6-0.3,1-0.8,1.3-1.3l0,0c-0.1-0.1-0.2-0.2-0.3-0.2l0,0
				c-0.6,0.5-1.2,0.8-1.8,0.8l0,0C178.7,60.5,178.2,60,178.2,58.9L178.2,58.9z M181.5,59.2L181.5,59.2c0.4,0.1,0.7,0.3,0.9,0.7l0,0
				c-0.3,0.6-0.8,1.1-1.5,1.6c-0.6,0.4-1.3,0.6-2.1,0.6l0,0c-1.8,0-2.8-1.1-2.8-3.3l0,0v-4.7h-1.2c-0.1-0.3-0.1-0.7,0-1.1l0,0
				c0.4-0.2,0.7-0.4,0.9-0.6c0.2-0.1,0.5-0.4,0.8-0.7c0.3-0.3,0.6-0.7,0.8-1.2l0,0c0.6-0.3,1.3-0.2,2.1,0l0,0v2h2.8
				c0.2,0.5,0.2,1,0,1.5l0,0h-2.8v4.8c0,0.6,0.2,1,0.7,1.1l0,0C180.6,60,181,59.7,181.5,59.2z M186.6,47.7L186.6,47.7
				c1.5,0,2.2,0.5,2.2,1.6l0,0c0,1.1-0.7,1.6-2.2,1.6l0,0c-0.2,0-0.4,0-0.6-0.1c-0.2-0.1-0.4-0.2-0.5-0.3s-0.3-0.3-0.3-0.5
				c-0.1-0.2-0.1-0.4-0.1-0.6l0,0c0-0.2,0-0.4,0.1-0.6c0.1-0.2,0.2-0.4,0.3-0.5c0.1-0.1,0.3-0.3,0.5-0.3
				C186.2,47.8,186.4,47.7,186.6,47.7z M185.7,48.5L185.7,48.5c-0.2,0.2-0.3,0.5-0.3,0.8l0,0c0,0.2,0,0.3,0.1,0.5
				c0.1,0.1,0.1,0.3,0.2,0.4c0.1,0.1,0.2,0.2,0.3,0.3c0.1,0.1,0.3,0.1,0.4,0.1l0,0c0.1,0,0.3,0,0.4-0.1c0.1-0.1,0.2-0.1,0.3-0.3
				c0.1-0.1,0.2-0.2,0.2-0.4c0.1-0.1,0.1-0.3,0.1-0.5l0,0c0-0.2,0-0.3-0.1-0.5c-0.1-0.1-0.1-0.3-0.2-0.4c-0.1-0.1-0.2-0.2-0.3-0.3
				c-0.1-0.1-0.3-0.1-0.4-0.1l0,0c-0.1,0-0.3,0-0.4,0.1C185.9,48.3,185.8,48.4,185.7,48.5z M189.7,61L189.7,61
				c-1.5-0.1-2.3-0.5-2.3-0.9l0,0c-0.1-1.9-0.1-4.3-0.1-7.2l0,0c0-0.1-0.2-0.2-0.3-0.3l0,0c-0.9,0.4-1.8,0.7-2.8,0.8l0,0
				c0,0.2,0,0.3,0,0.5l0,0c0.7,0,1.3,0.2,1.7,0.4l0,0c0.1,2.4,0.1,4.4,0,5.8l0,0c0,0.5-0.6,0.8-1.7,0.9l0,0c-0.1,0.2-0.1,0.3,0,0.5
				l0,0c1.9,0,3.7,0,5.6,0l0,0C189.7,61.3,189.7,61.1,189.7,61z M190,60.6L190,60.6c0.1,0.4,0.1,0.8,0,1.2l0,0
				c-2.1-0.1-4.2-0.1-6.3,0l0,0c-0.1-0.4-0.1-0.8,0-1.2l0,0c1.1-0.1,1.6-0.3,1.6-0.6l0,0c0.1-1.8,0.1-3.7,0-5.5l0,0
				c-0.4-0.1-1-0.2-1.6-0.2l0,0c-0.1-0.4-0.1-0.8,0-1.2l0,0c1,0,2.1-0.3,3.3-0.9l0,0c0.7,0,1.2,0.3,1.6,0.6l0,0c0,3.2,0,5.6,0.1,7.3
				l0,0C188.7,60.3,189.1,60.5,190,60.6z M199,54.7L199,54.7c0,0.4-0.2,0.6-0.5,0.7l0,0c-0.1,0.2-0.1,0.3,0,0.5l0,0
				c0.3,0,0.6-0.1,0.8-0.3c0.2-0.2,0.3-0.5,0.3-0.9l0,0c0-0.6-0.3-1.1-0.9-1.5c-0.6-0.4-1.3-0.6-2.2-0.6l0,0c-1.3,0-2.4,0.4-3.2,1.3
				c-0.9,0.9-1.3,2-1.3,3.4l0,0c0,1.5,0.4,2.6,1.2,3.3c0.8,0.7,1.8,1.1,2.8,1.1l0,0c0.8,0,1.5-0.2,2.2-0.6c0.7-0.4,1.2-1.1,1.5-2
				l0,0c-0.1-0.1-0.2-0.2-0.4-0.2l0,0c-0.2,0.2-0.3,0.4-0.4,0.5c-0.1,0.1-0.3,0.3-0.5,0.5c-0.2,0.2-0.5,0.4-0.8,0.4
				c-0.3,0.1-0.6,0.1-1,0.1l0,0c-1,0-1.8-0.3-2.2-0.9c-0.5-0.6-0.7-1.4-0.7-2.3l0,0c0-2.7,0.9-4.1,2.8-4.1l0,0
				c0.7,0,1.3,0.1,1.8,0.4C198.7,53.8,199,54.2,199,54.7z M199.2,58.5L199.2,58.5c0.4,0.1,0.8,0.2,1,0.5l0,0c-0.4,1-0.9,1.8-1.7,2.3
				c-0.8,0.5-1.6,0.8-2.5,0.8l0,0c-1.2,0-2.2-0.4-3.1-1.2c-0.9-0.8-1.3-2-1.3-3.6l0,0c0-1.5,0.5-2.8,1.4-3.7
				c0.9-0.9,2.1-1.4,3.5-1.4l0,0c1,0,1.9,0.2,2.5,0.7c0.6,0.5,1,1.1,1,1.8l0,0c0,0.4-0.2,0.8-0.5,1.1c-0.3,0.3-0.7,0.4-1.1,0.4l0,0
				c-0.8,0-1.2-0.4-1.2-1.1l0,0c0-0.5,0.3-0.8,0.8-1l0,0c-0.4-0.3-0.8-0.4-1.2-0.4l0,0c-1.2,0.2-1.8,1.4-1.8,3.7l0,0
				c0,1.7,0.6,2.6,1.9,2.8l0,0C197.8,60,198.5,59.5,199.2,58.5z M206.7,53.2L206.7,53.2c0.5,0,0.9,0.2,1.1,0.5
				c0.2,0.3,0.3,0.8,0.3,1.3l0,0c0,0.2,0,0.4-0.1,0.6l0,0h-3.8c0.2-0.8,0.5-1.4,1-1.8C205.8,53.4,206.2,53.2,206.7,53.2z
				 M204.2,56.3L204.2,56.3h5.3c0.1-0.3,0.2-0.7,0.2-1l0,0c0-0.8-0.2-1.4-0.6-1.9s-1.1-0.8-2.1-0.8l0,0c-1.2,0-2.3,0.4-3.1,1.3
				c-0.8,0.9-1.3,2-1.3,3.4l0,0c0,1.5,0.4,2.6,1.2,3.3c0.8,0.7,1.7,1.1,2.8,1.1l0,0c0.8,0,1.5-0.2,2.2-0.6c0.7-0.4,1.2-1.1,1.5-2
				l0,0c-0.1-0.1-0.2-0.2-0.4-0.2l0,0c0,0-0.1,0.1-0.2,0.3c-0.1,0.2-0.2,0.3-0.3,0.4c-0.1,0.1-0.2,0.2-0.3,0.3
				c-0.2,0.1-0.3,0.2-0.4,0.3c-0.1,0.1-0.3,0.1-0.5,0.2c-0.2,0.1-0.4,0.1-0.7,0.1l0,0c-1,0-1.8-0.3-2.4-0.9
				c-0.6-0.6-0.9-1.4-0.9-2.4l0,0C204.2,57,204.2,56.7,204.2,56.3z M209.8,58.4L209.8,58.4c0.4,0.1,0.7,0.3,1,0.6l0,0
				c-0.4,1-0.9,1.8-1.7,2.3c-0.8,0.5-1.6,0.8-2.5,0.8l0,0c-1.2,0-2.2-0.4-3.1-1.2c-0.9-0.8-1.3-2-1.3-3.6l0,0c0-1.5,0.4-2.7,1.3-3.7
				c0.9-1,2.2-1.5,3.8-1.5l0,0c2.5,0,3.7,1,3.7,3.1l0,0c0,0.4-0.1,0.9-0.3,1.4l0,0h-5.2v0.6c0,0.8,0.2,1.4,0.6,1.9
				c0.4,0.5,0.9,0.8,1.6,0.9l0,0c0.4,0,0.7-0.2,1-0.4C209.1,59.4,209.5,59,209.8,58.4z M207.8,55L207.8,55c0-0.7-0.2-1.1-0.7-1.3
				l0,0c-0.6,0.2-1,0.7-1.3,1.5l0,0h2c0,0,0-0.1,0-0.1C207.8,55,207.8,55,207.8,55z M222.2,53.9L222.2,53.9c0-1.6,0-3.4,0.1-5.5l0,0
				c0-0.5,1.1-0.8,3.3-0.9l0,0c0-0.1,0-0.3,0-0.5l0,0c-1.7,0.1-3,0.1-4,0.1l0,0c-0.8,0-1.9,0-3.4-0.1l0,0c0,0.1,0,0.3,0,0.5l0,0
				c1.5,0.1,2.3,0.5,2.3,0.9l0,0c0.1,1.5,0.1,3.3,0.1,5.5l0,0c0,2.1,0,4.1-0.1,6.1l0,0c0,0.5-0.8,0.8-2.3,0.9l0,0c0,0.2,0,0.3,0,0.5
				l0,0c1.3,0,4.2-0.1,8.7-0.1l0,0c1.6,0,2.7-0.3,3.5-0.9c0.8-0.6,1.5-1.6,2.2-3l0,0c-0.1-0.1-0.2-0.2-0.3-0.3l0,0
				c-0.3,0.5-0.5,0.9-0.8,1.2c-0.3,0.4-0.7,0.7-1.2,1.1c-0.5,0.4-1.1,0.7-1.9,0.9c-0.7,0.2-1.6,0.3-2.5,0.3l0,0h-3.5
				C222.3,58.5,222.2,56.3,222.2,53.9z M223.7,54.7L223.7,54.7c0,1.8,0,3.7,0.1,5.8l0,0h2c2.9,0,5-1.2,6.3-3.6l0,0
				c0.5,0.2,0.9,0.5,1,0.8l0,0c-0.9,1.5-1.5,3-1.6,4.2l0,0h-7.9c-2.6,0-4.5,0-5.7,0.1l0,0c-0.1-0.4-0.1-0.8,0-1.2l0,0
				c1.4-0.1,2.1-0.3,2.2-0.6l0,0c0.1-2,0.1-4.1,0.1-6.1l0,0c0-2.1,0-3.9-0.1-5.4l0,0c0-0.2-0.7-0.4-2.2-0.6l0,0
				c-0.1-0.4-0.1-0.8,0-1.3l0,0c1.1,0.1,2.6,0.1,4.4,0.1l0,0c0.3,0,0.8,0,1.6,0c0.8,0,1.5,0,2.1,0l0,0c0.1,0.4,0.1,0.8,0,1.2l0,0
				c-1.4,0.1-2.2,0.3-2.2,0.6l0,0C223.8,50.1,223.7,52.2,223.7,54.7z M239.4,53.2L239.4,53.2c0.7,0,1.2,0.3,1.6,1s0.6,1.6,0.6,3l0,0
				c0,1.3-0.2,2.3-0.6,3c-0.4,0.6-0.9,1-1.6,1l0,0c-0.4,0-0.7-0.1-1-0.2s-0.6-0.4-0.8-0.7c-0.2-0.3-0.4-0.7-0.5-1.2
				c-0.1-0.5-0.2-1.1-0.2-1.7l0,0c0-0.7,0.1-1.3,0.2-1.8c0.1-0.5,0.3-0.9,0.5-1.2c0.2-0.3,0.5-0.6,0.8-0.7
				C238.7,53.3,239,53.2,239.4,53.2z M239.4,61.7L239.4,61.7c0.6,0,1.1-0.1,1.6-0.3c0.5-0.2,0.9-0.5,1.2-0.9
				c0.3-0.4,0.6-0.9,0.8-1.4c0.2-0.6,0.3-1.2,0.3-1.8l0,0c0-0.7-0.1-1.3-0.3-1.8c-0.2-0.6-0.4-1-0.8-1.4c-0.3-0.4-0.8-0.7-1.2-0.9
				c-0.5-0.2-1-0.3-1.6-0.3l0,0c-0.6,0-1.2,0.1-1.7,0.3s-1,0.5-1.3,0.9c-0.4,0.4-0.6,0.9-0.8,1.4c-0.2,0.6-0.3,1.2-0.3,1.8l0,0
				c0,0.7,0.1,1.3,0.3,1.8c0.2,0.6,0.5,1,0.8,1.4c0.4,0.4,0.8,0.7,1.3,0.9C238.2,61.6,238.8,61.7,239.4,61.7z M239.7,52.2
				L239.7,52.2c0.8,0,1.5,0.1,2.1,0.4c0.6,0.2,1.1,0.6,1.6,1c0.4,0.4,0.7,1,1,1.6c0.2,0.6,0.3,1.3,0.3,2l0,0c0,0.7-0.1,1.4-0.3,2
				c-0.2,0.6-0.5,1.1-1,1.6c-0.4,0.4-0.9,0.8-1.6,1c-0.6,0.2-1.3,0.4-2.1,0.4l0,0c-0.8,0-1.5-0.1-2.1-0.4c-0.6-0.2-1.1-0.6-1.6-1
				c-0.4-0.4-0.7-1-1-1.6c-0.2-0.6-0.3-1.3-0.3-2l0,0c0-0.7,0.1-1.4,0.3-2c0.2-0.6,0.5-1.1,1-1.6c0.4-0.4,0.9-0.8,1.6-1
				C238.3,52.3,239,52.2,239.7,52.2z M238.3,57.1L238.3,57.1c0,2.1,0.5,3.3,1.4,3.5l0,0c1-0.2,1.4-1.4,1.4-3.5l0,0
				c0-2.1-0.5-3.2-1.4-3.5l0,0C238.8,53.9,238.3,55.1,238.3,57.1z M248.7,55.8L248.7,55.8c0-0.9,0.2-1.6,0.5-2
				c0.3-0.4,0.8-0.6,1.3-0.6l0,0c0.4,0,0.7,0.2,1.1,0.5c0.3,0.4,0.5,1,0.5,1.8l0,0c0,1.9-0.5,2.8-1.5,2.8l0,0
				C249.3,58.4,248.7,57.5,248.7,55.8z M248.7,64L248.7,64c0-0.7,0.4-1.3,1.2-1.7l0,0c0.5-0.1,1.3-0.1,2.4-0.1l0,0
				c0.8,0,1.3,0.1,1.6,0.4c0.3,0.3,0.4,0.7,0.4,1.2l0,0c0,0.5-0.2,1-0.7,1.5c-0.5,0.5-1.3,0.8-2.2,0.8l0,0c-0.9,0-1.5-0.2-2-0.6
				C248.9,65.1,248.7,64.6,248.7,64z M254.9,53L254.9,53c0.2,0,0.3,0.1,0.3,0.3l0,0c0,0.2-0.1,0.3-0.4,0.4l0,0c-0.2,0-0.5,0-0.8-0.2
				l0,0c-0.2-0.1-0.4-0.2-0.7-0.3c-0.3-0.1-0.5-0.2-0.6-0.3c-0.1,0-0.3-0.1-0.5-0.2c-0.2-0.1-0.4-0.1-0.5-0.1c-0.1,0-0.3,0-0.5-0.1
				c-0.2,0-0.4,0-0.7,0l0,0c-1,0-1.8,0.3-2.5,1c-0.7,0.7-1,1.4-1,2.2l0,0c0,1.3,0.6,2.3,1.8,2.9l0,0c-1.1,0.8-1.6,1.5-1.6,2.1l0,0
				c0,0.8,0.6,1.3,1.9,1.5l0,0c-1.3,0.7-1.9,1.5-1.9,2.5l0,0c0,0.6,0.3,1.1,0.9,1.6c0.6,0.4,1.4,0.6,2.6,0.6l0,0
				c1.3,0,2.5-0.4,3.4-1.3c0.9-0.9,1.4-1.8,1.4-2.7l0,0c0-1.5-0.9-2.2-2.7-2.2l0,0c-0.2,0-0.5,0-0.8,0c-0.3,0-0.6,0-0.7,0l0,0
				c-1,0-1.7-0.1-2.1-0.2c-0.4-0.1-0.6-0.3-0.6-0.6l0,0c0-0.4,0.3-0.7,0.9-0.9l0,0c0.4,0.1,0.8,0.1,1.3,0.1l0,0
				c0.9,0,1.6-0.3,2.2-0.9c0.6-0.6,0.9-1.4,0.9-2.5l0,0c0-0.8-0.2-1.4-0.5-1.9l0,0l0,0c0.1,0.1,0.2,0.2,0.4,0.3
				c0.2,0.1,0.3,0.2,0.4,0.3c0.1,0.1,0.2,0.1,0.4,0.2c0.1,0,0.3,0.1,0.4,0.1l0,0c0.2,0,0.5-0.1,0.6-0.3c0.2-0.2,0.3-0.4,0.3-0.7l0,0
				c0-0.3-0.1-0.5-0.2-0.7c-0.2-0.2-0.4-0.3-0.7-0.3l0,0C254.9,52.7,254.9,52.8,254.9,53z M255.1,54.9L255.1,54.9
				c0.1,0.2,0.1,0.5,0.1,0.7l0,0c0,1.2-0.4,2.1-1.1,2.8c-0.7,0.7-1.6,1-2.7,1l0,0h-1.2c-0.2,0.2-0.2,0.4-0.2,0.6
				c0.1,0.2,0.2,0.2,0.5,0.2l0,0h3.3c2.1,0,3.1,0.9,3.1,2.6l0,0c0,0.5-0.1,1-0.4,1.5c-0.3,0.5-0.7,1-1.2,1.4c-0.5,0.4-1.2,0.8-2,1.1
				c-0.8,0.3-1.7,0.4-2.6,0.4l0,0c-1.3,0-2.2-0.2-2.9-0.7c-0.6-0.5-1-1.1-1-1.9l0,0c0-0.8,0.4-1.6,1.3-2.3l0,0
				c-0.8-0.3-1.3-0.8-1.3-1.6l0,0c0-0.7,0.4-1.4,1.3-2.1l0,0c-1-0.7-1.5-1.7-1.5-2.9l0,0c0-0.9,0.4-1.7,1.1-2.5
				c0.8-0.7,1.7-1.1,2.8-1.1l0,0c0.8,0,1.4,0,1.8,0.1c0.4,0.1,0.9,0.2,1.5,0.5l0,0c0.3-0.4,0.7-0.7,1.1-0.7l0,0c0.5,0,0.8,0.1,1,0.4
				c0.2,0.3,0.3,0.6,0.3,1l0,0c0,0.4-0.1,0.7-0.3,1C255.7,54.8,255.4,54.9,255.1,54.9z M250.1,64L250.1,64c0,0.4,0.1,0.8,0.4,1.1
				c0.2,0.3,0.6,0.5,1.2,0.6l0,0c0.7-0.1,1.3-0.3,1.7-0.7c0.4-0.4,0.6-0.8,0.6-1.1l0,0c0-0.4-0.1-0.7-0.3-0.9
				c-0.2-0.2-0.5-0.3-1-0.3l0,0c-0.6,0-1.2,0-1.8,0.1l0,0C250.3,63.1,250.1,63.5,250.1,64z M250.1,55.8L250.1,55.8
				c0,1.2,0.3,1.9,0.8,2.1l0,0c0.5-0.2,0.8-1,0.8-2.3l0,0c0-1.1-0.3-1.7-0.8-1.9l0,0C250.4,53.9,250.1,54.6,250.1,55.8z M260.1,54.3
				L260.1,54.3c0.3,0.1,0.5,0.2,0.7,0.4c0.2,0.2,0.3,0.4,0.3,0.7l0,0c0,0.3-0.1,0.6-0.3,0.9c-0.2,0.2-0.5,0.3-0.9,0.3l0,0
				c-0.4,0-0.7-0.1-1-0.4s-0.5-0.7-0.5-1.2l0,0c0-0.9,0.4-1.5,1.2-2.1c0.8-0.5,1.9-0.8,3.2-0.8l0,0c1.2,0,2.1,0.2,2.6,0.7
				c0.5,0.5,0.8,1.3,0.8,2.5l0,0v3.4l0.6,0c0.5,0,0.9,0.3,1.1,0.8l0,0l-0.3,0.5c-0.2,0.3-0.4,0.5-0.5,0.7c-0.1,0.2-0.3,0.4-0.6,0.6
				c-0.2,0.2-0.5,0.4-0.9,0.4c-0.3,0.1-0.7,0.1-1.2,0.1l0,0c-0.5,0-1-0.2-1.2-0.6l0,0c-0.7,0.5-1.6,0.8-2.8,0.8l0,0
				c-0.5,0-0.9-0.1-1.3-0.2c-0.3-0.2-0.6-0.4-0.8-0.6c-0.2-0.3-0.3-0.5-0.3-0.7c-0.1-0.2-0.1-0.4-0.1-0.7l0,0c0-1,0.3-1.7,1-2.1
				c0.6-0.5,1.9-1,3.9-1.5l0,0v-1.1c0-0.5-0.1-0.9-0.3-1.1c-0.2-0.2-0.5-0.4-0.8-0.4l0,0C261,53.7,260.5,53.9,260.1,54.3z
				 M263.3,57.2L263.3,57.2v2c-0.6,0.8-1.3,1.2-1.9,1.2l0,0c-0.4,0-0.7-0.1-0.9-0.3c-0.2-0.2-0.4-0.4-0.4-0.8l0,0
				c0-0.5,0.2-1,0.7-1.3C261.2,57.8,262,57.5,263.3,57.2z M262.9,59.1L262.9,59.1v-1.2c-0.9,0.3-1.4,0.8-1.4,1.5l0,0
				c0,0.3,0.1,0.5,0.3,0.6l0,0C262.1,59.9,262.5,59.6,262.9,59.1z M259.9,55.7L259.9,55.7c-0.2,0-0.4-0.2-0.5-0.5l0,0
				c-0.1-0.5,0-1,0.5-1.4l0,0c0.4-0.4,1.1-0.6,2-0.6l0,0c0.4,0,0.8,0.2,1,0.5c0.3,0.3,0.4,0.8,0.4,1.5l0,0v1.4
				c-1.9,0.5-3.2,1-3.9,1.4c-0.7,0.4-1,1.1-1,1.9l0,0c0,0.4,0.1,0.9,0.4,1.2c0.3,0.4,0.8,0.6,1.6,0.6l0,0c0.3,0,0.6,0,0.9-0.1
				c0.3-0.1,0.5-0.3,0.8-0.5c0.3-0.2,0.5-0.4,0.5-0.4c0.1-0.1,0.2-0.2,0.3-0.3s0.2-0.2,0.2-0.2l0,0c0.1,1,0.5,1.4,1.2,1.4l0,0
				c0.2,0,0.4,0,0.6-0.1c0.2-0.1,0.5-0.3,0.7-0.5c0.2-0.3,0.4-0.4,0.4-0.5c0.1-0.1,0.2-0.2,0.3-0.4c0.1-0.2,0.2-0.3,0.3-0.4l0,0
				c-0.1-0.2-0.2-0.3-0.5-0.3l0,0c-0.4,0.5-0.7,0.8-1.1,0.8l0,0c-0.3,0-0.4-0.2-0.4-0.6l0,0v-4c0-1-0.2-1.8-0.6-2.2
				c-0.4-0.4-1.1-0.6-2.1-0.6l0,0c-0.9,0-1.7,0.2-2.3,0.7c-0.7,0.5-1,1-1,1.8l0,0c0,0.4,0.1,0.7,0.3,0.9c0.2,0.2,0.5,0.3,0.8,0.3
				l0,0C260,56.1,260,55.9,259.9,55.7z M275.4,61L275.4,61c-0.1,0.1-0.1,0.3,0,0.5l0,0c1.7,0,3.4,0,5.1,0l0,0c0.1-0.2,0.1-0.3,0-0.5
				l0,0c-1.6-0.1-2.4-0.4-2.4-0.9l0,0l-0.1-4.9c0-0.9-0.2-1.5-0.4-2c-0.3-0.4-0.7-0.6-1.3-0.6l0,0c-1.1,0-2.4,0.7-3.9,2.2l0,0v-1.9
				c-0.1-0.1-0.2-0.2-0.3-0.3l0,0c-0.9,0.4-1.8,0.7-2.8,0.8l0,0c0,0.2,0,0.3,0,0.5l0,0c0.7,0,1.3,0.2,1.7,0.4l0,0
				c0.1,1.9,0.1,3.9,0,5.8l0,0c0,0.5-0.6,0.8-1.7,0.9l0,0c-0.1,0.1-0.1,0.3,0,0.5l0,0c1.7-0.1,3.4-0.1,5.1,0l0,0
				c0.1-0.2,0.1-0.3,0-0.5l0,0c-1.2-0.1-1.8-0.4-1.8-0.9l0,0c-0.1-1.4-0.1-2.9-0.1-4.6l0,0c1.3-1.2,2.3-1.7,3.1-1.7l0,0
				c0.7,0,1.1,0.6,1.1,1.8l0,0l0,4.6c0,0.3-0.1,0.5-0.3,0.7C276,60.8,275.7,60.9,275.4,61z M275.1,61.8L275.1,61.8
				c-0.2-0.4-0.2-0.8,0-1.2l0,0c0.2,0,0.4-0.1,0.6-0.2c0.2-0.1,0.3-0.2,0.3-0.4l0,0l0-4.6c0-0.7-0.1-1.1-0.4-1.3l0,0
				c-0.5,0.1-1.1,0.5-1.9,1.1l0,0c0,1.8,0,3.4,0.1,4.8l0,0c0,0.3,0.3,0.5,0.8,0.6l0,0c0.2,0.4,0.2,0.8,0,1.2l0,0
				c-1.9-0.1-3.8-0.1-5.7,0l0,0c-0.2-0.4-0.2-0.8,0-1.2l0,0c1.1-0.1,1.6-0.3,1.6-0.6l0,0c0.1-1.8,0.1-3.7,0-5.5l0,0
				c-0.4-0.1-1-0.2-1.6-0.2l0,0c-0.1-0.4-0.1-0.8,0-1.2l0,0c1,0,2.1-0.3,3.3-0.9l0,0c0.7,0,1.2,0.3,1.6,0.6l0,0v0.3
				c0.9-0.6,2-0.9,3.2-0.9l0,0c0.9,0,1.5,0.2,1.9,0.7c0.4,0.5,0.6,1.2,0.6,2.3l0,0c0,2.6,0.1,4.2,0.1,4.9l0,0c0,0.3,0.5,0.5,1.4,0.6
				l0,0c0.1,0.4,0.1,0.8,0,1.2l0,0C278.9,61.8,277,61.8,275.1,61.8z M298.6,60.1L298.6,60.1c0,0.5-0.8,0.8-2.3,0.9l0,0
				c-0.1,0.1-0.1,0.3,0,0.5l0,0c1.1,0,2.2-0.1,3.4-0.1l0,0c1.4,0,2.7,0,4,0.1l0,0c0.1-0.1,0.1-0.3,0-0.5l0,0
				c-2.2-0.1-3.2-0.4-3.3-0.9l0,0c-0.1-1.6-0.1-3.5-0.1-5.8l0,0c0-2.3,0-4.2,0.1-5.8l0,0c0-0.5,1.1-0.8,3.3-0.9l0,0
				c0.1-0.2,0.1-0.3,0-0.5l0,0c-1.7,0.1-3,0.1-4,0.1l0,0c-0.8,0-1.9,0-3.4-0.1l0,0c0,0.2,0,0.3,0,0.5l0,0c1.5,0.1,2.2,0.5,2.3,0.9
				l0,0c0,1.2,0.1,3,0.1,5.4l0,0c-1.2,0-2.3,0.1-3.4,0.1l0,0c-1.8,0-3.1,0-3.9,0l0,0c0-2.2,0-4,0.1-5.4l0,0c0-0.5,1.1-0.8,3.3-0.9
				l0,0c0-0.1,0-0.3,0-0.5l0,0c-1.7,0.1-3,0.1-4,0.1l0,0c-0.8,0-1.9,0-3.4-0.1l0,0c-0.1,0.1-0.1,0.3,0,0.5l0,0
				c1.5,0.1,2.2,0.5,2.3,0.9l0,0c0.1,1.5,0.1,3.3,0.1,5.5l0,0c0,2.1,0,4.1-0.1,6.1l0,0c0,0.5-0.8,0.8-2.3,0.9l0,0
				c-0.1,0.1-0.1,0.3,0,0.5l0,0c1.1,0,2.2-0.1,3.4-0.1l0,0c1.4,0,2.7,0,4,0.1l0,0c0.1-0.1,0.1-0.3,0-0.5l0,0
				c-2.2-0.1-3.2-0.4-3.3-0.9l0,0c-0.1-2-0.1-3.8-0.1-5.5l0,0c1.6,0,2.9,0,3.9,0l0,0c1.1,0,2.2,0,3.4,0.1l0,0
				C298.7,56.1,298.6,57.9,298.6,60.1z M298.2,60.1L298.2,60.1c0-2.6,0.1-4.2,0.1-4.9l0,0c-1.3,0-2.3,0-3,0l0,0c-0.6,0-1.1,0-1.6,0
				c-0.5,0-0.8,0-0.8,0l0,0c0,1.5,0,3.1,0.1,4.9l0,0c0,0,0,0.1,0,0.1c0,0,0.1,0.1,0.1,0.1c0.1,0,0.1,0.1,0.2,0.1
				c0.1,0,0.2,0.1,0.3,0.1c0.1,0,0.2,0,0.3,0.1c0.1,0,0.2,0,0.3,0.1c0.1,0,0.2,0,0.3,0s0.2,0,0.3,0c0.1,0,0.2,0,0.3,0l0,0
				c0.1,0.4,0.1,0.8-0.1,1.2l0,0c-2.4-0.1-3.9-0.1-4.4-0.1l0,0c-0.3,0-1.6,0-3.7,0.1l0,0c-0.2-0.4-0.2-0.9,0-1.3l0,0
				c1.4-0.1,2.1-0.3,2.1-0.6l0,0c0.1-2,0.1-4.1,0.1-6.1l0,0c0-2.1,0-3.9-0.1-5.4l0,0c0-0.2-0.7-0.4-2.2-0.6l0,0
				c-0.1-0.4-0.1-0.8,0-1.3l0,0c0.6,0,1.3,0,2.3,0c1,0,1.7,0,2,0l0,0c0.3,0,0.8,0,1.6,0c0.8,0,1.5,0,2.1,0l0,0
				c0.1,0.4,0.1,0.8,0,1.2l0,0c-1.4,0.1-2.2,0.3-2.2,0.6l0,0c-0.1,1.8-0.1,3.5-0.1,5l0,0c0.6,0,1.4,0,2.4,0l0,0l3,0
				c0-2.1-0.1-3.8-0.1-5l0,0c0-0.2-0.7-0.4-2.2-0.6l0,0c-0.1-0.5-0.1-0.9,0-1.3l0,0c0.9,0.1,2.2,0.1,3.8,0.1l0,0c0.3,0,0.9,0,1.9,0
				c0.9,0,1.7,0,2.4,0l0,0c0.1,0.4,0.1,0.8,0,1.2l0,0c-1.4,0.1-2.2,0.3-2.2,0.6l0,0c-0.1,1.6-0.1,3.5-0.1,5.8l0,0
				c0,2.2,0,4.2,0.1,5.8l0,0c0,0.2,0.7,0.4,2.2,0.6l0,0c0.1,0.4,0.1,0.8,0,1.3l0,0c-2.1-0.1-3.3-0.1-3.7-0.1l0,0c-0.5,0-2,0-4.4,0.1
				l0,0c-0.2-0.4-0.2-0.9,0-1.3l0,0C297.5,60.5,298.2,60.3,298.2,60.1z M310.2,53.2L310.2,53.2c0.7,0,1.2,0.3,1.6,1s0.6,1.6,0.6,3
				l0,0c0,1.3-0.2,2.3-0.6,3c-0.4,0.6-0.9,1-1.6,1l0,0c-0.4,0-0.7-0.1-1-0.2c-0.3-0.2-0.6-0.4-0.8-0.7c-0.2-0.3-0.4-0.7-0.5-1.2
				c-0.1-0.5-0.2-1.1-0.2-1.7l0,0c0-0.7,0.1-1.3,0.2-1.8c0.1-0.5,0.3-0.9,0.5-1.2c0.2-0.3,0.5-0.6,0.8-0.7
				C309.5,53.3,309.9,53.2,310.2,53.2z M310.2,61.7L310.2,61.7c0.6,0,1.1-0.1,1.6-0.3c0.5-0.2,0.9-0.5,1.2-0.9
				c0.3-0.4,0.6-0.9,0.8-1.4c0.2-0.6,0.3-1.2,0.3-1.8l0,0c0-0.7-0.1-1.3-0.3-1.8c-0.2-0.6-0.4-1-0.8-1.4c-0.3-0.4-0.8-0.7-1.2-0.9
				c-0.5-0.2-1-0.3-1.6-0.3l0,0c-0.6,0-1.2,0.1-1.7,0.3c-0.5,0.2-1,0.5-1.3,0.9c-0.4,0.4-0.6,0.9-0.8,1.4c-0.2,0.6-0.3,1.2-0.3,1.8
				l0,0c0,0.7,0.1,1.3,0.3,1.8c0.2,0.6,0.5,1,0.8,1.4c0.4,0.4,0.8,0.7,1.3,0.9C309,61.6,309.6,61.7,310.2,61.7z M310.6,52.2
				L310.6,52.2c0.8,0,1.5,0.1,2.1,0.4c0.6,0.2,1.1,0.6,1.6,1c0.4,0.4,0.7,1,1,1.6c0.2,0.6,0.3,1.3,0.3,2l0,0c0,0.7-0.1,1.4-0.3,2
				c-0.2,0.6-0.5,1.1-1,1.6c-0.4,0.4-0.9,0.8-1.6,1c-0.6,0.2-1.3,0.4-2.1,0.4l0,0c-0.8,0-1.5-0.1-2.1-0.4c-0.6-0.2-1.1-0.6-1.5-1
				c-0.4-0.4-0.7-1-1-1.6c-0.2-0.6-0.3-1.3-0.3-2l0,0c0-0.7,0.1-1.4,0.3-2c0.2-0.6,0.5-1.1,1-1.6c0.4-0.4,0.9-0.8,1.5-1
				C309.1,52.3,309.8,52.2,310.6,52.2z M309.2,57.1L309.2,57.1c0,2.1,0.5,3.3,1.4,3.5l0,0c1-0.2,1.4-1.4,1.4-3.5l0,0
				c0-2.1-0.5-3.2-1.4-3.5l0,0C309.6,53.9,309.2,55.1,309.2,57.1z M323,61L323,61c-1.5-0.1-2.3-0.5-2.3-0.9l0,0
				c-0.1-3.6-0.1-8-0.1-13.2l0,0c-0.1-0.1-0.2-0.2-0.3-0.3l0,0c-0.9,0.4-1.8,0.7-2.8,0.8l0,0c0,0.2,0,0.3,0,0.5l0,0
				c0.7,0,1.3,0.2,1.7,0.4l0,0c0.1,4.9,0,8.8,0,11.8l0,0c0,0.5-0.6,0.8-1.7,0.9l0,0c-0.1,0.2-0.1,0.3,0,0.5l0,0
				c1.5-0.1,3.4-0.1,5.6,0l0,0C323.1,61.3,323.1,61.1,323,61z M323.4,60.6L323.4,60.6c0.1,0.4,0.1,0.8,0,1.2l0,0c-2.5,0-4.6,0-6.3,0
				l0,0c-0.1-0.4-0.1-0.8,0-1.2l0,0c1.1-0.1,1.6-0.3,1.6-0.6l0,0c0.1-3.8,0.1-7.7,0-11.5l0,0c-0.4-0.1-1-0.2-1.6-0.3l0,0
				c-0.1-0.4-0.1-0.8,0-1.2l0,0c1,0,2.1-0.3,3.3-0.9l0,0c0.7,0,1.2,0.3,1.6,0.6l0,0c0,5.8,0,10.2,0.1,13.3l0,0
				C322.1,60.3,322.5,60.5,323.4,60.6z M330.5,61L330.5,61c-1.5-0.1-2.3-0.5-2.3-0.9l0,0c-0.1-3.6-0.1-8-0.1-13.2l0,0
				c-0.1-0.1-0.2-0.2-0.3-0.3l0,0c-0.9,0.4-1.8,0.7-2.8,0.8l0,0c0,0.2,0,0.3,0,0.5l0,0c0.7,0,1.3,0.2,1.7,0.4l0,0
				c0.1,4.9,0,8.8,0,11.8l0,0c0,0.5-0.6,0.8-1.7,0.9l0,0c-0.1,0.2-0.1,0.3,0,0.5l0,0c1.5-0.1,3.4-0.1,5.6,0l0,0
				C330.6,61.3,330.6,61.1,330.5,61z M330.9,60.6L330.9,60.6c0.1,0.4,0.1,0.8,0,1.2l0,0c-2.5,0-4.6,0-6.3,0l0,0
				c-0.1-0.4-0.1-0.8,0-1.2l0,0c1.1-0.1,1.6-0.3,1.6-0.6l0,0c0.1-3.8,0.1-7.7,0-11.5l0,0c-0.4-0.1-1-0.2-1.6-0.3l0,0
				c-0.1-0.4-0.1-0.8,0-1.2l0,0c1,0,2.1-0.3,3.3-0.9l0,0c0.7,0,1.2,0.3,1.6,0.6l0,0c0,5.8,0,10.2,0.1,13.3l0,0
				C329.6,60.3,330,60.5,330.9,60.6z M334.7,54.3L334.7,54.3c0.3,0.1,0.5,0.2,0.7,0.4c0.2,0.2,0.3,0.4,0.3,0.7l0,0
				c0,0.3-0.1,0.6-0.3,0.9c-0.2,0.2-0.5,0.3-0.9,0.3l0,0c-0.4,0-0.7-0.1-1-0.4c-0.3-0.3-0.5-0.7-0.5-1.2l0,0c0-0.9,0.4-1.5,1.2-2.1
				c0.8-0.5,1.9-0.8,3.2-0.8l0,0c1.2,0,2.1,0.2,2.6,0.7s0.8,1.3,0.8,2.5l0,0v3.4l0.6,0c0.5,0,0.9,0.3,1.1,0.8l0,0l-0.3,0.5
				c-0.2,0.3-0.4,0.5-0.5,0.7c-0.1,0.2-0.3,0.4-0.6,0.6c-0.2,0.2-0.5,0.4-0.9,0.4c-0.3,0.1-0.7,0.1-1.2,0.1l0,0
				c-0.5,0-1-0.2-1.2-0.6l0,0c-0.7,0.5-1.6,0.8-2.8,0.8l0,0c-0.5,0-0.9-0.1-1.3-0.2c-0.3-0.2-0.6-0.4-0.8-0.6
				c-0.2-0.3-0.3-0.5-0.3-0.7c-0.1-0.2-0.1-0.4-0.1-0.7l0,0c0-1,0.3-1.7,1-2.1c0.6-0.5,1.9-1,3.9-1.5l0,0v-1.1
				c0-0.5-0.1-0.9-0.3-1.1c-0.2-0.2-0.5-0.4-0.8-0.4l0,0C335.6,53.7,335,53.9,334.7,54.3z M337.9,57.2L337.9,57.2v2
				c-0.6,0.8-1.3,1.2-1.9,1.2l0,0c-0.4,0-0.7-0.1-0.9-0.3c-0.2-0.2-0.4-0.4-0.4-0.8l0,0c0-0.5,0.2-1,0.7-1.3
				C335.8,57.8,336.6,57.5,337.9,57.2z M337.5,59.1L337.5,59.1v-1.2c-0.9,0.3-1.4,0.8-1.4,1.5l0,0c0,0.3,0.1,0.5,0.3,0.6l0,0
				C336.7,59.9,337.1,59.6,337.5,59.1z M334.5,55.7L334.5,55.7c-0.2,0-0.4-0.2-0.5-0.5l0,0c-0.1-0.5,0-1,0.5-1.4l0,0
				c0.4-0.4,1.1-0.6,2-0.6l0,0c0.4,0,0.8,0.2,1,0.5c0.3,0.3,0.4,0.8,0.4,1.5l0,0v1.4c-1.9,0.5-3.2,1-3.9,1.4c-0.7,0.4-1,1.1-1,1.9
				l0,0c0,0.4,0.1,0.9,0.4,1.2c0.3,0.4,0.8,0.6,1.6,0.6l0,0c0.3,0,0.6,0,0.9-0.1c0.3-0.1,0.5-0.3,0.8-0.5c0.3-0.2,0.5-0.4,0.5-0.4
				c0.1-0.1,0.2-0.2,0.3-0.3s0.2-0.2,0.2-0.2l0,0c0.1,1,0.5,1.4,1.2,1.4l0,0c0.2,0,0.4,0,0.6-0.1c0.2-0.1,0.5-0.3,0.7-0.5
				c0.2-0.3,0.4-0.4,0.4-0.5c0.1-0.1,0.2-0.2,0.3-0.4c0.1-0.2,0.2-0.3,0.3-0.4l0,0c-0.1-0.2-0.2-0.3-0.5-0.3l0,0
				c-0.4,0.5-0.7,0.8-1.1,0.8l0,0c-0.3,0-0.4-0.2-0.4-0.6l0,0v-4c0-1-0.2-1.8-0.6-2.2c-0.4-0.4-1.1-0.6-2.1-0.6l0,0
				c-0.9,0-1.7,0.2-2.3,0.7c-0.7,0.5-1,1-1,1.8l0,0c0,0.4,0.1,0.7,0.3,0.9c0.2,0.2,0.5,0.3,0.8,0.3l0,0
				C334.6,56.1,334.6,55.9,334.5,55.7z M350,61L350,61c-0.1,0.1-0.1,0.3,0,0.5l0,0c1.7,0,3.4,0,5.1,0l0,0c0.1-0.2,0.1-0.3,0-0.5l0,0
				c-1.6-0.1-2.4-0.4-2.4-0.9l0,0l-0.1-4.9c0-0.9-0.2-1.5-0.4-2c-0.3-0.4-0.7-0.6-1.3-0.6l0,0c-1.1,0-2.4,0.7-3.9,2.2l0,0v-1.9
				c0-0.1-0.2-0.2-0.3-0.3l0,0c-0.9,0.4-1.8,0.7-2.8,0.8l0,0c0,0.2,0,0.3,0,0.5l0,0c0.7,0,1.3,0.2,1.7,0.4l0,0
				c0.1,1.9,0.1,3.9,0,5.8l0,0c0,0.5-0.6,0.8-1.7,0.9l0,0c-0.1,0.1-0.1,0.3,0,0.5l0,0c1.7-0.1,3.4-0.1,5.1,0l0,0
				c0.1-0.2,0.1-0.3,0-0.5l0,0c-1.2-0.1-1.8-0.4-1.8-0.9l0,0c-0.1-1.4-0.1-2.9-0.1-4.6l0,0c1.3-1.2,2.3-1.7,3.1-1.7l0,0
				c0.7,0,1.1,0.6,1.1,1.8l0,0l0,4.6c0,0.3-0.1,0.5-0.3,0.7C350.5,60.8,350.3,60.9,350,61z M349.6,61.8L349.6,61.8
				c-0.2-0.4-0.2-0.8,0-1.2l0,0c0.2,0,0.4-0.1,0.6-0.2c0.2-0.1,0.3-0.2,0.3-0.4l0,0l0-4.6c0-0.7-0.1-1.1-0.4-1.3l0,0
				c-0.5,0.1-1.1,0.5-1.9,1.1l0,0c0,1.8,0,3.4,0.1,4.8l0,0c0,0.3,0.3,0.5,0.8,0.6l0,0c0.2,0.4,0.2,0.8,0,1.2l0,0
				c-1.9-0.1-3.8-0.1-5.7,0l0,0c-0.2-0.4-0.2-0.8,0-1.2l0,0c1.1-0.1,1.6-0.3,1.6-0.6l0,0c0.1-1.8,0.1-3.7,0-5.5l0,0
				c-0.4-0.1-1-0.2-1.6-0.2l0,0c-0.1-0.4-0.1-0.8,0-1.2l0,0c1,0,2.1-0.3,3.3-0.9l0,0c0.7,0,1.2,0.3,1.6,0.6l0,0v0.3
				c0.9-0.6,2-0.9,3.2-0.9l0,0c0.9,0,1.5,0.2,1.9,0.7c0.4,0.5,0.6,1.2,0.6,2.3l0,0c0,2.6,0.1,4.2,0.1,4.9l0,0c0,0.3,0.5,0.5,1.4,0.6
				l0,0c0.1,0.4,0.1,0.8,0,1.2l0,0C353.4,61.8,351.5,61.8,349.6,61.8z M361.4,60.4L361.4,60.4c-0.8,0-1.4-0.3-1.8-0.9
				c-0.4-0.6-0.6-1.4-0.6-2.4l0,0c0-0.8,0.1-1.4,0.2-2c0.2-0.6,0.4-1,0.6-1.2s0.5-0.4,0.8-0.5c0.2-0.1,0.5-0.2,0.7-0.2l0,0
				c0.9,0,1.6,0.4,2.1,1.2l0,0v1.4c0,1.8,0,3,0,3.6l0,0C362.8,60.1,362.1,60.4,361.4,60.4z M367.8,60.6L367.8,60.6
				c0.2,0.4,0.2,0.8,0,1.2l0,0c-1.7-0.1-3.1-0.1-4.2,0l0,0c-0.2-0.1-0.4-0.2-0.5-0.4l0,0c-0.6,0.4-1.5,0.6-2.6,0.6l0,0
				c-1.1,0-2-0.4-2.7-1.2c-0.7-0.8-1-1.9-1-3.4l0,0c0-0.6,0.1-1.2,0.3-1.8c0.2-0.6,0.5-1.2,0.8-1.7c0.4-0.5,0.9-1,1.6-1.3
				c0.7-0.3,1.4-0.5,2.3-0.5l0,0c0.6,0,1,0,1.3,0l0,0c0-1,0-2.3,0-3.7l0,0c-0.4-0.1-1-0.2-1.8-0.3l0,0c-0.1-0.4-0.1-0.8,0-1.2l0,0
				c0.9-0.1,2.1-0.4,3.5-0.9l0,0c0.7,0,1.2,0.3,1.6,0.6l0,0c0,7.4,0,11.9,0.1,13.3l0,0C366.4,60.3,366.9,60.5,367.8,60.6z
				 M363.1,55.8v-1.3c-0.3-0.5-0.7-0.7-1.3-0.8l0,0c-0.5,0.1-0.8,0.4-1.2,0.9c-0.3,0.5-0.5,1.4-0.5,2.5l0,0c0,0.8,0.1,1.4,0.4,1.9
				c0.3,0.5,0.7,0.8,1.2,1l0,0c0.4-0.1,0.9-0.3,1.3-0.8l0,0C363.1,58.6,363.1,57.4,363.1,55.8L363.1,55.8z M367.5,61L367.5,61
				c-0.3,0-0.6-0.1-0.8-0.1c-0.2,0-0.4-0.1-0.7-0.1c-0.3-0.1-0.5-0.2-0.7-0.3c-0.2-0.1-0.2-0.3-0.2-0.4l0,0c0-1.4-0.1-5.9-0.1-13.2
				l0,0c-0.1-0.1-0.2-0.2-0.3-0.3l0,0c-0.9,0.4-1.9,0.7-3,0.8l0,0c0,0.2,0,0.3,0,0.5l0,0c0.9,0,1.5,0.2,1.9,0.4l0,0
				c0,1.8,0,3.4,0,4.6l0,0c-0.7-0.2-1.2-0.3-1.7-0.3l0,0c-0.8,0-1.4,0.2-2,0.5c-0.6,0.3-1,0.7-1.4,1.2c-0.3,0.5-0.6,1-0.7,1.6
				c-0.2,0.6-0.2,1.1-0.2,1.7l0,0c0,1.3,0.3,2.3,0.9,3.1c0.6,0.8,1.3,1.1,2.1,1.1l0,0c1,0,2.1-0.5,3.1-1.6l0,0c0,0.5,0,0.9,0,1.1
				l0,0c0.1,0.1,0.2,0.3,0.2,0.3l0,0c0.2,0,0.4,0,0.6,0c0.2,0,0.4,0,0.5,0c0.1,0,0.2,0,0.3,0l0,0c0.4,0,1.1,0,2.3,0.1l0,0
				C367.5,61.3,367.5,61.2,367.5,61z M376.6,43.7h-1.1v22.4h1.1V43.7z M377.7,66.5H375V43.3h2.6V66.5z M389.2,53.9L389.2,53.9
				c0-1.6,0-3.4,0.1-5.5l0,0c0-0.5,1.1-0.8,3.3-0.9l0,0c0-0.1,0-0.3,0-0.5l0,0c-1.7,0.1-3,0.1-4,0.1l0,0c-0.8,0-1.9,0-3.4-0.1l0,0
				c0,0.1,0,0.3,0,0.5l0,0c1.5,0.1,2.3,0.5,2.3,0.9l0,0c0.1,1.5,0.1,3.3,0.1,5.5l0,0c0,2.1,0,4.1-0.1,6.1l0,0c0,0.5-0.8,0.8-2.3,0.9
				l0,0c0,0.2,0,0.3,0,0.5l0,0c1.3,0,4.2-0.1,8.7-0.1l0,0c1.6,0,2.7-0.3,3.5-0.9c0.8-0.6,1.5-1.6,2.2-3l0,0
				c-0.1-0.1-0.2-0.2-0.3-0.3l0,0c-0.3,0.5-0.5,0.9-0.8,1.2c-0.3,0.4-0.7,0.7-1.2,1.1c-0.5,0.4-1.1,0.7-1.9,0.9
				c-0.7,0.2-1.6,0.3-2.5,0.3l0,0h-3.5C389.2,58.5,389.2,56.3,389.2,53.9z M390.7,54.7L390.7,54.7c0,1.8,0,3.7,0.1,5.8l0,0h2
				c2.9,0,5-1.2,6.3-3.6l0,0c0.5,0.2,0.9,0.5,1,0.8l0,0c-0.9,1.5-1.5,3-1.6,4.2l0,0h-7.9c-2.6,0-4.5,0-5.7,0.1l0,0
				c-0.1-0.4-0.1-0.8,0-1.2l0,0c1.4-0.1,2.1-0.3,2.2-0.6l0,0c0.1-2,0.1-4.1,0.1-6.1l0,0c0-2.1,0-3.9-0.1-5.4l0,0
				c0-0.2-0.7-0.4-2.2-0.6l0,0c-0.1-0.4-0.1-0.8,0-1.3l0,0c1.1,0.1,2.6,0.1,4.4,0.1l0,0c0.3,0,0.8,0,1.6,0c0.8,0,1.5,0,2.1,0l0,0
				c0.1,0.4,0.1,0.8,0,1.2l0,0c-1.4,0.1-2.2,0.3-2.2,0.6l0,0C390.7,50.1,390.7,52.2,390.7,54.7z M406.3,53.2L406.3,53.2
				c0.5,0,0.9,0.2,1.1,0.5c0.2,0.3,0.4,0.8,0.4,1.3l0,0c0,0.2,0,0.4-0.1,0.6l0,0h-3.8c0.2-0.8,0.5-1.4,1-1.8
				C405.3,53.4,405.8,53.2,406.3,53.2z M403.8,56.3L403.8,56.3h5.3c0.1-0.3,0.2-0.7,0.2-1l0,0c0-0.8-0.2-1.4-0.6-1.9
				s-1.1-0.8-2.1-0.8l0,0c-1.2,0-2.3,0.4-3.1,1.3c-0.8,0.9-1.3,2-1.3,3.4l0,0c0,1.5,0.4,2.6,1.2,3.3c0.8,0.7,1.7,1.1,2.8,1.1l0,0
				c0.8,0,1.5-0.2,2.2-0.6c0.7-0.4,1.2-1.1,1.5-2l0,0c-0.1-0.1-0.2-0.2-0.4-0.2l0,0c0,0-0.1,0.1-0.2,0.3c-0.1,0.2-0.2,0.3-0.3,0.4
				c-0.1,0.1-0.2,0.2-0.3,0.3c-0.2,0.1-0.3,0.2-0.4,0.3c-0.1,0.1-0.3,0.1-0.5,0.2c-0.2,0.1-0.5,0.1-0.7,0.1l0,0
				c-1,0-1.8-0.3-2.4-0.9c-0.6-0.6-0.9-1.4-0.9-2.4l0,0C403.8,57,403.8,56.7,403.8,56.3z M409.4,58.4L409.4,58.4
				c0.4,0.1,0.7,0.3,1,0.6l0,0c-0.4,1-0.9,1.8-1.7,2.3c-0.8,0.5-1.6,0.8-2.5,0.8l0,0c-1.2,0-2.2-0.4-3.1-1.2c-0.9-0.8-1.3-2-1.3-3.6
				l0,0c0-1.5,0.4-2.7,1.3-3.7c0.9-1,2.2-1.5,3.8-1.5l0,0c2.5,0,3.7,1,3.7,3.1l0,0c0,0.4-0.1,0.9-0.3,1.4l0,0h-5.2v0.6
				c0,0.8,0.2,1.4,0.6,1.9c0.4,0.5,0.9,0.8,1.6,0.9l0,0c0.4,0,0.7-0.2,1-0.4C408.7,59.4,409,59,409.4,58.4z M407.4,55L407.4,55
				c0-0.7-0.2-1.1-0.7-1.3l0,0c-0.6,0.2-1,0.7-1.3,1.5l0,0h2c0,0,0-0.1,0-0.1C407.4,55,407.4,55,407.4,55z M414.8,54.3L414.8,54.3
				c0.3,0.1,0.5,0.2,0.7,0.4c0.2,0.2,0.3,0.4,0.3,0.7l0,0c0,0.3-0.1,0.6-0.3,0.9c-0.2,0.2-0.5,0.3-0.9,0.3l0,0c-0.4,0-0.7-0.1-1-0.4
				S413,55.5,413,55l0,0c0-0.9,0.4-1.5,1.2-2.1c0.8-0.5,1.9-0.8,3.2-0.8l0,0c1.2,0,2.1,0.2,2.6,0.7c0.5,0.5,0.8,1.3,0.8,2.5l0,0v3.4
				l0.6,0c0.5,0,0.9,0.3,1.1,0.8l0,0l-0.3,0.5c-0.2,0.3-0.4,0.5-0.5,0.7c-0.1,0.2-0.3,0.4-0.6,0.6c-0.2,0.2-0.5,0.4-0.9,0.4
				c-0.3,0.1-0.7,0.1-1.2,0.1l0,0c-0.5,0-1-0.2-1.2-0.6l0,0c-0.7,0.5-1.6,0.8-2.8,0.8l0,0c-0.5,0-0.9-0.1-1.3-0.2
				c-0.3-0.2-0.6-0.4-0.8-0.6c-0.2-0.3-0.3-0.5-0.3-0.7c-0.1-0.2-0.1-0.4-0.1-0.7l0,0c0-1,0.3-1.7,1-2.1c0.6-0.5,1.9-1,3.9-1.5l0,0
				v-1.1c0-0.5-0.1-0.9-0.3-1.1c-0.2-0.2-0.5-0.4-0.8-0.4l0,0C415.6,53.7,415.1,53.9,414.8,54.3z M417.9,57.2L417.9,57.2v2
				c-0.6,0.8-1.3,1.2-1.9,1.2l0,0c-0.4,0-0.7-0.1-0.9-0.3c-0.2-0.2-0.4-0.4-0.4-0.8l0,0c0-0.5,0.2-1,0.7-1.3
				C415.9,57.8,416.7,57.5,417.9,57.2z M417.5,59.1L417.5,59.1v-1.2c-0.9,0.3-1.4,0.8-1.4,1.5l0,0c0,0.3,0.1,0.5,0.3,0.6l0,0
				C416.8,59.9,417.2,59.6,417.5,59.1z M414.6,55.7L414.6,55.7c-0.2,0-0.4-0.2-0.5-0.5l0,0c-0.1-0.5,0-1,0.5-1.4l0,0
				c0.4-0.4,1.1-0.6,2-0.6l0,0c0.4,0,0.8,0.2,1,0.5c0.3,0.3,0.4,0.8,0.4,1.5l0,0v1.4c-1.9,0.5-3.2,1-3.9,1.4c-0.7,0.4-1,1.1-1,1.9
				l0,0c0,0.4,0.1,0.9,0.4,1.2c0.3,0.4,0.8,0.6,1.6,0.6l0,0c0.3,0,0.6,0,0.9-0.1c0.3-0.1,0.5-0.3,0.8-0.5c0.3-0.2,0.5-0.4,0.5-0.4
				c0.1-0.1,0.2-0.2,0.3-0.3c0.2-0.1,0.2-0.2,0.2-0.2l0,0c0.1,1,0.5,1.4,1.2,1.4l0,0c0.2,0,0.4,0,0.6-0.1c0.2-0.1,0.5-0.3,0.7-0.5
				c0.2-0.3,0.4-0.4,0.4-0.5c0.1-0.1,0.2-0.2,0.3-0.4c0.1-0.2,0.2-0.3,0.3-0.4l0,0c-0.1-0.2-0.2-0.3-0.5-0.3l0,0
				c-0.4,0.5-0.7,0.8-1.1,0.8l0,0c-0.3,0-0.4-0.2-0.4-0.6l0,0v-4c0-1-0.2-1.8-0.6-2.2c-0.4-0.4-1.1-0.6-2.1-0.6l0,0
				c-0.9,0-1.7,0.2-2.3,0.7c-0.7,0.5-1,1-1,1.8l0,0c0,0.4,0.1,0.7,0.3,0.9c0.2,0.2,0.5,0.3,0.8,0.3l0,0
				C414.6,56.1,414.6,55.9,414.6,55.7z M428.4,60.4L428.4,60.4c-0.8,0-1.4-0.3-1.8-0.9c-0.4-0.6-0.6-1.4-0.6-2.4l0,0
				c0-0.8,0.1-1.4,0.2-2c0.2-0.6,0.4-1,0.6-1.2c0.3-0.3,0.5-0.4,0.8-0.5c0.2-0.1,0.5-0.2,0.8-0.2l0,0c0.9,0,1.6,0.4,2.1,1.2l0,0v1.4
				c0,1.8,0,3,0,3.6l0,0C429.7,60.1,429,60.4,428.4,60.4z M434.8,60.6L434.8,60.6c0.2,0.4,0.2,0.8,0,1.2l0,0c-1.7-0.1-3.1-0.1-4.2,0
				l0,0c-0.2-0.1-0.4-0.2-0.5-0.4l0,0c-0.6,0.4-1.5,0.6-2.6,0.6l0,0c-1.1,0-2-0.4-2.7-1.2s-1-1.9-1-3.4l0,0c0-0.6,0.1-1.2,0.3-1.8
				c0.2-0.6,0.5-1.2,0.8-1.7c0.4-0.5,0.9-1,1.6-1.3c0.7-0.3,1.4-0.5,2.3-0.5l0,0c0.6,0,1,0,1.3,0l0,0c0-1,0-2.3,0-3.7l0,0
				c-0.4-0.1-1-0.2-1.8-0.3l0,0c-0.1-0.4-0.1-0.8,0-1.2l0,0c0.9-0.1,2.1-0.4,3.5-0.9l0,0c0.7,0,1.2,0.3,1.6,0.6l0,0
				c0,7.4,0,11.9,0.1,13.3l0,0C433.4,60.3,433.9,60.5,434.8,60.6z M430.1,55.8v-1.3c-0.3-0.5-0.8-0.7-1.3-0.8l0,0
				c-0.5,0.1-0.8,0.4-1.2,0.9c-0.3,0.5-0.5,1.4-0.5,2.5l0,0c0,0.8,0.1,1.4,0.4,1.9c0.3,0.5,0.7,0.8,1.2,1l0,0
				c0.4-0.1,0.9-0.3,1.3-0.8l0,0C430.1,58.6,430.1,57.4,430.1,55.8L430.1,55.8z M434.4,61L434.4,61c-0.3,0-0.6-0.1-0.8-0.1
				c-0.2,0-0.4-0.1-0.7-0.1c-0.3-0.1-0.5-0.2-0.7-0.3c-0.2-0.1-0.2-0.3-0.2-0.4l0,0c0-1.4-0.1-5.9-0.1-13.2l0,0
				c-0.1-0.1-0.2-0.2-0.3-0.3l0,0c-0.9,0.4-1.9,0.7-3,0.8l0,0c0,0.2,0,0.3,0,0.5l0,0c0.9,0,1.5,0.2,1.9,0.4l0,0c0,1.8,0,3.4,0,4.6
				l0,0c-0.7-0.2-1.2-0.3-1.7-0.3l0,0c-0.8,0-1.4,0.2-2,0.5c-0.6,0.3-1,0.7-1.4,1.2c-0.3,0.5-0.6,1-0.7,1.6
				c-0.2,0.6-0.2,1.1-0.2,1.7l0,0c0,1.3,0.3,2.3,0.9,3.1c0.6,0.8,1.3,1.1,2.1,1.1l0,0c1,0,2.1-0.5,3.1-1.6l0,0c0,0.5,0,0.9,0,1.1
				l0,0c0.1,0.1,0.2,0.3,0.2,0.3l0,0c0.2,0,0.4,0,0.6,0c0.2,0,0.4,0,0.5,0c0.1,0,0.2,0,0.3,0l0,0c0.4,0,1.1,0,2.3,0.1l0,0
				C434.5,61.3,434.5,61.2,434.4,61z M449.7,46.8L449.7,46.8c-0.6,0-1.3,0.1-1.9,0.2c-0.6,0.1-1.3,0.4-2,0.7s-1.3,0.8-1.8,1.4
				c-0.5,0.5-1,1.3-1.3,2.2c-0.3,0.9-0.5,1.9-0.5,3.1s0.2,2.2,0.5,3.1c0.3,0.9,0.8,1.6,1.3,2.2c0.5,0.5,1.1,1,1.8,1.3
				c0.7,0.4,1.4,0.6,2,0.7c0.6,0.1,1.3,0.2,1.9,0.2l0,0c1,0,1.9-0.1,2.6-0.3c0.8-0.2,1.7-0.5,2.7-0.9l0,0c-0.3-0.8-0.4-1.8-0.4-3
				l0,0v-1.4c0-0.5,1.1-0.8,3.2-0.9l0,0c0.1-0.2,0.1-0.3,0-0.5l0,0c-1.7,0-3,0.1-4,0.1l0,0c-0.8,0-1.9,0-3.4-0.1l0,0
				c0,0.1,0,0.3,0,0.5l0,0c1.5,0.1,2.3,0.5,2.3,0.9l0,0v4c-0.6,0.6-1.6,1-3,1l0,0c-0.8,0-1.5-0.1-2.1-0.4c-0.6-0.3-1.1-0.6-1.5-1.1
				c-0.4-0.5-0.7-1-1-1.6c-0.3-0.6-0.5-1.2-0.6-1.8c-0.1-0.6-0.2-1.2-0.2-1.9l0,0c0-0.8,0.1-1.6,0.3-2.3c0.2-0.8,0.5-1.5,0.9-2.2
				c0.4-0.7,1-1.3,1.7-1.7c0.7-0.4,1.6-0.6,2.5-0.6l0,0c0.6,0,1.2,0.1,1.8,0.3c0.5,0.2,1,0.4,1.3,0.7c0.4,0.3,0.7,0.6,1,1.1
				c0.3,0.5,0.6,0.9,0.8,1.2c0.2,0.3,0.4,0.8,0.6,1.3l0,0c0.2,0,0.3-0.1,0.4-0.2l0,0c-0.5-1.9-1.2-3.3-2.2-4
				C452.4,47.1,451.2,46.8,449.7,46.8z M455,52.5L455,52.5c-0.3-0.6-0.5-1.1-0.8-1.5c-0.2-0.4-0.6-0.9-0.9-1.4
				c-0.4-0.5-0.9-0.9-1.4-1.2c-0.5-0.3-1.1-0.4-1.8-0.5l0,0c-0.8,0-1.4,0.3-2,0.7s-1,0.9-1.3,1.6c-0.3,0.6-0.6,1.3-0.7,2
				c-0.2,0.7-0.2,1.4-0.2,2.1l0,0c0,1,0.1,2,0.4,2.9c0.3,0.9,0.8,1.7,1.4,2.4c0.7,0.7,1.5,1.1,2.5,1.1l0,0c0.9,0,1.6-0.2,2.1-0.7
				l0,0v-3.8c0-0.2-0.7-0.4-2.2-0.6l0,0c-0.2-0.5-0.2-0.9,0-1.3l0,0c1.9,0.1,4.6,0.1,8.1,0.1l0,0c0.1,0.4,0.2,0.8,0,1.2l0,0
				c-1.4,0.1-2.2,0.3-2.2,0.6l0,0v1.4c0,1.2,0.2,2.3,0.6,3.3l0,0c-0.9,0.3-1.6,0.6-2,0.7c-0.4,0.1-1.1,0.3-1.9,0.4
				c-0.8,0.1-1.8,0.2-2.9,0.2l0,0c-0.7,0-1.3-0.1-2-0.2c-0.7-0.1-1.4-0.4-2.1-0.8c-0.7-0.4-1.4-0.8-1.9-1.4c-0.6-0.6-1-1.3-1.4-2.3
				c-0.4-1-0.5-2-0.5-3.2c0-1.2,0.2-2.3,0.5-3.2c0.4-1,0.8-1.7,1.4-2.3c0.6-0.6,1.2-1,1.9-1.4c0.7-0.4,1.4-0.6,2.1-0.8
				c0.7-0.1,1.3-0.2,2-0.2l0,0c1.1,0,2.3,0.1,3.6,0.4c1.3,0.3,2.2,0.4,2.5,0.5l0,0c-0.2,0.8-0.3,1.6-0.2,2.2c0,0.6,0.2,1.4,0.5,2.3
				l0,0C455.8,52.2,455.5,52.4,455,52.5z M466.2,59.1L466.2,59.1c0-1.6,0-3.3,0-4.9l0,0c0-0.2-0.5-0.4-1.5-0.6l0,0
				c-0.1-0.4-0.1-0.8,0-1.2l0,0h4.2c0.2,0.1,0.3,0.2,0.4,0.2c0.1,0.1,0.2,0.2,0.2,0.4l0,0c0,0.1,0,0.3,0,0.6c0,0.3,0,0.5,0,0.6l0,0
				c-0.1,2.1-0.1,4,0,5.6l0,0c0.5,0.1,1,0.2,1.5,0.3l0,0c0.1,0.4,0.1,0.8,0,1.2l0,0c-0.9,0-1.9,0.3-3.2,0.9l0,0
				c-0.7-0.1-1.2-0.3-1.6-0.6l0,0v-0.3c-0.9,0.6-1.9,0.9-3.2,0.9l0,0c-0.9,0-1.5-0.2-1.9-0.7c-0.4-0.5-0.6-1.2-0.6-2.3l0,0
				c0-1.6,0-3.3,0-4.9l0,0c0-0.2-0.5-0.4-1.5-0.6l0,0c-0.1-0.4-0.1-0.8,0-1.2l0,0h4.2c0.2,0.1,0.3,0.2,0.4,0.2
				c0.1,0.1,0.2,0.2,0.2,0.4l0,0c0,0.1,0,0.3,0,0.6c0,0.3,0,0.5,0,0.6l0,0c0,1.5,0,3.1,0,4.6l0,0c0,0.7,0.2,1.2,0.4,1.3l0,0
				C464.7,60,465.4,59.6,466.2,59.1z M466.6,54.2L466.6,54.2c0,1.7,0,3.4,0,5.1l0,0c-1.2,0.9-2.1,1.3-2.8,1.3l0,0
				c-0.9,0-1.3-0.6-1.3-1.8l0,0c0-1.6,0-3.1,0-4.6l0,0c0-0.2,0-0.4,0-0.6c0-0.2,0.1-0.4,0.1-0.5l0,0c-0.1-0.1-0.2-0.2-0.3-0.3l0,0
				c-1,0.1-1.9,0.1-2.9,0l0,0c0,0.1,0,0.3,0,0.5l0,0c1,0.2,1.5,0.5,1.6,0.9l0,0c0,1.7,0,3.3,0,4.9l0,0c0,0.9,0.1,1.5,0.5,2
				c0.3,0.4,0.8,0.6,1.6,0.6l0,0c1,0,2.2-0.6,3.6-1.8l0,0v1.4c0,0.1,0.2,0.2,0.3,0.2l0,0c0.9-0.3,2.1-0.6,3.6-0.7l0,0
				c0-0.2,0-0.3,0-0.5l0,0c-1.1,0-1.9-0.2-2.5-0.4l0,0c-0.1-2.3-0.1-4.3,0-5.8l0,0c0-0.2,0-0.4,0-0.6c0-0.2,0-0.4,0-0.5l0,0
				c-0.1-0.1-0.2-0.2-0.3-0.3l0,0c-0.9,0-1.9,0-2.9,0l0,0c0,0.1,0,0.3,0,0.5l0,0C466.1,53.4,466.6,53.7,466.6,54.2z M475.3,47.7
				L475.3,47.7c1.5,0,2.2,0.5,2.2,1.6l0,0c0,1.1-0.7,1.6-2.2,1.6l0,0c-0.2,0-0.4,0-0.6-0.1c-0.2-0.1-0.4-0.2-0.5-0.3
				s-0.3-0.3-0.3-0.5c-0.1-0.2-0.1-0.4-0.1-0.6l0,0c0-0.2,0-0.4,0.1-0.6c0.1-0.2,0.2-0.4,0.3-0.5c0.1-0.1,0.3-0.3,0.5-0.3
				C474.9,47.8,475.1,47.7,475.3,47.7z M474.4,48.5L474.4,48.5c-0.2,0.2-0.3,0.5-0.3,0.8l0,0c0,0.2,0,0.3,0.1,0.5
				c0.1,0.1,0.1,0.3,0.2,0.4s0.2,0.2,0.3,0.3c0.1,0.1,0.3,0.1,0.4,0.1l0,0c0.1,0,0.3,0,0.4-0.1c0.1-0.1,0.2-0.1,0.3-0.3
				c0.1-0.1,0.2-0.2,0.2-0.4c0.1-0.1,0.1-0.3,0.1-0.5l0,0c0-0.2,0-0.3-0.1-0.5c-0.1-0.1-0.1-0.3-0.2-0.4c-0.1-0.1-0.2-0.2-0.3-0.3
				c-0.1-0.1-0.3-0.1-0.4-0.1l0,0c-0.1,0-0.3,0-0.4,0.1C474.7,48.3,474.5,48.4,474.4,48.5z M478.4,61L478.4,61
				c-1.5-0.1-2.3-0.5-2.3-0.9l0,0c-0.1-1.9-0.1-4.3-0.1-7.2l0,0c-0.1-0.1-0.2-0.2-0.3-0.3l0,0c-0.9,0.4-1.8,0.7-2.8,0.8l0,0
				c0,0.2,0,0.3,0,0.5l0,0c0.7,0,1.3,0.2,1.7,0.4l0,0c0.1,2.4,0.1,4.4,0,5.8l0,0c0,0.5-0.6,0.8-1.7,0.9l0,0c-0.1,0.2-0.1,0.3,0,0.5
				l0,0c1.9,0,3.7,0,5.6,0l0,0C478.4,61.3,478.4,61.1,478.4,61z M478.7,60.6L478.7,60.6c0.1,0.4,0.1,0.8,0,1.2l0,0
				c-2.1-0.1-4.2-0.1-6.3,0l0,0c-0.1-0.4-0.1-0.8,0-1.2l0,0c1.1-0.1,1.6-0.3,1.6-0.6l0,0c0.1-1.8,0.1-3.7,0-5.5l0,0
				c-0.4-0.1-1-0.2-1.6-0.2l0,0c-0.1-0.4-0.1-0.8,0-1.2l0,0c1,0,2.1-0.3,3.3-0.9l0,0c0.7,0,1.2,0.3,1.6,0.6l0,0c0,3.2,0,5.6,0.1,7.3
				l0,0C477.4,60.3,477.9,60.5,478.7,60.6z M483.3,58.9v-5.2h3.8c0.1-0.3,0.1-0.5,0-0.7l0,0h-3.8v-2.1c-0.2-0.1-0.3-0.1-0.5,0l0,0
				c-0.2,0.4-0.5,0.8-0.8,1.2c-0.3,0.3-0.5,0.6-0.7,0.7c-0.2,0.1-0.5,0.3-0.9,0.5l0,0c0,0.1,0,0.3,0,0.4l0,0h1.2v5.1
				c0,1.9,0.8,2.9,2.4,2.9l0,0c0.7,0,1.3-0.2,1.9-0.5c0.6-0.3,1-0.8,1.3-1.3l0,0c-0.1-0.1-0.2-0.2-0.3-0.2l0,0
				c-0.6,0.5-1.2,0.8-1.8,0.8l0,0C483.9,60.5,483.3,60,483.3,58.9L483.3,58.9z M486.7,59.2L486.7,59.2c0.4,0.1,0.7,0.3,0.9,0.7l0,0
				c-0.3,0.6-0.8,1.1-1.5,1.6c-0.6,0.4-1.3,0.6-2.1,0.6l0,0c-1.8,0-2.8-1.1-2.8-3.3l0,0v-4.7h-1.2c-0.1-0.3-0.1-0.7,0-1.1l0,0
				c0.4-0.2,0.7-0.4,0.9-0.6c0.2-0.1,0.5-0.4,0.8-0.7c0.3-0.3,0.6-0.7,0.8-1.2l0,0c0.6-0.3,1.3-0.2,2.1,0l0,0v2h2.8
				c0.2,0.5,0.2,1,0,1.5l0,0h-2.8v4.8c0,0.6,0.2,1,0.7,1.1l0,0C485.8,60,486.2,59.7,486.7,59.2z M491.4,54.3L491.4,54.3
				c0.3,0.1,0.5,0.2,0.7,0.4c0.2,0.2,0.3,0.4,0.3,0.7l0,0c0,0.3-0.1,0.6-0.3,0.9c-0.2,0.2-0.5,0.3-0.9,0.3l0,0c-0.4,0-0.7-0.1-1-0.4
				c-0.3-0.3-0.5-0.7-0.5-1.2l0,0c0-0.9,0.4-1.5,1.2-2.1c0.8-0.5,1.9-0.8,3.2-0.8l0,0c1.2,0,2.1,0.2,2.6,0.7
				c0.5,0.5,0.8,1.3,0.8,2.5l0,0v3.4l0.6,0c0.5,0,0.9,0.3,1.1,0.8l0,0l-0.3,0.5c-0.2,0.3-0.4,0.5-0.5,0.7c-0.1,0.2-0.3,0.4-0.6,0.6
				c-0.2,0.2-0.5,0.4-0.9,0.4c-0.3,0.1-0.7,0.1-1.2,0.1l0,0c-0.5,0-1-0.2-1.2-0.6l0,0c-0.7,0.5-1.6,0.8-2.8,0.8l0,0
				c-0.5,0-0.9-0.1-1.3-0.2c-0.3-0.2-0.6-0.4-0.8-0.6c-0.2-0.3-0.3-0.5-0.3-0.7c-0.1-0.2-0.1-0.4-0.1-0.7l0,0c0-1,0.3-1.7,1-2.1
				c0.6-0.5,1.9-1,3.9-1.5l0,0v-1.1c0-0.5-0.1-0.9-0.3-1.1c-0.2-0.2-0.5-0.4-0.8-0.4l0,0C492.2,53.7,491.7,53.9,491.4,54.3z
				 M494.5,57.2L494.5,57.2v2c-0.6,0.8-1.3,1.2-1.9,1.2l0,0c-0.4,0-0.7-0.1-0.9-0.3c-0.2-0.2-0.4-0.4-0.4-0.8l0,0
				c0-0.5,0.2-1,0.7-1.3C492.4,57.8,493.3,57.5,494.5,57.2z M494.1,59.1L494.1,59.1v-1.2c-0.9,0.3-1.4,0.8-1.4,1.5l0,0
				c0,0.3,0.1,0.5,0.3,0.6l0,0C493.4,59.9,493.7,59.6,494.1,59.1z M491.1,55.7L491.1,55.7c-0.2,0-0.4-0.2-0.5-0.5l0,0
				c-0.1-0.5,0-1,0.5-1.4l0,0c0.4-0.4,1.1-0.6,2-0.6l0,0c0.4,0,0.8,0.2,1,0.5c0.3,0.3,0.4,0.8,0.4,1.5l0,0v1.4
				c-1.9,0.5-3.2,1-3.9,1.4c-0.7,0.4-1,1.1-1,1.9l0,0c0,0.4,0.1,0.9,0.4,1.2c0.3,0.4,0.8,0.6,1.6,0.6l0,0c0.3,0,0.6,0,0.9-0.1
				c0.3-0.1,0.5-0.3,0.8-0.5c0.3-0.2,0.5-0.4,0.5-0.4c0.1-0.1,0.2-0.2,0.3-0.3s0.2-0.2,0.2-0.2l0,0c0.1,1,0.5,1.4,1.2,1.4l0,0
				c0.2,0,0.4,0,0.6-0.1c0.2-0.1,0.5-0.3,0.7-0.5c0.2-0.3,0.4-0.4,0.4-0.5c0.1-0.1,0.2-0.2,0.3-0.4c0.1-0.2,0.2-0.3,0.3-0.4l0,0
				c-0.1-0.2-0.2-0.3-0.5-0.3l0,0c-0.4,0.5-0.7,0.8-1.1,0.8l0,0c-0.3,0-0.4-0.2-0.4-0.6l0,0v-4c0-1-0.2-1.8-0.6-2.2
				c-0.4-0.4-1.1-0.6-2.1-0.6l0,0c-0.9,0-1.7,0.2-2.3,0.7c-0.7,0.5-1,1-1,1.8l0,0c0,0.4,0.1,0.7,0.3,0.9c0.2,0.2,0.5,0.3,0.8,0.3
				l0,0C491.2,56.1,491.2,55.9,491.1,55.7z M503.7,55.9L503.7,55.9c0.2-0.6,0.5-1.2,1-1.7c0.5-0.6,1-0.8,1.5-0.8l0,0
				c0.6,0,0.9,0.2,0.9,0.6l0,0c0,0.4-0.2,0.6-0.5,0.7l0,0c-0.1,0.1-0.1,0.3,0,0.5l0,0c0.4,0,0.6-0.1,0.9-0.3
				c0.2-0.2,0.3-0.5,0.3-0.9l0,0c0-0.4-0.1-0.7-0.4-0.9c-0.2-0.2-0.6-0.3-0.9-0.3l0,0c-0.5,0-1,0.2-1.5,0.6c-0.5,0.4-1,0.9-1.3,1.4
				l0,0v-1.7c-0.1-0.1-0.2-0.2-0.3-0.3l0,0c-0.9,0.4-1.9,0.7-3,0.8l0,0c0,0.2,0,0.3,0,0.5l0,0c0.9,0,1.5,0.2,1.9,0.4l0,0
				c0,2.4,0,4.4,0,5.8l0,0c0,0.5-0.6,0.8-1.7,0.9l0,0c-0.1,0.2-0.1,0.3,0,0.5l0,0c1.7-0.1,3.6-0.1,5.6,0l0,0c0.1-0.1,0.1-0.3,0-0.5
				l0,0c-1.5-0.1-2.3-0.5-2.3-0.9l0,0C503.7,58.8,503.7,57.4,503.7,55.9z M505.2,60.1L505.2,60.1c0,0.3,0.5,0.5,1.3,0.6l0,0
				c0.2,0.4,0.2,0.8,0,1.2l0,0c-2.8-0.1-4.8-0.1-6.2-0.1l0,0c-0.2-0.4-0.3-0.8,0-1.2l0,0c1.1-0.1,1.6-0.3,1.7-0.6l0,0
				c0.1-1.9,0.1-3.7,0-5.6l0,0c-0.4-0.1-1-0.2-1.8-0.2l0,0c-0.1-0.4-0.1-0.8,0-1.2l0,0c1.1-0.1,2.2-0.4,3.4-0.9l0,0
				c0.7,0.1,1.2,0.3,1.6,0.6l0,0c0.5-0.4,1-0.6,1.5-0.6l0,0c0.5,0,0.9,0.1,1.2,0.4c0.3,0.3,0.5,0.7,0.5,1.2l0,0
				c0,0.5-0.1,0.9-0.4,1.2c-0.3,0.3-0.7,0.4-1.2,0.4l0,0c-0.4,0-0.8-0.1-1.1-0.4l0,0c-0.3,0.4-0.4,0.7-0.5,1l0,0
				C505.1,57.4,505.1,58.8,505.2,60.1z"/>
		</g>
	</g>
	<g transform="rotate(0 0 53.1529)">
		<path class="st1" d="M2.2,54.2L2.2,54.2c0.6,0,1.2,0.5,1.2,1.2l0,0c0,0.6-0.5,1.2-1.2,1.2l0,0C1.5,56.5,1,56,1,55.3l0,0
			C1,54.7,1.5,54.2,2.2,54.2z"/>
	</g>
	<g transform="rotate(0 532.2731 53.1529)">
		<path class="st1" d="M534.4,54.2L534.4,54.2c0.6,0,1.2,0.5,1.2,1.2l0,0c0,0.6-0.5,1.2-1.2,1.2l0,0c-0.6,0-1.2-0.5-1.2-1.2l0,0
			C533.3,54.7,533.8,54.2,534.4,54.2z"/>
	</g>
</g>
</svg>
