<?xml version="1.0" encoding="utf-8"?>
<!-- Generator: Adobe Illustrator 24.2.1, SVG Export Plug-In . SVG Version: 6.00 Build 0)  -->
<svg version="1.1" id="Layer_1" xmlns="http://www.w3.org/2000/svg" xmlns:xlink="http://www.w3.org/1999/xlink" x="0px" y="0px"
	 viewBox="0 0 480 58.7" style="enable-background:new 0 0 480 58.7;" xml:space="preserve">
<style type="text/css">
	.st0{fill:#EFEDE1;}
</style>
<g>
	<g transform="rotate(0 52.7184 40)">
		<g transform="matrix(1 0 0 1 0 0)">
			<path class="st0" d="M54.7,53h8.1v1.7H52.7V40.8h9.8v1.7h-7.8v4.3h7v1.7h-7V53z M75,44.2h1.9l-4.6,10.5h-1.9l-4.6-10.5h2l3.6,8.4
				L75,44.2z M89.8,49.5c0,0.1,0,0.3,0,0.6l0,0h-8.5c0.1,0.9,0.5,1.7,1.2,2.2c0.7,0.6,1.6,0.8,2.6,0.8l0,0c1.3,0,2.3-0.4,3-1.3l0,0
				l1.1,1.2c-0.5,0.6-1.1,1-1.8,1.3c-0.7,0.3-1.5,0.4-2.4,0.4l0,0c-1.1,0-2.1-0.2-3-0.7s-1.5-1.1-2-1.9c-0.5-0.8-0.7-1.7-0.7-2.8
				l0,0c0-1,0.2-1.9,0.7-2.8c0.5-0.8,1.1-1.5,1.9-1.9c0.8-0.5,1.7-0.7,2.7-0.7l0,0c1,0,1.9,0.2,2.7,0.7c0.8,0.5,1.4,1.1,1.8,1.9
				C89.6,47.5,89.8,48.5,89.8,49.5L89.8,49.5z M84.6,45.7c-0.9,0-1.7,0.3-2.3,0.8s-1,1.3-1.1,2.2l0,0H88c-0.1-0.9-0.5-1.6-1.1-2.2
				C86.3,46,85.5,45.7,84.6,45.7L84.6,45.7z M96.3,46c0.3-0.6,0.8-1.1,1.5-1.4c0.6-0.3,1.4-0.5,2.4-0.5l0,0V46c-0.1,0-0.3,0-0.4,0
				l0,0c-1,0-1.8,0.3-2.4,0.9c-0.6,0.6-0.9,1.5-0.9,2.6l0,0v5.2h-1.9V44.2h1.8V46z M112.3,44.2h1.9l-5.1,11.6
				c-0.4,1.1-1,1.8-1.6,2.3c-0.6,0.4-1.3,0.7-2.2,0.7l0,0c-0.5,0-1-0.1-1.5-0.2c-0.5-0.2-0.9-0.4-1.2-0.7l0,0l0.8-1.4
				c0.5,0.5,1.2,0.8,1.9,0.8l0,0c0.5,0,0.9-0.1,1.2-0.4c0.3-0.2,0.6-0.7,0.8-1.3l0,0l0.3-0.7L103,44.2h2l3.7,8.4L112.3,44.2z
				 M128.3,54.7V42.6h-4.8v-1.7H135v1.7h-4.8v12.2H128.3z M142.3,54.9c-1,0-2-0.2-2.8-0.7c-0.8-0.5-1.5-1.1-2-1.9s-0.7-1.7-0.7-2.8
				l0,0c0-1,0.2-2,0.7-2.8c0.5-0.8,1.1-1.4,2-1.9c0.8-0.5,1.8-0.7,2.8-0.7l0,0c1,0,2,0.2,2.8,0.7c0.8,0.5,1.5,1.1,1.9,1.9
				c0.5,0.8,0.7,1.7,0.7,2.8l0,0c0,1-0.2,2-0.7,2.8s-1.1,1.5-1.9,1.9C144.3,54.6,143.4,54.9,142.3,54.9L142.3,54.9z M142.3,53.2
				c0.7,0,1.3-0.2,1.8-0.5c0.5-0.3,1-0.7,1.3-1.3s0.5-1.2,0.5-1.9l0,0c0-0.7-0.2-1.4-0.5-1.9s-0.7-1-1.3-1.3
				c-0.5-0.3-1.1-0.5-1.8-0.5l0,0c-0.7,0-1.3,0.2-1.8,0.5s-1,0.7-1.3,1.3s-0.5,1.2-0.5,1.9l0,0c0,0.7,0.2,1.4,0.5,1.9s0.7,1,1.3,1.3
				S141.7,53.2,142.3,53.2L142.3,53.2z M156.9,54.9c-1,0-2-0.2-2.8-0.7c-0.8-0.5-1.5-1.1-2-1.9s-0.7-1.7-0.7-2.8l0,0
				c0-1,0.2-2,0.7-2.8c0.5-0.8,1.1-1.4,2-1.9c0.8-0.5,1.8-0.7,2.8-0.7l0,0c1,0,2,0.2,2.8,0.7c0.8,0.5,1.5,1.1,1.9,1.9
				c0.5,0.8,0.7,1.7,0.7,2.8l0,0c0,1-0.2,2-0.7,2.8c-0.5,0.8-1.1,1.5-1.9,1.9C158.9,54.6,158,54.9,156.9,54.9L156.9,54.9z
				 M156.9,53.2c0.7,0,1.3-0.2,1.8-0.5s1-0.7,1.3-1.3c0.3-0.6,0.5-1.2,0.5-1.9l0,0c0-0.7-0.2-1.4-0.5-1.9c-0.3-0.6-0.7-1-1.3-1.3
				s-1.1-0.5-1.8-0.5l0,0c-0.7,0-1.3,0.2-1.8,0.5c-0.5,0.3-1,0.7-1.3,1.3c-0.3,0.6-0.5,1.2-0.5,1.9l0,0c0,0.7,0.2,1.4,0.5,1.9
				c0.3,0.6,0.7,1,1.3,1.3C155.6,53,156.2,53.2,156.9,53.2L156.9,53.2z M167,54.7V40h1.9v14.7H167z M180.1,44.1c1,0,1.9,0.2,2.7,0.7
				c0.8,0.5,1.4,1.1,1.9,1.9c0.5,0.8,0.7,1.7,0.7,2.8l0,0c0,1.1-0.2,2-0.7,2.8c-0.5,0.8-1.1,1.4-1.9,1.9s-1.7,0.7-2.7,0.7l0,0
				c-0.8,0-1.5-0.2-2.1-0.5c-0.6-0.3-1.2-0.7-1.6-1.3l0,0v1.7h-1.8V40h1.9v5.8c0.4-0.6,1-1,1.6-1.3
				C178.6,44.3,179.3,44.1,180.1,44.1L180.1,44.1z M179.9,53.2c0.7,0,1.3-0.2,1.8-0.5s1-0.7,1.3-1.3s0.5-1.2,0.5-1.9l0,0
				c0-0.7-0.2-1.4-0.5-1.9s-0.7-1-1.3-1.3s-1.1-0.5-1.8-0.5l0,0c-0.7,0-1.3,0.2-1.8,0.5s-1,0.7-1.3,1.3c-0.3,0.6-0.5,1.2-0.5,1.9
				l0,0c0,0.7,0.2,1.4,0.5,1.9c0.3,0.6,0.7,1,1.3,1.3S179.3,53.2,179.9,53.2L179.9,53.2z M194.5,54.9c-1,0-2-0.2-2.8-0.7
				c-0.8-0.5-1.5-1.1-2-1.9s-0.7-1.7-0.7-2.8l0,0c0-1,0.2-2,0.7-2.8c0.5-0.8,1.1-1.4,2-1.9c0.8-0.5,1.8-0.7,2.8-0.7l0,0
				c1,0,2,0.2,2.8,0.7c0.8,0.5,1.5,1.1,1.9,1.9c0.5,0.8,0.7,1.7,0.7,2.8l0,0c0,1-0.2,2-0.7,2.8c-0.5,0.8-1.1,1.5-1.9,1.9
				C196.5,54.6,195.6,54.9,194.5,54.9L194.5,54.9z M194.5,53.2c0.7,0,1.3-0.2,1.8-0.5c0.5-0.3,1-0.7,1.3-1.3
				c0.3-0.6,0.5-1.2,0.5-1.9l0,0c0-0.7-0.2-1.4-0.5-1.9c-0.3-0.6-0.7-1-1.3-1.3c-0.5-0.3-1.1-0.5-1.8-0.5l0,0
				c-0.7,0-1.3,0.2-1.8,0.5c-0.5,0.3-1,0.7-1.3,1.3s-0.5,1.2-0.5,1.9l0,0c0,0.7,0.2,1.4,0.5,1.9s0.7,1,1.3,1.3
				C193.3,53,193.9,53.2,194.5,53.2L194.5,53.2z M213.1,54.7H211l-3-4l-3.1,4h-2.1l4.1-5.4l-3.9-5.1h2.1L208,48l2.9-3.8h2.1l-4,5.1
				L213.1,54.7z M234.8,40.8h2v13.9h-1.6l-8.3-10.4v10.4h-2V40.8h1.6l8.3,10.4V40.8z M252.1,49.5c0,0.1,0,0.3,0,0.6l0,0h-8.5
				c0.1,0.9,0.5,1.7,1.2,2.2c0.7,0.6,1.6,0.8,2.6,0.8l0,0c1.3,0,2.3-0.4,3-1.3l0,0l1.1,1.2c-0.5,0.6-1.1,1-1.8,1.3
				c-0.7,0.3-1.5,0.4-2.4,0.4l0,0c-1.1,0-2.1-0.2-3-0.7s-1.5-1.1-2-1.9c-0.5-0.8-0.7-1.7-0.7-2.8l0,0c0-1,0.2-1.9,0.7-2.8
				c0.5-0.8,1.1-1.5,1.9-1.9c0.8-0.5,1.7-0.7,2.7-0.7l0,0c1,0,1.9,0.2,2.7,0.7c0.8,0.5,1.4,1.1,1.8,1.9S252.1,48.5,252.1,49.5
				L252.1,49.5z M246.9,45.7c-0.9,0-1.7,0.3-2.3,0.8s-1,1.3-1.1,2.2l0,0h6.7c-0.1-0.9-0.5-1.6-1.1-2.2
				C248.6,46,247.9,45.7,246.9,45.7L246.9,45.7z M266.3,49.5c0,0.1,0,0.3,0,0.6l0,0h-8.5c0.1,0.9,0.5,1.7,1.2,2.2
				c0.7,0.6,1.6,0.8,2.6,0.8l0,0c1.3,0,2.3-0.4,3-1.3l0,0l1.1,1.2c-0.5,0.6-1.1,1-1.8,1.3c-0.7,0.3-1.5,0.4-2.4,0.4l0,0
				c-1.1,0-2.1-0.2-3-0.7s-1.5-1.1-2-1.9c-0.5-0.8-0.7-1.7-0.7-2.8l0,0c0-1,0.2-1.9,0.7-2.8c0.5-0.8,1.1-1.5,1.9-1.9
				c0.8-0.5,1.7-0.7,2.7-0.7l0,0c1,0,1.9,0.2,2.7,0.7c0.8,0.5,1.4,1.1,1.8,1.9C266.1,47.5,266.3,48.5,266.3,49.5L266.3,49.5z
				 M261.1,45.7c-0.9,0-1.7,0.3-2.3,0.8s-1,1.3-1.1,2.2l0,0h6.7c-0.1-0.9-0.5-1.6-1.1-2.2C262.8,46,262,45.7,261.1,45.7L261.1,45.7z
				 M278.9,40h1.9v14.7H279v-1.7c-0.4,0.6-1,1-1.6,1.3c-0.6,0.3-1.4,0.5-2.1,0.5l0,0c-1,0-1.9-0.2-2.7-0.7c-0.8-0.5-1.4-1.1-1.9-1.9
				c-0.5-0.8-0.7-1.8-0.7-2.8l0,0c0-1.1,0.2-2,0.7-2.8c0.5-0.8,1.1-1.4,1.9-1.9c0.8-0.5,1.7-0.7,2.7-0.7l0,0c0.8,0,1.4,0.1,2.1,0.4
				c0.6,0.3,1.2,0.7,1.6,1.3l0,0V40z M275.4,53.2c0.7,0,1.3-0.2,1.8-0.5c0.5-0.3,1-0.7,1.3-1.3s0.5-1.2,0.5-1.9l0,0
				c0-0.7-0.2-1.4-0.5-1.9s-0.7-1-1.3-1.3c-0.5-0.3-1.1-0.5-1.8-0.5l0,0c-0.7,0-1.3,0.2-1.8,0.5c-0.5,0.3-1,0.7-1.3,1.3
				c-0.3,0.6-0.5,1.2-0.5,1.9l0,0c0,0.7,0.2,1.4,0.5,1.9c0.3,0.6,0.7,1,1.3,1.3C274.1,53,274.7,53.2,275.4,53.2L275.4,53.2z
				 M289.4,54.9c-0.9,0-1.7-0.1-2.5-0.3c-0.8-0.2-1.4-0.5-1.9-0.9l0,0l0.8-1.5c0.5,0.3,1,0.6,1.7,0.8s1.3,0.3,2,0.3l0,0
				c1.7,0,2.5-0.5,2.5-1.4l0,0c0-0.3-0.1-0.6-0.3-0.8c-0.2-0.2-0.5-0.3-0.8-0.4c-0.3-0.1-0.8-0.2-1.4-0.3l0,0
				c-0.8-0.1-1.5-0.3-2.1-0.5c-0.5-0.2-1-0.5-1.4-0.9c-0.4-0.4-0.6-1-0.6-1.7l0,0c0-1,0.4-1.7,1.2-2.3c0.8-0.6,1.9-0.9,3.2-0.9l0,0
				c0.7,0,1.4,0.1,2.1,0.3s1.3,0.4,1.7,0.7l0,0l-0.8,1.5c-0.9-0.6-1.9-0.8-3-0.8l0,0c-0.8,0-1.4,0.1-1.8,0.4
				c-0.4,0.3-0.6,0.6-0.6,1.1l0,0c0,0.3,0.1,0.6,0.4,0.8c0.2,0.2,0.5,0.3,0.9,0.4c0.4,0.1,0.8,0.2,1.5,0.3l0,0
				c0.8,0.1,1.5,0.3,2.1,0.5s1,0.4,1.3,0.8c0.4,0.4,0.6,1,0.6,1.7l0,0c0,1-0.4,1.7-1.2,2.3C291.9,54.6,290.8,54.9,289.4,54.9
				L289.4,54.9z M309.5,44.1c1.5,0,2.6,0.4,3.3,1.1c0.8,0.7,1.2,1.8,1.2,3.2l0,0v6.4h-1.8v-1.4c-0.3,0.5-0.8,0.9-1.4,1.1
				s-1.3,0.4-2.1,0.4l0,0c-1.2,0-2.1-0.3-2.8-0.9c-0.7-0.6-1.1-1.3-1.1-2.2l0,0c0-0.9,0.3-1.7,1-2.2c0.7-0.6,1.7-0.8,3.2-0.8l0,0h3
				v-0.4c0-0.8-0.2-1.4-0.7-1.9s-1.2-0.7-2.1-0.7l0,0c-0.6,0-1.2,0.1-1.8,0.3c-0.6,0.2-1.1,0.5-1.5,0.8l0,0l-0.8-1.4
				c0.5-0.4,1.2-0.8,1.9-1C307.9,44.2,308.7,44.1,309.5,44.1L309.5,44.1z M309.1,53.4c0.7,0,1.4-0.2,1.9-0.5
				c0.5-0.3,0.9-0.8,1.2-1.4l0,0V50h-2.9c-1.6,0-2.4,0.5-2.4,1.6l0,0c0,0.5,0.2,0.9,0.6,1.3C307.8,53.2,308.3,53.4,309.1,53.4
				L309.1,53.4z M337.1,40.8h2v13.9h-2v-6.2h-8v6.2h-2V40.8h2v6h8V40.8z M348.8,44.1c1.5,0,2.6,0.4,3.3,1.1c0.8,0.7,1.2,1.8,1.2,3.2
				l0,0v6.4h-1.8v-1.4c-0.3,0.5-0.8,0.9-1.4,1.1c-0.6,0.3-1.3,0.4-2.1,0.4l0,0c-1.2,0-2.1-0.3-2.8-0.9c-0.7-0.6-1.1-1.3-1.1-2.2l0,0
				c0-0.9,0.3-1.7,1-2.2c0.7-0.6,1.7-0.8,3.2-0.8l0,0h3v-0.4c0-0.8-0.2-1.4-0.7-1.9c-0.5-0.4-1.2-0.7-2.1-0.7l0,0
				c-0.6,0-1.2,0.1-1.8,0.3s-1.1,0.5-1.5,0.8l0,0l-0.8-1.4c0.5-0.4,1.2-0.8,1.9-1C347.1,44.2,347.9,44.1,348.8,44.1L348.8,44.1z
				 M348.3,53.4c0.7,0,1.4-0.2,1.9-0.5c0.5-0.3,0.9-0.8,1.2-1.4l0,0V50h-2.9c-1.6,0-2.4,0.5-2.4,1.6l0,0c0,0.5,0.2,0.9,0.6,1.3
				C347,53.2,347.6,53.4,348.3,53.4L348.3,53.4z M372,44.1c1.3,0,2.4,0.4,3.1,1.2c0.8,0.8,1.2,1.9,1.2,3.4l0,0v6.1h-1.9v-5.8
				c0-1-0.2-1.8-0.7-2.3s-1.1-0.8-2-0.8l0,0c-1,0-1.7,0.3-2.3,0.9c-0.6,0.6-0.9,1.5-0.9,2.6l0,0v5.4h-1.9v-5.8c0-1-0.2-1.8-0.7-2.3
				s-1.1-0.8-2-0.8l0,0c-1,0-1.7,0.3-2.3,0.9c-0.6,0.6-0.9,1.5-0.9,2.6l0,0v5.4h-1.9V44.2h1.8v1.6c0.4-0.5,0.9-1,1.5-1.2
				c0.6-0.3,1.3-0.4,2.1-0.4l0,0c0.8,0,1.5,0.2,2.2,0.5c0.6,0.3,1.1,0.8,1.5,1.4l0,0c0.4-0.6,0.9-1.1,1.7-1.4
				C370.3,44.3,371.1,44.1,372,44.1L372,44.1z M394.9,44.1c1.3,0,2.4,0.4,3.1,1.2s1.2,1.9,1.2,3.4l0,0v6.1h-1.9v-5.8
				c0-1-0.2-1.8-0.7-2.3c-0.5-0.5-1.1-0.8-2-0.8l0,0c-1,0-1.7,0.3-2.3,0.9c-0.6,0.6-0.9,1.5-0.9,2.6l0,0v5.4h-1.9v-5.8
				c0-1-0.2-1.8-0.7-2.3c-0.5-0.5-1.1-0.8-2-0.8l0,0c-1,0-1.7,0.3-2.3,0.9c-0.6,0.6-0.9,1.5-0.9,2.6l0,0v5.4h-1.9V44.2h1.8v1.6
				c0.4-0.5,0.9-1,1.5-1.2s1.3-0.4,2.1-0.4l0,0c0.8,0,1.5,0.2,2.2,0.5c0.6,0.3,1.1,0.8,1.5,1.4l0,0c0.4-0.6,0.9-1.1,1.7-1.4
				S394,44.1,394.9,44.1L394.9,44.1z M414.3,49.5c0,0.1,0,0.3,0,0.6l0,0h-8.5c0.1,0.9,0.5,1.7,1.2,2.2s1.6,0.8,2.6,0.8l0,0
				c1.3,0,2.3-0.4,3-1.3l0,0l1.1,1.2c-0.5,0.6-1.1,1-1.8,1.3c-0.7,0.3-1.5,0.4-2.4,0.4l0,0c-1.1,0-2.1-0.2-3-0.7s-1.5-1.1-2-1.9
				c-0.5-0.8-0.7-1.7-0.7-2.8l0,0c0-1,0.2-1.9,0.7-2.8s1.1-1.5,1.9-1.9c0.8-0.5,1.7-0.7,2.7-0.7l0,0c1,0,1.9,0.2,2.7,0.7
				c0.8,0.5,1.4,1.1,1.8,1.9S414.3,48.5,414.3,49.5L414.3,49.5z M409.1,45.7c-0.9,0-1.7,0.3-2.3,0.8s-1,1.3-1.1,2.2l0,0h6.7
				c-0.1-0.9-0.5-1.6-1.1-2.2S410,45.7,409.1,45.7L409.1,45.7z M420.7,46c0.3-0.6,0.8-1.1,1.5-1.4c0.6-0.3,1.4-0.5,2.4-0.5l0,0V46
				c-0.1,0-0.3,0-0.4,0l0,0c-1,0-1.8,0.3-2.4,0.9c-0.6,0.6-0.9,1.5-0.9,2.6l0,0v5.2h-1.9V44.2h1.8V46z"/>
		</g>
	</g>
	<g transform="rotate(0 0 0)">
		<g transform="matrix(1 0 0 1 0 0)">
			<path class="st0" d="M5.7,3.1L5.7,3.1c0.9,0,1.8,0.1,2.6,0.4C9,3.7,9.7,3.9,10.3,4l0,0c-0.3,1.2-0.4,2.5,0,3.9l0,0
				C10,8.1,9.6,8.3,9.1,8.4l0,0C9.1,8.2,9,8,8.9,7.6c-0.1-0.4-0.3-0.7-0.4-1C8.4,6.4,8.2,6.1,8,5.7C7.8,5.4,7.5,5.2,7.2,5
				C6.8,4.8,6.4,4.6,6,4.6l0,0C5.3,4.6,4.8,4.8,4.4,5.2C4.1,5.5,3.9,6,3.9,6.5l0,0c0,0.6,0.1,1,0.4,1.4C4.6,8.3,5,8.5,5.4,8.7
				C5.9,8.9,6.4,9,7,9.2s1.1,0.3,1.6,0.5c0.5,0.2,1,0.4,1.5,0.7c0.5,0.3,0.8,0.8,1.1,1.4c0.3,0.6,0.4,1.4,0.4,2.2l0,0
				c0,1.1-0.3,2-0.9,2.7c-0.6,0.8-1.3,1.3-2.2,1.7c-0.8,0.3-1.7,0.5-2.6,0.5l0,0c-1.9,0-3.8-0.4-5.7-1.3l0,0c0-0.8,0.1-1.4,0.1-1.5
				l0,0c0-1.1-0.1-2.2-0.3-3.4l0,0c0.6-0.3,1.2-0.3,2,0l0,0c0.2,1.5,0.7,2.6,1.4,3.4c0.7,0.8,1.5,1.2,2.3,1.3l0,0
				c0.8-0.1,1.4-0.3,1.8-0.8c0.4-0.5,0.6-1,0.6-1.7l0,0c0-0.6-0.1-1.1-0.4-1.5C7.4,13,7,12.7,6.6,12.5c-0.4-0.2-0.9-0.4-1.5-0.6
				s-1.1-0.4-1.6-0.6c-0.5-0.2-1-0.5-1.5-0.7C1.6,10.2,1.2,9.9,1,9.3C0.7,8.8,0.6,8.2,0.6,7.5l0,0c0-0.7,0.1-1.3,0.3-1.8
				c0.2-0.5,0.5-0.9,0.8-1.3c0.3-0.3,0.7-0.6,1.2-0.8c0.5-0.2,0.9-0.4,1.4-0.4C4.7,3.1,5.2,3.1,5.7,3.1z M5.7,3.5L5.7,3.5
				c-0.5,0-1.1,0.1-1.6,0.2C3.6,3.8,3.1,4,2.6,4.3C2.1,4.6,1.7,5,1.4,5.5C1.1,6.1,1,6.7,1,7.5l0,0c0,0.7,0.1,1.2,0.4,1.7
				C1.6,9.6,2,10,2.5,10.3c0.4,0.3,0.9,0.5,1.5,0.7c0.5,0.2,1.1,0.4,1.6,0.6C6,11.7,6.5,12,7,12.2c0.4,0.3,0.8,0.6,1.1,1.1
				c0.3,0.5,0.4,1,0.4,1.6l0,0c0,0.9-0.3,1.6-0.8,2.1c-0.6,0.5-1.3,0.8-2.4,0.8l0,0c-1,0-1.9-0.4-2.7-1.2c-0.8-0.8-1.4-2-1.7-3.6
				l0,0c-0.1-0.1-0.3-0.1-0.5,0l0,0c0.2,1,0.3,2.1,0.3,3.2l0,0c0,0.3,0,0.7,0,1.3l0,0c1.6,0.7,3.2,1.1,4.6,1.1l0,0
				c1.2,0,2.3-0.4,3.4-1.1s1.5-1.7,1.5-3l0,0c0-0.7-0.1-1.4-0.4-1.9c-0.3-0.5-0.7-0.9-1.1-1.2c-0.5-0.3-1-0.5-1.5-0.7
				C6.5,10.4,6,10.2,5.4,10s-1-0.4-1.5-0.6c-0.5-0.2-0.8-0.6-1.1-1C2.5,8,2.4,7.5,2.4,6.9l0,0c0-0.8,0.3-1.5,0.8-2
				c0.6-0.5,1.4-0.8,2.4-0.8l0,0c1.8,0,3.1,1.3,3.7,3.8l0,0c0.2,0,0.3,0,0.4-0.1l0,0C9.6,6.2,9.1,5.1,8.4,4.4
				C7.7,3.8,6.8,3.5,5.7,3.5z M19.2,17.7L19.2,17.7c-1.5-0.1-2.3-0.5-2.3-0.9l0,0c-0.1-3.6-0.1-8-0.1-13.2l0,0
				c-0.1-0.1-0.2-0.2-0.3-0.3l0,0c-0.9,0.4-1.8,0.7-2.8,0.8l0,0c0,0.2,0,0.3,0,0.5l0,0c0.7,0,1.3,0.2,1.7,0.4l0,0
				c0.1,4.9,0,8.8,0,11.8l0,0c0,0.5-0.6,0.8-1.7,0.9l0,0c-0.1,0.2-0.1,0.3,0,0.5l0,0c1.5-0.1,3.4-0.1,5.6,0l0,0
				C19.2,18,19.2,17.8,19.2,17.7z M19.5,17.3L19.5,17.3c0.1,0.4,0.1,0.8,0,1.2l0,0c-2.5,0-4.6,0-6.3,0l0,0c-0.1-0.4-0.1-0.8,0-1.2
				l0,0c1.1-0.1,1.6-0.3,1.6-0.6l0,0c0.1-3.8,0.1-7.7,0-11.5l0,0c-0.4-0.1-1-0.2-1.6-0.3l0,0c-0.1-0.4-0.1-0.8,0-1.2l0,0
				c1,0,2.1-0.3,3.3-0.9l0,0c0.7,0,1.2,0.3,1.6,0.6l0,0c0,5.8,0,10.2,0.1,13.3l0,0C18.2,17,18.6,17.2,19.5,17.3z M25.7,9.9L25.7,9.9
				c0.7,0,1.2,0.3,1.6,1s0.6,1.6,0.6,3l0,0c0,1.3-0.2,2.3-0.6,3c-0.4,0.6-0.9,1-1.6,1l0,0c-0.4,0-0.7-0.1-1-0.2
				c-0.3-0.2-0.6-0.4-0.8-0.7c-0.2-0.3-0.4-0.7-0.5-1.2c-0.1-0.5-0.2-1.1-0.2-1.7l0,0c0-0.7,0.1-1.3,0.2-1.8
				c0.1-0.5,0.3-0.9,0.5-1.2c0.2-0.3,0.5-0.6,0.8-0.7C25,10,25.3,9.9,25.7,9.9z M25.7,18.4L25.7,18.4c0.6,0,1.1-0.1,1.6-0.3
				c0.5-0.2,0.9-0.5,1.2-0.9c0.3-0.4,0.6-0.9,0.8-1.4c0.2-0.6,0.3-1.2,0.3-1.8l0,0c0-0.7-0.1-1.3-0.3-1.8c-0.2-0.6-0.4-1-0.8-1.4
				c-0.3-0.4-0.8-0.7-1.2-0.9c-0.5-0.2-1-0.3-1.6-0.3l0,0c-0.6,0-1.2,0.1-1.7,0.3s-1,0.5-1.3,0.9c-0.4,0.4-0.6,0.9-0.8,1.4
				c-0.2,0.6-0.3,1.2-0.3,1.8l0,0c0,0.7,0.1,1.3,0.3,1.8c0.2,0.6,0.5,1,0.8,1.4c0.4,0.4,0.8,0.7,1.3,0.9
				C24.5,18.3,25.1,18.4,25.7,18.4z M26,8.9L26,8.9c0.8,0,1.5,0.1,2.1,0.4c0.6,0.2,1.1,0.6,1.6,1c0.4,0.4,0.7,1,1,1.6
				c0.2,0.6,0.3,1.3,0.3,2l0,0c0,0.7-0.1,1.4-0.3,2c-0.2,0.6-0.5,1.1-1,1.6c-0.4,0.4-0.9,0.8-1.6,1c-0.6,0.2-1.3,0.4-2.1,0.4l0,0
				c-0.8,0-1.5-0.1-2.1-0.4c-0.6-0.2-1.1-0.6-1.5-1c-0.4-0.4-0.7-1-1-1.6c-0.2-0.6-0.3-1.3-0.3-2l0,0c0-0.7,0.1-1.4,0.3-2
				c0.2-0.6,0.5-1.1,1-1.6c0.4-0.4,0.9-0.8,1.5-1C24.6,9,25.3,8.9,26,8.9z M24.6,13.8L24.6,13.8c0,2.1,0.5,3.3,1.4,3.5l0,0
				c1-0.2,1.4-1.4,1.4-3.5l0,0c0-2.1-0.5-3.2-1.4-3.5l0,0C25.1,10.6,24.6,11.7,24.6,13.8z M42.5,9.5L42.5,9.5h-4.9
				c-0.1,0.1-0.1,0.3,0,0.5l0,0c0.6,0.1,1,0.4,1.1,0.9l0,0l0.4,1.1l-1.8,3.9h0l-2-5c-0.1-0.3,0-0.5,0.2-0.6c0.2-0.1,0.6-0.2,1.1-0.3
				l0,0c0.1-0.2,0.1-0.3,0-0.5l0,0h-4.7c-0.1,0.1-0.1,0.3,0,0.5l0,0c0.9,0.1,1.4,0.5,1.6,0.9l0,0l3.1,7.5H37l2.5-5.5l2.1,5.5h0.5
				l3.3-7.5c0.2-0.6,0.7-0.9,1.5-0.9l0,0c0.1-0.2,0.1-0.3,0-0.5l0,0h-3.3c-0.1,0.1-0.1,0.3,0,0.5l0,0c0.2,0,0.3,0,0.5,0.1
				c0.1,0,0.2,0.1,0.4,0.1c0.1,0.1,0.2,0.2,0.2,0.3c0,0.1,0,0.3-0.1,0.5l0,0l-2.1,5h0l-1.8-5c0-0.1,0-0.2,0-0.3c0-0.1,0-0.1,0-0.2
				c0.1-0.1,0.1-0.1,0.1-0.1c0,0,0.1-0.1,0.2-0.1c0.1,0,0.2-0.1,0.3-0.1c0.1,0,0.2,0,0.4-0.1c0.2,0,0.3,0,0.4,0c0.1,0,0.3,0,0.5,0
				l0,0C42.6,9.8,42.6,9.6,42.5,9.5z M37.3,9.1L37.3,9.1h5.4c0.2,0.4,0.2,0.8,0,1.2l0,0c-0.2,0-0.3,0-0.3,0c-0.1,0-0.2,0-0.3,0
				s-0.2,0-0.2,0.1s-0.1,0.1-0.1,0.1c-0.1,0-0.1,0.1-0.1,0.2c0,0.1,0,0.1,0,0.2l0,0l1.1,2.9l1.2-2.9c0.1-0.2,0.1-0.4-0.1-0.5
				c-0.1-0.1-0.4-0.2-0.7-0.2l0,0c-0.2-0.4-0.2-0.8,0-1.2l0,0h3.9c0.2,0.4,0.2,0.8,0,1.2l0,0c-0.4,0-0.8,0.1-1,0.2
				c-0.2,0.1-0.3,0.3-0.4,0.5l0,0l-3.4,7.8h-1l-1.9-4.9l-2.2,4.9h-1L33.1,11c-0.1-0.2-0.3-0.4-0.5-0.5c-0.2-0.1-0.6-0.2-1-0.3l0,0
				c-0.2-0.3-0.2-0.7,0-1.2l0,0h5.3c0.2,0.4,0.2,0.8,0,1.2l0,0c-0.4,0-0.5,0.2-0.3,0.7l0,0l1.3,3.1l1-2.1l-0.4-1
				c-0.1-0.4-0.5-0.6-1-0.7l0,0C37.2,9.9,37.2,9.5,37.3,9.1z M64.8,16.8L64.8,16.8c0,0.5-0.8,0.8-2.3,0.9l0,0
				c-0.1,0.1-0.1,0.3,0,0.5l0,0c1.1,0,2.2-0.1,3.4-0.1l0,0c1.4,0,2.7,0,4,0.1l0,0c0.1-0.1,0.1-0.3,0-0.5l0,0
				c-2.2-0.1-3.2-0.4-3.3-0.9l0,0c-0.1-1.6-0.1-3.5-0.1-5.8l0,0c0-2.3,0-4.2,0.1-5.8l0,0c0-0.5,1.1-0.8,3.3-0.9l0,0
				c0.1-0.2,0.1-0.3,0-0.5l0,0c-1.7,0.1-3,0.1-4,0.1l0,0c-0.8,0-1.9,0-3.4-0.1l0,0c0,0.2,0,0.3,0,0.5l0,0c1.5,0.1,2.2,0.5,2.3,0.9
				l0,0c0,1.2,0.1,3,0.1,5.4l0,0c-1.2,0-2.3,0.1-3.4,0.1l0,0c-1.8,0-3.1,0-3.9,0l0,0c0-2.2,0-4,0.1-5.4l0,0c0-0.5,1.1-0.8,3.3-0.9
				l0,0c0-0.1,0-0.3,0-0.5l0,0c-1.7,0.1-3,0.1-4,0.1l0,0c-0.8,0-1.9,0-3.4-0.1l0,0c-0.1,0.1-0.1,0.3,0,0.5l0,0
				c1.5,0.1,2.2,0.5,2.3,0.9l0,0c0.1,1.5,0.1,3.3,0.1,5.5l0,0c0,2.1,0,4.1-0.1,6.1l0,0c0,0.5-0.8,0.8-2.3,0.9l0,0
				c-0.1,0.1-0.1,0.3,0,0.5l0,0c1.1,0,2.2-0.1,3.4-0.1l0,0c1.4,0,2.7,0,4,0.1l0,0c0.1-0.1,0.1-0.3,0-0.5l0,0
				c-2.2-0.1-3.2-0.4-3.3-0.9l0,0c-0.1-2-0.1-3.8-0.1-5.5l0,0c1.6,0,2.9,0,3.9,0l0,0c1.1,0,2.2,0,3.4,0.1l0,0
				C64.9,12.8,64.8,14.6,64.8,16.8z M64.4,16.8L64.4,16.8c0-2.6,0.1-4.2,0.1-4.9l0,0c-1.3,0-2.3,0-3,0l0,0c-0.6,0-1.1,0-1.6,0
				c-0.5,0-0.8,0-0.8,0l0,0c0,1.5,0,3.1,0.1,4.9l0,0c0,0,0,0.1,0,0.1c0,0,0.1,0.1,0.1,0.1c0.1,0,0.1,0.1,0.2,0.1
				c0.1,0,0.2,0.1,0.3,0.1c0.1,0,0.2,0,0.3,0.1c0.1,0,0.2,0,0.3,0.1c0.1,0,0.2,0,0.3,0c0.1,0,0.2,0,0.3,0s0.2,0,0.3,0l0,0
				c0.1,0.4,0.1,0.8-0.1,1.2l0,0c-2.4-0.1-3.9-0.1-4.4-0.1l0,0c-0.3,0-1.6,0-3.7,0.1l0,0c-0.2-0.4-0.2-0.9,0-1.3l0,0
				c1.4-0.1,2.1-0.3,2.1-0.6l0,0c0.1-2,0.1-4.1,0.1-6.1l0,0c0-2.1,0-3.9-0.1-5.4l0,0c0-0.2-0.7-0.4-2.2-0.6l0,0
				c-0.1-0.4-0.1-0.8,0-1.3l0,0c0.6,0,1.3,0,2.3,0c1,0,1.7,0,2,0l0,0c0.3,0,0.8,0,1.6,0c0.8,0,1.5,0,2.1,0l0,0
				c0.1,0.4,0.1,0.8,0,1.2l0,0C60,4.8,59.3,5,59.3,5.2l0,0c-0.1,1.8-0.1,3.5-0.1,5l0,0c0.6,0,1.4,0,2.4,0l0,0l3,0
				c0-2.1-0.1-3.8-0.1-5l0,0c0-0.2-0.7-0.4-2.2-0.6l0,0c-0.1-0.5-0.1-0.9,0-1.3l0,0c0.9,0.1,2.2,0.1,3.8,0.1l0,0c0.3,0,0.9,0,1.9,0
				c0.9,0,1.7,0,2.4,0l0,0c0.1,0.4,0.1,0.8,0,1.2l0,0c-1.4,0.1-2.2,0.3-2.2,0.6l0,0c-0.1,1.6-0.1,3.5-0.1,5.8l0,0
				c0,2.2,0,4.2,0.1,5.8l0,0c0,0.2,0.7,0.4,2.2,0.6l0,0c0.1,0.4,0.1,0.8,0,1.3l0,0c-2.1-0.1-3.3-0.1-3.7-0.1l0,0c-0.5,0-2,0-4.4,0.1
				l0,0c-0.2-0.4-0.2-0.9,0-1.3l0,0C63.7,17.2,64.4,17,64.4,16.8z M74.1,11L74.1,11c0.3,0.1,0.5,0.2,0.7,0.4
				c0.2,0.2,0.3,0.4,0.3,0.7l0,0c0,0.3-0.1,0.6-0.3,0.9c-0.2,0.2-0.5,0.3-0.9,0.3l0,0c-0.4,0-0.7-0.1-1-0.4
				c-0.3-0.3-0.5-0.7-0.5-1.2l0,0c0-0.9,0.4-1.5,1.2-2.1c0.8-0.5,1.9-0.8,3.2-0.8l0,0c1.2,0,2.1,0.2,2.6,0.7
				c0.5,0.5,0.8,1.3,0.8,2.5l0,0v3.4l0.6,0c0.5,0,0.9,0.3,1.1,0.8l0,0l-0.3,0.5c-0.2,0.3-0.4,0.5-0.5,0.7s-0.3,0.4-0.6,0.6
				c-0.2,0.2-0.5,0.4-0.9,0.4c-0.3,0.1-0.7,0.1-1.2,0.1l0,0c-0.5,0-1-0.2-1.2-0.6l0,0c-0.7,0.5-1.6,0.8-2.7,0.8l0,0
				c-0.5,0-0.9-0.1-1.3-0.2c-0.3-0.2-0.6-0.4-0.8-0.6s-0.3-0.5-0.3-0.7C72,17,72,16.8,72,16.6l0,0c0-1,0.3-1.7,1-2.1
				c0.6-0.5,1.9-1,3.9-1.5l0,0v-1.1c0-0.5-0.1-0.9-0.3-1.1c-0.2-0.2-0.5-0.4-0.8-0.4l0,0C74.9,10.4,74.4,10.6,74.1,11z M77.2,13.9
				L77.2,13.9v2c-0.6,0.8-1.3,1.2-1.9,1.2l0,0c-0.4,0-0.7-0.1-0.9-0.3c-0.2-0.2-0.4-0.4-0.4-0.8l0,0c0-0.5,0.2-1,0.7-1.3
				C75.1,14.5,76,14.1,77.2,13.9z M76.8,15.8L76.8,15.8v-1.2c-0.9,0.3-1.4,0.8-1.4,1.5l0,0c0,0.3,0.1,0.5,0.3,0.6l0,0
				C76.1,16.6,76.4,16.3,76.8,15.8z M73.8,12.4L73.8,12.4c-0.2,0-0.4-0.2-0.5-0.5l0,0c-0.1-0.5,0-1,0.5-1.4l0,0
				c0.4-0.4,1.1-0.6,2-0.6l0,0c0.4,0,0.8,0.2,1,0.5c0.3,0.3,0.4,0.8,0.4,1.5l0,0v1.4c-1.9,0.5-3.2,1-3.9,1.4c-0.7,0.4-1,1.1-1,1.9
				l0,0c0,0.4,0.1,0.9,0.4,1.2c0.3,0.4,0.8,0.6,1.6,0.6l0,0c0.3,0,0.6,0,0.9-0.1c0.3-0.1,0.5-0.3,0.8-0.5c0.3-0.2,0.5-0.4,0.5-0.4
				c0.1-0.1,0.2-0.2,0.3-0.3c0.2-0.1,0.2-0.2,0.2-0.2l0,0c0.1,1,0.5,1.4,1.2,1.4l0,0c0.2,0,0.4,0,0.6-0.1c0.2-0.1,0.5-0.3,0.7-0.5
				c0.2-0.3,0.4-0.4,0.4-0.5c0.1-0.1,0.2-0.2,0.3-0.4c0.1-0.2,0.2-0.3,0.3-0.4l0,0c-0.1-0.2-0.2-0.3-0.5-0.3l0,0
				c-0.4,0.5-0.7,0.8-1.1,0.8l0,0c-0.3,0-0.4-0.2-0.4-0.6l0,0v-4c0-1-0.2-1.8-0.6-2.2C77.7,9.5,77,9.3,76,9.3l0,0
				c-0.9,0-1.7,0.2-2.3,0.7c-0.7,0.5-1,1-1,1.8l0,0c0,0.4,0.1,0.7,0.3,0.9c0.2,0.2,0.5,0.3,0.8,0.3l0,0
				C73.9,12.7,73.9,12.6,73.8,12.4z M89.3,17.7L89.3,17.7c-0.1,0.1-0.1,0.3,0,0.5l0,0c1.7,0,3.4,0,5.1,0l0,0c0.1-0.2,0.1-0.3,0-0.5
				l0,0c-1.6-0.1-2.4-0.4-2.4-0.9l0,0l-0.1-4.9c0-0.9-0.2-1.5-0.4-2c-0.3-0.4-0.7-0.6-1.4-0.6l0,0c-1.1,0-2.4,0.7-3.8,2.2l0,0V9.5
				c-0.1-0.1-0.2-0.2-0.3-0.3l0,0c-0.9,0.4-1.8,0.7-2.8,0.8l0,0c0,0.2,0,0.3,0,0.5l0,0c0.7,0,1.3,0.2,1.7,0.4l0,0
				c0.1,1.9,0.1,3.9,0,5.8l0,0c0,0.5-0.6,0.8-1.7,0.9l0,0c-0.1,0.1-0.1,0.3,0,0.5l0,0c1.7-0.1,3.4-0.1,5.1,0l0,0
				c0.1-0.2,0.1-0.3,0-0.5l0,0c-1.2-0.1-1.8-0.4-1.8-0.9l0,0c0-1.4-0.1-2.9-0.1-4.6l0,0c1.3-1.2,2.3-1.7,3.1-1.7l0,0
				c0.7,0,1.1,0.6,1.1,1.8l0,0l0,4.6c0,0.3-0.1,0.5-0.3,0.7C89.9,17.5,89.7,17.6,89.3,17.7z M89,18.5L89,18.5
				c-0.2-0.4-0.2-0.8,0-1.2l0,0c0.2,0,0.4-0.1,0.6-0.2c0.2-0.1,0.3-0.2,0.3-0.4l0,0l0-4.6c0-0.7-0.1-1.1-0.4-1.3l0,0
				c-0.5,0.1-1.1,0.5-1.9,1.1l0,0c0,1.8,0,3.4,0.1,4.8l0,0c0,0.3,0.3,0.5,0.8,0.6l0,0c0.2,0.4,0.2,0.8,0,1.2l0,0
				c-1.9-0.1-3.8-0.1-5.7,0l0,0c-0.2-0.4-0.2-0.8,0-1.2l0,0c1.1-0.1,1.6-0.3,1.6-0.6l0,0c0.1-1.8,0.1-3.7,0-5.5l0,0
				c-0.4-0.1-1-0.2-1.6-0.2l0,0c-0.1-0.4-0.1-0.8,0-1.2l0,0c1,0,2.1-0.3,3.3-0.9l0,0c0.7,0,1.2,0.3,1.6,0.6l0,0v0.3
				c0.9-0.6,2-0.9,3.2-0.9l0,0c0.9,0,1.5,0.2,1.9,0.7c0.4,0.5,0.6,1.2,0.6,2.3l0,0c0,2.6,0.1,4.2,0.1,4.9l0,0c0,0.3,0.5,0.5,1.4,0.6
				l0,0c0.1,0.4,0.1,0.8,0,1.2l0,0C92.8,18.4,90.9,18.4,89,18.5z M100.8,17.1L100.8,17.1c-0.8,0-1.4-0.3-1.8-0.9
				c-0.4-0.6-0.6-1.4-0.6-2.4l0,0c0-0.8,0.1-1.4,0.2-2c0.2-0.6,0.4-1,0.6-1.2c0.3-0.3,0.5-0.4,0.8-0.5c0.2-0.1,0.5-0.2,0.7-0.2l0,0
				c0.9,0,1.6,0.4,2.1,1.2l0,0v1.4c0,1.8,0,3,0,3.6l0,0C102.2,16.8,101.5,17.1,100.8,17.1z M107.2,17.3L107.2,17.3
				c0.2,0.4,0.2,0.8,0,1.2l0,0c-1.7-0.1-3.1-0.1-4.2,0l0,0c-0.2-0.1-0.4-0.2-0.5-0.4l0,0c-0.6,0.4-1.5,0.6-2.6,0.6l0,0
				c-1.1,0-2-0.4-2.7-1.2c-0.7-0.8-1-1.9-1-3.4l0,0c0-0.6,0.1-1.2,0.3-1.8c0.2-0.6,0.5-1.2,0.8-1.7c0.4-0.5,0.9-1,1.6-1.3
				c0.7-0.3,1.4-0.5,2.3-0.5l0,0c0.6,0,1,0,1.3,0l0,0c0-1,0-2.3,0-3.7l0,0c-0.4-0.1-1-0.2-1.8-0.3l0,0c-0.1-0.4-0.1-0.8,0-1.2l0,0
				c0.9-0.1,2.1-0.4,3.5-0.9l0,0c0.7,0,1.2,0.3,1.6,0.6l0,0c0,7.4,0,11.9,0.1,13.3l0,0C105.8,17,106.3,17.2,107.2,17.3z M102.5,12.5
				v-1.3c-0.3-0.5-0.8-0.7-1.3-0.8l0,0c-0.5,0.1-0.8,0.4-1.2,0.9c-0.3,0.5-0.5,1.4-0.5,2.5l0,0c0,0.8,0.1,1.4,0.4,1.9
				c0.3,0.5,0.7,0.8,1.2,1l0,0c0.4-0.1,0.9-0.3,1.3-0.8l0,0C102.5,15.3,102.5,14.1,102.5,12.5L102.5,12.5z M106.8,17.7L106.8,17.7
				c-0.3,0-0.6-0.1-0.8-0.1c-0.2,0-0.4-0.1-0.7-0.1c-0.3-0.1-0.5-0.2-0.7-0.3c-0.2-0.1-0.2-0.3-0.2-0.4l0,0c0-1.4-0.1-5.9-0.1-13.2
				l0,0c-0.1-0.1-0.2-0.2-0.3-0.3l0,0c-0.9,0.4-1.9,0.7-3,0.8l0,0c0,0.2,0,0.3,0,0.5l0,0c0.9,0,1.5,0.2,1.9,0.4l0,0
				c0,1.8,0,3.4,0,4.6l0,0c-0.7-0.2-1.2-0.3-1.7-0.3l0,0c-0.8,0-1.4,0.2-2,0.5c-0.6,0.3-1,0.7-1.4,1.2c-0.3,0.5-0.6,1-0.7,1.6
				c-0.2,0.6-0.2,1.1-0.2,1.7l0,0c0,1.3,0.3,2.3,0.9,3.1c0.6,0.8,1.3,1.1,2.1,1.1l0,0c1,0,2.1-0.5,3.1-1.6l0,0c0,0.5,0,0.9,0,1.1
				l0,0c0.1,0.1,0.2,0.3,0.2,0.3l0,0c0.2,0,0.4,0,0.6,0c0.2,0,0.4,0,0.5,0c0.1,0,0.2,0,0.3,0l0,0c0.4,0,1.1,0,2.3,0.1l0,0
				C106.9,18,106.9,17.9,106.8,17.7z M118.5,10.6L118.5,10.6c0-1.6,0-3.4,0.1-5.5l0,0c0-0.5,1.1-0.8,3.3-0.9l0,0c0-0.1,0-0.3,0-0.5
				l0,0c-1.7,0.1-3,0.1-4,0.1l0,0c-0.8,0-1.9,0-3.4-0.1l0,0c-0.1,0.1-0.1,0.3,0,0.5l0,0c1.5,0.1,2.2,0.5,2.3,0.9l0,0
				c0.1,1.5,0.1,3.3,0.1,5.5l0,0v7c0,1.9-0.1,3.2-0.4,4c-0.3,0.8-0.8,1.1-1.7,1.1l0,0c-0.6,0-1.1-0.2-1.4-0.5
				c-0.3-0.3-0.5-0.7-0.5-1.2l0,0c0-0.3,0.1-0.6,0.3-0.8c0.2-0.2,0.4-0.3,0.6-0.3l0,0c0.2,0,0.4,0.1,0.6,0.2l0,0
				c0.2,0,0.3-0.1,0.3-0.3l0,0c-0.2-0.3-0.6-0.5-1.1-0.5c-0.5,0-0.8,0.1-1.1,0.4s-0.4,0.7-0.4,1.2l0,0c0,0.6,0.2,1.2,0.7,1.6
				c0.5,0.5,1.2,0.7,2,0.7l0,0c0.4,0,0.7,0,1-0.1c0.3-0.1,0.6-0.2,0.8-0.4c0.2-0.2,0.5-0.4,0.6-0.6c0.2-0.2,0.3-0.5,0.5-0.9
				c0.1-0.4,0.3-0.8,0.4-1.1c0.1-0.4,0.2-0.8,0.2-1.4c0.1-0.6,0.1-1.1,0.2-1.6c0-0.5,0.1-1.2,0.1-1.9c0-0.8,0-1.5,0-2.1
				C118.5,12.4,118.5,11.6,118.5,10.6z M115,23.7L115,23.7c-1.1,0-2-0.3-2.5-0.8c-0.6-0.5-0.9-1.2-0.9-1.9l0,0
				c0-0.7,0.2-1.2,0.6-1.6c0.4-0.4,0.9-0.6,1.4-0.6l0,0c0.5,0,0.9,0.2,1.3,0.5c0.4,0.3,0.5,0.8,0.5,1.4l0,0c0,0.3,0,0.5-0.1,0.6
				c-0.1,0.2-0.2,0.3-0.3,0.4c-0.1,0.1-0.1,0.2-0.2,0.2l0,0c0,0.1,0.2,0.2,0.3,0.3l0,0c0.5-0.1,0.9-0.5,1.1-1.2
				c0.2-0.7,0.3-1.9,0.3-3.4l0,0v-7c0-2.1,0-3.9-0.1-5.4l0,0c0-0.2-0.7-0.4-2.2-0.6l0,0c-0.1-0.4-0.1-0.8,0-1.3l0,0
				c1.1,0.1,2.6,0.1,4.4,0.1l0,0c0.3,0,0.8,0,1.6,0c0.8,0,1.5,0,2.1,0l0,0c0.1,0.4,0.1,0.8,0,1.2l0,0c-1.4,0.1-2.2,0.3-2.2,0.6l0,0
				c-0.1,1.6-0.1,3.7-0.1,6.2l0,0c0,1.1,0,2,0,2.8c0,0.8-0.1,1.7-0.2,2.6c-0.1,0.9-0.2,1.7-0.3,2.3c-0.1,0.7-0.3,1.3-0.6,1.9
				c-0.3,0.6-0.6,1.1-0.9,1.5c-0.3,0.4-0.8,0.7-1.3,0.9C116.1,23.6,115.6,23.7,115,23.7z M130.5,15.8L130.5,15.8c0-1.6,0-3.3,0-4.9
				l0,0c0-0.2-0.5-0.4-1.5-0.6l0,0c-0.1-0.4-0.1-0.8,0-1.2l0,0h4.2c0.2,0.1,0.3,0.2,0.4,0.2c0.1,0.1,0.2,0.2,0.2,0.4l0,0
				c0,0.1,0,0.3,0,0.6c0,0.3,0,0.5,0,0.6l0,0c-0.1,2.1-0.1,4,0,5.6l0,0c0.5,0.1,1,0.2,1.5,0.3l0,0c0.1,0.4,0.1,0.8,0,1.2l0,0
				c-0.9,0-1.9,0.3-3.2,0.9l0,0c-0.7-0.1-1.2-0.3-1.6-0.6l0,0v-0.3c-0.9,0.6-1.9,0.9-3.2,0.9l0,0c-0.9,0-1.5-0.2-1.9-0.7
				c-0.4-0.5-0.6-1.2-0.6-2.3l0,0c0-1.6,0-3.3,0-4.9l0,0c0-0.2-0.5-0.4-1.5-0.6l0,0c-0.1-0.4-0.1-0.8,0-1.2l0,0h4.2
				c0.2,0.1,0.3,0.2,0.4,0.2c0.1,0.1,0.2,0.2,0.2,0.4l0,0c0,0.1,0,0.3,0,0.6c0,0.3,0,0.5,0,0.6l0,0c0,1.5,0,3.1,0,4.6l0,0
				c0,0.7,0.2,1.2,0.4,1.3l0,0C129.1,16.7,129.7,16.3,130.5,15.8z M130.9,10.9L130.9,10.9c0,1.7,0,3.4,0,5.1l0,0
				c-1.2,0.9-2.1,1.3-2.8,1.3l0,0c-0.9,0-1.3-0.6-1.3-1.8l0,0c0-1.6,0-3.1,0-4.6l0,0c0-0.2,0-0.4,0-0.6c0-0.2,0.1-0.4,0.1-0.5l0,0
				c-0.1-0.1-0.2-0.2-0.3-0.3l0,0c-1,0.1-1.9,0.1-2.9,0l0,0c0,0.1,0,0.3,0,0.5l0,0c1,0.2,1.5,0.5,1.6,0.9l0,0c0,1.7,0,3.3,0,4.9l0,0
				c0,0.9,0.1,1.5,0.5,2c0.3,0.4,0.8,0.6,1.6,0.6l0,0c1,0,2.2-0.6,3.6-1.8l0,0V18c0,0.1,0.2,0.2,0.3,0.2l0,0
				c0.9-0.3,2.1-0.6,3.6-0.7l0,0c0-0.2,0-0.3,0-0.5l0,0c-1.1,0-1.9-0.2-2.5-0.4l0,0c-0.1-2.3-0.1-4.3,0-5.8l0,0c0-0.2,0-0.4,0-0.6
				c0-0.2,0-0.4,0-0.5l0,0c-0.1-0.1-0.2-0.2-0.3-0.3l0,0c-0.9,0-1.9,0-2.9,0l0,0c0,0.1,0,0.3,0,0.5l0,0
				C130.4,10.1,130.9,10.4,130.9,10.9z M138.5,18.2L138.5,18.2c-0.3,0.1-0.6,0.2-0.9,0.4l0,0c-0.3-0.2-0.5-0.4-0.6-0.6l0,0
				c0,0,0-0.2,0.1-0.4c0-0.2,0.1-0.5,0.1-0.8c0-0.3,0.1-0.6,0.1-0.9c0-0.3,0-0.6,0-0.8l0,0c0.3-0.1,0.8-0.2,1.4-0.2l0,0
				c0.1,0,0.1,0,0.2,0c0.1,0,0.1,0,0.2,0l0,0c0.5,1.5,1.1,2.3,1.9,2.5l0,0c0.3-0.1,0.6-0.2,0.8-0.4c0.2-0.2,0.3-0.4,0.3-0.6l0,0
				c0-0.2,0-0.3-0.1-0.5c-0.1-0.2-0.2-0.3-0.4-0.4c-0.2-0.1-0.4-0.2-0.6-0.4c-0.2-0.1-0.4-0.2-0.7-0.3c-0.2-0.1-0.5-0.2-0.7-0.3
				c-0.2-0.1-0.5-0.2-0.7-0.3l0,0c-0.2-0.1-0.5-0.2-0.7-0.4c-0.2-0.2-0.4-0.3-0.6-0.5c-0.2-0.2-0.3-0.4-0.4-0.7
				c-0.1-0.2-0.1-0.5-0.1-0.8l0,0c0-0.3,0.1-0.6,0.2-1c0.1-0.3,0.3-0.6,0.5-0.9c0.3-0.3,0.6-0.5,1-0.7c0.4-0.2,1-0.3,1.6-0.3l0,0
				c0.7,0,1.3,0,1.6,0.1l0,0l0.4-0.1h0.7c0.1,0.6,0.2,1.1,0.3,1.5c0.1,0.5,0.3,0.9,0.4,1.3l0,0c-0.3,0.3-0.6,0.4-1,0.4l0,0
				c-0.2-0.3-0.4-0.5-0.6-0.7c-0.2-0.2-0.4-0.4-0.5-0.5c-0.2-0.2-0.3-0.3-0.5-0.4c-0.2-0.1-0.3-0.2-0.5-0.2l0,0
				c-0.4,0.1-0.6,0.3-0.6,0.6l0,0c0,0.3,0.1,0.5,0.3,0.7c0.2,0.2,0.5,0.4,0.8,0.5c0.3,0.2,0.7,0.3,1.1,0.4s0.8,0.3,1.1,0.4l0,0
				c0.3,0.1,0.5,0.3,0.7,0.4c0.2,0.2,0.4,0.4,0.6,0.6c0.2,0.2,0.3,0.5,0.4,0.8c0.1,0.3,0.1,0.6,0.1,0.9l0,0c0,0.5-0.1,0.9-0.4,1.3
				c-0.2,0.4-0.6,0.7-1,1s-0.9,0.5-1.4,0.6c-0.5,0.1-1,0.2-1.6,0.2l0,0C139.9,18.8,139.1,18.6,138.5,18.2z M140.8,18.4L140.8,18.4
				c0.8,0,1.5-0.2,2.1-0.7c0.6-0.5,0.9-1,0.9-1.6l0,0c0-0.6-0.2-1.1-0.5-1.5c-0.4-0.4-0.8-0.8-1.3-1c-0.5-0.2-1-0.4-1.5-0.6
				c-0.5-0.2-1-0.4-1.3-0.7c-0.4-0.3-0.5-0.6-0.5-0.9l0,0c0-0.5,0.2-0.8,0.5-1c0.3-0.2,0.7-0.3,1.2-0.3l0,0c0.5,0,0.9,0.1,1.3,0.4
				c0.4,0.3,0.8,0.8,1.4,1.4l0,0c0.2,0,0.3,0,0.4-0.1l0,0c-0.2-0.7-0.6-1.3-1.1-1.7c-0.5-0.4-1.1-0.7-1.8-0.7l0,0
				c-1,0-1.8,0.2-2.3,0.7c-0.5,0.5-0.7,1-0.7,1.7l0,0c0,0.5,0.2,1,0.5,1.3c0.3,0.4,0.8,0.6,1.3,0.8c0.5,0.2,1,0.4,1.5,0.6
				c0.5,0.2,0.9,0.4,1.2,0.8c0.3,0.3,0.5,0.7,0.5,1.1l0,0c0,0.4-0.2,0.7-0.5,1c-0.3,0.3-0.8,0.4-1.3,0.4l0,0c-0.7,0-1.2-0.2-1.6-0.7
				c-0.4-0.4-0.7-1.1-0.9-1.8l0,0c-0.2,0-0.4,0-0.5,0.1l0,0c0,0.5,0,1-0.1,1.6c0,0.6-0.1,1-0.1,1.1l0,0c0,0.1,0.1,0.1,0.2,0.2l0,0
				c0.3-0.2,0.5-0.4,0.6-0.6l0,0c0.6,0.3,1,0.5,1.3,0.6C139.9,18.3,140.3,18.4,140.8,18.4z M149.8,15.6v-5.2h3.8
				c0.1-0.3,0.1-0.5,0-0.7l0,0h-3.8V7.6c-0.2-0.1-0.3-0.1-0.5,0l0,0c-0.2,0.4-0.5,0.8-0.8,1.2c-0.3,0.3-0.5,0.6-0.7,0.7
				c-0.2,0.1-0.5,0.3-0.9,0.5l0,0c0,0.1,0,0.3,0,0.4l0,0h1.2v5.1c0,1.9,0.8,2.9,2.4,2.9l0,0c0.7,0,1.3-0.2,1.9-0.5
				c0.6-0.3,1-0.8,1.3-1.3l0,0c-0.1-0.1-0.2-0.2-0.3-0.2l0,0c-0.6,0.5-1.2,0.8-1.8,0.8l0,0C150.4,17.2,149.8,16.7,149.8,15.6
				L149.8,15.6z M153.2,15.9L153.2,15.9c0.4,0.1,0.7,0.3,0.9,0.7l0,0c-0.3,0.6-0.8,1.1-1.5,1.6c-0.6,0.4-1.3,0.6-2.1,0.6l0,0
				c-1.8,0-2.8-1.1-2.8-3.3l0,0v-4.7h-1.2c-0.1-0.3-0.1-0.7,0-1.1l0,0c0.4-0.2,0.7-0.4,0.9-0.6c0.2-0.1,0.5-0.4,0.8-0.7
				c0.3-0.3,0.6-0.7,0.8-1.2l0,0c0.6-0.3,1.3-0.2,2.1,0l0,0v2h2.8c0.2,0.5,0.2,1,0,1.5l0,0h-2.8v4.8c0,0.6,0.2,1,0.7,1.1l0,0
				C152.3,16.7,152.7,16.4,153.2,15.9z M158.3,4.4L158.3,4.4c1.5,0,2.2,0.5,2.2,1.6l0,0c0,1.1-0.7,1.6-2.2,1.6l0,0
				c-0.2,0-0.4,0-0.6-0.1c-0.2-0.1-0.4-0.2-0.5-0.3c-0.1-0.1-0.3-0.3-0.3-0.5c-0.1-0.2-0.1-0.4-0.1-0.6l0,0c0-0.2,0-0.4,0.1-0.6
				c0.1-0.2,0.2-0.4,0.3-0.5c0.1-0.1,0.3-0.3,0.5-0.3C157.9,4.5,158.1,4.4,158.3,4.4z M157.4,5.2L157.4,5.2
				c-0.2,0.2-0.3,0.5-0.3,0.8l0,0c0,0.2,0,0.3,0.1,0.5c0.1,0.1,0.1,0.3,0.2,0.4c0.1,0.1,0.2,0.2,0.3,0.3c0.1,0.1,0.3,0.1,0.4,0.1
				l0,0c0.1,0,0.3,0,0.4-0.1c0.1-0.1,0.2-0.1,0.3-0.3c0.1-0.1,0.2-0.2,0.2-0.4c0.1-0.1,0.1-0.3,0.1-0.5l0,0c0-0.2,0-0.3-0.1-0.5
				c-0.1-0.1-0.1-0.3-0.2-0.4c-0.1-0.1-0.2-0.2-0.3-0.3c-0.1-0.1-0.3-0.1-0.4-0.1l0,0c-0.1,0-0.3,0-0.4,0.1
				C157.6,5,157.5,5.1,157.4,5.2z M161.3,17.7L161.3,17.7c-1.5-0.1-2.3-0.5-2.3-0.9l0,0c-0.1-1.9-0.1-4.3-0.1-7.2l0,0
				c0-0.1-0.2-0.2-0.3-0.3l0,0c-0.9,0.4-1.8,0.7-2.8,0.8l0,0c0,0.2,0,0.3,0,0.5l0,0c0.7,0,1.3,0.2,1.7,0.4l0,0
				c0.1,2.4,0.1,4.4,0,5.8l0,0c0,0.5-0.6,0.8-1.7,0.9l0,0c-0.1,0.2-0.1,0.3,0,0.5l0,0c1.9,0,3.7,0,5.6,0l0,0
				C161.4,18,161.4,17.8,161.3,17.7z M161.7,17.3L161.7,17.3c0.1,0.4,0.1,0.8,0,1.2l0,0c-2.1-0.1-4.2-0.1-6.3,0l0,0
				c-0.1-0.4-0.1-0.8,0-1.2l0,0c1.1-0.1,1.6-0.3,1.6-0.6l0,0c0.1-1.8,0.1-3.7,0-5.5l0,0c-0.4-0.1-1-0.2-1.6-0.2l0,0
				c-0.1-0.4-0.1-0.8,0-1.2l0,0c1,0,2.1-0.3,3.3-0.9l0,0c0.7,0,1.2,0.3,1.6,0.6l0,0c0,3.2,0,5.6,0.1,7.3l0,0
				C160.4,17,160.8,17.2,161.7,17.3z M170.6,11.3L170.6,11.3c0,0.4-0.2,0.6-0.5,0.7l0,0c-0.1,0.2-0.1,0.3,0,0.5l0,0
				c0.3,0,0.6-0.1,0.8-0.3c0.2-0.2,0.3-0.5,0.3-0.9l0,0c0-0.6-0.3-1.1-0.9-1.5s-1.3-0.6-2.2-0.6l0,0c-1.3,0-2.4,0.4-3.2,1.3
				c-0.9,0.9-1.3,2-1.3,3.4l0,0c0,1.5,0.4,2.6,1.2,3.3c0.8,0.7,1.8,1.1,2.8,1.1l0,0c0.8,0,1.5-0.2,2.2-0.6c0.7-0.4,1.2-1.1,1.5-2
				l0,0c-0.1-0.1-0.2-0.2-0.4-0.2l0,0c-0.2,0.2-0.3,0.4-0.4,0.5c-0.1,0.1-0.3,0.3-0.5,0.5c-0.2,0.2-0.5,0.4-0.8,0.4
				c-0.3,0.1-0.6,0.1-1,0.1l0,0c-1,0-1.8-0.3-2.2-0.9c-0.5-0.6-0.7-1.4-0.7-2.3l0,0c0-2.7,0.9-4.1,2.8-4.1l0,0
				c0.7,0,1.3,0.1,1.8,0.4C170.4,10.5,170.6,10.9,170.6,11.3z M170.9,15.2L170.9,15.2c0.4,0.1,0.8,0.2,1,0.5l0,0
				c-0.4,1-0.9,1.8-1.7,2.3c-0.8,0.5-1.6,0.8-2.5,0.8l0,0c-1.2,0-2.2-0.4-3.1-1.2c-0.9-0.8-1.3-2-1.3-3.6l0,0c0-1.5,0.5-2.8,1.4-3.7
				c0.9-0.9,2.1-1.4,3.5-1.4l0,0c1,0,1.9,0.2,2.5,0.7c0.6,0.5,1,1.1,1,1.8l0,0c0,0.4-0.2,0.8-0.5,1.1c-0.3,0.3-0.7,0.4-1.1,0.4l0,0
				c-0.8,0-1.2-0.4-1.2-1.1l0,0c0-0.5,0.3-0.8,0.8-1l0,0c-0.4-0.3-0.8-0.4-1.2-0.4l0,0c-1.2,0.2-1.8,1.4-1.8,3.7l0,0
				c0,1.7,0.6,2.6,1.9,2.8l0,0C169.5,16.7,170.2,16.1,170.9,15.2z M178.4,9.9L178.4,9.9c0.5,0,0.9,0.2,1.1,0.5
				c0.2,0.3,0.3,0.8,0.3,1.3l0,0c0,0.2,0,0.4-0.1,0.6l0,0H176c0.2-0.8,0.5-1.4,1-1.8C177.4,10.1,177.9,9.9,178.4,9.9z M175.9,12.9
				L175.9,12.9h5.3c0.1-0.3,0.2-0.7,0.2-1l0,0c0-0.8-0.2-1.4-0.6-1.9c-0.4-0.5-1.1-0.8-2.1-0.8l0,0c-1.2,0-2.3,0.4-3.1,1.3
				c-0.8,0.9-1.3,2-1.3,3.4l0,0c0,1.5,0.4,2.6,1.2,3.3c0.8,0.7,1.7,1.1,2.8,1.1l0,0c0.8,0,1.5-0.2,2.2-0.6c0.7-0.4,1.2-1.1,1.5-2
				l0,0c-0.1-0.1-0.2-0.2-0.4-0.2l0,0c0,0-0.1,0.1-0.2,0.3c-0.1,0.2-0.2,0.3-0.3,0.4c-0.1,0.1-0.2,0.2-0.3,0.3
				c-0.2,0.1-0.3,0.2-0.4,0.3c-0.1,0.1-0.3,0.1-0.5,0.2c-0.2,0.1-0.4,0.1-0.7,0.1l0,0c-1,0-1.8-0.3-2.4-0.9
				c-0.6-0.6-0.9-1.4-0.9-2.4l0,0C175.9,13.7,175.9,13.3,175.9,12.9z M181.5,15.1L181.5,15.1c0.4,0.1,0.7,0.3,1,0.6l0,0
				c-0.4,1-0.9,1.8-1.7,2.3c-0.8,0.5-1.6,0.8-2.5,0.8l0,0c-1.2,0-2.2-0.4-3.1-1.2c-0.9-0.8-1.3-2-1.3-3.6l0,0c0-1.5,0.4-2.7,1.3-3.7
				c0.9-1,2.2-1.5,3.8-1.5l0,0c2.5,0,3.7,1,3.7,3.1l0,0c0,0.4-0.1,0.9-0.3,1.4l0,0h-5.2V14c0,0.8,0.2,1.4,0.6,1.9
				c0.4,0.5,0.9,0.8,1.6,0.9l0,0c0.4,0,0.7-0.2,1-0.4C180.8,16.1,181.1,15.7,181.5,15.1z M179.5,11.6L179.5,11.6
				c0-0.7-0.2-1.1-0.7-1.3l0,0c-0.6,0.2-1,0.7-1.3,1.5l0,0h2c0,0,0-0.1,0-0.1C179.5,11.7,179.5,11.7,179.5,11.6z M193.9,10.6
				L193.9,10.6c0-1.6,0-3.4,0.1-5.5l0,0c0-0.5,1.1-0.8,3.3-0.9l0,0c0-0.1,0-0.3,0-0.5l0,0c-1.7,0.1-3,0.1-4,0.1l0,0
				c-0.8,0-1.9,0-3.4-0.1l0,0c0,0.1,0,0.3,0,0.5l0,0c1.5,0.1,2.3,0.5,2.3,0.9l0,0c0.1,1.5,0.1,3.3,0.1,5.5l0,0c0,2.1,0,4.1-0.1,6.1
				l0,0c0,0.5-0.8,0.8-2.3,0.9l0,0c0,0.2,0,0.3,0,0.5l0,0c1.3,0,4.2-0.1,8.7-0.1l0,0c1.6,0,2.7-0.3,3.5-0.9c0.8-0.6,1.5-1.6,2.2-3
				l0,0c-0.1-0.1-0.2-0.2-0.3-0.3l0,0c-0.3,0.5-0.5,0.9-0.8,1.2c-0.3,0.4-0.7,0.7-1.2,1.1c-0.5,0.4-1.1,0.7-1.9,0.9
				c-0.7,0.2-1.6,0.3-2.5,0.3l0,0H194C193.9,15.2,193.9,12.9,193.9,10.6z M195.4,11.3L195.4,11.3c0,1.8,0,3.7,0.1,5.8l0,0h2
				c2.9,0,5-1.2,6.3-3.6l0,0c0.5,0.2,0.9,0.5,1,0.8l0,0c-0.9,1.5-1.5,3-1.6,4.2l0,0h-7.9c-2.6,0-4.5,0-5.7,0.1l0,0
				c-0.1-0.4-0.1-0.8,0-1.2l0,0c1.4-0.1,2.1-0.3,2.2-0.6l0,0c0.1-2,0.1-4.1,0.1-6.1l0,0c0-2.1,0-3.9-0.1-5.4l0,0
				c0-0.2-0.7-0.4-2.2-0.6l0,0c-0.1-0.4-0.1-0.8,0-1.3l0,0c1.1,0.1,2.6,0.1,4.4,0.1l0,0c0.3,0,0.8,0,1.6,0c0.8,0,1.5,0,2.1,0l0,0
				c0.1,0.4,0.1,0.8,0,1.2l0,0c-1.4,0.1-2.2,0.3-2.2,0.6l0,0C195.4,6.8,195.4,8.9,195.4,11.3z M211.1,9.9L211.1,9.9
				c0.7,0,1.2,0.3,1.6,1s0.6,1.6,0.6,3l0,0c0,1.3-0.2,2.3-0.6,3c-0.4,0.6-0.9,1-1.6,1l0,0c-0.4,0-0.7-0.1-1-0.2
				c-0.3-0.2-0.6-0.4-0.8-0.7c-0.2-0.3-0.4-0.7-0.5-1.2c-0.1-0.5-0.2-1.1-0.2-1.7l0,0c0-0.7,0.1-1.3,0.2-1.8
				c0.1-0.5,0.3-0.9,0.5-1.2c0.2-0.3,0.5-0.6,0.8-0.7C210.4,10,210.7,9.9,211.1,9.9z M211.1,18.4L211.1,18.4c0.6,0,1.1-0.1,1.6-0.3
				c0.5-0.2,0.9-0.5,1.2-0.9c0.3-0.4,0.6-0.9,0.8-1.4s0.3-1.2,0.3-1.8l0,0c0-0.7-0.1-1.3-0.3-1.8s-0.4-1-0.8-1.4
				c-0.3-0.4-0.8-0.7-1.2-0.9c-0.5-0.2-1-0.3-1.6-0.3l0,0c-0.6,0-1.2,0.1-1.7,0.3c-0.5,0.2-1,0.5-1.3,0.9c-0.4,0.4-0.6,0.9-0.8,1.4
				c-0.2,0.6-0.3,1.2-0.3,1.8l0,0c0,0.7,0.1,1.3,0.3,1.8c0.2,0.6,0.5,1,0.8,1.4c0.4,0.4,0.8,0.7,1.3,0.9
				C209.9,18.3,210.4,18.4,211.1,18.4z M211.4,8.9L211.4,8.9c0.8,0,1.5,0.1,2.1,0.4c0.6,0.2,1.1,0.6,1.6,1c0.4,0.4,0.7,1,1,1.6
				c0.2,0.6,0.3,1.3,0.3,2l0,0c0,0.7-0.1,1.4-0.3,2c-0.2,0.6-0.5,1.1-1,1.6c-0.4,0.4-0.9,0.8-1.6,1c-0.6,0.2-1.3,0.4-2.1,0.4l0,0
				c-0.8,0-1.5-0.1-2.1-0.4c-0.6-0.2-1.1-0.6-1.6-1c-0.4-0.4-0.7-1-1-1.6c-0.2-0.6-0.3-1.3-0.3-2l0,0c0-0.7,0.1-1.4,0.3-2
				c0.2-0.6,0.5-1.1,1-1.6c0.4-0.4,0.9-0.8,1.6-1C209.9,9,210.6,8.9,211.4,8.9z M210,13.8L210,13.8c0,2.1,0.5,3.3,1.4,3.5l0,0
				c1-0.2,1.4-1.4,1.4-3.5l0,0c0-2.1-0.5-3.2-1.4-3.5l0,0C210.5,10.6,210,11.7,210,13.8z M220.4,12.5L220.4,12.5
				c0-0.9,0.2-1.6,0.5-2c0.3-0.4,0.8-0.6,1.3-0.6l0,0c0.4,0,0.7,0.2,1.1,0.5c0.3,0.4,0.5,1,0.5,1.8l0,0c0,1.9-0.5,2.8-1.5,2.8l0,0
				C221,15.1,220.4,14.2,220.4,12.5z M220.4,20.7L220.4,20.7c0-0.7,0.4-1.3,1.2-1.7l0,0c0.5-0.1,1.3-0.1,2.4-0.1l0,0
				c0.8,0,1.3,0.1,1.6,0.4s0.4,0.7,0.4,1.2l0,0c0,0.5-0.2,1-0.7,1.5c-0.5,0.5-1.3,0.8-2.2,0.8l0,0c-0.9,0-1.5-0.2-2-0.6
				C220.6,21.8,220.4,21.3,220.4,20.7z M226.6,9.7L226.6,9.7c0.2,0,0.3,0.1,0.3,0.3l0,0c0,0.2-0.1,0.3-0.4,0.4l0,0
				c-0.2,0-0.5,0-0.8-0.2l0,0c-0.2-0.1-0.4-0.2-0.7-0.3c-0.3-0.1-0.5-0.2-0.6-0.3c-0.1,0-0.3-0.1-0.5-0.2c-0.2-0.1-0.4-0.1-0.5-0.1
				c-0.1,0-0.3,0-0.5-0.1c-0.2,0-0.4,0-0.7,0l0,0c-1,0-1.8,0.3-2.5,1c-0.7,0.7-1,1.4-1,2.2l0,0c0,1.3,0.6,2.3,1.8,2.9l0,0
				c-1.1,0.8-1.6,1.5-1.6,2.1l0,0c0,0.8,0.6,1.3,1.9,1.5l0,0c-1.3,0.7-1.9,1.5-1.9,2.5l0,0c0,0.6,0.3,1.1,0.9,1.6
				c0.6,0.4,1.4,0.6,2.6,0.6l0,0c1.3,0,2.5-0.4,3.4-1.3c0.9-0.9,1.4-1.8,1.4-2.7l0,0c0-1.5-0.9-2.2-2.7-2.2l0,0c-0.2,0-0.5,0-0.8,0
				c-0.3,0-0.6,0-0.7,0l0,0c-1,0-1.7-0.1-2.1-0.2s-0.6-0.3-0.6-0.6l0,0c0-0.4,0.3-0.7,0.9-0.9l0,0c0.4,0.1,0.8,0.1,1.3,0.1l0,0
				c0.9,0,1.6-0.3,2.2-0.9c0.6-0.6,0.9-1.4,0.9-2.5l0,0c0-0.8-0.2-1.4-0.5-1.9l0,0l0,0c0.1,0.1,0.2,0.2,0.4,0.3
				c0.2,0.1,0.3,0.2,0.4,0.3c0.1,0.1,0.2,0.1,0.4,0.2c0.1,0,0.3,0.1,0.4,0.1l0,0c0.2,0,0.5-0.1,0.6-0.3c0.2-0.2,0.3-0.4,0.3-0.7l0,0
				c0-0.3-0.1-0.5-0.2-0.7c-0.2-0.2-0.4-0.3-0.7-0.3l0,0C226.5,9.4,226.5,9.5,226.6,9.7z M226.8,11.6L226.8,11.6
				c0.1,0.2,0.1,0.5,0.1,0.7l0,0c0,1.2-0.4,2.1-1.1,2.8c-0.7,0.7-1.6,1-2.7,1l0,0h-1.2c-0.2,0.2-0.2,0.4-0.2,0.6
				c0.1,0.2,0.2,0.2,0.5,0.2l0,0h3.3c2.1,0,3.1,0.9,3.1,2.6l0,0c0,0.5-0.1,1-0.4,1.5c-0.3,0.5-0.7,1-1.2,1.4c-0.5,0.4-1.2,0.8-2,1.1
				c-0.8,0.3-1.7,0.4-2.6,0.4l0,0c-1.3,0-2.2-0.2-2.9-0.7c-0.6-0.5-1-1.1-1-1.9l0,0c0-0.8,0.4-1.6,1.3-2.3l0,0
				c-0.8-0.3-1.3-0.8-1.3-1.6l0,0c0-0.7,0.4-1.4,1.3-2.1l0,0c-1-0.7-1.5-1.7-1.5-2.9l0,0c0-0.9,0.4-1.7,1.1-2.5
				c0.8-0.7,1.7-1.1,2.8-1.1l0,0c0.8,0,1.4,0,1.8,0.1s0.9,0.2,1.5,0.5l0,0c0.3-0.4,0.7-0.7,1.1-0.7l0,0c0.5,0,0.8,0.1,1,0.4
				c0.2,0.3,0.3,0.6,0.3,1l0,0c0,0.4-0.1,0.7-0.3,1C227.4,11.4,227.1,11.6,226.8,11.6z M221.7,20.7L221.7,20.7
				c0,0.4,0.1,0.8,0.4,1.1c0.2,0.3,0.6,0.5,1.2,0.6l0,0c0.7-0.1,1.3-0.3,1.7-0.7c0.4-0.4,0.6-0.8,0.6-1.1l0,0c0-0.4-0.1-0.7-0.3-0.9
				c-0.2-0.2-0.5-0.3-1-0.3l0,0c-0.6,0-1.2,0-1.8,0.1l0,0C222,19.7,221.7,20.2,221.7,20.7z M221.8,12.5L221.8,12.5
				c0,1.2,0.3,1.9,0.8,2.1l0,0c0.5-0.2,0.8-1,0.8-2.3l0,0c0-1.1-0.3-1.7-0.8-1.9l0,0C222,10.6,221.8,11.3,221.8,12.5z M231.8,11
				L231.8,11c0.3,0.1,0.5,0.2,0.7,0.4c0.2,0.2,0.3,0.4,0.3,0.7l0,0c0,0.3-0.1,0.6-0.3,0.9c-0.2,0.2-0.5,0.3-0.9,0.3l0,0
				c-0.4,0-0.7-0.1-1-0.4s-0.5-0.7-0.5-1.2l0,0c0-0.9,0.4-1.5,1.2-2.1c0.8-0.5,1.9-0.8,3.2-0.8l0,0c1.2,0,2.1,0.2,2.6,0.7
				c0.5,0.5,0.8,1.3,0.8,2.5l0,0v3.4l0.6,0c0.5,0,0.9,0.3,1.1,0.8l0,0l-0.3,0.5c-0.2,0.3-0.4,0.5-0.5,0.7c-0.1,0.2-0.3,0.4-0.6,0.6
				c-0.2,0.2-0.5,0.4-0.9,0.4c-0.3,0.1-0.7,0.1-1.2,0.1l0,0c-0.5,0-1-0.2-1.2-0.6l0,0c-0.7,0.5-1.6,0.8-2.8,0.8l0,0
				c-0.5,0-0.9-0.1-1.3-0.2c-0.3-0.2-0.6-0.4-0.8-0.6s-0.3-0.5-0.3-0.7c-0.1-0.2-0.1-0.4-0.1-0.7l0,0c0-1,0.3-1.7,1-2.1
				c0.6-0.5,1.9-1,3.9-1.5l0,0v-1.1c0-0.5-0.1-0.9-0.3-1.1c-0.2-0.2-0.5-0.4-0.8-0.4l0,0C232.7,10.4,232.1,10.6,231.8,11z M235,13.9
				L235,13.9v2c-0.6,0.8-1.3,1.2-1.9,1.2l0,0c-0.4,0-0.7-0.1-0.9-0.3c-0.2-0.2-0.4-0.4-0.4-0.8l0,0c0-0.5,0.2-1,0.7-1.3
				C232.9,14.5,233.7,14.1,235,13.9z M234.6,15.8L234.6,15.8v-1.2c-0.9,0.3-1.4,0.8-1.4,1.5l0,0c0,0.3,0.1,0.5,0.3,0.6l0,0
				C233.8,16.6,234.2,16.3,234.6,15.8z M231.6,12.4L231.6,12.4c-0.2,0-0.4-0.2-0.5-0.5l0,0c-0.1-0.5,0-1,0.5-1.4l0,0
				c0.4-0.4,1.1-0.6,2-0.6l0,0c0.4,0,0.8,0.2,1,0.5c0.3,0.3,0.4,0.8,0.4,1.5l0,0v1.4c-1.9,0.5-3.2,1-3.9,1.4c-0.7,0.4-1,1.1-1,1.9
				l0,0c0,0.4,0.1,0.9,0.4,1.2c0.3,0.4,0.8,0.6,1.6,0.6l0,0c0.3,0,0.6,0,0.9-0.1c0.3-0.1,0.5-0.3,0.8-0.5c0.3-0.2,0.5-0.4,0.5-0.4
				c0.1-0.1,0.2-0.2,0.3-0.3s0.2-0.2,0.2-0.2l0,0c0.1,1,0.5,1.4,1.2,1.4l0,0c0.2,0,0.4,0,0.6-0.1s0.5-0.3,0.7-0.5
				c0.2-0.3,0.4-0.4,0.4-0.5c0.1-0.1,0.2-0.2,0.3-0.4c0.1-0.2,0.2-0.3,0.3-0.4l0,0c-0.1-0.2-0.2-0.3-0.5-0.3l0,0
				c-0.4,0.5-0.7,0.8-1.1,0.8l0,0c-0.3,0-0.4-0.2-0.4-0.6l0,0v-4c0-1-0.2-1.8-0.6-2.2c-0.4-0.4-1.1-0.6-2.1-0.6l0,0
				c-0.9,0-1.7,0.2-2.3,0.7c-0.7,0.5-1,1-1,1.8l0,0c0,0.4,0.1,0.7,0.3,0.9c0.2,0.2,0.5,0.3,0.8,0.3l0,0
				C231.7,12.7,231.7,12.6,231.6,12.4z M247.1,17.7L247.1,17.7c-0.1,0.1-0.1,0.3,0,0.5l0,0c1.7,0,3.4,0,5.1,0l0,0
				c0.1-0.2,0.1-0.3,0-0.5l0,0c-1.6-0.1-2.4-0.4-2.4-0.9l0,0l-0.1-4.9c0-0.9-0.2-1.5-0.4-2c-0.3-0.4-0.7-0.6-1.3-0.6l0,0
				c-1.1,0-2.4,0.7-3.9,2.2l0,0V9.5c-0.1-0.1-0.2-0.2-0.3-0.3l0,0c-0.9,0.4-1.8,0.7-2.8,0.8l0,0c0,0.2,0,0.3,0,0.5l0,0
				c0.7,0,1.3,0.2,1.7,0.4l0,0c0.1,1.9,0.1,3.9,0,5.8l0,0c0,0.5-0.6,0.8-1.7,0.9l0,0c-0.1,0.1-0.1,0.3,0,0.5l0,0
				c1.7-0.1,3.4-0.1,5.1,0l0,0c0.1-0.2,0.1-0.3,0-0.5l0,0c-1.2-0.1-1.8-0.4-1.8-0.9l0,0c-0.1-1.4-0.1-2.9-0.1-4.6l0,0
				c1.3-1.2,2.3-1.7,3.1-1.7l0,0c0.7,0,1.1,0.6,1.1,1.8l0,0l0,4.6c0,0.3-0.1,0.5-0.3,0.7C247.6,17.5,247.4,17.6,247.1,17.7z
				 M246.8,18.5L246.8,18.5c-0.2-0.4-0.2-0.8,0-1.2l0,0c0.2,0,0.4-0.1,0.6-0.2c0.2-0.1,0.3-0.2,0.3-0.4l0,0l0-4.6
				c0-0.7-0.1-1.1-0.4-1.3l0,0c-0.5,0.1-1.1,0.5-1.9,1.1l0,0c0,1.8,0,3.4,0.1,4.8l0,0c0,0.3,0.3,0.5,0.8,0.6l0,0
				c0.2,0.4,0.2,0.8,0,1.2l0,0c-1.9-0.1-3.8-0.1-5.7,0l0,0c-0.2-0.4-0.2-0.8,0-1.2l0,0c1.1-0.1,1.6-0.3,1.6-0.6l0,0
				c0.1-1.8,0.1-3.7,0-5.5l0,0c-0.4-0.1-1-0.2-1.6-0.2l0,0c-0.1-0.4-0.1-0.8,0-1.2l0,0c1,0,2.1-0.3,3.3-0.9l0,0
				c0.7,0,1.2,0.3,1.6,0.6l0,0v0.3c0.9-0.6,2-0.9,3.2-0.9l0,0c0.9,0,1.5,0.2,1.9,0.7c0.4,0.5,0.6,1.2,0.6,2.3l0,0
				c0,2.6,0.1,4.2,0.1,4.9l0,0c0,0.3,0.5,0.5,1.4,0.6l0,0c0.1,0.4,0.1,0.8,0,1.2l0,0C250.6,18.4,248.7,18.4,246.8,18.5z M270.3,16.8
				L270.3,16.8c0,0.5-0.8,0.8-2.3,0.9l0,0c-0.1,0.1-0.1,0.3,0,0.5l0,0c1.1,0,2.2-0.1,3.4-0.1l0,0c1.4,0,2.7,0,4,0.1l0,0
				c0.1-0.1,0.1-0.3,0-0.5l0,0c-2.2-0.1-3.2-0.4-3.3-0.9l0,0c-0.1-1.6-0.1-3.5-0.1-5.8l0,0c0-2.3,0-4.2,0.1-5.8l0,0
				c0-0.5,1.1-0.8,3.3-0.9l0,0c0.1-0.2,0.1-0.3,0-0.5l0,0c-1.7,0.1-3,0.1-4,0.1l0,0c-0.8,0-1.9,0-3.4-0.1l0,0c0,0.2,0,0.3,0,0.5l0,0
				c1.5,0.1,2.2,0.5,2.3,0.9l0,0c0,1.2,0.1,3,0.1,5.4l0,0c-1.2,0-2.3,0.1-3.4,0.1l0,0c-1.8,0-3.1,0-3.9,0l0,0c0-2.2,0-4,0.1-5.4l0,0
				c0-0.5,1.1-0.8,3.3-0.9l0,0c0-0.1,0-0.3,0-0.5l0,0c-1.7,0.1-3,0.1-4,0.1l0,0c-0.8,0-1.9,0-3.4-0.1l0,0c-0.1,0.1-0.1,0.3,0,0.5
				l0,0c1.5,0.1,2.2,0.5,2.3,0.9l0,0c0.1,1.5,0.1,3.3,0.1,5.5l0,0c0,2.1,0,4.1-0.1,6.1l0,0c0,0.5-0.8,0.8-2.3,0.9l0,0
				c-0.1,0.1-0.1,0.3,0,0.5l0,0c1.1,0,2.2-0.1,3.4-0.1l0,0c1.4,0,2.7,0,4,0.1l0,0c0.1-0.1,0.1-0.3,0-0.5l0,0
				c-2.2-0.1-3.2-0.4-3.3-0.9l0,0c-0.1-2-0.1-3.8-0.1-5.5l0,0c1.6,0,2.9,0,3.9,0l0,0c1.1,0,2.2,0,3.4,0.1l0,0
				C270.4,12.8,270.3,14.6,270.3,16.8z M269.9,16.8L269.9,16.8c0-2.6,0.1-4.2,0.1-4.9l0,0c-1.3,0-2.3,0-3,0l0,0c-0.6,0-1.1,0-1.6,0
				c-0.5,0-0.8,0-0.8,0l0,0c0,1.5,0,3.1,0.1,4.9l0,0c0,0,0,0.1,0,0.1c0,0,0.1,0.1,0.1,0.1c0.1,0,0.1,0.1,0.2,0.1
				c0.1,0,0.2,0.1,0.3,0.1c0.1,0,0.2,0,0.3,0.1c0.1,0,0.2,0,0.3,0.1s0.2,0,0.3,0c0.1,0,0.2,0,0.3,0s0.2,0,0.3,0l0,0
				c0.1,0.4,0.1,0.8-0.1,1.2l0,0c-2.4-0.1-3.9-0.1-4.4-0.1l0,0c-0.3,0-1.6,0-3.7,0.1l0,0c-0.2-0.4-0.2-0.9,0-1.3l0,0
				c1.4-0.1,2.1-0.3,2.1-0.6l0,0c0.1-2,0.1-4.1,0.1-6.1l0,0c0-2.1,0-3.9-0.1-5.4l0,0c0-0.2-0.7-0.4-2.2-0.6l0,0
				c-0.1-0.4-0.1-0.8,0-1.3l0,0c0.6,0,1.3,0,2.3,0c1,0,1.7,0,2,0l0,0c0.3,0,0.8,0,1.6,0c0.8,0,1.5,0,2.1,0l0,0
				c0.1,0.4,0.1,0.8,0,1.2l0,0c-1.4,0.1-2.2,0.3-2.2,0.6l0,0c-0.1,1.8-0.1,3.5-0.1,5l0,0c0.6,0,1.4,0,2.4,0l0,0l3,0
				c0-2.1-0.1-3.8-0.1-5l0,0c0-0.2-0.7-0.4-2.2-0.6l0,0c-0.1-0.5-0.1-0.9,0-1.3l0,0c0.9,0.1,2.2,0.1,3.8,0.1l0,0c0.3,0,0.9,0,1.9,0
				c0.9,0,1.7,0,2.4,0l0,0c0.1,0.4,0.1,0.8,0,1.2l0,0c-1.4,0.1-2.2,0.3-2.2,0.6l0,0c-0.1,1.6-0.1,3.5-0.1,5.8l0,0
				c0,2.2,0,4.2,0.1,5.8l0,0c0,0.2,0.7,0.4,2.2,0.6l0,0c0.1,0.4,0.1,0.8,0,1.3l0,0c-2.1-0.1-3.3-0.1-3.7-0.1l0,0c-0.5,0-2,0-4.4,0.1
				l0,0c-0.2-0.4-0.2-0.9,0-1.3l0,0C269.2,17.2,269.9,17,269.9,16.8z M281.9,9.9L281.9,9.9c0.7,0,1.2,0.3,1.6,1
				c0.4,0.6,0.6,1.6,0.6,3l0,0c0,1.3-0.2,2.3-0.6,3c-0.4,0.6-0.9,1-1.6,1l0,0c-0.4,0-0.7-0.1-1-0.2c-0.3-0.2-0.6-0.4-0.8-0.7
				c-0.2-0.3-0.4-0.7-0.5-1.2c-0.1-0.5-0.2-1.1-0.2-1.7l0,0c0-0.7,0.1-1.3,0.2-1.8c0.1-0.5,0.3-0.9,0.5-1.2c0.2-0.3,0.5-0.6,0.8-0.7
				C281.2,10,281.6,9.9,281.9,9.9z M281.9,18.4L281.9,18.4c0.6,0,1.1-0.1,1.6-0.3c0.5-0.2,0.9-0.5,1.2-0.9c0.3-0.4,0.6-0.9,0.8-1.4
				c0.2-0.6,0.3-1.2,0.3-1.8l0,0c0-0.7-0.1-1.3-0.3-1.8c-0.2-0.6-0.4-1-0.8-1.4c-0.3-0.4-0.8-0.7-1.2-0.9c-0.5-0.2-1-0.3-1.6-0.3
				l0,0c-0.6,0-1.2,0.1-1.7,0.3c-0.5,0.2-1,0.5-1.3,0.9c-0.4,0.4-0.6,0.9-0.8,1.4c-0.2,0.6-0.3,1.2-0.3,1.8l0,0
				c0,0.7,0.1,1.3,0.3,1.8c0.2,0.6,0.5,1,0.8,1.4c0.4,0.4,0.8,0.7,1.3,0.9C280.7,18.3,281.3,18.4,281.9,18.4z M282.3,8.9L282.3,8.9
				c0.8,0,1.5,0.1,2.1,0.4c0.6,0.2,1.1,0.6,1.6,1c0.4,0.4,0.7,1,1,1.6c0.2,0.6,0.3,1.3,0.3,2l0,0c0,0.7-0.1,1.4-0.3,2
				c-0.2,0.6-0.5,1.1-1,1.6c-0.4,0.4-0.9,0.8-1.6,1c-0.6,0.2-1.3,0.4-2.1,0.4l0,0c-0.8,0-1.5-0.1-2.1-0.4c-0.6-0.2-1.1-0.6-1.5-1
				c-0.4-0.4-0.7-1-1-1.6c-0.2-0.6-0.3-1.3-0.3-2l0,0c0-0.7,0.1-1.4,0.3-2c0.2-0.6,0.5-1.1,1-1.6c0.4-0.4,0.9-0.8,1.5-1
				C280.8,9,281.5,8.9,282.3,8.9z M280.9,13.8L280.9,13.8c0,2.1,0.5,3.3,1.4,3.5l0,0c1-0.2,1.4-1.4,1.4-3.5l0,0
				c0-2.1-0.5-3.2-1.4-3.5l0,0C281.3,10.6,280.9,11.7,280.9,13.8z M294.7,17.7L294.7,17.7c-1.5-0.1-2.3-0.5-2.3-0.9l0,0
				c-0.1-3.6-0.1-8-0.1-13.2l0,0c-0.1-0.1-0.2-0.2-0.3-0.3l0,0c-0.9,0.4-1.8,0.7-2.8,0.8l0,0c0,0.2,0,0.3,0,0.5l0,0
				c0.7,0,1.3,0.2,1.7,0.4l0,0c0.1,4.9,0,8.8,0,11.8l0,0c0,0.5-0.6,0.8-1.7,0.9l0,0c-0.1,0.2-0.1,0.3,0,0.5l0,0
				c1.5-0.1,3.4-0.1,5.6,0l0,0C294.8,18,294.8,17.8,294.7,17.7z M295.1,17.3L295.1,17.3c0.1,0.4,0.1,0.8,0,1.2l0,0
				c-2.5,0-4.6,0-6.3,0l0,0c-0.1-0.4-0.1-0.8,0-1.2l0,0c1.1-0.1,1.6-0.3,1.6-0.6l0,0c0.1-3.8,0.1-7.7,0-11.5l0,0
				c-0.4-0.1-1-0.2-1.6-0.3l0,0c-0.1-0.4-0.1-0.8,0-1.2l0,0c1,0,2.1-0.3,3.3-0.9l0,0c0.7,0,1.2,0.3,1.6,0.6l0,0
				c0,5.8,0,10.2,0.1,13.3l0,0C293.8,17,294.2,17.2,295.1,17.3z M302.2,17.7L302.2,17.7c-1.5-0.1-2.3-0.5-2.3-0.9l0,0
				c-0.1-3.6-0.1-8-0.1-13.2l0,0c-0.1-0.1-0.2-0.2-0.3-0.3l0,0c-0.9,0.4-1.8,0.7-2.8,0.8l0,0c0,0.2,0,0.3,0,0.5l0,0
				c0.7,0,1.3,0.2,1.7,0.4l0,0c0.1,4.9,0,8.8,0,11.8l0,0c0,0.5-0.6,0.8-1.7,0.9l0,0c-0.1,0.2-0.1,0.3,0,0.5l0,0
				c1.5-0.1,3.4-0.1,5.6,0l0,0C302.3,18,302.3,17.8,302.2,17.7z M302.6,17.3L302.6,17.3c0.1,0.4,0.1,0.8,0,1.2l0,0
				c-2.5,0-4.6,0-6.3,0l0,0c-0.1-0.4-0.1-0.8,0-1.2l0,0c1.1-0.1,1.6-0.3,1.6-0.6l0,0c0.1-3.8,0.1-7.7,0-11.5l0,0
				c-0.4-0.1-1-0.2-1.6-0.3l0,0c-0.1-0.4-0.1-0.8,0-1.2l0,0c1,0,2.1-0.3,3.3-0.9l0,0c0.7,0,1.2,0.3,1.6,0.6l0,0
				c0,5.8,0,10.2,0.1,13.3l0,0C301.3,17,301.7,17.2,302.6,17.3z M306.4,11L306.4,11c0.3,0.1,0.5,0.2,0.7,0.4
				c0.2,0.2,0.3,0.4,0.3,0.7l0,0c0,0.3-0.1,0.6-0.3,0.9c-0.2,0.2-0.5,0.3-0.9,0.3l0,0c-0.4,0-0.7-0.1-1-0.4
				c-0.3-0.3-0.5-0.7-0.5-1.2l0,0c0-0.9,0.4-1.5,1.2-2.1c0.8-0.5,1.9-0.8,3.2-0.8l0,0c1.2,0,2.1,0.2,2.6,0.7
				c0.5,0.5,0.8,1.3,0.8,2.5l0,0v3.4l0.6,0c0.5,0,0.9,0.3,1.1,0.8l0,0l-0.3,0.5c-0.2,0.3-0.4,0.5-0.5,0.7c-0.1,0.2-0.3,0.4-0.6,0.6
				c-0.2,0.2-0.5,0.4-0.9,0.4c-0.3,0.1-0.7,0.1-1.2,0.1l0,0c-0.5,0-1-0.2-1.2-0.6l0,0c-0.7,0.5-1.6,0.8-2.8,0.8l0,0
				c-0.5,0-0.9-0.1-1.3-0.2c-0.3-0.2-0.6-0.4-0.8-0.6c-0.2-0.3-0.3-0.5-0.3-0.7c-0.1-0.2-0.1-0.4-0.1-0.7l0,0c0-1,0.3-1.7,1-2.1
				c0.6-0.5,1.9-1,3.9-1.5l0,0v-1.1c0-0.5-0.1-0.9-0.3-1.1c-0.2-0.2-0.5-0.4-0.8-0.4l0,0C307.2,10.4,306.7,10.6,306.4,11z
				 M309.5,13.9L309.5,13.9v2c-0.6,0.8-1.3,1.2-1.9,1.2l0,0c-0.4,0-0.7-0.1-0.9-0.3c-0.2-0.2-0.4-0.4-0.4-0.8l0,0
				c0-0.5,0.2-1,0.7-1.3C307.4,14.5,308.3,14.1,309.5,13.9z M309.1,15.8L309.1,15.8v-1.2c-0.9,0.3-1.4,0.8-1.4,1.5l0,0
				c0,0.3,0.1,0.5,0.3,0.6l0,0C308.4,16.6,308.7,16.3,309.1,15.8z M306.1,12.4L306.1,12.4c-0.2,0-0.4-0.2-0.5-0.5l0,0
				c-0.1-0.5,0-1,0.5-1.4l0,0c0.4-0.4,1.1-0.6,2-0.6l0,0c0.4,0,0.8,0.2,1,0.5c0.3,0.3,0.4,0.8,0.4,1.5l0,0v1.4
				c-1.9,0.5-3.2,1-3.9,1.4c-0.7,0.4-1,1.1-1,1.9l0,0c0,0.4,0.1,0.9,0.4,1.2c0.3,0.4,0.8,0.6,1.6,0.6l0,0c0.3,0,0.6,0,0.9-0.1
				c0.3-0.1,0.5-0.3,0.8-0.5c0.3-0.2,0.5-0.4,0.5-0.4c0.1-0.1,0.2-0.2,0.3-0.3s0.2-0.2,0.2-0.2l0,0c0.1,1,0.5,1.4,1.2,1.4l0,0
				c0.2,0,0.4,0,0.6-0.1c0.2-0.1,0.5-0.3,0.7-0.5c0.2-0.3,0.4-0.4,0.4-0.5s0.2-0.2,0.3-0.4c0.1-0.2,0.2-0.3,0.3-0.4l0,0
				c-0.1-0.2-0.2-0.3-0.5-0.3l0,0c-0.4,0.5-0.7,0.8-1.1,0.8l0,0c-0.3,0-0.4-0.2-0.4-0.6l0,0v-4c0-1-0.2-1.8-0.6-2.2
				c-0.4-0.4-1.1-0.6-2.1-0.6l0,0c-0.9,0-1.7,0.2-2.3,0.7c-0.7,0.5-1,1-1,1.8l0,0c0,0.4,0.1,0.7,0.3,0.9c0.2,0.2,0.5,0.3,0.8,0.3
				l0,0C306.2,12.7,306.2,12.6,306.1,12.4z M321.6,17.7L321.6,17.7c-0.1,0.1-0.1,0.3,0,0.5l0,0c1.7,0,3.4,0,5.1,0l0,0
				c0.1-0.2,0.1-0.3,0-0.5l0,0c-1.6-0.1-2.4-0.4-2.4-0.9l0,0l-0.1-4.9c0-0.9-0.2-1.5-0.4-2c-0.3-0.4-0.7-0.6-1.3-0.6l0,0
				c-1.1,0-2.4,0.7-3.9,2.2l0,0V9.5c0-0.1-0.2-0.2-0.3-0.3l0,0c-0.9,0.4-1.8,0.7-2.8,0.8l0,0c0,0.2,0,0.3,0,0.5l0,0
				c0.7,0,1.3,0.2,1.7,0.4l0,0c0.1,1.9,0.1,3.9,0,5.8l0,0c0,0.5-0.6,0.8-1.7,0.9l0,0c-0.1,0.1-0.1,0.3,0,0.5l0,0
				c1.7-0.1,3.4-0.1,5.1,0l0,0c0.1-0.2,0.1-0.3,0-0.5l0,0c-1.2-0.1-1.8-0.4-1.8-0.9l0,0c-0.1-1.4-0.1-2.9-0.1-4.6l0,0
				c1.3-1.2,2.3-1.7,3.1-1.7l0,0c0.7,0,1.1,0.6,1.1,1.8l0,0l0,4.6c0,0.3-0.1,0.5-0.3,0.7C322.2,17.5,322,17.6,321.6,17.7z
				 M321.3,18.5L321.3,18.5c-0.2-0.4-0.2-0.8,0-1.2l0,0c0.2,0,0.4-0.1,0.6-0.2c0.2-0.1,0.3-0.2,0.3-0.4l0,0l0-4.6
				c0-0.7-0.1-1.1-0.4-1.3l0,0c-0.5,0.1-1.1,0.5-1.9,1.1l0,0c0,1.8,0,3.4,0.1,4.8l0,0c0,0.3,0.3,0.5,0.8,0.6l0,0
				c0.2,0.4,0.2,0.8,0,1.2l0,0c-1.9-0.1-3.8-0.1-5.7,0l0,0c-0.2-0.4-0.2-0.8,0-1.2l0,0c1.1-0.1,1.6-0.3,1.6-0.6l0,0
				c0.1-1.8,0.1-3.7,0-5.5l0,0c-0.4-0.1-1-0.2-1.6-0.2l0,0c-0.1-0.4-0.1-0.8,0-1.2l0,0c1,0,2.1-0.3,3.3-0.9l0,0
				c0.7,0,1.2,0.3,1.6,0.6l0,0v0.3c0.9-0.6,2-0.9,3.2-0.9l0,0c0.9,0,1.5,0.2,1.9,0.7c0.4,0.5,0.6,1.2,0.6,2.3l0,0
				c0,2.6,0.1,4.2,0.1,4.9l0,0c0,0.3,0.5,0.5,1.4,0.6l0,0c0.1,0.4,0.1,0.8,0,1.2l0,0C325.1,18.4,323.2,18.4,321.3,18.5z M333.1,17.1
				L333.1,17.1c-0.8,0-1.4-0.3-1.8-0.9c-0.4-0.6-0.6-1.4-0.6-2.4l0,0c0-0.8,0.1-1.4,0.2-2c0.2-0.6,0.4-1,0.6-1.2
				c0.3-0.3,0.5-0.4,0.8-0.5c0.2-0.1,0.5-0.2,0.7-0.2l0,0c0.9,0,1.6,0.4,2.1,1.2l0,0v1.4c0,1.8,0,3,0,3.6l0,0
				C334.5,16.8,333.8,17.1,333.1,17.1z M339.5,17.3L339.5,17.3c0.2,0.4,0.2,0.8,0,1.2l0,0c-1.7-0.1-3.1-0.1-4.2,0l0,0
				c-0.2-0.1-0.4-0.2-0.5-0.4l0,0c-0.6,0.4-1.5,0.6-2.6,0.6l0,0c-1.1,0-2-0.4-2.7-1.2c-0.7-0.8-1-1.9-1-3.4l0,0
				c0-0.6,0.1-1.2,0.3-1.8c0.2-0.6,0.5-1.2,0.8-1.7c0.4-0.5,0.9-1,1.6-1.3c0.7-0.3,1.4-0.5,2.3-0.5l0,0c0.6,0,1,0,1.3,0l0,0
				c0-1,0-2.3,0-3.7l0,0c-0.4-0.1-1-0.2-1.8-0.3l0,0c-0.1-0.4-0.1-0.8,0-1.2l0,0c0.9-0.1,2.1-0.4,3.5-0.9l0,0c0.7,0,1.2,0.3,1.6,0.6
				l0,0c0,7.4,0,11.9,0.1,13.3l0,0C338.1,17,338.6,17.2,339.5,17.3z M334.8,12.5v-1.3c-0.3-0.5-0.7-0.7-1.3-0.8l0,0
				c-0.5,0.1-0.8,0.4-1.2,0.9c-0.3,0.5-0.5,1.4-0.5,2.5l0,0c0,0.8,0.1,1.4,0.4,1.9c0.3,0.5,0.7,0.8,1.2,1l0,0
				c0.4-0.1,0.9-0.3,1.3-0.8l0,0C334.8,15.3,334.8,14.1,334.8,12.5L334.8,12.5z M339.1,17.7L339.1,17.7c-0.3,0-0.6-0.1-0.8-0.1
				c-0.2,0-0.4-0.1-0.7-0.1c-0.3-0.1-0.5-0.2-0.7-0.3c-0.2-0.1-0.2-0.3-0.2-0.4l0,0c0-1.4-0.1-5.9-0.1-13.2l0,0
				c-0.1-0.1-0.2-0.2-0.3-0.3l0,0c-0.9,0.4-1.9,0.7-3,0.8l0,0c0,0.2,0,0.3,0,0.5l0,0c0.9,0,1.5,0.2,1.9,0.4l0,0c0,1.8,0,3.4,0,4.6
				l0,0c-0.7-0.2-1.2-0.3-1.7-0.3l0,0c-0.8,0-1.4,0.2-2,0.5c-0.6,0.3-1,0.7-1.4,1.2c-0.3,0.5-0.6,1-0.7,1.6
				c-0.2,0.6-0.2,1.1-0.2,1.7l0,0c0,1.3,0.3,2.3,0.9,3.1c0.6,0.8,1.3,1.1,2.1,1.1l0,0c1,0,2.1-0.5,3.1-1.6l0,0c0,0.5,0,0.9,0,1.1
				l0,0c0.1,0.1,0.2,0.3,0.2,0.3l0,0c0.2,0,0.4,0,0.6,0c0.2,0,0.4,0,0.5,0s0.2,0,0.3,0l0,0c0.4,0,1.1,0,2.3,0.1l0,0
				C339.2,18,339.2,17.9,339.1,17.7z M348.2,0.4h-1.1v22.4h1.1V0.4z M349.3,23.2h-2.6V0h2.6V23.2z M360.9,10.6L360.9,10.6
				c0-1.6,0-3.4,0.1-5.5l0,0c0-0.5,1.1-0.8,3.3-0.9l0,0c0-0.1,0-0.3,0-0.5l0,0c-1.7,0.1-3,0.1-4,0.1l0,0c-0.8,0-1.9,0-3.4-0.1l0,0
				c0,0.1,0,0.3,0,0.5l0,0c1.5,0.1,2.3,0.5,2.3,0.9l0,0c0.1,1.5,0.1,3.3,0.1,5.5l0,0c0,2.1,0,4.1-0.1,6.1l0,0c0,0.5-0.8,0.8-2.3,0.9
				l0,0c0,0.2,0,0.3,0,0.5l0,0c1.3,0,4.2-0.1,8.7-0.1l0,0c1.6,0,2.7-0.3,3.5-0.9c0.8-0.6,1.5-1.6,2.2-3l0,0
				c-0.1-0.1-0.2-0.2-0.3-0.3l0,0c-0.3,0.5-0.5,0.9-0.8,1.2c-0.3,0.4-0.7,0.7-1.2,1.1c-0.5,0.4-1.1,0.7-1.9,0.9
				c-0.7,0.2-1.6,0.3-2.5,0.3l0,0H361C360.9,15.2,360.9,12.9,360.9,10.6z M362.4,11.3L362.4,11.3c0,1.8,0,3.7,0.1,5.8l0,0h2
				c2.9,0,5-1.2,6.3-3.6l0,0c0.5,0.2,0.9,0.5,1,0.8l0,0c-0.9,1.5-1.5,3-1.6,4.2l0,0h-7.9c-2.6,0-4.5,0-5.7,0.1l0,0
				c-0.1-0.4-0.1-0.8,0-1.2l0,0c1.4-0.1,2.1-0.3,2.2-0.6l0,0c0.1-2,0.1-4.1,0.1-6.1l0,0c0-2.1,0-3.9-0.1-5.4l0,0
				c0-0.2-0.7-0.4-2.2-0.6l0,0c-0.1-0.4-0.1-0.8,0-1.3l0,0c1.1,0.1,2.6,0.1,4.4,0.1l0,0c0.3,0,0.8,0,1.6,0c0.8,0,1.5,0,2.1,0l0,0
				c0.1,0.4,0.1,0.8,0,1.2l0,0c-1.4,0.1-2.2,0.3-2.2,0.6l0,0C362.4,6.8,362.4,8.9,362.4,11.3z M378,9.9L378,9.9
				c0.5,0,0.9,0.2,1.1,0.5c0.2,0.3,0.4,0.8,0.4,1.3l0,0c0,0.2,0,0.4-0.1,0.6l0,0h-3.8c0.2-0.8,0.5-1.4,1-1.8
				C377,10.1,377.5,9.9,378,9.9z M375.5,12.9L375.5,12.9h5.3c0.1-0.3,0.2-0.7,0.2-1l0,0c0-0.8-0.2-1.4-0.6-1.9
				c-0.4-0.5-1.1-0.8-2.1-0.8l0,0c-1.2,0-2.3,0.4-3.1,1.3c-0.8,0.9-1.3,2-1.3,3.4l0,0c0,1.5,0.4,2.6,1.2,3.3
				c0.8,0.7,1.7,1.1,2.8,1.1l0,0c0.8,0,1.5-0.2,2.2-0.6c0.7-0.4,1.2-1.1,1.5-2l0,0c-0.1-0.1-0.2-0.2-0.4-0.2l0,0
				c0,0-0.1,0.1-0.2,0.3c-0.1,0.2-0.2,0.3-0.3,0.4c-0.1,0.1-0.2,0.2-0.3,0.3c-0.2,0.1-0.3,0.2-0.4,0.3c-0.1,0.1-0.3,0.1-0.5,0.2
				c-0.2,0.1-0.5,0.1-0.7,0.1l0,0c-1,0-1.8-0.3-2.4-0.9c-0.6-0.6-0.9-1.4-0.9-2.4l0,0C375.4,13.7,375.4,13.3,375.5,12.9z
				 M381.1,15.1L381.1,15.1c0.4,0.1,0.7,0.3,1,0.6l0,0c-0.4,1-0.9,1.8-1.7,2.3c-0.8,0.5-1.6,0.8-2.5,0.8l0,0c-1.2,0-2.2-0.4-3.1-1.2
				c-0.9-0.8-1.3-2-1.3-3.6l0,0c0-1.5,0.4-2.7,1.3-3.7c0.9-1,2.2-1.5,3.8-1.5l0,0c2.5,0,3.7,1,3.7,3.1l0,0c0,0.4-0.1,0.9-0.3,1.4
				l0,0h-5.2V14c0,0.8,0.2,1.4,0.6,1.9c0.4,0.5,0.9,0.8,1.6,0.9l0,0c0.4,0,0.7-0.2,1-0.4C380.4,16.1,380.7,15.7,381.1,15.1z
				 M379.1,11.6L379.1,11.6c0-0.7-0.2-1.1-0.7-1.3l0,0c-0.6,0.2-1,0.7-1.3,1.5l0,0h2c0,0,0-0.1,0-0.1
				C379.1,11.7,379.1,11.7,379.1,11.6z M386.5,11L386.5,11c0.3,0.1,0.5,0.2,0.7,0.4c0.2,0.2,0.3,0.4,0.3,0.7l0,0
				c0,0.3-0.1,0.6-0.3,0.9c-0.2,0.2-0.5,0.3-0.9,0.3l0,0c-0.4,0-0.7-0.1-1-0.4c-0.3-0.3-0.5-0.7-0.5-1.2l0,0c0-0.9,0.4-1.5,1.2-2.1
				c0.8-0.5,1.9-0.8,3.2-0.8l0,0c1.2,0,2.1,0.2,2.6,0.7c0.5,0.5,0.8,1.3,0.8,2.5l0,0v3.4l0.6,0c0.5,0,0.9,0.3,1.1,0.8l0,0l-0.3,0.5
				c-0.2,0.3-0.4,0.5-0.5,0.7c-0.1,0.2-0.3,0.4-0.6,0.6c-0.2,0.2-0.5,0.4-0.9,0.4c-0.3,0.1-0.7,0.1-1.2,0.1l0,0
				c-0.5,0-1-0.2-1.2-0.6l0,0c-0.7,0.5-1.6,0.8-2.8,0.8l0,0c-0.5,0-0.9-0.1-1.3-0.2c-0.3-0.2-0.6-0.4-0.8-0.6s-0.3-0.5-0.3-0.7
				c-0.1-0.2-0.1-0.4-0.1-0.7l0,0c0-1,0.3-1.7,1-2.1c0.6-0.5,1.9-1,3.9-1.5l0,0v-1.1c0-0.5-0.1-0.9-0.3-1.1
				c-0.2-0.2-0.5-0.4-0.8-0.4l0,0C387.3,10.4,386.8,10.6,386.5,11z M389.6,13.9L389.6,13.9v2c-0.6,0.8-1.3,1.2-1.9,1.2l0,0
				c-0.4,0-0.7-0.1-0.9-0.3c-0.2-0.2-0.4-0.4-0.4-0.8l0,0c0-0.5,0.2-1,0.7-1.3C387.5,14.5,388.4,14.1,389.6,13.9z M389.2,15.8
				L389.2,15.8v-1.2c-0.9,0.3-1.4,0.8-1.4,1.5l0,0c0,0.3,0.1,0.5,0.3,0.6l0,0C388.5,16.6,388.8,16.3,389.2,15.8z M386.2,12.4
				L386.2,12.4c-0.2,0-0.4-0.2-0.5-0.5l0,0c-0.1-0.5,0-1,0.5-1.4l0,0c0.4-0.4,1.1-0.6,2-0.6l0,0c0.4,0,0.8,0.2,1,0.5
				c0.3,0.3,0.4,0.8,0.4,1.5l0,0v1.4c-1.9,0.5-3.2,1-3.9,1.4c-0.7,0.4-1,1.1-1,1.9l0,0c0,0.4,0.1,0.9,0.4,1.2
				c0.3,0.4,0.8,0.6,1.6,0.6l0,0c0.3,0,0.6,0,0.9-0.1c0.3-0.1,0.5-0.3,0.8-0.5c0.3-0.2,0.5-0.4,0.5-0.4c0.1-0.1,0.2-0.2,0.3-0.3
				c0.2-0.1,0.2-0.2,0.2-0.2l0,0c0.1,1,0.5,1.4,1.2,1.4l0,0c0.2,0,0.4,0,0.6-0.1c0.2-0.1,0.5-0.3,0.7-0.5c0.2-0.3,0.4-0.4,0.4-0.5
				c0.1-0.1,0.2-0.2,0.3-0.4c0.1-0.2,0.2-0.3,0.3-0.4l0,0c-0.1-0.2-0.2-0.3-0.5-0.3l0,0c-0.4,0.5-0.7,0.8-1.1,0.8l0,0
				c-0.3,0-0.4-0.2-0.4-0.6l0,0v-4c0-1-0.2-1.8-0.6-2.2c-0.4-0.4-1.1-0.6-2.1-0.6l0,0c-0.9,0-1.7,0.2-2.3,0.7c-0.7,0.5-1,1-1,1.8
				l0,0c0,0.4,0.1,0.7,0.3,0.9c0.2,0.2,0.5,0.3,0.8,0.3l0,0C386.3,12.7,386.3,12.6,386.2,12.4z M400.1,17.1L400.1,17.1
				c-0.8,0-1.4-0.3-1.8-0.9c-0.4-0.6-0.6-1.4-0.6-2.4l0,0c0-0.8,0.1-1.4,0.2-2c0.2-0.6,0.4-1,0.6-1.2c0.3-0.3,0.5-0.4,0.8-0.5
				c0.2-0.1,0.5-0.2,0.8-0.2l0,0c0.9,0,1.6,0.4,2.1,1.2l0,0v1.4c0,1.8,0,3,0,3.6l0,0C401.4,16.8,400.7,17.1,400.1,17.1z M406.4,17.3
				L406.4,17.3c0.2,0.4,0.2,0.8,0,1.2l0,0c-1.7-0.1-3.1-0.1-4.2,0l0,0c-0.2-0.1-0.4-0.2-0.5-0.4l0,0c-0.6,0.4-1.5,0.6-2.6,0.6l0,0
				c-1.1,0-2-0.4-2.7-1.2c-0.7-0.8-1-1.9-1-3.4l0,0c0-0.6,0.1-1.2,0.3-1.8c0.2-0.6,0.5-1.2,0.8-1.7c0.4-0.5,0.9-1,1.6-1.3
				c0.7-0.3,1.4-0.5,2.3-0.5l0,0c0.6,0,1,0,1.3,0l0,0c0-1,0-2.3,0-3.7l0,0c-0.4-0.1-1-0.2-1.8-0.3l0,0c-0.1-0.4-0.1-0.8,0-1.2l0,0
				c0.9-0.1,2.1-0.4,3.5-0.9l0,0c0.7,0,1.2,0.3,1.6,0.6l0,0c0,7.4,0,11.9,0.1,13.3l0,0C405.1,17,405.5,17.2,406.4,17.3z M401.8,12.5
				v-1.3c-0.3-0.5-0.8-0.7-1.3-0.8l0,0c-0.5,0.1-0.8,0.4-1.2,0.9c-0.3,0.5-0.5,1.4-0.5,2.5l0,0c0,0.8,0.1,1.4,0.4,1.9
				c0.3,0.5,0.7,0.8,1.2,1l0,0c0.4-0.1,0.9-0.3,1.3-0.8l0,0C401.7,15.3,401.8,14.1,401.8,12.5L401.8,12.5z M406.1,17.7L406.1,17.7
				c-0.3,0-0.6-0.1-0.8-0.1c-0.2,0-0.4-0.1-0.7-0.1c-0.3-0.1-0.5-0.2-0.7-0.3c-0.2-0.1-0.2-0.3-0.2-0.4l0,0c0-1.4-0.1-5.9-0.1-13.2
				l0,0c-0.1-0.1-0.2-0.2-0.3-0.3l0,0c-0.9,0.4-1.9,0.7-3,0.8l0,0c0,0.2,0,0.3,0,0.5l0,0c0.9,0,1.5,0.2,1.9,0.4l0,0
				c0,1.8,0,3.4,0,4.6l0,0c-0.7-0.2-1.2-0.3-1.7-0.3l0,0c-0.8,0-1.4,0.2-2,0.5c-0.6,0.3-1,0.7-1.4,1.2c-0.3,0.5-0.6,1-0.7,1.6
				c-0.2,0.6-0.2,1.1-0.2,1.7l0,0c0,1.3,0.3,2.3,0.9,3.1c0.6,0.8,1.3,1.1,2.1,1.1l0,0c1,0,2.1-0.5,3.1-1.6l0,0c0,0.5,0,0.9,0,1.1
				l0,0c0.1,0.1,0.2,0.3,0.2,0.3l0,0c0.2,0,0.4,0,0.6,0c0.2,0,0.4,0,0.5,0c0.1,0,0.2,0,0.3,0l0,0c0.4,0,1.1,0,2.3,0.1l0,0
				C406.2,18,406.2,17.9,406.1,17.7z M421.3,3.5L421.3,3.5c-0.6,0-1.3,0.1-1.9,0.2c-0.6,0.1-1.3,0.4-2,0.7c-0.7,0.4-1.3,0.8-1.8,1.4
				c-0.5,0.5-1,1.3-1.3,2.2c-0.3,0.9-0.5,1.9-0.5,3.1s0.2,2.2,0.5,3.1c0.3,0.9,0.8,1.6,1.3,2.2c0.5,0.5,1.1,1,1.8,1.3
				c0.7,0.4,1.4,0.6,2,0.7c0.6,0.1,1.3,0.2,1.9,0.2l0,0c1,0,1.9-0.1,2.6-0.3c0.8-0.2,1.7-0.5,2.7-0.9l0,0c-0.3-0.8-0.4-1.8-0.4-3
				l0,0v-1.4c0-0.5,1.1-0.8,3.2-0.9l0,0c0.1-0.2,0.1-0.3,0-0.5l0,0c-1.7,0-3,0.1-4,0.1l0,0c-0.8,0-1.9,0-3.4-0.1l0,0
				c0,0.1,0,0.3,0,0.5l0,0c1.5,0.1,2.3,0.5,2.3,0.9l0,0v4c-0.6,0.6-1.6,1-3,1l0,0c-0.8,0-1.5-0.1-2.1-0.4c-0.6-0.3-1.1-0.6-1.5-1.1
				c-0.4-0.5-0.7-1-1-1.6c-0.3-0.6-0.5-1.2-0.6-1.8c-0.1-0.6-0.2-1.2-0.2-1.9l0,0c0-0.8,0.1-1.6,0.3-2.3c0.2-0.8,0.5-1.5,0.9-2.2
				c0.4-0.7,1-1.3,1.7-1.7c0.7-0.4,1.6-0.6,2.5-0.6l0,0c0.6,0,1.2,0.1,1.8,0.3c0.5,0.2,1,0.4,1.3,0.7c0.4,0.3,0.7,0.6,1,1.1
				c0.3,0.5,0.6,0.9,0.8,1.2c0.2,0.3,0.4,0.8,0.6,1.3l0,0c0.2,0,0.3-0.1,0.4-0.2l0,0c-0.5-1.9-1.2-3.3-2.2-4
				C424.1,3.8,422.8,3.5,421.3,3.5z M426.6,9.2L426.6,9.2c-0.3-0.6-0.5-1.1-0.8-1.5c-0.2-0.4-0.6-0.9-0.9-1.4
				c-0.4-0.5-0.9-0.9-1.4-1.2c-0.5-0.3-1.1-0.4-1.8-0.5l0,0c-0.8,0-1.4,0.3-2,0.7c-0.6,0.4-1,0.9-1.3,1.6c-0.3,0.6-0.6,1.3-0.7,2
				c-0.2,0.7-0.2,1.4-0.2,2.1l0,0c0,1,0.1,2,0.4,2.9c0.3,0.9,0.8,1.7,1.4,2.4c0.7,0.7,1.5,1.1,2.5,1.1l0,0c0.9,0,1.6-0.2,2.1-0.7
				l0,0v-3.8c0-0.2-0.7-0.4-2.2-0.6l0,0c-0.2-0.5-0.2-0.9,0-1.3l0,0c1.9,0.1,4.6,0.1,8.1,0.1l0,0c0.1,0.4,0.2,0.8,0,1.2l0,0
				c-1.4,0.1-2.2,0.3-2.2,0.6l0,0v1.4c0,1.2,0.2,2.3,0.6,3.3l0,0c-0.9,0.3-1.6,0.6-2,0.7c-0.4,0.1-1.1,0.3-1.9,0.4s-1.8,0.2-2.9,0.2
				l0,0c-0.7,0-1.3-0.1-2-0.2s-1.4-0.4-2.1-0.8s-1.4-0.8-1.9-1.4c-0.6-0.6-1-1.3-1.4-2.3c-0.4-1-0.5-2-0.5-3.2
				c0-1.2,0.2-2.3,0.5-3.2c0.4-1,0.8-1.7,1.4-2.3s1.2-1,1.9-1.4c0.7-0.4,1.4-0.6,2.1-0.8c0.7-0.1,1.3-0.2,2-0.2l0,0
				c1.1,0,2.3,0.1,3.6,0.4c1.3,0.3,2.2,0.4,2.5,0.5l0,0c-0.2,0.8-0.3,1.6-0.2,2.2c0,0.6,0.2,1.4,0.5,2.3l0,0
				C427.5,8.9,427.1,9.1,426.6,9.2z M437.9,15.8L437.9,15.8c0-1.6,0-3.3,0-4.9l0,0c0-0.2-0.5-0.4-1.5-0.6l0,0
				c-0.1-0.4-0.1-0.8,0-1.2l0,0h4.2c0.2,0.1,0.3,0.2,0.4,0.2c0.1,0.1,0.2,0.2,0.2,0.4l0,0c0,0.1,0,0.3,0,0.6c0,0.3,0,0.5,0,0.6l0,0
				c-0.1,2.1-0.1,4,0,5.6l0,0c0.5,0.1,1,0.2,1.5,0.3l0,0c0.1,0.4,0.1,0.8,0,1.2l0,0c-0.9,0-1.9,0.3-3.2,0.9l0,0
				c-0.7-0.1-1.2-0.3-1.6-0.6l0,0v-0.3c-0.9,0.6-1.9,0.9-3.2,0.9l0,0c-0.9,0-1.5-0.2-1.9-0.7c-0.4-0.5-0.6-1.2-0.6-2.3l0,0
				c0-1.6,0-3.3,0-4.9l0,0c0-0.2-0.5-0.4-1.5-0.6l0,0c-0.1-0.4-0.1-0.8,0-1.2l0,0h4.2c0.2,0.1,0.3,0.2,0.4,0.2
				c0.1,0.1,0.2,0.2,0.2,0.4l0,0c0,0.1,0,0.3,0,0.6c0,0.3,0,0.5,0,0.6l0,0c0,1.5,0,3.1,0,4.6l0,0c0,0.7,0.2,1.2,0.4,1.3l0,0
				C436.4,16.7,437.1,16.3,437.9,15.8z M438.3,10.9L438.3,10.9c0,1.7,0,3.4,0,5.1l0,0c-1.2,0.9-2.1,1.3-2.8,1.3l0,0
				c-0.9,0-1.3-0.6-1.3-1.8l0,0c0-1.6,0-3.1,0-4.6l0,0c0-0.2,0-0.4,0-0.6c0-0.2,0.1-0.4,0.1-0.5l0,0c-0.1-0.1-0.2-0.2-0.3-0.3l0,0
				c-1,0.1-1.9,0.1-2.9,0l0,0c0,0.1,0,0.3,0,0.5l0,0c1,0.2,1.5,0.5,1.6,0.9l0,0c0,1.7,0,3.3,0,4.9l0,0c0,0.9,0.1,1.5,0.5,2
				c0.3,0.4,0.8,0.6,1.6,0.6l0,0c1,0,2.2-0.6,3.6-1.8l0,0V18c0,0.1,0.2,0.2,0.3,0.2l0,0c0.9-0.3,2.1-0.6,3.6-0.7l0,0
				c0-0.2,0-0.3,0-0.5l0,0c-1.1,0-1.9-0.2-2.5-0.4l0,0c-0.1-2.3-0.1-4.3,0-5.8l0,0c0-0.2,0-0.4,0-0.6c0-0.2,0-0.4,0-0.5l0,0
				c-0.1-0.1-0.2-0.2-0.3-0.3l0,0c-0.9,0-1.9,0-2.9,0l0,0c0,0.1,0,0.3,0,0.5l0,0C437.8,10.1,438.3,10.4,438.3,10.9z M447,4.4
				L447,4.4c1.5,0,2.2,0.5,2.2,1.6l0,0c0,1.1-0.7,1.6-2.2,1.6l0,0c-0.2,0-0.4,0-0.6-0.1c-0.2-0.1-0.4-0.2-0.5-0.3
				c-0.1-0.1-0.3-0.3-0.3-0.5c-0.1-0.2-0.1-0.4-0.1-0.6l0,0c0-0.2,0-0.4,0.1-0.6c0.1-0.2,0.2-0.4,0.3-0.5c0.1-0.1,0.3-0.3,0.5-0.3
				C446.6,4.5,446.8,4.4,447,4.4z M446.1,5.2L446.1,5.2c-0.2,0.2-0.3,0.5-0.3,0.8l0,0c0,0.2,0,0.3,0.1,0.5c0.1,0.1,0.1,0.3,0.2,0.4
				c0.1,0.1,0.2,0.2,0.3,0.3c0.1,0.1,0.3,0.1,0.4,0.1l0,0c0.1,0,0.3,0,0.4-0.1c0.1-0.1,0.2-0.1,0.3-0.3c0.1-0.1,0.2-0.2,0.2-0.4
				c0.1-0.1,0.1-0.3,0.1-0.5l0,0c0-0.2,0-0.3-0.1-0.5c-0.1-0.1-0.1-0.3-0.2-0.4s-0.2-0.2-0.3-0.3c-0.1-0.1-0.3-0.1-0.4-0.1l0,0
				c-0.1,0-0.3,0-0.4,0.1C446.3,5,446.2,5.1,446.1,5.2z M450.1,17.7L450.1,17.7c-1.5-0.1-2.3-0.5-2.3-0.9l0,0
				c-0.1-1.9-0.1-4.3-0.1-7.2l0,0c-0.1-0.1-0.2-0.2-0.3-0.3l0,0c-0.9,0.4-1.8,0.7-2.8,0.8l0,0c0,0.2,0,0.3,0,0.5l0,0
				c0.7,0,1.3,0.2,1.7,0.4l0,0c0.1,2.4,0.1,4.4,0,5.8l0,0c0,0.5-0.6,0.8-1.7,0.9l0,0c-0.1,0.2-0.1,0.3,0,0.5l0,0c1.9,0,3.7,0,5.6,0
				l0,0C450.1,18,450.1,17.8,450.1,17.7z M450.4,17.3L450.4,17.3c0.1,0.4,0.1,0.8,0,1.2l0,0c-2.1-0.1-4.2-0.1-6.3,0l0,0
				c-0.1-0.4-0.1-0.8,0-1.2l0,0c1.1-0.1,1.6-0.3,1.6-0.6l0,0c0.1-1.8,0.1-3.7,0-5.5l0,0c-0.4-0.1-1-0.2-1.6-0.2l0,0
				c-0.1-0.4-0.1-0.8,0-1.2l0,0c1,0,2.1-0.3,3.3-0.9l0,0c0.7,0,1.2,0.3,1.6,0.6l0,0c0,3.2,0,5.6,0.1,7.3l0,0
				C449.1,17,449.6,17.2,450.4,17.3z M455,15.6v-5.2h3.8c0.1-0.3,0.1-0.5,0-0.7l0,0H455V7.6c-0.2-0.1-0.3-0.1-0.5,0l0,0
				c-0.2,0.4-0.5,0.8-0.8,1.2c-0.3,0.3-0.5,0.6-0.7,0.7c-0.2,0.1-0.5,0.3-0.9,0.5l0,0c0,0.1,0,0.3,0,0.4l0,0h1.2v5.1
				c0,1.9,0.8,2.9,2.4,2.9l0,0c0.7,0,1.3-0.2,1.9-0.5c0.6-0.3,1-0.8,1.3-1.3l0,0c-0.1-0.1-0.2-0.2-0.3-0.2l0,0
				c-0.6,0.5-1.2,0.8-1.8,0.8l0,0C455.6,17.2,455,16.7,455,15.6L455,15.6z M458.4,15.9L458.4,15.9c0.4,0.1,0.7,0.3,0.9,0.7l0,0
				c-0.3,0.6-0.8,1.1-1.5,1.6c-0.6,0.4-1.3,0.6-2.1,0.6l0,0c-1.8,0-2.8-1.1-2.8-3.3l0,0v-4.7h-1.2c-0.1-0.3-0.1-0.7,0-1.1l0,0
				c0.4-0.2,0.7-0.4,0.9-0.6c0.2-0.1,0.5-0.4,0.8-0.7c0.3-0.3,0.6-0.7,0.8-1.2l0,0c0.6-0.3,1.3-0.2,2.1,0l0,0v2h2.8
				c0.2,0.5,0.2,1,0,1.5l0,0h-2.8v4.8c0,0.6,0.2,1,0.7,1.1l0,0C457.4,16.7,457.9,16.4,458.4,15.9z M463.1,11L463.1,11
				c0.3,0.1,0.5,0.2,0.7,0.4c0.2,0.2,0.3,0.4,0.3,0.7l0,0c0,0.3-0.1,0.6-0.3,0.9c-0.2,0.2-0.5,0.3-0.9,0.3l0,0c-0.4,0-0.7-0.1-1-0.4
				c-0.3-0.3-0.5-0.7-0.5-1.2l0,0c0-0.9,0.4-1.5,1.2-2.1c0.8-0.5,1.9-0.8,3.2-0.8l0,0c1.2,0,2.1,0.2,2.6,0.7
				c0.5,0.5,0.8,1.3,0.8,2.5l0,0v3.4l0.6,0c0.5,0,0.9,0.3,1.1,0.8l0,0l-0.3,0.5c-0.2,0.3-0.4,0.5-0.5,0.7c-0.1,0.2-0.3,0.4-0.6,0.6
				c-0.2,0.2-0.5,0.4-0.9,0.4c-0.3,0.1-0.7,0.1-1.2,0.1l0,0c-0.5,0-1-0.2-1.2-0.6l0,0c-0.7,0.5-1.6,0.8-2.8,0.8l0,0
				c-0.5,0-0.9-0.1-1.3-0.2c-0.3-0.2-0.6-0.4-0.8-0.6c-0.2-0.3-0.3-0.5-0.3-0.7c-0.1-0.2-0.1-0.4-0.1-0.7l0,0c0-1,0.3-1.7,1-2.1
				c0.6-0.5,1.9-1,3.9-1.5l0,0v-1.1c0-0.5-0.1-0.9-0.3-1.1c-0.2-0.2-0.5-0.4-0.8-0.4l0,0C463.9,10.4,463.4,10.6,463.1,11z
				 M466.2,13.9L466.2,13.9v2c-0.6,0.8-1.3,1.2-1.9,1.2l0,0c-0.4,0-0.7-0.1-0.9-0.3c-0.2-0.2-0.4-0.4-0.4-0.8l0,0
				c0-0.5,0.2-1,0.7-1.3C464.1,14.5,465,14.1,466.2,13.9z M465.8,15.8L465.8,15.8v-1.2c-0.9,0.3-1.4,0.8-1.4,1.5l0,0
				c0,0.3,0.1,0.5,0.3,0.6l0,0C465.1,16.6,465.4,16.3,465.8,15.8z M462.8,12.4L462.8,12.4c-0.2,0-0.4-0.2-0.5-0.5l0,0
				c-0.1-0.5,0-1,0.5-1.4l0,0c0.4-0.4,1.1-0.6,2-0.6l0,0c0.4,0,0.8,0.2,1,0.5c0.3,0.3,0.4,0.8,0.4,1.5l0,0v1.4
				c-1.9,0.5-3.2,1-3.9,1.4c-0.7,0.4-1,1.1-1,1.9l0,0c0,0.4,0.1,0.9,0.4,1.2c0.3,0.4,0.8,0.6,1.6,0.6l0,0c0.3,0,0.6,0,0.9-0.1
				c0.3-0.1,0.5-0.3,0.8-0.5c0.3-0.2,0.5-0.4,0.5-0.4c0.1-0.1,0.2-0.2,0.3-0.3s0.2-0.2,0.2-0.2l0,0c0.1,1,0.5,1.4,1.2,1.4l0,0
				c0.2,0,0.4,0,0.6-0.1c0.2-0.1,0.5-0.3,0.7-0.5c0.2-0.3,0.4-0.4,0.4-0.5c0.1-0.1,0.2-0.2,0.3-0.4c0.1-0.2,0.2-0.3,0.3-0.4l0,0
				c-0.1-0.2-0.2-0.3-0.5-0.3l0,0c-0.4,0.5-0.7,0.8-1.1,0.8l0,0c-0.3,0-0.4-0.2-0.4-0.6l0,0v-4c0-1-0.2-1.8-0.6-2.2
				c-0.4-0.4-1.1-0.6-2.1-0.6l0,0c-0.9,0-1.7,0.2-2.3,0.7c-0.7,0.5-1,1-1,1.8l0,0c0,0.4,0.1,0.7,0.3,0.9c0.2,0.2,0.5,0.3,0.8,0.3
				l0,0C462.9,12.7,462.9,12.6,462.8,12.4z M475.4,12.6L475.4,12.6c0.2-0.6,0.5-1.2,1-1.7c0.5-0.6,1-0.8,1.5-0.8l0,0
				c0.6,0,0.9,0.2,0.9,0.6l0,0c0,0.4-0.2,0.6-0.5,0.7l0,0c-0.1,0.1-0.1,0.3,0,0.5l0,0c0.4,0,0.6-0.1,0.9-0.3
				c0.2-0.2,0.3-0.5,0.3-0.9l0,0c0-0.4-0.1-0.7-0.4-0.9c-0.2-0.2-0.6-0.3-0.9-0.3l0,0c-0.5,0-1,0.2-1.5,0.6c-0.5,0.4-1,0.9-1.3,1.4
				l0,0V9.5c-0.1-0.1-0.2-0.2-0.3-0.3l0,0c-0.9,0.4-1.9,0.7-3,0.8l0,0c0,0.2,0,0.3,0,0.5l0,0c0.9,0,1.5,0.2,1.9,0.4l0,0
				c0,2.4,0,4.4,0,5.8l0,0c0,0.5-0.6,0.8-1.7,0.9l0,0c-0.1,0.2-0.1,0.3,0,0.5l0,0c1.7-0.1,3.6-0.1,5.6,0l0,0c0.1-0.1,0.1-0.3,0-0.5
				l0,0c-1.5-0.1-2.3-0.5-2.3-0.9l0,0C475.4,15.5,475.4,14.1,475.4,12.6z M476.8,16.8L476.8,16.8c0,0.3,0.5,0.5,1.3,0.6l0,0
				c0.2,0.4,0.2,0.8,0,1.2l0,0c-2.8-0.1-4.8-0.1-6.2-0.1l0,0c-0.2-0.4-0.3-0.8,0-1.2l0,0c1.1-0.1,1.6-0.3,1.7-0.6l0,0
				c0.1-1.9,0.1-3.7,0-5.6l0,0c-0.4-0.1-1-0.2-1.8-0.2l0,0c-0.1-0.4-0.1-0.8,0-1.2l0,0c1.1-0.1,2.2-0.4,3.4-0.9l0,0
				c0.7,0.1,1.2,0.3,1.6,0.6l0,0c0.5-0.4,1-0.6,1.5-0.6l0,0c0.5,0,0.9,0.1,1.2,0.4c0.3,0.3,0.5,0.7,0.5,1.2l0,0
				c0,0.5-0.1,0.9-0.4,1.2c-0.3,0.3-0.7,0.4-1.2,0.4l0,0c-0.4,0-0.8-0.1-1.1-0.4l0,0c-0.3,0.4-0.4,0.7-0.5,1l0,0
				C476.8,14.1,476.8,15.5,476.8,16.8z"/>
		</g>
	</g>
</g>
</svg>
