<?xml version="1.0" encoding="utf-8"?>
<!-- Generator: Adobe Illustrator 24.2.1, SVG Export Plug-In . SVG Version: 6.00 Build 0)  -->
<svg version="1.1" id="Layer_1" xmlns="http://www.w3.org/2000/svg" xmlns:xlink="http://www.w3.org/1999/xlink" x="0px" y="0px"
	 viewBox="0 0 396 58.6" style="enable-background:new 0 0 396 58.6;" xml:space="preserve">
<style type="text/css">
	.st0{fill:#F3F3F3;}
	.st1{fill:#6381A8;}
</style>
<g>
	<g transform="rotate(0 125.3544 0)">
		<g transform="matrix(1 0 0 1 0 0)">
			<path class="st0" d="M126,46.8c-0.1,0-0.2-0.1-0.2-0.4s0.1-0.4,0.2-0.4l0,0c1.6,0,2.9-0.1,3.7-0.4s1.3-0.8,1.6-1.5
				c0.3-0.7,0.4-1.8,0.4-3.3l0,0V20.4c0-2.7-0.9-4.1-2.6-4.1l0,0c-0.9,0-1.9,0.2-3.1,0.7l0,0l-0.1,0.1c-0.2,0-0.3-0.1-0.4-0.4
				c-0.1-0.2,0-0.4,0.1-0.4l0,0l12.8-5.4h0.1c0.1,0,0.2,0.1,0.3,0.2c0.1,0.1,0.2,0.2,0.2,0.3l0,0v29.3c0,1.5,0.1,2.7,0.4,3.4
				s0.8,1.2,1.5,1.4c0.8,0.2,2,0.4,3.8,0.4l0,0c0.1,0,0.1,0.1,0.1,0.4s0,0.4-0.1,0.4l0,0c-1.6,0-2.9,0-3.8-0.1l0,0l-5.5-0.1
				l-5.4,0.1C128.9,46.8,127.6,46.8,126,46.8L126,46.8z M172.7,30.5c3.5,0,6.3,1,8.4,2.9s3.1,4.3,3.1,7l0,0c0,3.7-2.1,7.1-6.3,10.4
				c-4.2,3.3-10.4,5.8-18.6,7.6l0,0c-0.2,0-0.3-0.1-0.4-0.4s0-0.5,0.1-0.5l0,0c6.1-1.6,10.4-3.9,13-6.9c2.6-3,3.9-6.1,3.9-9.5l0,0
				c0-2.4-0.7-4.5-2-6.2c-1.3-1.7-3.2-2.6-5.6-2.6l0,0c-1.4,0-2.7,0.2-3.7,0.6l0,0l-0.1,0.1c-0.2,0-0.3-0.1-0.4-0.3
				c-0.1-0.2-0.1-0.3,0.1-0.4l0,0c1.6-1,3.7-1.6,6.3-1.9l0,0c1.4-1.7,2.4-3.3,3-4.7c0.6-1.4,0.9-3,0.9-4.8l0,0
				c0-2.3-0.5-4.2-1.5-5.7s-2.5-2.2-4.5-2.2l0,0c-2.5,0-4.5,0.7-6.1,2c-1.6,1.3-2.8,3.6-3.7,6.6l0,0c0,0.1-0.1,0.1-0.4,0.1l0,0
				c-0.1,0-0.3,0-0.4-0.1s-0.2-0.1-0.1-0.2l0,0l2.9-11.3c0,0,0.1-0.1,0.3-0.1l0,0c0.5,0,0.7,0.1,0.6,0.2l0,0
				c-0.1,0.4-0.1,0.7-0.1,0.9l0,0c0,0.4,0.1,0.8,0.4,1c0.2,0.2,0.5,0.3,0.9,0.3l0,0c0.5,0,1.3-0.2,2.4-0.6l0,0
				c2.3-0.8,4.4-1.2,6.3-1.2l0,0c3,0,5.6,0.8,7.7,2.3c2.2,1.5,3.2,3.5,3.2,5.9l0,0C182,23,178.9,26.8,172.7,30.5L172.7,30.5z
				 M222.6,20.7c4.2,0.5,7.5,1.9,10,4.2c2.5,2.3,3.7,5.1,3.7,8.5l0,0c0,2.6-0.7,4.9-2.2,7c-1.5,2.1-3.6,3.7-6.2,5
				c-2.6,1.2-5.6,1.8-8.8,1.8l0,0c-1.4,0-3-0.1-4.8-0.2l0,0c-0.7,0-1.6-0.1-2.6-0.1s-2.2-0.1-3.4-0.1l0,0l-5.4,0.1
				c-1,0-2.3,0.1-4,0.1l0,0c-0.1,0-0.2-0.1-0.2-0.4s0.1-0.4,0.2-0.4l0,0c1.4,0,2.5-0.1,3.3-0.4c0.7-0.3,1.3-0.8,1.6-1.5
				c0.3-0.7,0.5-1.8,0.5-3.2l0,0V6.3c0-2.1-0.3-3.5-1-4.1c-0.7-0.7-2.1-1-4.3-1l0,0c-0.1,0-0.1-0.1-0.1-0.4s0-0.4,0.1-0.4l0,0l4,0.1
				c2.3,0.1,4.1,0.1,5.4,0.1l0,0c1.4,0,2.8-0.1,4.3-0.2l0,0c0.5,0,1.2-0.1,2.2-0.1c1,0,1.9-0.1,2.6-0.1l0,0c4.5,0,8,0.8,10.5,2.5
				c2.5,1.6,3.7,4,3.7,7.2l0,0c0,2.4-0.8,4.5-2.3,6.5S225.5,19.6,222.6,20.7L222.6,20.7z M216.3,1.6c-1.4,0-2.4,0.3-3,1
				c-0.5,0.7-0.8,1.9-0.8,3.8l0,0v14.2l3,0.1c2.6,0,4.6-1,6-2.9c1.4-1.9,2.1-4.4,2.1-7.5l0,0c0-2.8-0.6-5-1.9-6.5
				S218.7,1.6,216.3,1.6L216.3,1.6z M217.7,45.3c6.5,0,9.8-3.4,9.8-10.1l0,0c0-3.8-0.9-6.9-2.8-9.1s-4.6-3.4-8.4-3.4l0,0
				c-1.4,0-2.7,0-3.9,0.1l0,0v18c0,1.6,0.3,2.8,1,3.5C214.1,44.9,215.6,45.3,217.7,45.3L217.7,45.3z"/>
		</g>
	</g>
	<g transform="rotate(0 72.90539999999999 37.3578)">
		<g transform="matrix(1 0 0 1 0 0)">
			<path class="st1" d="M74,44.8h4.7v1h-5.8v-8h5.6v1H74v2.5h4v1h-4V44.8z M85.7,39.8h1.1l-2.7,6.1H83l-2.7-6.1h1.1l2.1,4.9
				L85.7,39.8z M94.3,42.8c0,0.1,0,0.2,0,0.3l0,0h-4.9c0.1,0.5,0.3,1,0.7,1.3c0.4,0.3,0.9,0.5,1.5,0.5l0,0c0.7,0,1.3-0.2,1.7-0.7
				l0,0l0.6,0.7c-0.3,0.3-0.6,0.6-1,0.7s-0.9,0.3-1.4,0.3l0,0c-0.6,0-1.2-0.1-1.7-0.4c-0.5-0.3-0.9-0.6-1.1-1.1s-0.4-1-0.4-1.6l0,0
				c0-0.6,0.1-1.1,0.4-1.6c0.3-0.5,0.6-0.8,1.1-1.1s1-0.4,1.6-0.4l0,0c0.6,0,1.1,0.1,1.5,0.4c0.5,0.3,0.8,0.6,1.1,1.1
				C94.2,41.7,94.3,42.2,94.3,42.8L94.3,42.8z M91.3,40.7c-0.5,0-1,0.2-1.3,0.5c-0.4,0.3-0.6,0.7-0.6,1.3l0,0h3.9
				c-0.1-0.5-0.3-0.9-0.6-1.3C92.3,40.8,91.8,40.7,91.3,40.7L91.3,40.7z M98,40.8c0.2-0.4,0.5-0.6,0.8-0.8c0.4-0.2,0.8-0.3,1.4-0.3
				l0,0v1.1c-0.1,0-0.1,0-0.3,0l0,0c-0.6,0-1.1,0.2-1.4,0.5c-0.3,0.4-0.5,0.9-0.5,1.5l0,0v3H97v-6.1H98V40.8z M107.2,39.8h1.1
				l-2.9,6.7c-0.3,0.6-0.6,1.1-0.9,1.3s-0.8,0.4-1.3,0.4l0,0c-0.3,0-0.6,0-0.9-0.1c-0.3-0.1-0.5-0.2-0.7-0.4l0,0l0.5-0.8
				c0.3,0.3,0.7,0.4,1.1,0.4l0,0c0.3,0,0.5-0.1,0.7-0.2s0.3-0.4,0.5-0.7l0,0l0.2-0.4l-2.7-6h1.1l2.1,4.8L107.2,39.8z M116.5,45.8v-7
				h-2.7v-1h6.6v1h-2.7v7H116.5z M124.5,45.9c-0.6,0-1.1-0.1-1.6-0.4c-0.5-0.3-0.9-0.6-1.1-1.1s-0.4-1-0.4-1.6l0,0
				c0-0.6,0.1-1.1,0.4-1.6s0.6-0.8,1.1-1.1c0.5-0.3,1-0.4,1.6-0.4l0,0c0.6,0,1.1,0.1,1.6,0.4s0.9,0.6,1.1,1.1c0.3,0.5,0.4,1,0.4,1.6
				l0,0c0,0.6-0.1,1.1-0.4,1.6c-0.3,0.5-0.6,0.8-1.1,1.1C125.7,45.8,125.1,45.9,124.5,45.9L124.5,45.9z M124.5,45
				c0.4,0,0.7-0.1,1-0.3c0.3-0.2,0.6-0.4,0.7-0.8s0.3-0.7,0.3-1.1l0,0c0-0.4-0.1-0.8-0.3-1.1s-0.4-0.6-0.7-0.7
				c-0.3-0.2-0.7-0.3-1-0.3l0,0c-0.4,0-0.7,0.1-1,0.3c-0.3,0.2-0.6,0.4-0.7,0.7s-0.3,0.7-0.3,1.1l0,0c0,0.4,0.1,0.8,0.3,1.1
				s0.4,0.6,0.7,0.8C123.8,44.9,124.1,45,124.5,45L124.5,45z M132.9,45.9c-0.6,0-1.1-0.1-1.6-0.4c-0.5-0.3-0.9-0.6-1.1-1.1
				c-0.3-0.5-0.4-1-0.4-1.6l0,0c0-0.6,0.1-1.1,0.4-1.6c0.3-0.5,0.6-0.8,1.1-1.1s1-0.4,1.6-0.4l0,0c0.6,0,1.1,0.1,1.6,0.4
				c0.5,0.3,0.9,0.6,1.1,1.1c0.3,0.5,0.4,1,0.4,1.6l0,0c0,0.6-0.1,1.1-0.4,1.6c-0.3,0.5-0.6,0.8-1.1,1.1
				C134.1,45.8,133.5,45.9,132.9,45.9L132.9,45.9z M132.9,45c0.4,0,0.7-0.1,1-0.3c0.3-0.2,0.6-0.4,0.7-0.8c0.2-0.3,0.3-0.7,0.3-1.1
				l0,0c0-0.4-0.1-0.8-0.3-1.1c-0.2-0.3-0.4-0.6-0.7-0.7c-0.3-0.2-0.7-0.3-1-0.3l0,0c-0.4,0-0.7,0.1-1,0.3c-0.3,0.2-0.6,0.4-0.7,0.7
				s-0.3,0.7-0.3,1.1l0,0c0,0.4,0.1,0.8,0.3,1.1s0.4,0.6,0.7,0.8C132.2,44.9,132.6,45,132.9,45L132.9,45z M138.8,45.8v-8.5h1.1v8.5
				H138.8z M146.3,39.7c0.6,0,1.1,0.1,1.6,0.4s0.8,0.6,1.1,1.1s0.4,1,0.4,1.6l0,0c0,0.6-0.1,1.1-0.4,1.6c-0.3,0.5-0.6,0.8-1.1,1.1
				c-0.5,0.3-1,0.4-1.6,0.4l0,0c-0.4,0-0.9-0.1-1.2-0.3c-0.4-0.2-0.7-0.4-0.9-0.8l0,0v1h-1.1v-8.5h1.1v3.3c0.2-0.3,0.5-0.6,0.9-0.7
				C145.5,39.8,145.9,39.7,146.3,39.7L146.3,39.7z M146.2,45c0.4,0,0.7-0.1,1-0.3c0.3-0.2,0.6-0.4,0.7-0.8s0.3-0.7,0.3-1.1l0,0
				c0-0.4-0.1-0.8-0.3-1.1s-0.4-0.6-0.7-0.7c-0.3-0.2-0.7-0.3-1-0.3l0,0c-0.4,0-0.7,0.1-1,0.3c-0.3,0.2-0.6,0.4-0.7,0.7
				s-0.3,0.7-0.3,1.1l0,0c0,0.4,0.1,0.8,0.3,1.1s0.4,0.6,0.7,0.8C145.5,44.9,145.8,45,146.2,45L146.2,45z M154.6,45.9
				c-0.6,0-1.1-0.1-1.6-0.4c-0.5-0.3-0.9-0.6-1.1-1.1s-0.4-1-0.4-1.6l0,0c0-0.6,0.1-1.1,0.4-1.6s0.6-0.8,1.1-1.1s1-0.4,1.6-0.4l0,0
				c0.6,0,1.1,0.1,1.6,0.4s0.9,0.6,1.1,1.1c0.3,0.5,0.4,1,0.4,1.6l0,0c0,0.6-0.1,1.1-0.4,1.6c-0.3,0.5-0.6,0.8-1.1,1.1
				C155.8,45.8,155.2,45.9,154.6,45.9L154.6,45.9z M154.6,45c0.4,0,0.7-0.1,1-0.3c0.3-0.2,0.6-0.4,0.7-0.8s0.3-0.7,0.3-1.1l0,0
				c0-0.4-0.1-0.8-0.3-1.1s-0.4-0.6-0.7-0.7c-0.3-0.2-0.7-0.3-1-0.3l0,0c-0.4,0-0.7,0.1-1,0.3c-0.3,0.2-0.6,0.4-0.7,0.7
				s-0.3,0.7-0.3,1.1l0,0c0,0.4,0.1,0.8,0.3,1.1s0.4,0.6,0.7,0.8C153.9,44.9,154.2,45,154.6,45L154.6,45z M165.3,45.8h-1.2l-1.7-2.3
				l-1.8,2.3h-1.2l2.4-3.1l-2.3-3h1.2l1.7,2.2l1.7-2.2h1.2l-2.3,3L165.3,45.8z M177.8,37.8h1.1v8H178l-4.8-6v6h-1.1v-8h0.9l4.8,6
				V37.8z M187.8,42.8c0,0.1,0,0.2,0,0.3l0,0h-4.9c0.1,0.5,0.3,1,0.7,1.3s0.9,0.5,1.5,0.5l0,0c0.7,0,1.3-0.2,1.7-0.7l0,0l0.6,0.7
				c-0.3,0.3-0.6,0.6-1,0.7c-0.4,0.2-0.9,0.3-1.4,0.3l0,0c-0.6,0-1.2-0.1-1.7-0.4c-0.5-0.3-0.9-0.6-1.1-1.1c-0.3-0.5-0.4-1-0.4-1.6
				l0,0c0-0.6,0.1-1.1,0.4-1.6c0.3-0.5,0.6-0.8,1.1-1.1s1-0.4,1.6-0.4l0,0c0.6,0,1.1,0.1,1.5,0.4c0.5,0.3,0.8,0.6,1.1,1.1
				C187.7,41.7,187.8,42.2,187.8,42.8L187.8,42.8z M184.8,40.7c-0.5,0-1,0.2-1.3,0.5c-0.4,0.3-0.6,0.7-0.6,1.3l0,0h3.9
				c-0.1-0.5-0.3-0.9-0.6-1.3C185.8,40.8,185.3,40.7,184.8,40.7L184.8,40.7z M195.9,42.8c0,0.1,0,0.2,0,0.3l0,0H191
				c0.1,0.5,0.3,1,0.7,1.3s0.9,0.5,1.5,0.5l0,0c0.7,0,1.3-0.2,1.7-0.7l0,0l0.6,0.7c-0.3,0.3-0.6,0.6-1,0.7s-0.9,0.3-1.4,0.3l0,0
				c-0.6,0-1.2-0.1-1.7-0.4c-0.5-0.3-0.9-0.6-1.1-1.1c-0.3-0.5-0.4-1-0.4-1.6l0,0c0-0.6,0.1-1.1,0.4-1.6c0.3-0.5,0.6-0.8,1.1-1.1
				c0.5-0.3,1-0.4,1.6-0.4l0,0c0.6,0,1.1,0.1,1.5,0.4s0.8,0.6,1.1,1.1C195.8,41.7,195.9,42.2,195.9,42.8L195.9,42.8z M193,40.7
				c-0.5,0-1,0.2-1.3,0.5c-0.4,0.3-0.6,0.7-0.6,1.3l0,0h3.9c-0.1-0.5-0.3-0.9-0.6-1.3C193.9,40.8,193.5,40.7,193,40.7L193,40.7z
				 M203.2,37.4h1.1v8.5h-1.1v-1c-0.2,0.3-0.6,0.6-0.9,0.8c-0.4,0.2-0.8,0.3-1.2,0.3l0,0c-0.6,0-1.1-0.1-1.6-0.4
				c-0.5-0.3-0.8-0.6-1.1-1.1c-0.3-0.5-0.4-1-0.4-1.6l0,0c0-0.6,0.1-1.1,0.4-1.6s0.6-0.8,1.1-1.1c0.5-0.3,1-0.4,1.6-0.4l0,0
				c0.4,0,0.8,0.1,1.2,0.2c0.4,0.2,0.7,0.4,0.9,0.7l0,0V37.4z M201.2,45c0.4,0,0.7-0.1,1-0.3c0.3-0.2,0.6-0.4,0.7-0.8
				c0.2-0.3,0.3-0.7,0.3-1.1l0,0c0-0.4-0.1-0.8-0.3-1.1c-0.2-0.3-0.4-0.6-0.7-0.7c-0.3-0.2-0.7-0.3-1-0.3l0,0c-0.4,0-0.7,0.1-1,0.3
				c-0.3,0.2-0.6,0.4-0.7,0.7s-0.3,0.7-0.3,1.1l0,0c0,0.4,0.1,0.8,0.3,1.1s0.4,0.6,0.7,0.8C200.5,44.9,200.8,45,201.2,45L201.2,45z
				 M209.3,45.9c-0.5,0-1-0.1-1.4-0.2c-0.5-0.1-0.8-0.3-1.1-0.5l0,0l0.5-0.9c0.3,0.2,0.6,0.3,1,0.5c0.4,0.1,0.8,0.2,1.2,0.2l0,0
				c1,0,1.4-0.3,1.4-0.8l0,0c0-0.2-0.1-0.3-0.2-0.4s-0.3-0.2-0.5-0.2c-0.2,0-0.5-0.1-0.8-0.2l0,0c-0.5-0.1-0.9-0.2-1.2-0.3
				c-0.3-0.1-0.6-0.3-0.8-0.5c-0.2-0.2-0.3-0.6-0.3-1l0,0c0-0.5,0.2-1,0.7-1.3c0.5-0.3,1.1-0.5,1.8-0.5l0,0c0.4,0,0.8,0,1.2,0.1
				c0.4,0.1,0.7,0.2,1,0.4l0,0l-0.5,0.9c-0.5-0.3-1.1-0.5-1.7-0.5l0,0c-0.5,0-0.8,0.1-1.1,0.2c-0.2,0.2-0.4,0.4-0.4,0.6l0,0
				c0,0.2,0.1,0.4,0.2,0.5c0.1,0.1,0.3,0.2,0.5,0.3c0.2,0.1,0.5,0.1,0.9,0.2l0,0c0.5,0.1,0.9,0.2,1.2,0.3s0.6,0.3,0.8,0.5
				s0.3,0.5,0.3,1l0,0c0,0.5-0.2,1-0.7,1.3C210.7,45.7,210.1,45.9,209.3,45.9L209.3,45.9z M220.9,39.7c0.8,0,1.5,0.2,1.9,0.6
				c0.4,0.4,0.7,1,0.7,1.8l0,0v3.7h-1V45c-0.2,0.3-0.4,0.5-0.8,0.6c-0.3,0.1-0.7,0.2-1.2,0.2l0,0c-0.7,0-1.2-0.2-1.6-0.5
				s-0.6-0.8-0.6-1.3l0,0c0-0.5,0.2-1,0.6-1.3c0.4-0.3,1-0.5,1.9-0.5l0,0h1.7v-0.2c0-0.5-0.1-0.8-0.4-1.1c-0.3-0.3-0.7-0.4-1.2-0.4
				l0,0c-0.4,0-0.7,0.1-1.1,0.2c-0.3,0.1-0.6,0.3-0.9,0.5l0,0l-0.5-0.8c0.3-0.3,0.7-0.4,1.1-0.6C219.9,39.8,220.4,39.7,220.9,39.7
				L220.9,39.7z M220.6,45.1c0.4,0,0.8-0.1,1.1-0.3c0.3-0.2,0.5-0.5,0.7-0.8l0,0v-0.8h-1.7c-0.9,0-1.4,0.3-1.4,0.9l0,0
				c0,0.3,0.1,0.5,0.4,0.7C219.9,45,220.2,45.1,220.6,45.1L220.6,45.1z M236.8,37.8h1.1v8h-1.1v-3.6h-4.6v3.6H231v-8h1.1v3.4h4.6
				V37.8z M243.5,39.7c0.8,0,1.5,0.2,1.9,0.6c0.4,0.4,0.7,1,0.7,1.8l0,0v3.7h-1V45c-0.2,0.3-0.4,0.5-0.8,0.6
				c-0.3,0.1-0.7,0.2-1.2,0.2l0,0c-0.7,0-1.2-0.2-1.6-0.5c-0.4-0.3-0.6-0.8-0.6-1.3l0,0c0-0.5,0.2-1,0.6-1.3s1-0.5,1.9-0.5l0,0h1.7
				v-0.2c0-0.5-0.1-0.8-0.4-1.1c-0.3-0.3-0.7-0.4-1.2-0.4l0,0c-0.4,0-0.7,0.1-1.1,0.2c-0.3,0.1-0.6,0.3-0.9,0.5l0,0l-0.5-0.8
				c0.3-0.3,0.7-0.4,1.1-0.6C242.5,39.8,243,39.7,243.5,39.7L243.5,39.7z M243.2,45.1c0.4,0,0.8-0.1,1.1-0.3
				c0.3-0.2,0.5-0.5,0.7-0.8l0,0v-0.8h-1.7c-0.9,0-1.4,0.3-1.4,0.9l0,0c0,0.3,0.1,0.5,0.4,0.7S242.8,45.1,243.2,45.1L243.2,45.1z
				 M256.8,39.7c0.8,0,1.4,0.2,1.8,0.7c0.4,0.4,0.7,1.1,0.7,2l0,0v3.5h-1.1v-3.4c0-0.6-0.1-1-0.4-1.3c-0.3-0.3-0.7-0.4-1.2-0.4l0,0
				c-0.6,0-1,0.2-1.3,0.5c-0.3,0.3-0.5,0.8-0.5,1.5l0,0v3.1h-1.1v-3.4c0-0.6-0.1-1-0.4-1.3s-0.7-0.4-1.2-0.4l0,0
				c-0.6,0-1,0.2-1.3,0.5c-0.3,0.3-0.5,0.8-0.5,1.5l0,0v3.1h-1.1v-6.1h1.1v0.9c0.2-0.3,0.5-0.6,0.9-0.7c0.4-0.2,0.8-0.2,1.2-0.2l0,0
				c0.5,0,0.9,0.1,1.3,0.3c0.4,0.2,0.6,0.5,0.8,0.8l0,0c0.2-0.4,0.5-0.6,1-0.8C255.9,39.8,256.3,39.7,256.8,39.7L256.8,39.7z
				 M270.1,39.7c0.8,0,1.4,0.2,1.8,0.7c0.4,0.4,0.7,1.1,0.7,2l0,0v3.5h-1.1v-3.4c0-0.6-0.1-1-0.4-1.3s-0.7-0.4-1.2-0.4l0,0
				c-0.6,0-1,0.2-1.3,0.5c-0.3,0.3-0.5,0.8-0.5,1.5l0,0v3.1H267v-3.4c0-0.6-0.1-1-0.4-1.3c-0.3-0.3-0.7-0.4-1.2-0.4l0,0
				c-0.6,0-1,0.2-1.3,0.5c-0.3,0.3-0.5,0.8-0.5,1.5l0,0v3.1h-1.1v-6.1h1.1v0.9c0.2-0.3,0.5-0.6,0.9-0.7c0.4-0.2,0.8-0.2,1.2-0.2l0,0
				c0.5,0,0.9,0.1,1.3,0.3c0.4,0.2,0.6,0.5,0.8,0.8l0,0c0.2-0.4,0.5-0.6,1-0.8S269.6,39.7,270.1,39.7L270.1,39.7z M281.2,42.8
				c0,0.1,0,0.2,0,0.3l0,0h-4.9c0.1,0.5,0.3,1,0.7,1.3s0.9,0.5,1.5,0.5l0,0c0.7,0,1.3-0.2,1.7-0.7l0,0l0.6,0.7
				c-0.3,0.3-0.6,0.6-1,0.7c-0.4,0.2-0.9,0.3-1.4,0.3l0,0c-0.6,0-1.2-0.1-1.7-0.4c-0.5-0.3-0.9-0.6-1.1-1.1c-0.3-0.5-0.4-1-0.4-1.6
				l0,0c0-0.6,0.1-1.1,0.4-1.6c0.3-0.5,0.6-0.8,1.1-1.1s1-0.4,1.6-0.4l0,0c0.6,0,1.1,0.1,1.5,0.4c0.5,0.3,0.8,0.6,1.1,1.1
				C281.1,41.7,281.2,42.2,281.2,42.8L281.2,42.8z M278.2,40.7c-0.5,0-1,0.2-1.3,0.5c-0.4,0.3-0.6,0.7-0.6,1.3l0,0h3.9
				c-0.1-0.5-0.3-0.9-0.6-1.3C279.2,40.8,278.8,40.7,278.2,40.7L278.2,40.7z M285,40.8c0.2-0.4,0.5-0.6,0.8-0.8
				c0.4-0.2,0.8-0.3,1.4-0.3l0,0v1.1c-0.1,0-0.1,0-0.3,0l0,0c-0.6,0-1.1,0.2-1.4,0.5c-0.3,0.4-0.5,0.9-0.5,1.5l0,0v3h-1.1v-6.1h1.1
				V40.8z"/>
		</g>
	</g>
	<g transform="rotate(0 0 21.199599999999975)">
		<g transform="matrix(1 0 0 1 0 0)">
			<path class="st1" d="M9.2,25.5L9,25.4c0.2-0.3,0.3-0.5,0.4-0.8c0.1-0.2,0.1-0.5,0.1-0.7l0,0c0-0.3,0-0.5-0.1-0.7
				C9.3,23,9.2,22.8,9,22.7c-0.2-0.2-0.4-0.3-0.6-0.3c-0.2-0.1-0.5-0.1-0.8-0.1l0,0c-0.3,0-0.6,0.1-0.9,0.2
				c-0.3,0.1-0.5,0.3-0.7,0.5c-0.2,0.2-0.3,0.4-0.5,0.7c-0.1,0.3-0.2,0.6-0.2,0.9l0,0c0,0.3,0,0.7,0.1,1c0.1,0.3,0.2,0.7,0.4,1
				c0.1,0.3,0.3,0.6,0.5,1c0.2,0.3,0.3,0.6,0.5,0.9c0.1,0.3,0.3,0.6,0.4,1c0.1,0.3,0.1,0.7,0.1,1l0,0c0,0.3-0.1,0.7-0.2,1
				c-0.1,0.3-0.3,0.6-0.4,0.8c-0.2,0.3-0.4,0.5-0.7,0.7c-0.3,0.2-0.5,0.4-0.8,0.5c-0.3,0.1-0.6,0.3-1,0.3s-0.7,0.1-1,0.1l0,0
				c-0.5,0-1-0.1-1.4-0.3c-0.4-0.2-0.7-0.4-1-0.7c-0.3-0.3-0.5-0.6-0.6-1C0.1,31.6,0,31.2,0,30.8l0,0c0-0.2,0-0.5,0.1-0.7
				c0.1-0.2,0.1-0.4,0.2-0.6c0.1-0.2,0.2-0.3,0.3-0.4s0.3-0.2,0.4-0.2l0,0c0.1,0,0.2,0,0.3,0.1c0.1,0.1,0.1,0.2,0.1,0.3l0,0
				c0,0.1,0,0.2-0.1,0.3c-0.1,0.1-0.1,0.1-0.2,0.2c-0.1,0-0.1,0.1-0.2,0.1c-0.1,0-0.2,0.1-0.2,0.1l0,0c-0.1,0.1-0.2,0.2-0.3,0.3
				c-0.1,0.1-0.1,0.4-0.1,0.7l0,0c0,0.3,0.1,0.6,0.2,0.9c0.1,0.3,0.3,0.6,0.5,0.8c0.2,0.2,0.5,0.5,0.9,0.6c0.3,0.2,0.8,0.2,1.2,0.2
				l0,0c0.4,0,0.8-0.1,1.2-0.2c0.4-0.1,0.7-0.3,1-0.6c0.3-0.2,0.5-0.6,0.7-0.9c0.2-0.4,0.2-0.8,0.2-1.3l0,0c0-0.4,0-0.7-0.1-1
				c-0.1-0.3-0.2-0.6-0.3-0.9c-0.1-0.3-0.3-0.6-0.4-0.8c-0.2-0.3-0.3-0.5-0.4-0.8c-0.1-0.3-0.2-0.6-0.3-0.9c-0.1-0.3-0.1-0.6-0.1-1
				l0,0c0-0.5,0.1-0.9,0.2-1.3c0.2-0.4,0.4-0.7,0.7-1c0.3-0.3,0.6-0.5,1-0.7C6.7,22,7.2,22,7.7,22l0,0c0.4,0,0.7,0,1,0.1
				c0.3,0.1,0.5,0.2,0.7,0.4c0.2,0.2,0.4,0.4,0.5,0.6c0.1,0.2,0.2,0.5,0.2,0.8l0,0c0,0.3-0.1,0.6-0.2,0.9C9.7,25,9.5,25.2,9.2,25.5
				L9.2,25.5z M10.2,30.1l3.2-8.9h1.1l-3.2,8.9c-0.1,0.2-0.1,0.4-0.2,0.6c-0.1,0.2-0.1,0.4-0.2,0.6c0,0.2-0.1,0.4-0.1,0.6
				c0,0.2,0,0.3,0,0.5l0,0c0,0.3,0.1,0.6,0.3,0.8c0.2,0.2,0.4,0.3,0.8,0.3l0,0c0.3,0,0.6-0.1,0.9-0.2c0.3-0.1,0.6-0.4,0.9-0.6
				c0.3-0.3,0.6-0.6,0.9-1.1c0.3-0.4,0.6-0.9,0.9-1.5l0,0l0.4-0.7l0.2,0.1l-0.4,0.7c-0.3,0.6-0.7,1.2-1,1.6c-0.3,0.5-0.6,0.8-1,1.1
				c-0.3,0.3-0.6,0.5-1,0.7c-0.3,0.1-0.7,0.2-1.1,0.2l0,0c-0.3,0-0.6,0-0.8-0.1c-0.2-0.1-0.4-0.2-0.6-0.4C10.2,33,10,32.8,10,32.6
				c-0.1-0.2-0.1-0.5-0.1-0.8l0,0c0-0.2,0-0.5,0.1-0.8C10,30.7,10.1,30.4,10.2,30.1L10.2,30.1z M15.8,29.4L15.8,29.4
				c0.2-0.6,0.4-1.2,0.7-1.8c0.3-0.5,0.7-1,1.1-1.4c0.4-0.4,0.9-0.7,1.4-0.9c0.5-0.2,1-0.3,1.5-0.3l0,0c0.4,0,0.7,0.1,1,0.2
				c0.3,0.1,0.5,0.3,0.7,0.6c0.2,0.2,0.3,0.5,0.4,0.8c0.1,0.3,0.1,0.6,0.1,1l0,0c0,0.4,0,0.7-0.1,1.1c-0.1,0.4-0.2,0.7-0.3,1l0,0
				c-0.2,0.6-0.5,1.2-0.8,1.7c-0.3,0.5-0.7,1-1.1,1.3c-0.4,0.4-0.8,0.7-1.3,0.9s-0.9,0.3-1.4,0.3l0,0c-0.3,0-0.6-0.1-0.9-0.2
				c-0.3-0.1-0.5-0.3-0.7-0.5c-0.2-0.2-0.3-0.5-0.4-0.8c-0.1-0.3-0.2-0.7-0.2-1.1l0,0c0-0.3,0-0.5,0.1-0.8
				C15.6,29.9,15.7,29.6,15.8,29.4z M17.8,33.3L17.8,33.3c0.3,0,0.7-0.1,1.1-0.3c0.4-0.2,0.7-0.5,1-0.8c0.3-0.4,0.6-0.8,0.9-1.3
				c0.3-0.5,0.5-1,0.7-1.6l0,0c0.1-0.2,0.1-0.3,0.2-0.5c0.1-0.2,0.1-0.4,0.2-0.6c0-0.2,0.1-0.4,0.1-0.7c0-0.2,0-0.4,0-0.7l0,0
				c0-0.2,0-0.4-0.1-0.7c0-0.2-0.1-0.4-0.2-0.5c-0.1-0.2-0.2-0.3-0.4-0.4c-0.2-0.1-0.4-0.1-0.7-0.1l0,0c-0.4,0-0.7,0.1-1.1,0.3
				c-0.4,0.2-0.7,0.5-1,0.8c-0.3,0.4-0.6,0.8-0.9,1.3c-0.3,0.5-0.5,1.1-0.7,1.7l0,0c-0.1,0.4-0.2,0.8-0.3,1.2
				c-0.1,0.4-0.1,0.8-0.1,1.1l0,0C16.6,32.8,17,33.3,17.8,33.3z M32,25l-1.8,5.1c-0.2,0.5-0.3,1-0.4,1.3c-0.1,0.4-0.1,0.6-0.1,0.9
				l0,0c0,0.3,0.1,0.6,0.2,0.8c0.2,0.2,0.4,0.3,0.7,0.3l0,0c0.3,0,0.6-0.1,0.9-0.3s0.6-0.4,0.9-0.7c0.3-0.3,0.6-0.7,0.8-1.1
				c0.3-0.4,0.5-0.9,0.7-1.3l0,0c0.2-0.5,0.3-0.9,0.4-1.4c0.1-0.5,0.2-1,0.2-1.5l0,0c0-0.4,0-0.7-0.1-0.9c0-0.2-0.1-0.4-0.2-0.5
				c-0.1-0.1-0.1-0.2-0.2-0.3c0-0.1-0.1-0.1-0.1-0.2l0,0c0-0.1,0-0.2,0.1-0.2c0.1-0.1,0.2-0.1,0.3-0.1l0,0c0.1,0,0.2,0,0.3,0.1
				c0.1,0.1,0.1,0.2,0.2,0.4c0,0.2,0.1,0.3,0.1,0.5c0,0.2,0,0.4,0,0.6l0,0c0,0.3,0,0.6-0.1,1c0,0.3-0.1,0.6-0.2,0.9
				s-0.2,0.6-0.3,0.9c-0.1,0.3-0.2,0.5-0.3,0.8l0,0c-0.2,0.5-0.5,1-0.8,1.4c-0.3,0.4-0.6,0.8-0.9,1.1c-0.3,0.3-0.7,0.6-1,0.7
				c-0.4,0.2-0.7,0.3-1.1,0.3l0,0c-0.3,0-0.5,0-0.7-0.1c-0.2-0.1-0.4-0.2-0.5-0.4c-0.1-0.2-0.2-0.4-0.3-0.6
				c-0.1-0.2-0.1-0.5-0.1-0.8l0,0c0-0.1,0-0.1,0-0.2c0-0.1,0-0.2,0-0.2l0,0c-0.2,0.4-0.5,0.7-0.7,1c-0.3,0.3-0.5,0.5-0.8,0.7
				c-0.3,0.2-0.6,0.4-0.8,0.5c-0.3,0.1-0.6,0.2-0.9,0.2l0,0c-0.3,0-0.5,0-0.7-0.1c-0.2-0.1-0.4-0.2-0.5-0.4
				c-0.1-0.2-0.2-0.4-0.3-0.6C24,32.4,24,32.1,24,31.8l0,0c0-0.2,0-0.5,0.1-0.8c0.1-0.3,0.2-0.6,0.3-0.9l0,0l1.8-5.1h1.1l-1.8,5.1
				c-0.2,0.5-0.3,1-0.4,1.3c-0.1,0.4-0.1,0.6-0.1,0.9l0,0c0,0.3,0.1,0.6,0.2,0.8c0.2,0.2,0.4,0.3,0.7,0.3l0,0c0.3,0,0.6-0.1,0.9-0.3
				c0.3-0.2,0.6-0.4,0.9-0.7c0.3-0.3,0.6-0.6,0.8-1c0.3-0.4,0.5-0.8,0.6-1.3l0,0L31,25H32z M46,24.8L45.8,25
				c-0.1-0.1-0.1-0.2-0.1-0.4c0-0.1-0.1-0.3-0.1-0.5l0,0c0-0.3,0.1-0.6,0.2-0.9c0.1-0.3,0.3-0.5,0.5-0.7c0.2-0.2,0.5-0.3,0.8-0.4
				c0.3-0.1,0.6-0.2,1-0.2l0,0c0.2,0,0.3,0,0.5,0s0.2,0.1,0.4,0.1c0.1,0,0.2,0.1,0.4,0.1c0.1,0,0.3,0.1,0.4,0.1
				c0.2,0,0.4,0.1,0.6,0.1c0.2,0,0.5,0,0.8,0l0,0c0.2,0,0.5,0,0.6,0c0.2,0,0.4,0,0.5-0.1c0.2,0,0.3-0.1,0.5-0.1
				c0.2-0.1,0.3-0.1,0.5-0.2l0,0v0.1c-0.1,0-0.3,0.1-0.4,0.2c-0.2,0.1-0.3,0.2-0.5,0.3c-0.2,0.1-0.3,0.2-0.4,0.4
				c-0.1,0.1-0.2,0.3-0.3,0.4l0,0c-0.1,0.1-0.1,0.2-0.2,0.2c-0.1,0.1-0.1,0.2-0.2,0.4c-0.1,0.1-0.1,0.3-0.2,0.6
				c-0.1,0.2-0.2,0.5-0.3,0.8c-0.1,0.3-0.3,0.8-0.5,1.2c-0.2,0.5-0.4,1.1-0.6,1.7l0,0c0.5-0.1,1-0.2,1.6-0.4
				c0.5-0.1,1.1-0.3,1.7-0.5l0,0c0.2-0.5,0.4-0.9,0.6-1.4c0.2-0.5,0.5-0.9,0.8-1.3c0.3-0.4,0.6-0.8,0.9-1.1c0.3-0.3,0.6-0.6,1-0.9
				c0.3-0.2,0.7-0.4,1-0.6c0.4-0.1,0.7-0.2,1.1-0.2l0,0c0.2,0,0.4,0,0.5,0.1c0.1,0,0.3,0.1,0.3,0.2s0.1,0.2,0.2,0.3
				c0,0.1,0.1,0.2,0.1,0.4l0,0c0,0.3-0.1,0.7-0.3,1c-0.2,0.3-0.5,0.7-0.8,1c-0.3,0.3-0.7,0.6-1.1,0.9c-0.4,0.3-0.8,0.5-1.3,0.7l0,0
				c-0.3,0.2-0.6,0.3-0.9,0.5c-0.3,0.1-0.6,0.3-1,0.4l0,0c-0.1,0.4-0.3,0.7-0.4,1.1c-0.1,0.4-0.2,0.8-0.3,1.1
				c-0.1,0.4-0.1,0.7-0.2,1.1c0,0.4-0.1,0.7-0.1,1l0,0c0,0.4,0,0.7,0.1,0.9c0,0.2,0.1,0.4,0.2,0.5c0.1,0.1,0.2,0.2,0.4,0.3
				c0.1,0,0.3,0.1,0.5,0.1l0,0c0.7,0,1.3-0.3,1.9-0.9c0.6-0.6,1.3-1.5,1.9-2.6l0,0l0.4-0.7l0.2,0.1l-0.4,0.7
				c-0.4,0.6-0.7,1.2-1.1,1.7c-0.3,0.5-0.7,0.9-1,1.2c-0.3,0.3-0.7,0.5-1,0.7c-0.3,0.1-0.7,0.2-1.1,0.2l0,0c-0.4,0-0.7-0.1-1-0.2
				c-0.3-0.2-0.5-0.4-0.6-0.6c-0.2-0.3-0.3-0.5-0.3-0.9c-0.1-0.3-0.1-0.7-0.1-1l0,0c0-0.5,0.1-1.1,0.2-1.6c0.1-0.6,0.3-1.1,0.5-1.7
				l0,0c-0.6,0.2-1.1,0.3-1.6,0.5c-0.5,0.1-1.1,0.2-1.6,0.4l0,0c-0.3,0.9-0.7,1.7-1,2.3c-0.3,0.7-0.7,1.2-1.1,1.6
				c-0.4,0.4-0.8,0.8-1.3,1c-0.4,0.2-0.9,0.3-1.5,0.3l0,0c-0.4,0-0.7,0-1-0.1c-0.3-0.1-0.5-0.2-0.7-0.4c-0.2-0.2-0.3-0.4-0.4-0.6
				c-0.1-0.2-0.1-0.5-0.1-0.8l0,0c0-0.4,0.1-0.8,0.3-1.1s0.5-0.6,0.8-0.8c0.3-0.2,0.7-0.4,1.2-0.6c0.5-0.2,0.9-0.3,1.5-0.4l0,0
				c0.3-0.1,0.6-0.1,1-0.2c0.4-0.1,0.7-0.1,1.2-0.2l0,0c0.2-0.4,0.3-0.8,0.4-1.1c0.1-0.3,0.2-0.6,0.3-0.9c0.1-0.3,0.2-0.5,0.3-0.7
				c0.1-0.2,0.2-0.4,0.2-0.5c0.1-0.2,0.1-0.3,0.2-0.4c0.1-0.1,0.2-0.3,0.2-0.4l0,0c0.1-0.1,0.2-0.3,0.3-0.5c0.1-0.2,0.3-0.3,0.4-0.5
				c0.2-0.2,0.3-0.3,0.5-0.5c0.2-0.2,0.4-0.3,0.6-0.5l0,0c-0.3,0.1-0.7,0.2-1,0.2c-0.3,0.1-0.6,0.1-0.9,0.1l0,0
				c-0.3,0-0.5,0-0.8-0.1c-0.3,0-0.5-0.1-0.7-0.2c-0.2-0.1-0.4-0.1-0.7-0.2c-0.2,0-0.4-0.1-0.5-0.1l0,0c-0.2,0-0.4,0-0.5,0.1
				c-0.2,0.1-0.3,0.2-0.4,0.3c-0.1,0.1-0.2,0.3-0.3,0.5c-0.1,0.2-0.1,0.4-0.1,0.7l0,0C45.9,24.4,45.9,24.6,46,24.8L46,24.8z
				 M44.6,33.6L44.6,33.6c0.3,0,0.5,0,0.7-0.1c0.2-0.1,0.4-0.2,0.6-0.3c0.2-0.1,0.4-0.3,0.5-0.5c0.2-0.2,0.4-0.5,0.5-0.9
				c0.2-0.4,0.4-0.8,0.6-1.2c0.2-0.5,0.4-1,0.7-1.7l0,0c-0.4,0.1-0.7,0.1-1,0.2c-0.3,0.1-0.6,0.1-0.9,0.2l0,0
				c-0.5,0.1-0.9,0.2-1.3,0.4c-0.4,0.1-0.8,0.3-1.1,0.5c-0.3,0.2-0.6,0.5-0.8,0.8s-0.3,0.6-0.3,1.1l0,0c0,0.2,0,0.4,0.1,0.6
				c0.1,0.2,0.2,0.4,0.3,0.5c0.1,0.1,0.3,0.3,0.5,0.3C44,33.5,44.2,33.6,44.6,33.6z M58.4,22.2L58.4,22.2c-0.4,0-0.7,0.1-1.1,0.4
				c-0.4,0.3-0.7,0.6-1.1,1c-0.4,0.4-0.7,0.9-1,1.5c-0.3,0.6-0.6,1.2-0.9,1.8l0,0c0.3-0.1,0.5-0.2,0.8-0.4c0.3-0.1,0.5-0.3,0.8-0.4
				l0,0c0.4-0.2,0.8-0.4,1.2-0.7c0.4-0.3,0.7-0.5,1-0.8s0.5-0.6,0.7-0.9c0.2-0.3,0.3-0.6,0.3-0.9l0,0c0-0.2-0.1-0.4-0.2-0.5
				C58.8,22.3,58.6,22.2,58.4,22.2z M58.4,29.3L58.4,29.3c0.2-0.5,0.4-1,0.6-1.4c0.2-0.4,0.5-0.8,0.8-1.1c0.3-0.3,0.6-0.6,0.9-0.9
				c0.3-0.2,0.6-0.4,0.9-0.6c0.3-0.2,0.6-0.3,0.9-0.3c0.3-0.1,0.6-0.1,0.8-0.1l0,0c0.3,0,0.5,0,0.7,0.1c0.2,0.1,0.3,0.2,0.4,0.4
				c0.1,0.2,0.2,0.3,0.2,0.6c0,0.2,0.1,0.5,0.1,0.7l0,0l0.6-1.6h1.1l-1.8,5.1c-0.1,0.2-0.1,0.4-0.2,0.6c-0.1,0.2-0.1,0.4-0.2,0.6
				c0,0.2-0.1,0.4-0.1,0.6c0,0.2,0,0.3,0,0.5l0,0c0,0.3,0.1,0.6,0.3,0.8c0.2,0.2,0.4,0.3,0.8,0.3l0,0c0.3,0,0.6-0.1,0.9-0.2
				c0.3-0.1,0.6-0.3,0.9-0.6c0.3-0.3,0.6-0.6,0.9-1.1c0.3-0.4,0.6-0.9,0.9-1.5l0,0l0.4-0.7l0.2,0.1l-0.4,0.7c-0.4,0.6-0.7,1.2-1,1.6
				c-0.3,0.5-0.6,0.8-1,1.1c-0.3,0.3-0.6,0.5-1,0.7c-0.3,0.1-0.7,0.2-1.1,0.2l0,0c-0.3,0-0.6,0-0.8-0.1c-0.2-0.1-0.4-0.2-0.6-0.4
				c-0.2-0.2-0.3-0.4-0.3-0.6c-0.1-0.2-0.1-0.5-0.1-0.8l0,0c0-0.2,0-0.4,0.1-0.6c0-0.2,0.1-0.4,0.2-0.7l0,0
				c-0.6,1.1-1.3,1.8-1.9,2.4c-0.6,0.5-1.2,0.8-1.9,0.8l0,0c-0.3,0-0.6-0.1-0.8-0.2c-0.2-0.1-0.4-0.3-0.5-0.5
				c-0.1-0.2-0.2-0.4-0.3-0.7c-0.1-0.3-0.1-0.6-0.1-0.9l0,0c0-0.3,0-0.7,0.1-1.1C58.2,30.1,58.3,29.7,58.4,29.3z M60,33.3L60,33.3
				c0.3,0,0.5-0.1,0.8-0.2c0.3-0.1,0.5-0.3,0.8-0.6c0.3-0.2,0.5-0.5,0.8-0.8c0.3-0.3,0.5-0.7,0.7-1c0.2-0.4,0.4-0.7,0.6-1.1
				c0.2-0.4,0.4-0.8,0.5-1.1c0.1-0.4,0.2-0.7,0.3-1.1s0.1-0.6,0.1-0.9l0,0c0-0.2,0-0.5-0.1-0.6s-0.1-0.3-0.2-0.4
				c-0.1-0.1-0.2-0.2-0.3-0.2c-0.1,0-0.3-0.1-0.4-0.1l0,0c-0.3,0-0.6,0.1-0.9,0.2c-0.3,0.2-0.7,0.4-1,0.8c-0.3,0.3-0.7,0.8-1,1.3
				c-0.3,0.5-0.6,1.1-0.9,1.8l0,0c-0.2,0.6-0.4,1.1-0.5,1.6c-0.1,0.5-0.2,0.9-0.2,1.2l0,0c0,0.4,0.1,0.7,0.2,0.9
				C59.4,33.2,59.6,33.3,60,33.3z M67.7,33.6l3.1-8.6h1.1l-1.1,3.1c0.3-0.5,0.6-1,0.9-1.4c0.3-0.4,0.6-0.7,0.9-1
				c0.3-0.3,0.6-0.5,0.9-0.6c0.3-0.1,0.6-0.2,1-0.2l0,0c0.3,0,0.6,0,0.8,0.1c0.2,0.1,0.4,0.2,0.6,0.4c0.2,0.2,0.3,0.4,0.3,0.6
				c0.1,0.2,0.1,0.5,0.1,0.7l0,0c0,0.3,0,0.6-0.1,0.9c-0.1,0.3-0.2,0.7-0.3,1c-0.1,0.3-0.3,0.7-0.4,1c-0.1,0.3-0.3,0.7-0.4,1
				c-0.1,0.3-0.2,0.6-0.3,0.9c-0.1,0.3-0.1,0.5-0.1,0.7l0,0c0,0.3,0.1,0.5,0.3,0.7c0.2,0.2,0.5,0.3,0.8,0.3l0,0
				c0.3,0,0.6-0.1,0.9-0.2c0.3-0.1,0.6-0.4,0.9-0.6c0.3-0.3,0.6-0.6,0.9-1.1c0.3-0.4,0.6-0.9,0.9-1.5l0,0l0.4-0.7l0.2,0.1l-0.4,0.7
				c-0.3,0.6-0.7,1.1-1,1.6c-0.3,0.5-0.6,0.8-1,1.1c-0.3,0.3-0.6,0.5-1,0.7c-0.3,0.1-0.7,0.2-1,0.2l0,0c-0.3,0-0.6,0-0.8-0.1
				c-0.2-0.1-0.4-0.2-0.6-0.4c-0.2-0.2-0.3-0.3-0.3-0.6c-0.1-0.2-0.1-0.4-0.1-0.7l0,0c0-0.2,0-0.5,0.1-0.8c0.1-0.3,0.2-0.6,0.3-1
				c0.1-0.3,0.3-0.7,0.4-1c0.1-0.3,0.3-0.7,0.4-1c0.1-0.3,0.2-0.6,0.3-0.9c0.1-0.3,0.1-0.6,0.1-0.8l0,0c0-0.2,0-0.3-0.1-0.5
				c0-0.1-0.1-0.3-0.2-0.4s-0.2-0.2-0.4-0.2c-0.1-0.1-0.3-0.1-0.5-0.1l0,0c-0.3,0-0.6,0.1-0.9,0.2c-0.3,0.1-0.6,0.4-0.9,0.7
				c-0.3,0.3-0.6,0.7-0.9,1.1c-0.3,0.4-0.6,1-0.9,1.5l0,0l-0.4,0.7l-1.5,4.1H67.7z M79.7,29.3L79.7,29.3c0.2-0.5,0.4-1,0.6-1.4
				c0.2-0.4,0.5-0.8,0.8-1.1c0.3-0.3,0.6-0.6,0.9-0.9c0.3-0.2,0.6-0.4,0.9-0.6c0.3-0.2,0.6-0.3,0.9-0.3c0.3-0.1,0.6-0.1,0.8-0.1l0,0
				c0.3,0,0.5,0,0.7,0.1c0.2,0.1,0.3,0.2,0.4,0.4c0.1,0.2,0.2,0.3,0.2,0.6c0,0.2,0.1,0.5,0.1,0.7l0,0l2-5.4h1.1l-3.2,8.9
				c-0.1,0.2-0.1,0.4-0.2,0.6c-0.1,0.2-0.1,0.4-0.2,0.6c0,0.2-0.1,0.4-0.1,0.5c0,0.2,0,0.3,0,0.5l0,0c0,0.3,0.1,0.6,0.3,0.8
				c0.2,0.2,0.4,0.3,0.8,0.3l0,0c0.3,0,0.6-0.1,0.9-0.2c0.3-0.1,0.6-0.3,0.9-0.6c0.3-0.3,0.6-0.6,0.9-1.1s0.6-0.9,0.9-1.5l0,0
				l0.4-0.7l0.2,0.1l-0.4,0.7c-0.3,0.6-0.7,1.2-1,1.6c-0.3,0.5-0.6,0.8-1,1.1c-0.3,0.3-0.6,0.5-1,0.7c-0.3,0.1-0.7,0.2-1.1,0.2l0,0
				c-0.3,0-0.6,0-0.8-0.1c-0.2-0.1-0.4-0.2-0.6-0.4c-0.2-0.2-0.3-0.4-0.3-0.6c-0.1-0.2-0.1-0.5-0.1-0.8l0,0c0-0.2,0-0.4,0.1-0.6
				c0-0.2,0.1-0.4,0.2-0.7l0,0c-0.6,1.1-1.3,1.8-1.9,2.4c-0.6,0.5-1.2,0.8-1.9,0.8l0,0c-0.3,0-0.6-0.1-0.8-0.2
				c-0.2-0.1-0.4-0.3-0.5-0.5c-0.1-0.2-0.2-0.4-0.3-0.7c-0.1-0.3-0.1-0.6-0.1-0.9l0,0c0-0.3,0-0.7,0.1-1.1
				C79.5,30.1,79.6,29.7,79.7,29.3z M81.2,33.3L81.2,33.3c0.3,0,0.5-0.1,0.8-0.2c0.3-0.1,0.5-0.3,0.8-0.6c0.3-0.2,0.5-0.5,0.8-0.8
				c0.3-0.3,0.5-0.7,0.7-1c0.2-0.4,0.4-0.7,0.6-1.1c0.2-0.4,0.4-0.8,0.5-1.1c0.1-0.4,0.2-0.7,0.3-1.1s0.1-0.6,0.1-0.9l0,0
				c0-0.2,0-0.5-0.1-0.6s-0.1-0.3-0.2-0.4c-0.1-0.1-0.2-0.2-0.3-0.2c-0.1,0-0.3-0.1-0.4-0.1l0,0c-0.3,0-0.6,0.1-0.9,0.2
				s-0.7,0.4-1,0.8c-0.3,0.3-0.7,0.8-1,1.3c-0.3,0.5-0.6,1.1-0.9,1.8l0,0c-0.2,0.6-0.4,1.1-0.5,1.6c-0.1,0.5-0.2,0.9-0.2,1.2l0,0
				c0,0.4,0.1,0.7,0.2,0.9C80.7,33.2,80.9,33.3,81.2,33.3z M104.7,29.2L104.7,29.2c-0.3,0.8-0.6,1.5-0.8,2.2
				c-0.3,0.7-0.6,1.3-0.9,1.8l0,0c0.5,0,0.9-0.1,1.3-0.2c0.4-0.1,0.7-0.2,1-0.3c0.3-0.1,0.6-0.2,0.8-0.4c0.2-0.2,0.5-0.4,0.7-0.6
				c0.2-0.2,0.4-0.5,0.6-0.8c0.2-0.3,0.4-0.6,0.6-1l0,0l0.4-0.7l0.2,0.1l-0.4,0.7c-0.2,0.4-0.5,0.8-0.7,1.1
				c-0.2,0.3-0.5,0.6-0.7,0.8c-0.2,0.2-0.5,0.4-0.8,0.6c-0.3,0.2-0.6,0.3-0.9,0.4c-0.3,0.1-0.7,0.2-1,0.3c-0.4,0.1-0.8,0.1-1.2,0.2
				l0,0c-0.4,0.7-0.8,1.2-1.1,1.7c-0.4,0.5-0.8,0.9-1.2,1.2c-0.4,0.3-0.9,0.6-1.4,0.7c-0.5,0.2-1,0.2-1.5,0.2l0,0
				c-0.6,0-1-0.1-1.3-0.4c-0.3-0.3-0.5-0.7-0.5-1.2l0,0c0-0.3,0.1-0.7,0.3-0.9c0.2-0.3,0.6-0.5,1.1-0.7c0.5-0.2,1.1-0.4,1.9-0.5
				c0.8-0.1,1.7-0.3,2.8-0.4l0,0c0.2-0.4,0.4-0.9,0.6-1.4c0.2-0.5,0.4-1,0.6-1.6l0,0c0.3-0.8,0.6-1.6,0.8-2.2
				c0.2-0.6,0.4-1.1,0.6-1.6c0.2-0.4,0.3-0.8,0.5-1.1c0.1-0.3,0.3-0.6,0.4-0.8l0,0c0.2-0.4,0.5-0.8,0.8-1.1c0.3-0.3,0.6-0.6,1-0.8
				l0,0c-0.3,0.1-0.6,0.2-1,0.2c-0.3,0.1-0.6,0.1-0.9,0.1l0,0c-0.3,0-0.5,0-0.8-0.1c-0.3,0-0.5-0.1-0.7-0.2
				c-0.2-0.1-0.4-0.1-0.7-0.2c-0.2,0-0.4-0.1-0.5-0.1l0,0c-0.2,0-0.4,0-0.5,0.1c-0.2,0.1-0.3,0.2-0.4,0.3c-0.1,0.1-0.2,0.3-0.3,0.5
				s-0.1,0.4-0.1,0.7l0,0c0,0.3,0,0.5,0.1,0.7l0,0l-0.3,0.1c-0.1-0.1-0.1-0.2-0.1-0.4c0-0.1-0.1-0.3-0.1-0.5l0,0
				c0-0.3,0.1-0.6,0.2-0.9c0.1-0.3,0.3-0.5,0.5-0.7c0.2-0.2,0.5-0.3,0.8-0.4c0.3-0.1,0.6-0.2,1-0.2l0,0c0.2,0,0.3,0,0.5,0
				c0.1,0,0.2,0.1,0.4,0.1c0.1,0,0.2,0.1,0.4,0.1c0.1,0,0.3,0.1,0.4,0.1c0.2,0,0.4,0.1,0.6,0.1c0.2,0,0.5,0,0.8,0l0,0
				c0.2,0,0.5,0,0.6,0c0.2,0,0.4,0,0.5-0.1c0.2,0,0.3-0.1,0.5-0.1c0.2-0.1,0.3-0.1,0.5-0.2l0,0v0.1c-0.1,0-0.3,0.1-0.4,0.2
				c-0.1,0.1-0.3,0.1-0.4,0.2c-0.1,0.1-0.3,0.2-0.4,0.4c-0.1,0.1-0.3,0.3-0.4,0.5l0,0c-0.1,0.2-0.3,0.5-0.4,0.8
				c-0.1,0.3-0.3,0.7-0.5,1.1c-0.2,0.5-0.4,1-0.6,1.6C105.3,27.5,105,28.3,104.7,29.2z M97.7,37L97.7,37c0.4,0,0.8-0.1,1.2-0.2
				c0.4-0.1,0.7-0.3,1-0.6c0.3-0.3,0.6-0.6,0.9-1.1c0.3-0.4,0.6-1,0.9-1.7l0,0c-0.5,0-1,0.1-1.4,0.2c-0.5,0.1-0.9,0.1-1.3,0.2
				s-0.8,0.2-1.1,0.3c-0.3,0.1-0.6,0.2-0.9,0.4c-0.2,0.2-0.4,0.3-0.6,0.5c-0.1,0.2-0.2,0.4-0.2,0.6l0,0c0,0.4,0.1,0.7,0.4,0.9
				C96.9,36.9,97.2,37,97.7,37z M108.1,30.1L110,25h1.1l-1.8,5.1c-0.1,0.2-0.1,0.4-0.2,0.6c-0.1,0.2-0.1,0.4-0.2,0.6
				c0,0.2-0.1,0.4-0.1,0.6c0,0.2,0,0.3,0,0.5l0,0c0,0.3,0.1,0.6,0.3,0.8c0.2,0.2,0.4,0.3,0.8,0.3l0,0c0.3,0,0.6-0.1,0.9-0.2
				c0.3-0.1,0.6-0.4,0.9-0.6c0.3-0.3,0.6-0.6,0.9-1.1c0.3-0.4,0.6-0.9,0.9-1.5l0,0l0.4-0.6l1.6-4.3h1.1l-1.8,5.1
				c-0.1,0.2-0.1,0.4-0.2,0.6c-0.1,0.2-0.1,0.4-0.2,0.6c-0.1,0.2-0.1,0.4-0.1,0.6c0,0.2,0,0.3,0,0.5l0,0c0,0.3,0.1,0.6,0.3,0.8
				c0.2,0.2,0.4,0.3,0.8,0.3l0,0c0.3,0,0.6-0.1,0.9-0.2c0.3-0.1,0.6-0.4,0.9-0.6c0.3-0.3,0.6-0.6,0.9-1.1c0.3-0.4,0.6-0.9,0.9-1.5
				l0,0l0.4-0.7l0.2,0.1l-0.4,0.7c-0.3,0.6-0.7,1.2-1,1.6s-0.6,0.8-1,1.1c-0.3,0.3-0.6,0.5-1,0.7c-0.3,0.1-0.7,0.2-1.1,0.2l0,0
				c-0.3,0-0.6,0-0.8-0.1c-0.2-0.1-0.4-0.2-0.6-0.4c-0.2-0.2-0.3-0.4-0.3-0.6c-0.1-0.2-0.1-0.5-0.1-0.8l0,0c0-0.2,0-0.4,0.1-0.6
				c0-0.2,0.1-0.4,0.2-0.7l0,0c-0.3,0.5-0.6,1-0.9,1.4c-0.3,0.4-0.6,0.7-0.9,1c-0.3,0.3-0.6,0.5-0.9,0.6c-0.3,0.1-0.6,0.2-1,0.2l0,0
				c-0.3,0-0.6,0-0.8-0.1c-0.2-0.1-0.4-0.2-0.6-0.4c-0.2-0.2-0.3-0.4-0.3-0.6c-0.1-0.2-0.1-0.5-0.1-0.8l0,0c0-0.2,0-0.5,0.1-0.8
				C107.9,30.7,108,30.4,108.1,30.1L108.1,30.1z M118.1,31.6L118.1,31.6c0-0.2,0-0.5,0.1-0.7c0.1-0.2,0.1-0.5,0.2-0.7
				c0.1-0.2,0.2-0.4,0.3-0.6c0.1-0.2,0.2-0.3,0.4-0.4l0,0l3-4.4c0.1-0.4,0.1-0.7,0.3-0.9c0.1-0.2,0.3-0.4,0.5-0.4l0,0
				c0.1,0,0.3,0,0.4,0.1c0.1,0.1,0.1,0.2,0.1,0.3l0,0c0,0.1,0,0.2-0.1,0.2c0,0.1-0.1,0.1-0.2,0.2l0,0c-0.1,0.1-0.2,0.2-0.3,0.3
				c-0.1,0.1-0.1,0.2-0.2,0.2c0,0.1-0.1,0.2-0.1,0.3c0,0.1,0,0.2,0,0.3l0,0c0,0.1,0,0.2,0,0.3c0,0.1,0,0.3,0.1,0.4
				c0,0.2,0.1,0.4,0.2,0.7c0.1,0.3,0.2,0.6,0.3,1l0,0c0.1,0.4,0.2,0.8,0.3,1.2c0.1,0.4,0.1,0.7,0.1,1.1l0,0c0,1.3-0.5,2.3-1.4,3l0,0
				c-0.3,0.2-0.6,0.4-0.9,0.5c-0.3,0.1-0.7,0.2-1,0.2l0,0c-0.3,0-0.6,0-0.9-0.1c-0.3-0.1-0.5-0.2-0.6-0.4s-0.3-0.4-0.4-0.7
				C118.2,32.2,118.1,31.9,118.1,31.6z M122.1,25.5v-0.2l-2.6,3.8c0.2,0,0.3,0.1,0.4,0.2c0.1,0.1,0.1,0.2,0.1,0.4l0,0
				c0,0.1,0,0.2,0,0.3c0,0.1-0.1,0.1-0.1,0.2c0,0.1-0.1,0.1-0.2,0.1c-0.1,0-0.1,0.1-0.2,0.1l0,0c-0.1,0-0.2,0-0.2,0
				c-0.1,0-0.1-0.1-0.2-0.1l0,0c-0.1,0-0.2,0-0.3,0.1c-0.1,0.1-0.2,0.2-0.2,0.3c-0.1,0.1-0.1,0.3-0.2,0.4c0,0.2-0.1,0.4-0.1,0.6l0,0
				c0,0.3,0,0.5,0.1,0.7c0.1,0.2,0.2,0.4,0.3,0.6c0.1,0.2,0.3,0.3,0.5,0.3c0.2,0.1,0.4,0.1,0.7,0.1l0,0c0.3,0,0.7-0.1,0.9-0.2
				c0.3-0.1,0.5-0.4,0.8-0.6l0,0c0.5-0.7,0.8-1.7,0.8-3l0,0c0-0.2,0-0.3,0-0.5c0-0.2,0-0.3,0-0.5c0-0.2,0-0.4-0.1-0.6
				c0-0.2-0.1-0.4-0.1-0.7l0,0c-0.1-0.4-0.1-0.8-0.2-1.1C122.2,25.9,122.1,25.6,122.1,25.5L122.1,25.5z M125.9,25.3V25h2.1l0.7-1.9
				h1.1l-0.7,1.9h2.2v0.3H129l-1.7,4.8c-0.1,0.2-0.1,0.4-0.2,0.6c-0.1,0.2-0.1,0.4-0.2,0.6c-0.1,0.2-0.1,0.4-0.1,0.6
				c0,0.2,0,0.3,0,0.5l0,0c0,0.3,0.1,0.6,0.3,0.8c0.2,0.2,0.5,0.3,0.8,0.3l0,0c0.4,0,0.7-0.1,1-0.2c0.3-0.1,0.7-0.3,1-0.6
				c0.3-0.3,0.6-0.6,1-1.1c0.3-0.4,0.6-0.9,1-1.5l0,0l0.4-0.7l0.2,0.1l-0.4,0.7c-0.4,0.7-0.8,1.2-1.1,1.7c-0.4,0.5-0.7,0.8-1.1,1.1
				c-0.3,0.3-0.7,0.5-1.1,0.6c-0.4,0.1-0.7,0.2-1.1,0.2l0,0c-0.3,0-0.6,0-0.8-0.1c-0.2-0.1-0.4-0.2-0.6-0.4
				c-0.2-0.2-0.3-0.4-0.3-0.6c-0.1-0.2-0.1-0.5-0.1-0.8l0,0c0-0.2,0-0.5,0.1-0.8c0.1-0.3,0.1-0.6,0.3-0.9l0,0l1.7-4.8H125.9z
				 M131.9,30.1l1.8-5.1h1.1l-1.8,5.1c-0.1,0.2-0.1,0.4-0.2,0.6c-0.1,0.2-0.1,0.4-0.2,0.6c-0.1,0.2-0.1,0.4-0.1,0.6
				c0,0.2,0,0.3,0,0.5l0,0c0,0.3,0.1,0.6,0.3,0.8c0.2,0.2,0.5,0.3,0.8,0.3l0,0c0.3,0,0.6-0.1,0.9-0.2c0.3-0.1,0.6-0.4,0.9-0.6
				c0.3-0.3,0.6-0.6,0.9-1.1c0.3-0.4,0.6-0.9,0.9-1.5l0,0l0.4-0.7l0.2,0.1l-0.4,0.7c-0.4,0.6-0.7,1.2-1,1.6c-0.3,0.5-0.6,0.8-1,1.1
				c-0.3,0.3-0.6,0.5-1,0.7c-0.3,0.1-0.7,0.2-1.1,0.2l0,0c-0.3,0-0.6,0-0.8-0.1c-0.2-0.1-0.4-0.2-0.6-0.4c-0.2-0.2-0.3-0.4-0.3-0.6
				c-0.1-0.2-0.1-0.5-0.1-0.8l0,0c0-0.2,0-0.5,0.1-0.8C131.7,30.7,131.8,30.4,131.9,30.1L131.9,30.1z M134.3,23.1L134.3,23.1
				c0-0.2,0.1-0.3,0.2-0.4c0.1-0.1,0.3-0.2,0.4-0.2l0,0c0.2,0,0.3,0.1,0.4,0.2c0.1,0.1,0.2,0.3,0.2,0.4l0,0c0,0.1,0,0.2,0,0.2
				c0,0.1-0.1,0.1-0.1,0.2c-0.1,0.1-0.1,0.1-0.2,0.1c-0.1,0-0.2,0-0.2,0l0,0c-0.2,0-0.3-0.1-0.4-0.2
				C134.4,23.4,134.3,23.3,134.3,23.1z M142.9,26.7L142.9,26.7c-0.2,0-0.3,0-0.4-0.1s-0.1-0.2-0.1-0.4l0,0c0-0.2,0-0.3,0.1-0.4
				c0.1-0.1,0.2-0.1,0.3-0.1l0,0c0,0,0.1,0,0.1,0l0,0c0,0,0,0,0.1,0c0,0,0,0,0,0l0,0c0,0,0.1,0,0.1-0.1l0,0c0-0.1,0-0.1-0.1-0.2
				c0-0.1-0.1-0.1-0.2-0.2c-0.1,0-0.2-0.1-0.3-0.1c-0.1,0-0.2,0-0.3,0l0,0c-0.3,0-0.6,0.1-0.9,0.3c-0.3,0.2-0.6,0.4-0.9,0.7
				c-0.3,0.3-0.6,0.7-0.8,1.1c-0.3,0.4-0.5,0.8-0.7,1.3c-0.2,0.5-0.3,0.9-0.4,1.4c-0.1,0.5-0.2,1-0.2,1.4l0,0c0,0.4,0,0.7,0.1,0.9
				c0.1,0.3,0.2,0.5,0.3,0.6c0.1,0.2,0.3,0.3,0.5,0.4c0.2,0.1,0.5,0.1,0.8,0.1l0,0c0.4,0,0.9-0.1,1.3-0.2c0.4-0.2,0.8-0.4,1.2-0.7
				c0.4-0.3,0.8-0.6,1.1-1.1c0.4-0.4,0.7-0.9,1-1.5l0,0l0.4-0.7l0.2,0.1l-0.4,0.7c-0.7,1.2-1.4,2.1-2.3,2.7s-1.7,0.9-2.7,0.9l0,0
				c-0.9,0-1.6-0.2-2-0.7c-0.5-0.5-0.7-1.1-0.7-2l0,0c0-0.3,0-0.5,0.1-0.8c0-0.3,0.1-0.6,0.2-0.8l0,0c0.2-0.6,0.4-1.2,0.7-1.8
				s0.7-1,1.1-1.4c0.4-0.4,0.8-0.7,1.3-0.9c0.5-0.2,1-0.3,1.4-0.3l0,0c0.5,0,0.9,0.1,1.2,0.4l0,0c0.1,0.1,0.2,0.2,0.3,0.4
				c0.1,0.1,0.1,0.3,0.1,0.4l0,0c0,0.2-0.1,0.4-0.2,0.5C143.3,26.7,143.1,26.7,142.9,26.7z M147.6,33.7L147.6,33.7
				c-0.9,0-1.5-0.2-2-0.7c-0.5-0.5-0.7-1.1-0.7-2l0,0c0-0.2,0-0.5,0.1-0.8c0-0.3,0.1-0.6,0.2-0.8l0,0c0.2-0.6,0.4-1.2,0.7-1.8
				c0.3-0.5,0.7-1,1.1-1.4c0.4-0.4,0.8-0.7,1.3-0.9s0.9-0.3,1.4-0.3l0,0c0.5,0,0.9,0.1,1.1,0.3c0.3,0.2,0.4,0.5,0.4,1l0,0
				c0,0.2,0,0.5-0.1,0.7c-0.1,0.2-0.2,0.4-0.4,0.6c-0.2,0.2-0.4,0.4-0.6,0.6c-0.2,0.2-0.5,0.3-0.8,0.4l0,0c-0.4,0.2-0.8,0.3-1.2,0.4
				c-0.5,0.1-1,0.1-1.5,0.1l0,0c-0.1,0.4-0.3,0.8-0.3,1.2c-0.1,0.4-0.1,0.9-0.1,1.3l0,0c0,0.7,0.1,1.1,0.4,1.4s0.7,0.4,1.3,0.4l0,0
				c0.5,0,1-0.1,1.4-0.3c0.5-0.2,0.9-0.5,1.3-0.8c0.4-0.3,0.7-0.7,1.1-1.1c0.3-0.4,0.6-0.8,0.8-1.2l0,0l0.4-0.7l0.2,0.1l-0.4,0.7
				c-0.3,0.5-0.6,1-1,1.4c-0.4,0.4-0.7,0.8-1.2,1.1c-0.4,0.3-0.9,0.6-1.3,0.8C148.7,33.6,148.2,33.7,147.6,33.7z M149.9,25.2
				L149.9,25.2c-0.3,0-0.6,0.1-0.9,0.3c-0.3,0.2-0.6,0.4-0.9,0.7c-0.3,0.3-0.6,0.7-0.8,1.1c-0.3,0.4-0.5,0.9-0.7,1.4l0,0
				c0.5,0,1-0.1,1.4-0.1c0.4-0.1,0.7-0.2,1-0.3l0,0c0.2-0.1,0.4-0.2,0.6-0.4c0.2-0.2,0.4-0.3,0.6-0.6c0.2-0.2,0.3-0.4,0.4-0.7
				c0.1-0.2,0.1-0.5,0.1-0.8l0,0c0-0.1,0-0.2-0.1-0.3c0-0.1-0.1-0.2-0.2-0.2c-0.1-0.1-0.1-0.1-0.2-0.1
				C150.1,25.2,150,25.2,149.9,25.2z M168.1,26.6l-0.2-0.2c0.3-0.3,0.5-0.6,0.8-0.9c0.2-0.3,0.4-0.6,0.6-0.9
				c0.2-0.3,0.3-0.6,0.4-0.9s0.1-0.5,0.1-0.8l0,0c0-0.1,0-0.2,0-0.3c0-0.1-0.1-0.2-0.1-0.2c0-0.1-0.1-0.1-0.2-0.2
				c-0.1,0-0.2-0.1-0.3-0.1l0,0c-0.3,0-0.6,0.1-0.8,0.3c-0.3,0.2-0.6,0.5-0.8,0.8l0,0c-0.2,0.3-0.4,0.6-0.6,0.9
				c-0.2,0.3-0.3,0.7-0.5,1.1c-0.2,0.4-0.3,0.8-0.5,1.2c-0.2,0.4-0.3,0.9-0.5,1.3l0,0c-0.2,0.6-0.5,1.2-0.7,1.7
				c-0.2,0.5-0.5,1-0.7,1.4c-0.2,0.4-0.5,0.8-0.7,1.1c-0.3,0.3-0.5,0.6-0.8,0.8l0,0c0.2,0.1,0.5,0.1,0.8,0.2
				c0.3,0.1,0.6,0.1,0.9,0.2c0.3,0.1,0.6,0.1,0.9,0.1c0.3,0,0.6,0.1,0.9,0.1l0,0c0.6,0,1-0.1,1.5-0.2c0.4-0.1,0.8-0.3,1.1-0.6
				c0.3-0.3,0.7-0.6,1-1.1c0.3-0.4,0.6-0.9,1-1.5l0,0l0.4-0.7l0.2,0.1l-0.4,0.7c-0.5,0.8-0.9,1.5-1.3,2c-0.4,0.5-0.8,0.9-1.3,1.2
				c-0.4,0.3-0.8,0.5-1.2,0.6c-0.4,0.1-0.8,0.2-1.2,0.2l0,0c-0.3,0-0.6,0-0.9-0.1c-0.3,0-0.6-0.1-1-0.2c-0.3-0.1-0.7-0.2-1-0.3
				c-0.3-0.1-0.7-0.2-1-0.3l0,0c-0.4,0.2-0.7,0.4-1.1,0.5c-0.4,0.1-0.8,0.1-1.2,0.1l0,0c-0.3,0-0.5,0-0.7-0.1
				c-0.2,0-0.3-0.1-0.5-0.2c-0.1-0.1-0.2-0.1-0.2-0.2c0-0.1-0.1-0.2-0.1-0.3l0,0c0-0.2,0.1-0.3,0.2-0.4c0.1-0.1,0.3-0.2,0.4-0.3
				c0.2-0.1,0.4-0.1,0.6-0.1c0.2,0,0.4,0,0.6,0l0,0c0.4,0,0.8,0,1.1,0.1c0.4,0.1,0.7,0.1,1,0.2l0,0c0.1-0.2,0.3-0.4,0.4-0.6
				c0.1-0.2,0.3-0.5,0.5-0.8c0.2-0.3,0.3-0.6,0.5-1c0.2-0.4,0.3-0.8,0.5-1.3l0,0c0.3-0.7,0.6-1.4,0.8-2c0.2-0.6,0.5-1.2,0.7-1.7
				c0.2-0.5,0.5-0.9,0.7-1.3c0.2-0.4,0.5-0.7,0.8-1l0,0c0.3-0.3,0.7-0.6,1-0.7c0.4-0.2,0.7-0.2,1-0.2l0,0c0.2,0,0.4,0,0.6,0.1
				c0.2,0.1,0.3,0.1,0.4,0.3s0.2,0.2,0.2,0.4c0,0.1,0.1,0.3,0.1,0.5l0,0c0,0.6-0.2,1.1-0.5,1.7C169.3,25.4,168.8,26,168.1,26.6
				L168.1,26.6z M159.6,33.6L159.6,33.6c0.4,0,0.7,0,1-0.1c0.3-0.1,0.6-0.2,0.8-0.4l0,0c-0.2,0-0.3-0.1-0.5-0.1
				c-0.2,0-0.4-0.1-0.5-0.1c-0.2,0-0.4-0.1-0.6-0.1c-0.2,0-0.4,0-0.6,0l0,0c-0.3,0-0.5,0-0.7,0.1c-0.2,0.1-0.2,0.2-0.2,0.4l0,0
				c0,0.1,0,0.1,0,0.2c0,0.1,0.1,0.1,0.2,0.1c0.1,0,0.2,0.1,0.4,0.1C159.2,33.6,159.4,33.6,159.6,33.6z M170.9,29.4L170.9,29.4
				c0.2-0.6,0.4-1.2,0.7-1.8c0.3-0.5,0.7-1,1.1-1.4s0.9-0.7,1.4-0.9c0.5-0.2,1-0.3,1.5-0.3l0,0c0.4,0,0.7,0.1,1,0.2
				c0.3,0.1,0.5,0.3,0.7,0.6c0.2,0.2,0.3,0.5,0.4,0.8c0.1,0.3,0.1,0.6,0.1,1l0,0c0,0.4,0,0.7-0.1,1.1c-0.1,0.4-0.2,0.7-0.3,1l0,0
				c-0.2,0.6-0.5,1.2-0.8,1.7c-0.3,0.5-0.7,1-1.1,1.3c-0.4,0.4-0.8,0.7-1.3,0.9c-0.5,0.2-0.9,0.3-1.4,0.3l0,0
				c-0.3,0-0.6-0.1-0.9-0.2c-0.3-0.1-0.5-0.3-0.7-0.5c-0.2-0.2-0.3-0.5-0.4-0.8c-0.1-0.3-0.2-0.7-0.2-1.1l0,0c0-0.3,0-0.5,0.1-0.8
				C170.8,29.9,170.8,29.6,170.9,29.4z M173,33.3L173,33.3c0.3,0,0.7-0.1,1.1-0.3c0.4-0.2,0.7-0.5,1-0.8c0.3-0.4,0.6-0.8,0.9-1.3
				c0.3-0.5,0.5-1,0.7-1.6l0,0c0.1-0.2,0.1-0.3,0.2-0.5c0.1-0.2,0.1-0.4,0.2-0.6c0-0.2,0.1-0.4,0.1-0.7c0-0.2,0-0.4,0-0.7l0,0
				c0-0.2,0-0.4-0.1-0.7c0-0.2-0.1-0.4-0.2-0.5c-0.1-0.2-0.2-0.3-0.4-0.4c-0.2-0.1-0.4-0.1-0.7-0.1l0,0c-0.4,0-0.7,0.1-1.1,0.3
				c-0.4,0.2-0.7,0.5-1,0.8c-0.3,0.4-0.6,0.8-0.9,1.3c-0.3,0.5-0.5,1.1-0.7,1.7l0,0c-0.1,0.4-0.2,0.8-0.3,1.2
				c-0.1,0.4-0.1,0.8-0.1,1.1l0,0C171.8,32.8,172.2,33.3,173,33.3z M180.4,37.4L180.4,37.4c-0.5,0-0.9-0.1-1.2-0.2
				c-0.3-0.1-0.6-0.3-0.7-0.6l0,0c-0.1-0.1-0.2-0.3-0.2-0.4c0-0.1-0.1-0.3-0.1-0.4l0,0c0-0.2,0.1-0.4,0.2-0.5
				c0.1-0.1,0.3-0.2,0.5-0.2l0,0c0.2,0,0.3,0,0.4,0.1c0.1,0.1,0.1,0.2,0.1,0.4l0,0c0,0.2,0,0.3-0.1,0.4s-0.2,0.1-0.3,0.1l0,0
				c-0.1,0-0.1,0-0.1,0c0,0-0.1,0-0.1,0l0,0c0,0,0,0,0,0c0,0,0,0,0,0.1l0,0c0,0.1,0,0.3,0.1,0.4c0.1,0.1,0.2,0.2,0.4,0.3
				c0.2,0.1,0.3,0.1,0.6,0.2c0.2,0,0.4,0.1,0.7,0.1l0,0c0.4,0,0.7-0.1,1-0.2c0.3-0.1,0.6-0.3,0.8-0.5c0.2-0.2,0.5-0.5,0.7-0.8
				c0.2-0.3,0.4-0.7,0.6-1.2l0,0l1.4-3.8c-0.6,1-1.2,1.8-1.8,2.3c-0.6,0.5-1.2,0.8-1.8,0.8l0,0c-0.3,0-0.6-0.1-0.8-0.2
				c-0.2-0.1-0.4-0.3-0.5-0.5c-0.1-0.2-0.2-0.4-0.3-0.7c-0.1-0.3-0.1-0.6-0.1-0.9l0,0c0-0.3,0-0.7,0.1-1.1c0.1-0.4,0.2-0.7,0.3-1.1
				l0,0c0.2-0.5,0.4-1,0.6-1.4c0.2-0.4,0.5-0.8,0.8-1.1c0.3-0.3,0.6-0.6,0.9-0.9c0.3-0.2,0.6-0.4,0.9-0.6c0.3-0.2,0.6-0.3,0.9-0.3
				c0.3-0.1,0.6-0.1,0.8-0.1l0,0c0.3,0,0.5,0,0.7,0.1c0.2,0.1,0.3,0.2,0.4,0.3c0.1,0.2,0.2,0.3,0.2,0.5c0,0.2,0.1,0.4,0.1,0.7l0,0
				l0.6-1.6h1.1l-3.4,9.4c-0.4,1-0.9,1.7-1.6,2.2C182.2,37.1,181.4,37.4,180.4,37.4z M181.3,33.3L181.3,33.3c0.3,0,0.5-0.1,0.8-0.2
				c0.3-0.1,0.5-0.3,0.8-0.6c0.3-0.2,0.5-0.5,0.8-0.8c0.3-0.3,0.5-0.7,0.7-1c0.2-0.4,0.4-0.7,0.6-1.1c0.2-0.4,0.3-0.8,0.5-1.1
				c0.1-0.4,0.2-0.7,0.3-1.1c0.1-0.3,0.1-0.6,0.1-0.9l0,0c0-0.2,0-0.5-0.1-0.6c-0.1-0.2-0.1-0.3-0.2-0.4c-0.1-0.1-0.2-0.2-0.3-0.2
				c-0.1,0-0.3-0.1-0.4-0.1l0,0c-0.3,0-0.6,0.1-0.9,0.2c-0.3,0.2-0.7,0.4-1,0.8c-0.3,0.3-0.7,0.8-1,1.3c-0.3,0.5-0.6,1.1-0.9,1.8
				l0,0c-0.2,0.6-0.4,1.1-0.5,1.6c-0.1,0.5-0.2,0.9-0.2,1.2l0,0c0,0.4,0.1,0.7,0.2,0.9C180.7,33.2,181,33.3,181.3,33.3z M189.5,29.3
				L189.5,29.3c0.2-0.5,0.4-1,0.6-1.4c0.2-0.4,0.5-0.8,0.8-1.1s0.6-0.6,0.9-0.9c0.3-0.2,0.6-0.4,0.9-0.6c0.3-0.2,0.6-0.3,0.9-0.3
				c0.3-0.1,0.6-0.1,0.8-0.1l0,0c0.3,0,0.5,0,0.7,0.1c0.2,0.1,0.3,0.2,0.4,0.4c0.1,0.2,0.2,0.3,0.2,0.6c0,0.2,0.1,0.5,0.1,0.7l0,0
				l0.6-1.6h1.1l-1.8,5.1c-0.1,0.2-0.1,0.4-0.2,0.6c-0.1,0.2-0.1,0.4-0.2,0.6c-0.1,0.2-0.1,0.4-0.1,0.6c0,0.2,0,0.3,0,0.5l0,0
				c0,0.3,0.1,0.6,0.3,0.8c0.2,0.2,0.5,0.3,0.8,0.3l0,0c0.3,0,0.6-0.1,0.9-0.2c0.3-0.1,0.6-0.3,0.9-0.6c0.3-0.3,0.6-0.6,0.9-1.1
				s0.6-0.9,0.9-1.5l0,0l0.4-0.7l0.2,0.1l-0.4,0.7c-0.4,0.6-0.7,1.2-1,1.6c-0.3,0.5-0.6,0.8-1,1.1c-0.3,0.3-0.6,0.5-1,0.7
				c-0.3,0.1-0.7,0.2-1.1,0.2l0,0c-0.3,0-0.6,0-0.8-0.1c-0.2-0.1-0.4-0.2-0.6-0.4c-0.2-0.2-0.3-0.4-0.3-0.6
				c-0.1-0.2-0.1-0.5-0.1-0.8l0,0c0-0.2,0-0.4,0-0.6c0-0.2,0.1-0.4,0.2-0.7l0,0c-0.6,1.1-1.3,1.8-1.9,2.4s-1.2,0.8-1.9,0.8l0,0
				c-0.3,0-0.6-0.1-0.8-0.2c-0.2-0.1-0.4-0.3-0.5-0.5c-0.1-0.2-0.2-0.4-0.3-0.7c-0.1-0.3-0.1-0.6-0.1-0.9l0,0c0-0.3,0-0.7,0.1-1.1
				C189.3,30.1,189.4,29.7,189.5,29.3z M191.1,33.3L191.1,33.3c0.3,0,0.5-0.1,0.8-0.2c0.3-0.1,0.5-0.3,0.8-0.6
				c0.3-0.2,0.5-0.5,0.8-0.8c0.2-0.3,0.5-0.7,0.7-1c0.2-0.4,0.4-0.7,0.6-1.1c0.2-0.4,0.3-0.8,0.5-1.1c0.1-0.4,0.2-0.7,0.3-1.1
				c0.1-0.3,0.1-0.6,0.1-0.9l0,0c0-0.2,0-0.5-0.1-0.6c-0.1-0.2-0.1-0.3-0.2-0.4c-0.1-0.1-0.2-0.2-0.3-0.2c-0.1,0-0.3-0.1-0.4-0.1
				l0,0c-0.3,0-0.6,0.1-0.9,0.2c-0.3,0.2-0.7,0.4-1,0.8c-0.3,0.3-0.7,0.8-1,1.3c-0.3,0.5-0.6,1.1-0.9,1.8l0,0
				c-0.2,0.6-0.4,1.1-0.5,1.6c-0.1,0.5-0.2,0.9-0.2,1.2l0,0c0,0.4,0.1,0.7,0.2,0.9C190.5,33.2,190.7,33.3,191.1,33.3z M198.8,33.6
				l3.1-8.6h1.1l-1.1,3.1c0.3-0.5,0.6-1,0.9-1.4c0.3-0.4,0.6-0.7,0.9-1c0.3-0.3,0.6-0.5,0.9-0.6c0.3-0.1,0.6-0.2,1-0.2l0,0
				c0.3,0,0.6,0,0.8,0.1c0.2,0.1,0.4,0.2,0.6,0.4c0.2,0.2,0.3,0.4,0.3,0.6c0.1,0.2,0.1,0.5,0.1,0.7l0,0c0,0.3,0,0.6-0.1,0.9
				c-0.1,0.3-0.2,0.7-0.3,1c-0.1,0.3-0.3,0.7-0.4,1c-0.1,0.3-0.3,0.7-0.4,1c-0.1,0.3-0.2,0.6-0.3,0.9c-0.1,0.3-0.1,0.5-0.1,0.7l0,0
				c0,0.3,0.1,0.5,0.3,0.7c0.2,0.2,0.5,0.3,0.8,0.3l0,0c0.3,0,0.6-0.1,0.9-0.2c0.3-0.1,0.6-0.4,0.9-0.6c0.3-0.3,0.6-0.6,0.9-1.1
				c0.3-0.4,0.6-0.9,0.9-1.5l0,0l0.4-0.7l0.2,0.1l-0.4,0.7c-0.3,0.6-0.7,1.1-1,1.6c-0.3,0.5-0.6,0.8-0.9,1.1c-0.3,0.3-0.6,0.5-1,0.7
				c-0.3,0.1-0.7,0.2-1,0.2l0,0c-0.3,0-0.6,0-0.8-0.1c-0.2-0.1-0.4-0.2-0.6-0.4c-0.2-0.2-0.3-0.3-0.3-0.6c-0.1-0.2-0.1-0.4-0.1-0.7
				l0,0c0-0.2,0-0.5,0.1-0.8c0.1-0.3,0.2-0.6,0.3-1s0.3-0.7,0.4-1c0.1-0.3,0.3-0.7,0.4-1c0.1-0.3,0.2-0.6,0.3-0.9
				c0.1-0.3,0.1-0.6,0.1-0.8l0,0c0-0.2,0-0.3-0.1-0.5c0-0.1-0.1-0.3-0.2-0.4s-0.2-0.2-0.4-0.2c-0.1-0.1-0.3-0.1-0.5-0.1l0,0
				c-0.3,0-0.6,0.1-0.9,0.2c-0.3,0.1-0.6,0.4-0.9,0.7c-0.3,0.3-0.6,0.7-0.9,1.1c-0.3,0.4-0.6,1-0.9,1.5l0,0l-0.4,0.7l-1.5,4.1H198.8
				z M219.7,24.8l-0.3,0.1c-0.1-0.1-0.1-0.2-0.1-0.4c0-0.1,0-0.3,0-0.5l0,0c0-0.3,0.1-0.6,0.2-0.9c0.1-0.3,0.3-0.5,0.5-0.7
				c0.2-0.2,0.5-0.3,0.8-0.4c0.3-0.1,0.6-0.2,1-0.2l0,0c0.2,0,0.3,0,0.5,0c0.1,0,0.2,0.1,0.4,0.1c0.1,0,0.2,0.1,0.4,0.1
				c0.1,0,0.3,0.1,0.4,0.1c0.2,0,0.4,0.1,0.6,0.1c0.2,0,0.5,0,0.8,0l0,0c0.2,0,0.5,0,0.6,0c0.2,0,0.4,0,0.5-0.1
				c0.2,0,0.3-0.1,0.5-0.1c0.2-0.1,0.3-0.1,0.5-0.2l0,0v0.1c-0.1,0-0.3,0.1-0.4,0.2c-0.2,0.1-0.3,0.2-0.5,0.3
				c-0.2,0.1-0.3,0.2-0.4,0.4c-0.1,0.1-0.2,0.3-0.3,0.4l0,0c-0.1,0.1-0.1,0.2-0.2,0.2c-0.1,0.1-0.1,0.2-0.2,0.4
				c-0.1,0.1-0.1,0.3-0.2,0.6c-0.1,0.2-0.2,0.5-0.3,0.8c-0.1,0.3-0.3,0.8-0.5,1.2c-0.2,0.5-0.4,1.1-0.6,1.7l0,0
				c0.5-0.1,1-0.2,1.6-0.4c0.5-0.1,1.1-0.3,1.6-0.5l0,0c0.2-0.5,0.4-0.9,0.6-1.4c0.2-0.5,0.5-0.9,0.8-1.3c0.3-0.4,0.6-0.8,0.9-1.1
				c0.3-0.3,0.6-0.6,1-0.9c0.3-0.2,0.7-0.4,1-0.6c0.4-0.1,0.7-0.2,1.1-0.2l0,0c0.2,0,0.4,0,0.5,0.1c0.1,0,0.3,0.1,0.3,0.2
				c0.1,0.1,0.1,0.2,0.2,0.3c0,0.1,0.1,0.2,0.1,0.4l0,0c0,0.3-0.1,0.7-0.3,1c-0.2,0.3-0.5,0.7-0.8,1c-0.3,0.3-0.7,0.6-1.1,0.9
				c-0.4,0.3-0.8,0.5-1.3,0.7l0,0c-0.3,0.2-0.6,0.3-0.9,0.5c-0.3,0.1-0.6,0.3-1,0.4l0,0c-0.1,0.4-0.3,0.7-0.4,1.1
				c-0.1,0.4-0.2,0.8-0.3,1.1c-0.1,0.4-0.1,0.7-0.2,1.1c0,0.4-0.1,0.7-0.1,1l0,0c0,0.4,0,0.7,0.1,0.9c0.1,0.2,0.1,0.4,0.2,0.5
				c0.1,0.1,0.2,0.2,0.4,0.3c0.1,0,0.3,0.1,0.5,0.1l0,0c0.7,0,1.3-0.3,1.9-0.9c0.6-0.6,1.3-1.5,1.9-2.6l0,0l0.4-0.7l0.2,0.1
				l-0.4,0.7c-0.4,0.6-0.7,1.2-1.1,1.7c-0.3,0.5-0.7,0.9-1,1.2c-0.3,0.3-0.7,0.5-1,0.7c-0.3,0.1-0.7,0.2-1.1,0.2l0,0
				c-0.4,0-0.7-0.1-1-0.2c-0.3-0.2-0.5-0.4-0.6-0.6c-0.2-0.3-0.3-0.5-0.3-0.9c-0.1-0.3-0.1-0.7-0.1-1l0,0c0-0.5,0.1-1.1,0.2-1.6
				c0.1-0.6,0.3-1.1,0.5-1.7l0,0c-0.6,0.2-1.1,0.3-1.6,0.5c-0.5,0.1-1.1,0.2-1.6,0.4l0,0c-0.3,0.9-0.7,1.7-1,2.3
				c-0.4,0.7-0.7,1.2-1.1,1.6c-0.4,0.4-0.8,0.8-1.3,1c-0.4,0.2-0.9,0.3-1.5,0.3l0,0c-0.4,0-0.7,0-1-0.1c-0.3-0.1-0.5-0.2-0.7-0.4
				c-0.2-0.2-0.3-0.4-0.4-0.6c-0.1-0.2-0.1-0.5-0.1-0.8l0,0c0-0.4,0.1-0.8,0.3-1.1c0.2-0.3,0.5-0.6,0.8-0.8c0.3-0.2,0.7-0.4,1.2-0.6
				c0.5-0.2,0.9-0.3,1.5-0.4l0,0c0.3-0.1,0.6-0.1,1-0.2c0.4-0.1,0.8-0.1,1.2-0.2l0,0c0.2-0.4,0.3-0.8,0.4-1.1
				c0.1-0.3,0.2-0.6,0.3-0.9c0.1-0.3,0.2-0.5,0.3-0.7c0.1-0.2,0.2-0.4,0.2-0.5c0.1-0.2,0.1-0.3,0.2-0.4c0.1-0.1,0.2-0.3,0.2-0.4l0,0
				c0.1-0.1,0.2-0.3,0.3-0.5c0.1-0.2,0.3-0.3,0.4-0.5c0.2-0.2,0.3-0.3,0.5-0.5c0.2-0.2,0.4-0.3,0.6-0.5l0,0c-0.3,0.1-0.7,0.2-1,0.2
				c-0.3,0.1-0.6,0.1-0.9,0.1l0,0c-0.3,0-0.5,0-0.8-0.1c-0.3,0-0.5-0.1-0.7-0.2c-0.2-0.1-0.5-0.1-0.7-0.2c-0.2,0-0.4-0.1-0.5-0.1
				l0,0c-0.2,0-0.4,0-0.5,0.1c-0.2,0.1-0.3,0.2-0.4,0.3c-0.1,0.1-0.2,0.3-0.3,0.5c-0.1,0.2-0.1,0.4-0.1,0.7l0,0
				C219.6,24.4,219.6,24.6,219.7,24.8L219.7,24.8z M218.2,33.6L218.2,33.6c0.3,0,0.5,0,0.7-0.1c0.2-0.1,0.4-0.2,0.6-0.3
				c0.2-0.1,0.4-0.3,0.5-0.5c0.2-0.2,0.4-0.5,0.5-0.9c0.2-0.4,0.4-0.8,0.6-1.2c0.2-0.5,0.4-1,0.7-1.7l0,0c-0.4,0.1-0.7,0.1-1,0.2
				c-0.3,0.1-0.6,0.1-0.9,0.2l0,0c-0.5,0.1-0.9,0.2-1.3,0.4c-0.4,0.1-0.8,0.3-1.1,0.5s-0.6,0.5-0.8,0.8c-0.2,0.3-0.3,0.6-0.3,1.1
				l0,0c0,0.2,0,0.4,0.1,0.6c0.1,0.2,0.2,0.4,0.3,0.5c0.1,0.1,0.3,0.3,0.5,0.3C217.7,33.5,217.9,33.6,218.2,33.6z M232.1,22.2
				L232.1,22.2c-0.4,0-0.7,0.1-1.1,0.4c-0.4,0.3-0.7,0.6-1.1,1c-0.4,0.4-0.7,0.9-1,1.5c-0.3,0.6-0.6,1.2-0.9,1.8l0,0
				c0.3-0.1,0.5-0.2,0.8-0.4c0.3-0.1,0.5-0.3,0.8-0.4l0,0c0.4-0.2,0.8-0.4,1.2-0.7c0.4-0.3,0.7-0.5,1-0.8c0.3-0.3,0.5-0.6,0.7-0.9
				c0.2-0.3,0.3-0.6,0.3-0.9l0,0c0-0.2-0.1-0.4-0.2-0.5C232.5,22.3,232.3,22.2,232.1,22.2z M232.1,29.4L232.1,29.4
				c0.2-0.6,0.4-1.2,0.7-1.8c0.3-0.5,0.7-1,1.1-1.4s0.9-0.7,1.4-0.9c0.5-0.2,1-0.3,1.5-0.3l0,0c0.4,0,0.7,0.1,1,0.2
				c0.3,0.1,0.5,0.3,0.7,0.6c0.2,0.2,0.3,0.5,0.4,0.8c0.1,0.3,0.1,0.6,0.1,1l0,0c0,0.4,0,0.7-0.1,1.1c-0.1,0.4-0.2,0.7-0.3,1l0,0
				c-0.2,0.6-0.5,1.2-0.8,1.7c-0.3,0.5-0.7,1-1.1,1.3c-0.4,0.4-0.8,0.7-1.3,0.9c-0.5,0.2-0.9,0.3-1.4,0.3l0,0
				c-0.3,0-0.6-0.1-0.9-0.2c-0.3-0.1-0.5-0.3-0.7-0.5c-0.2-0.2-0.3-0.5-0.4-0.8c-0.1-0.3-0.2-0.7-0.2-1.1l0,0c0-0.3,0-0.5,0.1-0.8
				C232,29.9,232,29.6,232.1,29.4z M234.2,33.3L234.2,33.3c0.3,0,0.7-0.1,1.1-0.3c0.4-0.2,0.7-0.5,1-0.8c0.3-0.4,0.6-0.8,0.9-1.3
				c0.3-0.5,0.5-1,0.7-1.6l0,0c0.1-0.2,0.1-0.3,0.2-0.5c0.1-0.2,0.1-0.4,0.2-0.6c0-0.2,0.1-0.4,0.1-0.7c0-0.2,0-0.4,0-0.7l0,0
				c0-0.2,0-0.4-0.1-0.7c0-0.2-0.1-0.4-0.2-0.5c-0.1-0.2-0.2-0.3-0.4-0.4c-0.2-0.1-0.4-0.1-0.7-0.1l0,0c-0.4,0-0.7,0.1-1.1,0.3
				c-0.4,0.2-0.7,0.5-1,0.8c-0.3,0.4-0.6,0.8-0.9,1.3c-0.3,0.5-0.5,1.1-0.7,1.7l0,0c-0.1,0.4-0.2,0.8-0.3,1.2
				c-0.1,0.4-0.1,0.8-0.1,1.1l0,0C233,32.8,233.4,33.3,234.2,33.3z M240.7,30.1l3.2-8.9h1.1l-3.2,8.9c-0.1,0.2-0.1,0.4-0.2,0.6
				c-0.1,0.2-0.1,0.4-0.2,0.6c0,0.2-0.1,0.4-0.1,0.6c0,0.2,0,0.3,0,0.5l0,0c0,0.3,0.1,0.6,0.3,0.8c0.2,0.2,0.5,0.3,0.8,0.3l0,0
				c0.3,0,0.6-0.1,0.9-0.2c0.3-0.1,0.6-0.4,0.9-0.6c0.3-0.3,0.6-0.6,0.9-1.1c0.3-0.4,0.6-0.9,0.9-1.5l0,0l0.4-0.7l0.2,0.1l-0.4,0.7
				c-0.3,0.6-0.7,1.2-1,1.6c-0.3,0.5-0.6,0.8-1,1.1c-0.3,0.3-0.6,0.5-1,0.7c-0.3,0.1-0.7,0.2-1.1,0.2l0,0c-0.3,0-0.6,0-0.8-0.1
				c-0.2-0.1-0.4-0.2-0.6-0.4c-0.2-0.2-0.3-0.4-0.3-0.6c-0.1-0.2-0.1-0.5-0.1-0.8l0,0c0-0.2,0-0.5,0.1-0.8
				C240.5,30.7,240.6,30.4,240.7,30.1L240.7,30.1z M246.1,30.1l3.2-8.9h1.1l-3.2,8.9c-0.1,0.2-0.1,0.4-0.2,0.6
				c-0.1,0.2-0.1,0.4-0.2,0.6c0,0.2-0.1,0.4-0.1,0.6c0,0.2,0,0.3,0,0.5l0,0c0,0.3,0.1,0.6,0.3,0.8c0.2,0.2,0.4,0.3,0.8,0.3l0,0
				c0.3,0,0.6-0.1,0.9-0.2c0.3-0.1,0.6-0.4,0.9-0.6c0.3-0.3,0.6-0.6,0.9-1.1c0.3-0.4,0.6-0.9,0.9-1.5l0,0l0.4-0.7l0.2,0.1l-0.4,0.7
				c-0.3,0.6-0.7,1.2-1,1.6c-0.3,0.5-0.6,0.8-1,1.1c-0.3,0.3-0.6,0.5-1,0.7c-0.3,0.1-0.7,0.2-1.1,0.2l0,0c-0.3,0-0.6,0-0.8-0.1
				c-0.2-0.1-0.4-0.2-0.6-0.4c-0.2-0.2-0.3-0.4-0.3-0.6c-0.1-0.2-0.1-0.5-0.1-0.8l0,0c0-0.2,0-0.5,0.1-0.8
				C245.8,30.7,245.9,30.4,246.1,30.1L246.1,30.1z M251.6,29.3L251.6,29.3c0.2-0.5,0.4-1,0.6-1.4c0.2-0.4,0.5-0.8,0.8-1.1
				c0.3-0.3,0.6-0.6,0.9-0.9c0.3-0.2,0.6-0.4,0.9-0.6c0.3-0.2,0.6-0.3,0.9-0.3c0.3-0.1,0.6-0.1,0.8-0.1l0,0c0.3,0,0.5,0,0.7,0.1
				c0.2,0.1,0.3,0.2,0.4,0.4c0.1,0.2,0.2,0.3,0.2,0.6c0,0.2,0.1,0.5,0.1,0.7l0,0l0.6-1.6h1.1l-1.8,5.1c-0.1,0.2-0.1,0.4-0.2,0.6
				c-0.1,0.2-0.1,0.4-0.2,0.6c0,0.2-0.1,0.4-0.1,0.6c0,0.2,0,0.3,0,0.5l0,0c0,0.3,0.1,0.6,0.3,0.8c0.2,0.2,0.4,0.3,0.8,0.3l0,0
				c0.3,0,0.6-0.1,0.9-0.2c0.3-0.1,0.6-0.3,0.9-0.6c0.3-0.3,0.6-0.6,0.9-1.1s0.6-0.9,0.9-1.5l0,0l0.4-0.7l0.2,0.1l-0.4,0.7
				c-0.4,0.6-0.7,1.2-1,1.6c-0.3,0.5-0.6,0.8-1,1.1c-0.3,0.3-0.6,0.5-1,0.7c-0.3,0.1-0.7,0.2-1.1,0.2l0,0c-0.3,0-0.6,0-0.8-0.1
				c-0.2-0.1-0.4-0.2-0.6-0.4c-0.2-0.2-0.3-0.4-0.3-0.6c-0.1-0.2-0.1-0.5-0.1-0.8l0,0c0-0.2,0-0.4,0.1-0.6c0-0.2,0.1-0.4,0.2-0.7
				l0,0c-0.6,1.1-1.3,1.8-1.9,2.4c-0.6,0.5-1.2,0.8-1.9,0.8l0,0c-0.3,0-0.6-0.1-0.8-0.2c-0.2-0.1-0.4-0.3-0.5-0.5
				c-0.1-0.2-0.2-0.4-0.3-0.7c-0.1-0.3-0.1-0.6-0.1-0.9l0,0c0-0.3,0-0.7,0.1-1.1C251.4,30.1,251.5,29.7,251.6,29.3z M253.2,33.3
				L253.2,33.3c0.3,0,0.5-0.1,0.8-0.2c0.3-0.1,0.5-0.3,0.8-0.6c0.3-0.2,0.5-0.5,0.8-0.8c0.3-0.3,0.5-0.7,0.7-1
				c0.2-0.4,0.4-0.7,0.6-1.1c0.2-0.4,0.4-0.8,0.5-1.1c0.1-0.4,0.2-0.7,0.3-1.1c0.1-0.3,0.1-0.6,0.1-0.9l0,0c0-0.2,0-0.5-0.1-0.6
				c-0.1-0.2-0.1-0.3-0.2-0.4c-0.1-0.1-0.2-0.2-0.3-0.2c-0.1,0-0.3-0.1-0.4-0.1l0,0c-0.3,0-0.6,0.1-0.9,0.2c-0.3,0.2-0.7,0.4-1,0.8
				c-0.3,0.3-0.7,0.8-1,1.3c-0.3,0.5-0.6,1.1-0.9,1.8l0,0c-0.2,0.6-0.4,1.1-0.5,1.6c-0.1,0.5-0.2,0.9-0.2,1.2l0,0
				c0,0.4,0.1,0.7,0.2,0.9C252.6,33.2,252.9,33.3,253.2,33.3z M260.9,33.6L264,25h1.1l-1.1,3.1c0.3-0.5,0.6-1,0.9-1.4
				c0.3-0.4,0.6-0.7,0.9-1c0.3-0.3,0.6-0.5,0.9-0.6c0.3-0.1,0.6-0.2,1-0.2l0,0c0.3,0,0.6,0,0.8,0.1c0.2,0.1,0.4,0.2,0.6,0.4
				c0.2,0.2,0.3,0.4,0.3,0.6c0.1,0.2,0.1,0.5,0.1,0.7l0,0c0,0.3,0,0.6-0.1,0.9c-0.1,0.3-0.2,0.7-0.3,1s-0.3,0.7-0.4,1
				c-0.1,0.3-0.3,0.7-0.4,1c-0.1,0.3-0.2,0.6-0.3,0.9c-0.1,0.3-0.1,0.5-0.1,0.7l0,0c0,0.3,0.1,0.5,0.3,0.7c0.2,0.2,0.5,0.3,0.8,0.3
				l0,0c0.3,0,0.6-0.1,0.9-0.2c0.3-0.1,0.6-0.4,0.9-0.6c0.3-0.3,0.6-0.6,0.9-1.1c0.3-0.4,0.6-0.9,0.9-1.5l0,0l0.4-0.7l0.2,0.1
				l-0.4,0.7c-0.3,0.6-0.7,1.1-1,1.6c-0.3,0.5-0.6,0.8-1,1.1c-0.3,0.3-0.6,0.5-1,0.7c-0.3,0.1-0.7,0.2-1,0.2l0,0
				c-0.3,0-0.6,0-0.8-0.1c-0.2-0.1-0.4-0.2-0.6-0.4c-0.2-0.2-0.3-0.3-0.3-0.6c-0.1-0.2-0.1-0.4-0.1-0.7l0,0c0-0.2,0-0.5,0.1-0.8
				c0.1-0.3,0.2-0.6,0.3-1c0.1-0.3,0.3-0.7,0.4-1c0.1-0.3,0.3-0.7,0.4-1c0.1-0.3,0.2-0.6,0.3-0.9c0.1-0.3,0.1-0.6,0.1-0.8l0,0
				c0-0.2,0-0.3-0.1-0.5c0-0.1-0.1-0.3-0.2-0.4s-0.2-0.2-0.4-0.2c-0.1-0.1-0.3-0.1-0.5-0.1l0,0c-0.3,0-0.6,0.1-0.9,0.2
				c-0.3,0.1-0.6,0.4-0.9,0.7c-0.3,0.3-0.6,0.7-0.9,1.1c-0.3,0.4-0.6,1-0.9,1.5l0,0l-0.4,0.7l-1.5,4.1H260.9z M272.9,29.3
				L272.9,29.3c0.2-0.5,0.4-1,0.6-1.4c0.2-0.4,0.5-0.8,0.8-1.1c0.3-0.3,0.6-0.6,0.9-0.9c0.3-0.2,0.6-0.4,0.9-0.6
				c0.3-0.2,0.6-0.3,0.9-0.3c0.3-0.1,0.6-0.1,0.8-0.1l0,0c0.3,0,0.5,0,0.7,0.1c0.2,0.1,0.3,0.2,0.4,0.4c0.1,0.2,0.2,0.3,0.2,0.6
				c0,0.2,0.1,0.5,0.1,0.7l0,0l2-5.4h1.1l-3.2,8.9c-0.1,0.2-0.1,0.4-0.2,0.6c-0.1,0.2-0.1,0.4-0.2,0.6c0,0.2-0.1,0.4-0.1,0.5
				c0,0.2,0,0.3,0,0.5l0,0c0,0.3,0.1,0.6,0.3,0.8c0.2,0.2,0.4,0.3,0.8,0.3l0,0c0.3,0,0.6-0.1,0.9-0.2c0.3-0.1,0.6-0.3,0.9-0.6
				c0.3-0.3,0.6-0.6,0.9-1.1s0.6-0.9,0.9-1.5l0,0l0.4-0.7l0.2,0.1l-0.4,0.7c-0.4,0.6-0.7,1.2-1,1.6c-0.3,0.5-0.6,0.8-1,1.1
				c-0.3,0.3-0.6,0.5-1,0.7c-0.3,0.1-0.7,0.2-1.1,0.2l0,0c-0.3,0-0.6,0-0.8-0.1c-0.2-0.1-0.4-0.2-0.6-0.4c-0.2-0.2-0.3-0.4-0.3-0.6
				c-0.1-0.2-0.1-0.5-0.1-0.8l0,0c0-0.2,0-0.4,0.1-0.6c0-0.2,0.1-0.4,0.2-0.7l0,0c-0.6,1.1-1.3,1.8-1.9,2.4
				c-0.6,0.5-1.2,0.8-1.9,0.8l0,0c-0.3,0-0.6-0.1-0.8-0.2c-0.2-0.1-0.4-0.3-0.5-0.5c-0.1-0.2-0.2-0.4-0.3-0.7
				c-0.1-0.3-0.1-0.6-0.1-0.9l0,0c0-0.3,0-0.7,0.1-1.1C272.7,30.1,272.8,29.7,272.9,29.3z M274.4,33.3L274.4,33.3
				c0.3,0,0.5-0.1,0.8-0.2c0.3-0.1,0.5-0.3,0.8-0.6c0.3-0.2,0.5-0.5,0.8-0.8c0.3-0.3,0.5-0.7,0.7-1c0.2-0.4,0.4-0.7,0.6-1.1
				c0.2-0.4,0.4-0.8,0.5-1.1c0.1-0.4,0.2-0.7,0.3-1.1s0.1-0.6,0.1-0.9l0,0c0-0.2,0-0.5-0.1-0.6c-0.1-0.2-0.1-0.3-0.2-0.4
				s-0.2-0.2-0.3-0.2c-0.1,0-0.3-0.1-0.4-0.1l0,0c-0.3,0-0.6,0.1-0.9,0.2s-0.7,0.4-1,0.8c-0.3,0.3-0.7,0.8-1,1.3
				c-0.3,0.5-0.6,1.1-0.9,1.8l0,0c-0.2,0.6-0.4,1.1-0.5,1.6c-0.1,0.5-0.2,0.9-0.2,1.2l0,0c0,0.4,0.1,0.7,0.2,0.9
				C273.9,33.2,274.1,33.3,274.4,33.3z M290.4,33.8V22.1h0.7v11.7H290.4z M307.7,26.6l-0.2-0.2c0.3-0.3,0.5-0.6,0.8-0.9
				c0.2-0.3,0.4-0.6,0.6-0.9c0.2-0.3,0.3-0.6,0.4-0.9c0.1-0.3,0.1-0.5,0.1-0.8l0,0c0-0.1,0-0.2,0-0.3c0-0.1-0.1-0.2-0.1-0.2
				c0-0.1-0.1-0.1-0.2-0.2c-0.1,0-0.2-0.1-0.3-0.1l0,0c-0.3,0-0.6,0.1-0.8,0.3c-0.3,0.2-0.6,0.5-0.8,0.8l0,0
				c-0.2,0.3-0.4,0.6-0.6,0.9c-0.2,0.3-0.3,0.7-0.5,1.1c-0.2,0.4-0.3,0.8-0.5,1.2c-0.1,0.4-0.3,0.9-0.5,1.3l0,0
				c-0.2,0.6-0.5,1.2-0.7,1.7c-0.2,0.5-0.5,1-0.7,1.4c-0.2,0.4-0.5,0.8-0.7,1.1c-0.3,0.3-0.5,0.6-0.8,0.8l0,0
				c0.2,0.1,0.5,0.1,0.8,0.2c0.3,0.1,0.6,0.1,0.9,0.2c0.3,0.1,0.6,0.1,0.9,0.1c0.3,0,0.6,0.1,0.9,0.1l0,0c0.6,0,1-0.1,1.5-0.2
				c0.4-0.1,0.8-0.3,1.1-0.6c0.3-0.3,0.7-0.6,1-1.1c0.3-0.4,0.6-0.9,1-1.5l0,0l0.4-0.7l0.2,0.1l-0.4,0.7c-0.5,0.8-0.9,1.5-1.3,2
				c-0.4,0.5-0.8,0.9-1.3,1.2c-0.4,0.3-0.8,0.5-1.2,0.6s-0.8,0.2-1.2,0.2l0,0c-0.3,0-0.6,0-0.9-0.1c-0.3,0-0.6-0.1-1-0.2
				c-0.3-0.1-0.7-0.2-1-0.3c-0.3-0.1-0.7-0.2-1-0.3l0,0c-0.4,0.2-0.7,0.4-1.1,0.5c-0.4,0.1-0.8,0.1-1.2,0.1l0,0
				c-0.3,0-0.6,0-0.7-0.1c-0.2,0-0.3-0.1-0.5-0.2c-0.1-0.1-0.2-0.1-0.2-0.2c0-0.1-0.1-0.2-0.1-0.3l0,0c0-0.2,0.1-0.3,0.2-0.4
				c0.1-0.1,0.3-0.2,0.4-0.3c0.2-0.1,0.4-0.1,0.6-0.1c0.2,0,0.4,0,0.6,0l0,0c0.4,0,0.8,0,1.1,0.1c0.4,0.1,0.7,0.1,1,0.2l0,0
				c0.2-0.2,0.3-0.4,0.4-0.6c0.1-0.2,0.3-0.5,0.5-0.8c0.2-0.3,0.3-0.6,0.5-1c0.2-0.4,0.4-0.8,0.5-1.3l0,0c0.3-0.7,0.6-1.4,0.8-2
				c0.2-0.6,0.5-1.2,0.7-1.7c0.2-0.5,0.5-0.9,0.7-1.3c0.2-0.4,0.5-0.7,0.8-1l0,0c0.3-0.3,0.7-0.6,1-0.7c0.4-0.2,0.7-0.2,1-0.2l0,0
				c0.2,0,0.4,0,0.6,0.1c0.2,0.1,0.3,0.1,0.4,0.3c0.1,0.1,0.2,0.2,0.2,0.4c0,0.1,0.1,0.3,0.1,0.5l0,0c0,0.6-0.2,1.1-0.5,1.7
				C308.9,25.4,308.4,26,307.7,26.6L307.7,26.6z M299.2,33.6L299.2,33.6c0.4,0,0.7,0,1-0.1c0.3-0.1,0.6-0.2,0.8-0.4l0,0
				c-0.2,0-0.3-0.1-0.5-0.1c-0.2,0-0.4-0.1-0.5-0.1c-0.2,0-0.4-0.1-0.6-0.1c-0.2,0-0.4,0-0.6,0l0,0c-0.3,0-0.5,0-0.7,0.1
				c-0.2,0.1-0.2,0.2-0.2,0.4l0,0c0,0.1,0,0.1,0,0.2c0,0.1,0.1,0.1,0.2,0.1c0.1,0,0.2,0.1,0.4,0.1C298.8,33.6,299,33.6,299.2,33.6z
				 M313,33.7L313,33.7c-0.9,0-1.5-0.2-2-0.7c-0.5-0.5-0.7-1.1-0.7-2l0,0c0-0.2,0-0.5,0.1-0.8c0-0.3,0.1-0.6,0.2-0.8l0,0
				c0.2-0.6,0.4-1.2,0.7-1.8c0.3-0.5,0.7-1,1.1-1.4c0.4-0.4,0.8-0.7,1.3-0.9c0.5-0.2,0.9-0.3,1.4-0.3l0,0c0.5,0,0.9,0.1,1.1,0.3
				c0.3,0.2,0.4,0.5,0.4,1l0,0c0,0.2,0,0.5-0.1,0.7c-0.1,0.2-0.2,0.4-0.4,0.6c-0.2,0.2-0.4,0.4-0.6,0.6c-0.2,0.2-0.5,0.3-0.8,0.4
				l0,0c-0.4,0.2-0.8,0.3-1.2,0.4c-0.5,0.1-1,0.1-1.5,0.1l0,0c-0.1,0.4-0.2,0.8-0.3,1.2c-0.1,0.4-0.1,0.9-0.1,1.3l0,0
				c0,0.7,0.1,1.1,0.4,1.4c0.3,0.3,0.7,0.4,1.3,0.4l0,0c0.5,0,1-0.1,1.4-0.3c0.5-0.2,0.9-0.5,1.3-0.8c0.4-0.3,0.7-0.7,1.1-1.1
				c0.3-0.4,0.6-0.8,0.8-1.2l0,0l0.4-0.7l0.2,0.1l-0.4,0.7c-0.3,0.5-0.6,1-1,1.4c-0.4,0.4-0.7,0.8-1.2,1.1c-0.4,0.3-0.9,0.6-1.3,0.8
				C314.1,33.6,313.6,33.7,313,33.7z M315.3,25.2L315.3,25.2c-0.3,0-0.6,0.1-0.9,0.3c-0.3,0.2-0.6,0.4-0.9,0.7
				c-0.3,0.3-0.6,0.7-0.8,1.1c-0.3,0.4-0.5,0.9-0.7,1.4l0,0c0.5,0,1-0.1,1.4-0.1c0.4-0.1,0.7-0.2,1-0.3l0,0c0.2-0.1,0.4-0.2,0.6-0.4
				c0.2-0.2,0.4-0.3,0.6-0.6c0.2-0.2,0.3-0.4,0.4-0.7c0.1-0.2,0.1-0.5,0.1-0.8l0,0c0-0.1,0-0.2-0.1-0.3c0-0.1-0.1-0.2-0.2-0.2
				c-0.1-0.1-0.1-0.1-0.2-0.1C315.5,25.2,315.4,25.2,315.3,25.2z M318.2,29.3L318.2,29.3c0.2-0.5,0.4-1,0.6-1.4
				c0.2-0.4,0.5-0.8,0.8-1.1c0.3-0.3,0.6-0.6,0.9-0.9c0.3-0.2,0.6-0.4,0.9-0.6c0.3-0.2,0.6-0.3,0.9-0.3c0.3-0.1,0.6-0.1,0.8-0.1l0,0
				c0.3,0,0.5,0,0.7,0.1c0.2,0.1,0.3,0.2,0.4,0.4c0.1,0.2,0.2,0.3,0.2,0.6c0,0.2,0.1,0.5,0.1,0.7l0,0l0.6-1.6h1.1l-1.8,5.1
				c-0.1,0.2-0.1,0.4-0.2,0.6c-0.1,0.2-0.1,0.4-0.2,0.6c0,0.2-0.1,0.4-0.1,0.6c0,0.2,0,0.3,0,0.5l0,0c0,0.3,0.1,0.6,0.3,0.8
				c0.2,0.2,0.4,0.3,0.8,0.3l0,0c0.3,0,0.6-0.1,0.9-0.2c0.3-0.1,0.6-0.3,0.9-0.6c0.3-0.3,0.6-0.6,0.9-1.1s0.6-0.9,0.9-1.5l0,0
				l0.4-0.7l0.2,0.1l-0.4,0.7c-0.3,0.6-0.7,1.2-1,1.6c-0.3,0.5-0.6,0.8-1,1.1c-0.3,0.3-0.6,0.5-1,0.7c-0.3,0.1-0.7,0.2-1.1,0.2l0,0
				c-0.3,0-0.6,0-0.8-0.1c-0.2-0.1-0.4-0.2-0.6-0.4c-0.2-0.2-0.3-0.4-0.3-0.6c-0.1-0.2-0.1-0.5-0.1-0.8l0,0c0-0.2,0-0.4,0.1-0.6
				c0-0.2,0.1-0.4,0.2-0.7l0,0c-0.6,1.1-1.3,1.8-1.9,2.4c-0.6,0.5-1.2,0.8-1.9,0.8l0,0c-0.3,0-0.6-0.1-0.8-0.2
				c-0.2-0.1-0.4-0.3-0.5-0.5c-0.1-0.2-0.2-0.4-0.3-0.7c-0.1-0.3-0.1-0.6-0.1-0.9l0,0c0-0.3,0-0.7,0.1-1.1
				C318,30.1,318,29.7,318.2,29.3z M319.7,33.3L319.7,33.3c0.3,0,0.5-0.1,0.8-0.2c0.3-0.1,0.5-0.3,0.8-0.6c0.3-0.2,0.5-0.5,0.8-0.8
				c0.3-0.3,0.5-0.7,0.7-1c0.2-0.4,0.4-0.7,0.6-1.1c0.2-0.4,0.4-0.8,0.5-1.1c0.1-0.4,0.2-0.7,0.3-1.1c0.1-0.3,0.1-0.6,0.1-0.9l0,0
				c0-0.2,0-0.5-0.1-0.6s-0.1-0.3-0.2-0.4c-0.1-0.1-0.2-0.2-0.3-0.2c-0.1,0-0.3-0.1-0.4-0.1l0,0c-0.3,0-0.6,0.1-0.9,0.2
				c-0.3,0.2-0.7,0.4-1,0.8c-0.3,0.3-0.7,0.8-1,1.3c-0.3,0.5-0.6,1.1-0.9,1.8l0,0c-0.2,0.6-0.4,1.1-0.5,1.6
				c-0.1,0.5-0.2,0.9-0.2,1.2l0,0c0,0.4,0.1,0.7,0.2,0.9C319.2,33.2,319.4,33.3,319.7,33.3z M328.9,29.3L328.9,29.3
				c0.2-0.5,0.4-1,0.6-1.4c0.2-0.4,0.5-0.8,0.8-1.1c0.3-0.3,0.6-0.6,0.9-0.9c0.3-0.2,0.6-0.4,0.9-0.6c0.3-0.2,0.6-0.3,0.9-0.3
				c0.3-0.1,0.6-0.1,0.8-0.1l0,0c0.3,0,0.5,0,0.7,0.1c0.2,0.1,0.3,0.2,0.4,0.4c0.1,0.2,0.2,0.3,0.2,0.6c0,0.2,0.1,0.5,0.1,0.7l0,0
				l2-5.4h1.1l-3.2,8.9c-0.1,0.2-0.1,0.4-0.2,0.6c-0.1,0.2-0.1,0.4-0.2,0.6c0,0.2-0.1,0.4-0.1,0.5c0,0.2,0,0.3,0,0.5l0,0
				c0,0.3,0.1,0.6,0.3,0.8c0.2,0.2,0.4,0.3,0.8,0.3l0,0c0.3,0,0.6-0.1,0.9-0.2c0.3-0.1,0.6-0.3,0.9-0.6c0.3-0.3,0.6-0.6,0.9-1.1
				s0.6-0.9,0.9-1.5l0,0l0.4-0.7l0.2,0.1l-0.4,0.7c-0.3,0.6-0.7,1.2-1,1.6c-0.3,0.5-0.6,0.8-1,1.1c-0.3,0.3-0.6,0.5-1,0.7
				c-0.3,0.1-0.7,0.2-1.1,0.2l0,0c-0.3,0-0.6,0-0.8-0.1c-0.2-0.1-0.4-0.2-0.6-0.4c-0.2-0.2-0.3-0.4-0.3-0.6
				c-0.1-0.2-0.1-0.5-0.1-0.8l0,0c0-0.2,0-0.4,0.1-0.6c0-0.2,0.1-0.4,0.2-0.7l0,0c-0.6,1.1-1.3,1.8-1.9,2.4s-1.2,0.8-1.9,0.8l0,0
				c-0.3,0-0.6-0.1-0.8-0.2c-0.2-0.1-0.4-0.3-0.5-0.5c-0.1-0.2-0.2-0.4-0.3-0.7c-0.1-0.3-0.1-0.6-0.1-0.9l0,0c0-0.3,0-0.7,0.1-1.1
				C328.7,30.1,328.8,29.7,328.9,29.3z M330.5,33.3L330.5,33.3c0.3,0,0.5-0.1,0.8-0.2c0.3-0.1,0.5-0.3,0.8-0.6
				c0.3-0.2,0.5-0.5,0.8-0.8c0.3-0.3,0.5-0.7,0.7-1c0.2-0.4,0.4-0.7,0.6-1.1c0.2-0.4,0.4-0.8,0.5-1.1c0.1-0.4,0.2-0.7,0.3-1.1
				c0.1-0.3,0.1-0.6,0.1-0.9l0,0c0-0.2,0-0.5-0.1-0.6s-0.1-0.3-0.2-0.4s-0.2-0.2-0.3-0.2c-0.1,0-0.3-0.1-0.4-0.1l0,0
				c-0.3,0-0.6,0.1-0.9,0.2s-0.7,0.4-1,0.8c-0.3,0.3-0.7,0.8-1,1.3c-0.3,0.5-0.6,1.1-0.9,1.8l0,0c-0.2,0.6-0.4,1.1-0.5,1.6
				c-0.1,0.5-0.2,0.9-0.2,1.2l0,0c0,0.4,0.1,0.7,0.2,0.9C329.9,33.2,330.2,33.3,330.5,33.3z M354.6,25.7l-0.2-0.1
				c0.1-0.1,0.2-0.2,0.3-0.4c0.1-0.2,0.2-0.3,0.2-0.5c0.1-0.2,0.1-0.4,0.2-0.6c0-0.2,0.1-0.4,0.1-0.6l0,0c0-0.2,0-0.3-0.1-0.5
				c0-0.2-0.1-0.3-0.2-0.4c-0.1-0.1-0.3-0.2-0.5-0.3c-0.2-0.1-0.4-0.1-0.7-0.1l0,0c-0.5,0-1,0.1-1.5,0.3c-0.5,0.2-1,0.5-1.4,0.9
				c-0.5,0.4-0.9,0.8-1.2,1.4c-0.4,0.5-0.7,1.2-0.9,1.8l0,0c-0.2,0.5-0.3,1-0.4,1.5c-0.1,0.5-0.2,1-0.2,1.4l0,0
				c0,0.7,0.1,1.2,0.4,1.5c0.2,0.3,0.6,0.5,1.1,0.5l0,0c0.7,0,1.4-0.3,2-0.9c0.7-0.6,1.4-1.5,2.1-2.7l0,0l0.1-0.1h1l-0.5,1.3
				c-0.3,0.8-0.6,1.5-0.8,2.2c-0.3,0.7-0.6,1.3-0.9,1.8l0,0c0.4,0,0.8-0.1,1.2-0.2c0.3-0.1,0.7-0.1,1-0.2c0.3-0.1,0.6-0.2,0.8-0.4
				c0.3-0.1,0.5-0.3,0.7-0.6c0.2-0.2,0.5-0.5,0.7-0.8s0.5-0.7,0.7-1.1l0,0l0.4-0.7l0.2,0.1l-0.4,0.7c-0.2,0.4-0.5,0.8-0.7,1.1
				c-0.2,0.3-0.5,0.6-0.7,0.8c-0.2,0.2-0.5,0.4-0.8,0.6c-0.3,0.2-0.6,0.3-0.9,0.4c-0.3,0.1-0.7,0.2-1.1,0.3
				c-0.4,0.1-0.8,0.1-1.3,0.2l0,0c-0.7,1.3-1.5,2.3-2.4,2.9c-0.8,0.6-1.7,1-2.7,1l0,0c-0.7,0-1.2-0.1-1.5-0.4
				c-0.3-0.3-0.5-0.6-0.5-1.1l0,0c0-0.3,0.1-0.6,0.2-0.8c0.2-0.2,0.4-0.5,0.7-0.6c0.3-0.2,0.6-0.3,1-0.5c0.4-0.1,0.8-0.2,1.2-0.3
				c0.4-0.1,0.9-0.2,1.4-0.2c0.5-0.1,1-0.1,1.4-0.2l0,0c0.2-0.4,0.4-0.9,0.6-1.4s0.4-1,0.6-1.6l0,0l0.2-0.5
				c-0.2,0.3-0.4,0.5-0.6,0.8c-0.2,0.3-0.5,0.5-0.8,0.7c-0.3,0.2-0.6,0.4-0.9,0.5c-0.3,0.1-0.7,0.2-1,0.2l0,0c-0.4,0-0.7-0.1-1-0.2
				c-0.3-0.1-0.6-0.3-0.8-0.6c-0.2-0.3-0.4-0.6-0.5-0.9c-0.1-0.4-0.2-0.8-0.2-1.2l0,0c0-0.3,0-0.7,0.1-1c0.1-0.4,0.2-0.7,0.3-1.1
				l0,0c0.2-0.7,0.6-1.4,1-2c0.4-0.6,0.9-1.1,1.5-1.5c0.5-0.4,1.1-0.8,1.8-1c0.6-0.2,1.3-0.4,2-0.4l0,0c0.4,0,0.7,0,1,0.1
				c0.3,0.1,0.5,0.2,0.7,0.3c0.2,0.1,0.3,0.3,0.4,0.5c0.1,0.2,0.1,0.4,0.1,0.6l0,0c0,0.2,0,0.4-0.1,0.5c0,0.2-0.1,0.4-0.2,0.6
				c-0.1,0.2-0.2,0.4-0.3,0.5C354.9,25.4,354.7,25.5,354.6,25.7L354.6,25.7z M347.1,37L347.1,37c0.4,0,0.8-0.1,1.1-0.2
				c0.3-0.1,0.7-0.3,1-0.6c0.3-0.3,0.6-0.6,0.9-1.1c0.3-0.4,0.6-1,0.9-1.6l0,0c-0.8,0.1-1.5,0.1-2.2,0.2c-0.7,0.1-1.3,0.2-1.8,0.4
				c-0.5,0.2-0.9,0.4-1.2,0.7c-0.3,0.3-0.4,0.6-0.4,1l0,0c0,0.4,0.1,0.7,0.4,0.9C346.1,36.9,346.5,37,347.1,37z M357.4,30.1l1.8-5.1
				h1.1l-1.8,5.1c-0.1,0.2-0.1,0.4-0.2,0.6c-0.1,0.2-0.1,0.4-0.2,0.6c0,0.2-0.1,0.4-0.1,0.6c0,0.2,0,0.3,0,0.5l0,0
				c0,0.3,0.1,0.6,0.3,0.8c0.2,0.2,0.4,0.3,0.8,0.3l0,0c0.3,0,0.6-0.1,0.9-0.2c0.3-0.1,0.6-0.4,0.9-0.6c0.3-0.3,0.6-0.6,0.9-1.1
				c0.3-0.4,0.6-0.9,0.9-1.5l0,0l0.4-0.6l1.6-4.3h1.1l-1.8,5.1c-0.1,0.2-0.1,0.4-0.2,0.6c-0.1,0.2-0.1,0.4-0.2,0.6
				c-0.1,0.2-0.1,0.4-0.1,0.6c0,0.2,0,0.3,0,0.5l0,0c0,0.3,0.1,0.6,0.3,0.8s0.4,0.3,0.8,0.3l0,0c0.3,0,0.6-0.1,0.9-0.2
				c0.3-0.1,0.6-0.4,0.9-0.6c0.3-0.3,0.6-0.6,0.9-1.1s0.6-0.9,0.9-1.5l0,0l0.4-0.7l0.2,0.1l-0.4,0.7c-0.3,0.6-0.7,1.2-1,1.6
				c-0.3,0.5-0.6,0.8-1,1.1c-0.3,0.3-0.6,0.5-1,0.7c-0.3,0.1-0.7,0.2-1.1,0.2l0,0c-0.3,0-0.6,0-0.8-0.1c-0.2-0.1-0.4-0.2-0.6-0.4
				c-0.2-0.2-0.3-0.4-0.3-0.6c-0.1-0.2-0.1-0.5-0.1-0.8l0,0c0-0.2,0-0.4,0.1-0.6c0-0.2,0.1-0.4,0.2-0.7l0,0c-0.3,0.5-0.6,1-0.9,1.4
				c-0.3,0.4-0.6,0.7-0.9,1c-0.3,0.3-0.6,0.5-0.9,0.6c-0.3,0.1-0.6,0.2-1,0.2l0,0c-0.3,0-0.6,0-0.8-0.1c-0.2-0.1-0.4-0.2-0.6-0.4
				c-0.2-0.2-0.3-0.4-0.3-0.6c-0.1-0.2-0.1-0.5-0.1-0.8l0,0c0-0.2,0-0.5,0.1-0.8C357.2,30.7,357.3,30.4,357.4,30.1L357.4,30.1z
				 M368.1,30.1l1.8-5.1h1.1l-1.8,5.1c-0.1,0.2-0.1,0.4-0.2,0.6c-0.1,0.2-0.1,0.4-0.2,0.6c-0.1,0.2-0.1,0.4-0.1,0.6
				c0,0.2,0,0.3,0,0.5l0,0c0,0.3,0.1,0.6,0.3,0.8c0.2,0.2,0.5,0.3,0.8,0.3l0,0c0.3,0,0.6-0.1,0.9-0.2c0.3-0.1,0.6-0.4,0.9-0.6
				c0.3-0.3,0.6-0.6,0.9-1.1s0.6-0.9,0.9-1.5l0,0l0.4-0.7l0.2,0.1l-0.4,0.7c-0.4,0.6-0.7,1.2-1,1.6c-0.3,0.5-0.6,0.8-1,1.1
				c-0.3,0.3-0.6,0.5-1,0.7c-0.3,0.1-0.7,0.2-1.1,0.2l0,0c-0.3,0-0.6,0-0.8-0.1c-0.2-0.1-0.4-0.2-0.6-0.4c-0.2-0.2-0.3-0.4-0.3-0.6
				c-0.1-0.2-0.1-0.5-0.1-0.8l0,0c0-0.2,0-0.5,0.1-0.8S367.9,30.4,368.1,30.1L368.1,30.1z M370.5,23.1L370.5,23.1
				c0-0.2,0.1-0.3,0.2-0.4c0.1-0.1,0.3-0.2,0.4-0.2l0,0c0.2,0,0.3,0.1,0.4,0.2s0.2,0.3,0.2,0.4l0,0c0,0.1,0,0.2,0,0.2
				c0,0.1-0.1,0.1-0.1,0.2c-0.1,0.1-0.1,0.1-0.2,0.1c-0.1,0-0.2,0-0.2,0l0,0c-0.2,0-0.3-0.1-0.4-0.2
				C370.5,23.4,370.5,23.3,370.5,23.1z M373.1,25.3V25h2.1l0.7-1.9h1.1l-0.7,1.9h2.2v0.3h-2.3l-1.7,4.8c-0.1,0.2-0.1,0.4-0.2,0.6
				c-0.1,0.2-0.1,0.4-0.2,0.6c0,0.2-0.1,0.4-0.1,0.6c0,0.2,0,0.3,0,0.5l0,0c0,0.3,0.1,0.6,0.3,0.8c0.2,0.2,0.5,0.3,0.8,0.3l0,0
				c0.4,0,0.7-0.1,1-0.2c0.3-0.1,0.7-0.3,1-0.6c0.3-0.3,0.7-0.6,1-1.1c0.3-0.4,0.6-0.9,1-1.5l0,0l0.4-0.7l0.2,0.1l-0.4,0.7
				c-0.4,0.7-0.7,1.2-1.1,1.7c-0.4,0.5-0.7,0.8-1.1,1.1c-0.3,0.3-0.7,0.5-1.1,0.6c-0.4,0.1-0.7,0.2-1.1,0.2l0,0
				c-0.3,0-0.6,0-0.8-0.1c-0.2-0.1-0.4-0.2-0.6-0.4c-0.2-0.2-0.3-0.4-0.3-0.6c-0.1-0.2-0.1-0.5-0.1-0.8l0,0c0-0.2,0-0.5,0.1-0.8
				c0.1-0.3,0.1-0.6,0.3-0.9l0,0l1.7-4.8H373.1z M379.3,29.3L379.3,29.3c0.2-0.5,0.4-1,0.6-1.4c0.2-0.4,0.5-0.8,0.8-1.1
				s0.6-0.6,0.9-0.9c0.3-0.2,0.6-0.4,0.9-0.6c0.3-0.2,0.6-0.3,0.9-0.3c0.3-0.1,0.6-0.1,0.8-0.1l0,0c0.3,0,0.5,0,0.7,0.1
				c0.2,0.1,0.3,0.2,0.4,0.4c0.1,0.2,0.2,0.3,0.2,0.6c0,0.2,0.1,0.5,0.1,0.7l0,0l0.6-1.6h1.1l-1.8,5.1c-0.1,0.2-0.1,0.4-0.2,0.6
				c-0.1,0.2-0.1,0.4-0.2,0.6c0,0.2-0.1,0.4-0.1,0.6c0,0.2,0,0.3,0,0.5l0,0c0,0.3,0.1,0.6,0.3,0.8c0.2,0.2,0.5,0.3,0.8,0.3l0,0
				c0.3,0,0.6-0.1,0.9-0.2c0.3-0.1,0.6-0.3,0.9-0.6c0.3-0.3,0.6-0.6,0.9-1.1s0.6-0.9,0.9-1.5l0,0l0.4-0.7l0.2,0.1l-0.4,0.7
				c-0.3,0.6-0.7,1.2-1,1.6c-0.3,0.5-0.6,0.8-1,1.1c-0.3,0.3-0.6,0.5-1,0.7c-0.3,0.1-0.7,0.2-1.1,0.2l0,0c-0.3,0-0.6,0-0.8-0.1
				c-0.2-0.1-0.4-0.2-0.6-0.4c-0.2-0.2-0.3-0.4-0.3-0.6c-0.1-0.2-0.1-0.5-0.1-0.8l0,0c0-0.2,0-0.4,0-0.6c0-0.2,0.1-0.4,0.2-0.7l0,0
				c-0.6,1.1-1.3,1.8-1.9,2.4c-0.6,0.5-1.2,0.8-1.9,0.8l0,0c-0.3,0-0.6-0.1-0.8-0.2c-0.2-0.1-0.4-0.3-0.5-0.5
				c-0.1-0.2-0.2-0.4-0.3-0.7c-0.1-0.3-0.1-0.6-0.1-0.9l0,0c0-0.3,0-0.7,0.1-1.1C379.1,30.1,379.2,29.7,379.3,29.3z M380.9,33.3
				L380.9,33.3c0.3,0,0.5-0.1,0.8-0.2c0.3-0.1,0.5-0.3,0.8-0.6c0.3-0.2,0.5-0.5,0.8-0.8c0.2-0.3,0.5-0.7,0.7-1
				c0.2-0.4,0.4-0.7,0.6-1.1c0.2-0.4,0.3-0.8,0.5-1.1c0.1-0.4,0.2-0.7,0.3-1.1c0.1-0.3,0.1-0.6,0.1-0.9l0,0c0-0.2,0-0.5-0.1-0.6
				c-0.1-0.2-0.1-0.3-0.2-0.4c-0.1-0.1-0.2-0.2-0.3-0.2c-0.1,0-0.3-0.1-0.4-0.1l0,0c-0.3,0-0.6,0.1-0.9,0.2s-0.7,0.4-1,0.8
				c-0.3,0.3-0.7,0.8-1,1.3c-0.3,0.5-0.6,1.1-0.9,1.8l0,0c-0.2,0.6-0.4,1.1-0.5,1.6c-0.1,0.5-0.2,0.9-0.2,1.2l0,0
				c0,0.4,0.1,0.7,0.2,0.9C380.3,33.2,380.6,33.3,380.9,33.3z M395.5,25.5L395.5,25.5c0-0.1,0-0.2-0.1-0.2c-0.1-0.1-0.2-0.1-0.4-0.1
				l0,0c-0.2,0-0.4,0.1-0.6,0.2c-0.2,0.1-0.5,0.3-0.8,0.6c-0.3,0.3-0.6,0.7-1,1.2c-0.4,0.5-0.8,1.2-1.2,2l0,0l-0.4,0.6l-1.4,3.8
				h-1.1l3.1-8.6h1.1l-1.3,3.5c0.4-0.7,0.8-1.2,1.1-1.7c0.3-0.5,0.6-0.8,0.9-1.1c0.3-0.3,0.5-0.5,0.8-0.6c0.2-0.1,0.5-0.2,0.7-0.2
				l0,0c0.3,0,0.6,0.1,0.8,0.3c0.2,0.2,0.3,0.4,0.3,0.7l0,0c0,0.1,0,0.2,0,0.4c0,0.1-0.1,0.2-0.1,0.3c-0.1,0.1-0.1,0.1-0.2,0.2
				c-0.1,0-0.2,0.1-0.3,0.1l0,0c-0.1,0-0.2,0-0.2,0c-0.1,0-0.1-0.1-0.2-0.1c-0.1-0.1-0.1-0.1-0.1-0.2c0-0.1-0.1-0.2-0.1-0.3l0,0
				c0-0.1,0-0.2,0-0.2c0-0.1,0.1-0.1,0.1-0.2c0-0.1,0.1-0.1,0.2-0.1c0.1,0,0.1-0.1,0.2-0.1l0,0c0.1,0,0.1,0,0.2,0l0,0
				C395.4,25.6,395.4,25.6,395.5,25.5c-0.1,0.1-0.1,0.1-0.1,0.1l0,0C395.5,25.6,395.5,25.6,395.5,25.5z"/>
		</g>
	</g>
</g>
</svg>
