<?xml version="1.0" encoding="utf-8"?>
<!-- Generator: Adobe Illustrator 24.2.1, SVG Export Plug-In . SVG Version: 6.00 Build 0)  -->
<svg version="1.1" id="Layer_1" xmlns="http://www.w3.org/2000/svg" xmlns:xlink="http://www.w3.org/1999/xlink" x="0px" y="0px"
	 viewBox="0 0 380.4 59.8" style="enable-background:new 0 0 380.4 59.8;" xml:space="preserve">
<style type="text/css">
	.st0{fill:#EFEDE1;}
</style>
<g>
	<g transform="rotate(0 41.791 44)">
		<g transform="matrix(1 0 0 1 0 0)">
			<path class="st0" d="M49.7,54.9c0.2,0,0.3,0.1,0.4,0.2c0.1,0.1,0.2,0.2,0.2,0.4l0,0c0,0.2-0.1,0.3-0.2,0.4
				c-0.1,0.1-0.3,0.2-0.4,0.2l0,0h-7.3c-0.2,0-0.3-0.1-0.4-0.2c-0.1-0.1-0.2-0.3-0.2-0.4l0,0V44.6c0-0.2,0.1-0.3,0.2-0.4
				c0.1-0.1,0.3-0.2,0.4-0.2l0,0h7.3c0.2,0,0.3,0.1,0.4,0.2c0.1,0.1,0.2,0.3,0.2,0.4l0,0c0,0.2-0.1,0.3-0.2,0.4
				c-0.1,0.1-0.3,0.2-0.4,0.2l0,0H43v4.3h4.8c0.2,0,0.3,0.1,0.4,0.2s0.2,0.3,0.2,0.4l0,0c0,0.2-0.1,0.3-0.2,0.4s-0.3,0.2-0.4,0.2
				l0,0H43v4.3H49.7z M60.5,47.7c0.2,0.1,0.3,0.3,0.3,0.5l0,0c0,0.1,0,0.1,0,0.2l0,0l-3.4,7.3c-0.1,0.3-0.3,0.4-0.6,0.4l0,0
				c-0.2,0-0.4-0.1-0.6-0.4l0,0l-3.4-7.3c0-0.1,0-0.1,0-0.2l0,0c0-0.2,0.1-0.4,0.3-0.5l0,0c0.1,0,0.2-0.1,0.2-0.1l0,0
				c0.1,0,0.2,0,0.3,0.1c0.1,0.1,0.2,0.1,0.2,0.2l0,0l3,6.4l2.9-6.4c0-0.1,0.1-0.2,0.2-0.2c0.1-0.1,0.2-0.1,0.3-0.1l0,0
				C60.3,47.6,60.4,47.6,60.5,47.7L60.5,47.7z M67.3,47.5c0.8,0,1.4,0.2,2,0.5c0.6,0.4,1,0.8,1.4,1.5c0.3,0.6,0.5,1.3,0.5,2.2l0,0
				c0,0.2-0.1,0.3-0.2,0.4c-0.1,0.1-0.2,0.1-0.4,0.1l0,0h-6.3c0.1,0.8,0.4,1.5,1,2.1c0.6,0.5,1.3,0.8,2.2,0.8l0,0
				c0.4,0,0.7-0.1,1.1-0.2s0.7-0.3,0.9-0.5l0,0c0.1-0.1,0.3-0.2,0.4-0.2l0,0c0.1,0,0.2,0,0.3,0.1l0,0c0.1,0.1,0.2,0.3,0.2,0.4l0,0
				c0,0.1-0.1,0.3-0.2,0.4l0,0c-0.3,0.3-0.8,0.5-1.3,0.7c-0.5,0.2-1,0.3-1.5,0.3l0,0c-0.8,0-1.6-0.2-2.2-0.5
				c-0.7-0.4-1.2-0.9-1.5-1.5c-0.4-0.7-0.5-1.4-0.5-2.2l0,0c0-0.8,0.2-1.6,0.5-2.2c0.3-0.7,0.8-1.2,1.4-1.5
				C65.8,47.7,66.5,47.5,67.3,47.5L67.3,47.5z M67.3,48.6c-0.8,0-1.4,0.2-2,0.7c-0.5,0.5-0.8,1.1-0.9,1.9l0,0h5.7
				c-0.1-0.8-0.4-1.4-0.9-1.9C68.7,48.9,68.1,48.6,67.3,48.6L67.3,48.6z M78.6,47.5c0.4,0,0.8,0.1,1,0.2c0.3,0.1,0.4,0.3,0.4,0.5
				l0,0c0,0.1,0,0.1,0,0.1l0,0c0,0.1-0.1,0.2-0.2,0.3c-0.1,0.1-0.2,0.1-0.4,0.1l0,0c-0.1,0-0.3,0-0.5,0l0,0c-0.1,0-0.2,0-0.4,0l0,0
				c-0.8,0-1.4,0.2-1.9,0.6c-0.5,0.4-0.7,1-0.7,1.6l0,0v4.6c0,0.2-0.1,0.3-0.2,0.4c-0.1,0.1-0.2,0.2-0.4,0.2l0,0
				c-0.2,0-0.3-0.1-0.4-0.2c-0.1-0.1-0.2-0.2-0.2-0.4l0,0v-7.3c0-0.2,0.1-0.3,0.2-0.4c0.1-0.1,0.2-0.2,0.4-0.2l0,0
				c0.2,0,0.3,0.1,0.4,0.2c0.1,0.1,0.2,0.2,0.2,0.4l0,0v0.7c0.3-0.4,0.7-0.8,1.1-1C77.6,47.7,78.1,47.5,78.6,47.5L78.6,47.5z
				 M90,47.7c0.2,0.1,0.4,0.2,0.4,0.4l0,0c0,0.1,0,0.2-0.1,0.3l0,0l-5,11c-0.1,0.2-0.2,0.4-0.4,0.4l0,0c-0.1,0-0.2,0-0.3-0.1l0,0
				c-0.2-0.1-0.4-0.2-0.4-0.5l0,0c0-0.1,0-0.2,0.1-0.3l0,0l1.5-3.4v0l-3.5-7.2c0-0.1-0.1-0.2-0.1-0.3l0,0c0-0.2,0.1-0.4,0.3-0.5l0,0
				c0.1,0,0.2-0.1,0.3-0.1l0,0c0.2,0,0.4,0.1,0.5,0.3l0,0l3,6.4l2.9-6.4c0.1-0.2,0.3-0.3,0.5-0.3l0,0C89.8,47.6,89.9,47.6,90,47.7
				L90,47.7z M107.5,44c0.2,0,0.3,0.1,0.4,0.2c0.1,0.1,0.2,0.2,0.2,0.4l0,0c0,0.2-0.1,0.3-0.2,0.4c-0.1,0.1-0.2,0.2-0.4,0.2l0,0
				h-3.7v10.4c0,0.2-0.1,0.3-0.2,0.4c-0.1,0.1-0.3,0.2-0.4,0.2l0,0c-0.2,0-0.3-0.1-0.4-0.2c-0.1-0.1-0.2-0.3-0.2-0.4l0,0V45.1h-3.7
				c-0.2,0-0.3-0.1-0.4-0.2c-0.1-0.1-0.2-0.2-0.2-0.4l0,0c0-0.2,0.1-0.3,0.2-0.4c0.1-0.1,0.2-0.2,0.4-0.2l0,0H107.5z M112.8,47.5
				c0.8,0,1.5,0.2,2.2,0.6c0.7,0.4,1.2,0.9,1.5,1.5c0.4,0.7,0.6,1.4,0.6,2.2l0,0c0,0.8-0.2,1.6-0.6,2.2c-0.4,0.7-0.9,1.2-1.5,1.5
				c-0.7,0.4-1.4,0.6-2.2,0.6l0,0c-0.8,0-1.6-0.2-2.2-0.6c-0.7-0.4-1.2-0.9-1.5-1.5c-0.4-0.7-0.6-1.4-0.6-2.2l0,0
				c0-0.8,0.2-1.6,0.6-2.2c0.4-0.7,0.9-1.2,1.5-1.5C111.2,47.7,111.9,47.5,112.8,47.5L112.8,47.5z M112.8,48.6
				c-0.6,0-1.1,0.1-1.6,0.4s-0.9,0.7-1.1,1.2c-0.3,0.5-0.4,1-0.4,1.7l0,0c0,0.6,0.1,1.2,0.4,1.6c0.3,0.5,0.7,0.9,1.1,1.2
				c0.5,0.3,1,0.4,1.6,0.4l0,0c0.6,0,1.1-0.1,1.6-0.4c0.5-0.3,0.8-0.7,1.1-1.2s0.4-1,0.4-1.6l0,0c0-0.6-0.1-1.2-0.4-1.7
				s-0.6-0.9-1.1-1.2C113.9,48.8,113.4,48.6,112.8,48.6L112.8,48.6z M124.8,47.5c0.8,0,1.5,0.2,2.2,0.6c0.7,0.4,1.2,0.9,1.5,1.5
				s0.6,1.4,0.6,2.2l0,0c0,0.8-0.2,1.6-0.6,2.2c-0.4,0.7-0.9,1.2-1.5,1.5c-0.7,0.4-1.4,0.6-2.2,0.6l0,0c-0.8,0-1.6-0.2-2.2-0.6
				c-0.7-0.4-1.2-0.9-1.5-1.5c-0.4-0.7-0.6-1.4-0.6-2.2l0,0c0-0.8,0.2-1.6,0.6-2.2c0.4-0.7,0.9-1.2,1.5-1.5
				C123.2,47.7,124,47.5,124.8,47.5L124.8,47.5z M124.8,48.6c-0.6,0-1.1,0.1-1.6,0.4s-0.9,0.7-1.1,1.2s-0.4,1-0.4,1.7l0,0
				c0,0.6,0.1,1.2,0.4,1.6s0.7,0.9,1.1,1.2c0.5,0.3,1,0.4,1.6,0.4l0,0c0.6,0,1.1-0.1,1.6-0.4c0.5-0.3,0.8-0.7,1.1-1.2
				c0.3-0.5,0.4-1,0.4-1.6l0,0c0-0.6-0.1-1.2-0.4-1.7c-0.3-0.5-0.6-0.9-1.1-1.2S125.4,48.6,124.8,48.6L124.8,48.6z M132.7,44.6
				c0-0.2,0.1-0.3,0.2-0.4c0.1-0.1,0.3-0.2,0.4-0.2l0,0c0.2,0,0.3,0.1,0.4,0.2c0.1,0.1,0.2,0.3,0.2,0.4l0,0v8.8
				c0,0.4,0.1,0.8,0.3,1.1s0.4,0.4,0.7,0.4l0,0h0.4c0.2,0,0.3,0.1,0.4,0.2s0.1,0.3,0.1,0.4l0,0c0,0.2-0.1,0.3-0.2,0.4
				s-0.3,0.2-0.5,0.2l0,0h-0.2c-0.6,0-1.1-0.3-1.5-0.8c-0.4-0.5-0.6-1.1-0.6-1.9l0,0V44.6z M138.9,48.1c0,0,0,0.1,0,0.1l0,0v3.6
				c0,0.8,0.2,1.5,0.6,2.2c0.4,0.7,0.9,1.2,1.5,1.6c0.7,0.4,1.4,0.6,2.2,0.6l0,0c0.8,0,1.5-0.2,2.2-0.6c0.7-0.4,1.2-0.9,1.5-1.6
				c0.4-0.7,0.6-1.4,0.6-2.2l0,0c0-0.8-0.2-1.5-0.5-2.2c-0.4-0.7-0.9-1.2-1.5-1.5c-0.6-0.4-1.3-0.6-2.1-0.6l0,0
				c-0.7,0-1.3,0.1-1.8,0.4c-0.6,0.3-1,0.7-1.4,1.2l0,0v-4.5c0-0.2-0.1-0.3-0.2-0.4s-0.3-0.2-0.4-0.2l0,0c-0.2,0-0.3,0.1-0.4,0.2
				s-0.2,0.3-0.2,0.4l0,0V48.1z M143.2,55.1c-0.6,0-1.1-0.1-1.6-0.4c-0.5-0.3-0.8-0.7-1.1-1.2s-0.4-1-0.4-1.6l0,0c0-0.2,0-0.3,0-0.4
				l0,0c0,0,0,0,0-0.1l0,0c0.1-0.8,0.4-1.5,1-2c0.6-0.5,1.3-0.8,2.1-0.8l0,0c0.6,0,1.1,0.1,1.6,0.4s0.9,0.7,1.1,1.2s0.4,1,0.4,1.6
				l0,0c0,0.6-0.1,1.2-0.4,1.6s-0.7,0.9-1.1,1.2S143.8,55.1,143.2,55.1L143.2,55.1z M155.2,47.5c0.8,0,1.5,0.2,2.2,0.6
				c0.7,0.4,1.2,0.9,1.5,1.5c0.4,0.7,0.6,1.4,0.6,2.2l0,0c0,0.8-0.2,1.6-0.6,2.2c-0.4,0.7-0.9,1.2-1.5,1.5c-0.7,0.4-1.4,0.6-2.2,0.6
				l0,0c-0.8,0-1.6-0.2-2.2-0.6c-0.7-0.4-1.2-0.9-1.5-1.5c-0.4-0.7-0.6-1.4-0.6-2.2l0,0c0-0.8,0.2-1.6,0.6-2.2s0.9-1.2,1.5-1.5
				C153.7,47.7,154.4,47.5,155.2,47.5L155.2,47.5z M155.2,48.6c-0.6,0-1.1,0.1-1.6,0.4c-0.5,0.3-0.9,0.7-1.1,1.2s-0.4,1-0.4,1.7l0,0
				c0,0.6,0.1,1.2,0.4,1.6s0.7,0.9,1.1,1.2c0.5,0.3,1,0.4,1.6,0.4l0,0c0.6,0,1.1-0.1,1.6-0.4c0.5-0.3,0.8-0.7,1.1-1.2s0.4-1,0.4-1.6
				l0,0c0-0.6-0.1-1.2-0.4-1.7s-0.6-0.9-1.1-1.2C156.4,48.8,155.8,48.6,155.2,48.6L155.2,48.6z M168.9,55.2c0.1,0.1,0.2,0.3,0.2,0.4
				l0,0c0,0.1-0.1,0.3-0.2,0.4c-0.1,0.1-0.2,0.1-0.4,0.1l0,0c-0.1,0-0.2,0-0.3-0.1c-0.1,0-0.2-0.1-0.2-0.2l0,0l-2.5-3.2l-2.6,3.3
				c-0.1,0.1-0.2,0.2-0.4,0.2l0,0c-0.2,0-0.3-0.1-0.4-0.2c-0.1-0.1-0.1-0.2-0.1-0.4l0,0c0-0.2,0.1-0.3,0.2-0.4l0,0l2.7-3.3l-2.5-3.2
				c-0.1-0.1-0.2-0.3-0.2-0.4l0,0c0-0.2,0-0.3,0.1-0.4c0.1-0.1,0.2-0.2,0.4-0.2l0,0c0.2,0,0.3,0.1,0.4,0.2l0,0l2.5,3.2l2.5-3.1
				c0.1-0.2,0.3-0.3,0.5-0.3l0,0c0.2,0,0.3,0.1,0.4,0.2c0.1,0.1,0.1,0.2,0.1,0.4l0,0c0,0.2-0.1,0.3-0.2,0.4l0,0l-2.6,3.2L168.9,55.2
				z M187.4,44.6c0-0.2,0.1-0.3,0.2-0.4c0.1-0.1,0.3-0.2,0.4-0.2l0,0c0.2,0,0.3,0.1,0.4,0.2s0.2,0.3,0.2,0.4l0,0v10.9
				c0,0.2-0.1,0.3-0.2,0.4c-0.1,0.1-0.3,0.2-0.4,0.2l0,0c-0.2,0-0.4-0.1-0.4-0.2l0,0l-7.4-9.7v9.3c0,0.2-0.1,0.3-0.2,0.4
				c-0.1,0.1-0.3,0.2-0.4,0.2l0,0c-0.2,0-0.3-0.1-0.4-0.2s-0.2-0.3-0.2-0.4l0,0V44.6c0-0.2,0.1-0.3,0.2-0.4s0.3-0.2,0.4-0.2l0,0
				c0.2,0,0.3,0.1,0.5,0.2l0,0l7.4,9.7V44.6z M196.7,47.5c0.8,0,1.4,0.2,2,0.5c0.6,0.4,1,0.8,1.4,1.5s0.5,1.3,0.5,2.2l0,0
				c0,0.2-0.1,0.3-0.2,0.4c-0.1,0.1-0.2,0.1-0.4,0.1l0,0h-6.3c0.1,0.8,0.4,1.5,1,2.1c0.6,0.5,1.3,0.8,2.2,0.8l0,0
				c0.4,0,0.7-0.1,1.1-0.2c0.4-0.1,0.7-0.3,0.9-0.5l0,0c0.1-0.1,0.3-0.2,0.4-0.2l0,0c0.1,0,0.2,0,0.3,0.1l0,0
				c0.1,0.1,0.2,0.3,0.2,0.4l0,0c0,0.1-0.1,0.3-0.2,0.4l0,0c-0.3,0.3-0.8,0.5-1.3,0.7c-0.5,0.2-1,0.3-1.5,0.3l0,0
				c-0.8,0-1.6-0.2-2.2-0.5s-1.2-0.9-1.5-1.5c-0.4-0.7-0.5-1.4-0.5-2.2l0,0c0-0.8,0.2-1.6,0.5-2.2c0.3-0.7,0.8-1.2,1.4-1.5
				C195.2,47.7,195.9,47.5,196.7,47.5L196.7,47.5z M196.7,48.6c-0.8,0-1.4,0.2-2,0.7c-0.5,0.5-0.8,1.1-0.9,1.9l0,0h5.7
				c-0.1-0.8-0.4-1.4-0.9-1.9C198.1,48.9,197.5,48.6,196.7,48.6L196.7,48.6z M207.4,47.5c0.8,0,1.4,0.2,2,0.5c0.6,0.4,1,0.8,1.4,1.5
				s0.5,1.3,0.5,2.2l0,0c0,0.2-0.1,0.3-0.2,0.4c-0.1,0.1-0.2,0.1-0.4,0.1l0,0h-6.3c0.1,0.8,0.4,1.5,1,2.1c0.6,0.5,1.3,0.8,2.2,0.8
				l0,0c0.4,0,0.7-0.1,1.1-0.2c0.4-0.1,0.7-0.3,0.9-0.5l0,0c0.1-0.1,0.3-0.2,0.4-0.2l0,0c0.1,0,0.2,0,0.3,0.1l0,0
				c0.1,0.1,0.2,0.3,0.2,0.4l0,0c0,0.1-0.1,0.3-0.2,0.4l0,0c-0.3,0.3-0.8,0.5-1.3,0.7c-0.5,0.2-1,0.3-1.5,0.3l0,0
				c-0.8,0-1.6-0.2-2.2-0.5c-0.7-0.4-1.2-0.9-1.5-1.5c-0.4-0.7-0.5-1.4-0.5-2.2l0,0c0-0.8,0.2-1.6,0.5-2.2c0.3-0.7,0.8-1.2,1.4-1.5
				C206,47.7,206.7,47.5,207.4,47.5L207.4,47.5z M207.4,48.6c-0.8,0-1.4,0.2-2,0.7c-0.5,0.5-0.8,1.1-0.9,1.9l0,0h5.7
				c-0.1-0.8-0.4-1.4-0.9-1.9C208.9,48.9,208.2,48.6,207.4,48.6L207.4,48.6z M222.7,48.1c0,0,0,0.1,0,0.1l0,0v3.6
				c0,0.8-0.2,1.5-0.6,2.2c-0.4,0.7-0.9,1.2-1.5,1.6s-1.4,0.6-2.2,0.6l0,0c-0.8,0-1.5-0.2-2.2-0.6s-1.2-0.9-1.5-1.6
				c-0.4-0.7-0.6-1.4-0.6-2.2l0,0c0-0.8,0.2-1.5,0.5-2.2c0.4-0.7,0.9-1.2,1.5-1.5s1.3-0.6,2.1-0.6l0,0c0.7,0,1.3,0.1,1.8,0.4
				c0.6,0.3,1,0.7,1.4,1.2l0,0v-4.5c0-0.2,0.1-0.3,0.2-0.4c0.1-0.1,0.3-0.2,0.4-0.2l0,0c0.2,0,0.3,0.1,0.4,0.2s0.2,0.3,0.2,0.4l0,0
				V48.1z M218.4,55.1c0.6,0,1.1-0.1,1.6-0.4c0.5-0.3,0.8-0.7,1.1-1.2s0.4-1,0.4-1.6l0,0c0-0.2,0-0.3,0-0.4l0,0c0,0,0,0,0-0.1l0,0
				c-0.1-0.8-0.4-1.5-1-2c-0.6-0.5-1.3-0.8-2.1-0.8l0,0c-0.6,0-1.1,0.1-1.6,0.4c-0.5,0.3-0.9,0.7-1.1,1.2c-0.3,0.5-0.4,1-0.4,1.6
				l0,0c0,0.6,0.1,1.2,0.4,1.6c0.3,0.5,0.7,0.9,1.1,1.2C217.3,54.9,217.8,55.1,218.4,55.1L218.4,55.1z M230,47.5
				c0.7,0,1.3,0.1,1.8,0.3c0.5,0.2,0.9,0.6,1.2,1l0,0c0.1,0.1,0.1,0.3,0.1,0.4l0,0c0,0.2-0.1,0.3-0.2,0.4l0,0
				c-0.1,0.1-0.2,0.1-0.3,0.1l0,0c-0.2,0-0.4-0.1-0.5-0.2l0,0c-0.5-0.6-1.2-0.9-2.1-0.9l0,0c-0.6,0-1,0.1-1.4,0.3
				c-0.3,0.2-0.5,0.5-0.5,0.9l0,0c0,0.4,0.2,0.7,0.5,0.9c0.3,0.2,0.9,0.4,1.7,0.5l0,0c1.1,0.2,1.9,0.5,2.4,0.9
				c0.5,0.4,0.7,0.9,0.7,1.6l0,0c0,0.5-0.1,0.9-0.4,1.3c-0.3,0.4-0.7,0.7-1.2,0.9s-1.1,0.3-1.7,0.3l0,0c-0.6,0-1.3-0.1-1.8-0.3
				c-0.6-0.2-1.1-0.5-1.4-0.9l0,0c-0.1-0.1-0.2-0.2-0.2-0.4l0,0c0-0.2,0.1-0.3,0.2-0.5l0,0c0.1-0.1,0.3-0.1,0.4-0.1l0,0
				c0.2,0,0.3,0.1,0.4,0.2l0,0c0.2,0.3,0.6,0.5,1,0.7c0.4,0.2,0.9,0.2,1.4,0.2l0,0c0.7,0,1.3-0.1,1.6-0.4c0.4-0.2,0.5-0.6,0.6-1l0,0
				c0-0.4-0.2-0.7-0.5-0.9s-0.9-0.4-1.7-0.6l0,0c-1-0.2-1.8-0.5-2.3-0.9c-0.5-0.4-0.8-0.9-0.8-1.5l0,0c0-0.8,0.3-1.3,0.9-1.8
				S229.1,47.5,230,47.5L230,47.5z M246.9,47.5c0.8,0,1.5,0.2,2.2,0.6c0.7,0.4,1.2,0.9,1.5,1.6c0.4,0.7,0.6,1.4,0.6,2.2l0,0v3.6
				c0,0.2-0.1,0.3-0.2,0.4s-0.3,0.2-0.4,0.2l0,0c-0.2,0-0.3-0.1-0.4-0.2s-0.2-0.3-0.2-0.4l0,0v-0.9c-0.4,0.5-0.8,0.9-1.4,1.2
				c-0.6,0.3-1.2,0.4-1.8,0.4l0,0c-0.8,0-1.5-0.2-2.1-0.6c-0.6-0.4-1.1-0.9-1.5-1.5c-0.4-0.7-0.5-1.4-0.5-2.2l0,0
				c0-0.8,0.2-1.5,0.6-2.2c0.4-0.7,0.9-1.2,1.5-1.6C245.4,47.7,246.1,47.5,246.9,47.5L246.9,47.5z M246.9,55.1
				c0.6,0,1.1-0.1,1.6-0.4c0.5-0.3,0.8-0.7,1.1-1.2s0.4-1,0.4-1.6l0,0c0-0.6-0.1-1.2-0.4-1.6s-0.6-0.9-1.1-1.2
				c-0.5-0.3-1-0.4-1.6-0.4l0,0c-0.6,0-1.1,0.1-1.6,0.4c-0.5,0.3-0.9,0.7-1.1,1.2s-0.4,1-0.4,1.6l0,0c0,0.6,0.1,1.2,0.4,1.6
				s0.7,0.9,1.1,1.2C245.8,55,246.3,55.1,246.9,55.1L246.9,55.1z M270.1,44.6c0-0.2,0.1-0.3,0.2-0.4s0.3-0.2,0.4-0.2l0,0
				c0.2,0,0.3,0.1,0.4,0.2c0.1,0.1,0.2,0.3,0.2,0.4l0,0v10.9c0,0.2-0.1,0.3-0.2,0.4c-0.1,0.1-0.3,0.2-0.4,0.2l0,0
				c-0.2,0-0.3-0.1-0.4-0.2c-0.1-0.1-0.2-0.3-0.2-0.4l0,0v-5h-7.6v5c0,0.2-0.1,0.3-0.2,0.4c-0.1,0.1-0.3,0.2-0.4,0.2l0,0
				c-0.2,0-0.3-0.1-0.4-0.2c-0.1-0.1-0.2-0.3-0.2-0.4l0,0V44.6c0-0.2,0.1-0.3,0.2-0.4s0.3-0.2,0.4-0.2l0,0c0.2,0,0.3,0.1,0.4,0.2
				c0.1,0.1,0.2,0.3,0.2,0.4l0,0v4.8h7.6V44.6z M279.7,47.5c0.8,0,1.5,0.2,2.2,0.6c0.7,0.4,1.2,0.9,1.5,1.6c0.4,0.7,0.6,1.4,0.6,2.2
				l0,0v3.6c0,0.2-0.1,0.3-0.2,0.4c-0.1,0.1-0.3,0.2-0.4,0.2l0,0c-0.2,0-0.3-0.1-0.4-0.2c-0.1-0.1-0.2-0.3-0.2-0.4l0,0v-0.9
				c-0.4,0.5-0.8,0.9-1.4,1.2c-0.6,0.3-1.2,0.4-1.8,0.4l0,0c-0.8,0-1.5-0.2-2.1-0.6s-1.1-0.9-1.5-1.5c-0.4-0.7-0.5-1.4-0.5-2.2l0,0
				c0-0.8,0.2-1.5,0.6-2.2s0.9-1.2,1.5-1.6S278.9,47.5,279.7,47.5L279.7,47.5z M279.7,55.1c0.6,0,1.1-0.1,1.6-0.4
				c0.5-0.3,0.8-0.7,1.1-1.2c0.3-0.5,0.4-1,0.4-1.6l0,0c0-0.6-0.1-1.2-0.4-1.6c-0.3-0.5-0.6-0.9-1.1-1.2c-0.5-0.3-1-0.4-1.6-0.4l0,0
				c-0.6,0-1.1,0.1-1.6,0.4c-0.5,0.3-0.9,0.7-1.1,1.2c-0.3,0.5-0.4,1-0.4,1.6l0,0c0,0.6,0.1,1.2,0.4,1.6c0.3,0.5,0.7,0.9,1.1,1.2
				C278.5,55,279.1,55.1,279.7,55.1L279.7,55.1z M296.8,47.5c0.6,0,1.1,0.1,1.6,0.4c0.5,0.3,0.8,0.7,1.1,1.2
				c0.3,0.5,0.4,1.1,0.4,1.9l0,0v4.5c0,0.2-0.1,0.3-0.2,0.4s-0.3,0.2-0.4,0.2l0,0c-0.2,0-0.3-0.1-0.4-0.2c-0.1-0.1-0.2-0.3-0.2-0.4
				l0,0V51c0-0.7-0.2-1.3-0.6-1.7c-0.4-0.4-0.9-0.6-1.5-0.6l0,0c-0.7,0-1.2,0.2-1.6,0.7c-0.4,0.4-0.6,1-0.6,1.7l0,0v0v4.5
				c0,0.2-0.1,0.3-0.2,0.4c-0.1,0.1-0.3,0.2-0.4,0.2l0,0c-0.2,0-0.3-0.1-0.4-0.2c-0.1-0.1-0.2-0.3-0.2-0.4l0,0V51
				c0-0.7-0.2-1.3-0.6-1.7c-0.4-0.4-0.9-0.6-1.5-0.6l0,0c-0.6,0-1.2,0.2-1.6,0.6c-0.4,0.4-0.6,1-0.6,1.6l0,0v4.6
				c0,0.2-0.1,0.3-0.2,0.4c-0.1,0.1-0.3,0.2-0.4,0.2l0,0c-0.2,0-0.3-0.1-0.4-0.2s-0.2-0.3-0.2-0.4l0,0v-7.3c0-0.2,0.1-0.3,0.2-0.4
				c0.1-0.1,0.3-0.2,0.4-0.2l0,0c0.2,0,0.3,0.1,0.4,0.2c0.1,0.1,0.2,0.3,0.2,0.4l0,0v0.3c0.3-0.3,0.6-0.6,1-0.8
				c0.4-0.2,0.8-0.3,1.3-0.3l0,0c0.6,0,1.1,0.1,1.5,0.4c0.5,0.3,0.8,0.6,1.1,1.1l0,0c0.3-0.5,0.7-0.8,1.2-1.1
				C295.6,47.7,296.2,47.5,296.8,47.5L296.8,47.5z M313,47.5c0.6,0,1.1,0.1,1.6,0.4c0.5,0.3,0.8,0.7,1.1,1.2
				c0.3,0.5,0.4,1.1,0.4,1.9l0,0v4.5c0,0.2-0.1,0.3-0.2,0.4c-0.1,0.1-0.3,0.2-0.4,0.2l0,0c-0.2,0-0.3-0.1-0.4-0.2
				c-0.1-0.1-0.2-0.3-0.2-0.4l0,0V51c0-0.7-0.2-1.3-0.6-1.7c-0.4-0.4-0.9-0.6-1.5-0.6l0,0c-0.7,0-1.2,0.2-1.6,0.7
				c-0.4,0.4-0.6,1-0.6,1.7l0,0v0v4.5c0,0.2-0.1,0.3-0.2,0.4c-0.1,0.1-0.3,0.2-0.4,0.2l0,0c-0.2,0-0.3-0.1-0.4-0.2
				c-0.1-0.1-0.2-0.3-0.2-0.4l0,0V51c0-0.7-0.2-1.3-0.6-1.7s-0.9-0.6-1.5-0.6l0,0c-0.6,0-1.2,0.2-1.6,0.6c-0.4,0.4-0.6,1-0.6,1.6
				l0,0v4.6c0,0.2-0.1,0.3-0.2,0.4c-0.1,0.1-0.3,0.2-0.4,0.2l0,0c-0.2,0-0.3-0.1-0.4-0.2c-0.1-0.1-0.2-0.3-0.2-0.4l0,0v-7.3
				c0-0.2,0.1-0.3,0.2-0.4c0.1-0.1,0.3-0.2,0.4-0.2l0,0c0.2,0,0.3,0.1,0.4,0.2c0.1,0.1,0.2,0.3,0.2,0.4l0,0v0.3
				c0.3-0.3,0.6-0.6,1-0.8c0.4-0.2,0.8-0.3,1.3-0.3l0,0c0.6,0,1.1,0.1,1.5,0.4c0.5,0.3,0.8,0.6,1.1,1.1l0,0c0.3-0.5,0.7-0.8,1.2-1.1
				C311.8,47.7,312.4,47.5,313,47.5L313,47.5z M323.9,47.5c0.8,0,1.4,0.2,2,0.5c0.6,0.4,1,0.8,1.4,1.5c0.3,0.6,0.5,1.3,0.5,2.2l0,0
				c0,0.2-0.1,0.3-0.2,0.4c-0.1,0.1-0.2,0.1-0.4,0.1l0,0h-6.3c0.1,0.8,0.4,1.5,1,2.1c0.6,0.5,1.3,0.8,2.2,0.8l0,0
				c0.4,0,0.7-0.1,1.1-0.2s0.7-0.3,0.9-0.5l0,0c0.1-0.1,0.3-0.2,0.4-0.2l0,0c0.1,0,0.2,0,0.3,0.1l0,0c0.1,0.1,0.2,0.3,0.2,0.4l0,0
				c0,0.1-0.1,0.3-0.2,0.4l0,0c-0.3,0.3-0.8,0.5-1.3,0.7c-0.5,0.2-1,0.3-1.5,0.3l0,0c-0.8,0-1.6-0.2-2.2-0.5
				c-0.7-0.4-1.2-0.9-1.5-1.5c-0.4-0.7-0.5-1.4-0.5-2.2l0,0c0-0.8,0.2-1.6,0.5-2.2c0.3-0.7,0.8-1.2,1.4-1.5
				C322.4,47.7,323.1,47.5,323.9,47.5L323.9,47.5z M323.9,48.6c-0.8,0-1.4,0.2-2,0.7c-0.5,0.5-0.8,1.1-0.9,1.9l0,0h5.7
				c-0.1-0.8-0.4-1.4-0.9-1.9C325.3,48.9,324.6,48.6,323.9,48.6L323.9,48.6z M335.1,47.5c0.4,0,0.8,0.1,1,0.2
				c0.3,0.1,0.4,0.3,0.4,0.5l0,0c0,0.1,0,0.1,0,0.1l0,0c0,0.1-0.1,0.2-0.2,0.3c-0.1,0.1-0.2,0.1-0.4,0.1l0,0c-0.1,0-0.3,0-0.5,0l0,0
				c-0.1,0-0.2,0-0.4,0l0,0c-0.8,0-1.4,0.2-1.9,0.6s-0.7,1-0.7,1.6l0,0v4.6c0,0.2-0.1,0.3-0.2,0.4c-0.1,0.1-0.2,0.2-0.4,0.2l0,0
				c-0.2,0-0.3-0.1-0.4-0.2c-0.1-0.1-0.2-0.2-0.2-0.4l0,0v-7.3c0-0.2,0.1-0.3,0.2-0.4c0.1-0.1,0.2-0.2,0.4-0.2l0,0
				c0.2,0,0.3,0.1,0.4,0.2c0.1,0.1,0.2,0.2,0.2,0.4l0,0v0.7c0.3-0.4,0.7-0.8,1.1-1C334.1,47.7,334.6,47.5,335.1,47.5L335.1,47.5z"/>
		</g>
	</g>
	<g transform="rotate(0 0 0)">
		<g transform="matrix(1 0 0 1 0 0)">
			<path class="st0" d="M17.9,5.8L17.9,5.8c0,0.1-0.1,0.2-0.1,0.2c-0.1,0.1-0.1,0.1-0.2,0.1l0,0c-0.1,0-0.2,0-0.3-0.1
				c-0.1-0.1-0.1-0.2-0.1-0.3l0,0c0-0.1,0-0.2,0-0.3c0-0.1,0-0.2,0-0.3l0,0c0-0.5-0.2-1-0.5-1.4c-0.3-0.4-0.8-0.7-1.3-1
				c-0.6-0.3-1.3-0.5-2.1-0.6c-0.8-0.1-1.7-0.2-2.7-0.2l0,0C9.7,1.8,9,1.9,8.2,2C7.4,2.1,6.7,2.2,5.9,2.4c-0.7,0.2-1.4,0.4-2,0.7
				c-0.6,0.3-1.2,0.6-1.6,1C1.8,4.5,1.5,5,1.2,5.4c-0.3,0.5-0.4,1-0.4,1.5l0,0c0,0.4,0.1,0.8,0.3,1.1c0.2,0.3,0.4,0.6,0.8,0.8
				C2.2,9.1,2.5,9.3,3,9.5c0.4,0.2,0.9,0.3,1.4,0.4c0.5,0.1,1,0.2,1.6,0.3c0.5,0.1,1.1,0.1,1.7,0.2l0,0l1.6,0.1
				c0.8,0.1,1.5,0.1,2.1,0.2c0.6,0.1,1.2,0.2,1.7,0.3l0,0c0.8,0.2,1.4,0.5,1.8,0.9c0.4,0.4,0.6,0.9,0.6,1.5l0,0
				c0,0.6-0.2,1.1-0.5,1.6c-0.3,0.5-0.8,0.8-1.4,1.2c-0.6,0.3-1.3,0.5-2,0.7C10.7,17,9.9,17.1,9,17.1l0,0c-1,0-1.8-0.1-2.5-0.2
				c-0.7-0.1-1.3-0.3-1.8-0.4c-0.5-0.2-0.9-0.3-1.1-0.4c-0.3-0.1-0.4-0.2-0.4-0.2l0,0c-0.1-0.1-0.2-0.2-0.2-0.3l0,0
				c0-0.1,0-0.2,0.1-0.3c0.1-0.1,0.2-0.1,0.3-0.1l0,0c0.1,0,0.1,0,0.2,0.1l0,0c0,0,0.1,0.1,0.4,0.2c0.2,0.1,0.6,0.3,1,0.4
				s1,0.3,1.7,0.4c0.7,0.1,1.5,0.2,2.4,0.2l0,0c0.9,0,1.7-0.1,2.4-0.2c0.7-0.1,1.3-0.4,1.7-0.6c0.5-0.3,0.8-0.6,1.1-0.9
				c0.2-0.4,0.4-0.7,0.4-1.1l0,0c0-0.2,0-0.5-0.1-0.6c-0.1-0.2-0.2-0.3-0.4-0.5c-0.2-0.1-0.3-0.2-0.5-0.3c-0.2-0.1-0.4-0.2-0.7-0.2
				l0,0c-0.3-0.1-0.6-0.1-0.9-0.2c-0.3,0-0.6-0.1-0.9-0.1c-0.3,0-0.6-0.1-1-0.1s-0.6-0.1-1-0.1l0,0l-1.6-0.1
				c-1.3-0.1-2.4-0.3-3.3-0.5c-0.9-0.2-1.7-0.5-2.3-0.8C1.3,9.5,0.8,9.1,0.5,8.6C0.2,8.1,0,7.6,0,6.9l0,0c0-0.7,0.1-1.3,0.4-1.8
				s0.7-1,1.2-1.5c0.5-0.4,1.1-0.8,1.8-1.1c0.7-0.3,1.4-0.6,2.2-0.8c0.8-0.2,1.6-0.4,2.4-0.5c0.8-0.1,1.7-0.2,2.5-0.2l0,0
				c1,0,1.9,0.1,2.6,0.2c0.7,0.1,1.4,0.3,1.9,0.5c0.5,0.2,1,0.4,1.3,0.7c0.3,0.2,0.6,0.5,0.8,0.7l0,0c0.5,0.6,0.7,1.2,0.7,2l0,0
				C17.9,5.3,17.9,5.5,17.9,5.8z M24.4,13.8L24.4,13.8c-0.1,0.2-0.2,0.3-0.3,0.6c-0.1,0.2-0.2,0.4-0.4,0.7c-0.1,0.2-0.3,0.5-0.5,0.7
				c-0.2,0.2-0.4,0.4-0.6,0.6c-0.2,0.2-0.4,0.3-0.7,0.4C21.7,17,21.4,17,21.2,17l0,0c-0.4,0-0.8-0.1-1.1-0.4c-0.3-0.3-0.6-0.6-0.8-1
				c-0.2-0.4-0.4-0.9-0.5-1.4c-0.1-0.5-0.2-1.1-0.3-1.6c-0.1-0.6-0.1-1.1-0.1-1.6c0-0.5,0-1,0-1.4l0,0c0-0.6,0-1.2,0.1-1.8
				c0-0.6,0.1-1.2,0.2-1.8c0.1-0.6,0.2-1.2,0.3-1.7s0.3-1,0.5-1.4c0.2-0.4,0.4-0.7,0.6-1c0.2-0.2,0.5-0.4,0.8-0.4l0,0
				c0.2,0,0.4,0.1,0.6,0.2c0.2,0.1,0.3,0.3,0.5,0.5c0.1,0.2,0.2,0.6,0.3,0.9c0.1,0.4,0.1,0.9,0.1,1.4l0,0c0,0.7-0.1,1.4-0.2,2.2
				S21.7,8.2,21.4,9c-0.2,0.8-0.5,1.5-0.9,2.2c-0.3,0.7-0.7,1.5-1.1,2.2l0,0c0.2,0.9,0.4,1.6,0.7,2.1c0.3,0.5,0.6,0.8,1.1,0.8l0,0
				c0.3,0,0.5-0.1,0.8-0.3c0.3-0.2,0.5-0.5,0.7-0.8c0.2-0.3,0.4-0.6,0.6-0.9c0.2-0.3,0.3-0.6,0.4-0.7l0,0c0-0.1,0.1-0.1,0.1-0.2
				c0.1,0,0.1-0.1,0.2-0.1l0,0c0.1,0,0.2,0,0.3,0.1c0.1,0.1,0.1,0.2,0.1,0.3l0,0C24.4,13.7,24.4,13.7,24.4,13.8z M19.1,9.6L19.1,9.6
				c0,0.4,0,0.9,0,1.3c0,0.4,0,0.8,0.1,1.2l0,0c0.3-0.6,0.6-1.2,0.8-1.8c0.3-0.6,0.5-1.3,0.7-1.9c0.2-0.7,0.4-1.3,0.5-1.9
				c0.1-0.6,0.2-1.3,0.2-1.8l0,0c0-0.8-0.1-1.4-0.2-1.8c-0.1-0.4-0.3-0.5-0.5-0.5l0,0c-0.1,0-0.3,0.1-0.4,0.3
				c-0.1,0.2-0.3,0.5-0.4,0.8c-0.1,0.3-0.2,0.8-0.3,1.2c-0.1,0.5-0.2,1-0.2,1.5c-0.1,0.5-0.1,1.1-0.2,1.7C19.2,8.5,19.1,9,19.1,9.6z
				 M28.5,15.6L28.5,15.6c-0.2,0-0.3,0-0.5,0l0,0c-0.1,0.2-0.2,0.4-0.4,0.6c-0.1,0.2-0.3,0.3-0.5,0.5c-0.2,0.1-0.4,0.2-0.6,0.3
				C26.2,16.9,26,17,25.7,17l0,0c-0.3,0-0.6-0.1-0.9-0.2c-0.3-0.1-0.5-0.3-0.7-0.5c-0.2-0.2-0.4-0.5-0.5-0.7c-0.1-0.3-0.2-0.6-0.2-1
				l0,0c0-0.4,0.1-0.8,0.2-1.2c0.2-0.3,0.3-0.6,0.5-0.8c0.2-0.2,0.4-0.4,0.6-0.5c0.2-0.1,0.4-0.2,0.5-0.2l0,0c0.1,0,0.2,0,0.3,0.1
				c0.1,0.1,0.1,0.1,0.1,0.3l0,0c0,0.1,0,0.2-0.1,0.3c-0.1,0.1-0.2,0.1-0.3,0.2l0,0c-0.1,0.1-0.2,0.1-0.4,0.2
				c-0.1,0.1-0.2,0.2-0.3,0.4c-0.1,0.2-0.2,0.3-0.3,0.5c-0.1,0.2-0.1,0.4-0.1,0.7l0,0c0,0.2,0,0.4,0.1,0.6c0.1,0.2,0.2,0.4,0.3,0.5
				c0.1,0.1,0.3,0.3,0.5,0.3c0.2,0.1,0.4,0.1,0.6,0.1l0,0c0.4,0,0.7-0.1,1-0.3c0.3-0.2,0.5-0.4,0.6-0.7l0,0c-0.4-0.2-0.7-0.5-1-0.9
				C26,14,25.9,13.5,25.9,13l0,0c0-0.4,0.1-0.7,0.3-1c0.2-0.2,0.4-0.4,0.8-0.4l0,0c0.2,0,0.4,0,0.5,0.1c0.2,0.1,0.3,0.2,0.4,0.4
				c0.1,0.2,0.2,0.4,0.3,0.8c0.1,0.3,0.1,0.7,0.1,1.1l0,0c0,0.2,0,0.5-0.1,0.7l0,0c0,0,0.1,0,0.1,0c0,0,0.1,0,0.1,0l0,0
				c0.2,0,0.4,0,0.6-0.1c0.2-0.1,0.4-0.1,0.5-0.3s0.3-0.3,0.4-0.4c0.1-0.2,0.2-0.4,0.3-0.6l0,0c0,0,0.1-0.1,0.1-0.1
				c0.1,0,0.1-0.1,0.2-0.1l0,0c0.1,0,0.2,0,0.3,0.1c0.1,0.1,0.1,0.2,0.1,0.3l0,0c0,0.1,0,0.1,0,0.2c0,0.1-0.1,0.1-0.1,0.2l0,0
				c-0.1,0.2-0.3,0.4-0.4,0.6c-0.2,0.2-0.3,0.4-0.6,0.5c-0.2,0.1-0.4,0.3-0.7,0.3C29.1,15.5,28.8,15.6,28.5,15.6z M26.7,12.9
				L26.7,12.9c0,0.1,0,0.3,0.1,0.4c0,0.1,0.1,0.3,0.2,0.4c0.1,0.1,0.2,0.3,0.3,0.4c0.1,0.1,0.2,0.2,0.4,0.3l0,0c0-0.1,0-0.3,0-0.4
				l0,0c0-0.2,0-0.4,0-0.6c0-0.2-0.1-0.4-0.1-0.5c-0.1-0.2-0.1-0.3-0.2-0.4c-0.1-0.1-0.2-0.2-0.3-0.2l0,0c0,0-0.1,0-0.2,0.1
				C26.7,12.6,26.7,12.7,26.7,12.9z M37.7,13.8L37.7,13.8c0,0.4-0.1,0.7-0.1,1.1c-0.1,0.4-0.2,0.7-0.4,1c-0.2,0.3-0.4,0.5-0.6,0.7
				c-0.3,0.2-0.6,0.3-1,0.3l0,0c-0.2,0-0.5,0-0.6-0.1c-0.2-0.1-0.3-0.2-0.5-0.3c-0.1-0.1-0.2-0.3-0.3-0.4c-0.1-0.2-0.2-0.3-0.2-0.5
				l0,0c-0.2,0.4-0.5,0.7-0.9,0.9c-0.3,0.2-0.7,0.3-1,0.3l0,0c-0.3,0-0.5,0-0.7-0.1c-0.2-0.1-0.4-0.2-0.5-0.4
				c-0.1-0.2-0.3-0.4-0.4-0.6c-0.1-0.2-0.1-0.5-0.1-0.8l0,0c0-0.5,0-1,0.1-1.3c0.1-0.4,0.2-0.7,0.3-0.9c0.1-0.2,0.2-0.4,0.3-0.5
				c0.1-0.1,0.1-0.2,0.1-0.2l0,0c0,0,0.1-0.1,0.1-0.1c0.1,0,0.1,0,0.2,0l0,0c0.1,0,0.2,0,0.3,0.1c0.1,0.1,0.1,0.2,0.1,0.3l0,0
				c0,0.1,0,0.2-0.1,0.3l0,0c0,0-0.1,0.1-0.2,0.2c-0.1,0.1-0.2,0.3-0.2,0.5c-0.1,0.2-0.2,0.4-0.2,0.7c-0.1,0.3-0.1,0.6-0.1,1l0,0
				c0,0.4,0.1,0.7,0.3,0.9c0.2,0.2,0.4,0.3,0.7,0.3l0,0c0.1,0,0.3,0,0.5-0.1c0.2-0.1,0.3-0.2,0.5-0.4c0.2-0.2,0.3-0.4,0.4-0.6
				c0.1-0.3,0.2-0.6,0.2-0.9l0,0l0.1-1.8c0-0.1,0.1-0.2,0.1-0.3c0.1-0.1,0.2-0.1,0.3-0.1l0,0c0.1,0,0.2,0,0.3,0.1
				c0.1,0.1,0.1,0.2,0.1,0.3l0,0L34.4,14c0,0.4,0,0.7,0,0.9c0,0.3,0.1,0.5,0.2,0.7c0.1,0.2,0.2,0.3,0.4,0.4c0.2,0.1,0.3,0.1,0.5,0.1
				l0,0c0.3,0,0.5-0.1,0.6-0.2c0.2-0.1,0.3-0.3,0.4-0.6c0.1-0.2,0.2-0.5,0.2-0.9c0-0.3,0.1-0.7,0.1-1l0,0c0-0.4,0-0.8-0.1-1.1
				c0-0.3-0.1-0.5-0.1-0.6l0,0c0-0.1,0-0.2,0.1-0.3c0.1-0.1,0.2-0.1,0.3-0.1l0,0c0.1,0,0.2,0,0.3,0.1c0.1,0.1,0.1,0.1,0.1,0.2l0,0
				c0,0,0,0.1,0.1,0.2c0,0.1,0.1,0.3,0.1,0.5c0.1,0.2,0.1,0.4,0.2,0.6c0.1,0.2,0.2,0.4,0.4,0.6c0.1,0.2,0.3,0.3,0.5,0.4
				c0.2,0.1,0.4,0.2,0.6,0.2l0,0c0.1,0,0.2,0,0.3-0.1c0.1,0,0.2-0.1,0.2-0.2c0.1-0.1,0.1-0.1,0.1-0.2c0-0.1,0.1-0.1,0.1-0.1l0,0
				c0-0.1,0.1-0.1,0.1-0.2c0.1,0,0.1-0.1,0.2-0.1l0,0c0.1,0,0.2,0,0.3,0.1c0.1,0.1,0.1,0.2,0.1,0.3l0,0c0,0.1,0,0.2-0.1,0.3
				c-0.1,0.1-0.2,0.3-0.3,0.4c-0.1,0.1-0.3,0.2-0.5,0.3c-0.2,0.1-0.4,0.1-0.6,0.1l0,0c-0.2,0-0.4,0-0.6-0.1
				c-0.2-0.1-0.3-0.1-0.5-0.2c-0.1-0.1-0.3-0.2-0.4-0.3C37.9,14.1,37.8,13.9,37.7,13.8z M60.4,1.6L60.4,1.6c0,0.2-0.1,0.5-0.2,0.7
				c-0.1,0.2-0.3,0.5-0.5,0.7c-0.2,0.2-0.4,0.4-0.7,0.5c-0.3,0.2-0.5,0.3-0.8,0.4l0,0c-0.1,0.3-0.1,0.6-0.2,1C58,5.2,58,5.6,58,6.1
				l0,0c0,0.5,0,1.1-0.1,1.6c0,0.5-0.1,1.1-0.1,1.6l0,0c0.6,0,1.2,0,1.8-0.1c0.7,0,1.4,0,2.1-0.1c0.7,0,1.5,0,2.2-0.1
				c0.8,0,1.5,0,2.3,0l0,0c0.1-1.1,0.2-2.1,0.4-3c0.2-0.9,0.4-1.6,0.7-2.2s0.7-1,1.1-1.3c0.4-0.3,0.9-0.5,1.4-0.5l0,0
				c0.1,0,0.2,0,0.3,0c0.1,0,0.2,0,0.4,0.1c0.1,0,0.2,0.1,0.3,0.2c0.1,0.1,0.1,0.2,0.1,0.3l0,0c0,0,0,0.1,0,0.1c0,0,0,0.1,0,0.1l0,0
				c-0.1,0.1-0.2,0.2-0.3,0.2l0,0c-0.1,0-0.1,0-0.1,0c0,0-0.1,0-0.1,0c0,0-0.1,0-0.2-0.1c-0.1,0-0.2,0-0.3,0l0,0
				c-0.1,0-0.2,0-0.4,0.1c-0.2,0-0.3,0.1-0.5,0.3c-0.2,0.1-0.4,0.3-0.6,0.6c-0.2,0.3-0.4,0.6-0.5,1.1c-0.2,0.5-0.3,1-0.4,1.7
				c-0.1,0.7-0.2,1.5-0.3,2.4l0,0c0.5,0,0.9,0,1.4,0c0.4,0,0.9,0,1.3,0l0,0c0.1,0,0.2,0,0.3,0.1c0.1,0.1,0.1,0.2,0.1,0.3l0,0
				c0,0.1,0,0.2-0.1,0.3c-0.1,0.1-0.2,0.1-0.3,0.1l0,0c-0.1,0-0.3,0-0.4,0c-0.1,0-0.3,0-0.5,0s-0.4,0-0.7,0c-0.3,0-0.6,0-1,0l0,0
				c0,0.1,0,0.2,0,0.3c0,0.1,0,0.2,0,0.3l0,0c0,0.8,0,1.4,0.1,2.1c0.1,0.6,0.1,1.1,0.2,1.6c0.1,0.5,0.2,0.9,0.3,1.2
				c0.1,0.3,0.2,0.6,0.3,0.8c0.1,0.2,0.2,0.4,0.2,0.5c0.1,0.1,0.1,0.1,0.1,0.1l0,0c0,0.1,0.1,0.1,0.1,0.2l0,0c0,0.1,0,0.2-0.1,0.3
				c-0.1,0.1-0.2,0.1-0.3,0.1l0,0c-0.1,0-0.2-0.1-0.3-0.2l0,0c0,0-0.1-0.2-0.2-0.4c-0.1-0.2-0.3-0.6-0.5-1.2
				c-0.2-0.5-0.3-1.2-0.5-2.1c-0.1-0.8-0.2-1.9-0.2-3.1l0,0V9.9c-0.8,0-1.5,0-2.3,0c-0.8,0-1.5,0-2.3,0c-0.7,0-1.4,0-2.1,0.1
				c-0.7,0-1.3,0-1.8,0.1l0,0c-0.1,1-0.3,1.9-0.6,2.7c-0.3,0.9-0.7,1.6-1.2,2.2c-0.5,0.6-1.2,1.2-2,1.5c-0.8,0.4-1.8,0.6-2.9,0.6
				l0,0c-0.6,0-1.2-0.1-1.8-0.2c-0.6-0.1-1.1-0.3-1.6-0.5c-0.5-0.2-0.9-0.5-1.3-0.8s-0.7-0.7-1-1.1l0,0c0-0.1-0.1-0.1-0.1-0.2l0,0
				c0-0.1,0-0.2,0.1-0.3c0.1-0.1,0.2-0.1,0.3-0.1l0,0c0.1,0,0.1,0,0.2,0c0.1,0,0.1,0.1,0.1,0.1l0,0c0.2,0.3,0.5,0.7,0.8,0.9
				c0.3,0.3,0.7,0.5,1.2,0.7c0.4,0.2,0.9,0.4,1.4,0.5c0.5,0.1,1,0.2,1.6,0.2l0,0c1,0,1.9-0.2,2.6-0.5c0.7-0.3,1.3-0.8,1.7-1.3
				c0.4-0.6,0.8-1.2,1-2c0.2-0.8,0.4-1.6,0.5-2.4l0,0c-0.7,0-1.2,0.1-1.6,0.1c-0.4,0-0.6,0-0.6,0l0,0c-0.1,0-0.2,0-0.3-0.1
				c-0.1-0.1-0.1-0.2-0.1-0.3l0,0c0-0.1,0-0.2,0.1-0.3c0.1-0.1,0.2-0.1,0.3-0.1l0,0c0,0,0.2,0,0.6,0c0.4,0,1,0,1.7-0.1l0,0
				c0.1-0.5,0.1-1.1,0.1-1.6c0-0.5,0.1-1.1,0.1-1.7l0,0c0-0.4,0-0.7,0.1-1c0-0.3,0.1-0.6,0.1-0.9l0,0c-0.2,0-0.3,0.1-0.5,0.1
				c-0.2,0-0.4,0-0.6,0l0,0c-0.6,0-1.2,0-1.8-0.1c-0.6-0.1-1.2-0.2-1.8-0.3c-0.6-0.1-1.2-0.2-1.8-0.3c-0.6-0.1-1.2-0.1-1.8-0.1l0,0
				c-0.5,0-1,0.1-1.4,0.2c-0.4,0.1-0.8,0.3-1.2,0.5c-0.3,0.2-0.6,0.5-0.8,0.8c-0.2,0.3-0.3,0.7-0.3,1.2l0,0c0,0.3,0.1,0.5,0.2,0.8
				c0.1,0.2,0.2,0.4,0.4,0.6c0.1,0.2,0.3,0.3,0.4,0.4c0.1,0.1,0.2,0.1,0.2,0.2l0,0c0.1,0.1,0.2,0.2,0.2,0.3l0,0c0,0.1,0,0.2-0.1,0.3
				c-0.1,0.1-0.2,0.1-0.3,0.1l0,0c0,0-0.1,0-0.1,0c0,0-0.1,0-0.1-0.1l0,0c-0.2-0.1-0.3-0.2-0.5-0.4c-0.2-0.2-0.3-0.3-0.5-0.5
				c-0.1-0.2-0.3-0.5-0.4-0.7c-0.1-0.3-0.1-0.6-0.1-0.9l0,0c0-0.6,0.1-1.1,0.4-1.6c0.3-0.4,0.6-0.8,1-1.1c0.4-0.3,0.9-0.5,1.4-0.6
				c0.5-0.1,1.1-0.2,1.6-0.2l0,0c0.6,0,1.2,0,1.8,0.1c0.6,0.1,1.2,0.2,1.8,0.3c0.6,0.1,1.2,0.2,1.8,0.3c0.6,0.1,1.2,0.1,1.8,0.1l0,0
				c0.2,0,0.5,0,0.7,0c0.2,0,0.4-0.1,0.6-0.1l0,0c0.1-0.4,0.3-0.8,0.4-1.1c0.2-0.3,0.3-0.6,0.5-0.8c0.2-0.2,0.4-0.4,0.6-0.5
				c0.2-0.1,0.4-0.1,0.5-0.1l0,0c0.2,0,0.4,0.1,0.6,0.2C60.3,1.2,60.4,1.4,60.4,1.6z M59.5,1.6L59.5,1.6c-0.1,0-0.1,0-0.2,0.1
				c-0.1,0.1-0.2,0.1-0.3,0.3c-0.1,0.1-0.2,0.3-0.3,0.5c-0.1,0.2-0.2,0.4-0.3,0.7l0,0C58.6,3,58.8,2.8,59,2.7
				c0.2-0.2,0.3-0.3,0.4-0.5c0.1-0.2,0.2-0.3,0.2-0.4C59.6,1.6,59.6,1.6,59.5,1.6z M78.3,13.8L78.3,13.8c0,0.1-0.1,0.2-0.2,0.4
				c-0.1,0.2-0.2,0.4-0.3,0.6c-0.1,0.2-0.3,0.5-0.5,0.7c-0.2,0.2-0.4,0.5-0.6,0.7c-0.2,0.2-0.5,0.4-0.7,0.5
				c-0.3,0.1-0.5,0.2-0.8,0.2l0,0c-0.4,0-0.7-0.1-1-0.4c-0.3-0.3-0.5-0.6-0.6-1l0,0c-0.2,0.4-0.5,0.7-0.8,0.9
				c-0.3,0.2-0.7,0.3-1,0.3l0,0c-0.3,0-0.5,0-0.7-0.1c-0.2-0.1-0.4-0.2-0.5-0.4c-0.1-0.2-0.3-0.4-0.3-0.6c-0.1-0.2-0.1-0.5-0.1-0.8
				l0,0c0-0.5,0.1-1,0.3-1.4c0.2-0.4,0.4-0.8,0.7-1s0.6-0.5,0.9-0.6c0.3-0.1,0.7-0.2,1-0.2l0,0c0.2,0,0.4,0,0.6,0.1
				c0.2,0.1,0.3,0.1,0.5,0.2c0.1,0.1,0.2,0.1,0.3,0.2c0.1,0.1,0.1,0.1,0.1,0.1l0,0c0.1,0.1,0.1,0.2,0.1,0.3l0,0c0,0.1,0,0.2-0.1,0.3
				c-0.1,0.1-0.2,0.1-0.3,0.1l0,0c-0.1,0-0.2,0-0.3-0.1l0,0c0,0,0,0-0.1-0.1c0,0-0.1-0.1-0.2-0.1c-0.1,0-0.2-0.1-0.3-0.1
				c-0.1,0-0.2,0-0.4,0l0,0c-0.2,0-0.4,0-0.7,0.1c-0.2,0.1-0.5,0.2-0.7,0.5c-0.2,0.2-0.4,0.5-0.5,0.8s-0.2,0.7-0.2,1.1l0,0
				c0,0.1,0,0.3,0,0.4c0,0.1,0.1,0.3,0.1,0.4c0.1,0.1,0.2,0.2,0.3,0.3c0.1,0.1,0.3,0.1,0.4,0.1l0,0c0.1,0,0.3,0,0.4-0.1
				c0.2-0.1,0.3-0.2,0.5-0.4c0.1-0.2,0.3-0.4,0.4-0.7c0.1-0.3,0.2-0.6,0.3-0.9l0,0c0-0.1,0.1-0.2,0.1-0.2c0.1-0.1,0.2-0.1,0.3-0.1
				l0,0c0.1,0,0.2,0,0.3,0.1c0.1,0.1,0.1,0.2,0.1,0.3l0,0c0,0.1,0,0.3,0,0.6c0,0.2,0.1,0.5,0.1,0.7c0.1,0.2,0.2,0.4,0.3,0.6
				c0.1,0.2,0.3,0.3,0.6,0.3l0,0c0.2,0,0.3,0,0.5-0.1c0.2-0.1,0.3-0.2,0.5-0.4c0.2-0.1,0.3-0.3,0.4-0.5c0.1-0.2,0.3-0.4,0.4-0.6
				s0.2-0.4,0.3-0.6c0.1-0.2,0.2-0.3,0.2-0.5l0,0c0-0.1,0.1-0.1,0.2-0.2c0.1,0,0.1-0.1,0.2-0.1l0,0c0.1,0,0.2,0,0.3,0.1
				c0.1,0.1,0.1,0.2,0.1,0.3l0,0C78.3,13.7,78.3,13.7,78.3,13.8z M79.9,15.8L79.9,15.8c0.1-0.2,0.2-0.5,0.4-0.8
				c0.1-0.3,0.3-0.6,0.5-0.8c0.2-0.3,0.3-0.6,0.5-0.8c0.2-0.3,0.4-0.5,0.6-0.8l0,0c0.2-0.2,0.4-0.4,0.6-0.5c0.2-0.1,0.4-0.2,0.6-0.2
				l0,0c0.4,0,0.6,0.1,0.8,0.4c0.2,0.3,0.3,0.6,0.3,1l0,0c0,0.1,0,0.2,0,0.3c0,0.1,0,0.3,0,0.4c0,0.1,0,0.3,0,0.4c0,0.1,0,0.3,0,0.4
				l0,0c0,0.2,0,0.3,0,0.5c0,0.2,0.1,0.3,0.1,0.4c0,0.1,0.1,0.2,0.2,0.3c0.1,0.1,0.2,0.1,0.4,0.1l0,0c0.3,0,0.5-0.1,0.8-0.3
				c0.2-0.2,0.5-0.4,0.7-0.7c0.2-0.3,0.4-0.6,0.5-0.9c0.2-0.3,0.3-0.5,0.4-0.7l0,0c0-0.1,0.1-0.1,0.1-0.2c0.1,0,0.1-0.1,0.2-0.1l0,0
				c0.1,0,0.2,0,0.3,0.1c0.1,0.1,0.1,0.2,0.1,0.3l0,0c0,0,0,0.1,0,0.1l0,0c0,0.1-0.1,0.2-0.2,0.3c-0.1,0.2-0.2,0.4-0.3,0.6
				c-0.1,0.2-0.3,0.5-0.5,0.7c-0.2,0.3-0.4,0.5-0.6,0.7c-0.2,0.2-0.5,0.4-0.7,0.5c-0.3,0.1-0.5,0.2-0.8,0.2l0,0
				c-0.3,0-0.6-0.1-0.8-0.2c-0.2-0.1-0.3-0.3-0.5-0.5c-0.1-0.2-0.2-0.4-0.2-0.7c0-0.2-0.1-0.5-0.1-0.7l0,0c0-0.1,0-0.2,0-0.4
				c0-0.1,0-0.3,0-0.4c0-0.1,0-0.3,0-0.4c0-0.1,0-0.3,0-0.4l0,0c0-0.2,0-0.4-0.1-0.5c-0.1-0.1-0.1-0.1-0.2-0.1l0,0
				c-0.1,0-0.2,0.1-0.4,0.2c-0.1,0.1-0.3,0.3-0.4,0.5c-0.2,0.2-0.3,0.4-0.5,0.7c-0.2,0.3-0.3,0.5-0.5,0.8c-0.1,0.3-0.3,0.5-0.4,0.7
				c-0.1,0.2-0.2,0.4-0.3,0.6l0,0c-0.1,0.3-0.3,0.5-0.4,0.6c-0.1,0.1-0.3,0.1-0.4,0.1l0,0c-0.2,0-0.4-0.1-0.5-0.2
				c-0.1-0.1-0.2-0.3-0.2-0.5l0,0c0,0,0-0.1,0-0.3c0-0.1,0-0.3,0.1-0.5c0-0.2,0-0.4,0.1-0.6c0-0.2,0-0.5,0.1-0.7c0-0.2,0-0.4,0-0.6
				c0-0.2,0-0.4,0-0.5l0,0c0-0.2,0-0.3,0-0.5c0-0.2,0-0.3-0.1-0.3l0,0c-0.1,0-0.2,0.1-0.3,0.4c-0.2,0.2-0.4,0.7-0.6,1.3l0,0
				c0,0.1-0.1,0.1-0.2,0.2C78.1,14,78,14,77.9,14l0,0c-0.1,0-0.2,0-0.3-0.1c-0.1-0.1-0.1-0.2-0.1-0.3l0,0c0,0,0-0.1,0-0.2l0,0
				c0.3-0.7,0.6-1.3,0.9-1.6c0.3-0.4,0.6-0.5,0.8-0.5l0,0c0.2,0,0.3,0,0.4,0.1c0.1,0.1,0.2,0.2,0.3,0.3c0.1,0.1,0.1,0.3,0.1,0.4
				c0,0.2,0,0.3,0,0.5l0,0c0,0.1,0,0.3,0,0.6c0,0.3,0,0.6-0.1,0.9c0,0.3-0.1,0.6-0.1,0.9C79.9,15.3,79.9,15.6,79.9,15.8z M91.1,13.7
				L91.1,13.7c0.3,1.6,0.8,2.4,1.5,2.4l0,0c0.2,0,0.5-0.1,0.7-0.3c0.2-0.2,0.4-0.4,0.6-0.7c0.2-0.3,0.4-0.5,0.5-0.8
				c0.2-0.3,0.3-0.6,0.4-0.8l0,0c0.1-0.2,0.2-0.2,0.4-0.2l0,0c0.1,0,0.2,0,0.3,0.1c0.1,0.1,0.1,0.2,0.1,0.3l0,0c0,0.1,0,0.1,0,0.1
				l0,0c0,0.1-0.1,0.3-0.2,0.5c-0.1,0.2-0.2,0.4-0.3,0.6c-0.1,0.2-0.3,0.5-0.5,0.7c-0.2,0.2-0.4,0.4-0.6,0.6
				c-0.2,0.2-0.4,0.3-0.6,0.5c-0.2,0.1-0.5,0.2-0.7,0.2l0,0c-0.5,0-0.9-0.2-1.2-0.5c-0.3-0.3-0.6-0.9-0.9-1.6l0,0
				c-0.3,0.7-0.7,1.2-1,1.5c-0.3,0.3-0.7,0.5-1.1,0.5l0,0c-0.2,0-0.4,0-0.6-0.1c-0.2-0.1-0.4-0.2-0.5-0.3c-0.1-0.2-0.3-0.3-0.4-0.6
				c-0.1-0.2-0.1-0.5-0.1-0.9l0,0c0-0.5,0.1-0.9,0.3-1.3c0.2-0.4,0.4-0.7,0.6-1c0.3-0.3,0.6-0.5,0.9-0.7c0.3-0.2,0.6-0.2,1-0.2l0,0
				c0.1,0,0.2,0,0.3,0.1C90,11.8,90,11.9,90,12l0,0c0,0.1,0,0.2-0.1,0.3c-0.1,0.1-0.1,0.1-0.3,0.1l0,0c-0.2,0-0.4,0.1-0.7,0.2
				c-0.2,0.1-0.5,0.3-0.7,0.5c-0.2,0.2-0.4,0.5-0.5,0.8c-0.1,0.3-0.2,0.7-0.2,1.1l0,0c0,0.3,0.1,0.6,0.2,0.8
				c0.1,0.2,0.3,0.3,0.6,0.3l0,0c0.1,0,0.2,0,0.4-0.1c0.1-0.1,0.3-0.2,0.4-0.3s0.3-0.4,0.5-0.7c0.2-0.3,0.4-0.7,0.6-1.3l0,0
				c-0.1-0.6-0.2-1.3-0.3-2.1c-0.1-0.8-0.1-1.7-0.1-2.7l0,0c0-0.4,0-0.9,0-1.3c0-0.5,0.1-0.9,0.1-1.4c0.1-0.4,0.1-0.9,0.3-1.3
				c0.1-0.4,0.2-0.8,0.4-1.1S91,3.2,91.2,3c0.2-0.2,0.4-0.3,0.7-0.3l0,0c0.2,0,0.4,0.1,0.6,0.2c0.2,0.1,0.3,0.3,0.4,0.5
				C92.9,3.7,93,3.9,93,4.3c0,0.3,0.1,0.7,0.1,1l0,0c0,0.8-0.1,1.6-0.2,2.4c-0.1,0.8-0.3,1.6-0.5,2.3c-0.2,0.7-0.4,1.4-0.7,2
				C91.5,12.7,91.3,13.2,91.1,13.7z M92.3,5.3L92.3,5.3c0-0.2,0-0.4,0-0.6c0-0.2,0-0.4-0.1-0.6c0-0.2-0.1-0.3-0.1-0.4
				c-0.1-0.1-0.1-0.2-0.3-0.2l0,0c-0.2,0-0.3,0.2-0.5,0.5c-0.1,0.3-0.3,0.7-0.4,1.2c-0.1,0.5-0.2,1.1-0.3,1.7
				c-0.1,0.6-0.1,1.3-0.1,1.9l0,0c0,0.6,0,1.2,0.1,1.8c0,0.6,0.1,1.2,0.2,1.6l0,0c0.2-0.5,0.4-1.1,0.6-1.7c0.2-0.6,0.3-1.1,0.5-1.7
				c0.1-0.6,0.2-1.2,0.3-1.8C92.3,6.5,92.3,5.9,92.3,5.3z M109.8,2.9L109.8,2.9c-0.2,0.6-0.4,1.3-0.5,2c-0.1,0.8-0.2,1.6-0.2,2.5
				l0,0c0,0.6,0,1.3,0.1,1.9c0,0.7,0.1,1.4,0.1,2.1l0,0c0.2-0.1,0.3-0.1,0.4-0.1l0,0c0.1,0,0.2,0,0.3,0.1c0.1,0.1,0.1,0.1,0.1,0.3
				l0,0c0,0.2-0.1,0.3-0.2,0.3c-0.1,0.1-0.3,0.2-0.6,0.3l0,0v0.9c0,1.6-0.1,3-0.3,4.4c-0.2,1.3-0.5,2.5-0.9,3.4
				c-0.4,1-0.9,1.7-1.6,2.2c-0.7,0.5-1.5,0.8-2.5,0.8l0,0c-0.4,0-0.8-0.1-1.2-0.2c-0.4-0.2-0.7-0.4-1.1-0.7
				c-0.3-0.3-0.6-0.7-0.8-1.2c-0.2-0.5-0.3-1-0.3-1.7l0,0c0-0.7,0.1-1.4,0.4-2c0.3-0.6,0.6-1.2,1-1.8c0.4-0.6,0.9-1.1,1.5-1.6
				c0.5-0.5,1.1-0.9,1.7-1.3c0.6-0.4,1.1-0.7,1.7-1c0.6-0.3,1.1-0.5,1.5-0.7l0,0c0-0.7,0-1.4-0.1-2.2c0-0.7-0.1-1.5-0.1-2.2l0,0
				c0-0.7,0-1.4,0.1-2c0.1-0.7,0.2-1.3,0.4-1.8l0,0c-0.3,0.2-0.6,0.3-0.9,0.4c-0.3,0.1-0.7,0.3-1,0.4c-0.4,0.1-0.7,0.2-1.1,0.3
				c-0.4,0.1-0.7,0.2-1.1,0.3l0,0c-0.6,0.2-1.1,0.3-1.5,0.5c-0.4,0.2-0.8,0.4-1.1,0.7c-0.3,0.3-0.6,0.5-0.7,0.9
				c-0.2,0.3-0.3,0.7-0.3,1.1l0,0c0,0.5,0.1,0.9,0.3,1.2c0.2,0.3,0.4,0.6,0.7,0.8c0.3,0.2,0.6,0.4,1,0.5c0.4,0.1,0.8,0.1,1.1,0.1
				l0,0c0.1,0,0.2,0,0.3,0.1c0.1,0.1,0.1,0.2,0.1,0.3l0,0c0,0.1,0,0.2-0.1,0.3c-0.1,0.1-0.2,0.1-0.3,0.1l0,0c-0.5,0-0.9-0.1-1.4-0.2
				c-0.5-0.1-0.9-0.3-1.3-0.6c-0.4-0.3-0.7-0.6-0.9-1.1c-0.2-0.4-0.4-0.9-0.4-1.5l0,0c0-0.5,0.1-1,0.3-1.4c0.2-0.4,0.5-0.8,0.9-1.1
				c0.4-0.3,0.8-0.6,1.3-0.8c0.5-0.2,1.1-0.4,1.7-0.6l0,0c0.5-0.1,0.9-0.3,1.4-0.4c0.5-0.1,0.9-0.3,1.3-0.5c0.4-0.2,0.8-0.3,1.1-0.5
				c0.3-0.2,0.6-0.4,0.9-0.5l0,0c0.3-0.8,0.6-1.4,0.9-1.8c0.3-0.4,0.6-0.6,0.9-0.6l0,0c0.1,0,0.1,0,0.2,0c0.1,0,0.1,0.1,0.2,0.1
				c0.1,0.1,0.1,0.1,0.2,0.2c0,0.1,0.1,0.2,0.1,0.3l0,0c0,0.3-0.2,0.7-0.5,1C110.7,2.1,110.3,2.5,109.8,2.9z M108.4,12.6L108.4,12.6
				c-0.4,0.2-0.9,0.4-1.4,0.7c-0.5,0.3-1,0.6-1.5,0.9c-0.5,0.4-1,0.8-1.5,1.2c-0.5,0.4-0.9,0.9-1.3,1.4c-0.4,0.5-0.7,1-0.9,1.6
				c-0.2,0.6-0.3,1.1-0.3,1.7l0,0c0,0.5,0.1,1,0.2,1.3c0.1,0.4,0.3,0.7,0.6,1c0.2,0.3,0.5,0.4,0.8,0.6c0.3,0.1,0.6,0.2,1,0.2l0,0
				c0.6,0,1.1-0.1,1.5-0.4c0.4-0.3,0.8-0.6,1.1-1.1c0.3-0.5,0.6-1,0.8-1.7c0.2-0.7,0.4-1.4,0.5-2.2c0.1-0.8,0.2-1.6,0.3-2.5
				C108.4,14.5,108.4,13.6,108.4,12.6z M115.1,15.5L115.1,15.5c-0.2,0.4-0.5,0.7-0.9,0.9c-0.3,0.2-0.6,0.3-1,0.3l0,0
				c-0.3,0-0.5,0-0.7-0.1c-0.2-0.1-0.4-0.2-0.5-0.4c-0.2-0.2-0.3-0.4-0.4-0.6c-0.1-0.2-0.1-0.5-0.1-0.8l0,0c0-0.5,0-0.9,0.1-1.3
				c0.1-0.4,0.2-0.7,0.3-0.9c0.1-0.3,0.2-0.4,0.3-0.6c0.1-0.1,0.1-0.2,0.1-0.2l0,0c0,0,0.1-0.1,0.1-0.1c0.1,0,0.1,0,0.2,0l0,0
				c0.1,0,0.2,0,0.3,0.1c0.1,0.1,0.1,0.2,0.1,0.3l0,0c0,0,0,0.1,0,0.1c0,0,0,0.1-0.1,0.1l0,0c0,0.1-0.1,0.2-0.2,0.3
				c-0.1,0.1-0.2,0.3-0.2,0.5c-0.1,0.2-0.2,0.5-0.2,0.7c-0.1,0.3-0.1,0.6-0.1,1l0,0c0,0.4,0.1,0.7,0.2,0.9c0.2,0.2,0.4,0.3,0.7,0.3
				l0,0c0.1,0,0.3,0,0.4-0.1c0.2-0.1,0.3-0.2,0.5-0.4s0.3-0.4,0.4-0.6s0.2-0.6,0.2-0.9l0,0l0.2-1.8c0-0.1,0.1-0.2,0.1-0.3
				c0.1-0.1,0.2-0.1,0.3-0.1l0,0c0.1,0,0.2,0,0.3,0.1c0.1,0.1,0.1,0.2,0.1,0.3l0,0l-0.1,1.7c0,0.1,0,0.3,0,0.6
				c0,0.2,0.1,0.5,0.1,0.7c0.1,0.2,0.2,0.4,0.3,0.6c0.2,0.2,0.4,0.2,0.6,0.2l0,0c0.2,0,0.4,0,0.5-0.1c0.2-0.1,0.3-0.2,0.5-0.4
				s0.3-0.3,0.4-0.5c0.1-0.2,0.3-0.4,0.4-0.6c0.1-0.2,0.2-0.4,0.3-0.6c0.1-0.2,0.2-0.3,0.2-0.5l0,0c0-0.1,0.1-0.1,0.1-0.2
				c0.1,0,0.1-0.1,0.2-0.1l0,0c0.1,0,0.2,0,0.3,0.1c0.1,0.1,0.1,0.2,0.1,0.3l0,0c0,0.1,0,0.1,0,0.2l0,0c0,0.1-0.1,0.2-0.2,0.4
				c-0.1,0.2-0.2,0.4-0.3,0.6c-0.1,0.2-0.3,0.5-0.5,0.7c-0.2,0.2-0.4,0.5-0.6,0.7c-0.2,0.2-0.5,0.4-0.7,0.5
				c-0.3,0.1-0.5,0.2-0.8,0.2l0,0c-0.4,0-0.7-0.1-1-0.3C115.4,16.3,115.2,16,115.1,15.5z M120.2,12.8L120.2,12.8
				c0,0.1-0.1,0.2-0.1,0.4c-0.1,0.1-0.1,0.3-0.2,0.4l0,0c-0.1,0.1-0.1,0.2-0.2,0.3c-0.1,0.1-0.2,0.1-0.3,0.1l0,0
				c-0.1,0-0.2,0-0.3-0.1c-0.1-0.1-0.1-0.2-0.1-0.3l0,0c0,0,0-0.1,0-0.1c0,0,0-0.1,0-0.1l0,0c0.2-0.3,0.3-0.7,0.4-0.9
				c0.1-0.3,0.2-0.5,0.2-0.8l0,0c0-0.2-0.1-0.3-0.1-0.4c0-0.1,0-0.2,0-0.3l0,0c0-0.2,0-0.4,0.1-0.6c0.1-0.1,0.2-0.2,0.4-0.2l0,0
				c0.2,0,0.3,0.1,0.4,0.2c0.1,0.1,0.1,0.3,0.1,0.5l0,0c0,0.1,0,0.2,0,0.3c0,0.1,0,0.3-0.1,0.4l0,0c0.2,0.4,0.3,0.7,0.5,1.1
				c0.2,0.3,0.3,0.6,0.4,0.8c0.1,0.3,0.2,0.5,0.3,0.7c0.1,0.2,0.1,0.4,0.1,0.7l0,0c0,0.3-0.1,0.6-0.2,0.8s-0.3,0.5-0.6,0.7l0,0
				c0,0,0.1,0,0.1,0s0.1,0,0.1,0l0,0c0.4,0,0.8-0.1,1.1-0.3c0.3-0.2,0.6-0.4,0.9-0.7c0.3-0.3,0.5-0.6,0.7-1c0.2-0.4,0.4-0.7,0.5-1.1
				l0,0c0.1-0.2,0.2-0.2,0.3-0.2l0,0c0.1,0,0.2,0,0.3,0.1c0.1,0.1,0.1,0.2,0.1,0.3l0,0c0,0.1,0,0.1,0,0.2l0,0
				c-0.1,0.2-0.2,0.4-0.3,0.6c-0.1,0.2-0.3,0.5-0.4,0.7c-0.2,0.3-0.4,0.5-0.6,0.7c-0.2,0.2-0.5,0.5-0.7,0.7
				c-0.3,0.2-0.6,0.3-0.9,0.5c-0.3,0.1-0.7,0.2-1.1,0.2l0,0c-0.5,0-0.9-0.1-1.3-0.2c-0.4-0.2-0.7-0.4-1-0.8l0,0
				c0-0.1-0.1-0.1-0.1-0.2l0,0c0-0.1,0-0.2,0.1-0.3c0.1-0.1,0.2-0.1,0.3-0.1l0,0c0.1,0,0.2,0,0.3,0.1l0,0c0,0,0,0,0.1,0.1
				c0,0,0.1,0.1,0.2,0.1c0.1,0,0.1,0.1,0.2,0.1c0.1,0,0.2,0,0.2,0l0,0c0.2,0,0.3,0,0.4-0.1c0.1-0.1,0.2-0.2,0.3-0.3
				c0.1-0.1,0.1-0.2,0.2-0.3c0-0.1,0-0.2,0-0.3l0,0c0-0.2,0-0.3-0.1-0.5c-0.1-0.2-0.1-0.3-0.2-0.5c-0.1-0.2-0.2-0.4-0.3-0.5
				C120.4,13.2,120.3,13,120.2,12.8z M132.9,6.3L132.9,6.3c0,0.1,0,0.2-0.1,0.3c-0.1,0.1-0.2,0.1-0.3,0.1l0,0h-5.3v0.1
				c0,0.4,0,0.9-0.1,1.4c-0.1,0.5-0.1,1-0.3,1.4c-0.1,0.5-0.2,0.9-0.4,1.4c-0.1,0.5-0.3,0.9-0.4,1.2c-0.1,0.4-0.3,0.7-0.4,1
				c-0.1,0.3-0.3,0.5-0.4,0.6l0,0c0.1,0.3,0.2,0.6,0.3,0.9c0.1,0.3,0.3,0.5,0.4,0.7c0.2,0.2,0.3,0.4,0.5,0.5
				c0.2,0.1,0.4,0.2,0.6,0.2l0,0c0.2,0,0.5-0.1,0.7-0.3c0.2-0.2,0.5-0.4,0.7-0.7c0.2-0.3,0.4-0.6,0.5-0.9s0.3-0.5,0.3-0.7l0,0
				c0.1-0.2,0.2-0.2,0.4-0.2l0,0c0.1,0,0.2,0,0.3,0.1c0.1,0.1,0.1,0.2,0.1,0.3l0,0c0,0,0,0.1,0,0.1l0,0c0,0-0.1,0.2-0.2,0.3
				c-0.1,0.2-0.2,0.4-0.3,0.6c-0.1,0.2-0.3,0.5-0.4,0.7c-0.2,0.3-0.4,0.5-0.6,0.7c-0.2,0.2-0.4,0.4-0.7,0.5
				c-0.2,0.1-0.5,0.2-0.8,0.2l0,0c-0.5,0-0.9-0.2-1.3-0.5c-0.4-0.3-0.7-0.8-1-1.3c-0.3-0.6-0.5-1.2-0.6-2c-0.1-0.8-0.2-1.6-0.2-2.5
				l0,0c0-0.2,0-0.5,0-0.8c0-0.3,0-0.6,0-1c0-0.3,0-0.7,0.1-1.1c0-0.4,0.1-0.7,0.2-1.1l0,0h-3.7c-0.1,0-0.2,0-0.3-0.1
				c-0.1-0.1-0.1-0.2-0.1-0.3l0,0c0-0.1,0-0.2,0.1-0.3c0.1-0.1,0.2-0.1,0.3-0.1l0,0h3.9c0.1-0.3,0.1-0.5,0.2-0.7
				c0.1-0.2,0.2-0.4,0.3-0.5c0.1-0.2,0.3-0.3,0.4-0.4c0.1-0.1,0.3-0.1,0.5-0.1l0,0c0.2,0,0.3,0,0.5,0.1c0.1,0.1,0.2,0.2,0.3,0.4
				c0.1,0.2,0.2,0.3,0.2,0.5c0,0.2,0.1,0.4,0.1,0.7l0,0h5.3c0.1,0,0.2,0,0.3,0.1C132.9,6.1,132.9,6.2,132.9,6.3z M125.1,12.8
				L125.1,12.8c0.2-0.5,0.4-1,0.6-1.5c0.2-0.5,0.3-1.1,0.4-1.6c0.1-0.5,0.2-1.1,0.3-1.6c0.1-0.5,0.1-1,0.1-1.4l0,0h-1.2
				c-0.1,0.4-0.2,1-0.2,1.6c-0.1,0.6-0.1,1.4-0.1,2.3l0,0c0,0.5,0,0.9,0,1.3C125,12.2,125,12.5,125.1,12.8z M126.1,5L126.1,5
				c-0.1,0-0.2,0.1-0.3,0.2c-0.1,0.1-0.2,0.4-0.4,0.7l0,0h1c0-0.3-0.1-0.5-0.2-0.7C126.2,5.1,126.2,5,126.1,5z M125.3,13.5
				L125.3,13.5L125.3,13.5z M131.2,8.5L131.2,8.5c0,0.3-0.1,0.5-0.3,0.7c-0.2,0.2-0.4,0.3-0.7,0.3l0,0c-0.3,0-0.5-0.1-0.7-0.3
				c-0.2-0.2-0.3-0.4-0.3-0.7l0,0c0-0.1,0-0.3,0.1-0.4c0-0.1,0.1-0.2,0.2-0.3c0.1-0.1,0.2-0.2,0.3-0.2c0.1,0,0.2-0.1,0.4-0.1l0,0
				c0.1,0,0.3,0,0.4,0.1c0.1,0,0.2,0.1,0.3,0.2c0.1,0.1,0.2,0.2,0.2,0.3C131.2,8.3,131.2,8.4,131.2,8.5z M129.5,14.6L129.5,14.6
				c0-1,0.1-2,0.2-3l0,0c0-0.1,0.1-0.2,0.1-0.3c0.1-0.1,0.2-0.1,0.3-0.1l0,0c0.1,0,0.2,0,0.3,0.1c0.1,0.1,0.1,0.2,0.1,0.3l0,0
				c0,0,0,0.2,0,0.4c0,0.2,0,0.5-0.1,0.7c0,0.3,0,0.6-0.1,0.9c0,0.3,0,0.6,0,0.9l0,0c0,0.4,0,0.7,0.1,0.9c0.1,0.2,0.2,0.4,0.3,0.5
				c0.1,0.1,0.2,0.2,0.4,0.3c0.1,0,0.3,0.1,0.4,0.1l0,0c0.2,0,0.4-0.1,0.6-0.2c0.2-0.1,0.4-0.3,0.6-0.6c0.2-0.2,0.4-0.5,0.7-0.9
				c0.2-0.3,0.4-0.7,0.7-1.2l0,0c0-0.1,0.1-0.1,0.1-0.2c0.1,0,0.1-0.1,0.2-0.1l0,0c0.1,0,0.2,0,0.3,0.1c0.1,0.1,0.1,0.2,0.1,0.3l0,0
				c0,0.1,0,0.1,0,0.2l0,0c-0.1,0.2-0.2,0.4-0.3,0.6c-0.1,0.2-0.3,0.5-0.4,0.7c-0.2,0.2-0.3,0.5-0.5,0.7s-0.4,0.5-0.6,0.6
				c-0.2,0.2-0.4,0.3-0.7,0.5s-0.5,0.2-0.7,0.2l0,0c-0.3,0-0.6-0.1-0.8-0.2s-0.4-0.3-0.6-0.5c-0.2-0.2-0.3-0.5-0.4-0.8
				C129.5,15.3,129.5,15,129.5,14.6z M130.6,8.5L130.6,8.5c0-0.1,0-0.2-0.1-0.3c-0.1-0.1-0.2-0.1-0.3-0.1l0,0c-0.1,0-0.2,0-0.2,0.1
				c-0.1,0.1-0.1,0.2-0.1,0.3l0,0c0,0.1,0,0.2,0.1,0.3c0.1,0.1,0.1,0.1,0.2,0.1l0,0c0.1,0,0.2,0,0.3-0.1
				C130.6,8.7,130.6,8.6,130.6,8.5z M140.8,13.8L140.8,13.8c0,0.1-0.1,0.2-0.2,0.4c-0.1,0.2-0.2,0.4-0.4,0.7
				c-0.2,0.3-0.4,0.5-0.6,0.8c-0.2,0.3-0.5,0.5-0.8,0.7c-0.3,0.2-0.6,0.4-1,0.6c-0.4,0.1-0.8,0.2-1.2,0.2l0,0
				c-0.4,0-0.7-0.1-1.1-0.2c-0.3-0.1-0.6-0.3-0.8-0.6c-0.2-0.3-0.4-0.6-0.5-0.9c-0.1-0.4-0.2-0.7-0.2-1.2l0,0c0-0.4,0.1-0.8,0.2-1.2
				c0.1-0.4,0.3-0.7,0.5-1c0.2-0.3,0.4-0.5,0.7-0.6c0.3-0.2,0.6-0.2,0.9-0.2l0,0c0.2,0,0.4,0,0.6,0.1c0.2,0.1,0.3,0.2,0.5,0.3
				c0.1,0.1,0.2,0.3,0.3,0.4c0.1,0.2,0.1,0.3,0.1,0.5l0,0c0,0.2,0,0.3-0.1,0.4c0,0.1-0.1,0.2-0.1,0.4c-0.1,0.1-0.1,0.2-0.2,0.2
				c-0.1,0.1-0.2,0.1-0.2,0.1l0,0c-0.1,0-0.2,0-0.3-0.1c-0.1-0.1-0.1-0.2-0.1-0.3l0,0c0-0.1,0-0.1,0-0.1c0,0,0.1-0.1,0.1-0.1
				c0,0,0.1-0.1,0.1-0.2c0-0.1,0-0.2,0-0.3l0,0c0-0.1-0.1-0.3-0.2-0.4c-0.1-0.1-0.3-0.2-0.5-0.2l0,0c-0.2,0-0.4,0.1-0.6,0.2
				s-0.3,0.3-0.5,0.5c-0.1,0.2-0.2,0.4-0.3,0.7c-0.1,0.3-0.1,0.5-0.1,0.8l0,0c0,0.3,0,0.6,0.1,0.8c0.1,0.3,0.2,0.5,0.3,0.7
				c0.1,0.2,0.3,0.4,0.5,0.5c0.2,0.1,0.5,0.2,0.8,0.2l0,0c0.4,0,0.7-0.1,1-0.2s0.6-0.3,0.9-0.5c0.3-0.2,0.5-0.4,0.7-0.7
				c0.2-0.2,0.4-0.5,0.5-0.7c0.1-0.2,0.3-0.4,0.3-0.6c0.1-0.2,0.1-0.3,0.1-0.3l0,0c0-0.1,0.1-0.1,0.1-0.2c0.1,0,0.1-0.1,0.2-0.1l0,0
				c0.1,0,0.2,0,0.3,0.1c0.1,0.1,0.1,0.2,0.1,0.3l0,0C140.8,13.7,140.8,13.7,140.8,13.8z M141.3,15.6L141.3,15.6
				c0.1,0.2,0.3,0.4,0.6,0.5c0.2,0.1,0.5,0.2,0.8,0.2l0,0c0.3,0,0.7-0.1,0.9-0.2c0.3-0.2,0.5-0.4,0.8-0.6c0.2-0.3,0.4-0.6,0.6-0.9
				c0.2-0.3,0.3-0.7,0.5-1l0,0c0-0.1,0.1-0.1,0.1-0.2c0.1,0,0.1-0.1,0.2-0.1l0,0c0.1,0,0.2,0,0.3,0.1c0.1,0.1,0.1,0.2,0.1,0.3l0,0
				c0,0,0,0.1,0,0.1c0,0,0,0.1,0,0.1l0,0c-0.5,1.1-1,1.9-1.6,2.4c-0.6,0.5-1.2,0.8-1.9,0.8l0,0c-0.5,0-0.9-0.1-1.2-0.3
				c-0.3-0.2-0.6-0.4-0.8-0.7c-0.2-0.3-0.4-0.6-0.5-1c-0.1-0.4-0.2-0.7-0.2-1.1l0,0c0-0.4,0-0.7,0.1-1c0.1-0.3,0.2-0.6,0.4-0.8
				c0.2-0.2,0.4-0.4,0.6-0.5c0.2-0.1,0.5-0.2,0.7-0.2l0,0c0.2,0,0.3,0,0.5,0.1c0.2,0.1,0.3,0.2,0.4,0.3c0.1,0.1,0.2,0.3,0.3,0.4
				c0.1,0.2,0.1,0.4,0.1,0.6l0,0c0,0.3,0,0.6-0.1,0.8c-0.1,0.2-0.2,0.5-0.4,0.7c-0.2,0.2-0.4,0.4-0.6,0.6
				C141.8,15.3,141.6,15.4,141.3,15.6z M141,14.9L141,14.9c0.2-0.1,0.4-0.2,0.6-0.3c0.2-0.1,0.3-0.3,0.5-0.5
				c0.1-0.2,0.2-0.3,0.3-0.5c0.1-0.2,0.1-0.4,0.1-0.6l0,0c0-0.2-0.1-0.4-0.2-0.5c-0.1-0.1-0.2-0.2-0.4-0.2l0,0
				c-0.2,0-0.3,0.1-0.5,0.2c-0.1,0.1-0.2,0.2-0.3,0.4c-0.1,0.2-0.1,0.4-0.2,0.6c0,0.2-0.1,0.4-0.1,0.6l0,0c0,0.1,0,0.3,0,0.4
				C140.9,14.6,141,14.8,141,14.9z M168.6,15L168.6,15c0,0,0,0.1-0.1,0.2c-0.1,0.1-0.2,0.2-0.3,0.4c-0.1,0.1-0.3,0.3-0.5,0.5
				c-0.2,0.2-0.5,0.3-0.7,0.5c-0.3,0.1-0.6,0.3-1,0.4c-0.4,0.1-0.8,0.1-1.2,0.1l0,0c-0.7,0-1.3-0.1-1.9-0.3
				c-0.6-0.2-1.2-0.4-1.7-0.7c-0.6-0.3-1.1-0.6-1.6-0.9c-0.5-0.3-1.1-0.6-1.6-0.9l0,0c-0.3,0.6-0.7,1-1.2,1.4
				c-0.4,0.4-0.9,0.6-1.4,0.8c-0.5,0.2-0.9,0.3-1.4,0.4c-0.5,0.1-0.9,0.1-1.3,0.1l0,0c-0.4,0-0.8,0-1.2-0.1
				c-0.4-0.1-0.8-0.2-1.1-0.4s-0.6-0.4-0.8-0.7c-0.2-0.3-0.3-0.7-0.3-1.1l0,0c0-0.4,0.1-0.8,0.3-1.1c0.2-0.3,0.5-0.6,0.8-0.9
				c0.3-0.2,0.7-0.4,1.2-0.5c0.5-0.1,1-0.2,1.5-0.2l0,0c0.4,0,0.8,0,1.2,0.1c0.4,0.1,0.8,0.2,1.2,0.3c0.4,0.1,0.7,0.3,1.1,0.4
				c0.4,0.1,0.7,0.3,1,0.5l0,0c0-0.1,0.1-0.3,0.1-0.4c0-0.1,0.1-0.3,0.1-0.4c0-0.1,0-0.3,0-0.5c0-0.2,0-0.4,0-0.6l0,0
				c0-0.2,0-0.4,0-0.7c0-0.2,0-0.4,0-0.7c0-0.2,0-0.5,0-0.8c0-0.3,0-0.7,0-1.1l0,0c0-1,0.1-1.9,0.3-2.7c0.2-0.8,0.5-1.5,0.9-2.1
				c0.4-0.6,0.9-1,1.4-1.4s1.2-0.5,2-0.5l0,0c0.5,0,0.9,0.1,1.3,0.2c0.4,0.1,0.8,0.4,1.1,0.6c0.3,0.3,0.6,0.6,0.8,1
				c0.2,0.4,0.3,0.8,0.3,1.2l0,0c0,0.3,0,0.5-0.1,0.8c-0.1,0.3-0.2,0.5-0.3,0.7c-0.1,0.2-0.3,0.4-0.4,0.6s-0.3,0.2-0.5,0.2l0,0
				c-0.1,0-0.2,0-0.3-0.1c-0.1-0.1-0.1-0.1-0.1-0.3l0,0c0-0.1,0-0.2,0.1-0.2c0-0.1,0.1-0.1,0.1-0.2l0,0c0.2-0.2,0.4-0.4,0.5-0.7
				c0.1-0.3,0.2-0.6,0.2-0.9l0,0c0-0.3-0.1-0.7-0.2-0.9c-0.1-0.3-0.3-0.5-0.6-0.7c-0.2-0.2-0.5-0.4-0.8-0.5c-0.3-0.1-0.6-0.2-1-0.2
				l0,0c-0.7,0-1.2,0.1-1.7,0.4c-0.5,0.3-0.9,0.7-1.2,1.2c-0.3,0.5-0.5,1.1-0.7,1.9c-0.1,0.7-0.2,1.5-0.2,2.4l0,0c0,0.4,0,0.8,0,1.1
				c0,0.3,0,0.6,0,0.9s0,0.5,0,0.8c0,0.2,0,0.5,0,0.7l0,0c0,0.1,0,0.3,0,0.5c0,0.2,0,0.3-0.1,0.5c0,0.2-0.1,0.4-0.1,0.5
				c0,0.2-0.1,0.3-0.2,0.5l0,0c0.5,0.3,1.1,0.6,1.6,0.9c0.5,0.3,1,0.6,1.6,0.9c0.5,0.3,1.1,0.5,1.6,0.6c0.6,0.2,1.2,0.3,1.8,0.3l0,0
				c0.6,0,1-0.1,1.4-0.3c0.4-0.2,0.7-0.4,1-0.6c0.3-0.2,0.5-0.4,0.6-0.6c0.1-0.2,0.2-0.3,0.2-0.3l0,0c0.1-0.1,0.2-0.2,0.3-0.2l0,0
				c0.1,0,0.2,0,0.3,0.1c0.1,0.1,0.1,0.2,0.1,0.3l0,0C168.6,14.9,168.6,14.9,168.6,15z M157.1,13.9L157.1,13.9
				c-0.3-0.1-0.6-0.3-0.9-0.4c-0.3-0.1-0.7-0.3-1-0.4c-0.3-0.1-0.7-0.2-1.1-0.3c-0.4-0.1-0.7-0.1-1.1-0.1l0,0c-0.4,0-0.8,0-1.2,0.1
				c-0.4,0.1-0.7,0.2-0.9,0.4c-0.3,0.2-0.5,0.4-0.6,0.6c-0.2,0.2-0.2,0.5-0.2,0.8l0,0c0,0.3,0.1,0.5,0.2,0.7
				c0.1,0.2,0.3,0.4,0.6,0.5c0.2,0.1,0.5,0.2,0.8,0.3c0.3,0.1,0.6,0.1,1,0.1l0,0c0.4,0,0.8,0,1.3-0.1c0.4-0.1,0.8-0.2,1.2-0.4
				c0.4-0.2,0.8-0.4,1.1-0.7S156.8,14.4,157.1,13.9z M174.3,15.6L174.3,15.6c-0.2,0-0.3,0-0.5,0l0,0c-0.1,0.2-0.2,0.4-0.4,0.6
				c-0.1,0.2-0.3,0.3-0.5,0.5c-0.2,0.1-0.4,0.2-0.6,0.3c-0.2,0.1-0.5,0.1-0.8,0.1l0,0c-0.3,0-0.6-0.1-0.9-0.2
				c-0.3-0.1-0.5-0.3-0.7-0.5c-0.2-0.2-0.4-0.5-0.5-0.7c-0.1-0.3-0.2-0.6-0.2-1l0,0c0-0.4,0.1-0.8,0.2-1.2c0.2-0.3,0.3-0.6,0.5-0.8
				c0.2-0.2,0.4-0.4,0.6-0.5c0.2-0.1,0.4-0.2,0.5-0.2l0,0c0.1,0,0.2,0,0.3,0.1c0.1,0.1,0.1,0.1,0.1,0.3l0,0c0,0.1,0,0.2-0.1,0.3
				c-0.1,0.1-0.2,0.1-0.3,0.2l0,0c-0.1,0.1-0.2,0.1-0.4,0.2c-0.1,0.1-0.2,0.2-0.3,0.4c-0.1,0.2-0.2,0.3-0.3,0.5
				c-0.1,0.2-0.1,0.4-0.1,0.7l0,0c0,0.2,0,0.4,0.1,0.6c0.1,0.2,0.2,0.4,0.3,0.5c0.1,0.1,0.3,0.3,0.5,0.3c0.2,0.1,0.4,0.1,0.6,0.1
				l0,0c0.4,0,0.7-0.1,1-0.3c0.3-0.2,0.5-0.4,0.6-0.7l0,0c-0.4-0.2-0.8-0.5-1-0.9c-0.3-0.4-0.4-0.8-0.4-1.3l0,0c0-0.4,0.1-0.7,0.3-1
				c0.2-0.2,0.4-0.4,0.8-0.4l0,0c0.2,0,0.4,0,0.5,0.1c0.2,0.1,0.3,0.2,0.4,0.4c0.1,0.2,0.2,0.4,0.3,0.8c0.1,0.3,0.1,0.7,0.1,1.1l0,0
				c0,0.2,0,0.5-0.1,0.7l0,0c0,0,0.1,0,0.1,0s0.1,0,0.1,0l0,0c0.2,0,0.4,0,0.6-0.1c0.2-0.1,0.4-0.1,0.5-0.3s0.3-0.3,0.4-0.4
				c0.1-0.2,0.2-0.4,0.4-0.6l0,0c0,0,0.1-0.1,0.1-0.1c0.1,0,0.1-0.1,0.2-0.1l0,0c0.1,0,0.2,0,0.3,0.1c0.1,0.1,0.1,0.2,0.1,0.3l0,0
				c0,0.1,0,0.1,0,0.2c0,0.1-0.1,0.1-0.1,0.2l0,0c-0.1,0.2-0.3,0.4-0.4,0.6c-0.2,0.2-0.3,0.4-0.6,0.5c-0.2,0.1-0.4,0.3-0.7,0.3
				C174.9,15.5,174.6,15.6,174.3,15.6z M172.5,12.9L172.5,12.9c0,0.1,0,0.3,0.1,0.4c0,0.1,0.1,0.3,0.2,0.4c0.1,0.1,0.2,0.3,0.3,0.4
				c0.1,0.1,0.2,0.2,0.4,0.3l0,0c0-0.1,0-0.3,0-0.4l0,0c0-0.2,0-0.4,0-0.6c0-0.2-0.1-0.4-0.1-0.5c0-0.2-0.1-0.3-0.2-0.4
				c-0.1-0.1-0.2-0.2-0.3-0.2l0,0c0,0-0.1,0-0.2,0.1C172.5,12.6,172.5,12.7,172.5,12.9z M180,17.7L180,17.7c1.3-1.7,2.2-3.1,2.7-4.2
				l0,0c0-0.1,0.1-0.1,0.1-0.2c0.1,0,0.1-0.1,0.2-0.1l0,0c0.1,0,0.2,0,0.3,0.1c0.1,0.1,0.1,0.2,0.1,0.3l0,0c0,0,0,0.1,0,0.1l0,0
				c-0.3,0.7-0.7,1.5-1.3,2.3c-0.6,0.9-1.3,1.8-2.1,2.9l0,0c0,0.4,0,0.9,0,1.3s0,0.9,0,1.4l0,0c0,0.5,0,1,0,1.5c0,0.5-0.1,1-0.1,1.5
				c-0.1,0.5-0.1,0.9-0.3,1.3c-0.1,0.4-0.3,0.7-0.4,1c-0.2,0.3-0.4,0.5-0.6,0.7c-0.2,0.2-0.5,0.2-0.8,0.2l0,0
				c-0.5,0-0.8-0.2-1.1-0.5c-0.2-0.4-0.4-0.9-0.4-1.5l0,0c0-0.3,0-0.7,0.1-1.1c0.1-0.4,0.2-0.8,0.3-1.3c0.1-0.4,0.3-0.9,0.5-1.3
				c0.2-0.4,0.4-0.9,0.6-1.3c0.2-0.4,0.5-0.8,0.7-1.2c0.3-0.4,0.5-0.7,0.8-1l0,0c0-0.5,0-1,0-1.5c0-0.5,0-0.9,0-1.3l0,0
				c-0.2,0.3-0.5,0.5-0.7,0.6c-0.3,0.1-0.6,0.2-0.9,0.2l0,0c-0.2,0-0.5,0-0.7-0.1c-0.2-0.1-0.4-0.2-0.5-0.4
				c-0.1-0.2-0.2-0.4-0.3-0.6c-0.1-0.2-0.1-0.5-0.1-0.8l0,0c0-0.5,0.1-1,0.3-1.4c0.2-0.4,0.4-0.8,0.7-1c0.3-0.3,0.6-0.5,0.9-0.6
				c0.3-0.1,0.7-0.2,1-0.2l0,0c0.2,0,0.4,0,0.6,0.1c0.2,0.1,0.3,0.1,0.5,0.2c0.1,0.1,0.2,0.1,0.3,0.2c0.1,0.1,0.1,0.1,0.1,0.1l0,0
				c0.1,0.1,0.1,0.2,0.1,0.3l0,0c0,0.1,0,0.2-0.1,0.3c-0.1,0.1-0.2,0.1-0.3,0.1l0,0c-0.1,0-0.2,0-0.3-0.1l0,0c0,0-0.1-0.1-0.1-0.1
				c0,0-0.1-0.1-0.2-0.1c-0.1,0-0.2-0.1-0.3-0.1c-0.1,0-0.2,0-0.4,0l0,0c-0.2,0-0.4,0-0.7,0.1c-0.3,0.1-0.5,0.2-0.7,0.4
				c-0.2,0.2-0.4,0.5-0.5,0.8c-0.1,0.3-0.2,0.7-0.2,1.1l0,0c0,0.3,0.1,0.6,0.2,0.8c0.1,0.2,0.4,0.3,0.7,0.3l0,0c0.1,0,0.3,0,0.5-0.1
				c0.2-0.1,0.3-0.2,0.5-0.4c0.2-0.2,0.3-0.4,0.4-0.7c0.1-0.3,0.2-0.6,0.2-0.9l0,0c0-0.1,0.1-0.2,0.1-0.2c0.1-0.1,0.2-0.1,0.3-0.1
				l0,0c0.1,0,0.2,0,0.3,0.1c0.1,0.1,0.1,0.2,0.1,0.3l0,0c0,0,0,0.1,0,0.3c0,0.2,0,0.5,0,0.8c0,0.3,0,0.7,0,1.2
				C180,16.8,180,17.2,180,17.7z M179.2,20L179.2,20c-0.3,0.5-0.6,0.9-0.9,1.5c-0.3,0.5-0.5,1.1-0.7,1.6c-0.2,0.5-0.3,1.1-0.4,1.6
				c-0.1,0.5-0.1,1-0.1,1.4l0,0c0,0.3,0,0.5,0.1,0.6c0,0.2,0.1,0.3,0.2,0.4c0.1,0.1,0.1,0.1,0.2,0.2c0.1,0,0.2,0,0.2,0l0,0
				c0.2,0,0.4-0.1,0.6-0.3c0.2-0.2,0.3-0.4,0.4-0.7c0.1-0.3,0.2-0.6,0.3-1c0.1-0.4,0.1-0.8,0.2-1.2c0-0.4,0.1-0.8,0.1-1.2
				s0-0.8,0-1.1l0,0c0-0.3,0-0.6,0-0.9C179.2,20.6,179.2,20.3,179.2,20z M190.7,13.8L190.7,13.8c0,0.1-0.1,0.2-0.2,0.4
				c-0.1,0.2-0.2,0.4-0.3,0.6c-0.1,0.2-0.3,0.5-0.5,0.7c-0.2,0.2-0.4,0.5-0.6,0.7c-0.2,0.2-0.5,0.4-0.7,0.5
				c-0.3,0.1-0.5,0.2-0.8,0.2l0,0c-0.4,0-0.7-0.1-1-0.4c-0.3-0.3-0.5-0.6-0.6-1l0,0c-0.2,0.4-0.5,0.7-0.8,0.9
				c-0.3,0.2-0.6,0.3-1,0.3l0,0c-0.3,0-0.5,0-0.7-0.1c-0.2-0.1-0.4-0.2-0.5-0.4c-0.1-0.2-0.3-0.4-0.3-0.6c-0.1-0.2-0.1-0.5-0.1-0.8
				l0,0c0-0.5,0.1-1,0.3-1.4c0.2-0.4,0.4-0.8,0.7-1c0.3-0.3,0.6-0.5,0.9-0.6c0.3-0.1,0.7-0.2,1-0.2l0,0c0.2,0,0.4,0,0.6,0.1
				c0.2,0.1,0.3,0.1,0.5,0.2c0.1,0.1,0.2,0.1,0.3,0.2c0.1,0.1,0.1,0.1,0.1,0.1l0,0c0.1,0.1,0.1,0.2,0.1,0.3l0,0c0,0.1,0,0.2-0.1,0.3
				c-0.1,0.1-0.2,0.1-0.3,0.1l0,0c-0.1,0-0.2,0-0.3-0.1l0,0c0,0,0,0-0.1-0.1c0,0-0.1-0.1-0.2-0.1c-0.1,0-0.2-0.1-0.3-0.1
				c-0.1,0-0.2,0-0.4,0l0,0c-0.2,0-0.4,0-0.7,0.1c-0.2,0.1-0.5,0.2-0.7,0.5c-0.2,0.2-0.4,0.5-0.5,0.8c-0.1,0.3-0.2,0.7-0.2,1.1l0,0
				c0,0.1,0,0.3,0,0.4c0,0.1,0.1,0.3,0.1,0.4c0.1,0.1,0.2,0.2,0.3,0.3c0.1,0.1,0.3,0.1,0.4,0.1l0,0c0.1,0,0.3,0,0.4-0.1
				c0.2-0.1,0.3-0.2,0.5-0.4c0.1-0.2,0.3-0.4,0.4-0.7c0.1-0.3,0.2-0.6,0.3-0.9l0,0c0-0.1,0.1-0.2,0.1-0.2c0.1-0.1,0.2-0.1,0.3-0.1
				l0,0c0.1,0,0.2,0,0.3,0.1c0.1,0.1,0.1,0.2,0.1,0.3l0,0c0,0.1,0,0.3,0,0.6c0,0.2,0.1,0.5,0.1,0.7c0.1,0.2,0.2,0.4,0.3,0.6
				c0.1,0.2,0.3,0.3,0.6,0.3l0,0c0.2,0,0.3,0,0.5-0.1c0.2-0.1,0.3-0.2,0.5-0.4c0.2-0.1,0.3-0.3,0.4-0.5c0.1-0.2,0.3-0.4,0.4-0.6
				c0.1-0.2,0.2-0.4,0.3-0.6c0.1-0.2,0.2-0.3,0.2-0.5l0,0c0-0.1,0.1-0.1,0.1-0.2c0.1,0,0.1-0.1,0.2-0.1l0,0c0.1,0,0.2,0,0.3,0.1
				c0.1,0.1,0.1,0.2,0.1,0.3l0,0C190.8,13.7,190.8,13.7,190.7,13.8z M192.3,15.8L192.3,15.8c0.1-0.2,0.2-0.5,0.4-0.8
				c0.1-0.3,0.3-0.6,0.5-0.8s0.3-0.6,0.5-0.8c0.2-0.3,0.4-0.5,0.6-0.8l0,0c0.2-0.2,0.4-0.4,0.6-0.5c0.2-0.1,0.4-0.2,0.6-0.2l0,0
				c0.4,0,0.6,0.1,0.8,0.4c0.2,0.3,0.3,0.6,0.3,1l0,0c0,0.1,0,0.2,0,0.3c0,0.1,0,0.3,0,0.4c0,0.1,0,0.3,0,0.4c0,0.1,0,0.3,0,0.4l0,0
				c0,0.2,0,0.3,0,0.5c0,0.2,0,0.3,0.1,0.4c0,0.1,0.1,0.2,0.2,0.3c0.1,0.1,0.2,0.1,0.4,0.1l0,0c0.3,0,0.5-0.1,0.8-0.3
				c0.2-0.2,0.5-0.4,0.7-0.7c0.2-0.3,0.4-0.6,0.5-0.9c0.2-0.3,0.3-0.5,0.4-0.7l0,0c0-0.1,0.1-0.1,0.1-0.2c0.1,0,0.1-0.1,0.2-0.1l0,0
				c0.1,0,0.2,0,0.3,0.1c0.1,0.1,0.1,0.2,0.1,0.3l0,0c0,0,0,0.1,0,0.1l0,0c0,0.1-0.1,0.2-0.2,0.3c-0.1,0.2-0.2,0.4-0.3,0.6
				c-0.1,0.2-0.3,0.5-0.5,0.7c-0.2,0.3-0.4,0.5-0.6,0.7c-0.2,0.2-0.5,0.4-0.7,0.5c-0.3,0.1-0.5,0.2-0.8,0.2l0,0
				c-0.3,0-0.6-0.1-0.8-0.2c-0.2-0.1-0.3-0.3-0.5-0.5c-0.1-0.2-0.2-0.4-0.2-0.7c0-0.2-0.1-0.5-0.1-0.7l0,0c0-0.1,0-0.2,0-0.4
				s0-0.3,0-0.4c0-0.1,0-0.3,0-0.4c0-0.1,0-0.3,0-0.4l0,0c0-0.2,0-0.4-0.1-0.5c-0.1-0.1-0.1-0.1-0.2-0.1l0,0c-0.1,0-0.2,0.1-0.4,0.2
				c-0.1,0.1-0.3,0.3-0.4,0.5c-0.2,0.2-0.3,0.4-0.5,0.7s-0.3,0.5-0.5,0.8c-0.1,0.3-0.3,0.5-0.4,0.7c-0.1,0.2-0.2,0.4-0.3,0.6l0,0
				c-0.1,0.3-0.3,0.5-0.4,0.6s-0.3,0.1-0.4,0.1l0,0c-0.2,0-0.4-0.1-0.5-0.2s-0.2-0.3-0.2-0.5l0,0c0,0,0-0.1,0-0.3s0-0.3,0-0.5
				c0-0.2,0-0.4,0.1-0.6c0-0.2,0-0.5,0.1-0.7c0-0.2,0-0.4,0.1-0.6c0-0.2,0-0.4,0-0.5l0,0c0-0.2,0-0.3,0-0.5c0-0.2,0-0.3-0.1-0.3l0,0
				c-0.1,0-0.2,0.1-0.3,0.4c-0.2,0.2-0.4,0.7-0.6,1.3l0,0c0,0.1-0.1,0.1-0.2,0.2c-0.1,0-0.1,0.1-0.2,0.1l0,0c-0.1,0-0.2,0-0.3-0.1
				c-0.1-0.1-0.1-0.2-0.1-0.3l0,0c0,0,0-0.1,0-0.2l0,0c0.3-0.7,0.6-1.3,0.9-1.6c0.3-0.4,0.5-0.5,0.8-0.5l0,0c0.2,0,0.3,0,0.4,0.1
				c0.1,0.1,0.2,0.2,0.3,0.3c0.1,0.1,0.1,0.3,0.1,0.4c0,0.2,0,0.3,0,0.5l0,0c0,0.1,0,0.3,0,0.6c0,0.3,0,0.6-0.1,0.9
				c0,0.3,0,0.6-0.1,0.9C192.4,15.3,192.4,15.6,192.3,15.8z M219.6,1.6L219.6,1.6c0,0.2-0.1,0.5-0.2,0.7c-0.1,0.2-0.3,0.5-0.5,0.7
				c-0.2,0.2-0.4,0.4-0.7,0.5c-0.3,0.2-0.5,0.3-0.8,0.4l0,0c-0.1,0.3-0.1,0.6-0.2,1c0,0.4-0.1,0.8-0.1,1.2l0,0c0,0.5,0,1.1-0.1,1.6
				c0,0.5-0.1,1.1-0.1,1.6l0,0c0.6,0,1.2,0,1.8-0.1c0.7,0,1.4,0,2.1-0.1c0.7,0,1.5,0,2.2-0.1c0.8,0,1.5,0,2.3,0l0,0
				c0.1-1.1,0.2-2.1,0.4-3c0.2-0.9,0.4-1.6,0.7-2.2c0.3-0.6,0.7-1,1.1-1.3c0.4-0.3,0.9-0.5,1.4-0.5l0,0c0.1,0,0.2,0,0.3,0
				c0.1,0,0.2,0,0.4,0.1s0.2,0.1,0.3,0.2c0.1,0.1,0.1,0.2,0.1,0.3l0,0c0,0,0,0.1,0,0.1c0,0,0,0.1,0,0.1l0,0
				c-0.1,0.1-0.2,0.2-0.3,0.2l0,0c-0.1,0-0.1,0-0.1,0c0,0-0.1,0-0.1,0c0,0-0.1,0-0.2-0.1c-0.1,0-0.2,0-0.3,0l0,0
				c-0.1,0-0.2,0-0.4,0.1c-0.2,0-0.3,0.1-0.5,0.3c-0.2,0.1-0.4,0.3-0.6,0.6c-0.2,0.3-0.4,0.6-0.6,1.1c-0.2,0.5-0.3,1-0.4,1.7
				c-0.1,0.7-0.2,1.5-0.3,2.4l0,0c0.5,0,0.9,0,1.4,0c0.4,0,0.9,0,1.3,0l0,0c0.1,0,0.2,0,0.3,0.1c0.1,0.1,0.1,0.2,0.1,0.3l0,0
				c0,0.1,0,0.2-0.1,0.3c-0.1,0.1-0.2,0.1-0.3,0.1l0,0c-0.1,0-0.3,0-0.4,0c-0.1,0-0.3,0-0.5,0c-0.2,0-0.4,0-0.7,0c-0.3,0-0.6,0-1,0
				l0,0c0,0.1,0,0.2,0,0.3c0,0.1,0,0.2,0,0.3l0,0c0,0.8,0,1.4,0.1,2.1c0.1,0.6,0.1,1.1,0.2,1.6c0.1,0.5,0.2,0.9,0.3,1.2
				s0.2,0.6,0.3,0.8c0.1,0.2,0.2,0.4,0.2,0.5c0.1,0.1,0.1,0.1,0.1,0.1l0,0c0,0.1,0.1,0.1,0.1,0.2l0,0c0,0.1,0,0.2-0.1,0.3
				c-0.1,0.1-0.2,0.1-0.3,0.1l0,0c-0.1,0-0.2-0.1-0.3-0.2l0,0c0,0-0.1-0.2-0.2-0.4c-0.1-0.2-0.3-0.6-0.5-1.2
				c-0.2-0.5-0.3-1.2-0.5-2.1c-0.1-0.8-0.2-1.9-0.2-3.1l0,0V9.9c-0.8,0-1.5,0-2.3,0c-0.8,0-1.5,0-2.3,0c-0.7,0-1.4,0-2.1,0.1
				c-0.7,0-1.3,0-1.8,0.1l0,0c-0.1,1-0.3,1.9-0.6,2.7c-0.3,0.9-0.7,1.6-1.2,2.2c-0.5,0.6-1.2,1.2-2,1.5c-0.8,0.4-1.8,0.6-2.9,0.6
				l0,0c-0.6,0-1.2-0.1-1.8-0.2c-0.6-0.1-1.1-0.3-1.6-0.5c-0.5-0.2-0.9-0.5-1.3-0.8c-0.4-0.3-0.7-0.7-1-1.1l0,0
				c0-0.1-0.1-0.1-0.1-0.2l0,0c0-0.1,0-0.2,0.1-0.3c0.1-0.1,0.2-0.1,0.3-0.1l0,0c0.1,0,0.1,0,0.2,0c0.1,0,0.1,0.1,0.1,0.1l0,0
				c0.2,0.3,0.5,0.7,0.8,0.9c0.3,0.3,0.7,0.5,1.2,0.7c0.4,0.2,0.9,0.4,1.4,0.5c0.5,0.1,1,0.2,1.6,0.2l0,0c1,0,1.9-0.2,2.6-0.5
				s1.3-0.8,1.7-1.3s0.8-1.2,1-2c0.2-0.8,0.4-1.6,0.5-2.4l0,0c-0.7,0-1.2,0.1-1.6,0.1c-0.4,0-0.6,0-0.6,0l0,0c-0.1,0-0.2,0-0.3-0.1
				c-0.1-0.1-0.1-0.2-0.1-0.3l0,0c0-0.1,0-0.2,0.1-0.3c0.1-0.1,0.2-0.1,0.3-0.1l0,0c0,0,0.2,0,0.6,0c0.4,0,1,0,1.7-0.1l0,0
				c0.1-0.5,0.1-1.1,0.1-1.6c0-0.5,0.1-1.1,0.1-1.7l0,0c0-0.4,0-0.7,0.1-1c0-0.3,0.1-0.6,0.1-0.9l0,0c-0.2,0-0.3,0.1-0.5,0.1
				c-0.2,0-0.4,0-0.6,0l0,0c-0.6,0-1.2,0-1.8-0.1c-0.6-0.1-1.2-0.2-1.8-0.3c-0.6-0.1-1.2-0.2-1.8-0.3c-0.6-0.1-1.2-0.1-1.8-0.1l0,0
				c-0.5,0-1,0.1-1.4,0.2c-0.4,0.1-0.8,0.3-1.2,0.5c-0.3,0.2-0.6,0.5-0.8,0.8c-0.2,0.3-0.3,0.7-0.3,1.2l0,0c0,0.3,0.1,0.5,0.2,0.8
				c0.1,0.2,0.2,0.4,0.4,0.6c0.1,0.2,0.3,0.3,0.4,0.4c0.1,0.1,0.2,0.1,0.2,0.2l0,0c0.1,0.1,0.2,0.2,0.2,0.3l0,0c0,0.1,0,0.2-0.1,0.3
				c-0.1,0.1-0.2,0.1-0.3,0.1l0,0c0,0-0.1,0-0.1,0c0,0-0.1,0-0.1-0.1l0,0c-0.2-0.1-0.3-0.2-0.5-0.4c-0.2-0.2-0.3-0.3-0.5-0.5
				c-0.1-0.2-0.3-0.5-0.4-0.7c-0.1-0.3-0.1-0.6-0.1-0.9l0,0c0-0.6,0.1-1.1,0.4-1.6c0.3-0.4,0.6-0.8,1-1.1c0.4-0.3,0.9-0.5,1.4-0.6
				c0.5-0.1,1.1-0.2,1.6-0.2l0,0c0.6,0,1.2,0,1.8,0.1s1.2,0.2,1.8,0.3c0.6,0.1,1.2,0.2,1.8,0.3c0.6,0.1,1.2,0.1,1.8,0.1l0,0
				c0.2,0,0.5,0,0.7,0c0.2,0,0.4-0.1,0.6-0.1l0,0c0.1-0.4,0.3-0.8,0.4-1.1c0.2-0.3,0.3-0.6,0.5-0.8c0.2-0.2,0.4-0.4,0.6-0.5
				c0.2-0.1,0.4-0.1,0.5-0.1l0,0c0.2,0,0.4,0.1,0.6,0.2C219.6,1.2,219.6,1.4,219.6,1.6z M218.8,1.6L218.8,1.6c-0.1,0-0.1,0-0.2,0.1
				c-0.1,0.1-0.2,0.1-0.3,0.3c-0.1,0.1-0.2,0.3-0.3,0.5c-0.1,0.2-0.2,0.4-0.3,0.7l0,0c0.2-0.1,0.4-0.2,0.6-0.4
				c0.2-0.2,0.3-0.3,0.4-0.5c0.1-0.2,0.2-0.3,0.2-0.4C218.9,1.6,218.8,1.6,218.8,1.6z M234.3,15.6L234.3,15.6c-0.2,0-0.3,0-0.5,0
				l0,0c-0.1,0.2-0.2,0.4-0.4,0.6c-0.1,0.2-0.3,0.3-0.5,0.5c-0.2,0.1-0.4,0.2-0.6,0.3c-0.2,0.1-0.5,0.1-0.8,0.1l0,0
				c-0.3,0-0.6-0.1-0.9-0.2c-0.3-0.1-0.5-0.3-0.7-0.5c-0.2-0.2-0.4-0.5-0.5-0.7c-0.1-0.3-0.2-0.6-0.2-1l0,0c0-0.4,0.1-0.8,0.2-1.2
				c0.2-0.3,0.3-0.6,0.5-0.8c0.2-0.2,0.4-0.4,0.6-0.5c0.2-0.1,0.4-0.2,0.5-0.2l0,0c0.1,0,0.2,0,0.3,0.1c0.1,0.1,0.1,0.1,0.1,0.3l0,0
				c0,0.1,0,0.2-0.1,0.3c-0.1,0.1-0.2,0.1-0.3,0.2l0,0c-0.1,0.1-0.2,0.1-0.4,0.2c-0.1,0.1-0.2,0.2-0.3,0.4c-0.1,0.2-0.2,0.3-0.3,0.5
				c-0.1,0.2-0.1,0.4-0.1,0.7l0,0c0,0.2,0,0.4,0.1,0.6c0.1,0.2,0.2,0.4,0.3,0.5c0.1,0.1,0.3,0.3,0.5,0.3c0.2,0.1,0.4,0.1,0.6,0.1
				l0,0c0.4,0,0.7-0.1,1-0.3c0.3-0.2,0.5-0.4,0.6-0.7l0,0c-0.4-0.2-0.8-0.5-1-0.9c-0.3-0.4-0.4-0.8-0.4-1.3l0,0c0-0.4,0.1-0.7,0.3-1
				c0.2-0.2,0.4-0.4,0.8-0.4l0,0c0.2,0,0.4,0,0.5,0.1c0.2,0.1,0.3,0.2,0.4,0.4c0.1,0.2,0.2,0.4,0.3,0.8c0.1,0.3,0.1,0.7,0.1,1.1l0,0
				c0,0.2,0,0.5-0.1,0.7l0,0c0,0,0.1,0,0.1,0s0.1,0,0.1,0l0,0c0.2,0,0.4,0,0.6-0.1c0.2-0.1,0.4-0.1,0.5-0.3c0.2-0.1,0.3-0.3,0.4-0.4
				c0.1-0.2,0.2-0.4,0.4-0.6l0,0c0,0,0.1-0.1,0.1-0.1c0.1,0,0.1-0.1,0.2-0.1l0,0c0.1,0,0.2,0,0.3,0.1c0.1,0.1,0.1,0.2,0.1,0.3l0,0
				c0,0.1,0,0.1,0,0.2c0,0.1-0.1,0.1-0.1,0.2l0,0c-0.1,0.2-0.3,0.4-0.4,0.6c-0.2,0.2-0.3,0.4-0.6,0.5c-0.2,0.1-0.4,0.3-0.7,0.3
				C234.9,15.5,234.6,15.6,234.3,15.6z M232.5,12.9L232.5,12.9c0,0.1,0,0.3,0.1,0.4c0,0.1,0.1,0.3,0.2,0.4c0.1,0.1,0.2,0.3,0.3,0.4
				c0.1,0.1,0.2,0.2,0.4,0.3l0,0c0-0.1,0-0.3,0-0.4l0,0c0-0.2,0-0.4,0-0.6c0-0.2-0.1-0.4-0.1-0.5c0-0.2-0.1-0.3-0.2-0.4
				c-0.1-0.1-0.2-0.2-0.3-0.2l0,0c0,0-0.1,0-0.2,0.1C232.5,12.6,232.5,12.7,232.5,12.9z M242.1,13.8L242.1,13.8
				c-0.1,0.2-0.2,0.3-0.3,0.6c-0.1,0.2-0.2,0.4-0.4,0.7c-0.1,0.2-0.3,0.5-0.5,0.7c-0.2,0.2-0.4,0.4-0.6,0.6
				c-0.2,0.2-0.4,0.3-0.7,0.4c-0.2,0.1-0.5,0.2-0.8,0.2l0,0c-0.4,0-0.8-0.1-1.1-0.4c-0.3-0.3-0.6-0.6-0.8-1
				c-0.2-0.4-0.4-0.9-0.5-1.4c-0.1-0.5-0.2-1.1-0.3-1.6c-0.1-0.6-0.1-1.1-0.1-1.6c0-0.5,0-1,0-1.4l0,0c0-0.6,0-1.2,0.1-1.8
				c0-0.6,0.1-1.2,0.2-1.8c0.1-0.6,0.2-1.2,0.3-1.7c0.1-0.5,0.3-1,0.5-1.4c0.2-0.4,0.4-0.7,0.6-1c0.2-0.2,0.5-0.4,0.8-0.4l0,0
				c0.2,0,0.4,0.1,0.6,0.2c0.2,0.1,0.3,0.3,0.5,0.5c0.1,0.2,0.2,0.6,0.3,0.9C240,3.5,240,4,240,4.6l0,0c0,0.7-0.1,1.4-0.2,2.2
				c-0.1,0.7-0.3,1.5-0.6,2.2c-0.2,0.8-0.5,1.5-0.9,2.2c-0.3,0.7-0.7,1.5-1.1,2.2l0,0c0.2,0.9,0.4,1.6,0.7,2.1
				c0.3,0.5,0.6,0.8,1.1,0.8l0,0c0.3,0,0.5-0.1,0.8-0.3c0.3-0.2,0.5-0.5,0.7-0.8c0.2-0.3,0.4-0.6,0.6-0.9c0.2-0.3,0.3-0.6,0.4-0.7
				l0,0c0-0.1,0.1-0.1,0.1-0.2c0.1,0,0.1-0.1,0.2-0.1l0,0c0.1,0,0.2,0,0.3,0.1c0.1,0.1,0.1,0.2,0.1,0.3l0,0
				C242.2,13.7,242.2,13.7,242.1,13.8z M236.9,9.6L236.9,9.6c0,0.4,0,0.9,0,1.3c0,0.4,0,0.8,0.1,1.2l0,0c0.3-0.6,0.6-1.2,0.8-1.8
				c0.3-0.6,0.5-1.3,0.7-1.9c0.2-0.7,0.4-1.3,0.5-1.9c0.1-0.6,0.2-1.3,0.2-1.8l0,0c0-0.8-0.1-1.4-0.2-1.8c-0.1-0.4-0.3-0.5-0.5-0.5
				l0,0c-0.1,0-0.3,0.1-0.4,0.3c-0.1,0.2-0.3,0.5-0.4,0.8c-0.1,0.3-0.2,0.8-0.3,1.2c-0.1,0.5-0.2,1-0.2,1.5
				c-0.1,0.5-0.1,1.1-0.2,1.7C236.9,8.5,236.9,9,236.9,9.6z M247.4,13.8L247.4,13.8c-0.1,0.2-0.2,0.3-0.3,0.6
				c-0.1,0.2-0.2,0.4-0.4,0.7c-0.1,0.2-0.3,0.5-0.5,0.7c-0.2,0.2-0.4,0.4-0.6,0.6c-0.2,0.2-0.4,0.3-0.7,0.4
				c-0.2,0.1-0.5,0.2-0.8,0.2l0,0c-0.4,0-0.8-0.1-1.1-0.4c-0.3-0.3-0.6-0.6-0.8-1c-0.2-0.4-0.4-0.9-0.5-1.4
				c-0.1-0.5-0.2-1.1-0.3-1.6c-0.1-0.6-0.1-1.1-0.1-1.6c0-0.5,0-1,0-1.4l0,0c0-0.6,0-1.2,0.1-1.8c0-0.6,0.1-1.2,0.2-1.8
				c0.1-0.6,0.2-1.2,0.3-1.7c0.1-0.5,0.3-1,0.5-1.4c0.2-0.4,0.4-0.7,0.6-1c0.2-0.2,0.5-0.4,0.8-0.4l0,0c0.2,0,0.4,0.1,0.6,0.2
				c0.2,0.1,0.3,0.3,0.5,0.5c0.1,0.2,0.2,0.6,0.3,0.9c0.1,0.4,0.1,0.9,0.1,1.4l0,0c0,0.7-0.1,1.4-0.2,2.2s-0.3,1.5-0.6,2.2
				c-0.2,0.8-0.5,1.5-0.9,2.2c-0.3,0.7-0.7,1.5-1.1,2.2l0,0c0.2,0.9,0.4,1.6,0.7,2.1c0.3,0.5,0.6,0.8,1.1,0.8l0,0
				c0.3,0,0.5-0.1,0.8-0.3c0.3-0.2,0.5-0.5,0.7-0.8c0.2-0.3,0.4-0.6,0.6-0.9c0.2-0.3,0.3-0.6,0.4-0.7l0,0c0-0.1,0.1-0.1,0.1-0.2
				c0.1,0,0.1-0.1,0.2-0.1l0,0c0.1,0,0.2,0,0.3,0.1c0.1,0.1,0.1,0.2,0.1,0.3l0,0C247.4,13.7,247.4,13.7,247.4,13.8z M242.1,9.6
				L242.1,9.6c0,0.4,0,0.9,0,1.3c0,0.4,0,0.8,0.1,1.2l0,0c0.3-0.6,0.6-1.2,0.8-1.8c0.3-0.6,0.5-1.3,0.7-1.9c0.2-0.7,0.4-1.3,0.5-1.9
				c0.1-0.6,0.2-1.3,0.2-1.8l0,0c0-0.8-0.1-1.4-0.2-1.8c-0.1-0.4-0.3-0.5-0.5-0.5l0,0c-0.1,0-0.3,0.1-0.4,0.3
				c-0.1,0.2-0.3,0.5-0.4,0.8c-0.1,0.3-0.2,0.8-0.3,1.2c-0.1,0.5-0.2,1-0.2,1.5c-0.1,0.5-0.1,1.1-0.2,1.7
				C242.2,8.5,242.1,9,242.1,9.6z M254.7,13.8L254.7,13.8c0,0.1-0.1,0.2-0.2,0.4c-0.1,0.2-0.2,0.4-0.3,0.6c-0.1,0.2-0.3,0.5-0.5,0.7
				c-0.2,0.2-0.4,0.5-0.6,0.7c-0.2,0.2-0.5,0.4-0.7,0.5c-0.3,0.1-0.5,0.2-0.8,0.2l0,0c-0.4,0-0.7-0.1-1-0.4c-0.3-0.3-0.5-0.6-0.6-1
				l0,0c-0.2,0.4-0.5,0.7-0.8,0.9c-0.3,0.2-0.7,0.3-1,0.3l0,0c-0.3,0-0.5,0-0.7-0.1c-0.2-0.1-0.4-0.2-0.5-0.4s-0.3-0.4-0.3-0.6
				c-0.1-0.2-0.1-0.5-0.1-0.8l0,0c0-0.5,0.1-1,0.3-1.4c0.2-0.4,0.4-0.8,0.7-1s0.6-0.5,0.9-0.6c0.3-0.1,0.7-0.2,1-0.2l0,0
				c0.2,0,0.4,0,0.6,0.1c0.2,0.1,0.3,0.1,0.5,0.2c0.1,0.1,0.2,0.1,0.3,0.2c0.1,0.1,0.1,0.1,0.1,0.1l0,0c0.1,0.1,0.1,0.2,0.1,0.3l0,0
				c0,0.1,0,0.2-0.1,0.3c-0.1,0.1-0.2,0.1-0.3,0.1l0,0c-0.1,0-0.2,0-0.3-0.1l0,0c0,0,0,0-0.1-0.1c0,0-0.1-0.1-0.2-0.1
				c-0.1,0-0.2-0.1-0.3-0.1c-0.1,0-0.2,0-0.4,0l0,0c-0.2,0-0.4,0-0.7,0.1c-0.2,0.1-0.5,0.2-0.7,0.5c-0.2,0.2-0.4,0.5-0.5,0.8
				c-0.1,0.3-0.2,0.7-0.2,1.1l0,0c0,0.1,0,0.3,0,0.4c0,0.1,0.1,0.3,0.1,0.4c0.1,0.1,0.2,0.2,0.3,0.3c0.1,0.1,0.3,0.1,0.4,0.1l0,0
				c0.1,0,0.3,0,0.4-0.1c0.2-0.1,0.3-0.2,0.5-0.4c0.1-0.2,0.3-0.4,0.4-0.7c0.1-0.3,0.2-0.6,0.3-0.9l0,0c0-0.1,0.1-0.2,0.1-0.2
				c0.1-0.1,0.2-0.1,0.3-0.1l0,0c0.1,0,0.2,0,0.3,0.1c0.1,0.1,0.1,0.2,0.1,0.3l0,0c0,0.1,0,0.3,0,0.6c0,0.2,0.1,0.5,0.1,0.7
				c0.1,0.2,0.2,0.4,0.3,0.6c0.1,0.2,0.3,0.3,0.6,0.3l0,0c0.2,0,0.3,0,0.5-0.1c0.2-0.1,0.3-0.2,0.5-0.4c0.2-0.1,0.3-0.3,0.4-0.5
				c0.1-0.2,0.3-0.4,0.4-0.6c0.1-0.2,0.2-0.4,0.3-0.6c0.1-0.2,0.2-0.3,0.2-0.5l0,0c0-0.1,0.1-0.1,0.1-0.2c0.1,0,0.1-0.1,0.2-0.1l0,0
				c0.1,0,0.2,0,0.3,0.1c0.1,0.1,0.1,0.2,0.1,0.3l0,0C254.7,13.7,254.7,13.7,254.7,13.8z M256.3,15.8L256.3,15.8
				c0.1-0.2,0.2-0.5,0.4-0.8c0.1-0.3,0.3-0.6,0.5-0.8c0.2-0.3,0.3-0.6,0.5-0.8c0.2-0.3,0.4-0.5,0.6-0.8l0,0c0.2-0.2,0.4-0.4,0.6-0.5
				c0.2-0.1,0.4-0.2,0.6-0.2l0,0c0.4,0,0.6,0.1,0.8,0.4c0.2,0.3,0.3,0.6,0.3,1l0,0c0,0.1,0,0.2,0,0.3c0,0.1,0,0.3,0,0.4
				c0,0.1,0,0.3,0,0.4c0,0.1,0,0.3,0,0.4l0,0c0,0.2,0,0.3,0,0.5c0,0.2,0,0.3,0.1,0.4c0,0.1,0.1,0.2,0.2,0.3c0.1,0.1,0.2,0.1,0.4,0.1
				l0,0c0.3,0,0.5-0.1,0.8-0.3c0.3-0.2,0.5-0.4,0.7-0.7c0.2-0.3,0.4-0.6,0.6-0.9c0.2-0.3,0.3-0.5,0.3-0.7l0,0c0-0.1,0.1-0.1,0.1-0.2
				c0.1,0,0.1-0.1,0.2-0.1l0,0c0.1,0,0.2,0,0.3,0.1c0.1,0.1,0.1,0.2,0.1,0.3l0,0c0,0,0,0.1,0,0.1l0,0c0,0.1-0.1,0.2-0.2,0.3
				c-0.1,0.2-0.2,0.4-0.3,0.6c-0.1,0.2-0.3,0.5-0.5,0.7c-0.2,0.3-0.4,0.5-0.6,0.7c-0.2,0.2-0.5,0.4-0.7,0.5
				c-0.3,0.1-0.5,0.2-0.8,0.2l0,0c-0.3,0-0.6-0.1-0.8-0.2s-0.3-0.3-0.5-0.5c-0.1-0.2-0.2-0.4-0.2-0.7c0-0.2-0.1-0.5-0.1-0.7l0,0
				c0-0.1,0-0.2,0-0.4c0-0.1,0-0.3,0-0.4c0-0.1,0-0.3,0-0.4s0-0.3,0-0.4l0,0c0-0.2,0-0.4-0.1-0.5c-0.1-0.1-0.1-0.1-0.2-0.1l0,0
				c-0.1,0-0.2,0.1-0.4,0.2c-0.1,0.1-0.3,0.3-0.4,0.5c-0.2,0.2-0.3,0.4-0.5,0.7c-0.2,0.3-0.3,0.5-0.5,0.8c-0.1,0.3-0.3,0.5-0.4,0.7
				c-0.1,0.2-0.2,0.4-0.3,0.6l0,0c-0.1,0.3-0.3,0.5-0.4,0.6c-0.1,0.1-0.3,0.1-0.4,0.1l0,0c-0.2,0-0.4-0.1-0.5-0.2
				c-0.1-0.1-0.2-0.3-0.2-0.5l0,0c0,0,0-0.1,0-0.3c0-0.1,0-0.3,0.1-0.5c0-0.2,0-0.4,0.1-0.6c0-0.2,0-0.5,0.1-0.7
				c0-0.2,0-0.4,0.1-0.6c0-0.2,0-0.4,0-0.5l0,0c0-0.2,0-0.3,0-0.5c0-0.2,0-0.3-0.1-0.3l0,0c-0.1,0-0.2,0.1-0.3,0.4
				c-0.2,0.2-0.4,0.7-0.6,1.3l0,0c0,0.1-0.1,0.1-0.2,0.2c-0.1,0-0.1,0.1-0.2,0.1l0,0c-0.1,0-0.2,0-0.3-0.1c-0.1-0.1-0.1-0.2-0.1-0.3
				l0,0c0,0,0-0.1,0-0.2l0,0c0.3-0.7,0.6-1.3,0.9-1.6c0.3-0.4,0.5-0.5,0.8-0.5l0,0c0.2,0,0.3,0,0.4,0.1c0.1,0.1,0.2,0.2,0.3,0.3
				c0.1,0.1,0.1,0.3,0.1,0.4c0,0.2,0,0.3,0,0.5l0,0c0,0.1,0,0.3,0,0.6c0,0.3,0,0.6-0.1,0.9c0,0.3-0.1,0.6-0.1,0.9
				S256.3,15.6,256.3,15.8z M267.5,13.7L267.5,13.7c0.3,1.6,0.8,2.4,1.5,2.4l0,0c0.3,0,0.5-0.1,0.7-0.3c0.2-0.2,0.4-0.4,0.6-0.7
				s0.4-0.5,0.5-0.8c0.2-0.3,0.3-0.6,0.4-0.8l0,0c0.1-0.2,0.2-0.2,0.4-0.2l0,0c0.1,0,0.2,0,0.3,0.1c0.1,0.1,0.1,0.2,0.1,0.3l0,0
				c0,0.1,0,0.1,0,0.1l0,0c0,0.1-0.1,0.3-0.2,0.5c-0.1,0.2-0.2,0.4-0.3,0.6c-0.1,0.2-0.3,0.5-0.5,0.7s-0.4,0.4-0.5,0.6
				c-0.2,0.2-0.4,0.3-0.6,0.5c-0.2,0.1-0.5,0.2-0.7,0.2l0,0c-0.5,0-0.9-0.2-1.2-0.5c-0.3-0.3-0.6-0.9-0.9-1.6l0,0
				c-0.3,0.7-0.7,1.2-1,1.5c-0.3,0.3-0.7,0.5-1.1,0.5l0,0c-0.2,0-0.4,0-0.6-0.1c-0.2-0.1-0.4-0.2-0.5-0.3c-0.1-0.2-0.3-0.3-0.4-0.6
				c-0.1-0.2-0.1-0.5-0.1-0.9l0,0c0-0.5,0.1-0.9,0.3-1.3c0.2-0.4,0.4-0.7,0.6-1c0.3-0.3,0.6-0.5,0.9-0.7c0.3-0.2,0.6-0.2,1-0.2l0,0
				c0.1,0,0.2,0,0.3,0.1c0.1,0.1,0.1,0.2,0.1,0.3l0,0c0,0.1,0,0.2-0.1,0.3c-0.1,0.1-0.1,0.1-0.3,0.1l0,0c-0.2,0-0.4,0.1-0.7,0.2
				c-0.2,0.1-0.5,0.3-0.7,0.5c-0.2,0.2-0.4,0.5-0.5,0.8c-0.1,0.3-0.2,0.7-0.2,1.1l0,0c0,0.3,0.1,0.6,0.2,0.8
				c0.1,0.2,0.4,0.3,0.6,0.3l0,0c0.1,0,0.2,0,0.4-0.1c0.1-0.1,0.3-0.2,0.4-0.3s0.3-0.4,0.5-0.7c0.2-0.3,0.4-0.7,0.6-1.3l0,0
				c-0.1-0.6-0.2-1.3-0.3-2.1c-0.1-0.8-0.1-1.7-0.1-2.7l0,0c0-0.4,0-0.9,0-1.3c0-0.5,0.1-0.9,0.1-1.4c0.1-0.4,0.1-0.9,0.3-1.3
				c0.1-0.4,0.2-0.8,0.4-1.1c0.1-0.3,0.3-0.5,0.5-0.7c0.2-0.2,0.4-0.3,0.7-0.3l0,0c0.2,0,0.4,0.1,0.6,0.2s0.3,0.3,0.4,0.5
				c0.1,0.2,0.2,0.5,0.2,0.8c0,0.3,0.1,0.7,0.1,1l0,0c0,0.8-0.1,1.6-0.2,2.4c-0.1,0.8-0.3,1.6-0.5,2.3c-0.2,0.7-0.4,1.4-0.7,2
				C267.9,12.7,267.7,13.2,267.5,13.7z M268.7,5.3L268.7,5.3c0-0.2,0-0.4,0-0.6c0-0.2,0-0.4-0.1-0.6c0-0.2-0.1-0.3-0.2-0.4
				c-0.1-0.1-0.1-0.2-0.2-0.2l0,0c-0.2,0-0.3,0.2-0.5,0.5c-0.1,0.3-0.3,0.7-0.4,1.2c-0.1,0.5-0.2,1.1-0.3,1.7
				c-0.1,0.6-0.1,1.3-0.1,1.9l0,0c0,0.6,0,1.2,0.1,1.8c0,0.6,0.1,1.2,0.2,1.6l0,0c0.2-0.5,0.4-1.1,0.6-1.7c0.2-0.6,0.3-1.1,0.5-1.7
				c0.1-0.6,0.2-1.2,0.3-1.8C268.7,6.5,268.7,5.9,268.7,5.3z M278.6,18.1L278.6,18.1c0,0.1,0,0.2-0.1,0.3c-0.1,0.1-0.2,0.1-0.3,0.1
				l0,0c-0.1,0-0.2,0-0.3-0.1c-0.1-0.1-0.1-0.2-0.1-0.3l0,0c0,0,0-0.1,0-0.2c0-0.2,0-0.4,0-0.6c0-0.3,0-0.6,0-0.9c0-0.4,0-0.8,0-1.2
				l0,0c0-0.4,0-0.8,0-1.3c0-0.4,0-0.9,0-1.3c0-0.4,0-0.9,0-1.3c0-0.4,0-0.8,0-1.1l0,0c0-0.5,0-1,0-1.6c0-0.6,0-1.2-0.1-1.9
				c0-0.6,0-1.3-0.1-1.9c0-0.6,0-1.2,0-1.6c0-0.5,0-0.9,0-1.2s0-0.5,0-0.5l0,0c0-0.1,0-0.2,0.1-0.3c0.1-0.1,0.2-0.1,0.3-0.1l0,0
				c0.1,0,0.2,0,0.3,0.1c0.1,0.1,0.1,0.2,0.1,0.3l0,0c0,0,0,0.2,0,0.5c0,0.3,0,0.7,0,1.2c0,0.5,0,1,0.1,1.6c0,0.6,0,1.2,0.1,1.9
				c0,0.6,0,1.3,0,1.9s0,1.1,0,1.6l0,0c0,0.3,0,0.7,0,1c0,0.4,0,0.8,0,1.2c0,0.4,0,0.8,0,1.2c0,0.4,0,0.8,0,1.2l0,0
				c0,0.5,0,0.9,0,1.3c0,0.4,0,0.8,0,1.1c0,0.3,0,0.6,0,0.8S278.6,18.1,278.6,18.1z M304.2,15L304.2,15c0,0,0,0.1-0.1,0.2
				c-0.1,0.1-0.2,0.2-0.3,0.4c-0.1,0.1-0.3,0.3-0.5,0.5c-0.2,0.2-0.5,0.3-0.7,0.5c-0.3,0.1-0.6,0.3-1,0.4c-0.4,0.1-0.8,0.1-1.2,0.1
				l0,0c-0.7,0-1.3-0.1-1.9-0.3c-0.6-0.2-1.2-0.4-1.7-0.7c-0.6-0.3-1.1-0.6-1.6-0.9c-0.5-0.3-1.1-0.6-1.6-0.9l0,0
				c-0.3,0.6-0.7,1-1.2,1.4c-0.4,0.4-0.9,0.6-1.4,0.8c-0.5,0.2-0.9,0.3-1.4,0.4c-0.5,0.1-0.9,0.1-1.3,0.1l0,0c-0.4,0-0.8,0-1.2-0.1
				c-0.4-0.1-0.7-0.2-1.1-0.4s-0.6-0.4-0.8-0.7c-0.2-0.3-0.3-0.7-0.3-1.1l0,0c0-0.4,0.1-0.8,0.3-1.1c0.2-0.3,0.5-0.6,0.8-0.9
				c0.3-0.2,0.7-0.4,1.2-0.5c0.5-0.1,1-0.2,1.5-0.2l0,0c0.4,0,0.8,0,1.2,0.1c0.4,0.1,0.8,0.2,1.2,0.3c0.4,0.1,0.7,0.3,1.1,0.4
				c0.4,0.1,0.7,0.3,1,0.5l0,0c0-0.1,0.1-0.3,0.1-0.4c0-0.1,0.1-0.3,0.1-0.4c0-0.1,0-0.3,0.1-0.5c0-0.2,0-0.4,0-0.6l0,0
				c0-0.2,0-0.4,0-0.7c0-0.2,0-0.4,0-0.7c0-0.2,0-0.5,0-0.8c0-0.3,0-0.7,0-1.1l0,0c0-1,0.1-1.9,0.3-2.7c0.2-0.8,0.5-1.5,0.9-2.1
				c0.4-0.6,0.9-1,1.4-1.4c0.6-0.3,1.2-0.5,2-0.5l0,0c0.5,0,0.9,0.1,1.3,0.2c0.4,0.1,0.8,0.4,1.1,0.6c0.3,0.3,0.6,0.6,0.8,1
				c0.2,0.4,0.3,0.8,0.3,1.2l0,0c0,0.3,0,0.5-0.1,0.8c-0.1,0.3-0.2,0.5-0.3,0.7c-0.1,0.2-0.3,0.4-0.4,0.6c-0.2,0.1-0.3,0.2-0.5,0.2
				l0,0c-0.1,0-0.2,0-0.3-0.1c-0.1-0.1-0.1-0.1-0.1-0.3l0,0c0-0.1,0-0.2,0.1-0.2c0-0.1,0.1-0.1,0.1-0.2l0,0c0.2-0.2,0.4-0.4,0.5-0.7
				c0.1-0.3,0.2-0.6,0.2-0.9l0,0c0-0.3-0.1-0.7-0.2-0.9c-0.1-0.3-0.3-0.5-0.6-0.7c-0.2-0.2-0.5-0.4-0.8-0.5c-0.3-0.1-0.6-0.2-1-0.2
				l0,0c-0.7,0-1.2,0.1-1.7,0.4c-0.5,0.3-0.9,0.7-1.2,1.2c-0.3,0.5-0.5,1.1-0.7,1.9c-0.1,0.7-0.2,1.5-0.2,2.4l0,0c0,0.4,0,0.8,0,1.1
				c0,0.3,0,0.6,0,0.9c0,0.3,0,0.5,0,0.8c0,0.2,0,0.5,0,0.7l0,0c0,0.1,0,0.3,0,0.5c0,0.2,0,0.3-0.1,0.5c0,0.2-0.1,0.4-0.1,0.5
				c0,0.2-0.1,0.3-0.1,0.5l0,0c0.5,0.3,1,0.6,1.6,0.9c0.5,0.3,1,0.6,1.6,0.9c0.5,0.3,1.1,0.5,1.6,0.6c0.6,0.2,1.2,0.3,1.8,0.3l0,0
				c0.6,0,1-0.1,1.4-0.3c0.4-0.2,0.7-0.4,1-0.6c0.3-0.2,0.5-0.4,0.6-0.6c0.1-0.2,0.2-0.3,0.2-0.3l0,0c0.1-0.1,0.2-0.2,0.3-0.2l0,0
				c0.1,0,0.2,0,0.3,0.1c0.1,0.1,0.1,0.2,0.1,0.3l0,0C304.3,14.9,304.3,14.9,304.2,15z M292.7,13.9L292.7,13.9
				c-0.3-0.1-0.6-0.3-0.9-0.4c-0.3-0.1-0.7-0.3-1-0.4c-0.3-0.1-0.7-0.2-1.1-0.3c-0.4-0.1-0.7-0.1-1.1-0.1l0,0c-0.4,0-0.8,0-1.2,0.1
				c-0.4,0.1-0.7,0.2-0.9,0.4c-0.3,0.2-0.5,0.4-0.6,0.6c-0.2,0.2-0.2,0.5-0.2,0.8l0,0c0,0.3,0.1,0.5,0.2,0.7
				c0.1,0.2,0.3,0.4,0.6,0.5c0.2,0.1,0.5,0.2,0.8,0.3c0.3,0.1,0.6,0.1,1,0.1l0,0c0.4,0,0.8,0,1.2-0.1c0.4-0.1,0.9-0.2,1.3-0.4
				c0.4-0.2,0.8-0.4,1.1-0.7C292.2,14.8,292.5,14.4,292.7,13.9z M306.4,15.6L306.4,15.6c0.1,0.2,0.3,0.4,0.6,0.5
				c0.2,0.1,0.5,0.2,0.8,0.2l0,0c0.3,0,0.7-0.1,0.9-0.2c0.3-0.2,0.5-0.4,0.8-0.6c0.2-0.3,0.4-0.6,0.6-0.9c0.2-0.3,0.3-0.7,0.5-1l0,0
				c0-0.1,0.1-0.1,0.1-0.2c0.1,0,0.1-0.1,0.2-0.1l0,0c0.1,0,0.2,0,0.3,0.1c0.1,0.1,0.1,0.2,0.1,0.3l0,0c0,0,0,0.1,0,0.1
				c0,0,0,0.1,0,0.1l0,0c-0.5,1.1-1,1.9-1.6,2.4c-0.6,0.5-1.2,0.8-1.9,0.8l0,0c-0.5,0-0.9-0.1-1.2-0.3c-0.3-0.2-0.6-0.4-0.8-0.7
				c-0.2-0.3-0.4-0.6-0.5-1c-0.1-0.4-0.2-0.7-0.2-1.1l0,0c0-0.4,0-0.7,0.1-1c0.1-0.3,0.2-0.6,0.4-0.8c0.2-0.2,0.4-0.4,0.6-0.5
				c0.2-0.1,0.5-0.2,0.7-0.2l0,0c0.2,0,0.3,0,0.5,0.1c0.2,0.1,0.3,0.2,0.4,0.3c0.1,0.1,0.2,0.3,0.3,0.4c0.1,0.2,0.1,0.4,0.1,0.6l0,0
				c0,0.3,0,0.6-0.1,0.8c-0.1,0.2-0.2,0.5-0.4,0.7c-0.2,0.2-0.4,0.4-0.6,0.6C306.9,15.3,306.6,15.4,306.4,15.6z M306,14.9L306,14.9
				c0.2-0.1,0.4-0.2,0.6-0.3c0.2-0.1,0.3-0.3,0.5-0.5c0.1-0.2,0.2-0.3,0.3-0.5c0.1-0.2,0.1-0.4,0.1-0.6l0,0c0-0.2-0.1-0.4-0.2-0.5
				c-0.1-0.1-0.2-0.2-0.4-0.2l0,0c-0.2,0-0.3,0.1-0.5,0.2c-0.1,0.1-0.2,0.2-0.3,0.4c-0.1,0.2-0.1,0.4-0.2,0.6c0,0.2-0.1,0.4-0.1,0.6
				l0,0c0,0.1,0,0.3,0,0.4C306,14.6,306,14.8,306,14.9z M318.6,13.8L318.6,13.8c0,0.1-0.1,0.2-0.2,0.4c-0.1,0.2-0.2,0.4-0.3,0.6
				c-0.1,0.2-0.3,0.5-0.5,0.7c-0.2,0.2-0.4,0.5-0.6,0.7c-0.2,0.2-0.5,0.4-0.7,0.5c-0.3,0.1-0.5,0.2-0.8,0.2l0,0
				c-0.4,0-0.7-0.1-1-0.4c-0.3-0.3-0.5-0.6-0.6-1l0,0c-0.2,0.4-0.5,0.7-0.8,0.9c-0.3,0.2-0.7,0.3-1,0.3l0,0c-0.3,0-0.5,0-0.7-0.1
				c-0.2-0.1-0.4-0.2-0.5-0.4c-0.1-0.2-0.3-0.4-0.3-0.6c-0.1-0.2-0.1-0.5-0.1-0.8l0,0c0-0.5,0.1-1,0.3-1.4c0.2-0.4,0.4-0.8,0.7-1
				s0.6-0.5,0.9-0.6c0.3-0.1,0.7-0.2,1-0.2l0,0c0.2,0,0.4,0,0.6,0.1c0.2,0.1,0.3,0.1,0.5,0.2c0.1,0.1,0.2,0.1,0.3,0.2
				c0.1,0.1,0.1,0.1,0.1,0.1l0,0c0.1,0.1,0.1,0.2,0.1,0.3l0,0c0,0.1,0,0.2-0.1,0.3c-0.1,0.1-0.2,0.1-0.3,0.1l0,0
				c-0.1,0-0.2,0-0.3-0.1l0,0c0,0,0,0-0.1-0.1c0,0-0.1-0.1-0.2-0.1c-0.1,0-0.2-0.1-0.3-0.1c-0.1,0-0.2,0-0.4,0l0,0
				c-0.2,0-0.4,0-0.7,0.1c-0.2,0.1-0.5,0.2-0.7,0.5c-0.2,0.2-0.4,0.5-0.5,0.8c-0.1,0.3-0.2,0.7-0.2,1.1l0,0c0,0.1,0,0.3,0,0.4
				c0,0.1,0.1,0.3,0.1,0.4c0.1,0.1,0.2,0.2,0.3,0.3c0.1,0.1,0.3,0.1,0.4,0.1l0,0c0.1,0,0.3,0,0.4-0.1c0.2-0.1,0.3-0.2,0.5-0.4
				c0.1-0.2,0.3-0.4,0.4-0.7c0.1-0.3,0.2-0.6,0.3-0.9l0,0c0-0.1,0.1-0.2,0.1-0.2c0.1-0.1,0.2-0.1,0.3-0.1l0,0c0.1,0,0.2,0,0.3,0.1
				c0.1,0.1,0.1,0.2,0.1,0.3l0,0c0,0.1,0,0.3,0,0.6c0,0.2,0.1,0.5,0.1,0.7c0.1,0.2,0.2,0.4,0.3,0.6c0.1,0.2,0.3,0.3,0.6,0.3l0,0
				c0.2,0,0.3,0,0.5-0.1c0.2-0.1,0.3-0.2,0.5-0.4c0.2-0.1,0.3-0.3,0.4-0.5c0.1-0.2,0.3-0.4,0.4-0.6s0.2-0.4,0.3-0.6
				c0.1-0.2,0.2-0.3,0.2-0.5l0,0c0-0.1,0.1-0.1,0.2-0.2c0.1,0,0.1-0.1,0.2-0.1l0,0c0.1,0,0.2,0,0.3,0.1c0.1,0.1,0.1,0.2,0.1,0.3l0,0
				C318.6,13.7,318.6,13.7,318.6,13.8z M321.9,13.7L321.9,13.7c0.3,1.6,0.8,2.4,1.5,2.4l0,0c0.2,0,0.5-0.1,0.7-0.3
				c0.2-0.2,0.4-0.4,0.6-0.7c0.2-0.3,0.4-0.5,0.5-0.8c0.2-0.3,0.3-0.6,0.4-0.8l0,0c0.1-0.2,0.2-0.2,0.4-0.2l0,0c0.1,0,0.2,0,0.3,0.1
				c0.1,0.1,0.1,0.2,0.1,0.3l0,0c0,0.1,0,0.1,0,0.1l0,0c0,0.1-0.1,0.3-0.2,0.5c-0.1,0.2-0.2,0.4-0.3,0.6c-0.1,0.2-0.3,0.5-0.5,0.7
				c-0.2,0.2-0.4,0.4-0.6,0.6s-0.4,0.3-0.6,0.5c-0.2,0.1-0.5,0.2-0.7,0.2l0,0c-0.5,0-0.9-0.2-1.2-0.5c-0.3-0.3-0.6-0.9-0.9-1.6l0,0
				c-0.3,0.7-0.7,1.2-1,1.5c-0.3,0.3-0.7,0.5-1.1,0.5l0,0c-0.2,0-0.4,0-0.6-0.1c-0.2-0.1-0.4-0.2-0.5-0.3c-0.1-0.2-0.3-0.3-0.4-0.6
				c-0.1-0.2-0.1-0.5-0.1-0.9l0,0c0-0.5,0.1-0.9,0.3-1.3c0.2-0.4,0.4-0.7,0.6-1s0.6-0.5,0.9-0.7c0.3-0.2,0.6-0.2,1-0.2l0,0
				c0.1,0,0.2,0,0.3,0.1c0.1,0.1,0.1,0.2,0.1,0.3l0,0c0,0.1,0,0.2-0.1,0.3c-0.1,0.1-0.1,0.1-0.3,0.1l0,0c-0.2,0-0.4,0.1-0.7,0.2
				c-0.2,0.1-0.5,0.3-0.7,0.5c-0.2,0.2-0.4,0.5-0.5,0.8c-0.1,0.3-0.2,0.7-0.2,1.1l0,0c0,0.3,0.1,0.6,0.2,0.8
				c0.1,0.2,0.3,0.3,0.6,0.3l0,0c0.1,0,0.2,0,0.4-0.1c0.1-0.1,0.3-0.2,0.4-0.3c0.1-0.2,0.3-0.4,0.5-0.7c0.2-0.3,0.4-0.7,0.6-1.3l0,0
				c-0.1-0.6-0.2-1.3-0.3-2.1c-0.1-0.8-0.1-1.7-0.1-2.7l0,0c0-0.4,0-0.9,0-1.3c0-0.5,0.1-0.9,0.1-1.4c0.1-0.4,0.1-0.9,0.3-1.3
				c0.1-0.4,0.2-0.8,0.4-1.1s0.3-0.5,0.5-0.7c0.2-0.2,0.4-0.3,0.7-0.3l0,0c0.2,0,0.4,0.1,0.6,0.2c0.2,0.1,0.3,0.3,0.4,0.5
				c0.1,0.2,0.2,0.5,0.2,0.8c0,0.3,0.1,0.7,0.1,1l0,0c0,0.8-0.1,1.6-0.2,2.4c-0.1,0.8-0.3,1.6-0.5,2.3c-0.2,0.7-0.4,1.4-0.7,2
				C322.3,12.7,322.1,13.2,321.9,13.7z M323.2,5.3L323.2,5.3c0-0.2,0-0.4,0-0.6c0-0.2,0-0.4-0.1-0.6c0-0.2-0.1-0.3-0.1-0.4
				c-0.1-0.1-0.1-0.2-0.3-0.2l0,0c-0.2,0-0.3,0.2-0.5,0.5c-0.1,0.3-0.3,0.7-0.4,1.2c-0.1,0.5-0.2,1.1-0.3,1.7
				c-0.1,0.6-0.1,1.3-0.1,1.9l0,0c0,0.6,0,1.2,0.1,1.8c0,0.6,0.1,1.2,0.2,1.6l0,0c0.2-0.5,0.4-1.1,0.6-1.7c0.2-0.6,0.3-1.1,0.5-1.7
				c0.1-0.6,0.2-1.2,0.3-1.8C323.1,6.5,323.2,5.9,323.2,5.3z M348.1,6.7L348.1,6.7c0,0.1,0,0.2-0.1,0.3c-0.1,0.1-0.2,0.1-0.3,0.1
				l0,0c-0.1,0-0.2,0-0.3-0.1c-0.1-0.1-0.1-0.2-0.1-0.3l0,0c0,0,0-0.2,0-0.4c0-0.2-0.1-0.5-0.2-0.9c-0.1-0.3-0.3-0.7-0.5-1.1
				c-0.2-0.4-0.6-0.8-1-1.1c-0.4-0.3-0.9-0.6-1.6-0.8c-0.6-0.2-1.4-0.3-2.3-0.3l0,0c-0.8,0-1.6,0.1-2.4,0.4c-0.8,0.2-1.6,0.6-2.3,1
				c-0.7,0.4-1.4,1-2.1,1.6c-0.6,0.6-1.2,1.3-1.7,2c-0.5,0.7-0.9,1.5-1.1,2.3c-0.3,0.8-0.4,1.7-0.4,2.5l0,0c0,0.8,0.1,1.5,0.3,2
				c0.2,0.6,0.5,1,0.9,1.4c0.4,0.4,0.8,0.6,1.3,0.8c0.5,0.2,1.1,0.2,1.7,0.2l0,0c1,0,2-0.2,2.9-0.5c0.9-0.4,1.7-0.8,2.5-1.4
				c0.8-0.6,1.5-1.3,2.1-2.1c0.6-0.8,1.2-1.7,1.7-2.6l0,0c0.1-0.8,0.2-1.5,0.3-1.9c0.1-0.4,0.4-0.7,0.6-0.7l0,0
				c0.2,0,0.3,0.1,0.4,0.2c0.1,0.1,0.2,0.3,0.2,0.5l0,0c0,0.2-0.1,0.5-0.2,0.9c-0.1,0.4-0.3,0.8-0.5,1.2l0,0c0,0.3,0,0.7,0,1.1l0,0
				c0,0.6,0,1.2,0.1,1.8c0,0.7,0.1,1.3,0.2,2.1l0,0c0.3-0.1,0.5-0.3,0.7-0.3c0.2-0.1,0.3-0.1,0.4-0.1c0.1,0,0.1,0,0.1,0
				c0,0,0,0,0.1,0l0,0c0.1,0,0.2,0,0.3,0.1c0.1,0.1,0.1,0.2,0.1,0.3l0,0c0,0.1,0,0.2-0.1,0.2c0,0.1-0.1,0.1-0.2,0.1l0,0
				c0,0-0.1,0.1-0.4,0.1c-0.2,0.1-0.5,0.2-0.9,0.4l0,0c0,0.4,0.1,0.8,0.1,1.1c0,0.4,0,0.8,0,1.2l0,0c0,0.9-0.1,1.8-0.2,2.6
				c-0.1,0.8-0.4,1.6-0.7,2.2c-0.3,0.6-0.7,1.1-1.2,1.5c-0.5,0.4-1.1,0.6-1.8,0.6l0,0c-0.4,0-0.7-0.1-1-0.2
				c-0.3-0.1-0.6-0.3-0.8-0.5c-0.2-0.2-0.4-0.5-0.5-0.8c-0.1-0.3-0.2-0.6-0.2-1l0,0c0-0.5,0.1-1,0.3-1.5c0.2-0.5,0.4-1,0.7-1.5
				c0.3-0.5,0.6-0.9,1-1.3c0.4-0.4,0.8-0.8,1.2-1.2c0.4-0.4,0.8-0.7,1.2-0.9c0.4-0.3,0.8-0.5,1.1-0.7l0,0c-0.1-0.7-0.2-1.4-0.2-2
				c-0.1-0.7-0.1-1.3-0.1-2l0,0c-0.6,1-1.3,1.8-2,2.6c-0.7,0.7-1.5,1.4-2.3,1.9c-0.8,0.5-1.6,0.9-2.4,1.1c-0.8,0.3-1.7,0.4-2.5,0.4
				l0,0c-0.8,0-1.4-0.1-2-0.3c-0.6-0.2-1.1-0.6-1.6-1c-0.4-0.4-0.8-1-1-1.6c-0.2-0.6-0.4-1.4-0.4-2.2l0,0c0-0.9,0.1-1.8,0.4-2.6
				c0.3-0.9,0.7-1.7,1.2-2.5c0.5-0.8,1.1-1.5,1.8-2.2c0.7-0.7,1.4-1.2,2.2-1.7c0.8-0.5,1.7-0.9,2.5-1.1c0.9-0.3,1.8-0.4,2.7-0.4l0,0
				c0.9,0,1.7,0.1,2.3,0.3c0.7,0.2,1.2,0.5,1.7,0.8c0.5,0.3,0.8,0.7,1.1,1c0.3,0.4,0.5,0.7,0.7,1.1l0,0c0.1,0.3,0.2,0.6,0.3,0.8
				c0.1,0.3,0.1,0.5,0.2,0.7c0,0.2,0.1,0.4,0.1,0.5C348.1,6.6,348.1,6.7,348.1,6.7z M345.4,16L345.4,16c-0.3,0.2-0.7,0.4-1.1,0.7
				c-0.4,0.3-0.7,0.6-1.1,0.9c-0.3,0.3-0.7,0.7-1,1c-0.3,0.4-0.6,0.7-0.8,1.1c-0.2,0.4-0.4,0.8-0.6,1.2c-0.1,0.4-0.2,0.8-0.2,1.3
				l0,0c0,0.3,0,0.5,0.1,0.7c0.1,0.2,0.2,0.4,0.4,0.5s0.3,0.3,0.5,0.3c0.2,0.1,0.4,0.1,0.7,0.1l0,0c1,0,1.7-0.5,2.3-1.6
				s0.8-2.6,0.8-4.5l0,0c0-0.3,0-0.6,0-0.9C345.5,16.6,345.4,16.3,345.4,16z M352.3,15.5L352.3,15.5c-0.2,0.4-0.5,0.7-0.8,0.9
				s-0.6,0.3-1,0.3l0,0c-0.3,0-0.5,0-0.7-0.1c-0.2-0.1-0.4-0.2-0.5-0.4c-0.2-0.2-0.3-0.4-0.3-0.6c-0.1-0.2-0.1-0.5-0.1-0.8l0,0
				c0-0.5,0-0.9,0.1-1.3c0.1-0.4,0.2-0.7,0.3-0.9c0.1-0.3,0.2-0.4,0.3-0.6c0.1-0.1,0.1-0.2,0.1-0.2l0,0c0,0,0.1-0.1,0.1-0.1
				c0,0,0.1,0,0.2,0l0,0c0.1,0,0.2,0,0.3,0.1c0.1,0.1,0.1,0.2,0.1,0.3l0,0c0,0,0,0.1,0,0.1c0,0,0,0.1-0.1,0.1l0,0
				c0,0.1-0.1,0.2-0.2,0.3c-0.1,0.1-0.2,0.3-0.2,0.5c-0.1,0.2-0.2,0.5-0.2,0.7c-0.1,0.3-0.1,0.6-0.1,1l0,0c0,0.4,0.1,0.7,0.2,0.9
				c0.2,0.2,0.4,0.3,0.7,0.3l0,0c0.1,0,0.3,0,0.4-0.1c0.2-0.1,0.3-0.2,0.5-0.4c0.2-0.2,0.3-0.4,0.4-0.6c0.1-0.3,0.2-0.6,0.2-0.9l0,0
				l0.2-1.8c0-0.1,0.1-0.2,0.1-0.3c0.1-0.1,0.2-0.1,0.3-0.1l0,0c0.1,0,0.2,0,0.3,0.1c0.1,0.1,0.1,0.2,0.1,0.3l0,0l-0.1,1.7
				c0,0.1,0,0.3,0,0.6c0,0.2,0.1,0.5,0.1,0.7c0.1,0.2,0.2,0.4,0.3,0.6c0.2,0.2,0.4,0.2,0.6,0.2l0,0c0.2,0,0.4,0,0.5-0.1
				c0.2-0.1,0.3-0.2,0.5-0.4s0.3-0.3,0.4-0.5c0.1-0.2,0.3-0.4,0.4-0.6c0.1-0.2,0.2-0.4,0.3-0.6c0.1-0.2,0.2-0.3,0.2-0.5l0,0
				c0-0.1,0.1-0.1,0.1-0.2c0.1,0,0.1-0.1,0.2-0.1l0,0c0.1,0,0.2,0,0.3,0.1c0.1,0.1,0.1,0.2,0.1,0.3l0,0c0,0.1,0,0.1,0,0.2l0,0
				c0,0.1-0.1,0.2-0.2,0.4c-0.1,0.2-0.2,0.4-0.3,0.6c-0.1,0.2-0.3,0.5-0.5,0.7c-0.2,0.2-0.4,0.5-0.6,0.7c-0.2,0.2-0.5,0.4-0.7,0.5
				c-0.3,0.1-0.5,0.2-0.8,0.2l0,0c-0.4,0-0.7-0.1-1-0.3C352.7,16.3,352.5,16,352.3,15.5z M358,8.5L358,8.5c0,0.3-0.1,0.5-0.3,0.7
				c-0.2,0.2-0.4,0.3-0.7,0.3l0,0c-0.3,0-0.5-0.1-0.7-0.3c-0.2-0.2-0.3-0.4-0.3-0.7l0,0c0-0.1,0-0.3,0.1-0.4c0-0.1,0.1-0.2,0.2-0.3
				c0.1-0.1,0.2-0.2,0.3-0.2c0.1,0,0.2-0.1,0.4-0.1l0,0c0.1,0,0.3,0,0.4,0.1c0.1,0,0.2,0.1,0.3,0.2c0.1,0.1,0.2,0.2,0.2,0.3
				C358,8.3,358,8.4,358,8.5z M356.4,14.6L356.4,14.6c0-1,0.1-2,0.2-3l0,0c0-0.1,0.1-0.2,0.1-0.3c0.1-0.1,0.2-0.1,0.3-0.1l0,0
				c0.1,0,0.2,0,0.3,0.1c0.1,0.1,0.1,0.2,0.1,0.3l0,0c0,0,0,0.2,0,0.4c0,0.2,0,0.5-0.1,0.7c0,0.3,0,0.6-0.1,0.9c0,0.3,0,0.6,0,0.9
				l0,0c0,0.4,0,0.7,0.1,0.9c0.1,0.2,0.2,0.4,0.3,0.5s0.2,0.2,0.4,0.3c0.1,0,0.3,0.1,0.4,0.1l0,0c0.2,0,0.4-0.1,0.6-0.2
				c0.2-0.1,0.4-0.3,0.6-0.6c0.2-0.2,0.4-0.5,0.7-0.9c0.2-0.3,0.4-0.7,0.7-1.2l0,0c0-0.1,0.1-0.1,0.1-0.2c0.1,0,0.1-0.1,0.2-0.1l0,0
				c0.1,0,0.2,0,0.3,0.1c0.1,0.1,0.1,0.2,0.1,0.3l0,0c0,0.1,0,0.1,0,0.2l0,0c-0.1,0.2-0.2,0.4-0.3,0.6c-0.1,0.2-0.3,0.5-0.4,0.7
				c-0.2,0.2-0.3,0.5-0.5,0.7c-0.2,0.2-0.4,0.5-0.6,0.6c-0.2,0.2-0.4,0.3-0.7,0.5c-0.2,0.1-0.5,0.2-0.7,0.2l0,0
				c-0.3,0-0.6-0.1-0.8-0.2c-0.2-0.1-0.4-0.3-0.6-0.5c-0.2-0.2-0.3-0.5-0.4-0.8C356.4,15.3,356.4,15,356.4,14.6z M357.5,8.5
				L357.5,8.5c0-0.1,0-0.2-0.1-0.3c-0.1-0.1-0.2-0.1-0.3-0.1l0,0c-0.1,0-0.2,0-0.3,0.1c-0.1,0.1-0.1,0.2-0.1,0.3l0,0
				c0,0.1,0,0.2,0.1,0.3c0.1,0.1,0.2,0.1,0.3,0.1l0,0c0.1,0,0.2,0,0.3-0.1C357.4,8.7,357.5,8.6,357.5,8.5z M369.3,6.3L369.3,6.3
				c0,0.1,0,0.2-0.1,0.3c-0.1,0.1-0.2,0.1-0.3,0.1l0,0h-5.3v0.1c0,0.4,0,0.9-0.1,1.4c-0.1,0.5-0.1,1-0.3,1.4
				c-0.1,0.5-0.2,0.9-0.4,1.4s-0.3,0.9-0.4,1.2c-0.1,0.4-0.3,0.7-0.4,1c-0.1,0.3-0.3,0.5-0.4,0.6l0,0c0.1,0.3,0.2,0.6,0.3,0.9
				c0.1,0.3,0.3,0.5,0.4,0.7c0.2,0.2,0.3,0.4,0.5,0.5c0.2,0.1,0.4,0.2,0.6,0.2l0,0c0.2,0,0.5-0.1,0.7-0.3c0.2-0.2,0.5-0.4,0.7-0.7
				c0.2-0.3,0.4-0.6,0.5-0.9c0.2-0.3,0.3-0.5,0.3-0.7l0,0c0.1-0.2,0.2-0.2,0.4-0.2l0,0c0.1,0,0.2,0,0.3,0.1c0.1,0.1,0.1,0.2,0.1,0.3
				l0,0c0,0,0,0.1,0,0.1l0,0c0,0-0.1,0.2-0.2,0.3c-0.1,0.2-0.2,0.4-0.3,0.6c-0.1,0.2-0.3,0.5-0.4,0.7c-0.2,0.3-0.4,0.5-0.6,0.7
				c-0.2,0.2-0.4,0.4-0.7,0.5c-0.2,0.1-0.5,0.2-0.8,0.2l0,0c-0.5,0-0.9-0.2-1.3-0.5c-0.4-0.3-0.7-0.8-1-1.3c-0.3-0.6-0.5-1.2-0.6-2
				c-0.1-0.8-0.2-1.6-0.2-2.5l0,0c0-0.2,0-0.5,0-0.8c0-0.3,0-0.6,0-1c0-0.3,0-0.7,0.1-1.1c0-0.4,0.1-0.7,0.2-1.1l0,0H357
				c-0.1,0-0.2,0-0.3-0.1c-0.1-0.1-0.1-0.2-0.1-0.3l0,0c0-0.1,0-0.2,0.1-0.3c0.1-0.1,0.2-0.1,0.3-0.1l0,0h3.9
				c0.1-0.3,0.1-0.5,0.2-0.7c0.1-0.2,0.2-0.4,0.3-0.5c0.1-0.2,0.3-0.3,0.4-0.4c0.1-0.1,0.3-0.1,0.5-0.1l0,0c0.2,0,0.3,0,0.5,0.1
				c0.1,0.1,0.2,0.2,0.3,0.4c0.1,0.2,0.2,0.3,0.2,0.5c0,0.2,0.1,0.4,0.1,0.7l0,0h5.3c0.1,0,0.2,0,0.3,0.1
				C369.2,6.1,369.3,6.2,369.3,6.3z M361.4,12.8L361.4,12.8c0.2-0.5,0.4-1,0.6-1.5c0.2-0.5,0.3-1.1,0.4-1.6c0.1-0.5,0.2-1.1,0.3-1.6
				c0.1-0.5,0.1-1,0.1-1.4l0,0h-1.2c-0.1,0.4-0.2,1-0.2,1.6c-0.1,0.6-0.1,1.4-0.1,2.3l0,0c0,0.5,0,0.9,0,1.3
				C361.3,12.2,361.4,12.5,361.4,12.8z M362.4,5L362.4,5c-0.1,0-0.2,0.1-0.3,0.2c-0.1,0.1-0.2,0.4-0.4,0.7l0,0h1
				c0-0.3-0.1-0.5-0.2-0.7C362.5,5.1,362.5,5,362.4,5z M361.6,13.5L361.6,13.5L361.6,13.5z M373.9,13.8L373.9,13.8
				c0,0.1-0.1,0.2-0.2,0.4c-0.1,0.2-0.2,0.4-0.3,0.6c-0.1,0.2-0.3,0.5-0.5,0.7c-0.2,0.2-0.4,0.5-0.6,0.7c-0.2,0.2-0.5,0.4-0.7,0.5
				c-0.3,0.1-0.5,0.2-0.8,0.2l0,0c-0.4,0-0.7-0.1-1-0.4c-0.3-0.3-0.5-0.6-0.6-1l0,0c-0.2,0.4-0.5,0.7-0.8,0.9
				c-0.3,0.2-0.7,0.3-1,0.3l0,0c-0.3,0-0.5,0-0.7-0.1c-0.2-0.1-0.4-0.2-0.5-0.4s-0.3-0.4-0.3-0.6c-0.1-0.2-0.1-0.5-0.1-0.8l0,0
				c0-0.5,0.1-1,0.3-1.4c0.2-0.4,0.4-0.8,0.7-1s0.6-0.5,0.9-0.6c0.3-0.1,0.7-0.2,1-0.2l0,0c0.2,0,0.4,0,0.6,0.1
				c0.2,0.1,0.3,0.1,0.5,0.2c0.1,0.1,0.2,0.1,0.3,0.2c0.1,0.1,0.1,0.1,0.1,0.1l0,0c0.1,0.1,0.1,0.2,0.1,0.3l0,0c0,0.1,0,0.2-0.1,0.3
				c-0.1,0.1-0.2,0.1-0.3,0.1l0,0c-0.1,0-0.2,0-0.3-0.1l0,0c0,0,0,0-0.1-0.1c0,0-0.1-0.1-0.2-0.1c-0.1,0-0.2-0.1-0.3-0.1
				c-0.1,0-0.2,0-0.4,0l0,0c-0.2,0-0.4,0-0.7,0.1c-0.2,0.1-0.5,0.2-0.7,0.5c-0.2,0.2-0.4,0.5-0.5,0.8s-0.2,0.7-0.2,1.1l0,0
				c0,0.1,0,0.3,0,0.4c0,0.1,0.1,0.3,0.1,0.4c0.1,0.1,0.2,0.2,0.3,0.3c0.1,0.1,0.3,0.1,0.4,0.1l0,0c0.1,0,0.3,0,0.4-0.1
				c0.2-0.1,0.3-0.2,0.5-0.4c0.1-0.2,0.3-0.4,0.4-0.7c0.1-0.3,0.2-0.6,0.3-0.9l0,0c0-0.1,0.1-0.2,0.1-0.2c0.1-0.1,0.2-0.1,0.3-0.1
				l0,0c0.1,0,0.2,0,0.3,0.1c0.1,0.1,0.1,0.2,0.1,0.3l0,0c0,0.1,0,0.3,0,0.6c0,0.2,0.1,0.5,0.1,0.7c0.1,0.2,0.2,0.4,0.3,0.6
				c0.1,0.2,0.3,0.3,0.6,0.3l0,0c0.2,0,0.3,0,0.5-0.1c0.2-0.1,0.3-0.2,0.5-0.4c0.2-0.1,0.3-0.3,0.4-0.5c0.1-0.2,0.3-0.4,0.4-0.6
				c0.1-0.2,0.2-0.4,0.3-0.6c0.1-0.2,0.2-0.3,0.2-0.5l0,0c0-0.1,0.1-0.1,0.1-0.2c0.1,0,0.1-0.1,0.2-0.1l0,0c0.1,0,0.2,0,0.3,0.1
				c0.1,0.1,0.1,0.2,0.1,0.3l0,0C373.9,13.7,373.9,13.7,373.9,13.8z M374.2,12.4L374.2,12.4c0,0.2-0.1,0.4-0.1,0.5
				c0,0.2-0.1,0.3-0.1,0.4c0,0.1-0.1,0.2-0.1,0.3c0,0.1,0,0.1,0,0.1l0,0c-0.1,0.2-0.2,0.2-0.4,0.2l0,0c-0.1,0-0.2,0-0.3-0.1
				c-0.1-0.1-0.1-0.2-0.1-0.3l0,0c0,0,0-0.1,0-0.1c0,0,0-0.1,0.1-0.1c0-0.1,0.1-0.2,0.1-0.3c0-0.1,0.1-0.4,0.2-0.7l0,0
				c-0.1,0-0.2,0-0.4,0s-0.2,0-0.3-0.1c-0.1,0-0.2-0.1-0.3-0.2c-0.1-0.1-0.1-0.2-0.1-0.4l0,0c0-0.1,0-0.3,0.1-0.5
				c0.1-0.2,0.2-0.4,0.3-0.6c0.1-0.2,0.2-0.4,0.4-0.5c0.1-0.1,0.3-0.2,0.4-0.2l0,0c0.2,0,0.3,0.1,0.4,0.2c0.1,0.1,0.2,0.3,0.2,0.4
				c0.1,0.2,0.1,0.4,0.1,0.5c0,0.2,0,0.4,0,0.5l0,0c0.1,0,0.2,0,0.3,0c0.1,0,0.2,0,0.3,0l0,0c0.4,0,0.7,0.1,0.9,0.3
				c0.2,0.2,0.3,0.5,0.3,0.9l0,0c0,0.2,0,0.3,0,0.5c0,0.2,0,0.3-0.1,0.5c0,0.2-0.1,0.4-0.1,0.5c0,0.2,0,0.4,0,0.5l0,0
				c0,0.3,0,0.5,0.1,0.6c0.1,0.2,0.2,0.3,0.3,0.4c0.1,0.1,0.2,0.2,0.3,0.2c0.1,0,0.2,0.1,0.3,0.1l0,0c0.3,0,0.6-0.1,0.8-0.3
				c0.3-0.2,0.5-0.4,0.7-0.7c0.2-0.3,0.4-0.6,0.6-0.9c0.2-0.3,0.3-0.6,0.4-0.8l0,0c0-0.1,0.1-0.1,0.1-0.1c0.1,0,0.1,0,0.2,0l0,0
				c0.1,0,0.2,0,0.3,0.1c0.1,0.1,0.1,0.2,0.1,0.3l0,0c0,0.1,0,0.1,0,0.2l0,0c-0.2,0.3-0.3,0.6-0.6,1c-0.2,0.4-0.5,0.7-0.7,1
				s-0.6,0.6-0.9,0.8c-0.3,0.2-0.7,0.3-1.1,0.3l0,0c-0.2,0-0.5,0-0.7-0.1c-0.2-0.1-0.4-0.2-0.6-0.4c-0.2-0.2-0.3-0.4-0.4-0.7
				c-0.1-0.3-0.1-0.6-0.1-0.9l0,0c0-0.3,0-0.7,0.1-1c0.1-0.3,0.1-0.7,0.1-1l0,0c0-0.1,0-0.2-0.1-0.3c-0.1-0.1-0.2-0.1-0.4-0.1l0,0
				c-0.1,0-0.2,0-0.3,0C374.5,12.4,374.4,12.4,374.2,12.4z M373.1,11.7h0.5c0,0,0-0.1,0-0.2c0-0.1,0-0.2,0-0.2c0-0.1,0-0.1,0-0.2
				c0-0.1,0-0.1-0.1-0.1l0,0c0,0,0,0-0.1,0.1c0,0-0.1,0.1-0.1,0.2c0,0.1-0.1,0.1-0.1,0.2C373.1,11.5,373.1,11.6,373.1,11.7
				L373.1,11.7z"/>
		</g>
	</g>
</g>
</svg>
