<?xml version="1.0" encoding="utf-8"?>
<!-- Generator: Adobe Illustrator 24.2.1, SVG Export Plug-In . SVG Version: 6.00 Build 0)  -->
<svg version="1.1" id="Layer_1" xmlns="http://www.w3.org/2000/svg" xmlns:xlink="http://www.w3.org/1999/xlink" x="0px" y="0px"
	 viewBox="0 0 380.4 61.3" style="enable-background:new 0 0 380.4 61.3;" xml:space="preserve">
<style type="text/css">
	.st0{fill:#EFEDE1;}
</style>
<g>
	<g transform="rotate(0 16.657 44)">
		<g transform="matrix(1 0 0 1 0 0)">
			<path class="st0" d="M18.5,56H26v1.6h-9.3V44.8h9.1v1.6h-7.2v4H25v1.6h-6.5V56z M37.3,47.9H39l-4.3,9.7H33l-4.3-9.7h1.8l3.3,7.8
				L37.3,47.9z M51.1,52.8c0,0.1,0,0.3,0,0.5l0,0h-7.9c0.1,0.9,0.5,1.5,1.1,2.1s1.4,0.8,2.4,0.8l0,0c1.2,0,2.1-0.4,2.8-1.2l0,0
				l1,1.1c-0.4,0.5-1,0.9-1.6,1.2c-0.7,0.3-1.4,0.4-2.2,0.4l0,0c-1,0-1.9-0.2-2.7-0.6c-0.8-0.4-1.4-1-1.8-1.8
				c-0.4-0.8-0.7-1.6-0.7-2.6l0,0c0-0.9,0.2-1.8,0.6-2.6c0.4-0.8,1-1.4,1.7-1.8c0.7-0.4,1.6-0.6,2.5-0.6l0,0c0.9,0,1.8,0.2,2.5,0.6
				s1.3,1,1.7,1.8C50.8,51,51.1,51.8,51.1,52.8L51.1,52.8z M46.2,49.3c-0.8,0-1.6,0.3-2.1,0.8c-0.6,0.5-0.9,1.2-1,2l0,0h6.3
				c-0.1-0.8-0.4-1.5-1-2C47.8,49.6,47.1,49.3,46.2,49.3L46.2,49.3z M57,49.5c0.3-0.6,0.8-1,1.4-1.3c0.6-0.3,1.3-0.4,2.2-0.4l0,0
				v1.7c-0.1,0-0.2,0-0.4,0l0,0c-1,0-1.7,0.3-2.3,0.9c-0.5,0.6-0.8,1.4-0.8,2.4l0,0v4.9h-1.8v-9.7H57V49.5z M71.9,47.9h1.7
				l-4.7,10.7c-0.4,1-0.9,1.7-1.5,2.1c-0.6,0.4-1.2,0.6-2,0.6l0,0c-0.5,0-0.9-0.1-1.4-0.2s-0.8-0.4-1.1-0.7l0,0l0.8-1.3
				c0.5,0.5,1.1,0.7,1.7,0.7l0,0c0.4,0,0.8-0.1,1.1-0.3c0.3-0.2,0.5-0.6,0.8-1.2l0,0l0.3-0.7l-4.3-9.7h1.8l3.4,7.8L71.9,47.9z
				 M86.7,57.6V46.4h-4.4v-1.6H93v1.6h-4.4v11.3H86.7z M99.7,57.8c-1,0-1.8-0.2-2.6-0.6c-0.8-0.4-1.4-1-1.8-1.8
				c-0.4-0.8-0.7-1.6-0.7-2.6l0,0c0-1,0.2-1.8,0.7-2.6c0.4-0.8,1-1.3,1.8-1.8c0.8-0.4,1.6-0.6,2.6-0.6l0,0c1,0,1.8,0.2,2.6,0.6
				c0.8,0.4,1.4,1,1.8,1.8s0.7,1.6,0.7,2.6l0,0c0,1-0.2,1.8-0.7,2.6s-1,1.3-1.8,1.8C101.5,57.5,100.7,57.8,99.7,57.8L99.7,57.8z
				 M99.7,56.2c0.6,0,1.2-0.1,1.7-0.4c0.5-0.3,0.9-0.7,1.2-1.2c0.3-0.5,0.4-1.1,0.4-1.8l0,0c0-0.7-0.1-1.3-0.4-1.8
				c-0.3-0.5-0.7-0.9-1.2-1.2c-0.5-0.3-1.1-0.4-1.7-0.4l0,0c-0.6,0-1.2,0.1-1.7,0.4c-0.5,0.3-0.9,0.7-1.2,1.2s-0.4,1.1-0.4,1.8l0,0
				c0,0.7,0.1,1.3,0.4,1.8c0.3,0.5,0.7,0.9,1.2,1.2C98.5,56.1,99.1,56.2,99.7,56.2L99.7,56.2z M113.2,57.8c-1,0-1.8-0.2-2.6-0.6
				c-0.8-0.4-1.4-1-1.8-1.8c-0.4-0.8-0.7-1.6-0.7-2.6l0,0c0-1,0.2-1.8,0.7-2.6c0.4-0.8,1-1.3,1.8-1.8c0.8-0.4,1.6-0.6,2.6-0.6l0,0
				c1,0,1.8,0.2,2.6,0.6c0.8,0.4,1.4,1,1.8,1.8s0.7,1.6,0.7,2.6l0,0c0,1-0.2,1.8-0.7,2.6s-1,1.3-1.8,1.8
				C115.1,57.5,114.2,57.8,113.2,57.8L113.2,57.8z M113.2,56.2c0.6,0,1.2-0.1,1.7-0.4c0.5-0.3,0.9-0.7,1.2-1.2
				c0.3-0.5,0.4-1.1,0.4-1.8l0,0c0-0.7-0.1-1.3-0.4-1.8c-0.3-0.5-0.7-0.9-1.2-1.2c-0.5-0.3-1.1-0.4-1.7-0.4l0,0
				c-0.6,0-1.2,0.1-1.7,0.4c-0.5,0.3-0.9,0.7-1.2,1.2c-0.3,0.5-0.4,1.1-0.4,1.8l0,0c0,0.7,0.1,1.3,0.4,1.8c0.3,0.5,0.7,0.9,1.2,1.2
				C112,56.1,112.6,56.2,113.2,56.2L113.2,56.2z M122.6,57.6V44h1.8v13.6H122.6z M134.7,47.8c0.9,0,1.8,0.2,2.5,0.6
				c0.7,0.4,1.3,1,1.8,1.7c0.4,0.7,0.6,1.6,0.6,2.6l0,0c0,1-0.2,1.8-0.6,2.6c-0.4,0.8-1,1.3-1.8,1.8c-0.7,0.4-1.6,0.6-2.5,0.6l0,0
				c-0.7,0-1.4-0.1-2-0.4c-0.6-0.3-1.1-0.7-1.5-1.2l0,0v1.5h-1.7V44h1.8v5.4c0.4-0.5,0.9-0.9,1.5-1.2
				C133.4,47.9,134,47.8,134.7,47.8L134.7,47.8z M134.6,56.2c0.6,0,1.2-0.1,1.7-0.4c0.5-0.3,0.9-0.7,1.2-1.2
				c0.3-0.5,0.4-1.1,0.4-1.8l0,0c0-0.7-0.1-1.3-0.4-1.8s-0.7-0.9-1.2-1.2c-0.5-0.3-1.1-0.4-1.7-0.4l0,0c-0.6,0-1.2,0.1-1.7,0.4
				c-0.5,0.3-0.9,0.7-1.2,1.2c-0.3,0.5-0.4,1.1-0.4,1.8l0,0c0,0.7,0.1,1.3,0.4,1.8c0.3,0.5,0.7,0.9,1.2,1.2
				C133.4,56.1,133.9,56.2,134.6,56.2L134.6,56.2z M148.1,57.8c-1,0-1.8-0.2-2.6-0.6c-0.8-0.4-1.4-1-1.8-1.8
				c-0.4-0.8-0.7-1.6-0.7-2.6l0,0c0-1,0.2-1.8,0.7-2.6c0.4-0.8,1-1.3,1.8-1.8c0.8-0.4,1.6-0.6,2.6-0.6l0,0c1,0,1.8,0.2,2.6,0.6
				s1.4,1,1.8,1.8s0.7,1.6,0.7,2.6l0,0c0,1-0.2,1.8-0.7,2.6s-1,1.3-1.8,1.8C149.9,57.5,149.1,57.8,148.1,57.8L148.1,57.8z
				 M148.1,56.2c0.6,0,1.2-0.1,1.7-0.4c0.5-0.3,0.9-0.7,1.2-1.2c0.3-0.5,0.4-1.1,0.4-1.8l0,0c0-0.7-0.1-1.3-0.4-1.8
				c-0.3-0.5-0.7-0.9-1.2-1.2c-0.5-0.3-1.1-0.4-1.7-0.4l0,0c-0.6,0-1.2,0.1-1.7,0.4c-0.5,0.3-0.9,0.7-1.2,1.2s-0.4,1.1-0.4,1.8l0,0
				c0,0.7,0.1,1.3,0.4,1.8c0.3,0.5,0.7,0.9,1.2,1.2C146.9,56.1,147.5,56.2,148.1,56.2L148.1,56.2z M165.3,57.6h-2l-2.8-3.7l-2.9,3.7
				h-2l3.8-5l-3.7-4.8h2l2.7,3.5l2.7-3.5h1.9l-3.7,4.8L165.3,57.6z M185.4,44.8h1.8v12.9h-1.5L178,48v9.6h-1.8V44.8h1.5l7.7,9.6
				V44.8z M201.5,52.8c0,0.1,0,0.3,0,0.5l0,0h-7.9c0.1,0.9,0.5,1.5,1.1,2.1s1.4,0.8,2.4,0.8l0,0c1.2,0,2.1-0.4,2.8-1.2l0,0l1,1.1
				c-0.4,0.5-1,0.9-1.6,1.2c-0.7,0.3-1.4,0.4-2.2,0.4l0,0c-1,0-1.9-0.2-2.7-0.6c-0.8-0.4-1.4-1-1.8-1.8c-0.4-0.8-0.7-1.6-0.7-2.6
				l0,0c0-0.9,0.2-1.8,0.6-2.6c0.4-0.8,1-1.4,1.7-1.8s1.6-0.6,2.5-0.6l0,0c0.9,0,1.8,0.2,2.5,0.6c0.7,0.4,1.3,1,1.7,1.8
				C201.3,51,201.5,51.8,201.5,52.8L201.5,52.8z M196.7,49.3c-0.8,0-1.6,0.3-2.1,0.8c-0.6,0.5-0.9,1.2-1,2l0,0h6.3
				c-0.1-0.8-0.4-1.5-1-2C198.2,49.6,197.5,49.3,196.7,49.3L196.7,49.3z M214.6,52.8c0,0.1,0,0.3,0,0.5l0,0h-7.9
				c0.1,0.9,0.5,1.5,1.1,2.1c0.6,0.5,1.4,0.8,2.4,0.8l0,0c1.2,0,2.1-0.4,2.8-1.2l0,0l1,1.1c-0.4,0.5-1,0.9-1.6,1.2
				c-0.7,0.3-1.4,0.4-2.2,0.4l0,0c-1,0-1.9-0.2-2.7-0.6c-0.8-0.4-1.4-1-1.8-1.8c-0.4-0.8-0.7-1.6-0.7-2.6l0,0c0-0.9,0.2-1.8,0.6-2.6
				c0.4-0.8,1-1.4,1.7-1.8c0.7-0.4,1.6-0.6,2.5-0.6l0,0c0.9,0,1.8,0.2,2.5,0.6c0.7,0.4,1.3,1,1.7,1.8
				C214.4,51,214.6,51.8,214.6,52.8L214.6,52.8z M209.7,49.3c-0.8,0-1.6,0.3-2.1,0.8c-0.6,0.5-0.9,1.2-1,2l0,0h6.3
				c-0.1-0.8-0.4-1.5-1-2C211.3,49.6,210.6,49.3,209.7,49.3L209.7,49.3z M226.3,44h1.8v13.6h-1.7v-1.5c-0.4,0.5-0.9,1-1.5,1.2
				c-0.6,0.3-1.3,0.4-2,0.4l0,0c-0.9,0-1.8-0.2-2.5-0.6c-0.7-0.4-1.3-1-1.8-1.8c-0.4-0.8-0.6-1.6-0.6-2.6l0,0c0-1,0.2-1.8,0.6-2.6
				c0.4-0.7,1-1.3,1.8-1.7c0.7-0.4,1.6-0.6,2.5-0.6l0,0c0.7,0,1.3,0.1,1.9,0.4c0.6,0.3,1.1,0.7,1.5,1.2l0,0V44z M223,56.2
				c0.6,0,1.2-0.1,1.7-0.4c0.5-0.3,0.9-0.7,1.2-1.2c0.3-0.5,0.4-1.1,0.4-1.8l0,0c0-0.7-0.1-1.3-0.4-1.8c-0.3-0.5-0.7-0.9-1.2-1.2
				c-0.5-0.3-1.1-0.4-1.7-0.4l0,0c-0.6,0-1.2,0.1-1.7,0.4c-0.5,0.3-0.9,0.7-1.2,1.2c-0.3,0.5-0.4,1.1-0.4,1.8l0,0
				c0,0.7,0.1,1.3,0.4,1.8c0.3,0.5,0.7,0.9,1.2,1.2C221.8,56.1,222.4,56.2,223,56.2L223,56.2z M236,57.8c-0.8,0-1.6-0.1-2.3-0.3
				c-0.7-0.2-1.3-0.5-1.7-0.8l0,0l0.7-1.4c0.4,0.3,1,0.6,1.6,0.7c0.6,0.2,1.2,0.3,1.9,0.3l0,0c1.5,0,2.3-0.4,2.3-1.3l0,0
				c0-0.3-0.1-0.5-0.3-0.7c-0.2-0.2-0.5-0.3-0.8-0.4c-0.3-0.1-0.8-0.2-1.3-0.3l0,0c-0.8-0.1-1.4-0.3-1.9-0.4
				c-0.5-0.2-0.9-0.4-1.3-0.8c-0.4-0.4-0.5-0.9-0.5-1.6l0,0c0-0.9,0.4-1.6,1.1-2.1c0.7-0.5,1.7-0.8,3-0.8l0,0c0.6,0,1.3,0.1,1.9,0.2
				s1.2,0.4,1.6,0.6l0,0l-0.8,1.4c-0.8-0.5-1.7-0.8-2.8-0.8l0,0c-0.7,0-1.3,0.1-1.7,0.4c-0.4,0.2-0.6,0.6-0.6,1l0,0
				c0,0.3,0.1,0.6,0.3,0.8c0.2,0.2,0.5,0.3,0.8,0.4c0.3,0.1,0.8,0.2,1.4,0.3l0,0c0.8,0.1,1.4,0.3,1.9,0.4c0.5,0.2,0.9,0.4,1.2,0.8
				c0.3,0.4,0.5,0.9,0.5,1.5l0,0c0,0.9-0.4,1.6-1.1,2.1C238.4,57.5,237.3,57.8,236,57.8L236,57.8z M254.6,47.8c1.3,0,2.4,0.3,3.1,1
				s1.1,1.6,1.1,3l0,0v5.9h-1.7v-1.3c-0.3,0.5-0.7,0.8-1.3,1c-0.5,0.2-1.2,0.4-1.9,0.4l0,0c-1.1,0-2-0.3-2.6-0.8
				c-0.7-0.5-1-1.2-1-2.1l0,0c0-0.9,0.3-1.5,0.9-2.1c0.6-0.5,1.6-0.8,3-0.8l0,0h2.8v-0.3c0-0.8-0.2-1.3-0.7-1.7
				c-0.4-0.4-1.1-0.6-1.9-0.6l0,0c-0.6,0-1.1,0.1-1.7,0.3c-0.6,0.2-1,0.4-1.4,0.8l0,0l-0.7-1.3c0.5-0.4,1.1-0.7,1.8-0.9
				C253.1,47.9,253.8,47.8,254.6,47.8L254.6,47.8z M254.2,56.4c0.7,0,1.3-0.2,1.7-0.5c0.5-0.3,0.8-0.7,1.1-1.3l0,0v-1.4h-2.7
				c-1.5,0-2.2,0.5-2.2,1.5l0,0c0,0.5,0.2,0.9,0.6,1.2C253,56.3,253.5,56.4,254.2,56.4L254.2,56.4z M280.2,44.8h1.8v12.9h-1.8v-5.7
				h-7.4v5.7H271V44.8h1.8v5.5h7.4V44.8z M291,47.8c1.3,0,2.4,0.3,3.1,1c0.7,0.7,1.1,1.6,1.1,3l0,0v5.9h-1.7v-1.3
				c-0.3,0.5-0.7,0.8-1.3,1s-1.2,0.4-1.9,0.4l0,0c-1.1,0-2-0.3-2.6-0.8c-0.7-0.5-1-1.2-1-2.1l0,0c0-0.9,0.3-1.5,0.9-2.1
				c0.6-0.5,1.6-0.8,3-0.8l0,0h2.8v-0.3c0-0.8-0.2-1.3-0.7-1.7c-0.4-0.4-1.1-0.6-1.9-0.6l0,0c-0.6,0-1.1,0.1-1.7,0.3
				c-0.6,0.2-1,0.4-1.4,0.8l0,0l-0.7-1.3c0.5-0.4,1.1-0.7,1.8-0.9C289.5,47.9,290.2,47.8,291,47.8L291,47.8z M290.6,56.4
				c0.7,0,1.3-0.2,1.7-0.5c0.5-0.3,0.8-0.7,1.1-1.3l0,0v-1.4h-2.7c-1.5,0-2.2,0.5-2.2,1.5l0,0c0,0.5,0.2,0.9,0.6,1.2
				C289.4,56.3,289.9,56.4,290.6,56.4L290.6,56.4z M312.5,47.8c1.2,0,2.2,0.4,2.9,1.1c0.7,0.7,1.1,1.8,1.1,3.2l0,0v5.6h-1.8v-5.4
				c0-0.9-0.2-1.7-0.7-2.1c-0.4-0.5-1.1-0.7-1.9-0.7l0,0c-0.9,0-1.6,0.3-2.1,0.8s-0.8,1.4-0.8,2.4l0,0v5h-1.8v-5.4
				c0-0.9-0.2-1.7-0.7-2.1s-1.1-0.7-1.9-0.7l0,0c-0.9,0-1.6,0.3-2.1,0.8c-0.5,0.6-0.8,1.4-0.8,2.4l0,0v5h-1.8v-9.7h1.7v1.5
				c0.4-0.5,0.8-0.9,1.4-1.1c0.6-0.3,1.2-0.4,2-0.4l0,0c0.8,0,1.4,0.2,2,0.5c0.6,0.3,1,0.8,1.4,1.3l0,0c0.4-0.6,0.9-1,1.5-1.3
				C310.9,48,311.7,47.8,312.5,47.8L312.5,47.8z M333.8,47.8c1.2,0,2.2,0.4,2.9,1.1s1.1,1.8,1.1,3.2l0,0v5.6H336v-5.4
				c0-0.9-0.2-1.7-0.7-2.1s-1.1-0.7-1.9-0.7l0,0c-0.9,0-1.6,0.3-2.1,0.8c-0.5,0.6-0.8,1.4-0.8,2.4l0,0v5h-1.8v-5.4
				c0-0.9-0.2-1.7-0.7-2.1s-1.1-0.7-1.9-0.7l0,0c-0.9,0-1.6,0.3-2.1,0.8c-0.5,0.6-0.8,1.4-0.8,2.4l0,0v5h-1.8v-9.7h1.7v1.5
				c0.4-0.5,0.8-0.9,1.4-1.1c0.6-0.3,1.2-0.4,2-0.4l0,0c0.8,0,1.4,0.2,2,0.5c0.6,0.3,1,0.8,1.4,1.3l0,0c0.4-0.6,0.9-1,1.5-1.3
				C332.2,48,333,47.8,333.8,47.8L333.8,47.8z M351.7,52.8c0,0.1,0,0.3,0,0.5l0,0h-7.9c0.1,0.9,0.5,1.5,1.1,2.1
				c0.6,0.5,1.4,0.8,2.4,0.8l0,0c1.2,0,2.1-0.4,2.8-1.2l0,0l1,1.1c-0.4,0.5-1,0.9-1.6,1.2c-0.7,0.3-1.4,0.4-2.2,0.4l0,0
				c-1,0-1.9-0.2-2.7-0.6c-0.8-0.4-1.4-1-1.8-1.8c-0.4-0.8-0.7-1.6-0.7-2.6l0,0c0-0.9,0.2-1.8,0.6-2.6c0.4-0.8,1-1.4,1.7-1.8
				c0.7-0.4,1.6-0.6,2.5-0.6l0,0c0.9,0,1.8,0.2,2.5,0.6c0.7,0.4,1.3,1,1.7,1.8C351.5,51,351.7,51.8,351.7,52.8L351.7,52.8z
				 M346.9,49.3c-0.8,0-1.6,0.3-2.1,0.8s-0.9,1.2-1,2l0,0h6.3c-0.1-0.8-0.4-1.5-1-2C348.5,49.6,347.8,49.3,346.9,49.3L346.9,49.3z
				 M357.7,49.5c0.3-0.6,0.8-1,1.4-1.3c0.6-0.3,1.3-0.4,2.2-0.4l0,0v1.7c-0.1,0-0.2,0-0.4,0l0,0c-1,0-1.7,0.3-2.3,0.9
				c-0.5,0.6-0.8,1.4-0.8,2.4l0,0v4.9H356v-9.7h1.7V49.5z"/>
		</g>
	</g>
	<g transform="rotate(0 0 0)">
		<g transform="matrix(1 0 0 1 0 0)">
			<path class="st0" d="M17.9,5.8L17.9,5.8c0,0.1-0.1,0.2-0.1,0.2c-0.1,0.1-0.1,0.1-0.2,0.1l0,0c-0.1,0-0.2,0-0.3-0.1
				c-0.1-0.1-0.1-0.2-0.1-0.3l0,0c0-0.1,0-0.2,0-0.3c0-0.1,0-0.2,0-0.3l0,0c0-0.5-0.2-1-0.5-1.4c-0.3-0.4-0.8-0.7-1.3-1
				c-0.6-0.3-1.3-0.5-2.1-0.6c-0.8-0.1-1.7-0.2-2.7-0.2l0,0C9.7,1.8,9,1.9,8.2,2C7.4,2.1,6.7,2.2,5.9,2.4c-0.7,0.2-1.4,0.4-2,0.7
				c-0.6,0.3-1.2,0.6-1.6,1C1.8,4.5,1.5,5,1.2,5.4c-0.3,0.5-0.4,1-0.4,1.5l0,0c0,0.4,0.1,0.8,0.3,1.1c0.2,0.3,0.4,0.6,0.8,0.8
				C2.2,9.1,2.5,9.3,3,9.5c0.4,0.2,0.9,0.3,1.4,0.4c0.5,0.1,1,0.2,1.6,0.3c0.5,0.1,1.1,0.1,1.7,0.2l0,0l1.6,0.1
				c0.8,0.1,1.5,0.1,2.1,0.2c0.6,0.1,1.2,0.2,1.7,0.3l0,0c0.8,0.2,1.4,0.5,1.8,0.9c0.4,0.4,0.6,0.9,0.6,1.5l0,0
				c0,0.6-0.2,1.1-0.5,1.6c-0.3,0.5-0.8,0.8-1.4,1.2c-0.6,0.3-1.3,0.5-2,0.7C10.7,17,9.9,17.1,9,17.1l0,0c-1,0-1.8-0.1-2.5-0.2
				c-0.7-0.1-1.3-0.3-1.8-0.4c-0.5-0.2-0.9-0.3-1.1-0.4c-0.3-0.1-0.4-0.2-0.4-0.2l0,0c-0.1-0.1-0.2-0.2-0.2-0.3l0,0
				c0-0.1,0-0.2,0.1-0.3c0.1-0.1,0.2-0.1,0.3-0.1l0,0c0.1,0,0.1,0,0.2,0.1l0,0c0,0,0.1,0.1,0.4,0.2c0.2,0.1,0.6,0.3,1,0.4
				c0.5,0.1,1,0.3,1.7,0.4c0.7,0.1,1.5,0.2,2.4,0.2l0,0c0.9,0,1.7-0.1,2.4-0.2c0.7-0.1,1.3-0.4,1.7-0.6c0.5-0.3,0.8-0.6,1.1-0.9
				c0.2-0.4,0.4-0.7,0.4-1.1l0,0c0-0.2,0-0.5-0.1-0.6c-0.1-0.2-0.2-0.3-0.4-0.5c-0.2-0.1-0.3-0.2-0.5-0.3c-0.2-0.1-0.4-0.2-0.7-0.2
				l0,0c-0.3-0.1-0.6-0.1-0.9-0.2c-0.3,0-0.6-0.1-0.9-0.1c-0.3,0-0.6-0.1-1-0.1s-0.6-0.1-1-0.1l0,0l-1.6-0.1
				c-1.3-0.1-2.4-0.3-3.3-0.5c-0.9-0.2-1.7-0.5-2.3-0.8C1.3,9.5,0.8,9.1,0.5,8.6C0.2,8.1,0,7.6,0,6.9l0,0c0-0.7,0.1-1.3,0.4-1.8
				s0.7-1,1.2-1.5c0.5-0.4,1.1-0.8,1.8-1.1c0.7-0.3,1.4-0.6,2.2-0.8c0.8-0.2,1.6-0.4,2.4-0.5c0.8-0.1,1.7-0.2,2.5-0.2l0,0
				c1,0,1.9,0.1,2.6,0.2c0.7,0.1,1.4,0.3,1.9,0.5c0.5,0.2,1,0.4,1.3,0.7c0.3,0.2,0.6,0.5,0.8,0.7l0,0c0.5,0.6,0.7,1.2,0.7,2l0,0
				C17.9,5.3,17.9,5.5,17.9,5.8z M24.4,13.8L24.4,13.8c-0.1,0.2-0.2,0.3-0.3,0.6c-0.1,0.2-0.2,0.4-0.4,0.7c-0.1,0.2-0.3,0.5-0.5,0.7
				c-0.2,0.2-0.4,0.4-0.6,0.6c-0.2,0.2-0.4,0.3-0.7,0.4C21.7,17,21.4,17,21.2,17l0,0c-0.4,0-0.8-0.1-1.1-0.4c-0.3-0.3-0.6-0.6-0.8-1
				c-0.2-0.4-0.4-0.9-0.5-1.4c-0.1-0.5-0.2-1.1-0.3-1.6c-0.1-0.6-0.1-1.1-0.1-1.6c0-0.5,0-1,0-1.4l0,0c0-0.6,0-1.2,0.1-1.8
				c0-0.6,0.1-1.2,0.2-1.8c0.1-0.6,0.2-1.2,0.3-1.7c0.1-0.5,0.3-1,0.5-1.4c0.2-0.4,0.4-0.7,0.6-1c0.2-0.2,0.5-0.4,0.8-0.4l0,0
				c0.2,0,0.4,0.1,0.6,0.2c0.2,0.1,0.3,0.3,0.5,0.5c0.1,0.2,0.2,0.6,0.3,0.9c0.1,0.4,0.1,0.9,0.1,1.4l0,0c0,0.7-0.1,1.4-0.2,2.2
				c-0.1,0.7-0.3,1.5-0.6,2.2c-0.2,0.8-0.5,1.5-0.9,2.2c-0.3,0.7-0.7,1.5-1.1,2.2l0,0c0.2,0.9,0.4,1.6,0.7,2.1
				c0.3,0.5,0.6,0.8,1.1,0.8l0,0c0.3,0,0.5-0.1,0.8-0.3c0.3-0.2,0.5-0.5,0.7-0.8c0.2-0.3,0.4-0.6,0.6-0.9s0.3-0.6,0.4-0.7l0,0
				c0-0.1,0.1-0.1,0.1-0.2c0.1,0,0.1-0.1,0.2-0.1l0,0c0.1,0,0.2,0,0.3,0.1c0.1,0.1,0.1,0.2,0.1,0.3l0,0
				C24.4,13.7,24.4,13.7,24.4,13.8z M19.1,9.6L19.1,9.6c0,0.4,0,0.9,0,1.3c0,0.4,0,0.8,0.1,1.2l0,0c0.3-0.6,0.6-1.2,0.8-1.8
				c0.3-0.6,0.5-1.3,0.7-1.9c0.2-0.7,0.4-1.3,0.5-1.9c0.1-0.6,0.2-1.3,0.2-1.8l0,0c0-0.8-0.1-1.4-0.2-1.8c-0.1-0.4-0.3-0.5-0.5-0.5
				l0,0c-0.1,0-0.3,0.1-0.4,0.3c-0.1,0.2-0.3,0.5-0.4,0.8c-0.1,0.3-0.2,0.8-0.3,1.2c-0.1,0.5-0.2,1-0.2,1.5
				c-0.1,0.5-0.1,1.1-0.2,1.7C19.2,8.5,19.1,9,19.1,9.6z M28.5,15.6L28.5,15.6c-0.2,0-0.3,0-0.5,0l0,0c-0.1,0.2-0.2,0.4-0.4,0.6
				c-0.1,0.2-0.3,0.3-0.5,0.5c-0.2,0.1-0.4,0.2-0.6,0.3C26.2,16.9,26,17,25.7,17l0,0c-0.3,0-0.6-0.1-0.9-0.2
				c-0.3-0.1-0.5-0.3-0.7-0.5c-0.2-0.2-0.4-0.5-0.5-0.7c-0.1-0.3-0.2-0.6-0.2-1l0,0c0-0.4,0.1-0.8,0.2-1.2c0.2-0.3,0.3-0.6,0.5-0.8
				c0.2-0.2,0.4-0.4,0.6-0.5c0.2-0.1,0.4-0.2,0.5-0.2l0,0c0.1,0,0.2,0,0.3,0.1c0.1,0.1,0.1,0.1,0.1,0.3l0,0c0,0.1,0,0.2-0.1,0.3
				c-0.1,0.1-0.2,0.1-0.3,0.2l0,0c-0.1,0.1-0.2,0.1-0.4,0.2c-0.1,0.1-0.2,0.2-0.3,0.4c-0.1,0.2-0.2,0.3-0.3,0.5
				c-0.1,0.2-0.1,0.4-0.1,0.7l0,0c0,0.2,0,0.4,0.1,0.6c0.1,0.2,0.2,0.4,0.3,0.5c0.1,0.1,0.3,0.3,0.5,0.3c0.2,0.1,0.4,0.1,0.6,0.1
				l0,0c0.4,0,0.7-0.1,1-0.3c0.3-0.2,0.5-0.4,0.6-0.7l0,0c-0.4-0.2-0.7-0.5-1-0.9C26,14,25.9,13.5,25.9,13l0,0c0-0.4,0.1-0.7,0.3-1
				c0.2-0.2,0.4-0.4,0.8-0.4l0,0c0.2,0,0.4,0,0.5,0.1c0.2,0.1,0.3,0.2,0.4,0.4s0.2,0.4,0.3,0.8c0.1,0.3,0.1,0.7,0.1,1.1l0,0
				c0,0.2,0,0.5-0.1,0.7l0,0c0,0,0.1,0,0.1,0c0,0,0.1,0,0.1,0l0,0c0.2,0,0.4,0,0.6-0.1c0.2-0.1,0.4-0.1,0.5-0.3s0.3-0.3,0.4-0.4
				c0.1-0.2,0.2-0.4,0.3-0.6l0,0c0,0,0.1-0.1,0.1-0.1c0.1,0,0.1-0.1,0.2-0.1l0,0c0.1,0,0.2,0,0.3,0.1c0.1,0.1,0.1,0.2,0.1,0.3l0,0
				c0,0.1,0,0.1,0,0.2c0,0.1-0.1,0.1-0.1,0.2l0,0c-0.1,0.2-0.3,0.4-0.4,0.6c-0.2,0.2-0.3,0.4-0.6,0.5c-0.2,0.1-0.4,0.3-0.7,0.3
				C29.1,15.5,28.8,15.6,28.5,15.6z M26.7,12.9L26.7,12.9c0,0.1,0,0.3,0.1,0.4s0.1,0.3,0.2,0.4c0.1,0.1,0.2,0.3,0.3,0.4
				c0.1,0.1,0.2,0.2,0.4,0.3l0,0c0-0.1,0-0.3,0-0.4l0,0c0-0.2,0-0.4,0-0.6c0-0.2-0.1-0.4-0.1-0.5c-0.1-0.2-0.1-0.3-0.2-0.4
				c-0.1-0.1-0.2-0.2-0.3-0.2l0,0c0,0-0.1,0-0.2,0.1C26.7,12.6,26.7,12.7,26.7,12.9z M37.7,13.8L37.7,13.8c0,0.4-0.1,0.7-0.1,1.1
				c-0.1,0.4-0.2,0.7-0.4,1s-0.4,0.5-0.6,0.7c-0.3,0.2-0.6,0.3-1,0.3l0,0c-0.2,0-0.5,0-0.6-0.1c-0.2-0.1-0.3-0.2-0.5-0.3
				c-0.1-0.1-0.2-0.3-0.3-0.4c-0.1-0.2-0.2-0.3-0.2-0.5l0,0c-0.2,0.4-0.5,0.7-0.9,0.9c-0.3,0.2-0.7,0.3-1,0.3l0,0
				c-0.3,0-0.5,0-0.7-0.1c-0.2-0.1-0.4-0.2-0.5-0.4c-0.1-0.2-0.3-0.4-0.4-0.6c-0.1-0.2-0.1-0.5-0.1-0.8l0,0c0-0.5,0-1,0.1-1.3
				c0.1-0.4,0.2-0.7,0.3-0.9c0.1-0.2,0.2-0.4,0.3-0.5c0.1-0.1,0.1-0.2,0.1-0.2l0,0c0,0,0.1-0.1,0.1-0.1c0.1,0,0.1,0,0.2,0l0,0
				c0.1,0,0.2,0,0.3,0.1c0.1,0.1,0.1,0.2,0.1,0.3l0,0c0,0.1,0,0.2-0.1,0.3l0,0c0,0-0.1,0.1-0.2,0.2c-0.1,0.1-0.2,0.3-0.2,0.5
				c-0.1,0.2-0.2,0.4-0.2,0.7c-0.1,0.3-0.1,0.6-0.1,1l0,0c0,0.4,0.1,0.7,0.3,0.9c0.2,0.2,0.4,0.3,0.7,0.3l0,0c0.1,0,0.3,0,0.5-0.1
				c0.2-0.1,0.3-0.2,0.5-0.4s0.3-0.4,0.4-0.6s0.2-0.6,0.2-0.9l0,0l0.1-1.8c0-0.1,0.1-0.2,0.1-0.3c0.1-0.1,0.2-0.1,0.3-0.1l0,0
				c0.1,0,0.2,0,0.3,0.1c0.1,0.1,0.1,0.2,0.1,0.3l0,0L34.4,14c0,0.4,0,0.7,0,0.9c0,0.3,0.1,0.5,0.2,0.7c0.1,0.2,0.2,0.3,0.4,0.4
				c0.2,0.1,0.3,0.1,0.5,0.1l0,0c0.3,0,0.5-0.1,0.6-0.2c0.2-0.1,0.3-0.3,0.4-0.6c0.1-0.2,0.2-0.5,0.2-0.9c0-0.3,0.1-0.7,0.1-1l0,0
				c0-0.4,0-0.8-0.1-1.1c0-0.3-0.1-0.5-0.1-0.6l0,0c0-0.1,0-0.2,0.1-0.3c0.1-0.1,0.2-0.1,0.3-0.1l0,0c0.1,0,0.2,0,0.3,0.1
				c0.1,0.1,0.1,0.1,0.1,0.2l0,0c0,0,0,0.1,0.1,0.2c0,0.1,0.1,0.3,0.1,0.5c0.1,0.2,0.1,0.4,0.2,0.6c0.1,0.2,0.2,0.4,0.4,0.6
				c0.1,0.2,0.3,0.3,0.5,0.4c0.2,0.1,0.4,0.2,0.6,0.2l0,0c0.1,0,0.2,0,0.3-0.1c0.1,0,0.2-0.1,0.2-0.2c0.1-0.1,0.1-0.1,0.1-0.2
				c0-0.1,0.1-0.1,0.1-0.1l0,0c0-0.1,0.1-0.1,0.1-0.2c0.1,0,0.1-0.1,0.2-0.1l0,0c0.1,0,0.2,0,0.3,0.1c0.1,0.1,0.1,0.2,0.1,0.3l0,0
				c0,0.1,0,0.2-0.1,0.3c-0.1,0.1-0.2,0.3-0.3,0.4c-0.1,0.1-0.3,0.2-0.5,0.3c-0.2,0.1-0.4,0.1-0.6,0.1l0,0c-0.2,0-0.4,0-0.6-0.1
				c-0.2-0.1-0.3-0.1-0.5-0.2c-0.1-0.1-0.3-0.2-0.4-0.3S37.8,13.9,37.7,13.8z M60.4,1.6L60.4,1.6c0,0.2-0.1,0.5-0.2,0.7
				c-0.1,0.2-0.3,0.5-0.5,0.7c-0.2,0.2-0.4,0.4-0.7,0.5c-0.3,0.2-0.5,0.3-0.8,0.4l0,0c-0.1,0.3-0.1,0.6-0.2,1C58,5.2,58,5.6,58,6.1
				l0,0c0,0.5,0,1.1-0.1,1.6c0,0.5-0.1,1.1-0.1,1.6l0,0c0.6,0,1.2,0,1.8-0.1c0.7,0,1.4,0,2.1-0.1c0.7,0,1.5,0,2.2-0.1
				c0.8,0,1.5,0,2.3,0l0,0c0.1-1.1,0.2-2.1,0.4-3c0.2-0.9,0.4-1.6,0.7-2.2s0.7-1,1.1-1.3c0.4-0.3,0.9-0.5,1.4-0.5l0,0
				c0.1,0,0.2,0,0.3,0c0.1,0,0.2,0,0.4,0.1c0.1,0,0.2,0.1,0.3,0.2c0.1,0.1,0.1,0.2,0.1,0.3l0,0c0,0,0,0.1,0,0.1c0,0,0,0.1,0,0.1l0,0
				c-0.1,0.1-0.2,0.2-0.3,0.2l0,0c-0.1,0-0.1,0-0.1,0c0,0-0.1,0-0.1,0c0,0-0.1,0-0.2-0.1c-0.1,0-0.2,0-0.3,0l0,0
				c-0.1,0-0.2,0-0.4,0.1c-0.2,0-0.3,0.1-0.5,0.3c-0.2,0.1-0.4,0.3-0.6,0.6c-0.2,0.3-0.4,0.6-0.5,1.1c-0.2,0.5-0.3,1-0.4,1.7
				c-0.1,0.7-0.2,1.5-0.3,2.4l0,0c0.5,0,0.9,0,1.4,0c0.4,0,0.9,0,1.3,0l0,0c0.1,0,0.2,0,0.3,0.1c0.1,0.1,0.1,0.2,0.1,0.3l0,0
				c0,0.1,0,0.2-0.1,0.3c-0.1,0.1-0.2,0.1-0.3,0.1l0,0c-0.1,0-0.3,0-0.4,0s-0.3,0-0.5,0c-0.2,0-0.4,0-0.7,0c-0.3,0-0.6,0-1,0l0,0
				c0,0.1,0,0.2,0,0.3c0,0.1,0,0.2,0,0.3l0,0c0,0.8,0,1.4,0.1,2.1c0.1,0.6,0.1,1.1,0.2,1.6c0.1,0.5,0.2,0.9,0.3,1.2s0.2,0.6,0.3,0.8
				c0.1,0.2,0.2,0.4,0.2,0.5c0.1,0.1,0.1,0.1,0.1,0.1l0,0c0,0.1,0.1,0.1,0.1,0.2l0,0c0,0.1,0,0.2-0.1,0.3c-0.1,0.1-0.2,0.1-0.3,0.1
				l0,0c-0.1,0-0.2-0.1-0.3-0.2l0,0c0,0-0.1-0.2-0.2-0.4c-0.1-0.2-0.3-0.6-0.5-1.2c-0.2-0.5-0.3-1.2-0.5-2.1
				c-0.1-0.8-0.2-1.9-0.2-3.1l0,0V9.9c-0.8,0-1.5,0-2.3,0c-0.8,0-1.5,0-2.3,0c-0.7,0-1.4,0-2.1,0.1c-0.7,0-1.3,0-1.8,0.1l0,0
				c-0.1,1-0.3,1.9-0.6,2.7c-0.3,0.9-0.7,1.6-1.2,2.2c-0.5,0.6-1.2,1.2-2,1.5c-0.8,0.4-1.8,0.6-2.9,0.6l0,0c-0.6,0-1.2-0.1-1.8-0.2
				c-0.6-0.1-1.1-0.3-1.6-0.5c-0.5-0.2-0.9-0.5-1.3-0.8c-0.4-0.3-0.7-0.7-1-1.1l0,0c0-0.1-0.1-0.1-0.1-0.2l0,0c0-0.1,0-0.2,0.1-0.3
				c0.1-0.1,0.2-0.1,0.3-0.1l0,0c0.1,0,0.1,0,0.2,0c0.1,0,0.1,0.1,0.1,0.1l0,0c0.2,0.3,0.5,0.7,0.8,0.9c0.3,0.3,0.7,0.5,1.2,0.7
				c0.4,0.2,0.9,0.4,1.4,0.5c0.5,0.1,1,0.2,1.6,0.2l0,0c1,0,1.9-0.2,2.6-0.5c0.7-0.3,1.3-0.8,1.7-1.3s0.8-1.2,1-2s0.4-1.6,0.5-2.4
				l0,0c-0.7,0-1.2,0.1-1.6,0.1c-0.4,0-0.6,0-0.6,0l0,0c-0.1,0-0.2,0-0.3-0.1c-0.1-0.1-0.1-0.2-0.1-0.3l0,0c0-0.1,0-0.2,0.1-0.3
				c0.1-0.1,0.2-0.1,0.3-0.1l0,0c0,0,0.2,0,0.6,0c0.4,0,1,0,1.7-0.1l0,0c0.1-0.5,0.1-1.1,0.1-1.6c0-0.5,0.1-1.1,0.1-1.7l0,0
				c0-0.4,0-0.7,0.1-1c0-0.3,0.1-0.6,0.1-0.9l0,0c-0.2,0-0.3,0.1-0.5,0.1c-0.2,0-0.4,0-0.6,0l0,0c-0.6,0-1.2,0-1.8-0.1
				c-0.6-0.1-1.2-0.2-1.8-0.3c-0.6-0.1-1.2-0.2-1.8-0.3c-0.6-0.1-1.2-0.1-1.8-0.1l0,0c-0.5,0-1,0.1-1.4,0.2
				c-0.4,0.1-0.8,0.3-1.2,0.5c-0.3,0.2-0.6,0.5-0.8,0.8c-0.2,0.3-0.3,0.7-0.3,1.2l0,0c0,0.3,0.1,0.5,0.2,0.8
				c0.1,0.2,0.2,0.4,0.4,0.6c0.1,0.2,0.3,0.3,0.4,0.4c0.1,0.1,0.2,0.1,0.2,0.2l0,0c0.1,0.1,0.2,0.2,0.2,0.3l0,0c0,0.1,0,0.2-0.1,0.3
				c-0.1,0.1-0.2,0.1-0.3,0.1l0,0c0,0-0.1,0-0.1,0c0,0-0.1,0-0.1-0.1l0,0c-0.2-0.1-0.3-0.2-0.5-0.4c-0.2-0.2-0.3-0.3-0.5-0.5
				c-0.1-0.2-0.3-0.5-0.4-0.7c-0.1-0.3-0.1-0.6-0.1-0.9l0,0c0-0.6,0.1-1.1,0.4-1.6c0.3-0.4,0.6-0.8,1-1.1c0.4-0.3,0.9-0.5,1.4-0.6
				c0.5-0.1,1.1-0.2,1.6-0.2l0,0c0.6,0,1.2,0,1.8,0.1c0.6,0.1,1.2,0.2,1.8,0.3c0.6,0.1,1.2,0.2,1.8,0.3c0.6,0.1,1.2,0.1,1.8,0.1l0,0
				c0.2,0,0.5,0,0.7,0c0.2,0,0.4-0.1,0.6-0.1l0,0c0.1-0.4,0.3-0.8,0.4-1.1c0.2-0.3,0.3-0.6,0.5-0.8c0.2-0.2,0.4-0.4,0.6-0.5
				c0.2-0.1,0.4-0.1,0.5-0.1l0,0c0.2,0,0.4,0.1,0.6,0.2C60.3,1.2,60.4,1.4,60.4,1.6z M59.5,1.6L59.5,1.6c-0.1,0-0.1,0-0.2,0.1
				c-0.1,0.1-0.2,0.1-0.3,0.3c-0.1,0.1-0.2,0.3-0.3,0.5c-0.1,0.2-0.2,0.4-0.3,0.7l0,0C58.6,3,58.8,2.8,59,2.7
				c0.2-0.2,0.3-0.3,0.4-0.5c0.1-0.2,0.2-0.3,0.2-0.4C59.6,1.6,59.6,1.6,59.5,1.6z M78.3,13.8L78.3,13.8c0,0.1-0.1,0.2-0.2,0.4
				c-0.1,0.2-0.2,0.4-0.3,0.6c-0.1,0.2-0.3,0.5-0.5,0.7c-0.2,0.2-0.4,0.5-0.6,0.7c-0.2,0.2-0.5,0.4-0.7,0.5
				c-0.3,0.1-0.5,0.2-0.8,0.2l0,0c-0.4,0-0.7-0.1-1-0.4c-0.3-0.3-0.5-0.6-0.6-1l0,0c-0.2,0.4-0.5,0.7-0.8,0.9
				c-0.3,0.2-0.7,0.3-1,0.3l0,0c-0.3,0-0.5,0-0.7-0.1c-0.2-0.1-0.4-0.2-0.5-0.4s-0.3-0.4-0.3-0.6c-0.1-0.2-0.1-0.5-0.1-0.8l0,0
				c0-0.5,0.1-1,0.3-1.4c0.2-0.4,0.4-0.8,0.7-1c0.3-0.3,0.6-0.5,0.9-0.6c0.3-0.1,0.7-0.2,1-0.2l0,0c0.2,0,0.4,0,0.6,0.1
				c0.2,0.1,0.3,0.1,0.5,0.2c0.1,0.1,0.2,0.1,0.3,0.2c0.1,0.1,0.1,0.1,0.1,0.1l0,0c0.1,0.1,0.1,0.2,0.1,0.3l0,0c0,0.1,0,0.2-0.1,0.3
				c-0.1,0.1-0.2,0.1-0.3,0.1l0,0c-0.1,0-0.2,0-0.3-0.1l0,0c0,0,0,0-0.1-0.1c0,0-0.1-0.1-0.2-0.1c-0.1,0-0.2-0.1-0.3-0.1
				c-0.1,0-0.2,0-0.4,0l0,0c-0.2,0-0.4,0-0.7,0.1c-0.2,0.1-0.5,0.2-0.7,0.5c-0.2,0.2-0.4,0.5-0.5,0.8s-0.2,0.7-0.2,1.1l0,0
				c0,0.1,0,0.3,0,0.4c0,0.1,0.1,0.3,0.1,0.4c0.1,0.1,0.2,0.2,0.3,0.3c0.1,0.1,0.3,0.1,0.4,0.1l0,0c0.1,0,0.3,0,0.4-0.1
				c0.2-0.1,0.3-0.2,0.5-0.4c0.1-0.2,0.3-0.4,0.4-0.7c0.1-0.3,0.2-0.6,0.3-0.9l0,0c0-0.1,0.1-0.2,0.1-0.2c0.1-0.1,0.2-0.1,0.3-0.1
				l0,0c0.1,0,0.2,0,0.3,0.1c0.1,0.1,0.1,0.2,0.1,0.3l0,0c0,0.1,0,0.3,0,0.6c0,0.2,0.1,0.5,0.1,0.7c0.1,0.2,0.2,0.4,0.3,0.6
				c0.1,0.2,0.3,0.3,0.6,0.3l0,0c0.2,0,0.3,0,0.5-0.1c0.2-0.1,0.3-0.2,0.5-0.4c0.2-0.1,0.3-0.3,0.4-0.5c0.1-0.2,0.3-0.4,0.4-0.6
				s0.2-0.4,0.3-0.6c0.1-0.2,0.2-0.3,0.2-0.5l0,0c0-0.1,0.1-0.1,0.2-0.2c0.1,0,0.1-0.1,0.2-0.1l0,0c0.1,0,0.2,0,0.3,0.1
				c0.1,0.1,0.1,0.2,0.1,0.3l0,0C78.3,13.7,78.3,13.7,78.3,13.8z M79.9,15.8L79.9,15.8c0.1-0.2,0.2-0.5,0.4-0.8
				c0.1-0.3,0.3-0.6,0.5-0.8c0.2-0.3,0.3-0.6,0.5-0.8c0.2-0.3,0.4-0.5,0.6-0.8l0,0c0.2-0.2,0.4-0.4,0.6-0.5c0.2-0.1,0.4-0.2,0.6-0.2
				l0,0c0.4,0,0.6,0.1,0.8,0.4c0.2,0.3,0.3,0.6,0.3,1l0,0c0,0.1,0,0.2,0,0.3c0,0.1,0,0.3,0,0.4c0,0.1,0,0.3,0,0.4c0,0.1,0,0.3,0,0.4
				l0,0c0,0.2,0,0.3,0,0.5c0,0.2,0.1,0.3,0.1,0.4c0,0.1,0.1,0.2,0.2,0.3c0.1,0.1,0.2,0.1,0.4,0.1l0,0c0.3,0,0.5-0.1,0.8-0.3
				c0.2-0.2,0.5-0.4,0.7-0.7c0.2-0.3,0.4-0.6,0.5-0.9c0.2-0.3,0.3-0.5,0.4-0.7l0,0c0-0.1,0.1-0.1,0.1-0.2c0.1,0,0.1-0.1,0.2-0.1l0,0
				c0.1,0,0.2,0,0.3,0.1c0.1,0.1,0.1,0.2,0.1,0.3l0,0c0,0,0,0.1,0,0.1l0,0c0,0.1-0.1,0.2-0.2,0.3c-0.1,0.2-0.2,0.4-0.3,0.6
				c-0.1,0.2-0.3,0.5-0.5,0.7c-0.2,0.3-0.4,0.5-0.6,0.7c-0.2,0.2-0.5,0.4-0.7,0.5c-0.3,0.1-0.5,0.2-0.8,0.2l0,0
				c-0.3,0-0.6-0.1-0.8-0.2c-0.2-0.1-0.3-0.3-0.5-0.5c-0.1-0.2-0.2-0.4-0.2-0.7c0-0.2-0.1-0.5-0.1-0.7l0,0c0-0.1,0-0.2,0-0.4
				c0-0.1,0-0.3,0-0.4c0-0.1,0-0.3,0-0.4c0-0.1,0-0.3,0-0.4l0,0c0-0.2,0-0.4-0.1-0.5c-0.1-0.1-0.1-0.1-0.2-0.1l0,0
				c-0.1,0-0.2,0.1-0.4,0.2c-0.1,0.1-0.3,0.3-0.4,0.5c-0.2,0.2-0.3,0.4-0.5,0.7s-0.3,0.5-0.5,0.8c-0.1,0.3-0.3,0.5-0.4,0.7
				c-0.1,0.2-0.2,0.4-0.3,0.6l0,0c-0.1,0.3-0.3,0.5-0.4,0.6s-0.3,0.1-0.4,0.1l0,0c-0.2,0-0.4-0.1-0.5-0.2c-0.1-0.1-0.2-0.3-0.2-0.5
				l0,0c0,0,0-0.1,0-0.3c0-0.1,0-0.3,0.1-0.5c0-0.2,0-0.4,0.1-0.6c0-0.2,0-0.5,0.1-0.7c0-0.2,0-0.4,0-0.6c0-0.2,0-0.4,0-0.5l0,0
				c0-0.2,0-0.3,0-0.5c0-0.2,0-0.3-0.1-0.3l0,0c-0.1,0-0.2,0.1-0.3,0.4c-0.2,0.2-0.4,0.7-0.6,1.3l0,0c0,0.1-0.1,0.1-0.2,0.2
				C78.1,14,78,14,77.9,14l0,0c-0.1,0-0.2,0-0.3-0.1c-0.1-0.1-0.1-0.2-0.1-0.3l0,0c0,0,0-0.1,0-0.2l0,0c0.3-0.7,0.6-1.3,0.9-1.6
				c0.3-0.4,0.6-0.5,0.8-0.5l0,0c0.2,0,0.3,0,0.4,0.1c0.1,0.1,0.2,0.2,0.3,0.3c0.1,0.1,0.1,0.3,0.1,0.4c0,0.2,0,0.3,0,0.5l0,0
				c0,0.1,0,0.3,0,0.6c0,0.3,0,0.6-0.1,0.9c0,0.3-0.1,0.6-0.1,0.9C79.9,15.3,79.9,15.6,79.9,15.8z M91.1,13.7L91.1,13.7
				c0.3,1.6,0.8,2.4,1.5,2.4l0,0c0.2,0,0.5-0.1,0.7-0.3c0.2-0.2,0.4-0.4,0.6-0.7c0.2-0.3,0.4-0.5,0.5-0.8c0.2-0.3,0.3-0.6,0.4-0.8
				l0,0c0.1-0.2,0.2-0.2,0.4-0.2l0,0c0.1,0,0.2,0,0.3,0.1c0.1,0.1,0.1,0.2,0.1,0.3l0,0c0,0.1,0,0.1,0,0.1l0,0c0,0.1-0.1,0.3-0.2,0.5
				c-0.1,0.2-0.2,0.4-0.3,0.6c-0.1,0.2-0.3,0.5-0.5,0.7c-0.2,0.2-0.4,0.4-0.6,0.6c-0.2,0.2-0.4,0.3-0.6,0.5
				c-0.2,0.1-0.5,0.2-0.7,0.2l0,0c-0.5,0-0.9-0.2-1.2-0.5c-0.3-0.3-0.6-0.9-0.9-1.6l0,0c-0.3,0.7-0.7,1.2-1,1.5
				c-0.3,0.3-0.7,0.5-1.1,0.5l0,0c-0.2,0-0.4,0-0.6-0.1c-0.2-0.1-0.4-0.2-0.5-0.3c-0.1-0.2-0.3-0.3-0.4-0.6
				c-0.1-0.2-0.1-0.5-0.1-0.9l0,0c0-0.5,0.1-0.9,0.3-1.3c0.2-0.4,0.4-0.7,0.6-1c0.3-0.3,0.6-0.5,0.9-0.7c0.3-0.2,0.6-0.2,1-0.2l0,0
				c0.1,0,0.2,0,0.3,0.1C90,11.8,90,11.9,90,12l0,0c0,0.1,0,0.2-0.1,0.3c-0.1,0.1-0.1,0.1-0.3,0.1l0,0c-0.2,0-0.4,0.1-0.7,0.2
				c-0.2,0.1-0.5,0.3-0.7,0.5c-0.2,0.2-0.4,0.5-0.5,0.8c-0.1,0.3-0.2,0.7-0.2,1.1l0,0c0,0.3,0.1,0.6,0.2,0.8
				c0.1,0.2,0.3,0.3,0.6,0.3l0,0c0.1,0,0.2,0,0.4-0.1c0.1-0.1,0.3-0.2,0.4-0.3c0.1-0.2,0.3-0.4,0.5-0.7c0.2-0.3,0.4-0.7,0.6-1.3l0,0
				c-0.1-0.6-0.2-1.3-0.3-2.1c-0.1-0.8-0.1-1.7-0.1-2.7l0,0c0-0.4,0-0.9,0-1.3c0-0.5,0.1-0.9,0.1-1.4c0.1-0.4,0.1-0.9,0.3-1.3
				c0.1-0.4,0.2-0.8,0.4-1.1S91,3.2,91.2,3c0.2-0.2,0.4-0.3,0.7-0.3l0,0c0.2,0,0.4,0.1,0.6,0.2c0.2,0.1,0.3,0.3,0.4,0.5
				c0.1,0.2,0.2,0.5,0.2,0.8c0,0.3,0.1,0.7,0.1,1l0,0c0,0.8-0.1,1.6-0.2,2.4c-0.1,0.8-0.3,1.6-0.5,2.3c-0.2,0.7-0.4,1.4-0.7,2
				C91.5,12.7,91.3,13.2,91.1,13.7z M92.3,5.3L92.3,5.3c0-0.2,0-0.4,0-0.6c0-0.2,0-0.4-0.1-0.6c0-0.2-0.1-0.3-0.1-0.4
				C92,3.6,92,3.5,91.9,3.5l0,0c-0.2,0-0.3,0.2-0.5,0.5c-0.1,0.3-0.3,0.7-0.4,1.2c-0.1,0.5-0.2,1.1-0.3,1.7
				c-0.1,0.6-0.1,1.3-0.1,1.9l0,0c0,0.6,0,1.2,0.1,1.8c0,0.6,0.1,1.2,0.2,1.6l0,0c0.2-0.5,0.4-1.1,0.6-1.7c0.2-0.6,0.3-1.1,0.5-1.7
				c0.1-0.6,0.2-1.2,0.3-1.8C92.3,6.5,92.3,5.9,92.3,5.3z M109.8,2.9L109.8,2.9c-0.2,0.6-0.4,1.3-0.5,2c-0.1,0.8-0.2,1.6-0.2,2.5
				l0,0c0,0.6,0,1.3,0.1,1.9c0,0.7,0.1,1.4,0.1,2.1l0,0c0.2-0.1,0.3-0.1,0.4-0.1l0,0c0.1,0,0.2,0,0.3,0.1c0.1,0.1,0.1,0.1,0.1,0.3
				l0,0c0,0.2-0.1,0.3-0.2,0.3c-0.1,0.1-0.3,0.2-0.6,0.3l0,0v0.9c0,1.6-0.1,3-0.3,4.4c-0.2,1.3-0.5,2.5-0.9,3.4
				c-0.4,1-0.9,1.7-1.6,2.2c-0.7,0.5-1.5,0.8-2.5,0.8l0,0c-0.4,0-0.8-0.1-1.2-0.2s-0.7-0.4-1.1-0.7c-0.3-0.3-0.6-0.7-0.8-1.2
				c-0.2-0.5-0.3-1-0.3-1.7l0,0c0-0.7,0.1-1.4,0.4-2c0.3-0.6,0.6-1.2,1-1.8c0.4-0.6,0.9-1.1,1.5-1.6c0.5-0.5,1.1-0.9,1.7-1.3
				c0.6-0.4,1.1-0.7,1.7-1c0.6-0.3,1.1-0.5,1.5-0.7l0,0c0-0.7,0-1.4-0.1-2.2c0-0.7-0.1-1.5-0.1-2.2l0,0c0-0.7,0-1.4,0.1-2
				c0.1-0.7,0.2-1.3,0.4-1.8l0,0c-0.3,0.2-0.6,0.3-0.9,0.4c-0.3,0.1-0.7,0.3-1,0.4c-0.4,0.1-0.7,0.2-1.1,0.3
				c-0.4,0.1-0.7,0.2-1.1,0.3l0,0c-0.6,0.2-1.1,0.3-1.5,0.5c-0.4,0.2-0.8,0.4-1.1,0.7c-0.3,0.3-0.6,0.5-0.7,0.9
				c-0.2,0.3-0.3,0.7-0.3,1.1l0,0c0,0.5,0.1,0.9,0.3,1.2c0.2,0.3,0.4,0.6,0.7,0.8c0.3,0.2,0.6,0.4,1,0.5c0.4,0.1,0.8,0.1,1.1,0.1
				l0,0c0.1,0,0.2,0,0.3,0.1c0.1,0.1,0.1,0.2,0.1,0.3l0,0c0,0.1,0,0.2-0.1,0.3c-0.1,0.1-0.2,0.1-0.3,0.1l0,0c-0.5,0-0.9-0.1-1.4-0.2
				c-0.5-0.1-0.9-0.3-1.3-0.6c-0.4-0.3-0.7-0.6-0.9-1.1c-0.2-0.4-0.4-0.9-0.4-1.5l0,0c0-0.5,0.1-1,0.3-1.4c0.2-0.4,0.5-0.8,0.9-1.1
				c0.4-0.3,0.8-0.6,1.3-0.8c0.5-0.2,1.1-0.4,1.7-0.6l0,0c0.5-0.1,0.9-0.3,1.4-0.4c0.5-0.1,0.9-0.3,1.3-0.5c0.4-0.2,0.8-0.3,1.1-0.5
				c0.3-0.2,0.6-0.4,0.9-0.5l0,0c0.3-0.8,0.6-1.4,0.9-1.8c0.3-0.4,0.6-0.6,0.9-0.6l0,0c0.1,0,0.1,0,0.2,0c0.1,0,0.1,0.1,0.2,0.1
				c0.1,0.1,0.1,0.1,0.2,0.2c0,0.1,0.1,0.2,0.1,0.3l0,0c0,0.3-0.2,0.7-0.5,1C110.7,2.1,110.3,2.5,109.8,2.9z M108.4,12.6L108.4,12.6
				c-0.4,0.2-0.9,0.4-1.4,0.7c-0.5,0.3-1,0.6-1.5,0.9c-0.5,0.4-1,0.8-1.5,1.2c-0.5,0.4-0.9,0.9-1.3,1.4c-0.4,0.5-0.7,1-0.9,1.6
				c-0.2,0.6-0.3,1.1-0.3,1.7l0,0c0,0.5,0.1,1,0.2,1.3c0.1,0.4,0.3,0.7,0.6,1c0.2,0.3,0.5,0.4,0.8,0.6c0.3,0.1,0.6,0.2,1,0.2l0,0
				c0.6,0,1.1-0.1,1.5-0.4c0.4-0.3,0.8-0.6,1.1-1.1c0.3-0.5,0.6-1,0.8-1.7c0.2-0.7,0.4-1.4,0.5-2.2c0.1-0.8,0.2-1.6,0.3-2.5
				S108.4,13.6,108.4,12.6z M115.1,15.5L115.1,15.5c-0.2,0.4-0.5,0.7-0.9,0.9c-0.3,0.2-0.6,0.3-1,0.3l0,0c-0.3,0-0.5,0-0.7-0.1
				c-0.2-0.1-0.4-0.2-0.5-0.4c-0.2-0.2-0.3-0.4-0.4-0.6c-0.1-0.2-0.1-0.5-0.1-0.8l0,0c0-0.5,0-0.9,0.1-1.3c0.1-0.4,0.2-0.7,0.3-0.9
				c0.1-0.3,0.2-0.4,0.3-0.6c0.1-0.1,0.1-0.2,0.1-0.2l0,0c0,0,0.1-0.1,0.1-0.1c0.1,0,0.1,0,0.2,0l0,0c0.1,0,0.2,0,0.3,0.1
				c0.1,0.1,0.1,0.2,0.1,0.3l0,0c0,0,0,0.1,0,0.1c0,0,0,0.1-0.1,0.1l0,0c0,0.1-0.1,0.2-0.2,0.3c-0.1,0.1-0.2,0.3-0.2,0.5
				c-0.1,0.2-0.2,0.5-0.2,0.7c-0.1,0.3-0.1,0.6-0.1,1l0,0c0,0.4,0.1,0.7,0.2,0.9c0.2,0.2,0.4,0.3,0.7,0.3l0,0c0.1,0,0.3,0,0.4-0.1
				c0.2-0.1,0.3-0.2,0.5-0.4c0.2-0.2,0.3-0.4,0.4-0.6s0.2-0.6,0.2-0.9l0,0l0.2-1.8c0-0.1,0.1-0.2,0.1-0.3c0.1-0.1,0.2-0.1,0.3-0.1
				l0,0c0.1,0,0.2,0,0.3,0.1c0.1,0.1,0.1,0.2,0.1,0.3l0,0l-0.1,1.7c0,0.1,0,0.3,0,0.6c0,0.2,0.1,0.5,0.1,0.7
				c0.1,0.2,0.2,0.4,0.3,0.6c0.2,0.2,0.4,0.2,0.6,0.2l0,0c0.2,0,0.4,0,0.5-0.1c0.2-0.1,0.3-0.2,0.5-0.4c0.2-0.2,0.3-0.3,0.4-0.5
				c0.1-0.2,0.3-0.4,0.4-0.6c0.1-0.2,0.2-0.4,0.3-0.6c0.1-0.2,0.2-0.3,0.2-0.5l0,0c0-0.1,0.1-0.1,0.1-0.2c0.1,0,0.1-0.1,0.2-0.1l0,0
				c0.1,0,0.2,0,0.3,0.1c0.1,0.1,0.1,0.2,0.1,0.3l0,0c0,0.1,0,0.1,0,0.2l0,0c0,0.1-0.1,0.2-0.2,0.4c-0.1,0.2-0.2,0.4-0.3,0.6
				c-0.1,0.2-0.3,0.5-0.5,0.7c-0.2,0.2-0.4,0.5-0.6,0.7c-0.2,0.2-0.5,0.4-0.7,0.5c-0.3,0.1-0.5,0.2-0.8,0.2l0,0
				c-0.4,0-0.7-0.1-1-0.3C115.4,16.3,115.2,16,115.1,15.5z M120.2,12.8L120.2,12.8c0,0.1-0.1,0.2-0.1,0.4c-0.1,0.1-0.1,0.3-0.2,0.4
				l0,0c-0.1,0.1-0.1,0.2-0.2,0.3c-0.1,0.1-0.2,0.1-0.3,0.1l0,0c-0.1,0-0.2,0-0.3-0.1c-0.1-0.1-0.1-0.2-0.1-0.3l0,0c0,0,0-0.1,0-0.1
				c0,0,0-0.1,0-0.1l0,0c0.2-0.3,0.3-0.7,0.4-0.9c0.1-0.3,0.2-0.5,0.2-0.8l0,0c0-0.2-0.1-0.3-0.1-0.4c0-0.1,0-0.2,0-0.3l0,0
				c0-0.2,0-0.4,0.1-0.6c0.1-0.1,0.2-0.2,0.4-0.2l0,0c0.2,0,0.3,0.1,0.4,0.2c0.1,0.1,0.1,0.3,0.1,0.5l0,0c0,0.1,0,0.2,0,0.3
				c0,0.1,0,0.3-0.1,0.4l0,0c0.2,0.4,0.3,0.7,0.5,1.1c0.2,0.3,0.3,0.6,0.4,0.8c0.1,0.3,0.2,0.5,0.3,0.7c0.1,0.2,0.1,0.4,0.1,0.7l0,0
				c0,0.3-0.1,0.6-0.2,0.8s-0.3,0.5-0.6,0.7l0,0c0,0,0.1,0,0.1,0c0,0,0.1,0,0.1,0l0,0c0.4,0,0.8-0.1,1.1-0.3
				c0.3-0.2,0.6-0.4,0.9-0.7c0.3-0.3,0.5-0.6,0.7-1c0.2-0.4,0.4-0.7,0.5-1.1l0,0c0.1-0.2,0.2-0.2,0.3-0.2l0,0c0.1,0,0.2,0,0.3,0.1
				c0.1,0.1,0.1,0.2,0.1,0.3l0,0c0,0.1,0,0.1,0,0.2l0,0c-0.1,0.2-0.2,0.4-0.3,0.6c-0.1,0.2-0.3,0.5-0.4,0.7
				c-0.2,0.3-0.4,0.5-0.6,0.7c-0.2,0.2-0.5,0.5-0.7,0.7c-0.3,0.2-0.6,0.3-0.9,0.5c-0.3,0.1-0.7,0.2-1.1,0.2l0,0
				c-0.5,0-0.9-0.1-1.3-0.2c-0.4-0.2-0.7-0.4-1-0.8l0,0c0-0.1-0.1-0.1-0.1-0.2l0,0c0-0.1,0-0.2,0.1-0.3c0.1-0.1,0.2-0.1,0.3-0.1l0,0
				c0.1,0,0.2,0,0.3,0.1l0,0c0,0,0,0,0.1,0.1c0,0,0.1,0.1,0.2,0.1c0.1,0,0.1,0.1,0.2,0.1c0.1,0,0.2,0,0.2,0l0,0c0.2,0,0.3,0,0.4-0.1
				c0.1-0.1,0.2-0.2,0.3-0.3c0.1-0.1,0.1-0.2,0.2-0.3c0-0.1,0-0.2,0-0.3l0,0c0-0.2,0-0.3-0.1-0.5s-0.1-0.3-0.2-0.5s-0.2-0.4-0.3-0.5
				C120.4,13.2,120.3,13,120.2,12.8z M133,6.3L133,6.3c0,0.1,0,0.2-0.1,0.3c-0.1,0.1-0.2,0.1-0.3,0.1l0,0h-5.3v0.1
				c0,0.4,0,0.9-0.1,1.4c-0.1,0.5-0.1,1-0.3,1.4c-0.1,0.5-0.2,0.9-0.4,1.4s-0.3,0.9-0.4,1.2c-0.1,0.4-0.3,0.7-0.4,1
				c-0.1,0.3-0.3,0.5-0.4,0.6l0,0c0.1,0.3,0.2,0.6,0.3,0.9c0.1,0.3,0.3,0.5,0.4,0.7c0.2,0.2,0.3,0.4,0.5,0.5
				c0.2,0.1,0.4,0.2,0.6,0.2l0,0c0.2,0,0.5-0.1,0.7-0.3c0.2-0.2,0.5-0.4,0.7-0.7c0.2-0.3,0.4-0.6,0.5-0.9c0.2-0.3,0.3-0.5,0.3-0.7
				l0,0c0.1-0.2,0.2-0.2,0.4-0.2l0,0c0.1,0,0.2,0,0.3,0.1c0.1,0.1,0.1,0.2,0.1,0.3l0,0c0,0,0,0.1,0,0.1l0,0c0,0-0.1,0.2-0.2,0.3
				c-0.1,0.2-0.2,0.4-0.3,0.6c-0.1,0.2-0.3,0.5-0.4,0.7c-0.2,0.3-0.4,0.5-0.6,0.7c-0.2,0.2-0.4,0.4-0.7,0.5
				c-0.2,0.1-0.5,0.2-0.8,0.2l0,0c-0.5,0-0.9-0.2-1.3-0.5c-0.4-0.3-0.7-0.8-1-1.3c-0.3-0.6-0.5-1.2-0.6-2c-0.1-0.8-0.2-1.6-0.2-2.5
				l0,0c0-0.2,0-0.5,0-0.8s0-0.6,0-1c0-0.3,0-0.7,0.1-1.1c0-0.4,0.1-0.7,0.2-1.1l0,0h-3.7c-0.1,0-0.2,0-0.3-0.1
				c-0.1-0.1-0.1-0.2-0.1-0.3l0,0c0-0.1,0-0.2,0.1-0.3c0.1-0.1,0.2-0.1,0.3-0.1l0,0h3.9c0.1-0.3,0.1-0.5,0.2-0.7
				c0.1-0.2,0.2-0.4,0.3-0.5c0.1-0.2,0.3-0.3,0.4-0.4c0.1-0.1,0.3-0.1,0.5-0.1l0,0c0.2,0,0.3,0,0.5,0.1c0.1,0.1,0.2,0.2,0.3,0.4
				c0.1,0.2,0.2,0.3,0.2,0.5c0,0.2,0.1,0.4,0.1,0.7l0,0h5.3c0.1,0,0.2,0,0.3,0.1C132.9,6.1,133,6.2,133,6.3z M125.1,12.8L125.1,12.8
				c0.2-0.5,0.4-1,0.6-1.5c0.2-0.5,0.3-1.1,0.4-1.6c0.1-0.5,0.2-1.1,0.3-1.6c0.1-0.5,0.1-1,0.1-1.4l0,0h-1.2c-0.1,0.4-0.2,1-0.2,1.6
				c-0.1,0.6-0.1,1.4-0.1,2.3l0,0c0,0.5,0,0.9,0,1.3C125,12.2,125.1,12.5,125.1,12.8z M126.1,5L126.1,5c-0.1,0-0.2,0.1-0.3,0.2
				c-0.1,0.1-0.2,0.4-0.4,0.7l0,0h1c0-0.3-0.1-0.5-0.2-0.7C126.2,5.1,126.2,5,126.1,5z M125.3,13.5L125.3,13.5L125.3,13.5z
				 M131.2,8.5L131.2,8.5c0,0.3-0.1,0.5-0.3,0.7c-0.2,0.2-0.4,0.3-0.7,0.3l0,0c-0.3,0-0.5-0.1-0.7-0.3c-0.2-0.2-0.3-0.4-0.3-0.7l0,0
				c0-0.1,0-0.3,0.1-0.4c0-0.1,0.1-0.2,0.2-0.3c0.1-0.1,0.2-0.2,0.3-0.2c0.1,0,0.2-0.1,0.4-0.1l0,0c0.1,0,0.3,0,0.4,0.1
				c0.1,0,0.2,0.1,0.3,0.2c0.1,0.1,0.2,0.2,0.2,0.3C131.2,8.3,131.2,8.4,131.2,8.5z M129.5,14.6L129.5,14.6c0-1,0.1-2,0.2-3l0,0
				c0-0.1,0.1-0.2,0.1-0.3c0.1-0.1,0.2-0.1,0.3-0.1l0,0c0.1,0,0.2,0,0.3,0.1c0.1,0.1,0.1,0.2,0.1,0.3l0,0c0,0,0,0.2,0,0.4
				c0,0.2,0,0.5-0.1,0.7c0,0.3,0,0.6-0.1,0.9c0,0.3,0,0.6,0,0.9l0,0c0,0.4,0,0.7,0.1,0.9c0.1,0.2,0.2,0.4,0.3,0.5
				c0.1,0.1,0.2,0.2,0.4,0.3c0.1,0,0.3,0.1,0.4,0.1l0,0c0.2,0,0.4-0.1,0.6-0.2c0.2-0.1,0.4-0.3,0.6-0.6c0.2-0.2,0.4-0.5,0.7-0.9
				c0.2-0.3,0.4-0.7,0.7-1.2l0,0c0-0.1,0.1-0.1,0.1-0.2c0.1,0,0.1-0.1,0.2-0.1l0,0c0.1,0,0.2,0,0.3,0.1c0.1,0.1,0.1,0.2,0.1,0.3l0,0
				c0,0.1,0,0.1,0,0.2l0,0c-0.1,0.2-0.2,0.4-0.3,0.6c-0.1,0.2-0.3,0.5-0.4,0.7c-0.2,0.2-0.3,0.5-0.5,0.7s-0.4,0.5-0.6,0.6
				c-0.2,0.2-0.4,0.3-0.7,0.5c-0.2,0.1-0.5,0.2-0.7,0.2l0,0c-0.3,0-0.6-0.1-0.8-0.2s-0.4-0.3-0.6-0.5c-0.2-0.2-0.3-0.5-0.4-0.8
				C129.5,15.3,129.5,15,129.5,14.6z M130.6,8.5L130.6,8.5c0-0.1,0-0.2-0.1-0.3c-0.1-0.1-0.2-0.1-0.3-0.1l0,0c-0.1,0-0.2,0-0.2,0.1
				c-0.1,0.1-0.1,0.2-0.1,0.3l0,0c0,0.1,0,0.2,0.1,0.3c0.1,0.1,0.1,0.1,0.2,0.1l0,0c0.1,0,0.2,0,0.3-0.1
				C130.6,8.7,130.6,8.6,130.6,8.5z M140.8,13.8L140.8,13.8c0,0.1-0.1,0.2-0.2,0.4c-0.1,0.2-0.2,0.4-0.4,0.7
				c-0.2,0.3-0.4,0.5-0.6,0.8c-0.2,0.3-0.5,0.5-0.8,0.7c-0.3,0.2-0.6,0.4-1,0.6c-0.4,0.1-0.8,0.2-1.2,0.2l0,0
				c-0.4,0-0.7-0.1-1.1-0.2c-0.3-0.1-0.6-0.3-0.8-0.6c-0.2-0.3-0.4-0.6-0.5-0.9c-0.1-0.4-0.2-0.7-0.2-1.2l0,0c0-0.4,0.1-0.8,0.2-1.2
				c0.1-0.4,0.3-0.7,0.5-1c0.2-0.3,0.4-0.5,0.7-0.6c0.3-0.2,0.6-0.2,0.9-0.2l0,0c0.2,0,0.4,0,0.6,0.1c0.2,0.1,0.3,0.2,0.5,0.3
				c0.1,0.1,0.2,0.3,0.3,0.4c0.1,0.2,0.1,0.3,0.1,0.5l0,0c0,0.2,0,0.3-0.1,0.4c0,0.1-0.1,0.2-0.1,0.4c-0.1,0.1-0.1,0.2-0.2,0.2
				c-0.1,0.1-0.2,0.1-0.2,0.1l0,0c-0.1,0-0.2,0-0.3-0.1c-0.1-0.1-0.1-0.2-0.1-0.3l0,0c0-0.1,0-0.1,0-0.1c0,0,0.1-0.1,0.1-0.1
				c0,0,0.1-0.1,0.1-0.2c0-0.1,0-0.2,0-0.3l0,0c0-0.1-0.1-0.3-0.2-0.4s-0.3-0.2-0.5-0.2l0,0c-0.2,0-0.4,0.1-0.6,0.2
				s-0.3,0.3-0.5,0.5c-0.1,0.2-0.2,0.4-0.3,0.7c-0.1,0.3-0.1,0.5-0.1,0.8l0,0c0,0.3,0,0.6,0.1,0.8c0.1,0.3,0.2,0.5,0.3,0.7
				c0.1,0.2,0.3,0.4,0.5,0.5c0.2,0.1,0.5,0.2,0.8,0.2l0,0c0.4,0,0.7-0.1,1-0.2c0.3-0.1,0.6-0.3,0.9-0.5c0.3-0.2,0.5-0.4,0.7-0.7
				c0.2-0.2,0.4-0.5,0.5-0.7c0.1-0.2,0.3-0.4,0.3-0.6c0.1-0.2,0.1-0.3,0.1-0.3l0,0c0-0.1,0.1-0.1,0.1-0.2c0.1,0,0.1-0.1,0.2-0.1l0,0
				c0.1,0,0.2,0,0.3,0.1c0.1,0.1,0.1,0.2,0.1,0.3l0,0C140.8,13.7,140.8,13.7,140.8,13.8z M141.3,15.6L141.3,15.6
				c0.1,0.2,0.3,0.4,0.6,0.5c0.2,0.1,0.5,0.2,0.8,0.2l0,0c0.3,0,0.7-0.1,0.9-0.2c0.3-0.2,0.5-0.4,0.8-0.6c0.2-0.3,0.4-0.6,0.6-0.9
				c0.2-0.3,0.3-0.7,0.5-1l0,0c0-0.1,0.1-0.1,0.1-0.2c0.1,0,0.1-0.1,0.2-0.1l0,0c0.1,0,0.2,0,0.3,0.1c0.1,0.1,0.1,0.2,0.1,0.3l0,0
				c0,0,0,0.1,0,0.1c0,0,0,0.1,0,0.1l0,0c-0.5,1.1-1,1.9-1.6,2.4c-0.6,0.5-1.2,0.8-1.9,0.8l0,0c-0.5,0-0.9-0.1-1.2-0.3
				c-0.3-0.2-0.6-0.4-0.8-0.7c-0.2-0.3-0.4-0.6-0.5-1c-0.1-0.4-0.2-0.7-0.2-1.1l0,0c0-0.4,0-0.7,0.1-1c0.1-0.3,0.2-0.6,0.4-0.8
				c0.2-0.2,0.4-0.4,0.6-0.5c0.2-0.1,0.5-0.2,0.7-0.2l0,0c0.2,0,0.3,0,0.5,0.1c0.2,0.1,0.3,0.2,0.4,0.3c0.1,0.1,0.2,0.3,0.3,0.4
				c0.1,0.2,0.1,0.4,0.1,0.6l0,0c0,0.3,0,0.6-0.1,0.8c-0.1,0.2-0.2,0.5-0.4,0.7c-0.2,0.2-0.4,0.4-0.6,0.6
				C141.9,15.3,141.6,15.4,141.3,15.6z M141,14.9L141,14.9c0.2-0.1,0.4-0.2,0.6-0.3c0.2-0.1,0.3-0.3,0.5-0.5
				c0.1-0.2,0.2-0.3,0.3-0.5c0.1-0.2,0.1-0.4,0.1-0.6l0,0c0-0.2-0.1-0.4-0.2-0.5c-0.1-0.1-0.2-0.2-0.4-0.2l0,0
				c-0.2,0-0.3,0.1-0.5,0.2c-0.1,0.1-0.2,0.2-0.3,0.4c-0.1,0.2-0.1,0.4-0.2,0.6c0,0.2-0.1,0.4-0.1,0.6l0,0c0,0.1,0,0.3,0,0.4
				C141,14.6,141,14.8,141,14.9z M168.6,15L168.6,15c0,0,0,0.1-0.1,0.2c-0.1,0.1-0.2,0.2-0.3,0.4c-0.1,0.1-0.3,0.3-0.5,0.5
				c-0.2,0.2-0.5,0.3-0.7,0.5c-0.3,0.1-0.6,0.3-1,0.4c-0.4,0.1-0.8,0.1-1.2,0.1l0,0c-0.7,0-1.3-0.1-1.9-0.3
				c-0.6-0.2-1.2-0.4-1.7-0.7c-0.6-0.3-1.1-0.6-1.6-0.9c-0.5-0.3-1.1-0.6-1.6-0.9l0,0c-0.3,0.6-0.7,1-1.2,1.4
				c-0.4,0.4-0.9,0.6-1.4,0.8c-0.5,0.2-0.9,0.3-1.4,0.4c-0.5,0.1-0.9,0.1-1.3,0.1l0,0c-0.4,0-0.8,0-1.2-0.1
				c-0.4-0.1-0.8-0.2-1.1-0.4s-0.6-0.4-0.8-0.7c-0.2-0.3-0.3-0.7-0.3-1.1l0,0c0-0.4,0.1-0.8,0.3-1.1c0.2-0.3,0.5-0.6,0.8-0.9
				c0.3-0.2,0.7-0.4,1.2-0.5c0.5-0.1,1-0.2,1.5-0.2l0,0c0.4,0,0.8,0,1.2,0.1c0.4,0.1,0.8,0.2,1.2,0.3c0.4,0.1,0.7,0.3,1.1,0.4
				c0.4,0.1,0.7,0.3,1,0.5l0,0c0-0.1,0.1-0.3,0.1-0.4c0-0.1,0.1-0.3,0.1-0.4c0-0.1,0-0.3,0-0.5c0-0.2,0-0.4,0-0.6l0,0
				c0-0.2,0-0.4,0-0.7c0-0.2,0-0.4,0-0.7c0-0.2,0-0.5,0-0.8c0-0.3,0-0.7,0-1.1l0,0c0-1,0.1-1.9,0.3-2.7c0.2-0.8,0.5-1.5,0.9-2.1
				c0.4-0.6,0.9-1,1.4-1.4s1.2-0.5,2-0.5l0,0c0.5,0,0.9,0.1,1.3,0.2c0.4,0.1,0.8,0.4,1.1,0.6c0.3,0.3,0.6,0.6,0.8,1
				c0.2,0.4,0.3,0.8,0.3,1.2l0,0c0,0.3,0,0.5-0.1,0.8c-0.1,0.3-0.2,0.5-0.3,0.7c-0.1,0.2-0.3,0.4-0.4,0.6c-0.2,0.1-0.3,0.2-0.5,0.2
				l0,0c-0.1,0-0.2,0-0.3-0.1c-0.1-0.1-0.1-0.1-0.1-0.3l0,0c0-0.1,0-0.2,0.1-0.2c0-0.1,0.1-0.1,0.1-0.2l0,0c0.2-0.2,0.4-0.4,0.5-0.7
				c0.1-0.3,0.2-0.6,0.2-0.9l0,0c0-0.3-0.1-0.7-0.2-0.9c-0.1-0.3-0.3-0.5-0.6-0.7c-0.2-0.2-0.5-0.4-0.8-0.5c-0.3-0.1-0.6-0.2-1-0.2
				l0,0c-0.7,0-1.2,0.1-1.7,0.4c-0.5,0.3-0.9,0.7-1.2,1.2c-0.3,0.5-0.5,1.1-0.7,1.9s-0.2,1.5-0.2,2.4l0,0c0,0.4,0,0.8,0,1.1
				c0,0.3,0,0.6,0,0.9s0,0.5,0,0.8c0,0.2,0,0.5,0,0.7l0,0c0,0.1,0,0.3,0,0.5c0,0.2,0,0.3-0.1,0.5c0,0.2-0.1,0.4-0.1,0.5
				c0,0.2-0.1,0.3-0.2,0.5l0,0c0.5,0.3,1.1,0.6,1.6,0.9c0.5,0.3,1,0.6,1.6,0.9c0.5,0.3,1.1,0.5,1.6,0.6c0.6,0.2,1.2,0.3,1.8,0.3l0,0
				c0.6,0,1-0.1,1.4-0.3c0.4-0.2,0.7-0.4,1-0.6c0.3-0.2,0.5-0.4,0.6-0.6c0.1-0.2,0.2-0.3,0.2-0.3l0,0c0.1-0.1,0.2-0.2,0.3-0.2l0,0
				c0.1,0,0.2,0,0.3,0.1c0.1,0.1,0.1,0.2,0.1,0.3l0,0C168.7,14.9,168.6,14.9,168.6,15z M157.1,13.9L157.1,13.9
				c-0.3-0.1-0.6-0.3-0.9-0.4c-0.3-0.1-0.7-0.3-1-0.4c-0.3-0.1-0.7-0.2-1.1-0.3c-0.4-0.1-0.7-0.1-1.1-0.1l0,0c-0.4,0-0.8,0-1.2,0.1
				c-0.4,0.1-0.7,0.2-0.9,0.4c-0.3,0.2-0.5,0.4-0.6,0.6c-0.2,0.2-0.2,0.5-0.2,0.8l0,0c0,0.3,0.1,0.5,0.2,0.7
				c0.1,0.2,0.3,0.4,0.6,0.5c0.2,0.1,0.5,0.2,0.8,0.3c0.3,0.1,0.6,0.1,1,0.1l0,0c0.4,0,0.8,0,1.3-0.1c0.4-0.1,0.8-0.2,1.2-0.4
				c0.4-0.2,0.8-0.4,1.1-0.7C156.5,14.8,156.8,14.4,157.1,13.9z M174.3,15.6L174.3,15.6c-0.2,0-0.3,0-0.5,0l0,0
				c-0.1,0.2-0.2,0.4-0.4,0.6c-0.1,0.2-0.3,0.3-0.5,0.5c-0.2,0.1-0.4,0.2-0.6,0.3c-0.2,0.1-0.5,0.1-0.8,0.1l0,0
				c-0.3,0-0.6-0.1-0.9-0.2c-0.3-0.1-0.5-0.3-0.7-0.5c-0.2-0.2-0.4-0.5-0.5-0.7c-0.1-0.3-0.2-0.6-0.2-1l0,0c0-0.4,0.1-0.8,0.2-1.2
				c0.2-0.3,0.3-0.6,0.5-0.8c0.2-0.2,0.4-0.4,0.6-0.5c0.2-0.1,0.4-0.2,0.5-0.2l0,0c0.1,0,0.2,0,0.3,0.1c0.1,0.1,0.1,0.1,0.1,0.3l0,0
				c0,0.1,0,0.2-0.1,0.3c-0.1,0.1-0.2,0.1-0.3,0.2l0,0c-0.1,0.1-0.2,0.1-0.4,0.2c-0.1,0.1-0.2,0.2-0.3,0.4c-0.1,0.2-0.2,0.3-0.3,0.5
				c-0.1,0.2-0.1,0.4-0.1,0.7l0,0c0,0.2,0,0.4,0.1,0.6c0.1,0.2,0.2,0.4,0.3,0.5c0.1,0.1,0.3,0.3,0.5,0.3c0.2,0.1,0.4,0.1,0.6,0.1
				l0,0c0.4,0,0.7-0.1,1-0.3c0.3-0.2,0.5-0.4,0.6-0.7l0,0c-0.4-0.2-0.8-0.5-1-0.9c-0.3-0.4-0.4-0.8-0.4-1.3l0,0c0-0.4,0.1-0.7,0.3-1
				c0.2-0.2,0.4-0.4,0.8-0.4l0,0c0.2,0,0.4,0,0.5,0.1c0.2,0.1,0.3,0.2,0.4,0.4c0.1,0.2,0.2,0.4,0.3,0.8c0.1,0.3,0.1,0.7,0.1,1.1l0,0
				c0,0.2,0,0.5-0.1,0.7l0,0c0,0,0.1,0,0.1,0c0,0,0.1,0,0.1,0l0,0c0.2,0,0.4,0,0.6-0.1c0.2-0.1,0.4-0.1,0.5-0.3s0.3-0.3,0.4-0.4
				c0.1-0.2,0.2-0.4,0.4-0.6l0,0c0,0,0.1-0.1,0.1-0.1c0.1,0,0.1-0.1,0.2-0.1l0,0c0.1,0,0.2,0,0.3,0.1c0.1,0.1,0.1,0.2,0.1,0.3l0,0
				c0,0.1,0,0.1,0,0.2c0,0.1-0.1,0.1-0.1,0.2l0,0c-0.1,0.2-0.3,0.4-0.4,0.6c-0.2,0.2-0.3,0.4-0.6,0.5c-0.2,0.1-0.4,0.3-0.7,0.3
				C174.9,15.5,174.6,15.6,174.3,15.6z M172.5,12.9L172.5,12.9c0,0.1,0,0.3,0.1,0.4c0,0.1,0.1,0.3,0.2,0.4c0.1,0.1,0.2,0.3,0.3,0.4
				c0.1,0.1,0.2,0.2,0.4,0.3l0,0c0-0.1,0-0.3,0-0.4l0,0c0-0.2,0-0.4,0-0.6c0-0.2-0.1-0.4-0.1-0.5c0-0.2-0.1-0.3-0.2-0.4
				c-0.1-0.1-0.2-0.2-0.3-0.2l0,0c0,0-0.1,0-0.2,0.1C172.5,12.6,172.5,12.7,172.5,12.9z M180,17.7L180,17.7c1.3-1.7,2.2-3.1,2.7-4.2
				l0,0c0-0.1,0.1-0.1,0.1-0.2c0.1,0,0.1-0.1,0.2-0.1l0,0c0.1,0,0.2,0,0.3,0.1c0.1,0.1,0.1,0.2,0.1,0.3l0,0c0,0,0,0.1,0,0.1l0,0
				c-0.3,0.7-0.7,1.5-1.3,2.3c-0.6,0.9-1.3,1.8-2.1,2.9l0,0c0,0.4,0,0.9,0,1.3c0,0.4,0,0.9,0,1.4l0,0c0,0.5,0,1,0,1.5
				c0,0.5-0.1,1-0.1,1.5c-0.1,0.5-0.1,0.9-0.3,1.3c-0.1,0.4-0.3,0.7-0.4,1c-0.2,0.3-0.4,0.5-0.6,0.7c-0.2,0.2-0.5,0.2-0.8,0.2l0,0
				c-0.5,0-0.8-0.2-1.1-0.5c-0.2-0.4-0.4-0.9-0.4-1.5l0,0c0-0.3,0-0.7,0.1-1.1c0.1-0.4,0.2-0.8,0.3-1.3s0.3-0.9,0.5-1.3
				c0.2-0.4,0.4-0.9,0.6-1.3c0.2-0.4,0.5-0.8,0.7-1.2c0.3-0.4,0.5-0.7,0.8-1l0,0c0-0.5,0-1,0-1.5c0-0.5,0-0.9,0-1.3l0,0
				c-0.2,0.3-0.5,0.5-0.7,0.6c-0.3,0.1-0.6,0.2-0.9,0.2l0,0c-0.2,0-0.5,0-0.7-0.1c-0.2-0.1-0.4-0.2-0.5-0.4
				c-0.1-0.2-0.2-0.4-0.3-0.6c-0.1-0.2-0.1-0.5-0.1-0.8l0,0c0-0.5,0.1-1,0.3-1.4c0.2-0.4,0.4-0.8,0.7-1c0.3-0.3,0.6-0.5,0.9-0.6
				c0.3-0.1,0.7-0.2,1-0.2l0,0c0.2,0,0.4,0,0.6,0.1c0.2,0.1,0.3,0.1,0.5,0.2c0.1,0.1,0.2,0.1,0.3,0.2c0.1,0.1,0.1,0.1,0.1,0.1l0,0
				c0.1,0.1,0.1,0.2,0.1,0.3l0,0c0,0.1,0,0.2-0.1,0.3c-0.1,0.1-0.2,0.1-0.3,0.1l0,0c-0.1,0-0.2,0-0.3-0.1l0,0c0,0-0.1-0.1-0.1-0.1
				s-0.1-0.1-0.2-0.1c-0.1,0-0.2-0.1-0.3-0.1c-0.1,0-0.2,0-0.4,0l0,0c-0.2,0-0.4,0-0.7,0.1c-0.3,0.1-0.5,0.2-0.7,0.4
				c-0.2,0.2-0.4,0.5-0.5,0.8c-0.1,0.3-0.2,0.7-0.2,1.1l0,0c0,0.3,0.1,0.6,0.2,0.8c0.1,0.2,0.4,0.3,0.7,0.3l0,0c0.1,0,0.3,0,0.5-0.1
				c0.2-0.1,0.3-0.2,0.5-0.4c0.2-0.2,0.3-0.4,0.4-0.7c0.1-0.3,0.2-0.6,0.2-0.9l0,0c0-0.1,0.1-0.2,0.1-0.2c0.1-0.1,0.2-0.1,0.3-0.1
				l0,0c0.1,0,0.2,0,0.3,0.1c0.1,0.1,0.1,0.2,0.1,0.3l0,0c0,0,0,0.1,0,0.3c0,0.2,0,0.5,0,0.8c0,0.3,0,0.7,0,1.2
				C180,16.8,180,17.2,180,17.7z M179.2,20L179.2,20c-0.3,0.5-0.6,0.9-0.9,1.5c-0.3,0.5-0.5,1.1-0.7,1.6c-0.2,0.5-0.3,1.1-0.4,1.6
				c-0.1,0.5-0.1,1-0.1,1.4l0,0c0,0.3,0,0.5,0.1,0.6c0,0.2,0.1,0.3,0.2,0.4c0.1,0.1,0.1,0.1,0.2,0.2s0.2,0,0.2,0l0,0
				c0.2,0,0.4-0.1,0.6-0.3c0.2-0.2,0.3-0.4,0.4-0.7c0.1-0.3,0.2-0.6,0.3-1c0.1-0.4,0.1-0.8,0.2-1.2c0-0.4,0.1-0.8,0.1-1.2
				c0-0.4,0-0.8,0-1.1l0,0c0-0.3,0-0.6,0-0.9C179.2,20.6,179.2,20.3,179.2,20z M190.8,13.8L190.8,13.8c0,0.1-0.1,0.2-0.2,0.4
				c-0.1,0.2-0.2,0.4-0.3,0.6c-0.1,0.2-0.3,0.5-0.5,0.7c-0.2,0.2-0.4,0.5-0.6,0.7c-0.2,0.2-0.5,0.4-0.7,0.5
				c-0.3,0.1-0.5,0.2-0.8,0.2l0,0c-0.4,0-0.7-0.1-1-0.4c-0.3-0.3-0.5-0.6-0.6-1l0,0c-0.2,0.4-0.5,0.7-0.8,0.9
				c-0.3,0.2-0.6,0.3-1,0.3l0,0c-0.3,0-0.5,0-0.7-0.1c-0.2-0.1-0.4-0.2-0.5-0.4c-0.1-0.2-0.3-0.4-0.3-0.6c-0.1-0.2-0.1-0.5-0.1-0.8
				l0,0c0-0.5,0.1-1,0.3-1.4c0.2-0.4,0.4-0.8,0.7-1c0.3-0.3,0.6-0.5,0.9-0.6c0.3-0.1,0.7-0.2,1-0.2l0,0c0.2,0,0.4,0,0.6,0.1
				c0.2,0.1,0.3,0.1,0.5,0.2c0.1,0.1,0.2,0.1,0.3,0.2c0.1,0.1,0.1,0.1,0.1,0.1l0,0c0.1,0.1,0.1,0.2,0.1,0.3l0,0c0,0.1,0,0.2-0.1,0.3
				c-0.1,0.1-0.2,0.1-0.3,0.1l0,0c-0.1,0-0.2,0-0.3-0.1l0,0c0,0,0,0-0.1-0.1c0,0-0.1-0.1-0.2-0.1c-0.1,0-0.2-0.1-0.3-0.1
				s-0.2,0-0.4,0l0,0c-0.2,0-0.4,0-0.7,0.1c-0.2,0.1-0.5,0.2-0.7,0.5c-0.2,0.2-0.4,0.5-0.5,0.8c-0.1,0.3-0.2,0.7-0.2,1.1l0,0
				c0,0.1,0,0.3,0,0.4c0,0.1,0.1,0.3,0.1,0.4c0.1,0.1,0.2,0.2,0.3,0.3c0.1,0.1,0.3,0.1,0.4,0.1l0,0c0.1,0,0.3,0,0.4-0.1
				c0.2-0.1,0.3-0.2,0.5-0.4c0.1-0.2,0.3-0.4,0.4-0.7c0.1-0.3,0.2-0.6,0.3-0.9l0,0c0-0.1,0.1-0.2,0.1-0.2c0.1-0.1,0.2-0.1,0.3-0.1
				l0,0c0.1,0,0.2,0,0.3,0.1c0.1,0.1,0.1,0.2,0.1,0.3l0,0c0,0.1,0,0.3,0,0.6c0,0.2,0.1,0.5,0.1,0.7c0.1,0.2,0.2,0.4,0.3,0.6
				c0.1,0.2,0.3,0.3,0.6,0.3l0,0c0.2,0,0.3,0,0.5-0.1c0.2-0.1,0.3-0.2,0.5-0.4c0.2-0.1,0.3-0.3,0.4-0.5c0.1-0.2,0.3-0.4,0.4-0.6
				s0.2-0.4,0.3-0.6c0.1-0.2,0.2-0.3,0.2-0.5l0,0c0-0.1,0.1-0.1,0.1-0.2c0.1,0,0.1-0.1,0.2-0.1l0,0c0.1,0,0.2,0,0.3,0.1
				c0.1,0.1,0.1,0.2,0.1,0.3l0,0C190.8,13.7,190.8,13.7,190.8,13.8z M192.3,15.8L192.3,15.8c0.1-0.2,0.2-0.5,0.4-0.8
				c0.1-0.3,0.3-0.6,0.5-0.8s0.3-0.6,0.5-0.8c0.2-0.3,0.4-0.5,0.6-0.8l0,0c0.2-0.2,0.4-0.4,0.6-0.5c0.2-0.1,0.4-0.2,0.6-0.2l0,0
				c0.4,0,0.6,0.1,0.8,0.4c0.2,0.3,0.3,0.6,0.3,1l0,0c0,0.1,0,0.2,0,0.3c0,0.1,0,0.3,0,0.4c0,0.1,0,0.3,0,0.4c0,0.1,0,0.3,0,0.4l0,0
				c0,0.2,0,0.3,0,0.5c0,0.2,0,0.3,0.1,0.4c0,0.1,0.1,0.2,0.2,0.3c0.1,0.1,0.2,0.1,0.4,0.1l0,0c0.3,0,0.5-0.1,0.8-0.3
				c0.2-0.2,0.5-0.4,0.7-0.7c0.2-0.3,0.4-0.6,0.5-0.9c0.2-0.3,0.3-0.5,0.4-0.7l0,0c0-0.1,0.1-0.1,0.1-0.2c0.1,0,0.1-0.1,0.2-0.1l0,0
				c0.1,0,0.2,0,0.3,0.1c0.1,0.1,0.1,0.2,0.1,0.3l0,0c0,0,0,0.1,0,0.1l0,0c0,0.1-0.1,0.2-0.2,0.3c-0.1,0.2-0.2,0.4-0.3,0.6
				c-0.1,0.2-0.3,0.5-0.5,0.7c-0.2,0.3-0.4,0.5-0.6,0.7c-0.2,0.2-0.5,0.4-0.7,0.5c-0.3,0.1-0.5,0.2-0.8,0.2l0,0
				c-0.3,0-0.6-0.1-0.8-0.2c-0.2-0.1-0.3-0.3-0.5-0.5c-0.1-0.2-0.2-0.4-0.2-0.7c0-0.2-0.1-0.5-0.1-0.7l0,0c0-0.1,0-0.2,0-0.4
				s0-0.3,0-0.4c0-0.1,0-0.3,0-0.4c0-0.1,0-0.3,0-0.4l0,0c0-0.2,0-0.4-0.1-0.5c-0.1-0.1-0.1-0.1-0.2-0.1l0,0c-0.1,0-0.2,0.1-0.4,0.2
				c-0.1,0.1-0.3,0.3-0.4,0.5c-0.2,0.2-0.3,0.4-0.5,0.7c-0.2,0.3-0.3,0.5-0.5,0.8c-0.1,0.3-0.3,0.5-0.4,0.7
				c-0.1,0.2-0.2,0.4-0.3,0.6l0,0c-0.1,0.3-0.3,0.5-0.4,0.6c-0.1,0.1-0.3,0.1-0.4,0.1l0,0c-0.2,0-0.4-0.1-0.5-0.2
				c-0.1-0.1-0.2-0.3-0.2-0.5l0,0c0,0,0-0.1,0-0.3c0-0.1,0-0.3,0-0.5c0-0.2,0-0.4,0.1-0.6c0-0.2,0-0.5,0.1-0.7c0-0.2,0-0.4,0.1-0.6
				c0-0.2,0-0.4,0-0.5l0,0c0-0.2,0-0.3,0-0.5c0-0.2,0-0.3-0.1-0.3l0,0c-0.1,0-0.2,0.1-0.3,0.4c-0.2,0.2-0.4,0.7-0.6,1.3l0,0
				c0,0.1-0.1,0.1-0.2,0.2c-0.1,0-0.1,0.1-0.2,0.1l0,0c-0.1,0-0.2,0-0.3-0.1c-0.1-0.1-0.1-0.2-0.1-0.3l0,0c0,0,0-0.1,0-0.2l0,0
				c0.3-0.7,0.6-1.3,0.9-1.6c0.3-0.4,0.5-0.5,0.8-0.5l0,0c0.2,0,0.3,0,0.4,0.1c0.1,0.1,0.2,0.2,0.3,0.3c0.1,0.1,0.1,0.3,0.1,0.4
				c0,0.2,0,0.3,0,0.5l0,0c0,0.1,0,0.3,0,0.6c0,0.3,0,0.6-0.1,0.9c0,0.3,0,0.6-0.1,0.9S192.4,15.6,192.3,15.8z M219.6,1.6L219.6,1.6
				c0,0.2-0.1,0.5-0.2,0.7c-0.1,0.2-0.3,0.5-0.5,0.7c-0.2,0.2-0.4,0.4-0.7,0.5c-0.3,0.2-0.5,0.3-0.8,0.4l0,0c-0.1,0.3-0.1,0.6-0.2,1
				c0,0.4-0.1,0.8-0.1,1.2l0,0c0,0.5,0,1.1-0.1,1.6c0,0.5-0.1,1.1-0.1,1.6l0,0c0.6,0,1.2,0,1.8-0.1c0.7,0,1.4,0,2.1-0.1
				c0.7,0,1.5,0,2.2-0.1c0.8,0,1.5,0,2.3,0l0,0c0.1-1.1,0.2-2.1,0.4-3c0.2-0.9,0.4-1.6,0.7-2.2s0.7-1,1.1-1.3
				c0.4-0.3,0.9-0.5,1.4-0.5l0,0c0.1,0,0.2,0,0.3,0c0.1,0,0.2,0,0.4,0.1c0.1,0,0.2,0.1,0.3,0.2c0.1,0.1,0.1,0.2,0.1,0.3l0,0
				c0,0,0,0.1,0,0.1c0,0,0,0.1,0,0.1l0,0c-0.1,0.1-0.2,0.2-0.3,0.2l0,0c-0.1,0-0.1,0-0.1,0c0,0-0.1,0-0.1,0c0,0-0.1,0-0.2-0.1
				c-0.1,0-0.2,0-0.3,0l0,0c-0.1,0-0.2,0-0.4,0.1c-0.2,0-0.3,0.1-0.5,0.3c-0.2,0.1-0.4,0.3-0.6,0.6c-0.2,0.3-0.4,0.6-0.6,1.1
				c-0.2,0.5-0.3,1-0.4,1.7c-0.1,0.7-0.2,1.5-0.3,2.4l0,0c0.5,0,0.9,0,1.4,0c0.4,0,0.9,0,1.3,0l0,0c0.1,0,0.2,0,0.3,0.1
				c0.1,0.1,0.1,0.2,0.1,0.3l0,0c0,0.1,0,0.2-0.1,0.3c-0.1,0.1-0.2,0.1-0.3,0.1l0,0c-0.1,0-0.3,0-0.4,0c-0.1,0-0.3,0-0.5,0
				c-0.2,0-0.4,0-0.7,0c-0.3,0-0.6,0-1,0l0,0c0,0.1,0,0.2,0,0.3c0,0.1,0,0.2,0,0.3l0,0c0,0.8,0,1.4,0.1,2.1c0.1,0.6,0.1,1.1,0.2,1.6
				c0.1,0.5,0.2,0.9,0.3,1.2c0.1,0.3,0.2,0.6,0.3,0.8c0.1,0.2,0.2,0.4,0.2,0.5c0.1,0.1,0.1,0.1,0.1,0.1l0,0c0,0.1,0.1,0.1,0.1,0.2
				l0,0c0,0.1,0,0.2-0.1,0.3c-0.1,0.1-0.2,0.1-0.3,0.1l0,0c-0.1,0-0.2-0.1-0.3-0.2l0,0c0,0-0.1-0.2-0.2-0.4
				c-0.1-0.2-0.3-0.6-0.5-1.2c-0.2-0.5-0.3-1.2-0.5-2.1c-0.1-0.8-0.2-1.9-0.2-3.1l0,0V9.9c-0.8,0-1.5,0-2.3,0c-0.8,0-1.5,0-2.3,0
				c-0.7,0-1.4,0-2.1,0.1c-0.7,0-1.3,0-1.8,0.1l0,0c-0.1,1-0.3,1.9-0.6,2.7c-0.3,0.9-0.7,1.6-1.2,2.2c-0.5,0.6-1.2,1.2-2,1.5
				c-0.8,0.4-1.8,0.6-2.9,0.6l0,0c-0.6,0-1.2-0.1-1.8-0.2c-0.6-0.1-1.1-0.3-1.6-0.5c-0.5-0.2-0.9-0.5-1.3-0.8
				c-0.4-0.3-0.7-0.7-1-1.1l0,0c0-0.1-0.1-0.1-0.1-0.2l0,0c0-0.1,0-0.2,0.1-0.3c0.1-0.1,0.2-0.1,0.3-0.1l0,0c0.1,0,0.1,0,0.2,0
				c0.1,0,0.1,0.1,0.1,0.1l0,0c0.2,0.3,0.5,0.7,0.8,0.9c0.3,0.3,0.7,0.5,1.2,0.7c0.4,0.2,0.9,0.4,1.4,0.5c0.5,0.1,1,0.2,1.6,0.2l0,0
				c1,0,1.9-0.2,2.6-0.5c0.7-0.3,1.3-0.8,1.7-1.3s0.8-1.2,1-2c0.2-0.8,0.4-1.6,0.5-2.4l0,0c-0.7,0-1.2,0.1-1.6,0.1
				c-0.4,0-0.6,0-0.6,0l0,0c-0.1,0-0.2,0-0.3-0.1c-0.1-0.1-0.1-0.2-0.1-0.3l0,0c0-0.1,0-0.2,0.1-0.3c0.1-0.1,0.2-0.1,0.3-0.1l0,0
				c0,0,0.2,0,0.6,0c0.4,0,1,0,1.7-0.1l0,0c0.1-0.5,0.1-1.1,0.1-1.6c0-0.5,0.1-1.1,0.1-1.7l0,0c0-0.4,0-0.7,0.1-1
				c0-0.3,0.1-0.6,0.1-0.9l0,0c-0.2,0-0.3,0.1-0.5,0.1c-0.2,0-0.4,0-0.6,0l0,0c-0.6,0-1.2,0-1.8-0.1c-0.6-0.1-1.2-0.2-1.8-0.3
				c-0.6-0.1-1.2-0.2-1.8-0.3c-0.6-0.1-1.2-0.1-1.8-0.1l0,0c-0.5,0-1,0.1-1.4,0.2c-0.4,0.1-0.8,0.3-1.2,0.5
				c-0.3,0.2-0.6,0.5-0.8,0.8c-0.2,0.3-0.3,0.7-0.3,1.2l0,0c0,0.3,0.1,0.5,0.2,0.8c0.1,0.2,0.2,0.4,0.4,0.6c0.1,0.2,0.3,0.3,0.4,0.4
				c0.1,0.1,0.2,0.1,0.2,0.2l0,0c0.1,0.1,0.2,0.2,0.2,0.3l0,0c0,0.1,0,0.2-0.1,0.3c-0.1,0.1-0.2,0.1-0.3,0.1l0,0c0,0-0.1,0-0.1,0
				c0,0-0.1,0-0.1-0.1l0,0c-0.2-0.1-0.3-0.2-0.5-0.4c-0.2-0.2-0.3-0.3-0.5-0.5c-0.1-0.2-0.3-0.5-0.4-0.7c-0.1-0.3-0.1-0.6-0.1-0.9
				l0,0c0-0.6,0.1-1.1,0.4-1.6c0.3-0.4,0.6-0.8,1-1.1c0.4-0.3,0.9-0.5,1.4-0.6c0.5-0.1,1.1-0.2,1.6-0.2l0,0c0.6,0,1.2,0,1.8,0.1
				c0.6,0.1,1.2,0.2,1.8,0.3c0.6,0.1,1.2,0.2,1.8,0.3c0.6,0.1,1.2,0.1,1.8,0.1l0,0c0.2,0,0.5,0,0.7,0c0.2,0,0.4-0.1,0.6-0.1l0,0
				c0.1-0.4,0.3-0.8,0.4-1.1c0.2-0.3,0.3-0.6,0.5-0.8c0.2-0.2,0.4-0.4,0.6-0.5c0.2-0.1,0.4-0.1,0.5-0.1l0,0c0.2,0,0.4,0.1,0.6,0.2
				C219.6,1.2,219.6,1.4,219.6,1.6z M218.8,1.6L218.8,1.6c-0.1,0-0.1,0-0.2,0.1c-0.1,0.1-0.2,0.1-0.3,0.3c-0.1,0.1-0.2,0.3-0.3,0.5
				c-0.1,0.2-0.2,0.4-0.3,0.7l0,0c0.2-0.1,0.4-0.2,0.6-0.4c0.2-0.2,0.3-0.3,0.4-0.5c0.1-0.2,0.2-0.3,0.2-0.4
				C218.9,1.6,218.9,1.6,218.8,1.6z M234.3,15.6L234.3,15.6c-0.2,0-0.3,0-0.5,0l0,0c-0.1,0.2-0.2,0.4-0.4,0.6
				c-0.1,0.2-0.3,0.3-0.5,0.5c-0.2,0.1-0.4,0.2-0.6,0.3c-0.2,0.1-0.5,0.1-0.8,0.1l0,0c-0.3,0-0.6-0.1-0.9-0.2
				c-0.3-0.1-0.5-0.3-0.7-0.5c-0.2-0.2-0.4-0.5-0.5-0.7c-0.1-0.3-0.2-0.6-0.2-1l0,0c0-0.4,0.1-0.8,0.2-1.2c0.2-0.3,0.3-0.6,0.5-0.8
				c0.2-0.2,0.4-0.4,0.6-0.5c0.2-0.1,0.4-0.2,0.5-0.2l0,0c0.1,0,0.2,0,0.3,0.1c0.1,0.1,0.1,0.1,0.1,0.3l0,0c0,0.1,0,0.2-0.1,0.3
				c-0.1,0.1-0.2,0.1-0.3,0.2l0,0c-0.1,0.1-0.2,0.1-0.4,0.2c-0.1,0.1-0.2,0.2-0.3,0.4c-0.1,0.2-0.2,0.3-0.3,0.5
				c-0.1,0.2-0.1,0.4-0.1,0.7l0,0c0,0.2,0,0.4,0.1,0.6c0.1,0.2,0.2,0.4,0.3,0.5c0.1,0.1,0.3,0.3,0.5,0.3c0.2,0.1,0.4,0.1,0.6,0.1
				l0,0c0.4,0,0.7-0.1,1-0.3c0.3-0.2,0.5-0.4,0.6-0.7l0,0c-0.4-0.2-0.8-0.5-1-0.9c-0.3-0.4-0.4-0.8-0.4-1.3l0,0c0-0.4,0.1-0.7,0.3-1
				c0.2-0.2,0.4-0.4,0.8-0.4l0,0c0.2,0,0.4,0,0.5,0.1c0.2,0.1,0.3,0.2,0.4,0.4s0.2,0.4,0.3,0.8c0.1,0.3,0.1,0.7,0.1,1.1l0,0
				c0,0.2,0,0.5-0.1,0.7l0,0c0,0,0.1,0,0.1,0c0,0,0.1,0,0.1,0l0,0c0.2,0,0.4,0,0.6-0.1c0.2-0.1,0.4-0.1,0.5-0.3
				c0.2-0.1,0.3-0.3,0.4-0.4c0.1-0.2,0.2-0.4,0.4-0.6l0,0c0,0,0.1-0.1,0.1-0.1c0.1,0,0.1-0.1,0.2-0.1l0,0c0.1,0,0.2,0,0.3,0.1
				c0.1,0.1,0.1,0.2,0.1,0.3l0,0c0,0.1,0,0.1,0,0.2c0,0.1-0.1,0.1-0.1,0.2l0,0c-0.1,0.2-0.3,0.4-0.4,0.6c-0.2,0.2-0.3,0.4-0.6,0.5
				c-0.2,0.1-0.4,0.3-0.7,0.3C234.9,15.5,234.6,15.6,234.3,15.6z M232.5,12.9L232.5,12.9c0,0.1,0,0.3,0.1,0.4s0.1,0.3,0.2,0.4
				c0.1,0.1,0.2,0.3,0.3,0.4c0.1,0.1,0.2,0.2,0.4,0.3l0,0c0-0.1,0-0.3,0-0.4l0,0c0-0.2,0-0.4,0-0.6c0-0.2-0.1-0.4-0.1-0.5
				c0-0.2-0.1-0.3-0.2-0.4c-0.1-0.1-0.2-0.2-0.3-0.2l0,0c0,0-0.1,0-0.2,0.1C232.5,12.6,232.5,12.7,232.5,12.9z M242.2,13.8
				L242.2,13.8c-0.1,0.2-0.2,0.3-0.3,0.6c-0.1,0.2-0.2,0.4-0.4,0.7c-0.1,0.2-0.3,0.5-0.5,0.7c-0.2,0.2-0.4,0.4-0.6,0.6
				c-0.2,0.2-0.4,0.3-0.7,0.4c-0.2,0.1-0.5,0.2-0.8,0.2l0,0c-0.4,0-0.8-0.1-1.1-0.4c-0.3-0.3-0.6-0.6-0.8-1
				c-0.2-0.4-0.4-0.9-0.5-1.4c-0.1-0.5-0.2-1.1-0.3-1.6c-0.1-0.6-0.1-1.1-0.1-1.6c0-0.5,0-1,0-1.4l0,0c0-0.6,0-1.2,0.1-1.8
				c0-0.6,0.1-1.2,0.2-1.8c0.1-0.6,0.2-1.2,0.3-1.7c0.1-0.5,0.3-1,0.5-1.4c0.2-0.4,0.4-0.7,0.6-1c0.2-0.2,0.5-0.4,0.8-0.4l0,0
				c0.2,0,0.4,0.1,0.6,0.2c0.2,0.1,0.3,0.3,0.5,0.5c0.1,0.2,0.2,0.6,0.3,0.9C240,3.5,240,4,240,4.6l0,0c0,0.7-0.1,1.4-0.2,2.2
				c-0.1,0.7-0.3,1.5-0.6,2.2c-0.2,0.8-0.5,1.5-0.9,2.2c-0.3,0.7-0.7,1.5-1.1,2.2l0,0c0.2,0.9,0.4,1.6,0.7,2.1
				c0.3,0.5,0.6,0.8,1.1,0.8l0,0c0.3,0,0.5-0.1,0.8-0.3c0.3-0.2,0.5-0.5,0.7-0.8c0.2-0.3,0.4-0.6,0.6-0.9c0.2-0.3,0.3-0.6,0.4-0.7
				l0,0c0-0.1,0.1-0.1,0.1-0.2c0.1,0,0.1-0.1,0.2-0.1l0,0c0.1,0,0.2,0,0.3,0.1c0.1,0.1,0.1,0.2,0.1,0.3l0,0
				C242.2,13.7,242.2,13.7,242.2,13.8z M236.9,9.6L236.9,9.6c0,0.4,0,0.9,0,1.3c0,0.4,0,0.8,0.1,1.2l0,0c0.3-0.6,0.6-1.2,0.8-1.8
				c0.3-0.6,0.5-1.3,0.7-1.9c0.2-0.7,0.4-1.3,0.5-1.9c0.1-0.6,0.2-1.3,0.2-1.8l0,0c0-0.8-0.1-1.4-0.2-1.8c-0.1-0.4-0.3-0.5-0.5-0.5
				l0,0c-0.1,0-0.3,0.1-0.4,0.3c-0.1,0.2-0.3,0.5-0.4,0.8c-0.1,0.3-0.2,0.8-0.3,1.2c-0.1,0.5-0.2,1-0.2,1.5
				c-0.1,0.5-0.1,1.1-0.2,1.7C237,8.5,236.9,9,236.9,9.6z M247.4,13.8L247.4,13.8c-0.1,0.2-0.2,0.3-0.3,0.6
				c-0.1,0.2-0.2,0.4-0.4,0.7c-0.1,0.2-0.3,0.5-0.5,0.7c-0.2,0.2-0.4,0.4-0.6,0.6c-0.2,0.2-0.4,0.3-0.7,0.4
				c-0.2,0.1-0.5,0.2-0.8,0.2l0,0c-0.4,0-0.8-0.1-1.1-0.4c-0.3-0.3-0.6-0.6-0.8-1c-0.2-0.4-0.4-0.9-0.5-1.4
				c-0.1-0.5-0.2-1.1-0.3-1.6c-0.1-0.6-0.1-1.1-0.1-1.6c0-0.5,0-1,0-1.4l0,0c0-0.6,0-1.2,0.1-1.8c0-0.6,0.1-1.2,0.2-1.8
				c0.1-0.6,0.2-1.2,0.3-1.7c0.1-0.5,0.3-1,0.5-1.4c0.2-0.4,0.4-0.7,0.6-1c0.2-0.2,0.5-0.4,0.8-0.4l0,0c0.2,0,0.4,0.1,0.6,0.2
				c0.2,0.1,0.3,0.3,0.5,0.5c0.1,0.2,0.2,0.6,0.3,0.9c0.1,0.4,0.1,0.9,0.1,1.4l0,0c0,0.7-0.1,1.4-0.2,2.2c-0.1,0.7-0.3,1.5-0.6,2.2
				c-0.2,0.8-0.5,1.5-0.9,2.2c-0.3,0.7-0.7,1.5-1.1,2.2l0,0c0.2,0.9,0.4,1.6,0.7,2.1c0.3,0.5,0.6,0.8,1.1,0.8l0,0
				c0.3,0,0.5-0.1,0.8-0.3c0.3-0.2,0.5-0.5,0.7-0.8c0.2-0.3,0.4-0.6,0.6-0.9c0.2-0.3,0.3-0.6,0.4-0.7l0,0c0-0.1,0.1-0.1,0.1-0.2
				c0.1,0,0.1-0.1,0.2-0.1l0,0c0.1,0,0.2,0,0.3,0.1c0.1,0.1,0.1,0.2,0.1,0.3l0,0C247.4,13.7,247.4,13.7,247.4,13.8z M242.2,9.6
				L242.2,9.6c0,0.4,0,0.9,0,1.3c0,0.4,0,0.8,0.1,1.2l0,0c0.3-0.6,0.6-1.2,0.8-1.8c0.3-0.6,0.5-1.3,0.7-1.9c0.2-0.7,0.4-1.3,0.5-1.9
				c0.1-0.6,0.2-1.3,0.2-1.8l0,0c0-0.8-0.1-1.4-0.2-1.8c-0.1-0.4-0.3-0.5-0.5-0.5l0,0c-0.1,0-0.3,0.1-0.4,0.3
				c-0.1,0.2-0.3,0.5-0.4,0.8c-0.1,0.3-0.2,0.8-0.3,1.2c-0.1,0.5-0.2,1-0.2,1.5c-0.1,0.5-0.1,1.1-0.2,1.7S242.2,9,242.2,9.6z
				 M254.7,13.8L254.7,13.8c0,0.1-0.1,0.2-0.2,0.4c-0.1,0.2-0.2,0.4-0.3,0.6c-0.1,0.2-0.3,0.5-0.5,0.7c-0.2,0.2-0.4,0.5-0.6,0.7
				c-0.2,0.2-0.5,0.4-0.7,0.5c-0.3,0.1-0.5,0.2-0.8,0.2l0,0c-0.4,0-0.7-0.1-1-0.4c-0.3-0.3-0.5-0.6-0.6-1l0,0
				c-0.2,0.4-0.5,0.7-0.8,0.9c-0.3,0.2-0.7,0.3-1,0.3l0,0c-0.3,0-0.5,0-0.7-0.1c-0.2-0.1-0.4-0.2-0.5-0.4c-0.1-0.2-0.3-0.4-0.3-0.6
				c-0.1-0.2-0.1-0.5-0.1-0.8l0,0c0-0.5,0.1-1,0.3-1.4c0.2-0.4,0.4-0.8,0.7-1s0.6-0.5,0.9-0.6c0.3-0.1,0.7-0.2,1-0.2l0,0
				c0.2,0,0.4,0,0.6,0.1c0.2,0.1,0.3,0.1,0.5,0.2c0.1,0.1,0.2,0.1,0.3,0.2c0.1,0.1,0.1,0.1,0.1,0.1l0,0c0.1,0.1,0.1,0.2,0.1,0.3l0,0
				c0,0.1,0,0.2-0.1,0.3c-0.1,0.1-0.2,0.1-0.3,0.1l0,0c-0.1,0-0.2,0-0.3-0.1l0,0c0,0,0,0-0.1-0.1c0,0-0.1-0.1-0.2-0.1
				c-0.1,0-0.2-0.1-0.3-0.1c-0.1,0-0.2,0-0.4,0l0,0c-0.2,0-0.4,0-0.7,0.1c-0.2,0.1-0.5,0.2-0.7,0.5c-0.2,0.2-0.4,0.5-0.5,0.8
				s-0.2,0.7-0.2,1.1l0,0c0,0.1,0,0.3,0,0.4c0,0.1,0.1,0.3,0.1,0.4c0.1,0.1,0.2,0.2,0.3,0.3c0.1,0.1,0.3,0.1,0.4,0.1l0,0
				c0.1,0,0.3,0,0.4-0.1c0.2-0.1,0.3-0.2,0.5-0.4c0.1-0.2,0.3-0.4,0.4-0.7c0.1-0.3,0.2-0.6,0.3-0.9l0,0c0-0.1,0.1-0.2,0.1-0.2
				c0.1-0.1,0.2-0.1,0.3-0.1l0,0c0.1,0,0.2,0,0.3,0.1c0.1,0.1,0.1,0.2,0.1,0.3l0,0c0,0.1,0,0.3,0,0.6c0,0.2,0.1,0.5,0.1,0.7
				c0.1,0.2,0.2,0.4,0.3,0.6c0.1,0.2,0.3,0.3,0.6,0.3l0,0c0.2,0,0.3,0,0.5-0.1c0.2-0.1,0.3-0.2,0.5-0.4c0.2-0.1,0.3-0.3,0.4-0.5
				c0.1-0.2,0.3-0.4,0.4-0.6c0.1-0.2,0.2-0.4,0.3-0.6c0.1-0.2,0.2-0.3,0.2-0.5l0,0c0-0.1,0.1-0.1,0.1-0.2c0.1,0,0.1-0.1,0.2-0.1l0,0
				c0.1,0,0.2,0,0.3,0.1c0.1,0.1,0.1,0.2,0.1,0.3l0,0C254.8,13.7,254.7,13.7,254.7,13.8z M256.3,15.8L256.3,15.8
				c0.1-0.2,0.2-0.5,0.4-0.8c0.1-0.3,0.3-0.6,0.5-0.8c0.2-0.3,0.3-0.6,0.5-0.8c0.2-0.3,0.4-0.5,0.6-0.8l0,0c0.2-0.2,0.4-0.4,0.6-0.5
				c0.2-0.1,0.4-0.2,0.6-0.2l0,0c0.4,0,0.6,0.1,0.8,0.4c0.2,0.3,0.3,0.6,0.3,1l0,0c0,0.1,0,0.2,0,0.3c0,0.1,0,0.3,0,0.4
				c0,0.1,0,0.3,0,0.4c0,0.1,0,0.3,0,0.4l0,0c0,0.2,0,0.3,0,0.5c0,0.2,0,0.3,0.1,0.4c0,0.1,0.1,0.2,0.2,0.3c0.1,0.1,0.2,0.1,0.4,0.1
				l0,0c0.3,0,0.5-0.1,0.8-0.3c0.3-0.2,0.5-0.4,0.7-0.7c0.2-0.3,0.4-0.6,0.6-0.9c0.2-0.3,0.3-0.5,0.3-0.7l0,0c0-0.1,0.1-0.1,0.1-0.2
				c0.1,0,0.1-0.1,0.2-0.1l0,0c0.1,0,0.2,0,0.3,0.1c0.1,0.1,0.1,0.2,0.1,0.3l0,0c0,0,0,0.1,0,0.1l0,0c0,0.1-0.1,0.2-0.2,0.3
				c-0.1,0.2-0.2,0.4-0.3,0.6c-0.1,0.2-0.3,0.5-0.5,0.7c-0.2,0.3-0.4,0.5-0.6,0.7c-0.2,0.2-0.5,0.4-0.7,0.5
				c-0.3,0.1-0.5,0.2-0.8,0.2l0,0c-0.3,0-0.6-0.1-0.8-0.2s-0.3-0.3-0.5-0.5c-0.1-0.2-0.2-0.4-0.2-0.7c0-0.2-0.1-0.5-0.1-0.7l0,0
				c0-0.1,0-0.2,0-0.4c0-0.1,0-0.3,0-0.4c0-0.1,0-0.3,0-0.4s0-0.3,0-0.4l0,0c0-0.2,0-0.4-0.1-0.5c-0.1-0.1-0.1-0.1-0.2-0.1l0,0
				c-0.1,0-0.2,0.1-0.4,0.2c-0.1,0.1-0.3,0.3-0.4,0.5c-0.2,0.2-0.3,0.4-0.5,0.7s-0.3,0.5-0.5,0.8c-0.1,0.3-0.3,0.5-0.4,0.7
				c-0.1,0.2-0.2,0.4-0.3,0.6l0,0c-0.1,0.3-0.3,0.5-0.4,0.6c-0.1,0.1-0.3,0.1-0.4,0.1l0,0c-0.2,0-0.4-0.1-0.5-0.2
				c-0.1-0.1-0.2-0.3-0.2-0.5l0,0c0,0,0-0.1,0-0.3c0-0.1,0-0.3,0.1-0.5c0-0.2,0-0.4,0.1-0.6c0-0.2,0-0.5,0.1-0.7
				c0-0.2,0-0.4,0.1-0.6c0-0.2,0-0.4,0-0.5l0,0c0-0.2,0-0.3,0-0.5c0-0.2,0-0.3-0.1-0.3l0,0c-0.1,0-0.2,0.1-0.3,0.4
				c-0.2,0.2-0.4,0.7-0.6,1.3l0,0c0,0.1-0.1,0.1-0.2,0.2c-0.1,0-0.1,0.1-0.2,0.1l0,0c-0.1,0-0.2,0-0.3-0.1c-0.1-0.1-0.1-0.2-0.1-0.3
				l0,0c0,0,0-0.1,0-0.2l0,0c0.3-0.7,0.6-1.3,0.9-1.6c0.3-0.4,0.5-0.5,0.8-0.5l0,0c0.2,0,0.3,0,0.4,0.1c0.1,0.1,0.2,0.2,0.3,0.3
				c0.1,0.1,0.1,0.3,0.1,0.4c0,0.2,0,0.3,0,0.5l0,0c0,0.1,0,0.3,0,0.6c0,0.3,0,0.6-0.1,0.9c0,0.3-0.1,0.6-0.1,0.9
				S256.3,15.6,256.3,15.8z M267.5,13.7L267.5,13.7c0.3,1.6,0.8,2.4,1.5,2.4l0,0c0.3,0,0.5-0.1,0.7-0.3s0.4-0.4,0.6-0.7
				c0.2-0.3,0.4-0.5,0.5-0.8c0.2-0.3,0.3-0.6,0.4-0.8l0,0c0.1-0.2,0.2-0.2,0.4-0.2l0,0c0.1,0,0.2,0,0.3,0.1c0.1,0.1,0.1,0.2,0.1,0.3
				l0,0c0,0.1,0,0.1,0,0.1l0,0c0,0.1-0.1,0.3-0.2,0.5c-0.1,0.2-0.2,0.4-0.3,0.6c-0.1,0.2-0.3,0.5-0.5,0.7c-0.2,0.2-0.4,0.4-0.5,0.6
				c-0.2,0.2-0.4,0.3-0.6,0.5c-0.2,0.1-0.5,0.2-0.7,0.2l0,0c-0.5,0-0.9-0.2-1.2-0.5c-0.3-0.3-0.6-0.9-0.9-1.6l0,0
				c-0.3,0.7-0.7,1.2-1,1.5c-0.3,0.3-0.7,0.5-1.1,0.5l0,0c-0.2,0-0.4,0-0.6-0.1c-0.2-0.1-0.4-0.2-0.5-0.3c-0.1-0.2-0.3-0.3-0.4-0.6
				c-0.1-0.2-0.1-0.5-0.1-0.9l0,0c0-0.5,0.1-0.9,0.3-1.3c0.2-0.4,0.4-0.7,0.6-1s0.6-0.5,0.9-0.7s0.6-0.2,1-0.2l0,0
				c0.1,0,0.2,0,0.3,0.1c0.1,0.1,0.1,0.2,0.1,0.3l0,0c0,0.1,0,0.2-0.1,0.3c-0.1,0.1-0.1,0.1-0.3,0.1l0,0c-0.2,0-0.4,0.1-0.7,0.2
				c-0.2,0.1-0.5,0.3-0.7,0.5c-0.2,0.2-0.4,0.5-0.5,0.8c-0.1,0.3-0.2,0.7-0.2,1.1l0,0c0,0.3,0.1,0.6,0.2,0.8
				c0.1,0.2,0.4,0.3,0.6,0.3l0,0c0.1,0,0.2,0,0.4-0.1c0.1-0.1,0.3-0.2,0.4-0.3c0.1-0.2,0.3-0.4,0.5-0.7s0.4-0.7,0.6-1.3l0,0
				c-0.1-0.6-0.2-1.3-0.3-2.1c-0.1-0.8-0.1-1.7-0.1-2.7l0,0c0-0.4,0-0.9,0-1.3c0-0.5,0.1-0.9,0.1-1.4c0.1-0.4,0.1-0.9,0.3-1.3
				c0.1-0.4,0.2-0.8,0.4-1.1s0.3-0.5,0.5-0.7c0.2-0.2,0.4-0.3,0.7-0.3l0,0c0.2,0,0.4,0.1,0.6,0.2s0.3,0.3,0.4,0.5
				c0.1,0.2,0.2,0.5,0.2,0.8c0,0.3,0.1,0.7,0.1,1l0,0c0,0.8-0.1,1.6-0.2,2.4c-0.1,0.8-0.3,1.6-0.5,2.3c-0.2,0.7-0.4,1.4-0.7,2
				C267.9,12.7,267.7,13.2,267.5,13.7z M268.8,5.3L268.8,5.3c0-0.2,0-0.4,0-0.6c0-0.2,0-0.4-0.1-0.6c0-0.2-0.1-0.3-0.2-0.4
				c-0.1-0.1-0.1-0.2-0.2-0.2l0,0c-0.2,0-0.3,0.2-0.5,0.5c-0.1,0.3-0.3,0.7-0.4,1.2c-0.1,0.5-0.2,1.1-0.3,1.7
				c-0.1,0.6-0.1,1.3-0.1,1.9l0,0c0,0.6,0,1.2,0.1,1.8c0,0.6,0.1,1.2,0.2,1.6l0,0c0.2-0.5,0.4-1.1,0.6-1.7c0.2-0.6,0.3-1.1,0.5-1.7
				c0.1-0.6,0.2-1.2,0.3-1.8C268.7,6.5,268.8,5.9,268.8,5.3z M278.6,18.1L278.6,18.1c0,0.1,0,0.2-0.1,0.3c-0.1,0.1-0.2,0.1-0.3,0.1
				l0,0c-0.1,0-0.2,0-0.3-0.1c-0.1-0.1-0.1-0.2-0.1-0.3l0,0c0,0,0-0.1,0-0.2c0-0.2,0-0.4,0-0.6c0-0.3,0-0.6,0-0.9c0-0.4,0-0.8,0-1.2
				l0,0c0-0.4,0-0.8,0-1.3c0-0.4,0-0.9,0-1.3c0-0.4,0-0.9,0-1.3c0-0.4,0-0.8,0-1.1l0,0c0-0.5,0-1,0-1.6c0-0.6,0-1.2-0.1-1.9
				c0-0.6,0-1.3-0.1-1.9c0-0.6,0-1.2,0-1.6c0-0.5,0-0.9,0-1.2s0-0.5,0-0.5l0,0c0-0.1,0-0.2,0.1-0.3c0.1-0.1,0.2-0.1,0.3-0.1l0,0
				c0.1,0,0.2,0,0.3,0.1c0.1,0.1,0.1,0.2,0.1,0.3l0,0c0,0,0,0.2,0,0.5c0,0.3,0,0.7,0,1.2c0,0.5,0,1,0.1,1.6c0,0.6,0,1.2,0.1,1.9
				c0,0.6,0,1.3,0,1.9c0,0.6,0,1.1,0,1.6l0,0c0,0.3,0,0.7,0,1c0,0.4,0,0.8,0,1.2c0,0.4,0,0.8,0,1.2c0,0.4,0,0.8,0,1.2l0,0
				c0,0.5,0,0.9,0,1.3c0,0.4,0,0.8,0,1.1c0,0.3,0,0.6,0,0.8S278.6,18.1,278.6,18.1z M304.3,15L304.3,15c0,0,0,0.1-0.1,0.2
				c-0.1,0.1-0.2,0.2-0.3,0.4c-0.1,0.1-0.3,0.3-0.5,0.5c-0.2,0.2-0.5,0.3-0.7,0.5c-0.3,0.1-0.6,0.3-1,0.4c-0.4,0.1-0.8,0.1-1.2,0.1
				l0,0c-0.7,0-1.3-0.1-1.9-0.3c-0.6-0.2-1.2-0.4-1.7-0.7c-0.6-0.3-1.1-0.6-1.6-0.9c-0.5-0.3-1.1-0.6-1.6-0.9l0,0
				c-0.3,0.6-0.7,1-1.2,1.4c-0.4,0.4-0.9,0.6-1.4,0.8c-0.5,0.2-0.9,0.3-1.4,0.4c-0.5,0.1-0.9,0.1-1.3,0.1l0,0c-0.4,0-0.8,0-1.2-0.1
				c-0.4-0.1-0.7-0.2-1.1-0.4s-0.6-0.4-0.8-0.7c-0.2-0.3-0.3-0.7-0.3-1.1l0,0c0-0.4,0.1-0.8,0.3-1.1c0.2-0.3,0.5-0.6,0.8-0.9
				c0.3-0.2,0.7-0.4,1.2-0.5c0.5-0.1,1-0.2,1.5-0.2l0,0c0.4,0,0.8,0,1.2,0.1c0.4,0.1,0.8,0.2,1.2,0.3c0.4,0.1,0.7,0.3,1.1,0.4
				c0.4,0.1,0.7,0.3,1,0.5l0,0c0-0.1,0.1-0.3,0.1-0.4c0-0.1,0.1-0.3,0.1-0.4c0-0.1,0-0.3,0.1-0.5c0-0.2,0-0.4,0-0.6l0,0
				c0-0.2,0-0.4,0-0.7c0-0.2,0-0.4,0-0.7c0-0.2,0-0.5,0-0.8c0-0.3,0-0.7,0-1.1l0,0c0-1,0.1-1.9,0.3-2.7c0.2-0.8,0.5-1.5,0.9-2.1
				c0.4-0.6,0.9-1,1.4-1.4s1.2-0.5,2-0.5l0,0c0.5,0,0.9,0.1,1.3,0.2c0.4,0.1,0.8,0.4,1.1,0.6c0.3,0.3,0.6,0.6,0.8,1
				c0.2,0.4,0.3,0.8,0.3,1.2l0,0c0,0.3,0,0.5-0.1,0.8c-0.1,0.3-0.2,0.5-0.3,0.7c-0.1,0.2-0.3,0.4-0.4,0.6c-0.2,0.1-0.3,0.2-0.5,0.2
				l0,0c-0.1,0-0.2,0-0.3-0.1c-0.1-0.1-0.1-0.1-0.1-0.3l0,0c0-0.1,0-0.2,0.1-0.2c0-0.1,0.1-0.1,0.1-0.2l0,0c0.2-0.2,0.4-0.4,0.5-0.7
				c0.1-0.3,0.2-0.6,0.2-0.9l0,0c0-0.3-0.1-0.7-0.2-0.9c-0.1-0.3-0.3-0.5-0.6-0.7c-0.2-0.2-0.5-0.4-0.8-0.5c-0.3-0.1-0.6-0.2-1-0.2
				l0,0c-0.7,0-1.2,0.1-1.7,0.4c-0.5,0.3-0.9,0.7-1.2,1.2c-0.3,0.5-0.5,1.1-0.7,1.9c-0.1,0.7-0.2,1.5-0.2,2.4l0,0c0,0.4,0,0.8,0,1.1
				c0,0.3,0,0.6,0,0.9c0,0.3,0,0.5,0,0.8c0,0.2,0,0.5,0,0.7l0,0c0,0.1,0,0.3,0,0.5c0,0.2,0,0.3-0.1,0.5c0,0.2-0.1,0.4-0.1,0.5
				c0,0.2-0.1,0.3-0.1,0.5l0,0c0.5,0.3,1,0.6,1.6,0.9c0.5,0.3,1,0.6,1.6,0.9s1.1,0.5,1.6,0.6c0.6,0.2,1.2,0.3,1.8,0.3l0,0
				c0.6,0,1-0.1,1.4-0.3c0.4-0.2,0.7-0.4,1-0.6c0.3-0.2,0.5-0.4,0.6-0.6c0.1-0.2,0.2-0.3,0.2-0.3l0,0c0.1-0.1,0.2-0.2,0.3-0.2l0,0
				c0.1,0,0.2,0,0.3,0.1c0.1,0.1,0.1,0.2,0.1,0.3l0,0C304.3,14.9,304.3,14.9,304.3,15z M292.7,13.9L292.7,13.9
				c-0.3-0.1-0.6-0.3-0.9-0.4c-0.3-0.1-0.7-0.3-1-0.4c-0.3-0.1-0.7-0.2-1.1-0.3c-0.4-0.1-0.7-0.1-1.1-0.1l0,0c-0.4,0-0.8,0-1.2,0.1
				c-0.4,0.1-0.7,0.2-0.9,0.4c-0.3,0.2-0.5,0.4-0.6,0.6c-0.2,0.2-0.2,0.5-0.2,0.8l0,0c0,0.3,0.1,0.5,0.2,0.7
				c0.1,0.2,0.3,0.4,0.6,0.5c0.2,0.1,0.5,0.2,0.8,0.3c0.3,0.1,0.6,0.1,1,0.1l0,0c0.4,0,0.8,0,1.2-0.1c0.4-0.1,0.9-0.2,1.3-0.4
				c0.4-0.2,0.8-0.4,1.1-0.7C292.2,14.8,292.5,14.4,292.7,13.9z M306.4,15.6L306.4,15.6c0.1,0.2,0.3,0.4,0.6,0.5
				c0.2,0.1,0.5,0.2,0.8,0.2l0,0c0.3,0,0.7-0.1,0.9-0.2c0.3-0.2,0.5-0.4,0.8-0.6c0.2-0.3,0.4-0.6,0.6-0.9c0.2-0.3,0.3-0.7,0.5-1l0,0
				c0-0.1,0.1-0.1,0.1-0.2c0.1,0,0.1-0.1,0.2-0.1l0,0c0.1,0,0.2,0,0.3,0.1c0.1,0.1,0.1,0.2,0.1,0.3l0,0c0,0,0,0.1,0,0.1
				c0,0,0,0.1,0,0.1l0,0c-0.5,1.1-1,1.9-1.6,2.4c-0.6,0.5-1.2,0.8-1.9,0.8l0,0c-0.5,0-0.9-0.1-1.2-0.3c-0.3-0.2-0.6-0.4-0.8-0.7
				c-0.2-0.3-0.4-0.6-0.5-1c-0.1-0.4-0.2-0.7-0.2-1.1l0,0c0-0.4,0-0.7,0.1-1c0.1-0.3,0.2-0.6,0.4-0.8c0.2-0.2,0.4-0.4,0.6-0.5
				c0.2-0.1,0.5-0.2,0.7-0.2l0,0c0.2,0,0.3,0,0.5,0.1c0.2,0.1,0.3,0.2,0.4,0.3c0.1,0.1,0.2,0.3,0.3,0.4c0.1,0.2,0.1,0.4,0.1,0.6l0,0
				c0,0.3,0,0.6-0.1,0.8c-0.1,0.2-0.2,0.5-0.4,0.7c-0.2,0.2-0.4,0.4-0.6,0.6C306.9,15.3,306.6,15.4,306.4,15.6z M306.1,14.9
				L306.1,14.9c0.2-0.1,0.4-0.2,0.6-0.3c0.2-0.1,0.3-0.3,0.5-0.5c0.1-0.2,0.2-0.3,0.3-0.5c0.1-0.2,0.1-0.4,0.1-0.6l0,0
				c0-0.2-0.1-0.4-0.2-0.5c-0.1-0.1-0.2-0.2-0.4-0.2l0,0c-0.2,0-0.3,0.1-0.5,0.2c-0.1,0.1-0.2,0.2-0.3,0.4c-0.1,0.2-0.1,0.4-0.2,0.6
				c0,0.2-0.1,0.4-0.1,0.6l0,0c0,0.1,0,0.3,0,0.4S306,14.8,306.1,14.9z M318.6,13.8L318.6,13.8c0,0.1-0.1,0.2-0.2,0.4
				c-0.1,0.2-0.2,0.4-0.3,0.6c-0.1,0.2-0.3,0.5-0.5,0.7c-0.2,0.2-0.4,0.5-0.6,0.7c-0.2,0.2-0.5,0.4-0.7,0.5
				c-0.3,0.1-0.5,0.2-0.8,0.2l0,0c-0.4,0-0.7-0.1-1-0.4c-0.3-0.3-0.5-0.6-0.6-1l0,0c-0.2,0.4-0.5,0.7-0.8,0.9
				c-0.3,0.2-0.7,0.3-1,0.3l0,0c-0.3,0-0.5,0-0.7-0.1c-0.2-0.1-0.4-0.2-0.5-0.4s-0.3-0.4-0.3-0.6c-0.1-0.2-0.1-0.5-0.1-0.8l0,0
				c0-0.5,0.1-1,0.3-1.4c0.2-0.4,0.4-0.8,0.7-1c0.3-0.3,0.6-0.5,0.9-0.6c0.3-0.1,0.7-0.2,1-0.2l0,0c0.2,0,0.4,0,0.6,0.1
				c0.2,0.1,0.3,0.1,0.5,0.2c0.1,0.1,0.2,0.1,0.3,0.2c0.1,0.1,0.1,0.1,0.1,0.1l0,0c0.1,0.1,0.1,0.2,0.1,0.3l0,0c0,0.1,0,0.2-0.1,0.3
				c-0.1,0.1-0.2,0.1-0.3,0.1l0,0c-0.1,0-0.2,0-0.3-0.1l0,0c0,0,0,0-0.1-0.1c0,0-0.1-0.1-0.2-0.1c-0.1,0-0.2-0.1-0.3-0.1
				c-0.1,0-0.2,0-0.4,0l0,0c-0.2,0-0.4,0-0.7,0.1c-0.2,0.1-0.5,0.2-0.7,0.5c-0.2,0.2-0.4,0.5-0.5,0.8s-0.2,0.7-0.2,1.1l0,0
				c0,0.1,0,0.3,0,0.4c0,0.1,0.1,0.3,0.1,0.4c0.1,0.1,0.2,0.2,0.3,0.3c0.1,0.1,0.3,0.1,0.4,0.1l0,0c0.1,0,0.3,0,0.4-0.1
				c0.2-0.1,0.3-0.2,0.5-0.4c0.1-0.2,0.3-0.4,0.4-0.7c0.1-0.3,0.2-0.6,0.3-0.9l0,0c0-0.1,0.1-0.2,0.1-0.2c0.1-0.1,0.2-0.1,0.3-0.1
				l0,0c0.1,0,0.2,0,0.3,0.1c0.1,0.1,0.1,0.2,0.1,0.3l0,0c0,0.1,0,0.3,0,0.6c0,0.2,0.1,0.5,0.1,0.7c0.1,0.2,0.2,0.4,0.3,0.6
				c0.1,0.2,0.3,0.3,0.6,0.3l0,0c0.2,0,0.3,0,0.5-0.1c0.2-0.1,0.3-0.2,0.5-0.4c0.2-0.1,0.3-0.3,0.4-0.5c0.1-0.2,0.3-0.4,0.4-0.6
				s0.2-0.4,0.3-0.6c0.1-0.2,0.2-0.3,0.2-0.5l0,0c0-0.1,0.1-0.1,0.2-0.2c0.1,0,0.1-0.1,0.2-0.1l0,0c0.1,0,0.2,0,0.3,0.1
				c0.1,0.1,0.1,0.2,0.1,0.3l0,0C318.7,13.7,318.7,13.7,318.6,13.8z M322,13.7L322,13.7c0.3,1.6,0.8,2.4,1.5,2.4l0,0
				c0.2,0,0.5-0.1,0.7-0.3c0.2-0.2,0.4-0.4,0.6-0.7c0.2-0.3,0.4-0.5,0.5-0.8c0.2-0.3,0.3-0.6,0.4-0.8l0,0c0.1-0.2,0.2-0.2,0.4-0.2
				l0,0c0.1,0,0.2,0,0.3,0.1c0.1,0.1,0.1,0.2,0.1,0.3l0,0c0,0.1,0,0.1,0,0.1l0,0c0,0.1-0.1,0.3-0.2,0.5c-0.1,0.2-0.2,0.4-0.3,0.6
				c-0.1,0.2-0.3,0.5-0.5,0.7c-0.2,0.2-0.4,0.4-0.6,0.6s-0.4,0.3-0.6,0.5c-0.2,0.1-0.5,0.2-0.7,0.2l0,0c-0.5,0-0.9-0.2-1.2-0.5
				c-0.3-0.3-0.6-0.9-0.9-1.6l0,0c-0.3,0.7-0.7,1.2-1,1.5c-0.3,0.3-0.7,0.5-1.1,0.5l0,0c-0.2,0-0.4,0-0.6-0.1
				c-0.2-0.1-0.4-0.2-0.5-0.3c-0.1-0.2-0.3-0.3-0.4-0.6c-0.1-0.2-0.1-0.5-0.1-0.9l0,0c0-0.5,0.1-0.9,0.3-1.3c0.2-0.4,0.4-0.7,0.6-1
				s0.6-0.5,0.9-0.7c0.3-0.2,0.6-0.2,1-0.2l0,0c0.1,0,0.2,0,0.3,0.1c0.1,0.1,0.1,0.2,0.1,0.3l0,0c0,0.1,0,0.2-0.1,0.3
				c-0.1,0.1-0.1,0.1-0.3,0.1l0,0c-0.2,0-0.4,0.1-0.7,0.2c-0.2,0.1-0.5,0.3-0.7,0.5c-0.2,0.2-0.4,0.5-0.5,0.8
				c-0.1,0.3-0.2,0.7-0.2,1.1l0,0c0,0.3,0.1,0.6,0.2,0.8c0.1,0.2,0.3,0.3,0.6,0.3l0,0c0.1,0,0.2,0,0.4-0.1c0.1-0.1,0.3-0.2,0.4-0.3
				c0.1-0.2,0.3-0.4,0.5-0.7c0.2-0.3,0.4-0.7,0.6-1.3l0,0c-0.1-0.6-0.2-1.3-0.3-2.1c-0.1-0.8-0.1-1.7-0.1-2.7l0,0c0-0.4,0-0.9,0-1.3
				c0-0.5,0.1-0.9,0.1-1.4c0.1-0.4,0.1-0.9,0.3-1.3c0.1-0.4,0.2-0.8,0.4-1.1c0.1-0.3,0.3-0.5,0.5-0.7c0.2-0.2,0.4-0.3,0.7-0.3l0,0
				c0.2,0,0.4,0.1,0.6,0.2c0.2,0.1,0.3,0.3,0.4,0.5c0.1,0.2,0.2,0.5,0.2,0.8c0,0.3,0.1,0.7,0.1,1l0,0c0,0.8-0.1,1.6-0.2,2.4
				c-0.1,0.8-0.3,1.6-0.5,2.3c-0.2,0.7-0.4,1.4-0.7,2C322.4,12.7,322.1,13.2,322,13.7z M323.2,5.3L323.2,5.3c0-0.2,0-0.4,0-0.6
				c0-0.2,0-0.4-0.1-0.6c0-0.2-0.1-0.3-0.1-0.4c-0.1-0.1-0.1-0.2-0.3-0.2l0,0c-0.2,0-0.3,0.2-0.5,0.5c-0.1,0.3-0.3,0.7-0.4,1.2
				c-0.1,0.5-0.2,1.1-0.3,1.7s-0.1,1.3-0.1,1.9l0,0c0,0.6,0,1.2,0.1,1.8c0,0.6,0.1,1.2,0.2,1.6l0,0c0.2-0.5,0.4-1.1,0.6-1.7
				c0.2-0.6,0.3-1.1,0.5-1.7c0.1-0.6,0.2-1.2,0.3-1.8C323.1,6.5,323.2,5.9,323.2,5.3z M348.1,6.7L348.1,6.7c0,0.1,0,0.2-0.1,0.3
				c-0.1,0.1-0.2,0.1-0.3,0.1l0,0c-0.1,0-0.2,0-0.3-0.1c-0.1-0.1-0.1-0.2-0.1-0.3l0,0c0,0,0-0.2,0-0.4c0-0.2-0.1-0.5-0.2-0.9
				c-0.1-0.3-0.3-0.7-0.5-1.1c-0.2-0.4-0.6-0.8-1-1.1c-0.4-0.3-0.9-0.6-1.6-0.8c-0.6-0.2-1.4-0.3-2.3-0.3l0,0
				c-0.8,0-1.6,0.1-2.4,0.4c-0.8,0.2-1.6,0.6-2.3,1c-0.7,0.4-1.4,1-2.1,1.6c-0.6,0.6-1.2,1.3-1.7,2s-0.9,1.5-1.1,2.3
				c-0.3,0.8-0.4,1.7-0.4,2.5l0,0c0,0.8,0.1,1.5,0.3,2c0.2,0.6,0.5,1,0.9,1.4c0.4,0.4,0.8,0.6,1.3,0.8c0.5,0.2,1.1,0.2,1.7,0.2l0,0
				c1,0,2-0.2,2.9-0.5c0.9-0.4,1.7-0.8,2.5-1.4c0.8-0.6,1.5-1.3,2.1-2.1c0.6-0.8,1.2-1.7,1.7-2.6l0,0c0.1-0.8,0.2-1.5,0.3-1.9
				c0.1-0.4,0.4-0.7,0.6-0.7l0,0c0.2,0,0.3,0.1,0.4,0.2c0.1,0.1,0.2,0.3,0.2,0.5l0,0c0,0.2-0.1,0.5-0.2,0.9
				c-0.1,0.4-0.3,0.8-0.5,1.2l0,0c0,0.3,0,0.7,0,1.1l0,0c0,0.6,0,1.2,0.1,1.8c0,0.7,0.1,1.3,0.2,2.1l0,0c0.3-0.1,0.5-0.3,0.7-0.3
				c0.2-0.1,0.3-0.1,0.4-0.1c0.1,0,0.1,0,0.1,0c0,0,0,0,0.1,0l0,0c0.1,0,0.2,0,0.3,0.1c0.1,0.1,0.1,0.2,0.1,0.3l0,0
				c0,0.1,0,0.2-0.1,0.2c0,0.1-0.1,0.1-0.2,0.1l0,0c0,0-0.1,0.1-0.4,0.1c-0.2,0.1-0.5,0.2-0.9,0.4l0,0c0,0.4,0.1,0.8,0.1,1.1
				c0,0.4,0,0.8,0,1.2l0,0c0,0.9-0.1,1.8-0.2,2.6c-0.1,0.8-0.4,1.6-0.7,2.2c-0.3,0.6-0.7,1.1-1.2,1.5c-0.5,0.4-1.1,0.6-1.8,0.6l0,0
				c-0.4,0-0.7-0.1-1-0.2c-0.3-0.1-0.6-0.3-0.8-0.5c-0.2-0.2-0.4-0.5-0.5-0.8c-0.1-0.3-0.2-0.6-0.2-1l0,0c0-0.5,0.1-1,0.3-1.5
				c0.2-0.5,0.4-1,0.7-1.5c0.3-0.5,0.6-0.9,1-1.3c0.4-0.4,0.8-0.8,1.2-1.2c0.4-0.4,0.8-0.7,1.2-0.9c0.4-0.3,0.8-0.5,1.1-0.7l0,0
				c-0.1-0.7-0.2-1.4-0.2-2c-0.1-0.7-0.1-1.3-0.1-2l0,0c-0.6,1-1.3,1.8-2,2.6c-0.7,0.7-1.5,1.4-2.3,1.9c-0.8,0.5-1.6,0.9-2.4,1.1
				c-0.8,0.3-1.7,0.4-2.5,0.4l0,0c-0.8,0-1.4-0.1-2-0.3c-0.6-0.2-1.1-0.6-1.6-1c-0.4-0.4-0.8-1-1-1.6c-0.2-0.6-0.4-1.4-0.4-2.2l0,0
				c0-0.9,0.1-1.8,0.4-2.6c0.3-0.9,0.7-1.7,1.2-2.5c0.5-0.8,1.1-1.5,1.8-2.2c0.7-0.7,1.4-1.2,2.2-1.7c0.8-0.5,1.7-0.9,2.5-1.1
				c0.9-0.3,1.8-0.4,2.7-0.4l0,0c0.9,0,1.7,0.1,2.3,0.3c0.7,0.2,1.2,0.5,1.7,0.8c0.5,0.3,0.8,0.7,1.1,1c0.3,0.4,0.5,0.7,0.7,1.1l0,0
				c0.1,0.3,0.2,0.6,0.3,0.8c0.1,0.3,0.1,0.5,0.2,0.7c0,0.2,0.1,0.4,0.1,0.5C348.1,6.6,348.1,6.7,348.1,6.7z M345.4,16L345.4,16
				c-0.3,0.2-0.7,0.4-1.1,0.7c-0.4,0.3-0.7,0.6-1.1,0.9c-0.3,0.3-0.7,0.7-1,1c-0.3,0.4-0.6,0.7-0.8,1.1c-0.2,0.4-0.4,0.8-0.6,1.2
				c-0.1,0.4-0.2,0.8-0.2,1.3l0,0c0,0.3,0,0.5,0.1,0.7c0.1,0.2,0.2,0.4,0.4,0.5s0.3,0.3,0.5,0.3c0.2,0.1,0.4,0.1,0.7,0.1l0,0
				c1,0,1.7-0.5,2.3-1.6c0.5-1,0.8-2.6,0.8-4.5l0,0c0-0.3,0-0.6,0-0.9S345.5,16.3,345.4,16z M352.4,15.5L352.4,15.5
				c-0.2,0.4-0.5,0.7-0.8,0.9c-0.3,0.2-0.6,0.3-1,0.3l0,0c-0.3,0-0.5,0-0.7-0.1c-0.2-0.1-0.4-0.2-0.5-0.4s-0.3-0.4-0.3-0.6
				c-0.1-0.2-0.1-0.5-0.1-0.8l0,0c0-0.5,0-0.9,0.1-1.3c0.1-0.4,0.2-0.7,0.3-0.9c0.1-0.3,0.2-0.4,0.3-0.6c0.1-0.1,0.1-0.2,0.1-0.2
				l0,0c0,0,0.1-0.1,0.1-0.1c0,0,0.1,0,0.2,0l0,0c0.1,0,0.2,0,0.3,0.1c0.1,0.1,0.1,0.2,0.1,0.3l0,0c0,0,0,0.1,0,0.1
				c0,0,0,0.1-0.1,0.1l0,0c0,0.1-0.1,0.2-0.2,0.3c-0.1,0.1-0.2,0.3-0.2,0.5c-0.1,0.2-0.2,0.5-0.2,0.7c-0.1,0.3-0.1,0.6-0.1,1l0,0
				c0,0.4,0.1,0.7,0.2,0.9c0.2,0.2,0.4,0.3,0.7,0.3l0,0c0.1,0,0.3,0,0.4-0.1c0.2-0.1,0.3-0.2,0.5-0.4c0.2-0.2,0.3-0.4,0.4-0.6
				c0.1-0.3,0.2-0.6,0.2-0.9l0,0l0.2-1.8c0-0.1,0.1-0.2,0.1-0.3c0.1-0.1,0.2-0.1,0.3-0.1l0,0c0.1,0,0.2,0,0.3,0.1
				c0.1,0.1,0.1,0.2,0.1,0.3l0,0l-0.1,1.7c0,0.1,0,0.3,0,0.6c0,0.2,0.1,0.5,0.1,0.7c0.1,0.2,0.2,0.4,0.3,0.6
				c0.2,0.2,0.4,0.2,0.6,0.2l0,0c0.2,0,0.4,0,0.5-0.1c0.2-0.1,0.3-0.2,0.5-0.4s0.3-0.3,0.4-0.5c0.1-0.2,0.3-0.4,0.4-0.6
				c0.1-0.2,0.2-0.4,0.3-0.6c0.1-0.2,0.2-0.3,0.2-0.5l0,0c0-0.1,0.1-0.1,0.1-0.2c0.1,0,0.1-0.1,0.2-0.1l0,0c0.1,0,0.2,0,0.3,0.1
				c0.1,0.1,0.1,0.2,0.1,0.3l0,0c0,0.1,0,0.1,0,0.2l0,0c0,0.1-0.1,0.2-0.2,0.4c-0.1,0.2-0.2,0.4-0.3,0.6c-0.1,0.2-0.3,0.5-0.5,0.7
				c-0.2,0.2-0.4,0.5-0.6,0.7c-0.2,0.2-0.5,0.4-0.7,0.5c-0.3,0.1-0.5,0.2-0.8,0.2l0,0c-0.4,0-0.7-0.1-1-0.3
				C352.7,16.3,352.5,16,352.4,15.5z M358.1,8.5L358.1,8.5c0,0.3-0.1,0.5-0.3,0.7c-0.2,0.2-0.4,0.3-0.7,0.3l0,0
				c-0.3,0-0.5-0.1-0.7-0.3c-0.2-0.2-0.3-0.4-0.3-0.7l0,0c0-0.1,0-0.3,0.1-0.4c0-0.1,0.1-0.2,0.2-0.3c0.1-0.1,0.2-0.2,0.3-0.2
				c0.1,0,0.2-0.1,0.4-0.1l0,0c0.1,0,0.3,0,0.4,0.1c0.1,0,0.2,0.1,0.3,0.2c0.1,0.1,0.2,0.2,0.2,0.3C358,8.3,358.1,8.4,358.1,8.5z
				 M356.4,14.6L356.4,14.6c0-1,0.1-2,0.2-3l0,0c0-0.1,0.1-0.2,0.1-0.3c0.1-0.1,0.2-0.1,0.3-0.1l0,0c0.1,0,0.2,0,0.3,0.1
				c0.1,0.1,0.1,0.2,0.1,0.3l0,0c0,0,0,0.2,0,0.4c0,0.2,0,0.5-0.1,0.7c0,0.3,0,0.6-0.1,0.9c0,0.3,0,0.6,0,0.9l0,0
				c0,0.4,0,0.7,0.1,0.9c0.1,0.2,0.2,0.4,0.3,0.5s0.2,0.2,0.4,0.3c0.1,0,0.3,0.1,0.4,0.1l0,0c0.2,0,0.4-0.1,0.6-0.2
				c0.2-0.1,0.4-0.3,0.6-0.6c0.2-0.2,0.4-0.5,0.7-0.9c0.2-0.3,0.4-0.7,0.7-1.2l0,0c0-0.1,0.1-0.1,0.1-0.2c0.1,0,0.1-0.1,0.2-0.1l0,0
				c0.1,0,0.2,0,0.3,0.1c0.1,0.1,0.1,0.2,0.1,0.3l0,0c0,0.1,0,0.1,0,0.2l0,0c-0.1,0.2-0.2,0.4-0.3,0.6c-0.1,0.2-0.3,0.5-0.4,0.7
				c-0.2,0.2-0.3,0.5-0.5,0.7c-0.2,0.2-0.4,0.5-0.6,0.6c-0.2,0.2-0.4,0.3-0.7,0.5c-0.2,0.1-0.5,0.2-0.7,0.2l0,0
				c-0.3,0-0.6-0.1-0.8-0.2c-0.2-0.1-0.4-0.3-0.6-0.5c-0.2-0.2-0.3-0.5-0.4-0.8C356.4,15.3,356.4,15,356.4,14.6z M357.5,8.5
				L357.5,8.5c0-0.1,0-0.2-0.1-0.3c-0.1-0.1-0.2-0.1-0.3-0.1l0,0c-0.1,0-0.2,0-0.3,0.1c-0.1,0.1-0.1,0.2-0.1,0.3l0,0
				c0,0.1,0,0.2,0.1,0.3c0.1,0.1,0.2,0.1,0.3,0.1l0,0c0.1,0,0.2,0,0.3-0.1C357.4,8.7,357.5,8.6,357.5,8.5z M369.3,6.3L369.3,6.3
				c0,0.1,0,0.2-0.1,0.3c-0.1,0.1-0.2,0.1-0.3,0.1l0,0h-5.3v0.1c0,0.4,0,0.9-0.1,1.4c-0.1,0.5-0.1,1-0.3,1.4
				c-0.1,0.5-0.2,0.9-0.4,1.4c-0.1,0.5-0.3,0.9-0.4,1.2c-0.1,0.4-0.3,0.7-0.4,1c-0.1,0.3-0.3,0.5-0.4,0.6l0,0
				c0.1,0.3,0.2,0.6,0.3,0.9c0.1,0.3,0.3,0.5,0.4,0.7c0.2,0.2,0.3,0.4,0.5,0.5c0.2,0.1,0.4,0.2,0.6,0.2l0,0c0.2,0,0.5-0.1,0.7-0.3
				c0.2-0.2,0.5-0.4,0.7-0.7c0.2-0.3,0.4-0.6,0.5-0.9c0.2-0.3,0.3-0.5,0.3-0.7l0,0c0.1-0.2,0.2-0.2,0.4-0.2l0,0c0.1,0,0.2,0,0.3,0.1
				c0.1,0.1,0.1,0.2,0.1,0.3l0,0c0,0,0,0.1,0,0.1l0,0c0,0-0.1,0.2-0.2,0.3c-0.1,0.2-0.2,0.4-0.3,0.6c-0.1,0.2-0.3,0.5-0.4,0.7
				c-0.2,0.3-0.4,0.5-0.6,0.7c-0.2,0.2-0.4,0.4-0.7,0.5c-0.2,0.1-0.5,0.2-0.8,0.2l0,0c-0.5,0-0.9-0.2-1.3-0.5
				c-0.4-0.3-0.7-0.8-1-1.3c-0.3-0.6-0.5-1.2-0.6-2c-0.1-0.8-0.2-1.6-0.2-2.5l0,0c0-0.2,0-0.5,0-0.8c0-0.3,0-0.6,0-1
				c0-0.3,0-0.7,0.1-1.1c0-0.4,0.1-0.7,0.2-1.1l0,0h-3.7c-0.1,0-0.2,0-0.3-0.1c-0.1-0.1-0.1-0.2-0.1-0.3l0,0c0-0.1,0-0.2,0.1-0.3
				c0.1-0.1,0.2-0.1,0.3-0.1l0,0h3.9c0.1-0.3,0.1-0.5,0.2-0.7c0.1-0.2,0.2-0.4,0.3-0.5c0.1-0.2,0.3-0.3,0.4-0.4
				c0.1-0.1,0.3-0.1,0.5-0.1l0,0c0.2,0,0.3,0,0.5,0.1c0.1,0.1,0.2,0.2,0.3,0.4c0.1,0.2,0.2,0.3,0.2,0.5c0,0.2,0.1,0.4,0.1,0.7l0,0
				h5.3c0.1,0,0.2,0,0.3,0.1C369.3,6.1,369.3,6.2,369.3,6.3z M361.4,12.8L361.4,12.8c0.2-0.5,0.4-1,0.6-1.5c0.2-0.5,0.3-1.1,0.4-1.6
				c0.1-0.5,0.2-1.1,0.3-1.6c0.1-0.5,0.1-1,0.1-1.4l0,0h-1.2c-0.1,0.4-0.2,1-0.2,1.6c-0.1,0.6-0.1,1.4-0.1,2.3l0,0
				c0,0.5,0,0.9,0,1.3C361.3,12.2,361.4,12.5,361.4,12.8z M362.4,5L362.4,5c-0.1,0-0.2,0.1-0.3,0.2c-0.1,0.1-0.2,0.4-0.4,0.7l0,0h1
				c0-0.3-0.1-0.5-0.2-0.7C362.6,5.1,362.5,5,362.4,5z M361.6,13.5L361.6,13.5L361.6,13.5z M373.9,13.8L373.9,13.8
				c0,0.1-0.1,0.2-0.2,0.4c-0.1,0.2-0.2,0.4-0.3,0.6c-0.1,0.2-0.3,0.5-0.5,0.7c-0.2,0.2-0.4,0.5-0.6,0.7c-0.2,0.2-0.5,0.4-0.7,0.5
				c-0.3,0.1-0.5,0.2-0.8,0.2l0,0c-0.4,0-0.7-0.1-1-0.4c-0.3-0.3-0.5-0.6-0.6-1l0,0c-0.2,0.4-0.5,0.7-0.8,0.9
				c-0.3,0.2-0.7,0.3-1,0.3l0,0c-0.3,0-0.5,0-0.7-0.1c-0.2-0.1-0.4-0.2-0.5-0.4s-0.3-0.4-0.3-0.6c-0.1-0.2-0.1-0.5-0.1-0.8l0,0
				c0-0.5,0.1-1,0.3-1.4c0.2-0.4,0.4-0.8,0.7-1c0.3-0.3,0.6-0.5,0.9-0.6c0.3-0.1,0.7-0.2,1-0.2l0,0c0.2,0,0.4,0,0.6,0.1
				c0.2,0.1,0.3,0.1,0.5,0.2c0.1,0.1,0.2,0.1,0.3,0.2c0.1,0.1,0.1,0.1,0.1,0.1l0,0c0.1,0.1,0.1,0.2,0.1,0.3l0,0c0,0.1,0,0.2-0.1,0.3
				c-0.1,0.1-0.2,0.1-0.3,0.1l0,0c-0.1,0-0.2,0-0.3-0.1l0,0c0,0,0,0-0.1-0.1s-0.1-0.1-0.2-0.1c-0.1,0-0.2-0.1-0.3-0.1
				c-0.1,0-0.2,0-0.4,0l0,0c-0.2,0-0.4,0-0.7,0.1c-0.2,0.1-0.5,0.2-0.7,0.5c-0.2,0.2-0.4,0.5-0.5,0.8c-0.1,0.3-0.2,0.7-0.2,1.1l0,0
				c0,0.1,0,0.3,0,0.4c0,0.1,0.1,0.3,0.1,0.4c0.1,0.1,0.2,0.2,0.3,0.3c0.1,0.1,0.3,0.1,0.4,0.1l0,0c0.1,0,0.3,0,0.4-0.1
				c0.2-0.1,0.3-0.2,0.5-0.4c0.1-0.2,0.3-0.4,0.4-0.7c0.1-0.3,0.2-0.6,0.3-0.9l0,0c0-0.1,0.1-0.2,0.1-0.2c0.1-0.1,0.2-0.1,0.3-0.1
				l0,0c0.1,0,0.2,0,0.3,0.1c0.1,0.1,0.1,0.2,0.1,0.3l0,0c0,0.1,0,0.3,0,0.6c0,0.2,0.1,0.5,0.1,0.7c0.1,0.2,0.2,0.4,0.3,0.6
				c0.1,0.2,0.3,0.3,0.6,0.3l0,0c0.2,0,0.3,0,0.5-0.1c0.2-0.1,0.3-0.2,0.5-0.4c0.2-0.1,0.3-0.3,0.4-0.5c0.1-0.2,0.3-0.4,0.4-0.6
				c0.1-0.2,0.2-0.4,0.3-0.6c0.1-0.2,0.2-0.3,0.2-0.5l0,0c0-0.1,0.1-0.1,0.1-0.2c0.1,0,0.1-0.1,0.2-0.1l0,0c0.1,0,0.2,0,0.3,0.1
				c0.1,0.1,0.1,0.2,0.1,0.3l0,0C373.9,13.7,373.9,13.7,373.9,13.8z M374.3,12.4L374.3,12.4c0,0.2-0.1,0.4-0.1,0.5
				c0,0.2-0.1,0.3-0.1,0.4c0,0.1-0.1,0.2-0.1,0.3c0,0.1,0,0.1,0,0.1l0,0c-0.1,0.2-0.2,0.2-0.4,0.2l0,0c-0.1,0-0.2,0-0.3-0.1
				c-0.1-0.1-0.1-0.2-0.1-0.3l0,0c0,0,0-0.1,0-0.1c0,0,0-0.1,0.1-0.1c0-0.1,0.1-0.2,0.1-0.3c0-0.1,0.1-0.4,0.2-0.7l0,0
				c-0.1,0-0.2,0-0.4,0c-0.1,0-0.2,0-0.3-0.1c-0.1,0-0.2-0.1-0.3-0.2c-0.1-0.1-0.1-0.2-0.1-0.4l0,0c0-0.1,0-0.3,0.1-0.5
				c0.1-0.2,0.2-0.4,0.3-0.6c0.1-0.2,0.2-0.4,0.4-0.5c0.1-0.1,0.3-0.2,0.4-0.2l0,0c0.2,0,0.3,0.1,0.4,0.2c0.1,0.1,0.2,0.3,0.2,0.4
				c0.1,0.2,0.1,0.4,0.1,0.5c0,0.2,0,0.4,0,0.5l0,0c0.1,0,0.2,0,0.3,0s0.2,0,0.3,0l0,0c0.4,0,0.7,0.1,0.9,0.3
				c0.2,0.2,0.3,0.5,0.3,0.9l0,0c0,0.2,0,0.3,0,0.5c0,0.2,0,0.3-0.1,0.5c0,0.2-0.1,0.4-0.1,0.5c0,0.2,0,0.4,0,0.5l0,0
				c0,0.3,0,0.5,0.1,0.6c0.1,0.2,0.2,0.3,0.3,0.4c0.1,0.1,0.2,0.2,0.3,0.2s0.2,0.1,0.3,0.1l0,0c0.3,0,0.6-0.1,0.8-0.3
				c0.3-0.2,0.5-0.4,0.7-0.7c0.2-0.3,0.4-0.6,0.6-0.9c0.2-0.3,0.3-0.6,0.4-0.8l0,0c0-0.1,0.1-0.1,0.1-0.1c0.1,0,0.1,0,0.2,0l0,0
				c0.1,0,0.2,0,0.3,0.1c0.1,0.1,0.1,0.2,0.1,0.3l0,0c0,0.1,0,0.1,0,0.2l0,0c-0.2,0.3-0.3,0.6-0.6,1c-0.2,0.4-0.5,0.7-0.7,1
				c-0.3,0.3-0.6,0.6-0.9,0.8c-0.3,0.2-0.7,0.3-1.1,0.3l0,0c-0.2,0-0.5,0-0.7-0.1c-0.2-0.1-0.4-0.2-0.6-0.4
				c-0.2-0.2-0.3-0.4-0.4-0.7c-0.1-0.3-0.1-0.6-0.1-0.9l0,0c0-0.3,0-0.7,0.1-1c0.1-0.3,0.1-0.7,0.1-1l0,0c0-0.1,0-0.2-0.1-0.3
				c-0.1-0.1-0.2-0.1-0.4-0.1l0,0c-0.1,0-0.2,0-0.3,0C374.5,12.4,374.4,12.4,374.3,12.4z M373.1,11.7h0.5c0,0,0-0.1,0-0.2
				c0-0.1,0-0.2,0-0.2c0-0.1,0-0.1,0-0.2c0-0.1,0-0.1-0.1-0.1l0,0c0,0,0,0-0.1,0.1c0,0-0.1,0.1-0.1,0.2c0,0.1-0.1,0.1-0.1,0.2
				C373.1,11.5,373.1,11.6,373.1,11.7L373.1,11.7z"/>
		</g>
	</g>
</g>
</svg>
