<?xml version="1.0" encoding="utf-8"?>
<!-- Generator: Adobe Illustrator 24.2.1, SVG Export Plug-In . SVG Version: 6.00 Build 0)  -->
<svg version="1.1" id="Layer_1" xmlns="http://www.w3.org/2000/svg" xmlns:xlink="http://www.w3.org/1999/xlink" x="0px" y="0px"
	 viewBox="0 0 473.5 88" style="enable-background:new 0 0 473.5 88;" xml:space="preserve">
<style type="text/css">
	.st0{fill:#B6C1D9;}
	.st1{fill:#EFEFEF;}
</style>
<g>
	<g transform="rotate(0 184.5705 0)">
		<g transform="matrix(1 0 0 1 0 0)">
			<path class="st0" d="M192.8,9.2c0,2,0.5,3.7,1.5,5.3c1,1.5,2.3,2.9,3.7,4s3.5,2.6,6,4.2l0,0c2.7,1.8,4.9,3.3,6.6,4.6
				s3,2.9,4.2,4.8c1.2,1.9,1.7,4.1,1.7,6.6l0,0c0,2.9-0.8,5.4-2.3,7.6c-1.5,2.2-3.7,4-6.4,5.2c-2.7,1.2-5.8,1.9-9.1,1.9l0,0
				c-2.5,0-5.1-0.3-7.7-1c-2.7-0.7-4.5-1.4-5.4-2.3l0,0c-0.3-0.2-0.5-0.4-0.6-0.6s-0.2-0.5-0.2-0.9l0,0l-0.2-13.1v-0.1
				c0-0.2,0.1-0.3,0.4-0.4s0.4,0.1,0.5,0.3l0,0c1.6,3.4,3.1,6.1,4.3,8.2c1.2,2.1,2.8,3.9,4.7,5.5c1.9,1.6,4.1,2.4,6.5,2.4l0,0
				c2.2,0,4-0.6,5.4-1.8s2.1-3.2,2.1-6.1l0,0c0-2.4-0.5-4.5-1.6-6.3c-1.1-1.8-2.4-3.4-3.9-4.6c-1.5-1.3-3.7-2.8-6.3-4.5l0,0
				c-2.6-1.7-4.7-3.2-6.1-4.4c-1.5-1.2-2.7-2.7-3.7-4.4c-1-1.7-1.6-3.7-1.6-6l0,0c0-2.9,0.8-5.4,2.5-7.4c1.7-2,3.8-3.5,6.5-4.4
				c2.6-1,5.4-1.4,8.3-1.4l0,0c1.9,0,3.9,0.2,5.9,0.5c2,0.4,3.6,0.8,4.8,1.3l0,0c0.5,0.2,0.8,0.5,1,0.7s0.2,0.6,0.2,0.9l0,0v12.1
				c0,0.2-0.1,0.3-0.4,0.4c-0.3,0.1-0.4,0-0.5-0.1l0,0l-0.7-1.6c-1.4-3.5-3-6.4-4.8-8.8c-1.8-2.4-4.4-3.6-7.7-3.6l0,0
				c-2.2,0-4,0.6-5.4,1.9S192.8,6.8,192.8,9.2L192.8,9.2z M288.7,0.9c0.1,0,0.2,0.2,0.2,0.5s-0.1,0.5-0.2,0.5l0,0
				c-2.2,0-3.9,0.9-5.2,2.6c-1.3,1.7-1.9,4.1-1.9,7l0,0v42.2c0,0.2-0.1,0.3-0.4,0.3c-0.2,0.1-0.4,0-0.5-0.1l0,0l-38.6-44v32.1
				c0,2.9,0.6,5.2,1.8,6.9c1.2,1.7,2.9,2.6,5,2.6l0,0c0.1,0,0.2,0.2,0.2,0.5c0,0.3-0.1,0.5-0.2,0.5l0,0c-1.5,0-2.7,0-3.5-0.1l0,0
				l-4.4-0.1l-5.1,0.1c-0.9,0.1-2.3,0.1-4,0.1l0,0c-0.2,0-0.2-0.2-0.2-0.5c0-0.3,0.1-0.5,0.2-0.5l0,0c2.4,0,4.3-0.9,5.7-2.6
				c1.4-1.7,2.1-4,2.1-6.9l0,0V7.1c-1.8-2-3.4-3.3-4.7-4.1c-1.3-0.7-2.6-1.1-4-1.1l0,0c-0.1,0-0.2-0.2-0.2-0.5s0.1-0.5,0.2-0.5l0,0
				l3.5,0.1c0.7,0.1,1.8,0.1,3.1,0.1l0,0l6.3-0.1c0.8-0.1,1.7-0.1,2.8-0.1l0,0c0.4,0,0.8,0.1,1,0.3c0.2,0.2,0.6,0.7,1.2,1.4l0,0
				c0.9,1.3,1.6,2.1,2,2.6l0,0l28.5,32.9V11.5c0-3-0.6-5.3-1.8-7c-1.2-1.7-2.9-2.6-5-2.6l0,0c-0.1,0-0.2-0.2-0.2-0.5
				s0.1-0.5,0.2-0.5l0,0L276,1c1.8,0.1,3.2,0.2,4.4,0.2l0,0c1.1,0,2.6-0.1,4.6-0.2l0,0L288.7,0.9z"/>
		</g>
	</g>
	<g transform="rotate(0 33.6859 72)">
		<g transform="matrix(1 0 0 1 0 0)">
			<path class="st1" d="M35.4,83.1h6.9v1.5h-8.6V72.7h8.4v1.5h-6.7v3.7h6v1.4h-6V83.1z M52.7,75.6h1.6l-3.9,9h-1.7l-3.9-9h1.7
				l3.1,7.2L52.7,75.6z M65.4,80.2c0,0.1,0,0.3,0,0.5l0,0h-7.3c0.1,0.8,0.5,1.4,1,1.9s1.3,0.7,2.2,0.7l0,0c1.1,0,1.9-0.4,2.6-1.1
				l0,0l0.9,1.1c-0.4,0.5-0.9,0.8-1.5,1.1s-1.3,0.4-2,0.4l0,0c-1,0-1.8-0.2-2.5-0.6c-0.7-0.4-1.3-0.9-1.7-1.6
				c-0.4-0.7-0.6-1.5-0.6-2.4l0,0c0-0.9,0.2-1.7,0.6-2.4c0.4-0.7,0.9-1.2,1.6-1.6s1.5-0.6,2.3-0.6l0,0c0.9,0,1.6,0.2,2.3,0.6
				c0.7,0.4,1.2,0.9,1.6,1.6C65.3,78.4,65.4,79.2,65.4,80.2L65.4,80.2z M61,76.9c-0.8,0-1.4,0.2-2,0.7c-0.5,0.5-0.8,1.1-0.9,1.9l0,0
				h5.8c-0.1-0.8-0.4-1.4-0.9-1.9C62.4,77.1,61.8,76.9,61,76.9L61,76.9z M71,77.1c0.3-0.5,0.7-0.9,1.3-1.2s1.2-0.4,2-0.4l0,0v1.6
				c-0.1,0-0.2,0-0.4,0l0,0c-0.9,0-1.6,0.3-2.1,0.8c-0.5,0.5-0.8,1.3-0.8,2.3l0,0v4.5h-1.6v-9H71V77.1z M84.7,75.6h1.6l-4.4,9.9
				c-0.4,0.9-0.8,1.6-1.4,1.9c-0.5,0.4-1.1,0.6-1.9,0.6l0,0c-0.4,0-0.9-0.1-1.3-0.2c-0.4-0.1-0.8-0.3-1-0.6l0,0l0.7-1.2
				c0.5,0.4,1,0.7,1.6,0.7l0,0c0.4,0,0.7-0.1,1-0.3c0.3-0.2,0.5-0.6,0.7-1.1l0,0l0.3-0.6l-4-9h1.7l3.1,7.2L84.7,75.6z M98.4,84.6
				V74.2h-4.1v-1.5h9.8v1.5h-4.1v10.4H98.4z M110.4,84.7c-0.9,0-1.7-0.2-2.4-0.6c-0.7-0.4-1.3-0.9-1.7-1.6c-0.4-0.7-0.6-1.5-0.6-2.4
				l0,0c0-0.9,0.2-1.7,0.6-2.4c0.4-0.7,1-1.2,1.7-1.6c0.7-0.4,1.5-0.6,2.4-0.6l0,0c0.9,0,1.7,0.2,2.4,0.6c0.7,0.4,1.3,0.9,1.7,1.6
				c0.4,0.7,0.6,1.5,0.6,2.4l0,0c0,0.9-0.2,1.7-0.6,2.4c-0.4,0.7-1,1.2-1.7,1.6C112.1,84.5,111.3,84.7,110.4,84.7L110.4,84.7z
				 M110.4,83.3c0.6,0,1.1-0.1,1.6-0.4s0.8-0.6,1.1-1.1s0.4-1,0.4-1.7l0,0c0-0.6-0.1-1.2-0.4-1.7s-0.6-0.9-1.1-1.1s-1-0.4-1.6-0.4
				l0,0c-0.6,0-1.1,0.1-1.6,0.4s-0.8,0.6-1.1,1.1c-0.3,0.5-0.4,1-0.4,1.7l0,0c0,0.6,0.1,1.2,0.4,1.7c0.3,0.5,0.6,0.9,1.1,1.1
				S109.8,83.3,110.4,83.3L110.4,83.3z M122.9,84.7c-0.9,0-1.7-0.2-2.4-0.6s-1.3-0.9-1.7-1.6c-0.4-0.7-0.6-1.5-0.6-2.4l0,0
				c0-0.9,0.2-1.7,0.6-2.4c0.4-0.7,1-1.2,1.7-1.6s1.5-0.6,2.4-0.6l0,0c0.9,0,1.7,0.2,2.4,0.6c0.7,0.4,1.3,0.9,1.7,1.6
				c0.4,0.7,0.6,1.5,0.6,2.4l0,0c0,0.9-0.2,1.7-0.6,2.4c-0.4,0.7-1,1.2-1.7,1.6C124.6,84.5,123.8,84.7,122.9,84.7L122.9,84.7z
				 M122.9,83.3c0.6,0,1.1-0.1,1.6-0.4c0.5-0.3,0.8-0.6,1.1-1.1c0.3-0.5,0.4-1,0.4-1.7l0,0c0-0.6-0.1-1.2-0.4-1.7
				c-0.3-0.5-0.6-0.9-1.1-1.1c-0.5-0.3-1-0.4-1.6-0.4l0,0c-0.6,0-1.1,0.1-1.6,0.4c-0.5,0.3-0.8,0.6-1.1,1.1c-0.3,0.5-0.4,1-0.4,1.7
				l0,0c0,0.6,0.1,1.2,0.4,1.7c0.3,0.5,0.6,0.9,1.1,1.1C121.8,83.1,122.3,83.3,122.9,83.3L122.9,83.3z M131.5,84.6V72h1.6v12.6
				H131.5z M142.7,75.5c0.9,0,1.7,0.2,2.3,0.6c0.7,0.4,1.2,0.9,1.6,1.6c0.4,0.7,0.6,1.5,0.6,2.4l0,0c0,0.9-0.2,1.7-0.6,2.4
				c-0.4,0.7-0.9,1.2-1.6,1.6c-0.7,0.4-1.5,0.6-2.3,0.6l0,0c-0.7,0-1.3-0.1-1.8-0.4c-0.6-0.3-1-0.6-1.4-1.1l0,0v1.4h-1.6V72h1.6v5
				c0.4-0.5,0.8-0.8,1.4-1.1C141.5,75.6,142.1,75.5,142.7,75.5L142.7,75.5z M142.6,83.3c0.6,0,1.1-0.1,1.6-0.4
				c0.5-0.3,0.8-0.6,1.1-1.1c0.3-0.5,0.4-1,0.4-1.7l0,0c0-0.6-0.1-1.2-0.4-1.7c-0.3-0.5-0.6-0.9-1.1-1.1c-0.5-0.3-1-0.4-1.6-0.4l0,0
				c-0.6,0-1.1,0.1-1.5,0.4s-0.8,0.6-1.1,1.1c-0.3,0.5-0.4,1-0.4,1.7l0,0c0,0.6,0.1,1.2,0.4,1.7c0.3,0.5,0.6,0.9,1.1,1.1
				S142,83.3,142.6,83.3L142.6,83.3z M155.1,84.7c-0.9,0-1.7-0.2-2.4-0.6s-1.3-0.9-1.7-1.6c-0.4-0.7-0.6-1.5-0.6-2.4l0,0
				c0-0.9,0.2-1.7,0.6-2.4c0.4-0.7,1-1.2,1.7-1.6s1.5-0.6,2.4-0.6l0,0c0.9,0,1.7,0.2,2.4,0.6c0.7,0.4,1.3,0.9,1.7,1.6
				c0.4,0.7,0.6,1.5,0.6,2.4l0,0c0,0.9-0.2,1.7-0.6,2.4c-0.4,0.7-1,1.2-1.7,1.6C156.8,84.5,156,84.7,155.1,84.7L155.1,84.7z
				 M155.1,83.3c0.6,0,1.1-0.1,1.6-0.4c0.5-0.3,0.8-0.6,1.1-1.1c0.3-0.5,0.4-1,0.4-1.7l0,0c0-0.6-0.1-1.2-0.4-1.7
				c-0.3-0.5-0.6-0.9-1.1-1.1c-0.5-0.3-1-0.4-1.6-0.4l0,0c-0.6,0-1.1,0.1-1.6,0.4c-0.5,0.3-0.8,0.6-1.1,1.1s-0.4,1-0.4,1.7l0,0
				c0,0.6,0.1,1.2,0.4,1.7s0.6,0.9,1.1,1.1C154,83.1,154.5,83.3,155.1,83.3L155.1,83.3z M171,84.6h-1.9l-2.6-3.4l-2.6,3.4h-1.8
				l3.5-4.6l-3.4-4.4h1.8l2.5,3.2l2.5-3.2h1.8l-3.4,4.4L171,84.6z M189.5,72.7h1.7v11.9h-1.4l-7.1-8.9v8.9H181V72.7h1.4l7.1,8.9
				V72.7z M204.4,80.2c0,0.1,0,0.3,0,0.5l0,0H197c0.1,0.8,0.5,1.4,1,1.9c0.6,0.5,1.3,0.7,2.2,0.7l0,0c1.1,0,1.9-0.4,2.6-1.1l0,0
				l0.9,1.1c-0.4,0.5-0.9,0.8-1.5,1.1s-1.3,0.4-2,0.4l0,0c-1,0-1.8-0.2-2.5-0.6s-1.3-0.9-1.7-1.6c-0.4-0.7-0.6-1.5-0.6-2.4l0,0
				c0-0.9,0.2-1.7,0.6-2.4c0.4-0.7,0.9-1.2,1.6-1.6c0.7-0.4,1.5-0.6,2.3-0.6l0,0c0.9,0,1.6,0.2,2.3,0.6c0.7,0.4,1.2,0.9,1.6,1.6
				C204.2,78.4,204.4,79.2,204.4,80.2L204.4,80.2z M199.9,76.9c-0.8,0-1.4,0.2-2,0.7c-0.5,0.5-0.8,1.1-0.9,1.9l0,0h5.8
				c-0.1-0.8-0.4-1.4-0.9-1.9C201.3,77.1,200.7,76.9,199.9,76.9L199.9,76.9z M216.4,80.2c0,0.1,0,0.3,0,0.5l0,0h-7.3
				c0.1,0.8,0.5,1.4,1,1.9s1.3,0.7,2.2,0.7l0,0c1.1,0,1.9-0.4,2.6-1.1l0,0l0.9,1.1c-0.4,0.5-0.9,0.8-1.5,1.1s-1.3,0.4-2,0.4l0,0
				c-1,0-1.8-0.2-2.5-0.6c-0.7-0.4-1.3-0.9-1.7-1.6c-0.4-0.7-0.6-1.5-0.6-2.4l0,0c0-0.9,0.2-1.7,0.6-2.4c0.4-0.7,0.9-1.2,1.6-1.6
				c0.7-0.4,1.5-0.6,2.3-0.6l0,0c0.9,0,1.6,0.2,2.3,0.6c0.7,0.4,1.2,0.9,1.6,1.6C216.3,78.4,216.4,79.2,216.4,80.2L216.4,80.2z
				 M212,76.9c-0.8,0-1.4,0.2-2,0.7c-0.5,0.5-0.8,1.1-0.9,1.9l0,0h5.8c-0.1-0.8-0.4-1.4-0.9-1.9C213.4,77.1,212.8,76.9,212,76.9
				L212,76.9z M227.3,72h1.6v12.6h-1.6v-1.4c-0.4,0.5-0.8,0.9-1.4,1.1c-0.6,0.3-1.2,0.4-1.8,0.4l0,0c-0.9,0-1.7-0.2-2.3-0.6
				c-0.7-0.4-1.2-0.9-1.6-1.6s-0.6-1.5-0.6-2.4l0,0c0-0.9,0.2-1.7,0.6-2.4s0.9-1.2,1.6-1.6c0.7-0.4,1.5-0.6,2.3-0.6l0,0
				c0.6,0,1.2,0.1,1.8,0.4c0.5,0.2,1,0.6,1.4,1.1l0,0V72z M224.3,83.3c0.6,0,1.1-0.1,1.5-0.4c0.5-0.3,0.8-0.6,1.1-1.1s0.4-1,0.4-1.7
				l0,0c0-0.6-0.1-1.2-0.4-1.7s-0.6-0.9-1.1-1.1c-0.5-0.3-1-0.4-1.5-0.4l0,0c-0.6,0-1.1,0.1-1.6,0.4c-0.5,0.3-0.8,0.6-1.1,1.1
				s-0.4,1-0.4,1.7l0,0c0,0.6,0.1,1.2,0.4,1.7s0.6,0.9,1.1,1.1C223.2,83.1,223.7,83.3,224.3,83.3L224.3,83.3z M236.3,84.7
				c-0.7,0-1.4-0.1-2.1-0.3s-1.2-0.5-1.6-0.8l0,0l0.7-1.3c0.4,0.3,0.9,0.5,1.4,0.7c0.6,0.2,1.1,0.3,1.7,0.3l0,0
				c1.4,0,2.1-0.4,2.1-1.2l0,0c0-0.3-0.1-0.5-0.3-0.6c-0.2-0.2-0.4-0.3-0.7-0.3c-0.3-0.1-0.7-0.2-1.2-0.2l0,0
				c-0.7-0.1-1.3-0.2-1.8-0.4c-0.5-0.1-0.9-0.4-1.2-0.7c-0.3-0.4-0.5-0.8-0.5-1.5l0,0c0-0.8,0.3-1.5,1-2c0.7-0.5,1.6-0.7,2.7-0.7
				l0,0c0.6,0,1.2,0.1,1.8,0.2c0.6,0.1,1.1,0.3,1.5,0.6l0,0l-0.7,1.3c-0.7-0.5-1.6-0.7-2.6-0.7l0,0c-0.7,0-1.2,0.1-1.6,0.3
				c-0.4,0.2-0.5,0.5-0.5,0.9l0,0c0,0.3,0.1,0.5,0.3,0.7c0.2,0.2,0.5,0.3,0.8,0.4c0.3,0.1,0.7,0.2,1.3,0.3l0,0
				c0.7,0.1,1.3,0.3,1.8,0.4c0.4,0.1,0.8,0.4,1.1,0.7c0.3,0.3,0.5,0.8,0.5,1.4l0,0c0,0.8-0.3,1.5-1,1.9
				C238.4,84.5,237.5,84.7,236.3,84.7L236.3,84.7z M253.4,75.5c1.2,0,2.2,0.3,2.9,0.9c0.7,0.6,1,1.5,1,2.7l0,0v5.4h-1.5v-1.2
				c-0.3,0.4-0.7,0.7-1.2,1c-0.5,0.2-1.1,0.3-1.8,0.3l0,0c-1,0-1.8-0.2-2.4-0.7s-0.9-1.1-0.9-1.9l0,0c0-0.8,0.3-1.4,0.9-1.9
				c0.6-0.5,1.5-0.7,2.8-0.7l0,0h2.6v-0.3c0-0.7-0.2-1.2-0.6-1.6c-0.4-0.4-1-0.6-1.8-0.6l0,0c-0.5,0-1.1,0.1-1.6,0.3
				c-0.5,0.2-0.9,0.4-1.3,0.7l0,0l-0.7-1.2c0.5-0.4,1-0.7,1.7-0.9C252,75.6,252.7,75.5,253.4,75.5L253.4,75.5z M253.1,83.4
				c0.6,0,1.2-0.1,1.6-0.4c0.5-0.3,0.8-0.7,1-1.2l0,0v-1.3h-2.5c-1.4,0-2.1,0.5-2.1,1.4l0,0c0,0.5,0.2,0.8,0.5,1.1
				C252,83.3,252.4,83.4,253.1,83.4L253.1,83.4z M277,72.7h1.7v11.9H277v-5.3h-6.8v5.3h-1.7V72.7h1.7v5.1h6.8V72.7z M287.1,75.5
				c1.2,0,2.2,0.3,2.9,0.9s1,1.5,1,2.7l0,0v5.4h-1.5v-1.2c-0.3,0.4-0.7,0.7-1.2,1c-0.5,0.2-1.1,0.3-1.8,0.3l0,0
				c-1,0-1.8-0.2-2.4-0.7s-0.9-1.1-0.9-1.9l0,0c0-0.8,0.3-1.4,0.9-1.9c0.6-0.5,1.5-0.7,2.8-0.7l0,0h2.6v-0.3c0-0.7-0.2-1.2-0.6-1.6
				c-0.4-0.4-1-0.6-1.8-0.6l0,0c-0.5,0-1.1,0.1-1.6,0.3c-0.5,0.2-0.9,0.4-1.3,0.7l0,0l-0.7-1.2c0.5-0.4,1-0.7,1.7-0.9
				C285.6,75.6,286.3,75.5,287.1,75.5L287.1,75.5z M286.7,83.4c0.6,0,1.2-0.1,1.6-0.4c0.5-0.3,0.8-0.7,1-1.2l0,0v-1.3h-2.5
				c-1.4,0-2.1,0.5-2.1,1.4l0,0c0,0.5,0.2,0.8,0.5,1.1C285.6,83.3,286.1,83.4,286.7,83.4L286.7,83.4z M306.9,75.5c1.1,0,2,0.3,2.7,1
				c0.7,0.7,1,1.6,1,2.9l0,0v5.2h-1.6v-5c0-0.9-0.2-1.5-0.6-2c-0.4-0.4-1-0.7-1.7-0.7l0,0c-0.8,0-1.5,0.3-2,0.8
				c-0.5,0.5-0.7,1.3-0.7,2.2l0,0v4.6h-1.6v-5c0-0.9-0.2-1.5-0.6-2c-0.4-0.4-1-0.7-1.7-0.7l0,0c-0.8,0-1.5,0.3-2,0.8
				c-0.5,0.5-0.7,1.3-0.7,2.2l0,0v4.6h-1.6v-9h1.6v1.3c0.3-0.5,0.8-0.8,1.3-1.1c0.5-0.2,1.1-0.4,1.8-0.4l0,0c0.7,0,1.3,0.1,1.9,0.4
				c0.5,0.3,1,0.7,1.3,1.2l0,0c0.3-0.5,0.8-0.9,1.4-1.2C305.5,75.7,306.1,75.5,306.9,75.5L306.9,75.5z M326.5,75.5
				c1.1,0,2,0.3,2.7,1c0.7,0.7,1,1.6,1,2.9l0,0v5.2h-1.6v-5c0-0.9-0.2-1.5-0.6-2s-1-0.7-1.7-0.7l0,0c-0.8,0-1.5,0.3-2,0.8
				c-0.5,0.5-0.7,1.3-0.7,2.2l0,0v4.6h-1.6v-5c0-0.9-0.2-1.5-0.6-2s-1-0.7-1.7-0.7l0,0c-0.8,0-1.5,0.3-2,0.8
				c-0.5,0.5-0.7,1.3-0.7,2.2l0,0v4.6h-1.6v-9h1.6v1.3c0.3-0.5,0.8-0.8,1.3-1.1s1.1-0.4,1.8-0.4l0,0c0.7,0,1.3,0.1,1.9,0.4
				c0.5,0.3,1,0.7,1.3,1.2l0,0c0.3-0.5,0.8-0.9,1.4-1.2C325.1,75.7,325.8,75.5,326.5,75.5L326.5,75.5z M343.1,80.2
				c0,0.1,0,0.3,0,0.5l0,0h-7.3c0.1,0.8,0.5,1.4,1,1.9c0.6,0.5,1.3,0.7,2.2,0.7l0,0c1.1,0,1.9-0.4,2.6-1.1l0,0l0.9,1.1
				c-0.4,0.5-0.9,0.8-1.5,1.1c-0.6,0.2-1.3,0.4-2,0.4l0,0c-1,0-1.8-0.2-2.5-0.6s-1.3-0.9-1.7-1.6c-0.4-0.7-0.6-1.5-0.6-2.4l0,0
				c0-0.9,0.2-1.7,0.6-2.4c0.4-0.7,0.9-1.2,1.6-1.6c0.7-0.4,1.5-0.6,2.3-0.6l0,0c0.9,0,1.6,0.2,2.3,0.6c0.7,0.4,1.2,0.9,1.6,1.6
				C342.9,78.4,343.1,79.2,343.1,80.2L343.1,80.2z M338.7,76.9c-0.8,0-1.4,0.2-2,0.7c-0.5,0.5-0.8,1.1-0.9,1.9l0,0h5.8
				c-0.1-0.8-0.4-1.4-0.9-1.9C340.1,77.1,339.5,76.9,338.7,76.9L338.7,76.9z M348.6,77.1c0.3-0.5,0.7-0.9,1.3-1.2
				c0.6-0.3,1.2-0.4,2-0.4l0,0v1.6c-0.1,0-0.2,0-0.4,0l0,0c-0.9,0-1.6,0.3-2.1,0.8c-0.5,0.5-0.8,1.3-0.8,2.3l0,0v4.5h-1.6v-9h1.6
				V77.1z M362.2,87.9V72h1.5v15.9H362.2z M378.8,84.7c-0.9,0-1.8-0.1-2.6-0.4c-0.8-0.3-1.5-0.6-2-1.1l0,0l0.6-1.3
				c0.5,0.4,1,0.7,1.7,1c0.7,0.3,1.4,0.4,2.2,0.4l0,0c1,0,1.7-0.2,2.2-0.5c0.5-0.3,0.7-0.8,0.7-1.3l0,0c0-0.4-0.1-0.7-0.4-1
				c-0.3-0.3-0.6-0.5-1-0.6s-0.9-0.3-1.7-0.5l0,0c-0.9-0.2-1.6-0.4-2.2-0.6c-0.5-0.2-1-0.5-1.4-1c-0.4-0.4-0.6-1.1-0.6-1.8l0,0
				c0-0.6,0.2-1.2,0.5-1.7s0.8-0.9,1.5-1.2s1.5-0.5,2.5-0.5l0,0c0.7,0,1.4,0.1,2.1,0.3c0.7,0.2,1.3,0.4,1.7,0.8l0,0l-0.6,1.4
				c-0.5-0.3-1-0.6-1.6-0.7S379.6,74,379,74l0,0c-1,0-1.7,0.2-2.2,0.5c-0.5,0.4-0.7,0.8-0.7,1.4l0,0c0,0.4,0.1,0.7,0.4,1
				s0.6,0.5,1,0.6c0.4,0.1,0.9,0.3,1.6,0.5l0,0c0.9,0.2,1.6,0.4,2.2,0.6c0.5,0.2,1,0.5,1.4,1s0.6,1,0.6,1.8l0,0
				c0,0.6-0.2,1.2-0.5,1.7s-0.9,0.9-1.5,1.2S379.8,84.7,378.8,84.7L378.8,84.7z M391.9,82.9l0.5,1.2c-0.2,0.2-0.5,0.4-0.9,0.5
				c-0.4,0.1-0.7,0.2-1.1,0.2l0,0c-0.9,0-1.6-0.2-2.1-0.7c-0.5-0.5-0.7-1.2-0.7-2.1l0,0v-4.9H386v-1.3h1.5v-2h1.6v2h2.6v1.3h-2.6
				v4.9c0,0.5,0.1,0.9,0.4,1.1s0.6,0.4,1,0.4l0,0C391.1,83.3,391.5,83.2,391.9,82.9L391.9,82.9z M399.6,84.7c-0.9,0-1.7-0.2-2.4-0.6
				c-0.7-0.4-1.3-0.9-1.7-1.6c-0.4-0.7-0.6-1.5-0.6-2.4l0,0c0-0.9,0.2-1.7,0.6-2.4c0.4-0.7,1-1.2,1.7-1.6c0.7-0.4,1.5-0.6,2.4-0.6
				l0,0c0.9,0,1.7,0.2,2.4,0.6s1.3,0.9,1.7,1.6c0.4,0.7,0.6,1.5,0.6,2.4l0,0c0,0.9-0.2,1.7-0.6,2.4c-0.4,0.7-1,1.2-1.7,1.6
				S400.5,84.7,399.6,84.7L399.6,84.7z M399.6,83.3c0.6,0,1.1-0.1,1.6-0.4s0.8-0.6,1.1-1.1c0.3-0.5,0.4-1,0.4-1.7l0,0
				c0-0.6-0.1-1.2-0.4-1.7c-0.3-0.5-0.6-0.9-1.1-1.1s-1-0.4-1.6-0.4l0,0c-0.6,0-1.1,0.1-1.6,0.4c-0.5,0.3-0.8,0.6-1.1,1.1
				c-0.3,0.5-0.4,1-0.4,1.7l0,0c0,0.6,0.1,1.2,0.4,1.7c0.3,0.5,0.6,0.9,1.1,1.1C398.5,83.1,399,83.3,399.6,83.3L399.6,83.3z
				 M413,75.5c0.9,0,1.7,0.2,2.3,0.6c0.7,0.4,1.2,0.9,1.6,1.6c0.4,0.7,0.6,1.5,0.6,2.4l0,0c0,0.9-0.2,1.7-0.6,2.4
				c-0.4,0.7-0.9,1.2-1.6,1.6c-0.7,0.4-1.5,0.6-2.3,0.6l0,0c-0.6,0-1.2-0.1-1.8-0.4c-0.5-0.2-1-0.6-1.4-1.1l0,0v4.7h-1.6V75.6h1.6
				V77c0.4-0.5,0.8-0.9,1.4-1.1C411.7,75.6,412.3,75.5,413,75.5L413,75.5z M412.8,83.3c0.6,0,1.1-0.1,1.6-0.4
				c0.5-0.3,0.8-0.6,1.1-1.1s0.4-1,0.4-1.7l0,0c0-0.6-0.1-1.2-0.4-1.7s-0.6-0.9-1.1-1.1c-0.5-0.3-1-0.4-1.6-0.4l0,0
				c-0.6,0-1.1,0.1-1.5,0.4c-0.5,0.3-0.8,0.6-1.1,1.1s-0.4,1-0.4,1.6l0,0c0,0.6,0.1,1.2,0.4,1.7s0.6,0.9,1.1,1.1
				C411.8,83.1,412.3,83.3,412.8,83.3L412.8,83.3z M428,84.6V72.7h1.7v11.9H428z M439.3,82.9l0.5,1.2c-0.2,0.2-0.5,0.4-0.9,0.5
				c-0.4,0.1-0.7,0.2-1.1,0.2l0,0c-0.9,0-1.6-0.2-2.1-0.7s-0.7-1.2-0.7-2.1l0,0v-4.9h-1.5v-1.3h1.5v-2h1.6v2h2.6v1.3h-2.6v4.9
				c0,0.5,0.1,0.9,0.4,1.1c0.2,0.3,0.6,0.4,1,0.4l0,0C438.5,83.3,438.9,83.2,439.3,82.9L439.3,82.9z"/>
		</g>
	</g>
	<g transform="rotate(0 0 15)">
		<g transform="matrix(1 0 0 1 0 0)">
			<path class="st1" d="M13.7,21.4l-0.4-0.2c0.3-0.4,0.5-0.8,0.6-1.1c0.1-0.4,0.2-0.7,0.2-1.1l0,0c0-0.4-0.1-0.7-0.2-1
				c-0.1-0.3-0.3-0.6-0.5-0.8c-0.2-0.2-0.5-0.4-0.9-0.5c-0.3-0.1-0.7-0.2-1.1-0.2l0,0c-0.5,0-1,0.1-1.4,0.2c-0.4,0.2-0.8,0.4-1,0.7
				c-0.3,0.3-0.5,0.7-0.7,1.1c-0.2,0.4-0.2,0.9-0.2,1.4l0,0c0,0.5,0.1,1,0.2,1.5s0.3,1,0.5,1.5c0.2,0.5,0.5,1,0.7,1.4
				c0.3,0.5,0.5,0.9,0.7,1.4c0.2,0.5,0.4,0.9,0.5,1.4s0.2,1,0.2,1.5l0,0c0,0.5-0.1,1-0.2,1.4c-0.2,0.5-0.4,0.9-0.7,1.2
				c-0.3,0.4-0.6,0.7-1,1c-0.4,0.3-0.8,0.6-1.3,0.8c-0.5,0.2-0.9,0.4-1.4,0.5c-0.5,0.1-1,0.2-1.5,0.2l0,0c-0.8,0-1.5-0.1-2.1-0.4
				c-0.6-0.3-1.1-0.6-1.5-1C0.8,32,0.5,31.5,0.3,31C0.1,30.4,0,29.9,0,29.3l0,0c0-0.4,0-0.7,0.1-1.1c0.1-0.3,0.2-0.6,0.3-0.9
				c0.1-0.3,0.3-0.5,0.5-0.6c0.2-0.2,0.4-0.2,0.6-0.2l0,0c0.2,0,0.3,0.1,0.5,0.2c0.1,0.1,0.2,0.3,0.2,0.4l0,0c0,0.2,0,0.3-0.1,0.4
				c-0.1,0.1-0.2,0.2-0.3,0.2c-0.1,0.1-0.2,0.1-0.3,0.2c-0.1,0-0.2,0.1-0.3,0.1l0,0c-0.2,0.1-0.3,0.2-0.5,0.4
				c-0.1,0.2-0.2,0.5-0.2,1l0,0c0,0.4,0.1,0.9,0.2,1.4c0.2,0.5,0.4,0.9,0.8,1.2c0.3,0.4,0.8,0.7,1.3,0.9c0.5,0.2,1.1,0.3,1.9,0.3
				l0,0c0.6,0,1.2-0.1,1.8-0.3c0.6-0.2,1-0.5,1.5-0.8c0.4-0.4,0.7-0.8,1-1.4c0.2-0.6,0.4-1.2,0.4-1.9l0,0c0-0.6-0.1-1.1-0.2-1.5
				c-0.1-0.5-0.3-0.9-0.5-1.3s-0.4-0.8-0.6-1.2c-0.2-0.4-0.5-0.8-0.6-1.2c-0.2-0.4-0.4-0.8-0.5-1.3c-0.1-0.4-0.2-0.9-0.2-1.5l0,0
				c0-0.7,0.1-1.3,0.4-1.9c0.2-0.6,0.6-1.1,1-1.5c0.4-0.4,0.9-0.7,1.5-1c0.6-0.2,1.3-0.4,2-0.4l0,0c0.5,0,1,0.1,1.5,0.2
				c0.4,0.1,0.8,0.3,1.1,0.5c0.3,0.2,0.5,0.5,0.7,0.9c0.2,0.3,0.2,0.7,0.2,1.1l0,0c0,0.5-0.1,0.9-0.3,1.3
				C14.4,20.6,14.1,21,13.7,21.4L13.7,21.4z M15.2,28.2L19.9,15h1.6l-4.8,13.2c-0.1,0.3-0.2,0.6-0.3,0.9c-0.1,0.3-0.2,0.6-0.3,0.9
				c-0.1,0.3-0.1,0.6-0.2,0.8c0,0.3-0.1,0.5-0.1,0.7l0,0c0,0.5,0.1,0.9,0.4,1.2c0.3,0.3,0.7,0.4,1.2,0.4l0,0c0.5,0,0.9-0.1,1.4-0.3
				c0.4-0.2,0.9-0.5,1.3-0.9c0.4-0.4,0.9-0.9,1.3-1.6c0.4-0.6,0.9-1.4,1.4-2.2l0,0l0.6-1l0.3,0.2l-0.6,1c-0.5,0.9-1,1.7-1.5,2.4
				c-0.5,0.7-1,1.2-1.4,1.7c-0.5,0.4-1,0.8-1.5,1c-0.5,0.2-1,0.3-1.6,0.3l0,0c-0.4,0-0.8-0.1-1.2-0.2c-0.3-0.1-0.6-0.3-0.8-0.6
				c-0.2-0.2-0.4-0.5-0.5-0.9c-0.1-0.3-0.2-0.7-0.2-1.1l0,0c0-0.4,0-0.8,0.1-1.2C14.8,29.1,15,28.6,15.2,28.2L15.2,28.2z M23.4,27.1
				L23.4,27.1c0.2-1,0.6-1.8,1.1-2.7s1-1.5,1.7-2.1c0.6-0.6,1.3-1.1,2-1.4c0.7-0.3,1.5-0.5,2.2-0.5l0,0c0.6,0,1.1,0.1,1.5,0.3
				c0.4,0.2,0.7,0.5,1,0.8c0.2,0.3,0.4,0.7,0.5,1.2c0.1,0.5,0.2,0.9,0.2,1.4l0,0c0,0.5-0.1,1.1-0.2,1.6c-0.1,0.5-0.2,1-0.4,1.5l0,0
				c-0.3,0.9-0.7,1.7-1.2,2.5c-0.5,0.8-1,1.4-1.6,2c-0.6,0.6-1.2,1-1.9,1.3c-0.7,0.3-1.3,0.5-2,0.5l0,0c-0.5,0-1-0.1-1.4-0.3
				c-0.4-0.2-0.7-0.4-1-0.8c-0.3-0.3-0.5-0.8-0.6-1.3c-0.2-0.5-0.2-1.1-0.2-1.7l0,0c0-0.4,0-0.8,0.1-1.2
				C23.2,27.9,23.3,27.5,23.4,27.1z M26.5,33L26.5,33c0.5,0,1-0.1,1.6-0.4c0.5-0.3,1-0.7,1.5-1.2c0.5-0.5,1-1.2,1.4-1.9
				c0.4-0.7,0.8-1.5,1.1-2.4l0,0c0.1-0.2,0.2-0.5,0.2-0.8c0.1-0.3,0.2-0.6,0.2-0.9c0.1-0.3,0.1-0.6,0.2-1c0-0.3,0.1-0.7,0.1-1l0,0
				c0-0.3,0-0.7-0.1-1c-0.1-0.3-0.2-0.6-0.3-0.8c-0.2-0.2-0.4-0.4-0.6-0.5c-0.3-0.1-0.6-0.2-1-0.2l0,0c-0.6,0-1.1,0.1-1.7,0.4
				c-0.5,0.3-1.1,0.7-1.6,1.3c-0.5,0.5-0.9,1.2-1.3,1.9c-0.4,0.8-0.7,1.6-1,2.5l0,0c-0.2,0.6-0.3,1.2-0.4,1.8
				c-0.1,0.6-0.1,1.2-0.1,1.7l0,0C24.7,32.2,25.3,33,26.5,33z M47.6,20.7l-2.7,7.5c-0.3,0.8-0.5,1.4-0.6,1.9c-0.1,0.5-0.2,1-0.2,1.3
				l0,0c0,0.5,0.1,0.9,0.4,1.2c0.2,0.3,0.6,0.4,1,0.4l0,0c0.5,0,0.9-0.1,1.4-0.4c0.5-0.3,0.9-0.6,1.4-1c0.4-0.4,0.9-1,1.2-1.6
				c0.4-0.6,0.7-1.3,1-2l0,0c0.3-0.7,0.5-1.4,0.6-2.1c0.2-0.7,0.2-1.4,0.2-2.2l0,0c0-0.5,0-1-0.1-1.3c-0.1-0.3-0.1-0.6-0.2-0.8
				c-0.1-0.2-0.2-0.3-0.2-0.4c-0.1-0.1-0.1-0.2-0.1-0.3l0,0c0-0.1,0.1-0.2,0.2-0.3c0.1-0.1,0.2-0.2,0.4-0.2l0,0
				c0.2,0,0.3,0.1,0.4,0.2c0.1,0.1,0.2,0.3,0.3,0.5c0.1,0.2,0.1,0.5,0.2,0.8c0,0.3,0.1,0.6,0.1,1l0,0c0,0.5,0,1-0.1,1.4
				c-0.1,0.5-0.2,0.9-0.3,1.4s-0.2,0.9-0.4,1.3c-0.2,0.4-0.3,0.8-0.5,1.2l0,0c-0.3,0.8-0.7,1.5-1.2,2.2c-0.4,0.7-0.9,1.2-1.4,1.7
				c-0.5,0.5-1,0.8-1.6,1.1c-0.5,0.3-1.1,0.4-1.6,0.4l0,0c-0.4,0-0.7-0.1-1-0.2c-0.3-0.1-0.5-0.3-0.8-0.6c-0.2-0.2-0.4-0.5-0.5-0.9
				c-0.1-0.3-0.2-0.7-0.2-1.1l0,0c0-0.1,0-0.2,0-0.3c0-0.1,0-0.2,0-0.4l0,0c-0.3,0.5-0.7,1-1.1,1.4c-0.4,0.4-0.8,0.8-1.2,1.1
				c-0.4,0.3-0.8,0.5-1.2,0.7c-0.4,0.2-0.8,0.2-1.3,0.2l0,0c-0.4,0-0.7-0.1-1-0.2c-0.3-0.1-0.5-0.3-0.8-0.6
				c-0.2-0.2-0.4-0.5-0.5-0.9c-0.1-0.3-0.2-0.7-0.2-1.1l0,0c0-0.4,0-0.8,0.1-1.2c0.1-0.4,0.2-0.9,0.4-1.4l0,0l2.7-7.5h1.6l-2.7,7.5
				c-0.3,0.8-0.5,1.4-0.6,1.9c-0.1,0.5-0.2,1-0.2,1.3l0,0c0,0.5,0.1,0.9,0.4,1.2c0.2,0.3,0.6,0.4,1,0.4l0,0c0.4,0,0.9-0.1,1.4-0.4
				s0.9-0.6,1.4-1s0.9-1,1.2-1.6c0.4-0.6,0.7-1.2,0.9-1.9l0,0l2.7-7.5H47.6z M68.4,20.4L68,20.6c-0.1-0.2-0.2-0.4-0.2-0.6
				c-0.1-0.2-0.1-0.5-0.1-0.7l0,0c0-0.5,0.1-0.9,0.3-1.4c0.2-0.4,0.4-0.7,0.8-1c0.3-0.3,0.7-0.5,1.2-0.6c0.4-0.2,0.9-0.2,1.5-0.2
				l0,0c0.3,0,0.5,0,0.7,0c0.2,0,0.4,0.1,0.5,0.1c0.2,0,0.3,0.1,0.5,0.2c0.2,0.1,0.4,0.1,0.6,0.2c0.2,0.1,0.5,0.1,0.9,0.1
				c0.3,0,0.7,0,1.2,0l0,0c0.4,0,0.7,0,1,0c0.3,0,0.5-0.1,0.8-0.1c0.2-0.1,0.5-0.1,0.7-0.2c0.2-0.1,0.5-0.2,0.8-0.3l0,0v0.2
				c-0.2,0-0.4,0.1-0.6,0.3c-0.2,0.1-0.5,0.3-0.7,0.5c-0.2,0.2-0.4,0.4-0.6,0.6c-0.2,0.2-0.4,0.4-0.5,0.6l0,0
				c-0.1,0.1-0.2,0.2-0.2,0.4c-0.1,0.1-0.2,0.3-0.3,0.5c-0.1,0.2-0.2,0.5-0.3,0.8c-0.1,0.3-0.3,0.8-0.5,1.3
				c-0.2,0.5-0.4,1.1-0.7,1.8c-0.3,0.7-0.6,1.6-0.9,2.5l0,0c0.8-0.2,1.5-0.3,2.3-0.6c0.8-0.2,1.6-0.4,2.5-0.7l0,0
				c0.3-0.7,0.6-1.4,0.9-2.1c0.4-0.7,0.7-1.3,1.2-1.9c0.4-0.6,0.9-1.1,1.3-1.6c0.5-0.5,1-0.9,1.5-1.3c0.5-0.4,1-0.6,1.5-0.8
				c0.5-0.2,1-0.3,1.6-0.3l0,0c0.3,0,0.6,0,0.8,0.1c0.2,0.1,0.4,0.2,0.5,0.3c0.1,0.1,0.2,0.3,0.3,0.4c0.1,0.2,0.1,0.4,0.1,0.6l0,0
				c0,0.5-0.1,1-0.4,1.5s-0.7,1-1.1,1.4s-1,0.9-1.6,1.3c-0.6,0.4-1.2,0.8-1.9,1.1l0,0c-0.5,0.2-0.9,0.5-1.4,0.7
				c-0.5,0.2-1,0.4-1.4,0.6l0,0c-0.2,0.5-0.4,1.1-0.6,1.7c-0.2,0.6-0.3,1.1-0.4,1.7C79.1,27.9,79,28.5,79,29
				c-0.1,0.5-0.1,1.1-0.1,1.6l0,0c0,0.5,0,1,0.1,1.3c0.1,0.3,0.2,0.6,0.3,0.8c0.1,0.2,0.3,0.3,0.5,0.4c0.2,0.1,0.4,0.1,0.7,0.1l0,0
				c1,0,1.9-0.4,2.9-1.3c0.9-0.9,1.9-2.2,2.9-3.9l0,0l0.6-1l0.3,0.2l-0.5,1c-0.5,1-1.1,1.8-1.6,2.5c-0.5,0.7-1,1.3-1.5,1.7
				c-0.5,0.5-1,0.8-1.5,1c-0.5,0.2-1,0.3-1.6,0.3l0,0c-0.6,0-1.1-0.1-1.4-0.3c-0.4-0.2-0.7-0.5-0.9-0.9c-0.2-0.4-0.4-0.8-0.5-1.3
				c-0.1-0.5-0.1-1-0.1-1.5l0,0c0-0.8,0.1-1.6,0.2-2.4c0.2-0.8,0.4-1.7,0.7-2.5l0,0c-0.8,0.3-1.6,0.5-2.4,0.7
				c-0.8,0.2-1.6,0.4-2.3,0.5l0,0c-0.5,1.3-1,2.5-1.6,3.5c-0.5,1-1.1,1.8-1.7,2.4c-0.6,0.6-1.2,1.1-1.9,1.4
				c-0.7,0.3-1.4,0.5-2.2,0.5l0,0c-0.5,0-1-0.1-1.4-0.2c-0.4-0.1-0.7-0.3-1-0.6c-0.3-0.3-0.5-0.6-0.6-0.9c-0.1-0.3-0.2-0.7-0.2-1.2
				l0,0c0-0.6,0.1-1.2,0.4-1.7c0.3-0.5,0.7-0.9,1.2-1.2c0.5-0.4,1.1-0.7,1.8-0.9c0.7-0.2,1.4-0.5,2.2-0.6l0,0
				c0.4-0.1,0.9-0.2,1.4-0.3c0.5-0.1,1.1-0.2,1.7-0.3l0,0c0.2-0.6,0.4-1.1,0.6-1.6c0.2-0.5,0.3-0.9,0.5-1.3c0.1-0.4,0.3-0.7,0.4-1
				c0.1-0.3,0.2-0.6,0.3-0.8c0.1-0.2,0.2-0.5,0.3-0.7c0.1-0.2,0.2-0.4,0.4-0.6l0,0c0.1-0.2,0.3-0.4,0.5-0.7c0.2-0.2,0.4-0.5,0.6-0.7
				c0.2-0.3,0.5-0.5,0.7-0.7c0.3-0.2,0.5-0.5,0.8-0.7l0,0c-0.5,0.2-1,0.3-1.5,0.4c-0.5,0.1-1,0.1-1.4,0.1l0,0c-0.4,0-0.8,0-1.1-0.1
				c-0.4-0.1-0.7-0.2-1.1-0.2c-0.3-0.1-0.7-0.2-1-0.2c-0.3-0.1-0.6-0.1-0.8-0.1l0,0c-0.3,0-0.5,0.1-0.8,0.2
				c-0.2,0.1-0.5,0.3-0.6,0.5c-0.2,0.2-0.3,0.5-0.4,0.8c-0.1,0.3-0.2,0.6-0.2,1l0,0C68.2,19.7,68.2,20.1,68.4,20.4L68.4,20.4z
				 M66.2,33.4L66.2,33.4c0.4,0,0.7,0,1.1-0.1c0.3-0.1,0.6-0.2,0.9-0.4c0.3-0.2,0.6-0.5,0.8-0.8c0.3-0.3,0.5-0.8,0.8-1.3
				c0.3-0.5,0.6-1.1,0.9-1.9c0.3-0.7,0.6-1.5,1-2.5l0,0c-0.5,0.1-1,0.2-1.5,0.3c-0.5,0.1-0.9,0.2-1.4,0.3l0,0
				c-0.7,0.2-1.4,0.3-2,0.5c-0.6,0.2-1.2,0.5-1.6,0.8c-0.5,0.3-0.8,0.7-1.1,1.1c-0.3,0.4-0.4,1-0.4,1.6l0,0c0,0.3,0.1,0.7,0.2,1
				c0.1,0.3,0.3,0.5,0.5,0.8c0.2,0.2,0.5,0.4,0.8,0.5C65.3,33.3,65.7,33.4,66.2,33.4z M86.7,16.5L86.7,16.5c-0.5,0-1.1,0.2-1.6,0.6
				c-0.6,0.4-1.1,0.9-1.7,1.5c-0.5,0.6-1.1,1.4-1.6,2.2c-0.5,0.8-0.9,1.7-1.3,2.7l0,0c0.4-0.2,0.8-0.3,1.2-0.5
				c0.4-0.2,0.8-0.4,1.2-0.6l0,0c0.6-0.3,1.2-0.7,1.8-1c0.6-0.4,1.1-0.8,1.5-1.2c0.5-0.4,0.8-0.8,1.1-1.3c0.3-0.4,0.4-0.9,0.4-1.3
				l0,0c0-0.3-0.1-0.6-0.2-0.7C87.3,16.6,87.1,16.5,86.7,16.5z M86.8,27.1L86.8,27.1c0.3-0.8,0.6-1.5,0.9-2.1
				c0.4-0.6,0.7-1.2,1.2-1.7c0.4-0.5,0.9-0.9,1.3-1.3c0.5-0.4,0.9-0.7,1.4-0.9c0.5-0.2,0.9-0.4,1.4-0.5c0.4-0.1,0.9-0.2,1.3-0.2l0,0
				c0.4,0,0.7,0.1,1,0.2c0.3,0.1,0.5,0.3,0.7,0.5c0.2,0.2,0.3,0.5,0.4,0.8c0.1,0.3,0.1,0.7,0.1,1.1l0,0l0.9-2.4h1.6l-2.7,7.5
				c-0.1,0.3-0.2,0.6-0.3,0.9c-0.1,0.3-0.2,0.6-0.3,0.9c-0.1,0.3-0.1,0.6-0.2,0.8c0,0.3-0.1,0.5-0.1,0.7l0,0c0,0.5,0.1,0.9,0.4,1.2
				c0.3,0.3,0.7,0.4,1.2,0.4l0,0c0.5,0,0.9-0.1,1.4-0.3c0.5-0.2,0.9-0.5,1.3-0.9c0.4-0.4,0.9-0.9,1.3-1.6c0.4-0.6,0.9-1.4,1.4-2.2
				l0,0l0.5-1l0.3,0.2l-0.6,1c-0.5,0.9-1,1.7-1.5,2.4c-0.5,0.7-0.9,1.2-1.4,1.7c-0.5,0.4-1,0.8-1.4,1c-0.5,0.2-1,0.3-1.6,0.3l0,0
				c-0.4,0-0.8-0.1-1.1-0.2c-0.3-0.1-0.6-0.3-0.8-0.6c-0.2-0.2-0.4-0.5-0.5-0.9C94,31.6,94,31.2,94,30.8l0,0c0-0.3,0-0.6,0.1-0.9
				c0-0.3,0.1-0.7,0.2-1l0,0c-0.9,1.6-1.9,2.7-2.8,3.5c-0.9,0.8-1.8,1.2-2.8,1.2l0,0c-0.4,0-0.8-0.1-1.1-0.2
				c-0.3-0.2-0.6-0.4-0.8-0.7c-0.2-0.3-0.3-0.6-0.4-1c-0.1-0.4-0.1-0.8-0.1-1.3l0,0c0-0.5,0-1,0.1-1.6
				C86.5,28.2,86.6,27.6,86.8,27.1z M89.1,33L89.1,33c0.4,0,0.8-0.1,1.2-0.3c0.4-0.2,0.8-0.5,1.2-0.8c0.4-0.4,0.8-0.8,1.2-1.2
				c0.4-0.5,0.7-1,1.1-1.5c0.3-0.5,0.6-1.1,0.9-1.7c0.3-0.6,0.5-1.1,0.7-1.7c0.2-0.6,0.4-1.1,0.5-1.6s0.2-1,0.2-1.4l0,0
				c0-0.4,0-0.7-0.1-0.9c-0.1-0.2-0.2-0.4-0.4-0.6c-0.1-0.2-0.3-0.3-0.5-0.3c-0.2-0.1-0.4-0.1-0.6-0.1l0,0c-0.4,0-0.8,0.1-1.3,0.4
				c-0.5,0.2-1,0.6-1.5,1.1c-0.5,0.5-1,1.1-1.5,1.9c-0.5,0.8-0.9,1.7-1.3,2.7l0,0c-0.3,0.9-0.6,1.7-0.8,2.4
				c-0.2,0.7-0.2,1.4-0.2,1.8l0,0c0,0.6,0.1,1,0.3,1.3C88.2,32.9,88.6,33,89.1,33z M100.5,33.4l4.6-12.7h1.6l-1.7,4.6
				c0.5-0.8,0.9-1.5,1.4-2.1c0.4-0.6,0.9-1.1,1.3-1.5c0.4-0.4,0.9-0.7,1.3-0.9c0.5-0.2,0.9-0.3,1.4-0.3l0,0c0.5,0,0.8,0.1,1.2,0.2
				c0.3,0.2,0.6,0.4,0.8,0.6c0.2,0.3,0.4,0.5,0.5,0.9c0.1,0.3,0.2,0.7,0.2,1.1l0,0c0,0.4-0.1,0.9-0.2,1.3c-0.1,0.5-0.3,1-0.4,1.5
				c-0.2,0.5-0.4,1-0.6,1.5c-0.2,0.5-0.4,1-0.6,1.5c-0.2,0.5-0.3,0.9-0.4,1.3c-0.1,0.4-0.2,0.8-0.2,1.1l0,0c0,0.4,0.1,0.8,0.4,1.1
				c0.3,0.3,0.7,0.4,1.3,0.4l0,0c0.5,0,0.9-0.1,1.3-0.3c0.4-0.2,0.9-0.5,1.3-0.9c0.4-0.4,0.9-0.9,1.3-1.6c0.4-0.6,0.9-1.4,1.4-2.2
				l0,0l0.6-1l0.3,0.2l-0.6,1c-0.5,0.9-1,1.7-1.5,2.4c-0.5,0.7-0.9,1.2-1.4,1.7c-0.5,0.4-1,0.8-1.4,1c-0.5,0.2-1,0.3-1.6,0.3l0,0
				c-0.5,0-0.8-0.1-1.2-0.2c-0.3-0.1-0.6-0.3-0.9-0.6c-0.2-0.2-0.4-0.5-0.5-0.8c-0.1-0.3-0.2-0.6-0.2-1l0,0c0-0.4,0.1-0.8,0.2-1.2
				c0.1-0.5,0.3-0.9,0.4-1.4c0.2-0.5,0.4-1,0.6-1.5c0.2-0.5,0.4-1,0.6-1.5c0.2-0.5,0.3-0.9,0.4-1.4c0.1-0.4,0.2-0.8,0.2-1.2l0,0
				c0-0.2,0-0.5-0.1-0.7c-0.1-0.2-0.2-0.4-0.3-0.5c-0.1-0.2-0.3-0.3-0.5-0.4c-0.2-0.1-0.5-0.1-0.8-0.1l0,0c-0.5,0-0.9,0.1-1.3,0.3
				c-0.4,0.2-0.9,0.5-1.3,1c-0.4,0.4-0.9,1-1.3,1.6c-0.4,0.7-0.9,1.4-1.4,2.3l0,0l-0.6,1l-2.3,6.2H100.5z M118.4,27.1L118.4,27.1
				c0.3-0.8,0.6-1.5,0.9-2.1c0.4-0.6,0.7-1.2,1.2-1.7c0.4-0.5,0.9-0.9,1.3-1.3c0.5-0.4,0.9-0.7,1.4-0.9c0.5-0.2,0.9-0.4,1.4-0.5
				c0.4-0.1,0.9-0.2,1.3-0.2l0,0c0.4,0,0.7,0.1,1,0.2c0.3,0.1,0.5,0.3,0.7,0.5c0.2,0.2,0.3,0.5,0.4,0.8c0.1,0.3,0.1,0.7,0.1,1.1l0,0
				l2.9-8h1.6l-4.8,13.2c-0.1,0.3-0.2,0.6-0.3,0.9c-0.1,0.3-0.2,0.6-0.3,0.9c-0.1,0.3-0.1,0.5-0.2,0.8c0,0.3-0.1,0.5-0.1,0.7l0,0
				c0,0.5,0.1,0.9,0.4,1.2c0.3,0.3,0.7,0.4,1.2,0.4l0,0c0.5,0,0.9-0.1,1.4-0.3c0.5-0.2,0.9-0.5,1.3-0.9c0.4-0.4,0.9-0.9,1.3-1.6
				c0.4-0.6,0.9-1.4,1.4-2.2l0,0l0.5-1l0.3,0.2l-0.6,1c-0.5,0.9-1,1.7-1.5,2.4c-0.5,0.7-0.9,1.2-1.4,1.7c-0.5,0.4-1,0.8-1.4,1
				c-0.5,0.2-1,0.3-1.6,0.3l0,0c-0.4,0-0.8-0.1-1.2-0.2c-0.3-0.1-0.6-0.3-0.8-0.6c-0.2-0.2-0.4-0.5-0.5-0.9
				c-0.1-0.3-0.2-0.7-0.2-1.1l0,0c0-0.3,0-0.6,0.1-0.9c0-0.3,0.1-0.7,0.2-1l0,0c-0.9,1.6-1.9,2.7-2.8,3.5c-0.9,0.8-1.8,1.2-2.8,1.2
				l0,0c-0.4,0-0.8-0.1-1.1-0.2c-0.3-0.2-0.6-0.4-0.8-0.7c-0.2-0.3-0.3-0.6-0.4-1c-0.1-0.4-0.1-0.8-0.1-1.3l0,0c0-0.5,0-1,0.1-1.6
				C118,28.2,118.2,27.6,118.4,27.1z M120.6,33L120.6,33c0.4,0,0.8-0.1,1.2-0.3c0.4-0.2,0.8-0.5,1.2-0.8c0.4-0.4,0.8-0.8,1.2-1.2
				c0.4-0.5,0.7-1,1.1-1.5c0.3-0.5,0.6-1.1,0.9-1.7c0.3-0.6,0.5-1.1,0.7-1.7c0.2-0.6,0.4-1.1,0.5-1.6c0.1-0.5,0.2-1,0.2-1.4l0,0
				c0-0.4,0-0.7-0.1-0.9s-0.2-0.4-0.4-0.6c-0.1-0.2-0.3-0.3-0.5-0.3c-0.2-0.1-0.4-0.1-0.6-0.1l0,0c-0.4,0-0.8,0.1-1.3,0.4
				c-0.5,0.2-1,0.6-1.5,1.1c-0.5,0.5-1,1.1-1.5,1.9c-0.5,0.8-0.9,1.7-1.3,2.7l0,0c-0.3,0.9-0.6,1.7-0.8,2.4
				c-0.2,0.7-0.2,1.4-0.2,1.8l0,0c0,0.6,0.1,1,0.3,1.3C119.8,32.9,120.2,33,120.6,33z M157.2,23l-0.3-0.3c0.4-0.4,0.8-0.9,1.1-1.3
				c0.3-0.5,0.6-0.9,0.9-1.3c0.2-0.4,0.4-0.9,0.6-1.3c0.1-0.4,0.2-0.8,0.2-1.1l0,0c0-0.1,0-0.3,0-0.4c0-0.1-0.1-0.3-0.2-0.4
				c-0.1-0.1-0.2-0.2-0.3-0.2c-0.1-0.1-0.3-0.1-0.5-0.1l0,0c-0.4,0-0.8,0.1-1.2,0.4c-0.4,0.3-0.8,0.7-1.2,1.2l0,0
				c-0.3,0.4-0.6,0.9-0.8,1.4c-0.2,0.5-0.5,1.1-0.7,1.6c-0.2,0.6-0.5,1.2-0.7,1.8c-0.2,0.6-0.5,1.3-0.7,1.9l0,0
				c-0.4,0.9-0.7,1.7-1,2.5c-0.3,0.8-0.7,1.4-1.1,2c-0.4,0.6-0.7,1.1-1.1,1.6c-0.4,0.5-0.8,0.9-1.2,1.2l0,0c0.3,0.1,0.7,0.2,1.1,0.3
				c0.4,0.1,0.9,0.2,1.3,0.3c0.5,0.1,0.9,0.2,1.4,0.2c0.5,0.1,0.9,0.1,1.4,0.1l0,0c0.8,0,1.5-0.1,2.2-0.3c0.6-0.2,1.2-0.5,1.7-0.9
				c0.5-0.4,1-1,1.4-1.6c0.5-0.6,0.9-1.4,1.4-2.3l0,0l0.5-1l0.3,0.2l-0.6,1c-0.7,1.2-1.3,2.2-2,3c-0.6,0.8-1.3,1.4-1.9,1.8
				s-1.2,0.7-1.8,0.9c-0.6,0.2-1.2,0.2-1.8,0.2l0,0c-0.4,0-0.8,0-1.3-0.1c-0.5-0.1-0.9-0.2-1.4-0.3c-0.5-0.1-1-0.3-1.5-0.4
				c-0.5-0.2-1-0.3-1.5-0.5l0,0c-0.5,0.3-1.1,0.5-1.7,0.7c-0.6,0.1-1.2,0.2-1.8,0.2l0,0c-0.5,0-0.8,0-1.1-0.1
				c-0.3-0.1-0.5-0.1-0.7-0.2c-0.2-0.1-0.3-0.2-0.3-0.3c-0.1-0.1-0.1-0.3-0.1-0.4l0,0c0-0.3,0.1-0.5,0.2-0.6
				c0.2-0.2,0.4-0.3,0.6-0.4c0.2-0.1,0.5-0.1,0.8-0.2c0.3,0,0.6,0,0.9,0l0,0c0.6,0,1.2,0,1.7,0.1c0.5,0.1,1,0.2,1.5,0.3l0,0
				c0.2-0.3,0.4-0.6,0.7-0.9c0.2-0.3,0.4-0.7,0.7-1.2c0.2-0.4,0.5-0.9,0.7-1.5c0.2-0.6,0.5-1.2,0.8-1.9l0,0c0.5-1.1,0.9-2.1,1.2-3
				c0.4-0.9,0.7-1.7,1.1-2.5s0.7-1.4,1-2c0.4-0.6,0.7-1.1,1.2-1.5l0,0c0.5-0.5,1-0.8,1.5-1.1c0.5-0.2,1.1-0.3,1.6-0.3l0,0
				c0.3,0,0.6,0,0.8,0.1c0.2,0.1,0.4,0.2,0.5,0.4c0.1,0.2,0.2,0.3,0.3,0.6c0.1,0.2,0.1,0.4,0.1,0.7l0,0c0,0.8-0.3,1.7-0.8,2.6
				C158.9,21.3,158.2,22.2,157.2,23L157.2,23z M144.5,33.4L144.5,33.4c0.6,0,1.1-0.1,1.6-0.2c0.4-0.1,0.9-0.3,1.2-0.6l0,0
				c-0.2-0.1-0.5-0.1-0.7-0.2c-0.3-0.1-0.5-0.1-0.8-0.2c-0.3-0.1-0.6-0.1-0.8-0.1c-0.3,0-0.6-0.1-0.8-0.1l0,0c-0.4,0-0.8,0.1-1,0.2
				c-0.2,0.1-0.4,0.3-0.4,0.5l0,0c0,0.1,0,0.2,0.1,0.3c0,0.1,0.1,0.2,0.3,0.2c0.1,0.1,0.3,0.1,0.5,0.1
				C143.9,33.4,144.2,33.4,144.5,33.4z M161.3,27.1L161.3,27.1c0.3-1,0.6-1.8,1.1-2.7c0.5-0.8,1-1.5,1.7-2.1c0.6-0.6,1.3-1.1,2-1.4
				c0.7-0.3,1.5-0.5,2.2-0.5l0,0c0.6,0,1.1,0.1,1.5,0.3c0.4,0.2,0.7,0.5,1,0.8c0.2,0.3,0.4,0.7,0.5,1.2c0.1,0.5,0.2,0.9,0.2,1.4l0,0
				c0,0.5-0.1,1.1-0.2,1.6c-0.1,0.5-0.2,1-0.4,1.5l0,0c-0.3,0.9-0.7,1.7-1.2,2.5c-0.5,0.8-1,1.4-1.6,2c-0.6,0.6-1.2,1-1.9,1.3
				c-0.7,0.3-1.3,0.5-2,0.5l0,0c-0.5,0-1-0.1-1.4-0.3c-0.4-0.2-0.7-0.4-1-0.8c-0.3-0.3-0.5-0.8-0.6-1.3c-0.2-0.5-0.2-1.1-0.2-1.7
				l0,0c0-0.4,0-0.8,0.1-1.2C161.1,27.9,161.2,27.5,161.3,27.1z M164.4,33L164.4,33c0.5,0,1-0.1,1.6-0.4c0.5-0.3,1-0.7,1.5-1.2
				c0.5-0.5,1-1.2,1.4-1.9c0.4-0.7,0.8-1.5,1.1-2.4l0,0c0.1-0.2,0.2-0.5,0.3-0.8c0.1-0.3,0.2-0.6,0.2-0.9c0.1-0.3,0.1-0.6,0.2-1
				c0-0.3,0.1-0.7,0.1-1l0,0c0-0.3,0-0.7-0.1-1c-0.1-0.3-0.2-0.6-0.3-0.8c-0.2-0.2-0.4-0.4-0.6-0.5s-0.6-0.2-1-0.2l0,0
				c-0.6,0-1.1,0.1-1.7,0.4c-0.5,0.3-1.1,0.7-1.6,1.3c-0.5,0.5-0.9,1.2-1.3,1.9c-0.4,0.8-0.7,1.6-1,2.5l0,0
				c-0.2,0.6-0.3,1.2-0.4,1.8c-0.1,0.6-0.1,1.2-0.1,1.7l0,0C162.6,32.2,163.2,33,164.4,33z M175.4,39L175.4,39
				c-0.7,0-1.3-0.1-1.7-0.3c-0.5-0.2-0.8-0.5-1.1-0.9l0,0c-0.1-0.2-0.3-0.4-0.3-0.6c-0.1-0.2-0.1-0.4-0.1-0.6l0,0
				c0-0.3,0.1-0.6,0.3-0.8c0.2-0.2,0.4-0.3,0.7-0.3l0,0c0.2,0,0.4,0.1,0.6,0.2c0.1,0.1,0.2,0.3,0.2,0.6l0,0c0,0.2-0.1,0.4-0.2,0.6
				c-0.1,0.1-0.3,0.2-0.5,0.2l0,0c-0.1,0-0.1,0-0.2,0c0,0-0.1,0-0.2,0l0,0c0,0-0.1,0-0.1,0c0,0,0,0.1,0,0.1l0,0
				c0,0.2,0.1,0.4,0.2,0.6c0.1,0.2,0.3,0.3,0.5,0.4c0.2,0.1,0.5,0.2,0.8,0.3c0.3,0.1,0.6,0.1,1,0.1l0,0c0.5,0,1-0.1,1.4-0.2
				c0.4-0.2,0.8-0.4,1.2-0.7c0.4-0.3,0.7-0.7,1-1.2c0.3-0.5,0.6-1.1,0.8-1.8l0,0l2-5.6c-0.9,1.5-1.8,2.7-2.7,3.4
				c-0.9,0.8-1.8,1.1-2.7,1.1l0,0c-0.4,0-0.8-0.1-1.1-0.2c-0.3-0.2-0.6-0.4-0.8-0.7c-0.2-0.3-0.3-0.6-0.4-1
				c-0.1-0.4-0.1-0.8-0.1-1.3l0,0c0-0.5,0-1,0.1-1.6s0.2-1.1,0.4-1.7l0,0c0.3-0.8,0.6-1.5,0.9-2.1c0.4-0.6,0.7-1.2,1.2-1.7
				c0.4-0.5,0.9-0.9,1.3-1.3c0.5-0.4,0.9-0.7,1.4-0.9c0.5-0.2,0.9-0.4,1.4-0.5c0.4-0.1,0.9-0.2,1.3-0.2l0,0c0.4,0,0.7,0.1,1,0.2
				c0.3,0.1,0.5,0.3,0.7,0.5c0.2,0.2,0.3,0.5,0.4,0.8c0.1,0.3,0.1,0.7,0.1,1l0,0l0.9-2.3h1.6l-5.1,13.9c-0.5,1.4-1.3,2.6-2.3,3.3
				C178.1,38.6,176.9,39,175.4,39z M176.8,33L176.8,33c0.4,0,0.8-0.1,1.2-0.3c0.4-0.2,0.8-0.5,1.2-0.8c0.4-0.4,0.8-0.8,1.2-1.2
				c0.4-0.5,0.7-1,1.1-1.5c0.3-0.5,0.6-1.1,0.9-1.7s0.5-1.1,0.7-1.7c0.2-0.6,0.4-1.1,0.5-1.6c0.1-0.5,0.2-1,0.2-1.4l0,0
				c0-0.4,0-0.7-0.1-0.9c-0.1-0.2-0.2-0.4-0.4-0.6c-0.1-0.2-0.3-0.3-0.5-0.3c-0.2-0.1-0.4-0.1-0.6-0.1l0,0c-0.4,0-0.8,0.1-1.3,0.4
				c-0.5,0.2-1,0.6-1.5,1.1c-0.5,0.5-1,1.1-1.5,1.9c-0.5,0.8-0.9,1.7-1.3,2.7l0,0c-0.3,0.9-0.6,1.7-0.8,2.4
				c-0.2,0.7-0.3,1.4-0.3,1.8l0,0c0,0.6,0.1,1,0.3,1.3C175.9,32.9,176.3,33,176.8,33z M189,27.1L189,27.1c0.3-0.8,0.6-1.5,0.9-2.1
				c0.4-0.6,0.7-1.2,1.2-1.7c0.4-0.5,0.9-0.9,1.3-1.3c0.5-0.4,0.9-0.7,1.4-0.9c0.5-0.2,0.9-0.4,1.4-0.5c0.4-0.1,0.9-0.2,1.3-0.2l0,0
				c0.4,0,0.7,0.1,1,0.2c0.3,0.1,0.5,0.3,0.7,0.5c0.2,0.2,0.3,0.5,0.4,0.8c0.1,0.3,0.1,0.7,0.1,1.1l0,0l0.9-2.4h1.6l-2.7,7.5
				c-0.1,0.3-0.2,0.6-0.3,0.9c-0.1,0.3-0.2,0.6-0.3,0.9c-0.1,0.3-0.1,0.6-0.2,0.8c0,0.3-0.1,0.5-0.1,0.7l0,0c0,0.5,0.1,0.9,0.4,1.2
				c0.3,0.3,0.7,0.4,1.2,0.4l0,0c0.5,0,0.9-0.1,1.4-0.3c0.5-0.2,0.9-0.5,1.3-0.9c0.4-0.4,0.9-0.9,1.3-1.6c0.4-0.6,0.9-1.4,1.4-2.2
				l0,0l0.5-1l0.3,0.2l-0.6,1c-0.5,0.9-1,1.7-1.5,2.4c-0.5,0.7-0.9,1.2-1.4,1.7c-0.5,0.4-1,0.8-1.4,1c-0.5,0.2-1,0.3-1.6,0.3l0,0
				c-0.4,0-0.8-0.1-1.2-0.2c-0.3-0.1-0.6-0.3-0.8-0.6c-0.2-0.2-0.4-0.5-0.5-0.9c-0.1-0.3-0.2-0.7-0.2-1.1l0,0c0-0.3,0-0.6,0.1-0.9
				c0.1-0.3,0.1-0.7,0.2-1l0,0c-0.9,1.6-1.9,2.7-2.8,3.5c-0.9,0.8-1.8,1.2-2.8,1.2l0,0c-0.4,0-0.8-0.1-1.1-0.2
				c-0.3-0.2-0.6-0.4-0.8-0.7c-0.2-0.3-0.3-0.6-0.4-1c-0.1-0.4-0.1-0.8-0.1-1.3l0,0c0-0.5,0-1,0.1-1.6
				C188.7,28.2,188.8,27.6,189,27.1z M191.3,33L191.3,33c0.4,0,0.8-0.1,1.2-0.3c0.4-0.2,0.8-0.5,1.2-0.8c0.4-0.4,0.8-0.8,1.2-1.2
				c0.4-0.5,0.7-1,1.1-1.5c0.3-0.5,0.6-1.1,0.9-1.7c0.3-0.6,0.5-1.1,0.7-1.7c0.2-0.6,0.4-1.1,0.5-1.6c0.1-0.5,0.2-1,0.2-1.4l0,0
				c0-0.4,0-0.7-0.1-0.9c-0.1-0.2-0.2-0.4-0.4-0.6c-0.1-0.2-0.3-0.3-0.5-0.3c-0.2-0.1-0.4-0.1-0.6-0.1l0,0c-0.4,0-0.8,0.1-1.3,0.4
				c-0.5,0.2-1,0.6-1.5,1.1c-0.5,0.5-1,1.1-1.5,1.9c-0.5,0.8-0.9,1.7-1.3,2.7l0,0c-0.3,0.9-0.6,1.7-0.8,2.4
				c-0.2,0.7-0.3,1.4-0.3,1.8l0,0c0,0.6,0.1,1,0.3,1.3C190.4,32.9,190.8,33,191.3,33z M202.7,33.4l4.6-12.7h1.6l-1.7,4.6
				c0.5-0.8,0.9-1.5,1.4-2.1s0.9-1.1,1.3-1.5c0.4-0.4,0.9-0.7,1.3-0.9c0.5-0.2,0.9-0.3,1.4-0.3l0,0c0.5,0,0.8,0.1,1.2,0.2
				c0.3,0.2,0.6,0.4,0.8,0.6c0.2,0.3,0.4,0.5,0.5,0.9c0.1,0.3,0.2,0.7,0.2,1.1l0,0c0,0.4-0.1,0.9-0.2,1.3c-0.1,0.5-0.3,1-0.4,1.5
				s-0.4,1-0.6,1.5c-0.2,0.5-0.4,1-0.6,1.5c-0.2,0.5-0.3,0.9-0.4,1.3c-0.1,0.4-0.2,0.8-0.2,1.1l0,0c0,0.4,0.1,0.8,0.4,1.1
				c0.3,0.3,0.7,0.4,1.3,0.4l0,0c0.5,0,0.9-0.1,1.3-0.3c0.4-0.2,0.9-0.5,1.3-0.9c0.4-0.4,0.9-0.9,1.3-1.6c0.4-0.6,0.9-1.4,1.4-2.2
				l0,0l0.6-1l0.3,0.2l-0.6,1c-0.5,0.9-1,1.7-1.5,2.4c-0.5,0.7-0.9,1.2-1.4,1.7c-0.5,0.4-1,0.8-1.4,1c-0.5,0.2-1,0.3-1.6,0.3l0,0
				c-0.5,0-0.8-0.1-1.2-0.2c-0.3-0.1-0.6-0.3-0.9-0.6c-0.2-0.2-0.4-0.5-0.5-0.8c-0.1-0.3-0.2-0.6-0.2-1l0,0c0-0.4,0.1-0.8,0.2-1.2
				c0.1-0.5,0.3-0.9,0.4-1.4c0.2-0.5,0.4-1,0.6-1.5c0.2-0.5,0.4-1,0.6-1.5c0.2-0.5,0.3-0.9,0.4-1.4c0.1-0.4,0.2-0.8,0.2-1.2l0,0
				c0-0.2,0-0.5-0.1-0.7c-0.1-0.2-0.2-0.4-0.3-0.5c-0.1-0.2-0.3-0.3-0.5-0.4c-0.2-0.1-0.5-0.1-0.8-0.1l0,0c-0.5,0-0.9,0.1-1.3,0.3
				c-0.4,0.2-0.9,0.5-1.3,1c-0.4,0.4-0.9,1-1.3,1.6c-0.4,0.7-0.9,1.4-1.4,2.3l0,0l-0.6,1l-2.3,6.2H202.7z M233.8,20.4l-0.4,0.2
				c-0.1-0.2-0.2-0.4-0.2-0.6c-0.1-0.2-0.1-0.5-0.1-0.7l0,0c0-0.5,0.1-0.9,0.3-1.4c0.2-0.4,0.4-0.7,0.8-1c0.3-0.3,0.7-0.5,1.2-0.6
				c0.4-0.2,0.9-0.2,1.5-0.2l0,0c0.3,0,0.5,0,0.7,0c0.2,0,0.4,0.1,0.5,0.1c0.2,0,0.3,0.1,0.5,0.2c0.2,0.1,0.4,0.1,0.6,0.2
				c0.2,0.1,0.5,0.1,0.9,0.1c0.3,0,0.7,0,1.2,0l0,0c0.4,0,0.7,0,1,0c0.3,0,0.5-0.1,0.8-0.1c0.2-0.1,0.5-0.1,0.7-0.2
				c0.2-0.1,0.5-0.2,0.8-0.3l0,0v0.2c-0.2,0-0.4,0.1-0.6,0.3c-0.2,0.1-0.5,0.3-0.7,0.5c-0.2,0.2-0.4,0.4-0.6,0.6
				c-0.2,0.2-0.4,0.4-0.5,0.6l0,0c-0.1,0.1-0.2,0.2-0.2,0.4c-0.1,0.1-0.2,0.3-0.3,0.5c-0.1,0.2-0.2,0.5-0.3,0.8
				c-0.1,0.3-0.3,0.8-0.5,1.3c-0.2,0.5-0.4,1.1-0.7,1.8c-0.3,0.7-0.6,1.6-0.9,2.5l0,0c0.8-0.2,1.5-0.3,2.3-0.6
				c0.8-0.2,1.6-0.4,2.4-0.7l0,0c0.3-0.7,0.6-1.4,1-2.1c0.4-0.7,0.7-1.3,1.2-1.9c0.4-0.6,0.9-1.1,1.3-1.6c0.5-0.5,1-0.9,1.5-1.3
				c0.5-0.4,1-0.6,1.5-0.8c0.5-0.2,1-0.3,1.6-0.3l0,0c0.3,0,0.6,0,0.8,0.1c0.2,0.1,0.4,0.2,0.5,0.3c0.1,0.1,0.2,0.3,0.3,0.4
				c0.1,0.2,0.1,0.4,0.1,0.6l0,0c0,0.5-0.1,1-0.4,1.5s-0.7,1-1.1,1.4c-0.5,0.5-1,0.9-1.6,1.3c-0.6,0.4-1.2,0.8-1.9,1.1l0,0
				c-0.5,0.2-0.9,0.5-1.4,0.7c-0.5,0.2-1,0.4-1.4,0.6l0,0c-0.2,0.5-0.4,1.1-0.6,1.7c-0.2,0.6-0.3,1.1-0.4,1.7
				c-0.1,0.6-0.2,1.1-0.3,1.6c-0.1,0.5-0.1,1.1-0.1,1.6l0,0c0,0.5,0,1,0.1,1.3c0.1,0.3,0.2,0.6,0.3,0.8c0.1,0.2,0.3,0.3,0.5,0.4
				c0.2,0.1,0.4,0.1,0.7,0.1l0,0c1,0,1.9-0.4,2.9-1.3c0.9-0.9,1.9-2.2,2.9-3.9l0,0l0.6-1l0.3,0.2l-0.5,1c-0.5,1-1.1,1.8-1.6,2.5
				c-0.5,0.7-1,1.3-1.5,1.7c-0.5,0.5-1,0.8-1.5,1c-0.5,0.2-1,0.3-1.6,0.3l0,0c-0.6,0-1.1-0.1-1.4-0.3c-0.4-0.2-0.7-0.5-0.9-0.9
				c-0.2-0.4-0.4-0.8-0.5-1.3c-0.1-0.5-0.1-1-0.1-1.5l0,0c0-0.8,0.1-1.6,0.2-2.4c0.2-0.8,0.4-1.7,0.7-2.5l0,0
				c-0.8,0.3-1.6,0.5-2.4,0.7c-0.8,0.2-1.6,0.4-2.3,0.5l0,0c-0.5,1.3-1,2.5-1.6,3.5c-0.5,1-1.1,1.8-1.7,2.4
				c-0.6,0.6-1.2,1.1-1.9,1.4c-0.7,0.3-1.4,0.5-2.2,0.5l0,0c-0.5,0-1-0.1-1.4-0.2c-0.4-0.1-0.7-0.3-1-0.6c-0.3-0.3-0.5-0.6-0.6-0.9
				c-0.1-0.3-0.2-0.7-0.2-1.2l0,0c0-0.6,0.1-1.2,0.4-1.7c0.3-0.5,0.7-0.9,1.2-1.2c0.5-0.4,1.1-0.7,1.8-0.9c0.7-0.2,1.4-0.5,2.2-0.6
				l0,0c0.4-0.1,0.9-0.2,1.4-0.3c0.5-0.1,1.1-0.2,1.7-0.3l0,0c0.2-0.6,0.4-1.1,0.6-1.6c0.2-0.5,0.3-0.9,0.5-1.3
				c0.1-0.4,0.3-0.7,0.4-1c0.1-0.3,0.2-0.6,0.3-0.8c0.1-0.2,0.2-0.5,0.3-0.7c0.1-0.2,0.2-0.4,0.4-0.6l0,0c0.1-0.2,0.3-0.4,0.5-0.7
				c0.2-0.2,0.4-0.5,0.6-0.7c0.2-0.3,0.5-0.5,0.7-0.7c0.3-0.2,0.5-0.5,0.8-0.7l0,0c-0.5,0.2-1,0.3-1.5,0.4c-0.5,0.1-1,0.1-1.4,0.1
				l0,0c-0.4,0-0.8,0-1.1-0.1c-0.4-0.1-0.7-0.2-1.1-0.2c-0.3-0.1-0.7-0.2-1-0.2c-0.3-0.1-0.6-0.1-0.8-0.1l0,0
				c-0.3,0-0.5,0.1-0.8,0.2c-0.2,0.1-0.5,0.3-0.6,0.5c-0.2,0.2-0.3,0.5-0.4,0.8c-0.1,0.3-0.2,0.6-0.2,1l0,0
				C233.6,19.7,233.7,20.1,233.8,20.4L233.8,20.4z M231.6,33.4L231.6,33.4c0.4,0,0.7,0,1.1-0.1c0.3-0.1,0.6-0.2,0.9-0.4
				c0.3-0.2,0.6-0.5,0.8-0.8c0.3-0.3,0.5-0.8,0.8-1.3c0.3-0.5,0.6-1.1,0.9-1.9c0.3-0.7,0.6-1.5,1-2.5l0,0c-0.5,0.1-1,0.2-1.5,0.3
				c-0.5,0.1-0.9,0.2-1.4,0.3l0,0c-0.7,0.2-1.4,0.3-2,0.5c-0.6,0.2-1.2,0.5-1.6,0.8c-0.5,0.3-0.8,0.7-1.1,1.1
				c-0.3,0.4-0.4,1-0.4,1.6l0,0c0,0.3,0.1,0.7,0.2,1c0.1,0.3,0.3,0.5,0.5,0.8c0.2,0.2,0.5,0.4,0.8,0.5
				C230.8,33.3,231.2,33.4,231.6,33.4z M252.2,16.5L252.2,16.5c-0.5,0-1.1,0.2-1.6,0.6c-0.6,0.4-1.1,0.9-1.7,1.5
				c-0.5,0.6-1.1,1.4-1.6,2.2c-0.5,0.8-0.9,1.7-1.3,2.7l0,0c0.4-0.2,0.8-0.3,1.2-0.5c0.4-0.2,0.8-0.4,1.2-0.6l0,0
				c0.6-0.3,1.2-0.7,1.8-1c0.6-0.4,1.1-0.8,1.5-1.2c0.5-0.4,0.8-0.8,1.1-1.3c0.3-0.4,0.4-0.9,0.4-1.3l0,0c0-0.3-0.1-0.6-0.2-0.7
				C252.8,16.6,252.5,16.5,252.2,16.5z M252.2,27.1L252.2,27.1c0.2-1,0.6-1.8,1.1-2.7c0.5-0.8,1-1.5,1.7-2.1c0.6-0.6,1.3-1.1,2-1.4
				c0.7-0.3,1.5-0.5,2.2-0.5l0,0c0.6,0,1.1,0.1,1.5,0.3c0.4,0.2,0.7,0.5,1,0.8c0.3,0.3,0.4,0.7,0.5,1.2c0.1,0.5,0.2,0.9,0.2,1.4l0,0
				c0,0.5-0.1,1.1-0.2,1.6c-0.1,0.5-0.2,1-0.4,1.5l0,0c-0.3,0.9-0.7,1.7-1.2,2.5c-0.5,0.8-1,1.4-1.6,2c-0.6,0.6-1.2,1-1.9,1.3
				c-0.7,0.3-1.3,0.5-2,0.5l0,0c-0.5,0-1-0.1-1.4-0.3c-0.4-0.2-0.7-0.4-1-0.8c-0.3-0.3-0.5-0.8-0.6-1.3c-0.2-0.5-0.2-1.1-0.2-1.7
				l0,0c0-0.4,0-0.8,0.1-1.2C252,27.9,252.1,27.5,252.2,27.1z M255.3,33L255.3,33c0.5,0,1-0.1,1.6-0.4c0.5-0.3,1-0.7,1.5-1.2
				c0.5-0.5,1-1.2,1.4-1.9s0.8-1.5,1.1-2.4l0,0c0.1-0.2,0.2-0.5,0.3-0.8c0.1-0.3,0.2-0.6,0.2-0.9c0.1-0.3,0.1-0.6,0.2-1
				c0-0.3,0.1-0.7,0.1-1l0,0c0-0.3,0-0.7-0.1-1c-0.1-0.3-0.2-0.6-0.3-0.8c-0.2-0.2-0.4-0.4-0.6-0.5c-0.3-0.1-0.6-0.2-1-0.2l0,0
				c-0.6,0-1.1,0.1-1.7,0.4s-1.1,0.7-1.6,1.3c-0.5,0.5-0.9,1.2-1.3,1.9c-0.4,0.8-0.7,1.6-1,2.5l0,0c-0.2,0.6-0.3,1.2-0.4,1.8
				c-0.1,0.6-0.1,1.2-0.1,1.7l0,0C253.5,32.2,254.1,33,255.3,33z M265,28.2l4.8-13.2h1.6l-4.8,13.2c-0.1,0.3-0.2,0.6-0.3,0.9
				c-0.1,0.3-0.2,0.6-0.3,0.9c-0.1,0.3-0.1,0.6-0.2,0.8c0,0.3-0.1,0.5-0.1,0.7l0,0c0,0.5,0.1,0.9,0.4,1.2c0.3,0.3,0.7,0.4,1.2,0.4
				l0,0c0.5,0,0.9-0.1,1.4-0.3c0.4-0.2,0.9-0.5,1.3-0.9c0.4-0.4,0.9-0.9,1.3-1.6c0.4-0.6,0.9-1.4,1.4-2.2l0,0l0.6-1l0.3,0.2l-0.6,1
				c-0.5,0.9-1,1.7-1.5,2.4c-0.5,0.7-0.9,1.2-1.4,1.7c-0.5,0.4-1,0.8-1.5,1c-0.5,0.2-1,0.3-1.6,0.3l0,0c-0.4,0-0.8-0.1-1.2-0.2
				c-0.3-0.1-0.6-0.3-0.8-0.6c-0.2-0.2-0.4-0.5-0.5-0.9c-0.1-0.3-0.2-0.7-0.2-1.1l0,0c0-0.4,0-0.8,0.1-1.2
				C264.7,29.1,264.8,28.6,265,28.2L265,28.2z M272.9,28.2l4.8-13.2h1.6l-4.8,13.2c-0.1,0.3-0.2,0.6-0.3,0.9s-0.2,0.6-0.3,0.9
				c-0.1,0.3-0.1,0.6-0.2,0.8c0,0.3-0.1,0.5-0.1,0.7l0,0c0,0.5,0.1,0.9,0.4,1.2c0.3,0.3,0.7,0.4,1.2,0.4l0,0c0.5,0,0.9-0.1,1.4-0.3
				c0.4-0.2,0.9-0.5,1.3-0.9c0.4-0.4,0.9-0.9,1.3-1.6c0.4-0.6,0.9-1.4,1.4-2.2l0,0l0.6-1l0.3,0.2l-0.6,1c-0.5,0.9-1,1.7-1.5,2.4
				c-0.5,0.7-1,1.2-1.4,1.7c-0.5,0.4-1,0.8-1.5,1c-0.5,0.2-1,0.3-1.6,0.3l0,0c-0.4,0-0.8-0.1-1.2-0.2c-0.3-0.1-0.6-0.3-0.8-0.6
				c-0.2-0.2-0.4-0.5-0.5-0.9c-0.1-0.3-0.2-0.7-0.2-1.1l0,0c0-0.4,0-0.8,0.1-1.2C272.6,29.1,272.8,28.6,272.9,28.2L272.9,28.2z
				 M281.2,27.1L281.2,27.1c0.3-0.8,0.6-1.5,0.9-2.1c0.4-0.6,0.7-1.2,1.2-1.7c0.4-0.5,0.9-0.9,1.3-1.3c0.5-0.4,0.9-0.7,1.4-0.9
				c0.5-0.2,0.9-0.4,1.4-0.5c0.4-0.1,0.9-0.2,1.3-0.2l0,0c0.4,0,0.7,0.1,1,0.2c0.3,0.1,0.5,0.3,0.7,0.5c0.2,0.2,0.3,0.5,0.4,0.8
				c0.1,0.3,0.1,0.7,0.1,1.1l0,0l0.9-2.4h1.6l-2.7,7.5c-0.1,0.3-0.2,0.6-0.3,0.9c-0.1,0.3-0.2,0.6-0.3,0.9c-0.1,0.3-0.1,0.6-0.2,0.8
				c0,0.3-0.1,0.5-0.1,0.7l0,0c0,0.5,0.1,0.9,0.4,1.2c0.3,0.3,0.7,0.4,1.2,0.4l0,0c0.5,0,0.9-0.1,1.4-0.3c0.5-0.2,0.9-0.5,1.3-0.9
				c0.4-0.4,0.9-0.9,1.3-1.6c0.4-0.6,0.9-1.4,1.4-2.2l0,0l0.5-1l0.3,0.2l-0.6,1c-0.5,0.9-1,1.7-1.5,2.4c-0.5,0.7-0.9,1.2-1.4,1.7
				c-0.5,0.4-1,0.8-1.4,1c-0.5,0.2-1,0.3-1.6,0.3l0,0c-0.4,0-0.8-0.1-1.2-0.2c-0.3-0.1-0.6-0.3-0.8-0.6c-0.2-0.2-0.4-0.5-0.5-0.9
				c-0.1-0.3-0.2-0.7-0.2-1.1l0,0c0-0.3,0-0.6,0.1-0.9c0-0.3,0.1-0.7,0.2-1l0,0c-0.9,1.6-1.9,2.7-2.8,3.5c-0.9,0.8-1.8,1.2-2.8,1.2
				l0,0c-0.4,0-0.8-0.1-1.1-0.2c-0.3-0.2-0.6-0.4-0.8-0.7c-0.2-0.3-0.3-0.6-0.4-1c-0.1-0.4-0.1-0.8-0.1-1.3l0,0c0-0.5,0-1,0.1-1.6
				S281.1,27.6,281.2,27.1z M283.5,33L283.5,33c0.4,0,0.8-0.1,1.2-0.3c0.4-0.2,0.8-0.5,1.2-0.8c0.4-0.4,0.8-0.8,1.2-1.2
				c0.4-0.5,0.7-1,1.1-1.5c0.3-0.5,0.6-1.1,0.9-1.7c0.3-0.6,0.5-1.1,0.7-1.7c0.2-0.6,0.4-1.1,0.5-1.6c0.1-0.5,0.2-1,0.2-1.4l0,0
				c0-0.4,0-0.7-0.1-0.9c-0.1-0.2-0.2-0.4-0.4-0.6c-0.1-0.2-0.3-0.3-0.5-0.3c-0.2-0.1-0.4-0.1-0.6-0.1l0,0c-0.4,0-0.8,0.1-1.3,0.4
				c-0.5,0.2-1,0.6-1.5,1.1c-0.5,0.5-1,1.1-1.5,1.9c-0.5,0.8-0.9,1.7-1.3,2.7l0,0c-0.3,0.9-0.6,1.7-0.8,2.4
				c-0.2,0.7-0.3,1.4-0.3,1.8l0,0c0,0.6,0.1,1,0.3,1.3C282.7,32.9,283,33,283.5,33z M294.9,33.4l4.6-12.7h1.6l-1.7,4.6
				c0.5-0.8,0.9-1.5,1.4-2.1c0.4-0.6,0.9-1.1,1.3-1.5c0.4-0.4,0.9-0.7,1.3-0.9c0.5-0.2,0.9-0.3,1.4-0.3l0,0c0.5,0,0.8,0.1,1.2,0.2
				c0.3,0.2,0.6,0.4,0.9,0.6c0.2,0.3,0.4,0.5,0.5,0.9c0.1,0.3,0.2,0.7,0.2,1.1l0,0c0,0.4-0.1,0.9-0.2,1.3c-0.1,0.5-0.3,1-0.4,1.5
				s-0.4,1-0.6,1.5c-0.2,0.5-0.4,1-0.6,1.5c-0.2,0.5-0.3,0.9-0.4,1.3c-0.1,0.4-0.2,0.8-0.2,1.1l0,0c0,0.4,0.1,0.8,0.4,1.1
				c0.3,0.3,0.7,0.4,1.3,0.4l0,0c0.5,0,0.9-0.1,1.3-0.3c0.4-0.2,0.9-0.5,1.3-0.9s0.9-0.9,1.3-1.6c0.4-0.6,0.9-1.4,1.4-2.2l0,0l0.6-1
				l0.3,0.2l-0.6,1c-0.5,0.9-1,1.7-1.5,2.4c-0.5,0.7-0.9,1.2-1.4,1.7c-0.5,0.4-1,0.8-1.4,1c-0.5,0.2-1,0.3-1.6,0.3l0,0
				c-0.5,0-0.8-0.1-1.2-0.2c-0.3-0.1-0.6-0.3-0.9-0.6c-0.2-0.2-0.4-0.5-0.5-0.8c-0.1-0.3-0.2-0.6-0.2-1l0,0c0-0.4,0.1-0.8,0.2-1.2
				c0.1-0.5,0.3-0.9,0.4-1.4c0.2-0.5,0.4-1,0.6-1.5c0.2-0.5,0.4-1,0.6-1.5c0.2-0.5,0.3-0.9,0.4-1.4c0.1-0.4,0.2-0.8,0.2-1.2l0,0
				c0-0.2,0-0.5-0.1-0.7c-0.1-0.2-0.2-0.4-0.3-0.5s-0.3-0.3-0.5-0.4c-0.2-0.1-0.5-0.1-0.8-0.1l0,0c-0.5,0-0.9,0.1-1.3,0.3
				c-0.4,0.2-0.9,0.5-1.3,1c-0.4,0.4-0.9,1-1.3,1.6c-0.4,0.7-0.9,1.4-1.4,2.3l0,0l-0.6,1l-2.3,6.2H294.9z M312.8,27.1L312.8,27.1
				c0.3-0.8,0.6-1.5,0.9-2.1c0.4-0.6,0.7-1.2,1.2-1.7s0.9-0.9,1.3-1.3c0.5-0.4,0.9-0.7,1.4-0.9c0.5-0.2,0.9-0.4,1.4-0.5
				c0.4-0.1,0.9-0.2,1.3-0.2l0,0c0.4,0,0.7,0.1,1,0.2c0.3,0.1,0.5,0.3,0.7,0.5c0.2,0.2,0.3,0.5,0.4,0.8c0.1,0.3,0.1,0.7,0.1,1.1l0,0
				l2.9-8h1.6l-4.8,13.2c-0.1,0.3-0.2,0.6-0.3,0.9c-0.1,0.3-0.2,0.6-0.3,0.9c-0.1,0.3-0.1,0.5-0.2,0.8c0,0.3-0.1,0.5-0.1,0.7l0,0
				c0,0.5,0.1,0.9,0.4,1.2c0.3,0.3,0.7,0.4,1.2,0.4l0,0c0.5,0,0.9-0.1,1.4-0.3c0.4-0.2,0.9-0.5,1.3-0.9s0.9-0.9,1.3-1.6
				c0.4-0.6,0.9-1.4,1.4-2.2l0,0l0.5-1l0.3,0.2l-0.6,1c-0.5,0.9-1,1.7-1.5,2.4c-0.5,0.7-0.9,1.2-1.4,1.7c-0.5,0.4-1,0.8-1.4,1
				c-0.5,0.2-1,0.3-1.6,0.3l0,0c-0.4,0-0.8-0.1-1.2-0.2c-0.3-0.1-0.6-0.3-0.8-0.6c-0.2-0.2-0.4-0.5-0.5-0.9
				c-0.1-0.3-0.2-0.7-0.2-1.1l0,0c0-0.3,0-0.6,0.1-0.9c0.1-0.3,0.1-0.7,0.2-1l0,0c-0.9,1.6-1.9,2.7-2.8,3.5
				c-0.9,0.8-1.8,1.2-2.8,1.2l0,0c-0.4,0-0.8-0.1-1.1-0.2c-0.3-0.2-0.6-0.4-0.8-0.7c-0.2-0.3-0.3-0.6-0.4-1
				c-0.1-0.4-0.1-0.8-0.1-1.3l0,0c0-0.5,0-1,0.1-1.6C312.5,28.2,312.6,27.6,312.8,27.1z M315.1,33L315.1,33c0.4,0,0.8-0.1,1.2-0.3
				c0.4-0.2,0.8-0.5,1.2-0.8c0.4-0.4,0.8-0.8,1.2-1.2c0.4-0.5,0.7-1,1.1-1.5c0.3-0.5,0.6-1.1,0.9-1.7c0.3-0.6,0.5-1.1,0.7-1.7
				c0.2-0.6,0.4-1.1,0.5-1.6c0.1-0.5,0.2-1,0.2-1.4l0,0c0-0.4,0-0.7-0.1-0.9c-0.1-0.2-0.2-0.4-0.4-0.6c-0.1-0.2-0.3-0.3-0.5-0.3
				c-0.2-0.1-0.4-0.1-0.6-0.1l0,0c-0.4,0-0.8,0.1-1.3,0.4c-0.5,0.2-1,0.6-1.5,1.1c-0.5,0.5-1,1.1-1.5,1.9c-0.5,0.8-0.9,1.7-1.3,2.7
				l0,0c-0.3,0.9-0.6,1.7-0.8,2.4c-0.2,0.7-0.3,1.4-0.3,1.8l0,0c0,0.6,0.1,1,0.3,1.3C314.3,32.9,314.6,33,315.1,33z M338.8,33.8
				V16.4h1v17.4H338.8z M361.9,20.3L361.9,20.3c0.2-0.4,0.5-0.9,0.9-1.3c0.3-0.4,0.7-0.8,1.1-1.1l0,0c-0.6-0.1-1.3-0.1-1.9-0.3
				c-0.6-0.1-1.2-0.2-1.8-0.3c-0.6-0.1-1.2-0.2-1.8-0.3c-0.6-0.1-1.1-0.1-1.6-0.1l0,0c-0.7,0-1.2,0.1-1.7,0.2
				c-0.5,0.1-0.8,0.3-1.1,0.5c-0.3,0.2-0.5,0.5-0.6,0.7c-0.1,0.3-0.2,0.6-0.2,0.8l0,0c0,0.3,0,0.5,0.1,0.8c0.1,0.2,0.3,0.5,0.4,0.7
				c0.2,0.2,0.4,0.3,0.7,0.5c0.3,0.1,0.6,0.2,1,0.2l0,0c0.2,0,0.4,0,0.7-0.1c0.2,0,0.5-0.1,0.7-0.2c0.2-0.1,0.5-0.2,0.7-0.2
				c0.2-0.1,0.4-0.2,0.6-0.3l0,0l0.2,0.3c-0.2,0.1-0.5,0.3-0.7,0.4c-0.3,0.1-0.5,0.2-0.8,0.3c-0.3,0.1-0.5,0.1-0.8,0.2
				c-0.3,0-0.5,0.1-0.7,0.1l0,0c-0.4,0-0.8-0.1-1.1-0.2c-0.3-0.1-0.6-0.3-0.8-0.5c-0.2-0.2-0.4-0.5-0.5-0.8
				c-0.1-0.3-0.2-0.6-0.2-0.9l0,0c0-0.5,0.1-0.9,0.3-1.3c0.2-0.4,0.5-0.7,0.9-1c0.4-0.3,0.9-0.5,1.6-0.7s1.3-0.2,2.2-0.2l0,0
				c0.6,0,1.2,0,1.8,0.1c0.6,0.1,1.2,0.2,1.8,0.3c0.6,0.1,1.3,0.2,1.9,0.3c0.6,0.1,1.3,0.1,1.9,0.2l0,0c0.6-0.3,1.2-0.6,1.8-0.8
				c0.6-0.2,1.2-0.3,1.8-0.3l0,0c0.3,0,0.5,0,0.6,0.1c0.1,0.1,0.2,0.2,0.2,0.3l0,0c0,0.2-0.1,0.5-0.3,0.7c-0.2,0.2-0.5,0.4-0.9,0.5
				c-0.4,0.2-0.9,0.3-1.4,0.4c-0.5,0.1-1.1,0.1-1.7,0.1l0,0c-0.1,0-0.2,0-0.3,0c-0.1,0-0.2,0-0.3,0l0,0c-0.2,0.2-0.4,0.4-0.5,0.6
				l0,0c-0.1,0.1-0.1,0.2-0.2,0.3c-0.1,0.1-0.1,0.3-0.2,0.5c-0.1,0.2-0.2,0.4-0.3,0.7c-0.1,0.3-0.2,0.6-0.4,1
				c-0.1,0.4-0.3,0.9-0.5,1.4c-0.2,0.5-0.4,1.2-0.7,1.9l0,0h3.1v0.4h-3.3c-0.6,1.6-1.2,2.9-1.8,4.1c-0.6,1.1-1.3,2.1-2,2.8
				c-0.7,0.7-1.4,1.3-2.2,1.6c-0.8,0.3-1.6,0.5-2.4,0.5l0,0c-0.5,0-1-0.1-1.5-0.2c-0.5-0.1-0.8-0.3-1.2-0.6c-0.3-0.3-0.6-0.6-0.8-1
				c-0.2-0.4-0.3-0.8-0.3-1.4l0,0c0-0.3,0-0.7,0.1-1c0.1-0.3,0.2-0.6,0.3-0.8c0.1-0.2,0.3-0.4,0.5-0.6c0.2-0.1,0.4-0.2,0.6-0.2l0,0
				c0.2,0,0.3,0,0.4,0.1c0.1,0.1,0.2,0.2,0.2,0.4l0,0c0,0.2,0,0.3-0.1,0.4c-0.1,0.1-0.2,0.2-0.3,0.2c-0.1,0.1-0.3,0.1-0.4,0.2
				c-0.1,0.1-0.3,0.2-0.4,0.3c-0.1,0.1-0.2,0.3-0.3,0.4c-0.1,0.2-0.1,0.4-0.1,0.7l0,0c0,0.4,0.1,0.8,0.2,1.1
				c0.2,0.3,0.4,0.6,0.6,0.8c0.3,0.2,0.6,0.4,1,0.5c0.4,0.1,0.9,0.2,1.4,0.2l0,0c0.4,0,0.7,0,1.1-0.1c0.3-0.1,0.7-0.2,1-0.4
				c0.3-0.2,0.6-0.5,0.9-0.8c0.3-0.3,0.6-0.8,0.9-1.3c0.3-0.5,0.6-1.1,1-1.8c0.3-0.7,0.7-1.5,1.1-2.5l0,0c0.1-0.3,0.3-0.6,0.4-0.9
				c0.1-0.3,0.2-0.6,0.3-0.8l0,0h-2.9v-0.4h3.1c0.3-0.7,0.5-1.3,0.7-1.8c0.2-0.5,0.3-0.8,0.5-1.1c0.1-0.3,0.2-0.5,0.3-0.7
				C361.8,20.6,361.8,20.4,361.9,20.3z M368.9,16.2L368.9,16.2c-0.5,0-0.9,0.1-1.4,0.2c-0.5,0.1-0.9,0.3-1.3,0.5l0,0
				c0.4,0,0.8,0,1.2-0.1c0.4,0,0.7-0.1,1-0.1c0.3-0.1,0.5-0.1,0.7-0.2c0.2-0.1,0.3-0.1,0.3-0.2l0,0
				C369.4,16.2,369.2,16.2,368.9,16.2z M366.8,28.2l2.7-7.5h1.6l-2.7,7.5c-0.1,0.3-0.2,0.6-0.3,0.9c-0.1,0.3-0.2,0.6-0.3,0.9
				c-0.1,0.3-0.1,0.6-0.2,0.8c0,0.3-0.1,0.5-0.1,0.7l0,0c0,0.5,0.1,0.9,0.4,1.2s0.7,0.4,1.2,0.4l0,0c0.5,0,0.9-0.1,1.4-0.3
				c0.5-0.2,0.9-0.5,1.3-0.9c0.4-0.4,0.9-0.9,1.3-1.6c0.4-0.6,0.9-1.4,1.4-2.2l0,0l0.6-1l0.3,0.2l-0.6,1c-0.5,0.9-1,1.7-1.5,2.4
				c-0.5,0.7-1,1.2-1.4,1.7c-0.5,0.4-1,0.8-1.4,1c-0.5,0.2-1,0.3-1.6,0.3l0,0c-0.4,0-0.8-0.1-1.2-0.2c-0.3-0.1-0.6-0.3-0.8-0.6
				c-0.2-0.2-0.4-0.5-0.5-0.9c-0.1-0.3-0.2-0.7-0.2-1.1l0,0c0-0.4,0-0.8,0.1-1.2C366.5,29.1,366.6,28.6,366.8,28.2L366.8,28.2z
				 M370.4,17.8L370.4,17.8c0-0.3,0.1-0.5,0.3-0.6c0.2-0.2,0.4-0.3,0.6-0.3l0,0c0.3,0,0.5,0.1,0.6,0.3c0.2,0.2,0.3,0.4,0.3,0.6l0,0
				c0,0.1,0,0.2-0.1,0.3c0,0.1-0.1,0.2-0.2,0.3c-0.1,0.1-0.2,0.1-0.3,0.2c-0.1,0-0.2,0.1-0.4,0.1l0,0c-0.2,0-0.5-0.1-0.6-0.3
				C370.5,18.3,370.4,18.1,370.4,17.8z M383.2,21.4L383.2,21.4c0-0.1-0.1-0.2-0.2-0.3s-0.4-0.2-0.6-0.2l0,0c-0.3,0-0.6,0.1-0.9,0.3
				c-0.3,0.2-0.7,0.5-1.1,0.9s-0.9,1-1.4,1.8c-0.5,0.8-1.1,1.7-1.8,2.9l0,0l-0.5,0.9l-2,5.6h-1.6l4.6-12.7h1.6l-1.9,5.1
				c0.6-1,1.1-1.9,1.6-2.5c0.5-0.7,0.9-1.2,1.4-1.7c0.4-0.4,0.8-0.7,1.2-0.9c0.4-0.2,0.7-0.3,1.1-0.3l0,0c0.5,0,0.8,0.1,1.1,0.4
				c0.3,0.3,0.4,0.6,0.4,1.1l0,0c0,0.2,0,0.4-0.1,0.5c0,0.2-0.1,0.3-0.2,0.4c-0.1,0.1-0.2,0.2-0.3,0.3c-0.1,0.1-0.3,0.1-0.4,0.1l0,0
				c-0.1,0-0.2,0-0.3-0.1c-0.1,0-0.2-0.1-0.3-0.2c-0.1-0.1-0.2-0.2-0.2-0.3c-0.1-0.1-0.1-0.2-0.1-0.4l0,0c0-0.1,0-0.2,0.1-0.4
				c0-0.1,0.1-0.2,0.2-0.3c0.1-0.1,0.2-0.2,0.3-0.2c0.1-0.1,0.2-0.1,0.3-0.1l0,0c0.1,0,0.2,0,0.2,0l0,0c0,0,0,0,0.1,0c0,0,0,0,0.1,0
				l0,0C383.2,21.6,383.2,21.5,383.2,21.4z M383.7,30.4L383.7,30.4c0-0.4,0-0.7,0.1-1.1c0.1-0.4,0.2-0.7,0.3-1
				c0.1-0.3,0.3-0.6,0.5-0.8c0.2-0.2,0.4-0.4,0.6-0.6l0,0l4.5-6.6c0.1-0.6,0.2-1,0.4-1.4c0.2-0.4,0.4-0.5,0.7-0.5l0,0
				c0.2,0,0.4,0.1,0.5,0.2c0.1,0.1,0.2,0.3,0.2,0.4l0,0c0,0.1,0,0.2-0.1,0.3c-0.1,0.1-0.2,0.2-0.3,0.3l0,0c-0.2,0.1-0.3,0.3-0.4,0.4
				c-0.1,0.1-0.2,0.2-0.3,0.4c-0.1,0.1-0.1,0.2-0.1,0.4c0,0.1,0,0.3,0,0.4l0,0c0,0.2,0,0.3,0,0.5c0,0.2,0.1,0.4,0.1,0.7
				c0.1,0.3,0.2,0.6,0.3,1c0.1,0.4,0.3,0.9,0.5,1.5l0,0c0.2,0.6,0.3,1.2,0.4,1.7c0.1,0.5,0.1,1.1,0.1,1.6l0,0c0,2-0.7,3.5-2.1,4.5
				l0,0c-0.4,0.3-0.9,0.5-1.4,0.7c-0.5,0.2-1,0.2-1.5,0.2l0,0c-0.5,0-0.9-0.1-1.3-0.2c-0.4-0.1-0.7-0.4-1-0.6
				c-0.3-0.3-0.5-0.6-0.6-1C383.8,31.4,383.7,30.9,383.7,30.4z M389.7,21.3v-0.2l-3.8,5.6c0.2,0,0.4,0.1,0.5,0.2
				c0.1,0.2,0.2,0.3,0.2,0.6l0,0c0,0.1,0,0.3,0,0.4c0,0.1-0.1,0.2-0.2,0.3c-0.1,0.1-0.1,0.2-0.2,0.2c-0.1,0.1-0.2,0.1-0.3,0.1l0,0
				c-0.1,0-0.2,0-0.3-0.1c-0.1-0.1-0.2-0.1-0.3-0.1l0,0c-0.2,0-0.3,0.1-0.4,0.2c-0.1,0.1-0.2,0.3-0.3,0.4c-0.1,0.2-0.2,0.4-0.2,0.7
				c-0.1,0.3-0.1,0.5-0.1,0.8l0,0c0,0.4,0.1,0.8,0.2,1.1c0.1,0.3,0.3,0.6,0.5,0.8c0.2,0.2,0.5,0.4,0.8,0.5c0.3,0.1,0.6,0.2,1,0.2
				l0,0c0.5,0,1-0.1,1.4-0.3c0.4-0.2,0.8-0.5,1.1-0.9l0,0c0.8-1,1.2-2.5,1.2-4.5l0,0c0-0.2,0-0.5,0-0.7c0-0.2,0-0.5,0-0.8
				c0-0.3-0.1-0.5-0.1-0.8c0-0.3-0.1-0.6-0.1-1l0,0c-0.1-0.6-0.2-1.2-0.2-1.6C389.7,21.9,389.7,21.6,389.7,21.3L389.7,21.3z
				 M395.3,21.1v-0.4h3.1l1-2.8h1.6l-1,2.8h3.2v0.4h-3.4l-2.6,7.1c-0.1,0.3-0.2,0.6-0.3,0.9s-0.2,0.6-0.3,0.9
				c-0.1,0.3-0.1,0.6-0.2,0.8c0,0.3-0.1,0.5-0.1,0.7l0,0c0,0.5,0.1,0.9,0.4,1.2c0.3,0.3,0.7,0.4,1.2,0.4l0,0c0.5,0,1-0.1,1.5-0.3
				c0.5-0.2,1-0.5,1.5-0.9c0.5-0.4,1-0.9,1.4-1.6c0.5-0.6,1-1.4,1.4-2.3l0,0l0.6-1l0.3,0.2l-0.6,1c-0.6,1-1.1,1.8-1.6,2.5
				c-0.5,0.7-1.1,1.2-1.6,1.7c-0.5,0.4-1,0.7-1.6,0.9c-0.5,0.2-1.1,0.3-1.7,0.3l0,0c-0.4,0-0.8-0.1-1.2-0.2
				c-0.3-0.1-0.6-0.3-0.8-0.6c-0.2-0.2-0.4-0.5-0.5-0.9c-0.1-0.3-0.2-0.7-0.2-1.1l0,0c0-0.4,0-0.8,0.1-1.2c0.1-0.4,0.2-0.9,0.4-1.4
				l0,0l2.6-7.1H395.3z M417.5,33.8L417.5,33.8c-0.8,0-1.5-0.1-2.1-0.4c-0.6-0.2-1.1-0.6-1.6-1.1c-0.4-0.5-0.7-1-1-1.7
				c-0.2-0.7-0.3-1.5-0.3-2.3l0,0c0-0.5,0-1,0.1-1.5c0.1-0.5,0.2-1.1,0.3-1.6l0,0c0.2-0.9,0.5-1.7,0.9-2.5c0.4-0.8,0.8-1.5,1.2-2.2
				c0.5-0.7,1-1.3,1.5-1.8c0.6-0.5,1.2-1,1.8-1.4c0.6-0.4,1.3-0.7,1.9-0.9c0.7-0.2,1.4-0.3,2-0.3l0,0c0.3,0,0.7,0,1,0.1
				c0.3,0.1,0.6,0.2,0.9,0.4c0.3,0.2,0.5,0.4,0.7,0.7c0.2,0.3,0.3,0.7,0.3,1.1l0,0c0,0.4-0.1,0.8-0.2,1.1c-0.1,0.3-0.3,0.7-0.5,0.9
				c-0.2,0.3-0.5,0.5-0.7,0.8c-0.3,0.2-0.6,0.4-0.9,0.6l0,0l-0.2-0.3c0.6-0.5,1-1,1.3-1.5s0.4-1.1,0.4-1.8l0,0
				c0-0.6-0.1-1.1-0.4-1.4c-0.3-0.3-0.7-0.4-1.3-0.4l0,0c-0.7,0-1.5,0.2-2.2,0.6s-1.5,1-2.2,1.8c-0.7,0.8-1.3,1.6-1.9,2.7
				c-0.6,1-1.1,2.1-1.4,3.3l0,0c-0.2,0.8-0.4,1.5-0.6,2.3c-0.1,0.7-0.2,1.4-0.2,2.1l0,0c0,2.6,1.2,4,3.6,4l0,0
				c1.4,0,2.6-0.4,3.8-1.3c1.1-0.9,2.2-2.2,3.2-4l0,0l0.6-1l0.3,0.2l-0.6,1c-0.5,1-1.1,1.8-1.7,2.5c-0.6,0.7-1.1,1.3-1.8,1.7
				c-0.6,0.5-1.2,0.8-1.9,1C419,33.7,418.3,33.8,417.5,33.8z M422.9,33.4l6.7-18.4h1.6l-3.7,10.3c0.5-0.8,0.9-1.5,1.4-2.1
				s0.9-1.1,1.3-1.5c0.4-0.4,0.9-0.7,1.3-0.9c0.5-0.2,0.9-0.3,1.5-0.3l0,0c0.4,0,0.8,0.1,1.2,0.2c0.3,0.1,0.6,0.3,0.8,0.6
				s0.4,0.6,0.5,0.9c0.1,0.4,0.2,0.8,0.2,1.2l0,0c0,0.3-0.1,0.7-0.2,1.1c-0.1,0.4-0.3,0.9-0.4,1.4c-0.2,0.5-0.4,1-0.6,1.5
				c-0.2,0.5-0.4,1-0.6,1.5s-0.3,0.9-0.4,1.4c-0.1,0.4-0.2,0.8-0.2,1.1l0,0c0,0.5,0.1,0.9,0.4,1.2c0.3,0.3,0.7,0.4,1.2,0.4l0,0
				c0.5,0,0.9-0.1,1.4-0.3c0.4-0.2,0.9-0.5,1.3-0.9c0.4-0.4,0.9-0.9,1.3-1.6c0.4-0.6,0.9-1.4,1.4-2.2l0,0l0.6-1l0.3,0.2l-0.6,1
				c-0.5,0.9-1,1.7-1.5,2.4c-0.5,0.7-1,1.2-1.4,1.7c-0.5,0.4-1,0.8-1.4,1c-0.5,0.2-1,0.3-1.6,0.3l0,0c-0.4,0-0.8-0.1-1.2-0.2
				c-0.3-0.1-0.6-0.3-0.8-0.6c-0.2-0.2-0.4-0.5-0.5-0.9c-0.1-0.3-0.2-0.7-0.2-1.1l0,0c0-0.3,0.1-0.7,0.2-1.1
				c0.1-0.4,0.3-0.9,0.4-1.4c0.2-0.5,0.4-1,0.6-1.5s0.4-1,0.6-1.5c0.2-0.5,0.3-0.9,0.4-1.4c0.1-0.4,0.2-0.8,0.2-1l0,0
				c0-0.6-0.1-1-0.4-1.3c-0.3-0.3-0.7-0.5-1.2-0.5l0,0c-0.5,0-1,0.1-1.4,0.3c-0.5,0.2-0.9,0.6-1.4,1.1c-0.5,0.5-1,1.1-1.5,1.9
				c-0.5,0.8-1.1,1.7-1.7,2.9l0,0l-2.3,6.2H422.9z M440.8,27.1L440.8,27.1c0.3-0.8,0.6-1.5,0.9-2.1c0.4-0.6,0.7-1.2,1.2-1.7
				c0.4-0.5,0.9-0.9,1.3-1.3c0.5-0.4,0.9-0.7,1.4-0.9c0.5-0.2,0.9-0.4,1.4-0.5c0.4-0.1,0.9-0.2,1.3-0.2l0,0c0.4,0,0.7,0.1,1,0.2
				c0.3,0.1,0.5,0.3,0.7,0.5c0.2,0.2,0.3,0.5,0.4,0.8c0.1,0.3,0.1,0.7,0.1,1.1l0,0l0.9-2.4h1.6l-2.7,7.5c-0.1,0.3-0.2,0.6-0.3,0.9
				c-0.1,0.3-0.2,0.6-0.3,0.9c-0.1,0.3-0.1,0.6-0.2,0.8c0,0.3-0.1,0.5-0.1,0.7l0,0c0,0.5,0.1,0.9,0.4,1.2s0.7,0.4,1.2,0.4l0,0
				c0.5,0,0.9-0.1,1.4-0.3c0.5-0.2,0.9-0.5,1.3-0.9c0.4-0.4,0.9-0.9,1.3-1.6c0.4-0.6,0.9-1.4,1.4-2.2l0,0l0.5-1l0.3,0.2l-0.6,1
				c-0.5,0.9-1,1.7-1.5,2.4c-0.5,0.7-0.9,1.2-1.4,1.7c-0.5,0.4-1,0.8-1.4,1c-0.5,0.2-1,0.3-1.6,0.3l0,0c-0.4,0-0.8-0.1-1.2-0.2
				c-0.3-0.1-0.6-0.3-0.8-0.6c-0.2-0.2-0.4-0.5-0.5-0.9c-0.1-0.3-0.2-0.7-0.2-1.1l0,0c0-0.3,0-0.6,0.1-0.9c0.1-0.3,0.1-0.7,0.2-1
				l0,0c-0.9,1.6-1.9,2.7-2.8,3.5c-0.9,0.8-1.8,1.2-2.8,1.2l0,0c-0.4,0-0.8-0.1-1.1-0.2c-0.3-0.2-0.6-0.4-0.8-0.7
				c-0.2-0.3-0.3-0.6-0.4-1c-0.1-0.4-0.1-0.8-0.1-1.3l0,0c0-0.5,0-1,0.1-1.6C440.4,28.2,440.6,27.6,440.8,27.1z M443.1,33L443.1,33
				c0.4,0,0.8-0.1,1.2-0.3c0.4-0.2,0.8-0.5,1.2-0.8c0.4-0.4,0.8-0.8,1.2-1.2c0.4-0.5,0.7-1,1.1-1.5c0.3-0.5,0.6-1.1,0.9-1.7
				c0.3-0.6,0.5-1.1,0.7-1.7c0.2-0.6,0.4-1.1,0.5-1.6c0.1-0.5,0.2-1,0.2-1.4l0,0c0-0.4,0-0.7-0.1-0.9c-0.1-0.2-0.2-0.4-0.4-0.6
				c-0.1-0.2-0.3-0.3-0.5-0.3c-0.2-0.1-0.4-0.1-0.6-0.1l0,0c-0.4,0-0.8,0.1-1.3,0.4c-0.5,0.2-1,0.6-1.5,1.1c-0.5,0.5-1,1.1-1.5,1.9
				c-0.5,0.8-0.9,1.7-1.3,2.7l0,0c-0.3,0.9-0.6,1.7-0.8,2.4c-0.2,0.7-0.3,1.4-0.3,1.8l0,0c0,0.6,0.1,1,0.3,1.3
				C442.2,32.9,442.6,33,443.1,33z M456.4,28.2l2.7-7.5h1.6l-2.7,7.5c-0.1,0.3-0.2,0.6-0.3,0.9c-0.1,0.3-0.2,0.6-0.3,0.9
				c-0.1,0.3-0.1,0.6-0.2,0.8c0,0.3-0.1,0.5-0.1,0.7l0,0c0,0.5,0.1,0.9,0.4,1.2s0.7,0.4,1.2,0.4l0,0c0.5,0,0.9-0.1,1.4-0.3
				c0.4-0.2,0.9-0.5,1.3-0.9c0.4-0.4,0.9-0.9,1.3-1.6c0.4-0.6,0.9-1.4,1.4-2.2l0,0l0.6-1l0.3,0.2l-0.6,1c-0.5,0.9-1,1.7-1.5,2.4
				c-0.5,0.7-0.9,1.2-1.4,1.7c-0.5,0.4-1,0.8-1.5,1c-0.5,0.2-1,0.3-1.6,0.3l0,0c-0.4,0-0.8-0.1-1.2-0.2c-0.3-0.1-0.6-0.3-0.8-0.6
				c-0.2-0.2-0.4-0.5-0.5-0.9c-0.1-0.3-0.2-0.7-0.2-1.1l0,0c0-0.4,0-0.8,0.1-1.2C456.1,29.1,456.2,28.6,456.4,28.2L456.4,28.2z
				 M460,17.8L460,17.8c0-0.3,0.1-0.5,0.3-0.6c0.2-0.2,0.4-0.3,0.6-0.3l0,0c0.2,0,0.5,0.1,0.6,0.3c0.2,0.2,0.3,0.4,0.3,0.6l0,0
				c0,0.1,0,0.2-0.1,0.3c0,0.1-0.1,0.2-0.2,0.3c-0.1,0.1-0.2,0.1-0.3,0.2c-0.1,0-0.2,0.1-0.4,0.1l0,0c-0.3,0-0.5-0.1-0.6-0.3
				C460.1,18.3,460,18.1,460,17.8z M472.8,21.4L472.8,21.4c0-0.1-0.1-0.2-0.2-0.3c-0.1-0.1-0.4-0.2-0.6-0.2l0,0
				c-0.3,0-0.6,0.1-0.9,0.3c-0.3,0.2-0.7,0.5-1.1,0.9c-0.4,0.4-0.9,1-1.4,1.8c-0.5,0.8-1.1,1.7-1.8,2.9l0,0l-0.5,0.9l-2,5.6h-1.6
				l4.6-12.7h1.6l-1.9,5.1c0.6-1,1.1-1.9,1.6-2.5c0.5-0.7,0.9-1.2,1.4-1.7c0.4-0.4,0.8-0.7,1.2-0.9c0.4-0.2,0.7-0.3,1.1-0.3l0,0
				c0.5,0,0.8,0.1,1.1,0.4c0.3,0.3,0.4,0.6,0.4,1.1l0,0c0,0.2,0,0.4-0.1,0.5c0,0.2-0.1,0.3-0.2,0.4c-0.1,0.1-0.2,0.2-0.3,0.3
				c-0.1,0.1-0.3,0.1-0.4,0.1l0,0c-0.1,0-0.2,0-0.3-0.1c-0.1,0-0.2-0.1-0.3-0.2c-0.1-0.1-0.2-0.2-0.2-0.3c-0.1-0.1-0.1-0.2-0.1-0.4
				l0,0c0-0.1,0-0.2,0.1-0.4c0-0.1,0.1-0.2,0.2-0.3c0.1-0.1,0.2-0.2,0.3-0.2c0.1-0.1,0.2-0.1,0.3-0.1l0,0c0.1,0,0.2,0,0.2,0l0,0
				c0,0,0,0,0.1,0c0,0,0,0,0.1,0l0,0C472.7,21.6,472.8,21.5,472.8,21.4z"/>
		</g>
	</g>
</g>
</svg>
