<?xml version="1.0" encoding="utf-8"?>
<!-- Generator: Adobe Illustrator 24.2.1, SVG Export Plug-In . SVG Version: 6.00 Build 0)  -->
<svg version="1.1" id="Layer_1" xmlns="http://www.w3.org/2000/svg" xmlns:xlink="http://www.w3.org/1999/xlink" x="0px" y="0px"
	 viewBox="0 0 436.1 184.7" style="enable-background:new 0 0 436.1 184.7;" xml:space="preserve">
<style type="text/css">
	.st0{fill:#A26054;}
	.st1{fill:#EFEDE1;}
</style>
<g>
	<g transform="rotate(0 0 0)">
		<g transform="matrix(1 0 0 1 0 0)">
			<g>
				<path class="st0" d="M260.9,178.7c0-0.4,0-0.8,0.1-1.2c0.9,0.1,1.6,0.7,2.4,0.9l59.3-8.3c-0.3-0.1-0.6-0.2-0.9-0.1
					c1.2-1,2.1-1.3,3.1-0.8c0.2,0.1,0.3,0.3,0.3,0.6l70.8-9.9c0-0.6,0.6-0.6,1-0.7c0.4-0.2,0.6,0.2,0.6,0.5l13.9-1.9
					c-0.2-0.5-0.2-1,0.3-1.3c0.2-0.1,0.8,0,0.8,0.1c0.1,0.4-0.1,0.8-0.3,1.1l19.8-2.8c2.5-0.3,4.3-2.4,4.3-4.9V34.8
					c0-2.5-1.8-4.6-4.3-4.9L303.6,11.9c-0.2,0.3-0.4,0.7-0.6,1.1c-0.1-0.5-0.3-0.8-0.5-1.2l-57.2-8c0.4,1.8-0.2,2.9-1.4,3.9
					c-0.3,0.3-0.7,0.5-1.2,0.5c-1.1,0.1-2-0.4-2.1-1.4c-0.1-0.6,1-0.7,1.4-1c1-0.7,2.1-1,3.1-2L218.7,0c-0.5-0.1-0.9-0.1-1.4,0
					l-1.1,0.2c0.3,0.6,0.8,1.1,1.4,1.6c0.8,0.6,0.8,1.8,0,2.5c-1,0.9-1.6-0.1-2-0.8c-0.6-1-1.7-1.8-2.2-2.9l-51.9,7.3
					c0.3,0.4,0.5,0.9,0.5,1.4c0,0.1-0.7,0.1-1.1,0.2l-0.2,1.2c-0.8-0.4-1.5-0.9-2.1-1.5c-0.3-0.3-0.4-0.6-0.3-0.9l-6.6,0.9l-0.5,0.7
					c-0.6-0.1-0.9-0.3-1.1-0.5l-18.8,2.6c-0.1,0.1-0.3,0.2-0.5,0.3c-0.2,0-0.3,0-0.5-0.1l-33.8,4.7c-0.1,0.4-0.4,0.7-0.7,0.9
					c-0.4-0.1-0.6-0.3-0.8-0.7L4.3,29.9C1.8,30.2,0,32.3,0,34.8v113.5l0,0.1c0,0.1,0,0.2,0,0.4v1.2c0,2.5,1.8,4.6,4.3,4.9l14.7,2.1
					c0.1-1.4,0.7-2.6,1.9-3.6c0.6-0.6,1.6-0.7,2-1.5c0.2-0.3,0.6-0.5,0.8,0c0.6,1.3,1.7,2.4,1.4,4.1c-0.2,1.2-0.1,1.2-1.8,0.6l0,1.1
					l21.2,3c-0.1-0.7-0.2-1.3,0.2-1.9c0.3,0.6,0.2,1.2,0.1,1.9l16.3,2.3c0.4-0.5,1-0.8,2-0.8c0.2,0,0.3-0.2,0.5-0.3
					c2.3-1.2,2.3-1.2,2.7,1.4c0,0.2,0.1,0.4,0.1,0.6l63.4,8.9c-0.1-0.7-0.1-1.3,0.3-2.3c0.1,1,0.2,1.7,0,2.3l28.2,4
					c0.2-0.7,0.6-1.2,1.8-1.1c1-0.7,1.2,0.6,1.9,0.8h-1.5c-0.2,0.2-0.4,0.4-0.7,0.5l57.5,8c0.5,0.1,0.9,0.1,1.4,0L260.9,178.7
					L260.9,178.7z M396.7,45.5c-0.6-1.5-0.5-2.4,0.2-3.4C398.2,43.2,397.4,44.1,396.7,45.5z M399.6,71.6c0.5,0,0.8,0.1,1.1,0.7
					c-0.2,0.2-0.4,0.5-0.7,0.6c-0.5,0.1-0.8-0.3-0.9-0.7C398.8,71.6,399.3,71.6,399.6,71.6L399.6,71.6z M400.5,129.8
					c-0.6-0.5-1.2-0.9-1.2-1.6c0-0.6,0.4-1,0.9-1c0.7,0,1.3,0.5,1.2,1.2C401.4,128.9,400.8,129.3,400.5,129.8z M402.1,109.8
					c-0.5-0.1-0.7-0.7-0.6-1.2c-0.1-0.6,0.2-1.1,0.6-1.1c0.7,0,0.8,0.7,0.8,1.3C402.9,109.3,402.6,109.9,402.1,109.8z M415.6,156.7
					c-0.4-0.1-0.9-0.4-0.8-0.9c0-0.3,0.4-0.6,0.6-0.8c0.2,0.3,0.5,0.6,0.6,0.9C416.1,156.2,416.1,156.6,415.6,156.7L415.6,156.7z
					 M423.8,54.9c-0.8-0.7-1-1.3-0.3-2c0.2-0.2,0.5-0.4,0.7-0.1C424.8,53.6,424,54.1,423.8,54.9L423.8,54.9z M423.5,49
					c0.3-0.3,0.7-0.3,0.9,0c0.8,1.1-0.4,1.7-0.5,2.6C423,50.8,422.7,49.9,423.5,49z M421.6,79.2c0.4-0.1,0.6,0.3,0.6,0.7
					c0,0.4-0.3,0.8-0.7,0.9c-0.4,0.1-0.6-0.3-0.6-0.7C420.9,79.7,421.2,79.3,421.6,79.2L421.6,79.2z M420.2,88.3
					c0.2,0.4,0.5,0.6,0.6,0.9c0.1,0.3-0.1,0.5-0.4,0.5c-0.3,0-0.8,0.1-0.7-0.4C419.7,89,419.9,88.7,420.2,88.3z M422.1,104.7
					c-1.5-0.5-3.4,0.9-4.1-1.2C418.7,105.5,420.8,103.3,422.1,104.7z M417.7,28c0.3,0,0.6,0.1,0.5,0.5c0,0.5-0.2,0.8-0.8,0.8
					c-0.3,0-0.5-0.1-0.6-0.5C416.9,28.3,417.2,28,417.7,28L417.7,28z M415.8,92c0.1-0.1,0.5-0.1,0.5,0c0.3,0.5,0.3,1.1-0.2,1.7
					C415.5,93.1,415.5,92.6,415.8,92L415.8,92z M415,28.8c0.3,0,0.6,0,0.6,0.4c0,0.4-0.3,0.8-0.8,0.9c-0.3,0-0.5-0.2-0.5-0.5
					C414.3,29.1,414.4,28.8,415,28.8z M414.7,123.1c-0.1,0.5-0.3,0.9-0.7,0.8c-0.4-0.1-0.7-0.5-0.6-0.9c0.1-0.7,0.3-1.1,0.8-1
					C414.5,122.1,414.8,122.6,414.7,123.1L414.7,123.1z M412.2,56.2c-0.1-0.8-0.4-1.6,0.6-1.7c0.3-0.1,0.6,0.1,0.6,0.4
					C413.5,55.7,413.1,56.1,412.2,56.2z M412.7,30.2c0.2,0.4,1.2,0.4,0.9,0.8c-0.6,0.8-1.3,1.7-2.3,1.8c-0.6,0-1.1-0.2-1-0.5
					C410.8,31.2,411.8,30.8,412.7,30.2z M411.7,85.7c0.6,0,0.9,0.3,0.9,0.9c-0.1,0.7-0.3,1.3-1.2,1.2c-0.9,0-0.4-1-1-1.1
					C410.6,86,411,85.7,411.7,85.7z M408.5,52.7c0.1-0.2,0.2-0.3,0.4-0.4c0.3-0.1,0.5,0,0.6,0.4c0.1,0.4-0.2,0.5-0.5,0.5
					C408.8,53,408.3,53.1,408.5,52.7z M406.8,50.3c0.1-0.3,0.3-0.7,0.7-0.6c0.2,0,0.3,0.4,0.4,0.6c-0.3,0.3-0.1,0.9-0.6,0.8
					C407,51,406.7,50.6,406.8,50.3z M398.5,38c0.2-1.1,0.7-1.7,1.8-1.7c1.5,0,1,1.3,0.7,1.7c-1.1,1.8-0.1,3.5,0,5.2l0.1,0.1l0,0.1
					l2.1,0.3c-0.8,1.4-1.2,2.8-2.5,4.4l0.4-4.7l0,0l0-0.1C399.6,41.9,398.2,40.4,398.5,38L398.5,38z M396.9,35.2
					c0.4,0.1,1.1,0.1,1.2,0.9c0,0.6,0,1.1-0.6,1.5c-0.6-0.3-1-0.8-1.1-1.4C396.2,35.6,396.6,35.1,396.9,35.2z M396.7,40.4
					c0.2,0,0.3,0.3,0.4,0.4c0,0.3-0.2,0.5-0.6,0.6c-0.1-0.1-0.2-0.3-0.2-0.5C396.3,40.6,396.3,40.2,396.7,40.4z M21.3,39.1
					C21.8,39,22,39.6,22,40c-0.1,0.3-0.4,0.9-0.7,0.9c-0.4,0.1-0.7-0.4-0.8-0.9C20.7,39.7,21,39.2,21.3,39.1z M21.9,49.7
					c-0.1,0.3-0.4,0.5-0.6,0.7c-0.5-0.2-0.7-0.5-0.6-0.9c0.1-0.3,0.4-0.6,0.6-0.8C21.7,48.9,22.1,49.2,21.9,49.7z M1.8,39.3
					c-0.4,0.1-0.5-0.2-0.5-0.5c0-0.3,0-0.6,0.4-0.7c0.5-0.1,0.7,0.3,0.7,0.6C2.4,38.9,2.1,39.2,1.8,39.3L1.8,39.3z M4.2,88.3
					c-0.8,0.1-0.6-0.7-0.9-1c-0.4-0.6,0.2-1,0.6-1.1c0.5-0.1,0.9,0.3,1,0.9C4.9,87.7,4.6,88,4.2,88.3z M6.9,125.4
					c-0.6-0.1-0.8-0.4-0.6-0.8c0.2-0.4,0.3-1.1,0.9-1c0.4,0.1,0.8,0.4,0.7,0.9C7.8,125.1,7.2,125.2,6.9,125.4z M7.7,60.6
					c-0.3,0-0.6-0.1-0.6-0.4c0-0.4,0.3-0.4,0.5-0.5c0.4,0,0.7,0,0.7,0.5C8.3,60.6,8,60.6,7.7,60.6z M10.7,46.2
					c-0.2-0.1-0.4-0.5-0.4-0.6c0.1-0.3,0.4-0.5,0.6-0.8l0.6,0.8C11.2,45.9,11.1,46.3,10.7,46.2L10.7,46.2z M11.6,38.7
					c-0.1-0.5,0.4-1,0.9-1c0.4,0,0.7,0.4,0.8,0.9c0,0.6-0.4,0.8-0.7,1.2C11.8,39.8,11.7,39.1,11.6,38.7z M12.9,154.5
					c-0.5,0-0.6-0.4-0.5-0.7c0-0.4,0.2-0.7,0.7-0.6c0.4,0.1,0.7,0.3,0.6,0.7C13.6,154.3,13.3,154.5,12.9,154.5L12.9,154.5z
					 M13.6,44.2c-0.5-0.2-0.7-0.6-0.6-1c0-0.3,0.4-0.6,0.7-0.6c0.6,0,0.4,0.6,0.5,0.9C14.2,43.9,14.1,44.3,13.6,44.2z M14.1,117.8
					c0.3-0.5,0.6-0.9,1.2-0.8c0.6,0.1,1,0.4,0.9,1c-0.1,0.4-0.5,0.8-1,0.6C14.9,118.4,14.2,118.4,14.1,117.8L14.1,117.8z
					 M15.9,144.8c0.5,0.6,0.7,1.3,0,1.9c-0.3,0.3-0.5,0-0.7-0.1C14.5,145.7,15.7,145.4,15.9,144.8z M16.2,154.6
					c-0.2,0.5-0.3,1.3-1,1.5c-0.5-0.3-0.9-0.6-0.9-1.2c0-0.6,0.4-1,1-1.3C15.5,154.2,16.5,153.9,16.2,154.6L16.2,154.6z M15.4,151.4
					c-0.4-0.1-0.8-0.4-0.8-0.9c0-0.6,0.6-0.8,1.1-0.9c0.5-0.1,0.8,0.2,0.7,0.7C16.3,150.9,15.9,151.3,15.4,151.4z M17.2,126
					c0,0.4-0.2,0.7-0.7,0.6c-0.4-0.2-0.8-0.5-0.6-1c0.1-0.3,0.5-0.6,0.8-0.6C17.4,125,17.2,125.6,17.2,126z M18.3,115.9
					c-0.1,0.6-0.3,1.2-0.5,2c-1-0.4-1.2-1.2-1.4-1.9c-0.3-0.9,0.3-1.6,0.8-2.3c0.2-0.3,0.6-0.4,0.9,0
					C18.8,114.4,18.5,115.1,18.3,115.9L18.3,115.9z M19.2,120.8c0.1-0.2,0.7-0.3,0.8-0.2c0.7,0.9,0.1,1.7-0.4,2.5
					C18.8,122.4,18.7,121.6,19.2,120.8z M19.9,116.6c-0.1-0.5,0.3-0.7,0.7-0.9c0.5-0.1,0.6,0.3,0.7,0.6c0.2,0.6-0.3,0.7-0.7,0.8
					C20.2,117.2,20,116.8,19.9,116.6z M20.1,128.5c0.4,0,0.7,0.2,0.6,0.6c0,0.5-0.3,1-0.7,1.1c-0.5,0.1-0.6-0.4-0.6-0.9
					C19.4,128.7,19.5,128.4,20.1,128.5z M20.4,147.8c-0.7-0.1-0.9-0.6-1-1.1c-0.1-0.7,0.4-0.6,0.9-0.6c0.6,0,1.3,0.1,1.2,0.8
					C21.4,147.3,20.7,147.5,20.4,147.8L20.4,147.8z M20.9,115.2c-0.6,0-1.1-0.2-1-0.6c0.2-0.6,0.8-1.1,1.4-1.1c0.5,0,1,0.2,1,0.6
					C22.3,115.1,21.2,114.8,20.9,115.2L20.9,115.2z M222.5,143.3c0,0.3-0.2,0.6-0.5,0.5c-0.4-0.1-0.8-0.4-0.7-0.9
					c0.1-0.4,0.4-0.3,0.7-0.3C222.4,142.6,222.6,142.8,222.5,143.3L222.5,143.3z M221.9,140.5c-0.6-1.3,0.6-1.7,0.6-2.6
					C222.7,138.8,222.5,139.6,221.9,140.5z M228.1,108.4l-3.3-0.2c-0.3,0.4-0.7,0.6-1.1,0.4c-0.3-0.2-0.3-0.7-0.1-1
					c0.4-0.4,0.9-0.3,1.2,0.2C225.7,108.1,226.9,107.2,228.1,108.4L228.1,108.4z M225.5,105.1c-0.1-0.6,0.4-0.8,0.8-0.7
					c0.8,0.2,1.1,0.9,1,1.6c0,0.3-0.5,0.6-0.7,1C226,106.5,225.6,105.8,225.5,105.1L225.5,105.1z M228.5,94.8
					c-0.3,0-0.5-0.3-0.5-0.3c0-0.7,0.3-0.8,0.6-0.7c0.3,0,0.6,0.1,0.6,0.4C229.1,94.6,228.8,94.8,228.5,94.8L228.5,94.8z
					 M229.5,115.7c0.3,0,0.5,0.1,0.6,0.5c0.1,0.5-0.2,0.9-0.6,1.1c-0.4,0.1-0.7-0.3-0.7-0.6C228.7,116.2,229.1,116,229.5,115.7
					L229.5,115.7z M227.3,114.5c0.4,1,0.1,1.7-1,2C225.7,115.3,226.4,114.9,227.3,114.5z M226,112.1c-0.5,0-0.6-0.5-0.8-0.9
					c0-0.5,0.4-0.6,0.7-0.7c0.6-0.1,0.6,0.4,0.6,0.8C226.5,111.7,226.5,112.2,226,112.1z M223,99.3c-0.4,0-0.8-0.3-0.9-0.8
					c0-0.4,0.1-0.9,0.5-0.8c0.4,0.1,1,0.3,1,0.9C223.6,98.9,223.4,99.3,223,99.3L223,99.3z M224.3,112.1c0.4,0.9,1.6,1.7,0.3,2.6
					c-0.5,0.3-1.2,0.6-1.6-0.2C222.3,113.1,224,113,224.3,112.1z M224.4,127.2c-0.8-0.3-2-0.9-1.4-2.3c0.6-1.4,1.3-2.7,2.9-3.6
					c0.4,1.6-0.4,3-0.4,4.4C225.5,126.1,225.5,127.5,224.4,127.2L224.4,127.2z M226.5,180.5c-0.2-0.1-0.5-0.3-0.6-0.5
					c-0.2-0.5,0.3-0.4,0.4-0.4c0.2,0.1,0.4,0.3,0.7,0.5C226.8,180.3,226.6,180.5,226.5,180.5L226.5,180.5z M227.2,155.5
					c-1.5-2.8,0.8-3.2,2-4.4c1.6-1.5,1.9,0.6,2.8,0.9c0.5,0.1,0.3,1.1,0.2,1.6c-0.2,0.8-1.1,0.6-1.4,0.4
					C229.1,153.1,228,153.8,227.2,155.5L227.2,155.5z M233.1,118.5c-0.1,0.4-0.4,0.7-0.6,1.1c-0.3-0.3-0.6-0.4-0.6-0.8
					c0-0.5,0.2-0.9,0.7-0.9C232.8,117.7,233.2,118,233.1,118.5L233.1,118.5z M232.9,114.4c0-0.4,0.3-0.5,0.6-0.5
					c0.3,0,0.5,0.1,0.5,0.6c-0.1,0.1-0.3,0.4-0.5,0.4C233.1,115,232.9,114.7,232.9,114.4L232.9,114.4z M234.9,122.5
					c-0.5,1.1-1,1.9-2,2c-0.7,0.1-0.9-0.4-2-3.2C232.1,122.3,233.4,122.4,234.9,122.5z M231.9,166.7c-0.7-0.2-1-0.6-0.9-1.3
					c0-0.3,0.4-0.6,0.6-0.8c0.4,0.4,0.9,0.8,1.1,1.3C232.8,166.4,232.2,166.6,231.9,166.7L231.9,166.7z M233.5,156.7
					c-0.5,0-0.9-0.1-0.9-0.6c0-0.5,0.4-0.7,0.9-0.7c0.3,0,0.6,0.2,0.9,0.2C234.2,156.2,234,156.6,233.5,156.7L233.5,156.7z
					 M234.1,128.4c-0.5-0.2-1-0.4-0.9-1.1c0-0.8,0.8-0.8,1.2-1c0.6-0.3,0.5,0.4,0.6,0.8C234.9,127.8,234.7,128.2,234.1,128.4
					L234.1,128.4z M233,84.1c-0.9-1.3-1.6-2.2-1.6-3.7C233.4,81,233.2,82.3,233,84.1z M233.5,99.9c0.6,0,1,0.4,1.1,0.9
					c0.1,0.5-0.3,0.9-0.7,1c-0.7,0.1-0.8-0.7-1.2-0.9C232.8,100.3,233,99.9,233.5,99.9z M238.9,112.8c-0.3,0.3-0.7,0.4-0.9,0
					c-0.4-0.8-1-1.6,0.3-2.3C237.9,111.4,240,111.6,238.9,112.8z M239.2,107.2c0.1-0.2,0.3-0.3,0.5-0.1c0.6,0.8,0.7,1.7,0.8,2
					c0.2,1.2,0.1,1.9-0.5,2c-0.5,0.1-0.7-0.6-0.7-1.1c0-0.1,0-0.2,0-0.2C238.8,108.9,238.5,108,239.2,107.2L239.2,107.2z
					 M238.4,100.7c-0.8,0-1.3-0.3-1.3-0.8c0-0.8,0.7-1.2,1.4-1.3c0.6-0.1,1.1,0.2,1.1,0.8C239.6,100.1,238.9,100.4,238.4,100.7
					L238.4,100.7z M237.6,58.4c-0.4,0-0.6-0.3-0.6-0.8c0-0.2,0-0.5,0.4-0.5c0.4,0,0.7,0.3,0.7,0.6C238.3,58.1,238,58.4,237.6,58.4z
					 M237.2,164.9c-0.6-0.3-0.6-0.7-0.6-1.3c0-0.4,0-0.8,0.5-0.7c0.5,0.1,0.9,0.4,0.8,1.1C237.9,164.4,237.6,164.7,237.2,164.9z
					 M241.5,99.6c0.5-0.4,0.9-0.2,1.1,0.2c0.4,1.2-0.6,1.8-1.3,2.6C240.2,101.3,240.5,100.4,241.5,99.6z M242.1,155.9
					c-0.8-0.4-1.5-0.8-1.5-1.6c0-0.2,0.8-0.7,1-0.6C242.5,154.1,242.5,154.9,242.1,155.9z M244.8,72.2c-0.1-0.2-0.2-0.3-0.2-0.5
					c0.1-0.2,0.2-0.3,0.4-0.4c0.2-0.1,0.4,0.1,0.4,0.3C245.4,72,245.1,72.1,244.8,72.2L244.8,72.2z M246.3,84.2
					c-0.2,1.2-1.4,1.2-2.4,1.9c-0.2-0.4-0.7-0.8-0.6-1.1c0.3-0.9,0.9-1.7,1.9-1.8C245.9,83,246.4,83.5,246.3,84.2z M245,78.7
					c-0.1,0.8-0.5,1.7-1.3,1.6c-0.7-0.1-0.3-0.9-0.4-1.5c-0.1-0.8,0.2-1.4,1.2-1.5C245.3,77.4,245,78.2,245,78.7L245,78.7z
					 M243.6,103.2c0.6-0.8,1.6-1.3,2.4-1.8c0.9-0.6,1.4,0.9,2.3,1.5c-1.5,0.6-2.7,1.2-3.9,1.6c-0.5,0.2-1,0.3-1.3-0.3
					C242.9,103.7,243.4,103.5,243.6,103.2L243.6,103.2z M247.4,120.5c0.7-0.6,0.8,0.1,1.1,0.4c1.3,1.3,0.2,2-0.7,2.8
					C247.2,122.6,246,121.7,247.4,120.5L247.4,120.5z M247.2,128.8c0.2,0.7-0.5,1.5-0.6,1.5c-0.8-0.2-1-0.9-1.1-1.6
					c-0.1-0.5,0.3-0.8,0.7-0.9C246.8,127.8,247.3,128.1,247.2,128.8z M243.5,174.6c-0.3-0.1-0.6-0.5-0.6-0.8c0-0.4,0.3-0.8,0.8-0.8
					c0,0,0,0,0,0c0.5,0,0.4,0.5,0.5,0.8C244.1,174.2,244,174.8,243.5,174.6z M245.8,171c-0.1,0.2-0.4,0.4-0.6,0.6l-0.6-0.8
					c0-0.6,0.3-0.6,0.6-0.5C245.5,170.4,245.9,170.6,245.8,171z M247.8,153.9c-0.2,0.6-0.6,0.6-1,0.4c-0.5-0.4-1-0.3-1.5-0.2
					c-1.9,0.1-1.5-1.6-1-2c1.3-1.2,1.7-2.9,2.4-4.4c0.2-0.4,0.3-0.8,0.8-0.7c0.5,0,0.4,0.4,0.6,0.7c0.7,1.7,1.9,3.5-1,4.4
					c-0.4,0.1-0.8,0.8,0.1,1.1C247.7,153.3,248.1,153.3,247.8,153.9L247.8,153.9z M250.6,158.6c-1.1-0.1-2.4-1.5-2.5-2.7
					c-0.1-1.1,1.7-1.5,2.6-1.8c0.7-0.2,0.8,1.1,0.8,2.1C251.2,156.9,251.7,158.7,250.6,158.6z M251.6,132.2
					c-0.1-0.1-0.3-0.4-0.3-0.5c0.5-0.6,1.1-0.9,2.1-0.2C252.7,131.9,252.5,132.8,251.6,132.2z M251.6,126c0-0.8,0.6-0.6,1.1-0.6
					c0.4,0,1,0,1,0.5c-0.1,0.6-0.7,0.8-1.5,0.8C251.8,126.8,251.5,126.6,251.6,126L251.6,126z M256,163.9c-0.9,0.4-1.1-0.2-1.3-0.9
					c0.6-0.1,1.3-0.5,1.7,0.2C256.4,163.4,256.2,163.8,256,163.9z M259.3,104.9c0.7-0.4,1.3-0.3,2.1,0
					C260.6,105.2,260,105.2,259.3,104.9z M261.6,155.2c0.9-1.7,1.8-3.4,4.3-2.8c0.1,1.7-2.2,1.3-1.9,2.8c0.2,1,1.5,1.1,1.8,2.4
					c0.5,2.2,0.7,2.2-1.5,2.2C260.6,159.8,259.9,158.7,261.6,155.2L261.6,155.2z M267.8,90c0.6-0.9,0.9-2,1.2-3.1
					c0.1-0.4-0.1-1,0.6-0.9c0.5,0.1,1,0.5,0.9,1.1c-0.7,2.4-1,4.9-2.7,7.1C266.8,92.5,266.8,91.3,267.8,90L267.8,90z M268.2,45.6
					c0.4,0,0.5,0.4,0.6,0.8c-0.1,0.2,0.1,0.6-0.3,0.6c-0.4,0-0.6-0.3-0.7-0.6C267.6,46,267.8,45.6,268.2,45.6L268.2,45.6z
					 M270.3,14.6c-0.1-0.6-1.1-1-0.4-1.8c0.5-0.6,0.9,0,1.1,0.2C271.9,13.9,270.5,14,270.3,14.6L270.3,14.6z M271.5,20.2
					c0.1,0.4-0.1,0.6-0.6,0.8c-0.6-0.1-0.9-0.6-1.2-1.1c-0.1-0.2,0.3-0.7,0.7-0.6C271,19.3,271.4,19.7,271.5,20.2z M271.7,80.8
					c-0.9,0.7-1.6,0.8-2.3,0.1c-0.2-0.2-0.3-0.6,0-0.7C270.2,79.8,270.9,80.1,271.7,80.8z M268.8,99.7c0.7,0.2,0.4,0.8,0,1.2
					c-0.4,0.4-0.8,0.7-1.2,0.1c-0.7-1.2-1.6-2.2-1.6-3.3c-0.2-0.8,0-1.2,0.3-1.3c0.4-0.1,0.6,0.3,0.7,0.6
					C267.1,98.3,267.5,99.2,268.8,99.7z M267,145c-0.2,0.2-0.5,0.5-0.8,0.5c-0.3,0.1-0.5-0.3-0.5-0.6c0-0.4,0.3-0.5,0.6-0.5
					C266.6,144.5,266.9,144.6,267,145z M266,89.6c-0.4,0-0.9-0.3-0.7-0.8c0.1-0.3,0.3-0.6,0.6-1c0.4,0.5,0.7,0.8,0.8,1.2
					C266.8,89.3,266.4,89.6,266,89.6L266,89.6z M268.8,164.7c-0.9,0.6-1.8,1.2-2.6,1.8c-0.4,0.3-0.8,0.6-1.3,0.2
					c-0.6-0.5-0.7-1-0.1-1.6c0.3-1.4,1.2-2.3,2.6-2.6c1.1-0.8,1.6,0.4,2.1,0.9C270,163.7,269.3,164.3,268.8,164.7L268.8,164.7z
					 M270.1,96.8c0-0.7,0.7-1,1.3-0.8c0.4,0.2,1.2,0.1,1.3,0.9c-0.4,0.5-0.8,1.3-1.5,1.1C270.7,97.9,270.1,97.4,270.1,96.8z
					 M271.5,141.2c0.4,0,0.8,0,0.7,0.5c-0.1,0.4-0.5,0.8-0.9,0.7c-0.3-0.1-0.7-0.5-0.7-0.7C270.5,141,271.1,141.3,271.5,141.2
					L271.5,141.2z M270.6,166c-0.2-0.3,1.3-3.2,1.7-3.2c0.8,0,1.1-0.4,0.8-1.1c-0.7-1.6,1.1-1.3,1.3-2.1c0.9,0.4,1.3,0.9,0.8,1.6
					c-1.1,1.6-2.4,3.1-3.6,4.7C271.3,166.3,270.9,166.7,270.6,166L270.6,166z M274.1,104.1c-0.5,0.1-0.7-0.5-0.9-0.7
					c0-0.7,0.5-0.6,0.8-0.5c0.4,0,1-0.2,0.8,0.6C274.7,103.7,274.4,104.1,274.1,104.1L274.1,104.1z M273.6,109.5v-2.1
					C274.4,108.1,274.5,108.6,273.6,109.5z M273.8,73.3c-1-1.1-0.9-1.9,0.2-2.7c0.3-0.2,0.7-0.5,0.9,0
					C275.4,71.8,274.5,72.5,273.8,73.3L273.8,73.3z M275.6,169.4c-0.4-0.4-0.8-0.6-0.6-1.1c0.1-0.3,0.3-0.5,0.6-0.4
					c0.3,0.1,0.7,0.3,0.6,0.8C276.1,168.9,275.8,169.2,275.6,169.4L275.6,169.4z M278.8,158.4c-0.6-0.1-0.7-0.7-0.8-1.1
					c-0.2-0.8,0.6-0.6,1-0.8c0.6-0.3,0.7,0.2,0.7,0.7C279.8,157.9,279.4,158.2,278.8,158.4L278.8,158.4z M278.6,87.2
					c0.3-0.3,0.9-0.6,1.3,0c0.7,1-0.3,1.5-0.8,2.7C278.9,88.7,277.6,88.1,278.6,87.2z M280.8,135.3l-0.8-1.5c0.2,0,0.4-0.1,0.6-0.1
					C281.5,134.2,280.8,134.8,280.8,135.3z M282.4,155.7c-0.5,0.1-0.6-0.5-0.9-0.6c0.1-0.6,0.4-1,0.8-1c0.5-0.1,0.8,0.3,0.9,0.8
					C283.3,155.3,282.8,155.7,282.4,155.7z M284.9,162c-0.5,0-1.2-0.2-1-0.7c0.2-0.6,0.7-1.3,1.5-1.4c0.6,0,0.9,0.5,0.8,1
					C286.2,161.6,285.7,162,284.9,162z M286.1,122.3c-0.4,0-0.6-0.3-0.7-0.7c-0.1-0.7,0.5-0.6,0.9-0.7c0.7-0.3,0.4,0.4,0.4,0.6
					C286.8,121.9,286.7,122.3,286.1,122.3L286.1,122.3z M287.3,89.1c-0.1-0.4,0.4-0.9,0.8-0.8c0.5,0.2,1.4,0.3,1.5,1
					c0.1,0.5-0.5,0.8-1.1,1C287.9,90.3,287.4,89.8,287.3,89.1z M288.6,106.8c-0.2,0-0.4-0.1-0.5-0.3c-0.1-0.4,0.2-0.6,0.5-0.7
					c0.1,0,0.3,0.1,0.3,0.1C289,106.6,288.9,106.8,288.6,106.8z M289.5,125.3c-0.3,0.1-0.5-0.2-0.5-0.5c-0.1-0.4,0.1-0.7,0.6-0.7
					c0.3,0,0.6-0.1,0.7,0.3C290.3,124.9,289.9,125.2,289.5,125.3z M291.3,159.6c-0.6-0.1-0.6-0.6-0.7-1c-0.1-0.5,0.1-1,0.7-1
					c0.5,0,0.8,0.1,0.8,0.7C292,158.9,291.6,159.2,291.3,159.6L291.3,159.6z M291.5,127.1c-0.4-0.2-0.8-0.5-0.7-1.1
					c0.1-0.4,0.3-1,0.7-0.9c0.7,0.1,0.7,0.9,0.8,1.4C292.3,126.7,292,127.1,291.5,127.1z M292.9,123.2c0.1,0.3,0.1,0.8-0.3,0.9
					c-0.9,0.2-0.8-0.6-1-1.1c0,0,0,0-0.1,0l0-0.1c-0.1-0.7-0.8-0.5-1.2-0.8c-0.4-0.4-1.8,0.1-1.2-1.2c0.3-0.7,2.9-1.6,3.5-1.1
					c0.6,0.6,0.4,1.3-0.1,1.9c-0.4,0.4-0.6,0.9-0.9,1.3l0,0C292.1,122.4,292.6,122.6,292.9,123.2z M290.6,48.7
					c-0.2-0.3-0.4-0.6,0-0.9c1.3-1,2.1,0.3,3.5,0.9C292.6,49.2,291.5,50,290.6,48.7L290.6,48.7z M292.5,51.1c-0.1,0.5-0.3,0.9-0.7,1
					c-0.2,0-0.5-0.5-0.6-0.6c-0.1-0.7,0-1,0.7-1C292.3,50.5,292.5,50.6,292.5,51.1z M295,127.8c-0.4,0.2-0.1,1.1-0.8,1.1
					c-0.4,0-0.8-0.4-0.8-0.9c0-0.6,0.5-0.8,1.1-0.8C294.9,127.1,295.2,127.3,295,127.8z M348.6,156c-0.6-0.6-0.3-1.1-0.3-2
					C349,154.9,348.8,155.4,348.6,156z M350.9,118c-0.5,0-0.6-0.5-0.7-0.8c-0.3-0.7,0.3-0.6,0.7-0.6c0.3,0,0.8-0.2,0.9,0.3
					C351.9,117.5,351.4,117.7,350.9,118L350.9,118z M361.1,146.2c-0.1-0.5,0.3-0.5,0.6-0.5c0.5,0,0.7,0.1,0.7,0.6
					c0,0.4-0.3,0.8-0.6,0.7C361.5,146.9,361.2,146.5,361.1,146.2z M362.6,151.7c-0.3,0.2-0.6,0-0.6-0.3c-0.1-0.8-0.1-1.6,1.1-1.8
					C363.4,150.5,363.5,151.2,362.6,151.7z M371.4,69.3c-0.5,0.1-0.6-0.2-0.6-0.6c0-0.4,0.2-0.6,0.7-0.6c0.3,0,0.6,0,0.6,0.9
					C372,69,371.7,69.2,371.4,69.3z M376.4,146.6c0-0.1-0.3-0.5-0.3-0.8c0.1-0.4,0.4-0.7,0.6-1.1c0.2,0.3,0.5,0.5,0.6,0.9
					C377.5,146,377.3,146.4,376.4,146.6L376.4,146.6z M386.2,109.5c-0.2-0.1-0.3-0.3-0.4-0.5c0.2-0.2,0.4-0.4,0.5-0.4
					c0.3,0,0.6,0.2,0.5,0.5C386.8,109.5,386.5,109.6,386.2,109.5z M388.8,51.5c-0.2-0.2-0.2-0.6,0-0.8c1-0.8,1.7,0.1,2.5,0.6
					C390.5,51.7,389.6,52.2,388.8,51.5L388.8,51.5z M392.2,60.3c0.4-0.1,0.7,0.2,0.7,0.6c0,0.2-0.3,0.5-0.5,0.5
					c-0.3,0.1-0.5-0.1-0.5-0.5C391.9,60.7,391.9,60.4,392.2,60.3z M391.5,33.3c0.4,1.4,0.1,2.3-1.6,5.6
					C388.3,37.1,388.7,35.4,391.5,33.3z M389.3,41.8c0.5,0.1,0.8,0.5,0.8,1.1c0,0.5-0.5,1-0.7,0.9c-0.5-0.2-0.7-0.8-1-1.1
					C388.5,42,388.9,41.7,389.3,41.8L389.3,41.8z M386.6,44.3c0.7,0,1.2,0.2,1.3,0.8c0,0.7-0.6,0.9-1.2,0.9c-0.6,0-0.9-0.3-1-0.9
					C385.7,44.5,385.9,44.2,386.6,44.3L386.6,44.3z M384.4,58.5c0.3-1.1,1.2-1.6,2.2-1.8c0.3-0.1,1.4,0.3,1.2,0.8
					c-0.4,1.1-1.8,1-2.5,1.7C384.6,59.3,384.3,59,384.4,58.5z M382.4,41.7c0.4,0,0.7,0.5,0.7,0.9c0,0.4-0.2,0.6-0.6,0.7
					c-0.4,0-0.6-0.3-0.7-0.7C381.7,42.2,382.1,41.7,382.4,41.7L382.4,41.7z M382.6,140.7c0.2,0.2,0.2,0.7-0.2,0.9
					c-0.9,0.5-1.3-0.5-1.8-1C381.3,140.5,382,140,382.6,140.7z M379.9,44.8c0.4,0.1,0.6,0.4,0.6,0.8c0,0.5-0.5,0.8-0.6,0.8
					c-0.4-0.1-0.8-0.5-0.7-1C379.2,44.9,379.4,44.6,379.9,44.8z M378.7,132c0,0.5-0.1,0.9-0.5,0.9c-0.6,0-0.7-0.7-0.7-1.1
					c0-0.2,0.4-0.6,0.7-0.6C378.8,131.2,378.6,131.8,378.7,132L378.7,132z M377.6,49.1c0-0.1,0.3,0,0.4,0c0.4,0.6,0.4,1.1-0.3,1.8
					C377.2,50.3,377.2,49.7,377.6,49.1L377.6,49.1z M376.9,67.8c0,0.4-0.1,0.7-0.6,0.7c-0.4,0-0.7-0.1-0.7-0.5
					c0-0.4,0.1-0.7,0.6-0.7C376.6,67.2,376.9,67.4,376.9,67.8L376.9,67.8z M376.1,56.1c0,0.4-0.3,0.6-0.6,0.8l-0.6-0.8
					c0.1-0.4,0.4-0.6,0.8-0.6C376.1,55.5,376,55.8,376.1,56.1L376.1,56.1z M374.7,43.9c0.5,0.1,0.9,0.4,0.9,1.1
					c-0.3,0.5-0.5,1.3-1.1,1.3c-0.4,0-1-0.6-1-1.3C373.5,44.3,374,43.8,374.7,43.9z M372.3,36c-0.6,0.5-1.1,1-1.9,0.6
					C370.7,35.8,371.3,35.7,372.3,36z M369.3,37.4c0,1.2-1.2,1.3-1.9,2C367,37.4,368.7,38,369.3,37.4z M363.8,138.2
					c0.3,0,0.6,0,0.7,0.3c0.1,0.5-0.3,0.8-0.7,0.9c-0.3,0.1-0.5-0.2-0.5-0.5C363.2,138.5,363.3,138.2,363.8,138.2L363.8,138.2z
					 M358.8,62.6c1.4,0.5,2.3,2,4,2.1c0.2,0,0.7,0.5,0.5,0.9c-0.3,0.5-0.5,1.3-1.4,1.1c-1.7-0.4-3.4-0.8-5.4-1.3
					c0.5-0.3,0.6-0.4,0.7-0.4c0.6-0.3,1.5,0.6,1.7-0.7c0-0.3-0.1-0.7-0.4-0.6c-0.7,0.2-1.8-0.7-2.2,0.6c-0.1,0.5-0.2,0.9-0.8,0.5
					c-0.5-0.3-0.3-0.7-0.1-1.1C356.1,62,357.4,62.1,358.8,62.6L358.8,62.6z M354.6,43.4c0.6,0.1,1.2,0.3,1.1,1
					c-0.1,0.3-0.4,0.6-0.7,1c-0.4-0.4-1-0.6-1-1.4C354,43.6,354.2,43.3,354.6,43.4L354.6,43.4z M351,46.5c0.8,0.1,0.9,0.7,0.9,1.5
					c0,0.5-0.2,0.8-0.7,0.9c-0.5-0.4-0.9-0.9-1-1.6C350.1,46.9,350.5,46.4,351,46.5z M350.4,137.9c-0.8,0.4-1.6,0.4-2.4,0.1
					C348.8,137.5,349.5,137.7,350.4,137.9z M345.4,20.7c0.8-0.1,1.3,0.9,1.4,2h-2.4C345,21.9,344.5,20.8,345.4,20.7z M341.4,34.1
					c0.7-1.1,1.5-2.1,2.4-3c0.1-0.2,0.6-0.3,0.8-0.2c0.2,0.1,0.3,0.7,0.2,0.8c-1.1,1-1.2,2.5-2.1,3.6c-0.1,0.1-0.4,0.2-0.5,0.3
					C340.9,35.5,341.2,34.4,341.4,34.1L341.4,34.1z M340.9,37.3c0.6-0.2,0.7,0.5,0.7,0.8c-0.1,0.6-0.4,1.2-0.9,1.5
					c-0.6-0.2-0.8-0.7-0.8-1.2C339.8,37.8,340.4,37.5,340.9,37.3L340.9,37.3z M336.3,28.3c-1.3-1.3-3.7-1.1-3.7-3.6
					C333.5,26.2,337.2,24.7,336.3,28.3z M333.5,36.5c0.6,0,1.1,0.2,1.2,0.8c-0.1,0.7-0.4,1.2-0.9,1.2c-0.7-0.1-1.1-0.7-1.2-1.3
					C332.5,36.6,333.1,36.5,333.5,36.5z M334.9,165.2c-1.5,0.8-1.8-0.6-2.8-0.8C333.7,163.1,334,164.5,334.9,165.2z M330.3,40.2
					c0.1-0.2,0.4-0.3,0.6-0.5l0.4,0.6c-0.2,0.3,0,0.7-0.4,0.6C330.5,40.8,330.2,40.6,330.3,40.2z M330.2,121.1
					c0.5-0.1,0.8,0.3,0.8,0.7c0.1,0.4-0.2,0.4-0.5,0.5c-0.4,0.1-0.7-0.1-0.7-0.6C329.9,121.5,329.8,121.1,330.2,121.1z M327.6,168
					c-1.4-1.2-3.4-1.3-4.3-3C326.1,164,327.1,164.7,327.6,168z M321.9,76.2c0.5,0,0.5,0.5,0.6,0.8c0.1,0.4-0.1,0.7-0.5,0.8
					c-0.5,0.1-0.6-0.4-0.5-0.7C321.5,76.7,321.4,76.2,321.9,76.2z M321.2,93.7c0.4,0,0.8,0,0.6,0.5c-0.1,0.3-0.4,0.5-0.5,0.7
					c-0.5,0-0.6-0.2-0.6-0.5C320.6,94,320.7,93.7,321.2,93.7L321.2,93.7z M312.7,35.5c0.4-0.1,0.8,0.3,0.9,0.8
					c-0.4,0.5-0.7,1.2-1.4,1.2c-0.4,0-0.8-0.5-0.7-0.9C311.6,36.1,312.1,35.7,312.7,35.5z M313,149.6c0.1,0.1,0.2,0.5,0.1,0.6
					c-0.5,0.7-1.1,0.4-1.9,0.1C311.9,149.6,312.4,149.3,313,149.6L313,149.6z M311.6,152.8c0.5-0.4,1.1,0.4,1.1,1
					c-0.1,1.1-1.3,1.6-1.7,2.7c-0.5-0.6-1.3-1.3-1.2-1.4C310.2,154.2,310.8,153.3,311.6,152.8z M308.6,15.2c0.4,0,1.1,0,0.9,0.5
					c-0.1,0.5-0.7,0.9-1,1.2c-0.6,0.1-0.9-0.3-0.8-0.6C307.8,15.8,307.8,15.1,308.6,15.2L308.6,15.2z M308.4,137.6
					c-0.3,0.6-0.5,1.3-1.1,1.3c-0.4,0-0.9-0.6-1-1c-0.1-0.4,0.3-1,0.9-1C307.8,136.9,308.1,137.3,308.4,137.6z M306.9,124.7
					c-0.1,0.6-0.7,0.9-1.3,1c-0.3-0.1-0.8-0.2-0.7-0.6c0.1-0.6,0.4-1.1,1.2-1C306.5,124.1,307,124.2,306.9,124.7L306.9,124.7z
					 M305.2,103c0.6,0.2,1.5,0.8,1.6,1.3c0.1,0.6-0.8,0.9-1.5,0.7c-0.6-0.2-1.3-0.5-1.7-1.1C304,103.3,304.8,102.9,305.2,103
					L305.2,103z M304,150.5c0.3-0.1,0.9,0.1,0.7,0.5c-0.5,1-1.4,1.6-2.2,2.1c-0.5,0-0.9-0.3-0.8-0.7C302,151.3,303,150.9,304,150.5z
					 M297.6,31c0.2-0.2,0.4-0.6,0.6-0.8c0.1-0.3,0-0.6,0.2-0.8c0.3-0.3,0.1-1.1,0.9-1c0.2,0,0.5,0.1,0.6,0.2
					c0.2,0.6-0.3,0.9-0.7,1.2c-0.3,0.3-0.7,0.5-1,0.7c0,0.2,0,0.4,0,0.6c0,0.4,0.2,0.9-0.4,1.1c-0.1,0-0.3,0-0.4-0.1
					C297.2,31.7,297.3,31.3,297.6,31L297.6,31z M297.7,36.2c0.2,0.3-0.2,0.8-0.5,0.8c-1.4,0.3-1.3-1.2-2.7-1.5
					C296.4,34.6,297.1,35.4,297.7,36.2z M291.4,12.7c0.1-0.1,1.3-0.2,1.6,0.6c0.4,0.9,2.1,1.1,1.6,2.4c-0.2,0.6-1.4,0.8-2,0.1
					c-0.9-1.2-1.2-0.5-1.5,0.4c-0.2,0.5-0.2,1.1-0.5,1.4c-0.4,0.5-0.4,1.7-1.3,1.5c-1-0.2-0.8-1.2-0.8-2.4
					C287.9,14.6,290.1,13.9,291.4,12.7z M288.3,30.8c0.4,0.1,0.7,0.3,1,0.6c0.1,0.2-0.1,0.5-0.4,0.5l-1.1-0.6
					C288,31.1,288.2,30.7,288.3,30.8z M285.8,33.3c1,0.6,2.2,0.7,2.8,1.8c0.2,0.4-0.2,0.8-0.5,0.7c-1.1-0.6-2-1.3-3.1-1.9
					C285.3,33.7,285.7,33.2,285.8,33.3z M285.8,87.9c0.2,0,0.4,0.2,0.4,0.3c0,0.5-0.3,0.8-0.7,1c-0.3,0.1-0.5-0.1-0.5-0.4
					C285,88.2,285.3,87.9,285.8,87.9z M283.5,122.7c0.2-0.4,0.6-0.7,1-0.1c0.2,0.3,0.4,0.7,0,0.9c-1.1,0.6-1.7,2.4-3.9,1.6
					c-0.1-0.1-1.3,0.9-1.3-0.6c-0.1-1.6,1.1-1,1.8-1C282.1,123.7,283,123.7,283.5,122.7L283.5,122.7z M281.7,84.1
					c0.1,0.4-0.3,0.6-0.6,0.7c-0.4,0-0.5-0.2-0.5-0.5c0-0.4,0-0.8,0.5-0.7C281.3,83.6,281.7,83.9,281.7,84.1L281.7,84.1z
					 M281.5,77.8c0.6,1-0.7,1.3-1.3,1.8c-0.5,0.4-1,1-1.8,0.6c-0.5-0.2-0.6-0.7-0.4-1.1c0.3-0.9,1-0.9,1.8-0.7
					c0.2-0.9-0.8-1.3-0.9-2.2C280.4,75.6,281,77,281.5,77.8z M277.6,60c0.2-0.2,0.5-0.4,0.7-0.1c0.5,0.6,1.2,1,1,2
					c-0.1,0.5-0.3,0.9-0.7,1.3c-0.6-0.2-0.7-0.7-0.9-1.2C277.5,61.3,276.8,60.7,277.6,60z M278,70.1c0.2,1.4,2.3,2.8-0.1,4.3
					c-0.8-1.2-1-2.5-1.6-3.7c-0.3-0.6,0.1-1,0.6-1.2C277.5,69.2,278,69.4,278,70.1z M275.7,35.1c0.6-0.2,1.3,0.6,1.2,1
					c-0.1,0.7-0.8,1.1-1.8,1.2c-0.5,0.1-1.1-0.4-0.9-0.9C274.4,35.8,275.1,35.3,275.7,35.1L275.7,35.1z M273.6,63.7
					c0.5,0,0.9,0.4,0.9,0.9c0,0,0,0,0,0c0,0.6-0.3,1-0.8,0.9c-0.4-0.1-1.1-0.1-1-0.9C272.7,64.1,273.1,63.7,273.6,63.7L273.6,63.7z
					 M273,84c0.1,0.4-0.4,0.7-0.9,0.8c-0.8-0.3-0.8-1-0.7-1.6c0.1-0.4,0.3-0.9,0.7-0.8C272.8,82.6,272.9,83.4,273,84L273,84z
					 M272.2,71.5c-0.1,0.4-0.3,0.9-0.8,0.8c-0.4,0-0.6-0.5-0.5-0.8c0.1-0.3,0.5-0.6,0.7-0.8C272.3,70.8,272.3,71.2,272.2,71.5
					L272.2,71.5z M267.9,10c0.5-1.3,1.7-1.7,2.9-2.1c0.5-0.1,1,0.5,0.9,0.7c-0.6,1.2-1.9,1.6-2.8,2.1
					C268.2,10.7,267.7,10.4,267.9,10L267.9,10z M267.5,16.9c0.3-0.5,0.7-0.8,1.1-1.2c0.2,0.3,0.6,0.6,0.5,0.9
					c-0.1,0.6-0.6,0.9-1.1,1.2C267.8,17.4,267.3,17.3,267.5,16.9L267.5,16.9z M267.4,76.1c0,0.3-0.1,0.7-0.3,0.7
					c-0.4,0.1-0.6-0.2-0.6-0.6c0-0.3,0.1-0.5,0.7-0.6C267.3,75.6,267.4,75.8,267.4,76.1z M266.2,72c0.3,0,0.6,0.2,0.6,0.5
					c0.1,0.6-0.4,0.4-0.7,0.5c-0.3-0.1-0.7,0-0.6-0.3C265.5,72.3,265.8,72.1,266.2,72L266.2,72z M263.9,80.2c0.1-0.4,0.2-1.1,0.9-1
					c0.5,0,0.8,0.4,0.8,0.9c0,0.1,0,0.1,0,0.2c-0.1,0.4-0.6,0.7-1,1.1C264.2,80.9,263.8,80.6,263.9,80.2z M263.9,74.2
					c-0.1,0.6-0.4,0.9-0.9,0.9c-0.6,0-1.2-0.3-1.2-0.9c-0.1-0.6,0.6-0.4,1-0.6C263.3,73.3,263.6,73.9,263.9,74.2z M262.4,33.2
					c0.4,0,0.7,0.2,0.6,0.6c0,0.2,0.1,0.7-0.4,0.3c0.1-0.8-1,0.4-0.9-0.5C261.8,33.2,262.1,33.3,262.4,33.2z M260.5,6.9
					c0.3,0.1,0.6,0.4,0.7,0.7c0.2,0.5-0.3,0.6-0.6,0.6c-0.3,0-0.7-0.2-0.6-0.6C259.9,7.2,260,6.8,260.5,6.9L260.5,6.9z M259.9,53.6
					c0.2-0.9,1.1-0.9,1.6-1.3c0.1-0.1,0.8,0.3,1,0.6c0.3,0.6,0,1.3-0.5,1.8l-1.3,1.4c0.5,1.2,2,2.2,0.3,3.6c-0.3,0.2-0.3,1-0.9,0.6
					c-0.6-0.4-1.2-0.8-1.6-1.4c-0.3-0.3,0.1-0.8,0.5-1c0.7-0.4,1.7-0.6,1.5-1.8C259.4,55.5,259.7,54.6,259.9,53.6L259.9,53.6z
					 M258.3,17c0.6,0.3,1.1,0.6,1.2,1.3c0.1,0.6-0.3,0.9-0.7,1.2c-0.9-0.2-1.1-1-1.4-1.6C257.1,17.2,258.1,17.5,258.3,17L258.3,17z
					 M256.7,151.1c0,0.8-1.1,1.3-2.1,1.1c-0.9-0.2-1.7-0.5-1.7-1.6c0-0.9,0.7-1.1,1.5-1C255.3,150.1,256.8,149.9,256.7,151.1z
					 M254.6,100c0.5-0.1,0.8,0.3,0.9,0.7c0.1,0.4-0.1,0.7-0.5,0.8c-0.5,0-0.8-0.4-0.8-0.9C254.2,100.4,254.2,100.1,254.6,100
					L254.6,100z M254.2,102.9c0,0.1-0.1,0.3-0.2,0.3c-0.8,0.3-1.2-0.3-1.5-0.8c-0.7,0-1.3-0.2-1.3-1c0-0.2,0.4-0.6,0.6-0.6
					c0.5,0.1,0.8,0.5,0.7,1.1c0.1,0.1,0.3,0.1,0.3,0.3C253.2,102.7,254.1,102,254.2,102.9L254.2,102.9z M251.8,26
					c0.3,0.8,0.4,1.4,0,2.2C251.5,27.3,251.5,26.7,251.8,26z M252.7,48.9c-1.3,2-2.4,0.2-3.8,0.1C250.3,48.1,251.5,48,252.7,48.9z
					 M249.2,98.9c0.3,0,0.6,0,0.6,0.5l-0.6,0.7c-0.2-0.2-0.5-0.4-0.6-0.6C248.4,99.1,248.8,99,249.2,98.9z M248,89.6
					c-0.8-0.9-1.6-1.3-0.8-2.3c0.3-0.4,0.8-0.5,1.1-0.2C249,88,247.9,88.5,248,89.6L248,89.6z M248,75.1c0.1,0.5-0.5,0.8-0.9,0.7
					c-0.4,0-1-0.2-1.2-0.7c0.1-0.4,0.3-0.8,0.8-0.9C247.4,74.2,248,74.5,248,75.1L248,75.1z M246.2,64.5c-0.4,0-0.9-0.1-0.7-0.5
					c0.2-0.4,0.6-0.8,1-1.1c0.1,0,0.5,0.4,0.7,0.5C247,64,246.8,64.5,246.2,64.5z M246.5,37.1c0.3,0.8,0.1,1.5,0.4,2.2
					C245.9,38.7,246.4,37.8,246.5,37.1z M245.6,55.4c0.7,0.4,0.5,1.2,0.7,2.1c-0.7-0.6-1.6-0.6-1.7-1.5
					C244.6,55.8,245.4,55.3,245.6,55.4L245.6,55.4z M244.8,65.1c0.1,0,0.4,0.5,0.6,0.7c-0.2,0.6-0.4,1.1-0.9,1.2
					c-0.5,0.1-0.5-0.5-0.6-0.8C243.9,65.6,244.3,65.3,244.8,65.1L244.8,65.1z M243.6,18.8c0.3-0.1,0.5,0.1,0.6,0.8
					c0,0-0.1,0.3-0.4,0.4c-0.5,0.1-0.7-0.3-0.7-0.6C243,19.2,243.4,18.9,243.6,18.8z M243.2,88.7c0.1,0.5-0.3,0.9-1,1
					c-0.6-0.8-1.8-1.2-2-2.4c0-0.1,0.3-0.8,0.7-0.5C241.7,87.4,242.9,87.5,243.2,88.7L243.2,88.7z M241.4,60.2
					c0.3,0,0.6,0.2,0.5,0.5c-0.1,0.3-0.4,0.5-0.7,0.8c-0.2-0.4-0.5-0.7-0.5-1C240.6,60,241.1,60.2,241.4,60.2L241.4,60.2z
					 M241.9,76.9c0.5,0.6,0.9,1.2-0.2,1.9c-1.2,0.8-1.3-0.3-1.4-0.8c-0.4-1.2-1.6-2.2-1.2-3.4C240.1,75.4,241.1,76.1,241.9,76.9z
					 M240,24.6c0.6,0.1,0.6,0.5,0.5,1c-0.1,0.4-0.3,0.8-0.7,0.9c-0.5-0.4-0.7-0.8-0.6-1.3C239.3,24.7,239.6,24.6,240,24.6L240,24.6z
					 M239,18.8c0.4,0.3,0.4,0.9,0,1.1c-1,0.7-1.5-0.4-2.6-0.5C237.4,18.4,238.2,18,239,18.8z M235.3,61.9c-1.1-1-1-1.9-0.4-2.9
					c0.2-0.3,0.5-0.2,0.7,0C236.7,60,236,60.9,235.3,61.9z M234.5,18.8c0.3,0.1,0.5,0.4,0.7,0.7c0.1,0.3-0.2,0.5-0.2,0.5
					c-0.7,0.1-0.9-0.2-0.9-0.6C233.9,19.1,234,18.6,234.5,18.8z M232.8,21.1c3.3,2.1,3.5,2.7,2.1,6c-1.8-0.4-0.7-1.4-0.5-2.3
					C234.1,23.5,231.8,23,232.8,21.1L232.8,21.1z M232.8,27.3c0,0.6-0.6,0.9-1,1.1c-0.8-0.1-0.9-0.5-0.9-1.1c0-0.6,0.3-1,0.9-1
					C232.3,26.3,232.8,26.8,232.8,27.3z M230.6,24.4c0.4,0,0.7,0.1,0.7,0.6c0,0.4-0.1,0.7-0.6,0.7c-0.4,0-0.7-0.2-0.7-0.6
					C230,24.7,230.2,24.5,230.6,24.4z M231.6,102.5c0,0.1-0.3,0.3-0.4,0.4c-0.8,0.1-0.9-0.5-1.4-1.4
					C230.8,101.7,231.4,101.8,231.6,102.5z M225.2,35.5c0.6-0.1,0.9,0.3,1.1,0.9c0,0.6-0.7,0.6-1,0.8c-0.4,0.2-0.8-0.3-0.8-0.7
					C224.5,35.9,224.7,35.6,225.2,35.5L225.2,35.5z M225.6,73.2c0.5,0.3,1.2,0.3,1.3,1h0.1v0.1c0.8-0.3,1.4,0.5,2.2,0.5
					c0.6,0,0.5,0.5,0.2,0.9c-0.5,0.5-0.5,1.9-1.8,1.2c-0.6-0.3-1.2-0.8-1.8-1.2c0,0-0.1,0-0.1,0v-0.1c-0.7-0.4-1.5-0.8-1.2-1.9
					C224.5,72.9,225.3,73,225.6,73.2L225.6,73.2z M221.6,80.8c0.9-0.8,1.6-1.6,2.4-2.4c0.2-0.2,0.3-0.8,0.8-0.3
					c0.2,0.2,0.3,0.5,0.4,0.7c-0.8,1.4-1.8,2.5-2.9,3.5c-0.5,0.4-0.5-0.2-0.7-0.4C221.2,81.5,221.1,81.2,221.6,80.8L221.6,80.8z
					 M220.8,111.8c0.5,0,0.8,0.4,0.7,0.9c-0.1,0.4-0.1,1.1-0.8,1.2c-0.4-0.3-0.8-0.7-0.7-1.2C220,112.2,220.3,111.8,220.8,111.8
					L220.8,111.8z M218.6,103.8c0.5,0,1.2,0.2,1.3,0.8c0.1,0.6-0.3,0.9-0.9,0.9c-0.6,0-1.2,0.1-1.5-0.6
					C217.8,104.5,218,103.8,218.6,103.8z M217.3,117.1c0-0.5,0.3-0.6,0.7-0.6c0.4,0,0.7,0.2,0.6,0.7c-0.1,0.4-0.3,0.6-1.4,0.6
					C217.3,117.9,217.3,117.5,217.3,117.1L217.3,117.1z M217.7,95.9c0.1,0,0.4,0.3,0.4,0.4c-0.1,0.5-0.4,0.8-0.8,0.9
					c-0.4,0.1-0.4-0.3-0.4-0.6C216.9,96,217.2,95.8,217.7,95.9L217.7,95.9z M218.6,120.3c0.5-0.1,1.2,0.6,1.1,0.8
					c-0.4,1-1.4,1.3-2.2,1.9c-0.4,0.3-0.6-0.2-0.6-0.6C217.2,121.6,217.5,120.6,218.6,120.3z M214.1,9.7v3.1
					C213.6,11.6,213.7,10.9,214.1,9.7z M214.5,91.5c0.8,0.2,0.8,0.9,0.9,1.5c0.2,0.6-0.6,0.6-1,1c-0.6-0.4-0.7-1-0.7-1.6
					C213.7,91.8,213.8,91.3,214.5,91.5z M207.7,110c0.5,0.1,0.8,0.5,0.8,1.2c0,0.5-0.2,1.2-0.7,1.2c-0.7,0-0.7-0.7-0.7-1.4
					C207.3,110.7,206.9,109.9,207.7,110z M208.3,104.6c-0.3-0.3-0.5-0.5-0.6-0.8c-0.1-0.3,0.1-0.5,0.5-0.5c0.4,0,0.7,0.2,0.7,0.6
					C208.8,104.1,208.5,104.3,208.3,104.6z M208,100.6c-0.5-0.1-0.8-0.6-0.8-1.1c0-0.5,0.4-1,0.9-1c0.5,0,0.9,0.5,0.8,1.1
					C208.8,100,208.6,100.6,208,100.6z M207.1,8.7c0.2,0.2,0.4,0.4,0.6,0.7c-1.1,1-1.3,2.6-2.5,3.5c-0.2,0.2-0.5,0.3-0.7-0.1
					c-0.1-0.3-0.4-0.7-0.3-0.8c1.2-0.7,0.9-2.3,1.9-3.1C206.5,8.7,206.7,8.4,207.1,8.7L207.1,8.7z M203,86.2c3.8,4,3.8,4,0.7,6.5
					C204.1,90.3,199.6,88.9,203,86.2z M203.3,114.9c0.6,0.6,0.4,1.3,0.1,2.5c-0.7-0.9-1.2-1.3-0.8-2.1
					C202.8,115,203.1,114.7,203.3,114.9L203.3,114.9z M204.5,2.6c0.8,0.1,0.9,1.1,0.9,1.9c0,0.7-0.1,1.3-0.9,1.5
					c-0.9-0.3-1.2-1.2-1.2-1.9C203.3,3.6,203.7,2.4,204.5,2.6L204.5,2.6z M201.5,11.1c0.3-0.5,0.6-1.2,1.4-1.2
					c0.5,0,0.4,0.6,0.3,0.9c-0.2,0.6-0.7,1.1-1.3,1.3C201.4,11.8,201.3,11.4,201.5,11.1z M192,33.3c0.3,0,0.6,0.1,0.6,0.5
					c0,0.4-0.3,0.7-0.6,0.6c-0.2,0-0.4-0.4-0.5-0.5C191.4,33.3,191.7,33.3,192,33.3z M191.4,67.8c0.4,0.1,0.9,0.3,0.7,0.8
					c-0.1,0.4-0.4,0.8-0.8,0.8c-0.5,0-0.6-0.5-0.8-0.9C190.7,68,191,67.7,191.4,67.8L191.4,67.8z M189.1,38.4
					c0.8,0.1,1.1,0.9,1.3,1.6c0.2,0.5-0.4,0.9-0.7,1.2c-0.9-0.4-1.1-1.2-1.4-1.9C188,38.7,188.7,38.3,189.1,38.4L189.1,38.4z
					 M188.2,27.5c0.2,0.7,0.2,1.2-0.1,1.6c0,0.1-0.5,0-0.5-0.1C187.1,28.4,187.5,27.9,188.2,27.5L188.2,27.5z M185.9,30.6
					c0.6,0,0.7,0.4,0.7,0.8c0,0.4-0.4,0.7-0.7,0.7c-0.4-0.1-0.8-0.4-0.7-0.8C185.2,30.7,185.5,30.6,185.9,30.6L185.9,30.6z
					 M183.9,97.6c0.3-1.2,1.2-0.9,2.2-0.7c-0.6,0.7-0.4,2-1.6,1.9C184.1,98.8,183.8,98.1,183.9,97.6z M184.1,151.3
					c0.2,0.4-0.2,1-0.6,1c-0.9,0-1.1-0.8-1.5-1.5C183,150.3,183.7,150.4,184.1,151.3z M182.8,62.2c0-0.4,0.3-0.6,0.7-0.6
					c0.4,0,0.3,0.4,0.4,0.6c0,0.4-0.2,0.5-0.7,0.5C183.1,62.6,182.8,62.4,182.8,62.2L182.8,62.2z M182.7,31.4
					c0.1-0.2,0.5-0.2,0.8-0.2c0.6,0,0.4,0.5,0.4,0.8c0,1.5-0.8,2.7-1.4,4c-0.1,0.3-0.4,0.4-0.7,0.2c-0.6-0.5-0.5-1.1-0.5-2
					C181,33,182.2,32.4,182.7,31.4L182.7,31.4z M180.8,38.8c0.1,0.4-0.3,0.6-0.7,1c-0.1-0.2-0.2-0.4-0.3-0.5
					c-0.1-0.4,0.1-0.7,0.5-0.8C180.4,38.5,180.7,38.7,180.8,38.8L180.8,38.8z M179.8,20.9c0.7,0.1,0.5,0.6,0.6,0.9
					c0,0.6-0.3,1-0.7,1.4c-0.2-0.4-0.7-0.7-0.6-1.3C179.1,21.4,179,20.9,179.8,20.9z M177.5,38.5c0.4,0.1,1-0.2,1,0.4
					c0,0.5-0.3,1.2-0.9,1.2c-0.4,0-0.7-0.4-0.7-1C176.8,38.7,177,38.4,177.5,38.5L177.5,38.5z M176,132.6c0.1-0.5,0.3-1.1,1-1
					c0.5,0.1,0.3,0.6,0.3,0.6c0.1,0.8-0.2,1.2-0.6,1.3c-0.4,0-0.7-0.3-0.7-0.7C175.9,132.8,175.9,132.7,176,132.6L176,132.6z
					 M174.5,33.3c0.3,0,0.8,0.4,0.8,0.6c-0.1,0.5-0.4,0.8-0.9,1.1c-0.4,0-0.7-0.3-0.6-0.7C173.8,33.8,174,33.4,174.5,33.3z
					 M169.6,21.4c0.4,0,0.7,0.2,0.6,0.6c0,0.6-0.3,1-0.9,1c-0.5,0-0.4-0.5-0.4-0.8C168.9,21.8,168.9,21.3,169.6,21.4z M168.4,13.9
					c0.2,0,0.4,0.2,0.5,0.3c0.1,0.4-0.2,0.6-0.6,0.8c0,0-0.2-0.3-0.2-0.3C168,14.2,168,13.9,168.4,13.9L168.4,13.9z M167.6,51.8
					c0.5,0,0.6,0.5,0.8,0.9c0,0.4-0.4,0.8-0.6,0.8c-0.4-0.1-0.7-0.5-0.6-1C167.2,52.1,167.2,51.8,167.6,51.8z M164.7,36.5
					c0.4-0.4,0.9,0.1,1,0.4c0.3,1,1.7,1.7,0.6,3.2c-0.8-0.8-0.9-1.9-1.8-2.5C164.4,37.5,164.5,36.7,164.7,36.5z M163.4,30.6
					c0.4,0,0.6,0.2,0.7,0.7c-0.1,0.3-0.3,0.6-0.7,0.6c-0.4,0-0.7-0.3-0.7-0.7C162.7,30.9,163,30.6,163.4,30.6
					C163.4,30.6,163.4,30.6,163.4,30.6z M158.4,120.7c0.6-0.3,0.5,0.4,0.8,0.6c0,0.5-0.3,0.8-0.8,0.8c-0.4,0-0.8-0.3-0.9-0.7
					C157.4,120.8,158.1,120.9,158.4,120.7z M157.9,62.9c0-0.5,0.2-0.7,0.7-0.6c0.2,0,0.7-0.1,0.6,0.4c0,0.4-0.3,0.8-0.8,0.8
					C158,63.5,158,63.2,157.9,62.9z M159.6,124.1c0.2,0,0.4,0.3,0.6,0.5l-1.2,1c-0.5-0.1-0.6-0.3-0.6-0.6
					C158.5,124.4,159,124,159.6,124.1L159.6,124.1z M161.9,127.5l-2.7-0.5C160.2,126.7,161.1,126.4,161.9,127.5z M161.9,140.1
					c0.7-0.3,0.5,0.4,0.9,0.7c-0.4,0.8-0.8,1.8-1.7,2.1c-0.4,0.2-1.3-0.3-1.2-0.9C160.1,141,161,140.5,161.9,140.1L161.9,140.1z
					 M161.9,139c-0.5,0.5-0.9-0.3-1.1-0.7c-0.3-0.7,2-3,2.8-2.8c0.4,0.1,0.5,0.2,0.4,0.7C163.4,137.1,162.7,138.2,161.9,139z
					 M163.1,41.5c0.1,0.5-0.3,0.8-0.7,1c-0.3,0-0.5-0.2-0.6-0.5c-0.1-0.4,0.1-0.9,0.6-1.1C162.8,40.7,163.1,41.2,163.1,41.5z
					 M161.5,14c0.4-0.2,0.7,0.3,0.7,0.6c-0.1,1-1.1,1-1.6,1.5c-0.5-0.1-0.9-0.3-0.8-0.8C159.9,14.3,160.9,14.3,161.5,14L161.5,14z
					 M160.7,31.7c0.5-0.1,0.8,0.4,0.7,1c0,0.6-0.5,0.8-0.8,1.1c-0.6-0.3-0.9-0.6-1-1.2C159.6,31.8,160.4,31.7,160.7,31.7L160.7,31.7
					z M159.5,54.8c0.3,0,0.6,0,0.5,0.9c0,0-0.3,0.3-0.6,0.3c-0.4,0.1-0.6-0.3-0.6-0.7C158.8,54.9,159.1,54.8,159.5,54.8z
					 M158.8,52.6c0,0.7-0.3,1.5-0.8,1.4c-0.6,0-1.3-0.7-1.3-1.5c-0.1-0.7,0.6-1.1,1-1.6C158.2,51.4,158.8,51.8,158.8,52.6z
					 M157.5,75.3c0,0.6-0.3,1-0.9,1.1c-0.4,0.1-0.6-0.4-0.8-0.6c0.5-0.3,0.6-1,1.3-1.1C157.5,74.7,157.4,75.1,157.5,75.3z
					 M156.9,29.5c0.3,0.1,0.9,0,1,0.7c-0.2,0.2-0.3,0.6-0.6,0.7c-0.6,0.2-0.7-0.3-0.7-0.8C156.6,29.9,156.4,29.3,156.9,29.5
					L156.9,29.5z M157.1,33c0.3-0.4,0.7-0.2,0.9,0.1c0.9,1.5-0.8,2-1.1,3.4C155.6,35,156.4,34,157.1,33L157.1,33z M155.6,18.1
					c0.1-0.1,0.2-0.2,0.4-0.2c0.4,0.5,0.2,1.1,0,1.6C156,19,155,18.7,155.6,18.1L155.6,18.1z M156.1,61.4c-0.1,0.7-0.7,1.2-1.3,1.4
					c-0.8-0.2-1.6-0.7-1.4-1.2c0.2-0.6,0.9-1.1,1.7-1C155.6,60.6,156.2,60.9,156.1,61.4z M154.2,143.6c-1.1-0.7-0.5-1.7-1-2.4
					c0-0.7-1.3-1.7-0.4-2c1.1-0.4,0.3,1.3,1.1,1.6C154.8,141.6,154.4,142.5,154.2,143.6L154.2,143.6z M154.8,48.5
					c0.1,0.4-0.2,0.7-0.6,0.6c-0.4,0-0.6-0.3-0.5-0.5c0.2-0.3,0.5-0.5,0.8-0.6C155,47.8,154.8,48.3,154.8,48.5L154.8,48.5z
					 M153.7,30.7c0.1-0.1,0.4,0,0.6,0.1c0.9,0.7,0.3,1.4-0.3,2.3C153.4,32.1,152.9,31.4,153.7,30.7L153.7,30.7z M153.4,56.2
					c-0.1,0.5-0.5,0.9-1.2,0.8c-0.4-0.1-0.9-0.3-0.7-0.9c0.1-0.5,0.4-0.9,1.1-0.8C153.1,55.4,153.6,55.7,153.4,56.2z M147.4,75.4
					c0.8,0.9,0.3,1.6-0.5,2.7c-0.3-1.1-1.3-1.6-0.5-2.5C146.5,75.5,147,74.9,147.4,75.4L147.4,75.4z M146.5,64.2
					c0.1-0.3-0.1-0.8,0.4-0.8c0.7,0,0.9,0.6,0.9,1.2c0,0.4-0.1,0.8-0.6,0.7C146.7,65.3,146.4,64.9,146.5,64.2z M149.5,123.6
					c0.4-0.1,0.4,0.3,0.5,0.5c0,0.8-0.5,1.1-1.1,1.2c-0.3,0.1-0.7,0-0.6-0.4C148.4,124.3,148.9,123.8,149.5,123.6z M148.7,59.6
					c0.1-0.5,0.6-0.4,0.9-0.3c0.3,0.1,0.4,0.4,0.2,0.7c-0.2,0.3-0.3,0.7-0.8,0.6C148.7,60.3,148.6,59.9,148.7,59.6z M149.1,147.7
					c0.2,0.5-0.3,1-0.8,1.4c-0.7-0.4-1.4-0.8-1.6-1.6c-0.1-0.3,0.2-0.9,0.7-0.9C148.2,146.5,148.8,147.1,149.1,147.7L149.1,147.7z
					 M150.7,166.1c-0.8,0.4-1.7,0.4-2.4,0.1C149.1,165.7,149.8,165.9,150.7,166.1z M149.9,145.8c-0.3-1.3-1.6-2.2-0.3-3.4
					c0.4-0.4,0.8-0.2,1.1,0.2C151.7,143.8,151,144.7,149.9,145.8z M149.9,73.1c-0.3-0.2-0.5-0.5-0.2-0.9c0.7-1.3,1.3,0.6,1.9,0
					C151.2,73.1,150.8,73.8,149.9,73.1L149.9,73.1z M149.2,30.2c0,0,0.4-0.8,0.5-0.8c1.2,0,1.6,1.1,2.5,2
					C150.9,31.4,150,30.9,149.2,30.2L149.2,30.2z M152.1,26c0.1,0.9-0.3,1.4-0.6,1.3c-1-0.4-2.1-0.7-2.6-1.7c-0.3-0.6,0.5-0.6,1-0.7
					C151.1,24.7,151.3,26.1,152.1,26L152.1,26z M150.2,21c0.7,0,0.6,0.5,0.6,0.9c0.1,0.9-0.6,0.9-1.1,0.9c-0.5,0-0.7-0.4-0.9-0.8
					C149.3,21.5,149.5,21,150.2,21z M149,50.5c0.1,0.8-0.5,1.1-0.8,1.9c-0.5-0.7-1-1.3-0.7-1.8C147.8,50.2,148.5,50.5,149,50.5
					L149,50.5z M147,31.7c0.3,0,0.6,0.3,0.6,0.8c-0.1,0.9-0.8,0.8-1.5,0.8c-0.4,0-0.9,0-0.9-0.6C145.6,31.8,146.3,31.8,147,31.7z
					 M145.5,78.3c0.1-0.1,0.5,0.1,0.5,0.2c0.1,0.5,0.1,1-0.7,1.4C145.2,79.3,144.9,78.7,145.5,78.3z M145.6,126.3
					c0.4,0,0.4,0.3,0.4,0.6c0.1,0.5-0.3,0.8-0.6,1.1c-0.2-0.3-0.6-0.5-0.6-0.8C144.8,126.7,145.1,126.3,145.6,126.3L145.6,126.3z
					 M139,48.8c0.8,0.4,1.6,1.1,2.1,1.9c0.2,0.3-0.8,0.9-1.5,1.2c-0.8-0.3-1.5-0.8-1.5-1.8C138.1,49.3,138.5,48.5,139,48.8z
					 M133.2,66.7c0.2,0,0.5,0.1,0.5,0.3c0.1,0.3,0,0.6-0.2,0.6c-0.5,0-0.8,0-0.8-0.4C132.6,66.8,132.9,66.7,133.2,66.7L133.2,66.7z
					 M133.7,128.7c0,0.3-0.1,0.6-0.4,0.6c-0.4,0-0.4-0.3-0.4-0.5c0-0.4,0.1-0.7,0.6-0.7C133.7,128.1,133.7,128.4,133.7,128.7z
					 M132.4,119.8c0,0.4-0.2,0.7-0.7,0.7c-0.1-0.2-0.3-0.4-0.4-0.6l0.9-0.5C132.2,119.5,132.4,119.6,132.4,119.8z M130.5,37.3
					c0.3-0.3,0.4-1.3,1.2-0.6c0.6,0.5,0.3,1-0.1,1.5c-0.5,0.6-1,1.1-1.6,1.8C129.6,38.8,129.6,37.9,130.5,37.3z M130.1,67.7
					c0.5-0.1,0.5,0.4,0.6,0.8c-0.1,0.3,0.1,0.8-0.5,0.8c-0.3,0-0.8-0.3-0.8-0.6C129.4,68.3,129.7,67.9,130.1,67.7L130.1,67.7z
					 M129.3,18.8c-0.2,1.2-1.3,1.1-1.9,2.2C127.4,19.2,127.9,18.5,129.3,18.8z M127.2,26c0.7-0.8,1.4-0.3,2.3,0.1
					c-0.9,0.6-1.4,1.4-2.3,0.9C127,26.7,127,26.2,127.2,26L127.2,26z M128,54.8c0-0.3,0.2-0.6,0.4-0.7c0.4-0.2,0.4,0.2,0.5,0.4
					c0,0.4,0,0.7-0.3,0.8C128.2,55.3,128,55.1,128,54.8L128,54.8z M128,63.2c0,0.3-0.1,0.4-0.4,0.4c-0.3,0-0.5-0.3-0.5-0.6
					c0-0.2,0.3-0.3,0.4-0.4C128.1,62.6,128,63,128,63.2z M127.7,44.4c1.1-0.3,0.9,0.8,0.8,1.2c-0.4,1.3-1,2.5-1.5,3.9
					C125.9,48.4,126.6,44.6,127.7,44.4z M126.1,54c0.4,0,0.6,0.1,0.6,0.5c0,0.2-0.2,0.3-0.3,0.5c-0.2-0.2-0.4-0.3-0.6-0.5
					C125.8,54.3,126,54.1,126.1,54L126.1,54z M125.8,42.6c0,0.4-0.1,0.7-0.7,0.6c-0.3-0.2-0.6-0.4-0.5-0.8c0.1-0.4,0.3-0.9,0.9-0.7
					C125.9,41.9,125.9,42.3,125.8,42.6L125.8,42.6z M125.7,30.7c0.4,0,0.7,0.7,0.6,1.3c-0.1,0.5-0.3,0.8-0.9,0.8
					c-0.4-0.2-0.9-0.3-0.8-0.8C124.7,31.4,125.1,30.7,125.7,30.7L125.7,30.7z M124.3,25c0.4,0.1,0.6,0.6,0.6,1.1
					c-0.1,0.4-0.3,0.9-0.7,0.8c-0.4-0.1-0.6-0.5-0.6-1.1C123.7,25.4,123.9,24.9,124.3,25z M123,56.7c0.5,0,0.4,0.5,0.4,0.8
					c0,0.5-0.4,0.7-0.6,0.9c-0.6,0-0.6-0.3-0.6-0.6C122.3,57.3,122.5,56.7,123,56.7L123,56.7z M121,37.7c-0.1-0.5,0-1,0.8-1
					c0.7,0.1,0.5,0.6,0.6,1.3c0,0.3-0.3,0.8-0.8,0.8C120.7,38.9,121,38.2,121,37.7L121,37.7z M121.6,47.8c0.1,0,0.5,0.4,0.5,0.6
					c0,0.3-0.2,0.7-0.7,0.6c-0.3-0.2-0.7-0.3-0.6-0.7C120.8,48.1,121.3,47.9,121.6,47.8z M119.2,61.2c0,0.2-0.1,0.3-0.3,0.6
					c-0.2-0.3-0.4-0.5-0.5-0.7c0-0.1,0.2-0.3,0.4-0.4C119.2,60.6,119.2,60.9,119.2,61.2L119.2,61.2z M100.6,31.5
					c0.1-0.1,0.7-0.1,0.8,0.1c0.5,0.6,0.1,1.1-0.6,1.7C101,32.6,99.9,32.2,100.6,31.5z M83.3,27.5c-1.1-0.7-0.9-2-1.3-2.9
					C82.7,25.4,84.2,25.9,83.3,27.5z M81.7,28.2c0.4-0.1,0.7,0.2,0.6,0.6c-0.1,0.3-0.4,0.5-0.6,0.8L81,29
					C81,28.4,81.4,28.2,81.7,28.2L81.7,28.2z M81.1,45.2c0.2,0.2,0.6,0.5,0.6,0.7c0,0.3-0.3,0.6-0.4,0.9c-0.4-0.2-0.8-0.4-0.7-0.8
					C80.6,45.8,80.9,45.5,81.1,45.2L81.1,45.2z M81.7,74.9c-0.1,0.2-0.3,0.4-0.6,0.7c-0.2-0.3-0.4-0.6-0.3-0.8
					c0.1-0.2,0.4-0.4,0.6-0.5C81.8,74.3,81.8,74.7,81.7,74.9L81.7,74.9z M80.2,145.8c0.8,0.1,1.9,0.2,2,1.3c0.1,0.9-0.9,1.3-1.4,1.4
					c-0.8,0.1-1.2-0.8-1.6-1.5C79.6,146.5,79.5,145.6,80.2,145.8z M75.3,36.7c0.1-0.3,0.4-0.5,0.6-0.7c0.2,0.3,0.5,0.6,0.5,0.9
					c0,0.2-0.4,0.5-0.6,0.8C75.6,37.3,75.1,37.2,75.3,36.7L75.3,36.7z M72.3,42.2c0.3,0.1,0.7,0.3,0.6,0.7c-0.1,0.3-0.3,0.7-0.7,0.6
					c-0.4-0.1-0.6-0.4-0.5-0.8C71.7,42.4,71.8,42,72.3,42.2L72.3,42.2z M69.7,111.6c0.3-0.6,0.6-1.3,1.5-1.2c0.5,0,0.6,0.4,0.5,0.8
					c-0.1,0.8-0.7,1.2-1.3,1.4C69.9,112.4,69.5,112,69.7,111.6z M68.3,55.3c0.4,0.1,0.3,0.4,0.4,0.6c0,0.4-0.1,0.7-0.6,0.6
					c-0.3,0-0.6-0.2-0.5-0.5C67.6,55.7,67.7,55.2,68.3,55.3L68.3,55.3z M65.6,108.3c0.4-0.5,0.1-1.6,1.2-1.4
					c0.5,0.1,0.5,0.5,0.4,0.8c-0.3,0.6-0.4,1.4-1.1,1.7C65.8,109.1,65.3,108.7,65.6,108.3z M64.9,144.4c0.1-0.5,0.5-0.6,1-0.6
					c0.4,0,0.5,0.2,0.4,0.5c-0.2,0.4-0.4,0.8-0.9,0.8C65.2,145,64.8,144.8,64.9,144.4L64.9,144.4z M64.8,117
					c-0.4-0.1-0.6-0.4-0.6-0.8c0-0.4,0.2-0.6,0.5-0.5c0.4,0.1,0.6,0.4,0.6,0.8C65.4,116.8,65.1,117,64.8,117L64.8,117z M64.8,33.3
					c0.3,0,0.8,0,0.7,0.5c0,0.4-0.4,0.8-0.8,0.8c-0.4,0-0.4-0.3-0.4-0.5C64.2,33.5,64.3,33.3,64.8,33.3z M63.7,112.2
					c0.2-0.4,0.7-0.7,1.3-0.3c1.1,0.8-0.1,1.5-0.2,2.2C64.4,113.5,63,113.3,63.7,112.2z M59,134.3c0,0.6-0.2,0.9-0.8,1.1
					c-0.4-0.2-1-0.3-0.9-0.7c0.1-0.5,0.2-1.2,0.8-1.3C58.6,133.3,58.9,133.8,59,134.3L59,134.3z M57.8,128.7c-0.5-0.3-1-0.7-1-1.3
					c0-0.2,0.5-0.6,0.8-0.6c0.5,0,0.9,0.4,0.9,1C58.5,128.3,58.3,128.6,57.8,128.7L57.8,128.7z M57.6,122.3
					c-0.3-0.6-1.3-1.1-0.5-1.8c0.3-0.3,0.9-0.6,1.2-0.3C58.9,121,58,121.6,57.6,122.3z M58.1,118.2c0,0.3-0.1,0.5-0.5,0.5
					c-0.5-0.1-0.7-0.5-0.8-0.9c-0.1-0.4,0.3-0.4,0.5-0.4C58,117.4,58.1,117.7,58.1,118.2L58.1,118.2z M57.9,104.8
					c-1,0.4-1.8,0.3-3.2,0.1C56.1,104.5,56.9,104.6,57.9,104.8z M51.6,118.1c0.7,0,0.8,0.7,0.8,1.3c0,0.7,0,1.5-0.8,1.5
					c-0.7,0-0.4-0.9-0.5-1.5C51.2,118.9,50.7,118.1,51.6,118.1L51.6,118.1z M45.8,134.8c-0.3-1.2-1.4-1.9-0.5-2.9
					c0.2-0.2,0.5-0.4,0.7-0.1C46.8,132.7,46.7,133.6,45.8,134.8z M47.2,142.5c0.9,1,1,1.8,0.4,2.8c-0.4,0.5-0.6,0.1-0.8-0.2
					C45.7,144.1,46.8,143.5,47.2,142.5z M43.8,140.8c-0.2,1,2.4,0.8,0.9,2.2c-0.4,0.4-0.7,1.4-1.5,0.6
					C42,142.5,43.3,141.8,43.8,140.8z M43.1,138.5c0-0.5,0.1-0.8,0.7-0.8c0.4,0,0.7,0.2,0.6,0.6c0,0.6-0.3,1-0.7,1
					C43.5,139.3,43.1,138.9,43.1,138.5z M45.9,125.6c0,0.4-0.3,0.7-0.8,0.8c-0.4,0-0.6-0.4-0.7-0.8c-0.1-0.5,0.2-0.6,0.6-0.6
					C45.6,124.9,45.9,125.1,45.9,125.6L45.9,125.6z M45.3,122.4c-0.1,0.3-0.4,0.5-0.6,0.7c-0.5-0.1-0.6-0.3-0.6-0.6
					c-0.1-0.5,0.2-0.7,0.6-0.7C45,121.8,45.4,121.9,45.3,122.4L45.3,122.4z M44.4,96.4c0.4,0,0.5,0.4,0.5,0.8c0,0.4-0.3,0.6-0.7,0.7
					c-0.2-0.2-0.5-0.5-0.6-0.8C43.5,96.6,44,96.4,44.4,96.4L44.4,96.4z M44,128.9c0.8-0.2,1.2,0.5,1.1,0.9c-0.2,0.4-1,0.7-1.6,0.7
					c-0.5,0.1-0.8-0.5-0.8-0.9C42.8,128.6,43.5,129,44,128.9z M41.2,114.9c0.2-0.6,0.9-0.7,1.4-0.3c1.1,0.9,0.3,1.8-0.1,2.9
					C41.7,116.6,40.8,116,41.2,114.9z M41.8,124.9c-0.1,1.2,0.2,2.1-0.4,3.1C40.9,127,40.5,126,41.8,124.9z M41.4,146.2
					c0,0.5-0.3,0.8-0.7,1.1c-0.3-0.2-0.7-0.3-0.7-0.8c0-0.5,0.3-0.8,0.8-0.8C41.2,145.6,41.4,145.9,41.4,146.2z M38.1,33.8
					c1.1,0.6,1.5,3.1,0.8,3.9c-0.5,0.5-1-0.1-0.9-0.2C38.7,36.2,37.3,35,38.1,33.8L38.1,33.8z M38.3,76.7c0.9-0.3,1.6,0.1,1.8,1.1
					c0.6,0.7,0.5,1.4,0.1,2.2c-0.8,0.3-0.3,2-1.3,1.6c-0.9-0.4-1.9-1.5-2.2-2.5C36.5,78.3,37.2,77,38.3,76.7L38.3,76.7z M39.5,138.1
					v3C39.1,140.1,39.1,139.1,39.5,138.1z M39.2,112.6c0,0.5-0.4,0.7-0.8,0.8c-0.6,0.1-0.5-0.6-0.9-0.6c-0.1-0.7,0.4-0.8,0.8-0.9
					C38.7,111.9,39.2,112,39.2,112.6L39.2,112.6z M35.4,75.6c0.5,0,0.8,0.3,0.9,0.7c0.2,0.6-0.4,0.8-0.9,1.4
					c-0.3-0.6-0.6-0.9-0.7-1.3C34.7,76,34.8,75.6,35.4,75.6L35.4,75.6z M34.5,115.9c0.2-0.4,0.8-0.2,1.2,0.1
					c0.9,0.8,0.2,1.6-0.3,2.5C34.8,117.5,34.1,116.8,34.5,115.9z M34.4,139.9v-2.1C35,138.7,34.6,139.3,34.4,139.9z M34.9,95
					c0.4-0.1,0.7,0,0.8,0.5c0.1,0.6-0.3,0.9-0.6,1.2c-0.5-0.1-0.9-0.4-1-0.8C33.8,95.3,34.4,95.1,34.9,95z M29.2,32.1
					c0.5-0.2,0.5,0.4,0.6,0.6c0.2,0.5-0.2,0.8-0.6,1c-0.4,0.2-0.6-0.2-0.8-0.6C28.6,32.7,28.8,32.2,29.2,32.1L29.2,32.1z M25.8,55.8
					c0,0.4-0.4,0.4-0.7,0.4c-0.5,0-0.5-0.4-0.5-0.8c0-0.3,0.1-0.6,0.5-0.5C25.6,54.9,25.9,55.3,25.8,55.8z M24,46.9
					c0.7,0,1.1,0.3,1.1,0.8c0.1,0.8-0.3,1-0.8,1c-0.6,0-1-0.2-0.9-0.9C23.4,47.4,23.3,46.9,24,46.9z M24.1,65.3
					c0.4,0.1,0.7,0.4,0.5,0.8c-0.1,0.3-0.4,0.5-0.6,0.7c-0.5-0.2-0.7-0.5-0.6-0.9C23.4,65.4,23.7,65.2,24.1,65.3L24.1,65.3z
					 M24,143.5c0.4-0.1,0.6,0.2,0.7,0.6c0,0.6-0.1,1.2-0.7,1.5c-0.5,0-0.6-0.3-0.6-0.7C23.3,144.3,23.2,143.6,24,143.5z M24.1,150.9
					c-0.6-0.4-1.4-0.9-1.2-1.6c0.4-1.3,1.5-2.1,2.6-2.7c0.3-0.2,0.7,0.3,0.8,0.8C26.4,147.8,24.5,150.9,24.1,150.9L24.1,150.9z
					 M26.4,155.3c-0.2,0-0.5-0.3-0.5-0.5c0-0.6,0.4-1,1-1.2c0.3-0.1,0.5,0.2,0.5,0.7C27.2,154.7,27,155.3,26.4,155.3L26.4,155.3z
					 M27.1,144.8c-0.6,0-0.7-0.4-0.6-0.9c0.1-0.3-0.1-0.9,0.5-0.8c0.6,0,0.8,0.5,0.8,1.1C27.7,144.6,27.5,144.8,27.1,144.8
					L27.1,144.8z M27.4,137.4v-2.4C27.8,135.6,27.9,136.3,27.4,137.4z M27.5,45.1c-0.4-0.1-0.7-0.6-0.6-1c0.1-0.3,0.5-0.6,0.7-0.7
					c0.6-0.1,0.5,0.5,0.6,0.8C28.2,44.7,28.1,45.2,27.5,45.1L27.5,45.1z M28.3,149.9c-0.2-1.2-0.3-2.1,1.1-2.6
					c0.8-0.3,0.7,0.5,0.7,0.6C30.4,149.3,29.2,149.5,28.3,149.9z M31.2,40.7c-0.1,0.6-0.5,1.1-1.2,0.9c-0.3-0.1-0.6-0.4-0.7-0.5
					c0-1.1,0.7-1.4,1.3-1.5C31,39.5,31.3,40.1,31.2,40.7L31.2,40.7z M31.8,155.8c-0.3,0-0.6-0.2-0.5-0.5c0-0.2,0.2-0.6,0.4-0.7
					c0.4-0.2,0.4,0.2,0.5,0.5C32.2,155.4,32.2,155.7,31.8,155.8L31.8,155.8z M32.9,151.4c-0.4-0.2-0.7-0.4-0.7-0.9
					c0-0.3,0-0.8,0.5-0.7c0.4,0.1,0.8,0.4,0.8,0.8C33.5,151,33.3,151.2,32.9,151.4z M35,156.6c-0.4-0.5-0.2-1-0.1-1.7
					C35.5,155.5,35.8,156,35,156.6z M35,152.7c-0.3,0.3-0.6,0.6-0.9,0.3c-0.3-0.3-0.3-0.8,0-1.2c0.5-0.5,1.2-0.6,1.1-1.6
					c-0.5-2.6,1.1-2.6,2.9-2.3C38,150.3,36.3,151.3,35,152.7L35,152.7z M37.9,119.6c-0.7-0.1-0.9-1-0.9-1.7
					c-0.1-0.6,0.3-1.1,0.9-0.7c0.5,0.3,1.5,0,1.3,1.2C38.9,118.9,38.5,119.6,37.9,119.6L37.9,119.6z M39.4,149.2
					c0.5,0,1.1,0.4,0.9,0.9c-0.1,0.5-0.1,1.2-0.9,1.4c-0.5-0.1-0.8-0.6-0.7-1.1C38.8,150,38.3,149.1,39.4,149.2z M39.5,157.7
					c-0.3,0.1-0.5-0.1-0.6-0.4c0-0.3,0.1-0.6,0.4-0.6c0.2,0,0.4,0.1,0.5,0.3C40,157.3,39.8,157.6,39.5,157.7L39.5,157.7z M43,158.4
					c-0.5,0.1-1.3,0.4-1.6-0.3c-0.2-0.6-0.2-1.2,0.5-1.7c0.8-0.7,1.7-1.6,1-3.1c-0.8,0.4-1.7,0.8-2.8,0.8c-1.1-0.1-1.3-0.8-0.6-1.3
					c1.6-1,1.7-3.6,4.2-3.7c0.9-0.1,0-1.5,0.1-2.3c1.1,0.4,2.3,0.7,1.2,2.3c-0.4,0.6-0.1,1.6,0.7,1.8c2.8,0.8,1,1.9,0.3,3
					c-0.1,0.2-0.6,0.2-0.5,0.8c1.2-0.7,1.7,1.1,3,0.6C46.9,157,45,157.9,43,158.4L43,158.4z M47.5,68.9c0-0.1-0.3-0.4-0.4-0.7
					c-0.2-0.5,0.2-0.6,0.6-0.6c0.4,0,0.7,0.2,0.7,0.6C48.4,68.5,48.3,68.8,47.5,68.9L47.5,68.9z M49.5,114.8c0.4,0,0.7,0.2,0.6,0.6
					c0.1,0.5-0.3,0.8-0.6,1.1c-0.2-0.3-0.5-0.5-0.6-0.8C48.8,115.3,48.8,114.8,49.5,114.8z M50.4,138.4c0,0.1-0.4,0.1-0.5,0
					c-1.1-0.8-0.4-1.6-0.1-2.5C50.9,136.6,50.7,137.5,50.4,138.4L50.4,138.4z M50.8,129.2c-0.3-0.1-0.7-0.4-0.6-0.8
					c0.1-0.3,0.4-0.5,0.6-0.8c0.3,0.3,0.7,0.5,0.7,1.1C51.4,129,51.3,129.4,50.8,129.2L50.8,129.2z M52.4,132c-0.7-0.2-1-0.6-1-1.1
					c0-0.7,0.5-1,1.1-1.1c0.6-0.1,0.6,0.4,0.7,0.8C53.3,131.3,52.8,131.7,52.4,132z M54.2,154.2v-2.6
					C54.6,152.5,54.7,153.3,54.2,154.2z M53.9,136c-0.7,0-1-0.4-1.1-1c0-0.9,0.6-0.7,1.1-0.8c0.6,0,1,0.3,1,0.8
					C54.9,135.6,54.5,136,53.9,136L53.9,136z M55.5,152c-0.1-0.9,0.2-1.1,0.6-1.1c0.2,0,0.7-0.1,0.6,0.4c-0.1,0.4-0.2,0.9-0.7,0.8
					C55.7,152.2,55.4,152,55.5,152L55.5,152z M56.8,153.7c-0.1,0.2-0.3,0.4-0.6,0.7c-0.1-0.3-0.3-0.4-0.3-0.6
					c-0.1-0.3,0-0.6,0.4-0.6C56.7,153.1,56.8,153.4,56.8,153.7z M57.4,157.6c-0.4,0-0.8-0.2-0.5-0.6c0.2-0.5,0.7-0.7,1.2-0.7
					c0.4,0,0.5,0.2,0.5,0.5C58.3,157.2,58,157.6,57.4,157.6L57.4,157.6z M59.2,154.1c-0.5,0-0.7-0.2-0.7-0.6c0-0.3,0.1-0.6,0.4-0.6
					c0.4-0.1,0.6,0.3,0.7,0.6C59.8,153.9,59.4,154,59.2,154.1L59.2,154.1z M56.6,144.6c-0.3,0.3-0.6,0.9-1.3,0.3
					c-0.5-0.4-0.5-1-0.3-1.4c1.3-1.7,2.6-3.3,4.5-4.3c1.3-0.7,1.1,0.6,1.5,1c0.1,0.6-0.4,0.8-0.7,1.1
					C59.2,142.4,57.9,143.5,56.6,144.6L56.6,144.6z M60.7,147.3c0.8,0.9,0.2,1.7,0.2,2.3L60.7,147.3z M62.4,151.5
					c-0.1,0.4-0.4,0.8-0.9,0.7c-0.3-0.2-0.7-0.4-0.6-0.7c0.1-0.4,0.5-0.6,1-0.6C62.4,151,62.5,151.3,62.4,151.5L62.4,151.5z
					 M63.6,156.6c-0.8-0.8-1-1.5-0.3-2.3c0.4-0.4,0.9-0.4,1.1,0C65.2,155.4,64.2,156,63.6,156.6L63.6,156.6z M64.5,160.1
					c-0.5-0.3-0.8-0.6-0.7-1c0-0.6,0.4-1,0.9-1c0.5,0,0.8,0.5,0.7,0.9C65.3,159.4,64.9,159.8,64.5,160.1L64.5,160.1z M63.8,151.3
					c-0.5,0.3-0.9-1.1-0.7-1.4c0.9-1.1,1.9-2.2,3.1-3.1c0.6-0.4,1.2,0.1,1.8,0.8C66.5,149,65.3,150.3,63.8,151.3L63.8,151.3z
					 M67.9,150.5c0.8-0.6,1.1-0.1,1.3,0.3c0.6,2.2-1.9,1.8-2.4,3.1C65.1,152,66.7,151.5,67.9,150.5L67.9,150.5z M68,162.7
					c-0.5,0.2-1.2-1.1-1.1-1.6c0.3-1.4,1.6-1.8,2.8-2.1c0.4-0.1,1,0.7,1.7,1.1C70.2,161.2,69.2,162.2,68,162.7z M72.4,150.3
					c-0.4,0-2.8-2.7-2.6-3.1c0.1-0.5,0.6-0.8,1-0.6c1,0.5,2,1.2,2.3,2.4C73.1,149.6,72.9,150,72.4,150.3L72.4,150.3z M73.4,138.5
					c-0.5,1.5-0.4,3.3-1.5,4.5c-0.3,0.3-0.6,1-1.2,0.8c-0.7-0.2-0.1-0.9-0.3-1.2c-0.2-2,1.2-3.1,1.7-4.6c0.1-0.4,0.5-0.2,0.7-0.1
					C73.2,138,73.5,138.1,73.4,138.5z M73.8,130.4c-0.1,0.3-0.1,0.9-0.7,0.9c-0.3,0-0.6-0.4-0.5-0.8c-0.1-0.5,0.1-0.8,0.6-0.7
					C73.5,129.8,74,129.9,73.8,130.4L73.8,130.4z M75.1,116.1c0.3,0,0.6,0.2,0.5,0.5c-0.1,0.3-0.4,0.5-0.6,0.8
					c-0.3-0.3-0.6-0.5-0.6-0.8C74.3,116.2,74.7,116.1,75.1,116.1z M75.6,155.8c-0.5-0.1-0.8-0.6-0.8-1.3c0-0.3,0.4-0.9,0.7-0.7
					c0.4,0.2,1.1,0.6,1,1.2C76.4,155.4,76.1,155.9,75.6,155.8L75.6,155.8z M75.3,150.2c0-0.2,0.3-0.4,0.4-0.4
					c0.6,0.2,0.6,0.9,0.8,1.3C76,150.9,75,151.2,75.3,150.2z M75.4,143.9c-0.4,0-0.8-0.3-0.5-0.7c0.3-0.5,0.3-1.4,1.1-1.4
					c0.3,0,0.7,0.5,0.6,0.8C76.5,143.5,76.1,143.9,75.4,143.9L75.4,143.9z M79,163.9c-0.6-0.4-1-1-1.1-1.6c-0.1-0.3,0-0.8,0.5-0.7
					c0.6,0.1,1,0.7,1.3,1.3C79.8,163.3,79.5,163.7,79,163.9z M80.7,159.9c-0.3-0.3-0.8-0.6-0.6-1.1c0.1-0.3,0.3-0.8,0.7-0.6
					c0.4,0.2,0.9,0.5,0.8,1.1C81.5,159.6,81.2,159.9,80.7,159.9z M80.7,154.9c-0.7-0.3-1.2-0.5-1.2-1c0-0.8,0.9-1,1.4-1.1
					c0.7-0.2,0.9,0.6,0.9,1.2C81.9,154.8,80.8,154.2,80.7,154.9L80.7,154.9z M83.6,149.9c0,0.5-0.2,0.9-0.7,0.9
					c-0.6-0.1-0.7-0.8-1.1-1.2c0.3-0.6,0.6-0.9,1.2-0.8C83.9,148.8,83.5,149.5,83.6,149.9z M84.9,129.3c-0.3,0.1-0.5-0.1-0.7-0.7
					c0-0.3,0.5-0.2,0.7-0.4c0.2-0.2,0.4-0.1,0.4,0.2C85.4,128.8,85.3,129.2,84.9,129.3z M85.1,45.5c-0.3,0.1-0.6-0.3-0.6-0.8
					c0.1-0.5,0.5-0.8,1-0.7c0.3,0.1,0.8,0.1,0.7,0.6C86.1,45.3,85.5,45.3,85.1,45.5z M87.3,42.3c-0.2,0-0.4-0.4-0.4-0.6
					c-0.1-0.4,0.3-0.4,0.5-0.5c0.3,0,0.5,0.1,0.5,0.5C87.9,42,87.7,42.3,87.3,42.3L87.3,42.3z M88.2,29.8c-0.3,0.3-0.4,1.2-1,0.6
					c-1.3-1.1,0.3-1.8,0.3-3.1C88.3,28.2,89.6,28.7,88.2,29.8z M91.3,43.5c0.4,0.7,0.3,1.2-0.5,1.6C90.4,44.3,90.7,43.9,91.3,43.5z
					 M91.3,143c-0.3-0.3-0.8-0.5-0.6-0.9c0.1-0.3,0.4-0.5,0.7-0.7c0.2,0.3,0.5,0.6,0.5,0.9C91.9,142.5,91.5,142.7,91.3,143L91.3,143
					z M93.2,35.9c-0.2,0.5-0.3,1.1-1,1.2c-0.4-0.2-0.8-0.7-0.6-1c0.2-0.4,0.7-0.6,1.1-0.7C93,35.4,93.4,35.6,93.2,35.9L93.2,35.9z
					 M93.3,30.2c0,0.1,0,0.1,0,0.2c-0.1,0.8,0.4,1.7-0.4,2.4c-0.1,0.1-0.7,0-0.8-0.2c-0.4-1,0.5-1.6,0.9-2.4c0-0.1,0-0.3,0.1-0.4
					c0.5-0.3,0.7-1.2,1.5-0.7c0.2,0.1,0.5,0.5,0.4,0.7C94.6,30.6,93.8,30,93.3,30.2z M96.4,160.1c-0.4,0-0.5-0.4-0.5-0.8
					c0.1-0.4,0.4-0.5,0.8-0.4c0.3,0.1,0.5,0.3,0.4,0.7C96.9,159.8,96.7,160.1,96.4,160.1z M97.2,97.7c-0.3,0.9-1.1,0.9-2.1,0.7
					c0.5-0.6,0.4-1.8,1.5-1.5C96.9,97,97.3,97.2,97.2,97.7L97.2,97.7z M97.7,75.5c-0.5-0.2-0.9-0.4-0.9-1c0-0.6,0.3-0.7,0.8-0.7
					c0.4,0,0.9-0.1,1,0.6C98.6,75,98.2,75.3,97.7,75.5z M99.9,27.2c0.1,0,0.4,0.2,0.4,0.4c0.1,0.3-0.2,0.5-0.6,0.5
					c-0.1-0.1-0.2-0.2-0.2-0.4C99.4,27.4,99.5,27.1,99.9,27.2z M100.5,157.4c-0.7-0.1-1.2-0.5-1-1.1c0.2-0.9,1.3-1,2-1.3
					c0.6-0.3,1.1,0.4,1,1C102.4,157.2,101.2,157,100.5,157.4z M103.6,167.1c-0.4-0.7-0.3-1.4-0.1-2.3
					C103.9,165.6,104,166.3,103.6,167.1z M103.4,38.3c-0.6-0.1-0.5-0.6-0.5-1c0-0.4-0.2-1,0.5-1c0.6,0,0.8,0.6,0.8,1.1
					C104.3,38,103.8,38.2,103.4,38.3L103.4,38.3z M107.7,40.3c-0.5,0-0.8-0.2-0.8-0.6c0-0.6,0.6-0.8,1-1c0.4-0.2,0.5,0.4,0.6,0.7
					C108.6,40,108.1,40.2,107.7,40.3z M113.1,146.2c-0.4-1.4-1.7-1.7-1.3-2.8c0.1-0.4,0.6-0.3,0.9-0.2
					C114,143.6,113.6,144.6,113.1,146.2L113.1,146.2z M113.2,51.6c-0.2,0-0.4-0.4-0.5-0.5c0-0.5,0.3-0.5,0.6-0.5
					c0.3,0,0.6,0,0.6,0.4C113.8,51.3,113.6,51.6,113.2,51.6L113.2,51.6z M115.1,32.6c-0.4-0.2-0.7-0.5-0.7-1c0-0.4,0.3-1,0.7-0.9
					c0.3,0.1,0.5,0.7,0.6,1.1C115.8,32.2,115.4,32.4,115.1,32.6z M115.9,163.6c-0.4-1.3-0.2-2.4,0-3.5
					C116.2,161.2,116.3,162.3,115.9,163.6z M117,15.9c-0.1-0.6,0.3-0.8,0.8-0.7c0.4,0,1,0,0.9,0.6c-0.1,0.4-0.4,0.7-1,0.7
					C117.3,16.5,117.1,16.3,117,15.9L117,15.9z M117.5,24.4c-0.1-0.5,0.4-0.5,0.7-0.5c0.3,0,0.8-0.2,0.9,0.3
					c0.1,0.6-0.4,0.7-0.8,0.9C117.9,25.2,117.5,24.9,117.5,24.4L117.5,24.4z M118.3,79.4c0.1-1.2,1.5-0.8,2-1.6
					c0.3,0.3,0.9,0.6,0.6,1c-0.5,0.7-1.3,1.1-1.9,1.6C118.2,80.3,118.3,79.8,118.3,79.4z M119.9,86.4c-0.6-0.9-1.6-1.2-0.9-2.3
					c0.1-0.2,0.4-0.5,0.7-0.3C120.5,84.5,120.1,85.3,119.9,86.4z M121.6,143.5c-0.4-0.8-1.4-1.3-0.6-2.2c0.1-0.1,0.5-0.8,1-0.2
					C122.7,142.1,122,142.6,121.6,143.5L121.6,143.5z M122.9,68.9c-0.4-0.1-0.6-0.4-0.6-0.9c0-0.4,0.4-0.5,0.7-0.4
					c0.5,0,0.6,0.3,0.6,0.7C123.6,68.8,123.4,69,122.9,68.9z M123.6,156.6c0.9-0.5,1.4-0.4,2,0H123.6z M124.6,108
					c-0.3-1,0.4-1.7,1.2-1.8c1.4-0.2,2.6,1.4,2.6,3.3c-0.1,1.5-1.4,1-2.1,1.1C125.2,110.9,124.7,109.9,124.6,108z M127.2,113.7
					c-0.5-0.2-1.1-0.5-0.9-1.7c0,0.1,0.1-0.4,0.6-0.1c0.5,0.3,1.4,0.2,1.2,1.1C128,113.4,127.7,113.9,127.2,113.7z M130.1,162.3
					c0.7-0.7,2,0.2,2.5-1.1l0.3,0.4C132.3,163,131,162.1,130.1,162.3L130.1,162.3z M129.4,145.7c-0.6,0.6-0.8-0.2-1.2-0.5
					c-0.6-0.4-0.8-1-0.7-1.7c0.1-0.7,0.6-0.5,1-0.5c3.2-0.3,4.7,0.6,5.2,3.8C132.4,145.2,131.2,143.9,129.4,145.7L129.4,145.7z
					 M133.3,30c0.1-0.8-0.5-1.6,0.4-2c0.2-0.1,0.6,0.1,0.7,0.3C134.9,29.2,134.2,29.5,133.3,30z M138,53.5c-0.4,0-0.6-0.4-0.5-0.8
					c0.1-0.3,0.3-0.5,0.6-0.4c0.4,0.1,0.3,0.4,0.4,0.6C138.5,53.3,138.3,53.5,138,53.5z M139.5,79.8c0-0.7-0.5-1.5,0.5-2
					c0.3-0.1,0.7-0.1,0.7,0.2C141,79,140.6,79.6,139.5,79.8z M140.6,75.6c-0.6,0-0.6-0.5-0.7-0.8c-0.1-0.5,0.2-0.6,0.5-0.6
					c0.5,0,0.8,0.3,0.7,0.8C141.1,75.3,140.9,75.5,140.6,75.6L140.6,75.6z M143,153.9c-0.5,0-0.8-0.3-0.8-0.8c0-0.2,0.3-0.6,0.5-0.6
					c0.5,0,0.7,0.4,0.9,0.9C143.4,153.6,143.2,153.9,143,153.9L143,153.9z M143.9,137c-1.1,0.7-1.8,0-2-0.8
					c-0.2-0.9,0.6-1.7,1.2-2.2c0.6-0.7,1,0.3,1.4,0.7c0.5,0.5,1.3,0.7,1,1.7c0.7-0.1,1.3-1,2,0c0.5,0.7-0.1,1.1-0.6,1.4
					c-1.3,0.9-1.3-0.5-1.8-1C144.8,136.9,144.3,136.8,143.9,137L143.9,137z M145.4,147.9c0.3,1.7,2.8,2.5,1.6,4.9
					C145,151.7,145.2,149.8,145.4,147.9z M146.7,173.3c1.4-0.3,2.3-0.5,3.2-0.1C149,173.7,148.2,173.4,146.7,173.3z M150.6,175
					c0.6-0.3,1.2-0.3,1.9,0.1C151.7,175.2,151.1,175.4,150.6,175z M152.8,152.3c-0.2-0.2-0.5-0.5-0.5-0.8c0-0.4,0.3-0.6,0.7-0.5
					c0.4,0.1,0.6,0.4,0.5,0.8C153.4,152.1,153.2,152.2,152.8,152.3L152.8,152.3z M154.8,150.8c-0.4-0.2-0.4-0.4-0.4-0.7
					c0-0.3,0.2-0.5,0.5-0.5c0.3,0.1,0.5,0.3,0.4,0.6C155.2,150.5,154.9,150.7,154.8,150.8z M156.7,152.7c-0.8,0-0.5-0.6-0.6-0.9
					c-0.2-0.9,0.4-1.3,1.1-1.5c0.1-0.1,1.1,0.2,1,0.7C158,151.7,157.4,152.2,156.7,152.7L156.7,152.7z M158.7,145.3
					c-0.9,0.6-1.3,1.4-1.9,3c-0.1-1.4-0.3-2-1.3-1.8c-0.9,0.2-1.8,0.4-2.5,1.1c-0.3,0.3-0.7,0.3-1,0.1c-0.4-0.4,0-0.7,0.3-0.9
					c1.6-1,2.6-2.4,3.6-4c0.6-1.1,1.6-0.8,2.5,0.1C159.2,143.7,159.8,144.6,158.7,145.3L158.7,145.3z M165.5,149.7
					c-0.3,0.4-0.6,0.5-1.1,0.1c-0.7-0.5-1.4-1-2.3-1.6c-0.4,1.4-0.9,2.6-1.1,3.9c-0.1,0.8-0.8,1-1.2,1c-0.8,0-0.4-0.8-0.4-1.2
					c0.3-1.7,0.2-3.4,2.3-4.4c2.1-1,2.8,0.4,3.9,1.4C165.9,149,165.8,149.4,165.5,149.7L165.5,149.7z M166.3,147c-0.1,0-0.1,0-0.2,0
					c-0.5-0.2-1.2,0.4-1.5-0.4c-0.1-0.2,0-0.8,0.1-0.8c0.7-0.2,1.1,0.3,1.6,0.8c1.1,0,2.3-0.2,3.3,0.6
					C168.3,148.9,167.4,148.8,166.3,147L166.3,147z M168.3,156.1c-0.3,0.1-0.6-0.3-0.8-0.3c0.3-0.9,0.5-1.3,1-1.3
					c0.4,0,0.4,0.3,0.4,0.6C168.9,155.6,168.6,156,168.3,156.1z M169.8,160.2c-0.3-0.9-1.4-1.5-0.6-2.5c0.2-0.2,0.8-0.2,0.9,0.1
					C170.4,158.6,171.3,159.4,169.8,160.2L169.8,160.2z M171.1,135.5c0,0.3-0.3,0.5-0.6,0.4c-0.8-0.4-1.5-0.9-1-2
					C170.2,134.2,171.2,134.3,171.1,135.5z M170.7,53.8c0-0.2-0.2-0.7,0.3-0.5c0.5,0.2,1.1,0.3,1.3,1c0.1,0.5-0.2,0.6-0.5,0.9
					C171.2,54.8,170.7,54.5,170.7,53.8z M172,136.4c0.3-1,1.2-1.3,2-1.6c0.2-0.1,0.7,0.4,0.5,0.8c-0.4,0.9-1.2,1.4-2,1.9
					C172.1,137.3,171.9,136.9,172,136.4z M172.9,153.7c-0.1-0.7,0.6-0.7,1-0.8c0.6-0.2,0.8,0.3,0.8,0.9c0,0.6-0.3,1.1-0.8,1
					C173.3,154.8,172.9,154.4,172.9,153.7L172.9,153.7z M174.6,146.7c0.9,0.9,1.6,1.3,2,2.7C175.3,148.9,174.4,148.5,174.6,146.7z
					 M174.4,156.8l0.5-0.9c0.4,0.5,1.1,0.8,1.1,1.6c0,0.3-0.1,0.6-0.5,0.5C174.9,157.8,174.5,157.4,174.4,156.8L174.4,156.8z
					 M175.6,167c0.6-0.3,1.3-0.4,1.9,0C177,167.4,176.2,167.4,175.6,167z M177.6,151.7c-0.5-0.2-0.4-0.6-0.4-0.9
					c0-0.2,0.2-0.3,0.2-0.5c0.2,0.3,0.5,0.5,0.6,0.8C178.1,151.2,177.8,151.5,177.6,151.7L177.6,151.7z M176.8,141.2
					c-0.4-0.3-0.9-0.5-1.4-0.4c-0.7,0.2-1.8,1.1-1.4-0.8c0.1-0.5-0.7-0.5-1.3-0.5c-0.4,0-1-0.1-0.7-0.7c0.2-0.4,0.5-0.5,1.1-0.4
					c1.5,0.3,2.3,1.6,3.6,2c0.3-0.5,0.6-1.1,1-1.6c0.5-0.6,1.1-0.6,1.8-0.2c0.7,0.4,1.3,0.8,1,1.7c-0.4,1.1-0.7,2.3-1.6,3.3
					C178.1,142.8,177.4,142.1,176.8,141.2L176.8,141.2z M180.3,153.2c0-0.5,0.4-1,0.9-0.9c0.7,0.1,1.6,0.5,1.6,1.4c0,0.7-1,1-1.4,1
					C181,154.7,180.3,154.1,180.3,153.2L180.3,153.2z M182.8,179.5c-0.3-0.7-1.1-1.2-0.5-2c0.5-0.7,1.2-0.6,2.1-0.3
					C183.9,178.1,183.6,178.9,182.8,179.5L182.8,179.5z M184,136.3c0.1-1,1.4-0.8,1.8-1.6l1.2,1c-0.2,1-1.1,1.1-1.8,1.4
					C184.6,137.4,183.9,136.9,184,136.3L184,136.3z M186.5,111c0-0.5,0.3-0.6,0.7-0.6c0.5,0,0.6,0.3,0.6,0.7c0,0.5-0.3,0.6-0.7,0.5
					C186.7,111.7,186.5,111.4,186.5,111L186.5,111z M187.2,164.5c-0.5,0.2-0.6-0.1-0.7-0.5c0-0.4,0.2-0.7,0.6-0.7
					c0.3,0,0.6,0,0.7,0.5C187.7,164,187.5,164.4,187.2,164.5z M188.1,89.5c-0.9-0.7-1.7-1.6-2-2.6c-0.3-1,1.1-1.3,1.6-1.4
					c1.2-0.2,1.6,1.1,1.9,1.9C189.9,88.5,188.8,88.8,188.1,89.5z M189.2,65.9c0-0.5,0.5-0.4,0.8-0.4c0.3,0,0.8-0.2,0.9,0.4
					c0,0.5-0.5,0.7-0.9,0.9C189.5,66.6,189.2,66.3,189.2,65.9z M190.5,116.7c0-0.6,0.4-1,0.9-1c0.5,0,0.3,0.5,0.4,0.9
					c0,0.5-0.1,0.9-0.7,0.8C190.6,117.4,190.4,117.1,190.5,116.7z M191.6,123.8c-0.3-0.5-0.4-1.1,0-1.8
					C191.9,122.7,191.9,123.3,191.6,123.8z M191.8,106.5c-0.1-0.9,0.8-0.8,1.3-1.2c0.4-0.3,0.7,0.3,0.7,0.5c0.1,0.8-0.6,1-1.1,1.5
					C192.3,107.2,191.9,106.9,191.8,106.5L191.8,106.5z M193.2,119.3c-0.6-0.4-1-1-0.9-1.7c0.2-1.1,0.9-2,1.8-2.7
					c0.1,0,0.6,0.4,0.6,0.4c-0.3,1.2,0.3,2.6-0.9,3.5C193.6,119,193.4,119.1,193.2,119.3L193.2,119.3z M195.3,123.1
					c-0.5,0.1-0.8-0.2-0.8-0.7c0.1-0.2,0-0.6,0.4-0.4c0.3,0.2,0.7,0.3,0.9,0.5C195.8,122.8,195.6,123.1,195.3,123.1L195.3,123.1z
					 M198.2,49.5c-0.7-0.7-1.1-1.4-0.4-2.1c0.3-0.4,1.1,0,1.3,0.4C199.5,48.7,198.5,49,198.2,49.5z M199,8c-0.2-0.3-0.7-0.4-0.5-0.8
					c0.1-0.3,0.4-0.6,0.6-1c0.2,0.5,0.5,0.8,0.5,1.1C199.6,7.5,199.2,7.8,199,8z M200.7,106.5c-0.4-0.1-0.6-0.6-0.6-1.2
					c0-0.2,0-0.7,0.5-0.6c0.4,0.1,0.8,0.5,0.8,0.9C201.5,106.1,201.2,106.6,200.7,106.5L200.7,106.5z M202.5,131.9
					c-0.1,0.1-0.6,0.1-0.8-0.1c-0.6-0.6-0.1-1,0.6-1.8C202,130.9,203.3,131.2,202.5,131.9z M203.6,122.5c-1.6-1.5,0.1-1.9,0.7-2.8
					C204.8,120.8,204.3,121.6,203.6,122.5z M203.6,113c-0.5,0.1-0.9-0.2-0.8-0.8c0.1-0.9,0.8-0.9,1.5-1c0.4,0,0.7,0,0.7,0.6
					C204.8,112.5,204.2,112.9,203.6,113L203.6,113z M205.7,115.3c1.5-1.3,2.1,1,3.3,1.2c-0.9,0.3-1.6,2-2.7,0.6
					C205.8,116.6,205,115.8,205.7,115.3L205.7,115.3z M206.9,119.7c-0.3,0-0.6-0.1-0.6-0.5c0-0.4,0.3-0.5,0.6-0.5
					c0.3,0,0.6,0.1,0.6,0.5C207.5,119.6,207.2,119.6,206.9,119.7L206.9,119.7z M209.6,131.9c-0.4-1-0.3-1.8,0-2.8
					C209.9,130.1,210,131,209.6,131.9z M209.4,119.6c-0.5,0-0.7-0.5-0.8-0.9c-0.1-0.5,0.3-0.8,0.7-0.9c0.6-0.1,0.7,0.4,0.8,0.8
					C210.1,119.1,209.9,119.5,209.4,119.6L209.4,119.6z M210,85.2c-0.6-0.6-1.2-1-1.7-1.6c-0.1-0.1,0.2-1,0.9-0.8
					c0.7,0.2,1.3,0.6,1.4,1.4C210.7,84.7,210.4,84.9,210,85.2L210,85.2z M213.3,114.8c-0.6-0.7-1.1-1.3-0.9-2.2
					c0.1-0.6,0.6-1.3,1.2-1.1c0.8,0.3,1.2,1.1,0.9,1.9C214.4,114.1,213.9,114.6,213.3,114.8z M216.4,139.3c-0.9-0.3-1.6-0.9-1.8-1.9
					c-0.1-0.5,0.3-0.7,0.7-0.6c0.9,0.2,1.2,1.1,1.8,1.6C217,138.9,216.8,139.4,216.4,139.3L216.4,139.3z M218.4,135.2
					c-0.3,0.7-0.9,1.2-1.3,1.8c-0.8-0.3-0.8-0.9-0.6-1.3c0.3-0.6,0.8-1.2,1.1-1.7C217.9,134.3,218.7,134.6,218.4,135.2L218.4,135.2z
					"/>
			</g>
		</g>
	</g>
	<g transform="rotate(0 15 104.3297)">
		<g transform="matrix(1 0 0 1 0 0)">
			<path class="st1" d="M16.7,115.5h6.9v1.5H15V105h8.4v1.5h-6.7v3.7h6v1.4h-6V115.5z M34.1,107.9h1.6l-3.9,9H30l-3.9-9h1.7l3.1,7.2
				L34.1,107.9z M46.8,112.5c0,0.1,0,0.3,0,0.5l0,0h-7.3c0.1,0.8,0.5,1.4,1,1.9s1.3,0.7,2.2,0.7l0,0c1.1,0,1.9-0.4,2.6-1.1l0,0
				l0.9,1.1c-0.4,0.5-0.9,0.8-1.5,1.1s-1.3,0.4-2,0.4l0,0c-1,0-1.8-0.2-2.5-0.6s-1.3-0.9-1.7-1.6c-0.4-0.7-0.6-1.5-0.6-2.4l0,0
				c0-0.9,0.2-1.7,0.6-2.4c0.4-0.7,0.9-1.2,1.6-1.6c0.7-0.4,1.5-0.6,2.3-0.6l0,0c0.9,0,1.6,0.2,2.3,0.6s1.2,0.9,1.6,1.6
				C46.6,110.8,46.8,111.6,46.8,112.5L46.8,112.5z M42.3,109.2c-0.8,0-1.4,0.2-2,0.7c-0.5,0.5-0.8,1.1-0.9,1.9l0,0h5.8
				c-0.1-0.8-0.4-1.4-0.9-1.9C43.7,109.5,43.1,109.2,42.3,109.2L42.3,109.2z M52.3,109.4c0.3-0.5,0.7-0.9,1.3-1.2
				c0.6-0.3,1.2-0.4,2-0.4l0,0v1.6c-0.1,0-0.2,0-0.4,0l0,0c-0.9,0-1.6,0.3-2.1,0.8c-0.5,0.5-0.8,1.3-0.8,2.3l0,0v4.5h-1.6v-9h1.6
				V109.4z M66,107.9h1.6l-4.4,9.9c-0.4,0.9-0.8,1.6-1.4,1.9c-0.5,0.4-1.1,0.6-1.9,0.6l0,0c-0.4,0-0.9-0.1-1.3-0.2
				c-0.4-0.1-0.8-0.3-1-0.6l0,0l0.7-1.2c0.5,0.4,1,0.7,1.6,0.7l0,0c0.4,0,0.7-0.1,1-0.3c0.3-0.2,0.5-0.6,0.7-1.1l0,0l0.3-0.6l-4-9
				h1.7l3.1,7.2L66,107.9z M79.7,116.9v-10.4h-4.1V105h9.8v1.5h-4.1v10.4H79.7z M91.7,117c-0.9,0-1.7-0.2-2.4-0.6s-1.3-0.9-1.7-1.6
				c-0.4-0.7-0.6-1.5-0.6-2.4l0,0c0-0.9,0.2-1.7,0.6-2.4c0.4-0.7,1-1.2,1.7-1.6s1.5-0.6,2.4-0.6l0,0c0.9,0,1.7,0.2,2.4,0.6
				s1.3,0.9,1.7,1.6c0.4,0.7,0.6,1.5,0.6,2.4l0,0c0,0.9-0.2,1.7-0.6,2.4c-0.4,0.7-1,1.2-1.7,1.6S92.6,117,91.7,117L91.7,117z
				 M91.7,115.6c0.6,0,1.1-0.1,1.6-0.4c0.5-0.3,0.8-0.6,1.1-1.1s0.4-1,0.4-1.7l0,0c0-0.6-0.1-1.2-0.4-1.7s-0.6-0.9-1.1-1.1
				c-0.5-0.3-1-0.4-1.6-0.4l0,0c-0.6,0-1.1,0.1-1.6,0.4c-0.5,0.3-0.8,0.6-1.1,1.1c-0.3,0.5-0.4,1-0.4,1.7l0,0c0,0.6,0.1,1.2,0.4,1.7
				c0.3,0.5,0.6,0.9,1.1,1.1C90.6,115.5,91.1,115.6,91.7,115.6L91.7,115.6z M104.2,117c-0.9,0-1.7-0.2-2.4-0.6s-1.3-0.9-1.7-1.6
				c-0.4-0.7-0.6-1.5-0.6-2.4l0,0c0-0.9,0.2-1.7,0.6-2.4c0.4-0.7,1-1.2,1.7-1.6s1.5-0.6,2.4-0.6l0,0c0.9,0,1.7,0.2,2.4,0.6
				s1.3,0.9,1.7,1.6c0.4,0.7,0.6,1.5,0.6,2.4l0,0c0,0.9-0.2,1.7-0.6,2.4c-0.4,0.7-1,1.2-1.7,1.6S105.1,117,104.2,117L104.2,117z
				 M104.2,115.6c0.6,0,1.1-0.1,1.6-0.4s0.8-0.6,1.1-1.1c0.3-0.5,0.4-1,0.4-1.7l0,0c0-0.6-0.1-1.2-0.4-1.7c-0.3-0.5-0.6-0.9-1.1-1.1
				s-1-0.4-1.6-0.4l0,0c-0.6,0-1.1,0.1-1.6,0.4s-0.8,0.6-1.1,1.1c-0.3,0.5-0.4,1-0.4,1.7l0,0c0,0.6,0.1,1.2,0.4,1.7
				c0.3,0.5,0.6,0.9,1.1,1.1S103.6,115.6,104.2,115.6L104.2,115.6z M112.8,116.9v-12.6h1.6v12.6H112.8z M124,107.8
				c0.9,0,1.7,0.2,2.3,0.6c0.7,0.4,1.2,0.9,1.6,1.6s0.6,1.5,0.6,2.4l0,0c0,0.9-0.2,1.7-0.6,2.4s-0.9,1.2-1.6,1.6
				c-0.7,0.4-1.5,0.6-2.3,0.6l0,0c-0.7,0-1.3-0.1-1.8-0.4c-0.6-0.3-1-0.6-1.4-1.1l0,0v1.4h-1.6v-12.6h1.6v5c0.4-0.5,0.8-0.8,1.4-1.1
				S123.4,107.8,124,107.8L124,107.8z M123.9,115.6c0.6,0,1.1-0.1,1.6-0.4c0.5-0.3,0.8-0.6,1.1-1.1s0.4-1,0.4-1.7l0,0
				c0-0.6-0.1-1.2-0.4-1.7s-0.6-0.9-1.1-1.1c-0.5-0.3-1-0.4-1.6-0.4l0,0c-0.6,0-1.1,0.1-1.5,0.4c-0.5,0.3-0.8,0.6-1.1,1.1
				c-0.3,0.5-0.4,1-0.4,1.7l0,0c0,0.6,0.1,1.2,0.4,1.7c0.3,0.5,0.6,0.9,1.1,1.1C122.8,115.5,123.3,115.6,123.9,115.6L123.9,115.6z
				 M136.4,117c-0.9,0-1.7-0.2-2.4-0.6s-1.3-0.9-1.7-1.6c-0.4-0.7-0.6-1.5-0.6-2.4l0,0c0-0.9,0.2-1.7,0.6-2.4c0.4-0.7,1-1.2,1.7-1.6
				s1.5-0.6,2.4-0.6l0,0c0.9,0,1.7,0.2,2.4,0.6c0.7,0.4,1.3,0.9,1.7,1.6c0.4,0.7,0.6,1.5,0.6,2.4l0,0c0,0.9-0.2,1.7-0.6,2.4
				c-0.4,0.7-1,1.2-1.7,1.6C138.1,116.8,137.3,117,136.4,117L136.4,117z M136.4,115.6c0.6,0,1.1-0.1,1.6-0.4
				c0.5-0.3,0.8-0.6,1.1-1.1c0.3-0.5,0.4-1,0.4-1.7l0,0c0-0.6-0.1-1.2-0.4-1.7c-0.3-0.5-0.6-0.9-1.1-1.1c-0.5-0.3-1-0.4-1.6-0.4l0,0
				c-0.6,0-1.1,0.1-1.6,0.4s-0.8,0.6-1.1,1.1s-0.4,1-0.4,1.7l0,0c0,0.6,0.1,1.2,0.4,1.7s0.6,0.9,1.1,1.1S135.8,115.6,136.4,115.6
				L136.4,115.6z M152.3,116.9h-1.9l-2.6-3.4l-2.6,3.4h-1.8l3.5-4.6l-3.4-4.4h1.8l2.5,3.2l2.5-3.2h1.8l-3.4,4.4L152.3,116.9z
				 M170.8,105h1.7v11.9h-1.4l-7.1-8.9v8.9h-1.7V105h1.4l7.1,8.9V105z M185.7,112.5c0,0.1,0,0.3,0,0.5l0,0h-7.3
				c0.1,0.8,0.5,1.4,1,1.9c0.6,0.5,1.3,0.7,2.2,0.7l0,0c1.1,0,1.9-0.4,2.6-1.1l0,0l0.9,1.1c-0.4,0.5-0.9,0.8-1.5,1.1
				c-0.6,0.2-1.3,0.4-2,0.4l0,0c-1,0-1.8-0.2-2.5-0.6c-0.7-0.4-1.3-0.9-1.7-1.6c-0.4-0.7-0.6-1.5-0.6-2.4l0,0c0-0.9,0.2-1.7,0.6-2.4
				c0.4-0.7,0.9-1.2,1.6-1.6s1.5-0.6,2.3-0.6l0,0c0.9,0,1.6,0.2,2.3,0.6c0.7,0.4,1.2,0.9,1.6,1.6
				C185.5,110.8,185.7,111.6,185.7,112.5L185.7,112.5z M181.2,109.2c-0.8,0-1.4,0.2-2,0.7c-0.5,0.5-0.8,1.1-0.9,1.9l0,0h5.8
				c-0.1-0.8-0.4-1.4-0.9-1.9C182.7,109.5,182,109.2,181.2,109.2L181.2,109.2z M197.8,112.5c0,0.1,0,0.3,0,0.5l0,0h-7.3
				c0.1,0.8,0.5,1.4,1,1.9s1.3,0.7,2.2,0.7l0,0c1.1,0,1.9-0.4,2.6-1.1l0,0l0.9,1.1c-0.4,0.5-0.9,0.8-1.5,1.1c-0.6,0.2-1.3,0.4-2,0.4
				l0,0c-1,0-1.8-0.2-2.5-0.6s-1.3-0.9-1.7-1.6c-0.4-0.7-0.6-1.5-0.6-2.4l0,0c0-0.9,0.2-1.7,0.6-2.4c0.4-0.7,0.9-1.2,1.6-1.6
				c0.7-0.4,1.5-0.6,2.3-0.6l0,0c0.9,0,1.6,0.2,2.3,0.6s1.2,0.9,1.6,1.6C197.6,110.8,197.8,111.6,197.8,112.5L197.8,112.5z
				 M193.3,109.2c-0.8,0-1.4,0.2-2,0.7c-0.5,0.5-0.8,1.1-0.9,1.9l0,0h5.8c-0.1-0.8-0.4-1.4-0.9-1.9
				C194.8,109.5,194.1,109.2,193.3,109.2L193.3,109.2z M208.6,104.3h1.6v12.6h-1.6v-1.4c-0.4,0.5-0.8,0.9-1.4,1.1
				c-0.6,0.3-1.2,0.4-1.8,0.4l0,0c-0.9,0-1.7-0.2-2.3-0.6c-0.7-0.4-1.2-0.9-1.6-1.6c-0.4-0.7-0.6-1.5-0.6-2.4l0,0
				c0-0.9,0.2-1.7,0.6-2.4c0.4-0.7,0.9-1.2,1.6-1.6c0.7-0.4,1.5-0.6,2.3-0.6l0,0c0.6,0,1.2,0.1,1.8,0.4s1,0.6,1.4,1.1l0,0V104.3z
				 M205.6,115.6c0.6,0,1.1-0.1,1.5-0.4c0.5-0.3,0.8-0.6,1.1-1.1c0.3-0.5,0.4-1,0.4-1.7l0,0c0-0.6-0.1-1.2-0.4-1.7
				c-0.3-0.5-0.6-0.9-1.1-1.1c-0.5-0.3-1-0.4-1.5-0.4l0,0c-0.6,0-1.1,0.1-1.6,0.4c-0.5,0.3-0.8,0.6-1.1,1.1c-0.3,0.5-0.4,1-0.4,1.7
				l0,0c0,0.6,0.1,1.2,0.4,1.7c0.3,0.5,0.6,0.9,1.1,1.1C204.5,115.5,205,115.6,205.6,115.6L205.6,115.6z M217.6,117
				c-0.7,0-1.4-0.1-2.1-0.3c-0.7-0.2-1.2-0.5-1.6-0.8l0,0l0.7-1.3c0.4,0.3,0.9,0.5,1.4,0.7c0.6,0.2,1.1,0.3,1.7,0.3l0,0
				c1.4,0,2.1-0.4,2.1-1.2l0,0c0-0.3-0.1-0.5-0.3-0.6c-0.2-0.2-0.4-0.3-0.7-0.3c-0.3-0.1-0.7-0.2-1.2-0.2l0,0
				c-0.7-0.1-1.3-0.2-1.8-0.4c-0.5-0.1-0.9-0.4-1.2-0.7c-0.3-0.4-0.5-0.8-0.5-1.5l0,0c0-0.8,0.3-1.5,1-2c0.7-0.5,1.6-0.7,2.7-0.7
				l0,0c0.6,0,1.2,0.1,1.8,0.2s1.1,0.3,1.5,0.6l0,0l-0.7,1.3c-0.7-0.5-1.6-0.7-2.6-0.7l0,0c-0.7,0-1.2,0.1-1.6,0.3
				c-0.4,0.2-0.5,0.5-0.5,0.9l0,0c0,0.3,0.1,0.5,0.3,0.7c0.2,0.2,0.5,0.3,0.8,0.4c0.3,0.1,0.7,0.2,1.3,0.3l0,0
				c0.7,0.1,1.3,0.3,1.8,0.4c0.4,0.1,0.8,0.4,1.1,0.7c0.3,0.3,0.5,0.8,0.5,1.4l0,0c0,0.8-0.3,1.5-1,1.9
				C219.7,116.8,218.8,117,217.6,117L217.6,117z M234.8,107.8c1.2,0,2.2,0.3,2.9,0.9c0.7,0.6,1,1.5,1,2.7l0,0v5.4h-1.5v-1.2
				c-0.3,0.4-0.7,0.7-1.2,1c-0.5,0.2-1.1,0.3-1.8,0.3l0,0c-1,0-1.8-0.2-2.4-0.7c-0.6-0.5-0.9-1.1-0.9-1.9l0,0c0-0.8,0.3-1.4,0.9-1.9
				c0.6-0.5,1.5-0.7,2.8-0.7l0,0h2.6v-0.3c0-0.7-0.2-1.2-0.6-1.6s-1-0.6-1.8-0.6l0,0c-0.5,0-1.1,0.1-1.6,0.3
				c-0.5,0.2-0.9,0.4-1.3,0.7l0,0L231,109c0.5-0.4,1-0.7,1.7-0.9C233.3,107.9,234,107.8,234.8,107.8L234.8,107.8z M234.4,115.8
				c0.6,0,1.2-0.1,1.6-0.4c0.5-0.3,0.8-0.7,1-1.2l0,0v-1.3h-2.5c-1.4,0-2.1,0.5-2.1,1.4l0,0c0,0.5,0.2,0.8,0.5,1.1
				C233.3,115.6,233.8,115.8,234.4,115.8L234.4,115.8z M258.4,105h1.7v11.9h-1.7v-5.3h-6.8v5.3h-1.7V105h1.7v5.1h6.8V105z
				 M268.4,107.8c1.2,0,2.2,0.3,2.9,0.9c0.7,0.6,1,1.5,1,2.7l0,0v5.4h-1.5v-1.2c-0.3,0.4-0.7,0.7-1.2,1c-0.5,0.2-1.1,0.3-1.8,0.3
				l0,0c-1,0-1.8-0.2-2.4-0.7c-0.6-0.5-0.9-1.1-0.9-1.9l0,0c0-0.8,0.3-1.4,0.9-1.9c0.6-0.5,1.5-0.7,2.8-0.7l0,0h2.6v-0.3
				c0-0.7-0.2-1.2-0.6-1.6c-0.4-0.4-1-0.6-1.8-0.6l0,0c-0.5,0-1.1,0.1-1.6,0.3c-0.5,0.2-0.9,0.4-1.3,0.7l0,0l-0.7-1.2
				c0.5-0.4,1-0.7,1.7-0.9C267,107.9,267.6,107.8,268.4,107.8L268.4,107.8z M268,115.8c0.6,0,1.2-0.1,1.6-0.4c0.5-0.3,0.8-0.7,1-1.2
				l0,0v-1.3h-2.5c-1.4,0-2.1,0.5-2.1,1.4l0,0c0,0.5,0.2,0.8,0.5,1.1S267.4,115.8,268,115.8L268,115.8z M288.2,107.8
				c1.1,0,2,0.3,2.7,1c0.7,0.7,1,1.6,1,2.9l0,0v5.2h-1.6v-5c0-0.9-0.2-1.5-0.6-2c-0.4-0.4-1-0.7-1.7-0.7l0,0c-0.8,0-1.5,0.3-2,0.8
				c-0.5,0.5-0.7,1.3-0.7,2.2l0,0v4.6h-1.6v-5c0-0.9-0.2-1.5-0.6-2c-0.4-0.4-1-0.7-1.7-0.7l0,0c-0.8,0-1.5,0.3-2,0.8
				c-0.5,0.5-0.7,1.3-0.7,2.2l0,0v4.6H277v-9h1.6v1.3c0.3-0.5,0.8-0.8,1.3-1.1c0.5-0.2,1.1-0.4,1.8-0.4l0,0c0.7,0,1.3,0.1,1.9,0.4
				c0.5,0.3,1,0.7,1.3,1.2l0,0c0.3-0.5,0.8-0.9,1.4-1.2C286.8,108,287.5,107.8,288.2,107.8L288.2,107.8z M307.9,107.8
				c1.1,0,2,0.3,2.7,1c0.7,0.7,1,1.6,1,2.9l0,0v5.2h-1.6v-5c0-0.9-0.2-1.5-0.6-2c-0.4-0.4-1-0.7-1.7-0.7l0,0c-0.8,0-1.5,0.3-2,0.8
				c-0.5,0.5-0.7,1.3-0.7,2.2l0,0v4.6h-1.6v-5c0-0.9-0.2-1.5-0.6-2c-0.4-0.4-1-0.7-1.7-0.7l0,0c-0.8,0-1.5,0.3-2,0.8
				c-0.5,0.5-0.7,1.3-0.7,2.2l0,0v4.6h-1.6v-9h1.6v1.3c0.3-0.5,0.8-0.8,1.3-1.1c0.5-0.2,1.1-0.4,1.8-0.4l0,0c0.7,0,1.3,0.1,1.9,0.4
				c0.5,0.3,1,0.7,1.3,1.2l0,0c0.3-0.5,0.8-0.9,1.4-1.2C306.4,108,307.1,107.8,307.9,107.8L307.9,107.8z M324.4,112.5
				c0,0.1,0,0.3,0,0.5l0,0h-7.3c0.1,0.8,0.5,1.4,1,1.9c0.6,0.5,1.3,0.7,2.2,0.7l0,0c1.1,0,1.9-0.4,2.6-1.1l0,0l0.9,1.1
				c-0.4,0.5-0.9,0.8-1.5,1.1c-0.6,0.2-1.3,0.4-2,0.4l0,0c-1,0-1.8-0.2-2.5-0.6s-1.3-0.9-1.7-1.6c-0.4-0.7-0.6-1.5-0.6-2.4l0,0
				c0-0.9,0.2-1.7,0.6-2.4c0.4-0.7,0.9-1.2,1.6-1.6c0.7-0.4,1.5-0.6,2.3-0.6l0,0c0.9,0,1.6,0.2,2.3,0.6c0.7,0.4,1.2,0.9,1.6,1.6
				C324.3,110.8,324.4,111.6,324.4,112.5L324.4,112.5z M320,109.2c-0.8,0-1.4,0.2-2,0.7c-0.5,0.5-0.8,1.1-0.9,1.9l0,0h5.8
				c-0.1-0.8-0.4-1.4-0.9-1.9C321.4,109.5,320.8,109.2,320,109.2L320,109.2z M330,109.4c0.3-0.5,0.7-0.9,1.3-1.2
				c0.6-0.3,1.2-0.4,2-0.4l0,0v1.6c-0.1,0-0.2,0-0.4,0l0,0c-0.9,0-1.6,0.3-2.1,0.8c-0.5,0.5-0.8,1.3-0.8,2.3l0,0v4.5h-1.6v-9h1.6
				V109.4z M343.6,120.2v-15.9h1.5v15.9H343.6z M360.1,117.1c-0.9,0-1.8-0.1-2.6-0.4c-0.8-0.3-1.5-0.6-2-1.1l0,0l0.6-1.3
				c0.5,0.4,1,0.7,1.7,1c0.7,0.3,1.4,0.4,2.2,0.4l0,0c1,0,1.7-0.2,2.2-0.5c0.5-0.3,0.7-0.8,0.7-1.3l0,0c0-0.4-0.1-0.7-0.4-1
				s-0.6-0.5-1-0.6c-0.4-0.1-0.9-0.3-1.7-0.5l0,0c-0.9-0.2-1.6-0.4-2.2-0.6c-0.5-0.2-1-0.5-1.4-1c-0.4-0.4-0.6-1.1-0.6-1.8l0,0
				c0-0.6,0.2-1.2,0.5-1.7c0.3-0.5,0.8-0.9,1.5-1.2c0.7-0.3,1.5-0.5,2.5-0.5l0,0c0.7,0,1.4,0.1,2.1,0.3c0.7,0.2,1.3,0.4,1.7,0.8l0,0
				l-0.6,1.4c-0.5-0.3-1-0.6-1.6-0.7c-0.6-0.2-1.1-0.2-1.7-0.2l0,0c-1,0-1.7,0.2-2.2,0.5c-0.5,0.4-0.7,0.8-0.7,1.4l0,0
				c0,0.4,0.1,0.7,0.4,1c0.3,0.3,0.6,0.5,1,0.6c0.4,0.1,0.9,0.3,1.6,0.5l0,0c0.9,0.2,1.6,0.4,2.2,0.6c0.5,0.2,1,0.5,1.4,1
				c0.4,0.4,0.6,1,0.6,1.8l0,0c0,0.6-0.2,1.2-0.5,1.7c-0.3,0.5-0.9,0.9-1.5,1.2C361.9,116.9,361.1,117.1,360.1,117.1L360.1,117.1z
				 M373.2,115.2l0.5,1.2c-0.2,0.2-0.5,0.4-0.9,0.5c-0.4,0.1-0.7,0.2-1.1,0.2l0,0c-0.9,0-1.6-0.2-2.1-0.7s-0.7-1.2-0.7-2.1l0,0v-4.9
				h-1.5v-1.3h1.5v-2h1.6v2h2.6v1.3h-2.6v4.9c0,0.5,0.1,0.9,0.4,1.1c0.2,0.3,0.6,0.4,1,0.4l0,0C372.4,115.7,372.8,115.5,373.2,115.2
				L373.2,115.2z M380.9,117c-0.9,0-1.7-0.2-2.4-0.6c-0.7-0.4-1.3-0.9-1.7-1.6c-0.4-0.7-0.6-1.5-0.6-2.4l0,0c0-0.9,0.2-1.7,0.6-2.4
				c0.4-0.7,1-1.2,1.7-1.6c0.7-0.4,1.5-0.6,2.4-0.6l0,0c0.9,0,1.7,0.2,2.4,0.6c0.7,0.4,1.3,0.9,1.7,1.6c0.4,0.7,0.6,1.5,0.6,2.4l0,0
				c0,0.9-0.2,1.7-0.6,2.4c-0.4,0.7-1,1.2-1.7,1.6C382.6,116.8,381.8,117,380.9,117L380.9,117z M380.9,115.6c0.6,0,1.1-0.1,1.6-0.4
				c0.5-0.3,0.8-0.6,1.1-1.1s0.4-1,0.4-1.7l0,0c0-0.6-0.1-1.2-0.4-1.7s-0.6-0.9-1.1-1.1c-0.5-0.3-1-0.4-1.6-0.4l0,0
				c-0.6,0-1.1,0.1-1.6,0.4s-0.8,0.6-1.1,1.1s-0.4,1-0.4,1.7l0,0c0,0.6,0.1,1.2,0.4,1.7s0.6,0.9,1.1,1.1S380.3,115.6,380.9,115.6
				L380.9,115.6z M394.3,107.8c0.9,0,1.7,0.2,2.3,0.6c0.7,0.4,1.2,0.9,1.6,1.6c0.4,0.7,0.6,1.5,0.6,2.4l0,0c0,0.9-0.2,1.7-0.6,2.4
				c-0.4,0.7-0.9,1.2-1.6,1.6c-0.7,0.4-1.5,0.6-2.3,0.6l0,0c-0.6,0-1.2-0.1-1.8-0.4s-1-0.6-1.4-1.1l0,0v4.7h-1.6v-12.3h1.6v1.4
				c0.4-0.5,0.8-0.9,1.4-1.1C393,108,393.6,107.8,394.3,107.8L394.3,107.8z M394.2,115.6c0.6,0,1.1-0.1,1.6-0.4s0.8-0.6,1.1-1.1
				c0.3-0.5,0.4-1,0.4-1.7l0,0c0-0.6-0.1-1.2-0.4-1.7c-0.3-0.5-0.6-0.9-1.1-1.1s-1-0.4-1.6-0.4l0,0c-0.6,0-1.1,0.1-1.5,0.4
				s-0.8,0.6-1.1,1.1c-0.3,0.5-0.4,1-0.4,1.6l0,0c0,0.6,0.1,1.2,0.4,1.7c0.3,0.5,0.6,0.9,1.1,1.1S393.6,115.6,394.2,115.6
				L394.2,115.6z M409.3,116.9V105h1.7v11.9H409.3z M420.6,115.2l0.5,1.2c-0.2,0.2-0.5,0.4-0.9,0.5c-0.4,0.1-0.7,0.2-1.1,0.2l0,0
				c-0.9,0-1.6-0.2-2.1-0.7c-0.5-0.5-0.7-1.2-0.7-2.1l0,0v-4.9h-1.5v-1.3h1.5v-2h1.6v2h2.6v1.3h-2.6v4.9c0,0.5,0.1,0.9,0.4,1.1
				c0.2,0.3,0.6,0.4,1,0.4l0,0C419.8,115.7,420.2,115.5,420.6,115.2L420.6,115.2z"/>
		</g>
	</g>
	<g transform="rotate(0 41.5533 64.3297)">
		<g transform="matrix(1 0 0 1 0 0)">
			<path class="st1" d="M47,84c-1.8,0-3.1-0.5-4-1.5c-0.9-1-1.4-2.5-1.4-4.5l0,0l3.4-0.6c0,1.2,0.2,2.1,0.5,2.7
				c0.3,0.6,0.8,0.9,1.4,0.9l0,0c0.5,0,0.8-0.1,1-0.4c0.2-0.3,0.3-0.7,0.3-1.1l0,0c0-0.8-0.2-1.4-0.5-1.9c-0.3-0.5-0.9-1.1-1.6-1.7
				l0,0L44,74c-0.8-0.7-1.4-1.4-1.8-2.1c-0.4-0.8-0.6-1.7-0.6-2.7l0,0c0-1.6,0.5-2.8,1.4-3.6c0.9-0.8,2.2-1.3,3.8-1.3l0,0
				c1.7,0,2.9,0.5,3.6,1.5c0.7,1,1.1,2.3,1.2,3.8l0,0l-3.4,0.5c0-1-0.1-1.8-0.3-2.2c-0.2-0.5-0.6-0.7-1.2-0.7l0,0
				c-0.4,0-0.8,0.2-1,0.5s-0.4,0.7-0.4,1.1l0,0c0,0.6,0.1,1.2,0.4,1.6s0.7,0.9,1.3,1.4l0,0l1.9,1.7c0.9,0.8,1.6,1.7,2.2,2.5
				s0.8,1.9,0.8,3.1l0,0c0,0.9-0.2,1.7-0.6,2.4c-0.4,0.7-1,1.3-1.7,1.7C48.8,83.8,47.9,84,47,84L47,84z M53.9,83.7V64.6h3.5v19.2
				H53.9z M64.3,84c-1.5,0-2.6-0.4-3.4-1.2c-0.8-0.8-1.2-1.9-1.2-3.4l0,0v-4.9c0-1.5,0.4-2.6,1.2-3.4c0.8-0.8,1.9-1.2,3.4-1.2l0,0
				c1.5,0,2.6,0.4,3.4,1.2c0.8,0.8,1.2,1.9,1.2,3.4l0,0v4.9c0,1.5-0.4,2.6-1.2,3.4C66.9,83.6,65.8,84,64.3,84L64.3,84z M64.3,81.5
				c0.4,0,0.7-0.2,0.8-0.5c0.1-0.3,0.2-0.8,0.2-1.5l0,0v-5.4c0-0.6-0.1-1.1-0.2-1.5c-0.1-0.3-0.4-0.5-0.8-0.5l0,0
				c-0.4,0-0.7,0.2-0.9,0.5c-0.2,0.3-0.2,0.8-0.2,1.5l0,0v5.4c0,0.6,0.1,1.1,0.2,1.4C63.6,81.4,63.9,81.5,64.3,81.5L64.3,81.5z
				 M72.4,83.7l-2-13.7h3l1.1,8.3l1.2-8.3h2.6l1.1,8.4l1.2-8.4h2.8l-2.1,13.7h-3.1l-1.3-8.1l-1.4,8.1H72.4z M91.3,83.7V64.6h3.9v7.9
				h3.4v-7.9h3.9v19.2h-3.9v-8.5h-3.4v8.5H91.3z M107.9,84c-0.6,0-1.2-0.2-1.7-0.5c-0.5-0.3-0.8-0.7-1.1-1.2c-0.2-0.5-0.4-1-0.4-1.6
				l0,0c0-1.1,0.3-1.9,0.8-2.6c0.5-0.7,1.1-1.2,1.9-1.6c0.7-0.4,1.7-0.8,2.9-1.2l0,0V74c0-0.5-0.1-0.9-0.2-1.1
				c-0.1-0.3-0.4-0.4-0.7-0.4l0,0c-0.3,0-0.6,0.1-0.7,0.3c-0.1,0.2-0.2,0.5-0.3,0.9l0,0l-0.1,0.9l-3.4-0.1c0.1-1.6,0.5-2.8,1.3-3.6
				s1.9-1.1,3.5-1.1l0,0c1.3,0,2.3,0.4,3,1.1c0.7,0.7,1,1.8,1,3.1l0,0v6.4c0,1.1,0.1,2.2,0.2,3.4l0,0h-3.2c-0.1-0.5-0.2-1.1-0.3-2
				l0,0c-0.2,0.6-0.5,1.2-1,1.6C109.2,83.7,108.6,84,107.9,84L107.9,84z M109.2,81.4c0.2,0,0.5-0.1,0.7-0.2c0.2-0.2,0.4-0.3,0.5-0.5
				l0,0v-3.8c-0.7,0.4-1.3,0.9-1.7,1.3c-0.4,0.5-0.6,1-0.6,1.7l0,0c0,0.5,0.1,0.9,0.3,1.1C108.6,81.3,108.9,81.4,109.2,81.4
				L109.2,81.4z M116.2,83.7V70.1h3.5v1.4c1.1-1.1,2.2-1.6,3.3-1.6l0,0c0.8,0,1.4,0.3,1.8,0.9s0.6,1.3,0.6,2.2l0,0v10.8h-3.6V73.5
				c0-0.4-0.1-0.7-0.2-0.8c-0.1-0.2-0.3-0.3-0.6-0.3l0,0c-0.4,0-0.8,0.2-1.3,0.6l0,0v10.8H116.2z M130.9,84c-2.1,0-3.2-1.5-3.2-4.5
				l0,0v-5c0-1.4,0.3-2.5,0.8-3.4c0.5-0.8,1.3-1.3,2.4-1.3l0,0c0.9,0,1.8,0.4,2.6,1.1l0,0v-6.3h3.6v19.2h-3.6v-1
				C132.6,83.5,131.8,84,130.9,84L130.9,84z M132.3,81.6c0.3,0,0.7-0.1,1.1-0.4l0,0v-8.7c-0.4-0.2-0.8-0.4-1.1-0.4l0,0
				c-0.4,0-0.7,0.2-0.8,0.5c-0.2,0.3-0.3,0.8-0.3,1.3l0,0v5.8C131.2,81,131.6,81.6,132.3,81.6L132.3,81.6z M145.6,83.7V64.6h3.9
				v16.5h4.5v2.6H145.6z M159.9,84c-1.5,0-2.6-0.4-3.4-1.2c-0.8-0.8-1.2-1.9-1.2-3.4l0,0v-4.9c0-1.5,0.4-2.6,1.2-3.4
				c0.8-0.8,1.9-1.2,3.4-1.2l0,0c1.5,0,2.6,0.4,3.4,1.2s1.2,1.9,1.2,3.4l0,0v4.9c0,1.5-0.4,2.6-1.2,3.4S161.4,84,159.9,84L159.9,84z
				 M160,81.5c0.4,0,0.7-0.2,0.8-0.5c0.1-0.3,0.2-0.8,0.2-1.5l0,0v-5.4c0-0.6-0.1-1.1-0.2-1.5c-0.1-0.3-0.4-0.5-0.8-0.5l0,0
				c-0.4,0-0.7,0.2-0.9,0.5c-0.2,0.3-0.2,0.8-0.2,1.5l0,0v5.4c0,0.6,0.1,1.1,0.2,1.4C159.3,81.4,159.5,81.5,160,81.5L160,81.5z
				 M171,88.3c-1.5,0-2.7-0.2-3.6-0.7c-0.9-0.5-1.3-1.1-1.3-2l0,0c0-1.2,0.7-2.1,2.1-2.7l0,0c-1.2-0.3-1.8-1-1.8-2l0,0
				c0-0.5,0.1-1,0.4-1.3s0.6-0.8,1.1-1.3l0,0c-0.5-0.4-0.8-0.9-1-1.5s-0.3-1.3-0.3-2.2l0,0c0-1.6,0.4-2.8,1.2-3.6
				c0.8-0.8,2-1.2,3.5-1.2l0,0c1.4,0,2.5,0.4,3.1,1.2l0,0c0.2-0.3,0.4-0.5,0.7-0.8c0.3-0.3,0.6-0.5,1-0.6l0,0l0.5-0.2l0.9,1.8
				c-0.2,0.1-0.6,0.2-1.1,0.4s-0.8,0.4-1.1,0.5l0,0c0.2,0.3,0.3,0.7,0.4,1.2c0.1,0.5,0.1,0.9,0.1,1.4l0,0c0,1.5-0.4,2.7-1.1,3.5
				c-0.7,0.8-1.9,1.2-3.4,1.2l0,0c-0.8,0-1.5-0.1-2.1-0.3l0,0c-0.3,0.3-0.4,0.6-0.4,0.9l0,0c0,0.2,0.1,0.3,0.3,0.4
				c0.2,0.1,0.5,0.2,1,0.2l0,0l3.3,0.4c2.2,0.3,3.4,1.4,3.4,3.5l0,0c0,1.3-0.4,2.3-1.3,2.9C174.4,88,173,88.3,171,88.3L171,88.3z
				 M171.2,77.2c0.5,0,0.8-0.2,0.9-0.6c0.2-0.4,0.2-1,0.2-2l0,0c0-1-0.1-1.7-0.2-2c-0.2-0.4-0.5-0.6-0.9-0.6l0,0
				c-0.5,0-0.8,0.2-1,0.6c-0.2,0.4-0.2,1.1-0.2,2l0,0c0,0.9,0.1,1.6,0.2,2C170.4,77,170.7,77.2,171.2,77.2L171.2,77.2z M171.4,85.7
				c0.9,0,1.6-0.1,2-0.2c0.4-0.2,0.7-0.5,0.7-0.9l0,0c0-0.4-0.1-0.6-0.4-0.8c-0.3-0.2-0.8-0.3-1.6-0.3l0,0l-2.5-0.3
				c-0.3,0.2-0.5,0.5-0.6,0.7s-0.2,0.4-0.2,0.7l0,0c0,0.4,0.2,0.7,0.6,0.9C169.8,85.6,170.5,85.7,171.4,85.7L171.4,85.7z M181,84
				c-0.6,0-1.2-0.2-1.7-0.5c-0.5-0.3-0.8-0.7-1.1-1.2c-0.2-0.5-0.4-1-0.4-1.6l0,0c0-1.1,0.3-1.9,0.8-2.6c0.5-0.7,1.1-1.2,1.9-1.6
				c0.7-0.4,1.7-0.8,2.9-1.2l0,0V74c0-0.5-0.1-0.9-0.2-1.1c-0.1-0.3-0.4-0.4-0.7-0.4l0,0c-0.3,0-0.6,0.1-0.7,0.3
				c-0.1,0.2-0.2,0.5-0.3,0.9l0,0l-0.1,0.9l-3.4-0.1c0.1-1.6,0.5-2.8,1.3-3.6c0.8-0.8,1.9-1.1,3.5-1.1l0,0c1.3,0,2.3,0.4,3,1.1
				c0.7,0.7,1,1.8,1,3.1l0,0v6.4c0,1.1,0.1,2.2,0.2,3.4l0,0H184c-0.1-0.5-0.2-1.1-0.3-2l0,0c-0.2,0.6-0.5,1.2-1,1.6
				C182.3,83.7,181.7,84,181,84L181,84z M182.3,81.4c0.2,0,0.5-0.1,0.7-0.2c0.2-0.2,0.4-0.3,0.5-0.5l0,0v-3.8
				c-0.7,0.4-1.3,0.9-1.7,1.3c-0.4,0.5-0.6,1-0.6,1.7l0,0c0,0.5,0.1,0.9,0.3,1.1C181.7,81.3,181.9,81.4,182.3,81.4L182.3,81.4z
				 M189.3,83.7V70.1h3.5v1.4c1.1-1.1,2.2-1.6,3.3-1.6l0,0c0.8,0,1.4,0.3,1.8,0.9c0.4,0.6,0.6,1.3,0.6,2.2l0,0v10.8H195V73.5
				c0-0.4-0.1-0.7-0.2-0.8c-0.1-0.2-0.3-0.3-0.6-0.3l0,0c-0.4,0-0.8,0.2-1.3,0.6l0,0v10.8H189.3z M207.1,83.7V64.6h3.9v7.9h3.4v-7.9
				h3.9v19.2h-3.9v-8.5H211v8.5H207.1z M225.3,84c-1.5,0-2.6-0.4-3.4-1.2c-0.8-0.8-1.2-1.9-1.2-3.4l0,0v-4.9c0-1.5,0.4-2.6,1.2-3.4
				c0.8-0.8,1.9-1.2,3.4-1.2l0,0c1.5,0,2.6,0.4,3.4,1.2c0.8,0.8,1.2,1.9,1.2,3.4l0,0v4.9c0,1.5-0.4,2.6-1.2,3.4
				C228,83.6,226.8,84,225.3,84L225.3,84z M225.4,81.5c0.4,0,0.7-0.2,0.8-0.5c0.1-0.3,0.2-0.8,0.2-1.5l0,0v-5.4
				c0-0.6-0.1-1.1-0.2-1.5c-0.1-0.3-0.4-0.5-0.8-0.5l0,0c-0.4,0-0.7,0.2-0.9,0.5c-0.2,0.3-0.2,0.8-0.2,1.5l0,0v5.4
				c0,0.6,0.1,1.1,0.2,1.4C224.7,81.4,224.9,81.5,225.4,81.5L225.4,81.5z M232.3,83.7V64.6h3.5v19.2H232.3z M238.6,83.7V64.6h3.5
				v19.2H238.6z M247.4,84c-0.6,0-1.2-0.2-1.7-0.5c-0.5-0.3-0.8-0.7-1.1-1.2c-0.2-0.5-0.4-1-0.4-1.6l0,0c0-1.1,0.3-1.9,0.8-2.6
				c0.5-0.7,1.1-1.2,1.9-1.6c0.7-0.4,1.7-0.8,2.9-1.2l0,0V74c0-0.5-0.1-0.9-0.2-1.1c-0.1-0.3-0.4-0.4-0.7-0.4l0,0
				c-0.3,0-0.6,0.1-0.7,0.3c-0.1,0.2-0.2,0.5-0.3,0.9l0,0l-0.1,0.9l-3.4-0.1c0.1-1.6,0.5-2.8,1.3-3.6s1.9-1.1,3.5-1.1l0,0
				c1.3,0,2.3,0.4,3,1.1c0.7,0.7,1,1.8,1,3.1l0,0v6.4c0,1.1,0.1,2.2,0.2,3.4l0,0h-3.2c-0.1-0.5-0.2-1.1-0.3-2l0,0
				c-0.2,0.6-0.5,1.2-1,1.6C248.6,83.7,248.1,84,247.4,84L247.4,84z M248.7,81.4c0.2,0,0.5-0.1,0.7-0.2c0.2-0.2,0.4-0.3,0.5-0.5l0,0
				v-3.8c-0.7,0.4-1.3,0.9-1.7,1.3c-0.4,0.5-0.6,1-0.6,1.7l0,0c0,0.5,0.1,0.9,0.3,1.1C248,81.3,248.3,81.4,248.7,81.4L248.7,81.4z
				 M255.7,83.7V70.1h3.5v1.4c1.1-1.1,2.2-1.6,3.3-1.6l0,0c0.8,0,1.4,0.3,1.8,0.9s0.6,1.3,0.6,2.2l0,0v10.8h-3.6V73.5
				c0-0.4-0.1-0.7-0.2-0.8c-0.1-0.2-0.3-0.3-0.6-0.3l0,0c-0.4,0-0.8,0.2-1.3,0.6l0,0v10.8H255.7z M270.3,84c-2.1,0-3.2-1.5-3.2-4.5
				l0,0v-5c0-1.4,0.3-2.5,0.8-3.4c0.5-0.8,1.3-1.3,2.4-1.3l0,0c0.9,0,1.8,0.4,2.6,1.1l0,0v-6.3h3.6v19.2h-3.6v-1
				C272.1,83.5,271.2,84,270.3,84L270.3,84z M271.8,81.6c0.3,0,0.7-0.1,1.1-0.4l0,0v-8.7c-0.4-0.2-0.8-0.4-1.1-0.4l0,0
				c-0.4,0-0.7,0.2-0.8,0.5c-0.2,0.3-0.3,0.8-0.3,1.3l0,0v5.8C270.7,81,271,81.6,271.8,81.6L271.8,81.6z M285.1,87.8l0-23.2h3v23.2
				H285.1z M297,83.7V64.6h8.1v2.7h-4.2v5.2h3.6v2.7h-3.6v8.6H297z M306.9,67.8v-2.7h3.6v2.7H306.9z M306.9,83.7V70.1h3.6v13.7
				H306.9z M313,83.7V70.1h3.6v2.2c0.5-0.8,0.9-1.4,1.4-1.8c0.4-0.4,1-0.6,1.6-0.6l0,0c0.1,0,0.3,0,0.5,0l0,0v3.6
				c-0.4-0.2-0.8-0.3-1.3-0.3l0,0c-0.9,0-1.6,0.4-2.2,1.3l0,0v9.1H313z M325.7,84c-1.2,0-2.2-0.3-2.9-0.9c-0.8-0.6-1.4-1.5-1.8-2.7
				l0,0l2.5-1c0.5,1.4,1.1,2.1,2,2.1l0,0c0.3,0,0.6-0.1,0.7-0.2c0.2-0.1,0.2-0.4,0.2-0.6l0,0c0-0.4-0.1-0.7-0.3-1s-0.7-0.7-1.4-1.3
				l0,0l-1.3-1.1c-0.8-0.6-1.3-1.2-1.7-1.8c-0.4-0.6-0.5-1.2-0.5-2l0,0c0-0.7,0.2-1.4,0.5-1.9c0.4-0.6,0.9-1,1.5-1.3
				c0.6-0.3,1.3-0.5,2-0.5l0,0c1.1,0,2,0.3,2.7,0.9s1.2,1.5,1.5,2.6l0,0l-2.3,1c-0.1-0.6-0.4-1.1-0.7-1.5c-0.3-0.4-0.7-0.6-1.1-0.6
				l0,0c-0.3,0-0.5,0.1-0.7,0.2s-0.3,0.4-0.3,0.7l0,0c0,0.3,0.1,0.6,0.4,0.9c0.3,0.3,0.7,0.7,1.3,1.2l0,0l1.3,1.1
				c0.7,0.6,1.3,1.2,1.7,1.8c0.4,0.6,0.6,1.3,0.6,2l0,0c0,0.8-0.2,1.4-0.6,2c-0.4,0.6-0.9,1-1.5,1.3C327.1,83.8,326.4,84,325.7,84
				L325.7,84z M335.6,83.9c-1.4,0-2.3-0.3-2.8-0.9c-0.5-0.6-0.8-1.6-0.8-2.8l0,0v-7.8h-1.3v-2.3h1.3v-4.1h3.6v4.1h2v2.3h-2v7.4
				c0,0.8,0.4,1.2,1.2,1.2l0,0c0.4,0,0.8,0,1-0.1l0,0v2.8C336.9,83.8,336.2,83.9,335.6,83.9L335.6,83.9z M351,84
				c-2,0-3.5-0.5-4.3-1.6c-0.9-1.1-1.3-2.7-1.3-4.7l0,0v-6.9c0-2.1,0.4-3.7,1.3-4.8c0.8-1.1,2.3-1.6,4.3-1.6l0,0
				c2,0,3.3,0.5,4.1,1.4c0.8,1,1.2,2.3,1.2,4.1l0,0v1.6h-3.8v-1.8c0-0.6,0-1-0.1-1.4c-0.1-0.3-0.2-0.6-0.4-0.9
				c-0.2-0.2-0.6-0.3-1.1-0.3l0,0c-0.7,0-1.2,0.2-1.4,0.7c-0.2,0.5-0.3,1.1-0.3,2l0,0v8.7c0,0.9,0.1,1.6,0.4,2
				c0.2,0.4,0.7,0.7,1.3,0.7l0,0c0.7,0,1.1-0.2,1.3-0.7c0.2-0.4,0.3-1.1,0.3-2l0,0v-1.9h3.8v1.6c0,1.8-0.4,3.2-1.2,4.2
				C354.4,83.5,353,84,351,84L351,84z M358.6,83.7V64.6h3.6v6.7c1-1,2.1-1.5,3.4-1.5l0,0c0.8,0,1.4,0.3,1.8,0.9s0.6,1.3,0.6,2.2l0,0
				v10.8h-3.5V73.5c0-0.4-0.1-0.7-0.2-0.8c-0.1-0.2-0.3-0.3-0.6-0.3l0,0c-0.4,0-0.9,0.2-1.4,0.6l0,0v10.7H358.6z M373.1,84
				c-0.6,0-1.2-0.2-1.7-0.5c-0.5-0.3-0.8-0.7-1.1-1.2c-0.2-0.5-0.4-1-0.4-1.6l0,0c0-1.1,0.3-1.9,0.8-2.6c0.5-0.7,1.1-1.2,1.9-1.6
				c0.7-0.4,1.7-0.8,2.9-1.2l0,0V74c0-0.5-0.1-0.9-0.2-1.1c-0.1-0.3-0.4-0.4-0.7-0.4l0,0c-0.3,0-0.6,0.1-0.7,0.3
				c-0.1,0.2-0.2,0.5-0.3,0.9l0,0l-0.1,0.9l-3.4-0.1c0.1-1.6,0.5-2.8,1.3-3.6c0.8-0.8,1.9-1.1,3.5-1.1l0,0c1.3,0,2.3,0.4,3,1.1
				c0.7,0.7,1,1.8,1,3.1l0,0v6.4c0,1.1,0.1,2.2,0.2,3.4l0,0H376c-0.1-0.5-0.2-1.1-0.3-2l0,0c-0.2,0.6-0.5,1.2-1,1.6
				C374.3,83.7,373.7,84,373.1,84L373.1,84z M374.3,81.4c0.2,0,0.5-0.1,0.7-0.2c0.2-0.2,0.4-0.3,0.5-0.5l0,0v-3.8
				c-0.7,0.4-1.3,0.9-1.7,1.3c-0.4,0.5-0.6,1-0.6,1.7l0,0c0,0.5,0.1,0.9,0.3,1.1C373.7,81.3,374,81.4,374.3,81.4L374.3,81.4z
				 M381.4,67.8v-2.7h3.6v2.7H381.4z M381.4,83.7V70.1h3.6v13.7H381.4z M387.5,83.7V70.1h3.6v2.2c0.5-0.8,0.9-1.4,1.4-1.8
				c0.4-0.4,1-0.6,1.6-0.6l0,0c0.1,0,0.3,0,0.5,0l0,0v3.6c-0.4-0.2-0.8-0.3-1.3-0.3l0,0c-0.9,0-1.6,0.4-2.2,1.3l0,0v9.1H387.5z"/>
		</g>
	</g>
</g>
</svg>
