<?xml version="1.0" encoding="utf-8"?>
<!-- Generator: Adobe Illustrator 24.2.1, SVG Export Plug-In . SVG Version: 6.00 Build 0)  -->
<svg version="1.1" id="Layer_1" xmlns="http://www.w3.org/2000/svg" xmlns:xlink="http://www.w3.org/1999/xlink" x="0px" y="0px"
	 viewBox="0 0 605.2 181.8" style="enable-background:new 0 0 605.2 181.8;" xml:space="preserve">
<style type="text/css">
	.st0{fill:#A26054;fill-opacity:0;stroke:#EFEDE1;stroke-width:3;}
	.st1{fill:#EFEDE1;}
</style>
<g>
	<g transform="rotate(0 20 20)">
		<rect x="21.5" y="21.5" class="st0" width="582.2" height="158.8"/>
	</g>
	<g transform="rotate(0 0 0)">
		<rect x="1.5" y="1.5" class="st0" width="582.2" height="158.8"/>
	</g>
	<g transform="rotate(0 121.3688 100)">
		<g transform="matrix(1 0 0 1 0 0)">
			<path class="st1" d="M121.4,101.2h10.5v2.1h-8.4v4.9h7.5v2.1h-7.5v5h8.7v2.1h-10.9V101.2z M143.3,108.1h2.3l-5,9.6h-0.1l-5.2-9.6
				h2.5l2.8,5.9L143.3,108.1z M153.4,115.8c0.8,0,1.5-0.3,2.3-0.8l0,0l1,1.5c-0.5,0.3-1,0.6-1.6,0.8c-0.6,0.2-1.1,0.3-1.7,0.3l0,0
				c-1,0-1.9-0.2-2.7-0.6c-0.8-0.4-1.4-1-1.8-1.8c-0.4-0.7-0.6-1.6-0.6-2.5l0,0c0-0.9,0.2-1.7,0.7-2.5s1.1-1.4,1.9-1.8
				c0.8-0.4,1.7-0.7,2.6-0.7l0,0c1.2,0,2.2,0.4,3,1.1c0.8,0.7,1.4,1.7,1.7,3l0,0l-7.4,2.6c0.3,0.5,0.6,0.8,1.1,1.1
				C152.3,115.7,152.8,115.8,153.4,115.8L153.4,115.8z M153.2,109.4c-0.9,0-1.6,0.3-2.1,0.9c-0.6,0.6-0.8,1.4-0.8,2.3l0,0
				c0,0.2,0,0.4,0,0.5l0,0l5.4-2c-0.2-0.5-0.5-0.9-1-1.2C154.4,109.5,153.9,109.4,153.2,109.4L153.2,109.4z M164.1,110.3
				c0.2-0.5,0.6-1,1-1.3s0.9-0.7,1.4-0.9c0.5-0.2,0.9-0.3,1.3-0.3l0,0l-0.1,2.1c-0.7,0-1.3,0.1-1.8,0.4c-0.5,0.3-1,0.7-1.3,1.2
				c-0.3,0.5-0.5,1.1-0.5,1.7l0,0v4.2h-2.1v-9.3h1.9L164.1,110.3z M178.7,108.1h1.9l-6,13.7h-2.1l2.1-4.8l-4.3-9h2.4l3,6.6
				L178.7,108.1z M192,101.2h10.8v2.1h-4.4v14.1h-2.2v-14.1H192V101.2z M203.9,112.6c0-0.9,0.2-1.7,0.7-2.5c0.4-0.8,1.1-1.3,1.8-1.8
				s1.7-0.7,2.7-0.7l0,0c1,0,1.9,0.2,2.6,0.7s1.4,1,1.8,1.8s0.6,1.6,0.6,2.5l0,0c0,0.9-0.2,1.8-0.6,2.5s-1,1.3-1.8,1.8
				s-1.7,0.7-2.7,0.7l0,0c-1,0-1.8-0.2-2.6-0.6s-1.4-1-1.8-1.7S203.9,113.6,203.9,112.6L203.9,112.6z M206,112.7
				c0,0.6,0.1,1.1,0.4,1.6c0.3,0.5,0.6,0.9,1.1,1.2s1,0.4,1.5,0.4l0,0c0.9,0,1.6-0.3,2.2-0.9c0.6-0.6,0.9-1.4,0.9-2.3l0,0
				c0-0.9-0.3-1.7-0.9-2.3s-1.3-0.9-2.2-0.9l0,0c-0.6,0-1.1,0.1-1.5,0.4c-0.4,0.3-0.8,0.7-1.1,1.2C206.1,111.5,206,112.1,206,112.7
				L206,112.7z M217.4,112.6c0-0.9,0.2-1.7,0.7-2.5c0.4-0.8,1.1-1.3,1.8-1.8s1.7-0.7,2.7-0.7l0,0c1,0,1.9,0.2,2.6,0.7s1.4,1,1.8,1.8
				c0.4,0.7,0.6,1.6,0.6,2.5l0,0c0,0.9-0.2,1.8-0.6,2.5c-0.4,0.8-1,1.3-1.8,1.8s-1.7,0.7-2.7,0.7l0,0c-1,0-1.8-0.2-2.6-0.6
				s-1.4-1-1.8-1.7C217.7,114.5,217.4,113.6,217.4,112.6L217.4,112.6z M219.6,112.7c0,0.6,0.1,1.1,0.4,1.6c0.3,0.5,0.6,0.9,1.1,1.2
				s1,0.4,1.5,0.4l0,0c0.9,0,1.6-0.3,2.2-0.9c0.6-0.6,0.9-1.4,0.9-2.3l0,0c0-0.9-0.3-1.7-0.9-2.3c-0.6-0.6-1.3-0.9-2.2-0.9l0,0
				c-0.6,0-1.1,0.1-1.5,0.4c-0.4,0.3-0.8,0.7-1.1,1.2C219.7,111.5,219.6,112.1,219.6,112.7L219.6,112.7z M231.8,100h2.1v17.4h-2.1
				V100z M244.8,107.7c0.8,0,1.6,0.2,2.3,0.6c0.7,0.4,1.2,1,1.6,1.7c0.4,0.7,0.6,1.6,0.6,2.6l0,0c0,1-0.2,1.9-0.7,2.7
				s-1,1.3-1.8,1.7c-0.7,0.4-1.5,0.6-2.4,0.6l0,0c-0.8,0-1.5-0.1-2.1-0.4c-0.6-0.3-1.1-0.7-1.5-1.2l0,0v1.4h-2.1V100h2.1v9.3
				c0.4-0.5,0.9-0.9,1.6-1.2C243.3,107.9,244,107.7,244.8,107.7L244.8,107.7z M244.1,115.8c0.9,0,1.7-0.3,2.3-0.9
				c0.6-0.6,0.9-1.4,0.9-2.3l0,0c0-0.6-0.1-1.1-0.4-1.6c-0.3-0.5-0.7-0.9-1.1-1.2c-0.5-0.3-1-0.4-1.6-0.4l0,0c-0.8,0-1.4,0.2-2,0.6
				c-0.6,0.4-1,1-1.1,1.6l0,0v1.9c0.2,0.7,0.6,1.2,1.1,1.7C242.7,115.6,243.3,115.8,244.1,115.8L244.1,115.8z M252.7,112.6
				c0-0.9,0.2-1.7,0.7-2.5c0.4-0.8,1.1-1.3,1.8-1.8c0.8-0.4,1.7-0.7,2.7-0.7l0,0c1,0,1.9,0.2,2.6,0.7c0.8,0.4,1.4,1,1.8,1.8
				c0.4,0.7,0.6,1.6,0.6,2.5l0,0c0,0.9-0.2,1.8-0.6,2.5c-0.4,0.8-1,1.3-1.8,1.8c-0.8,0.4-1.7,0.7-2.7,0.7l0,0c-1,0-1.8-0.2-2.6-0.6
				c-0.8-0.4-1.4-1-1.8-1.7S252.7,113.6,252.7,112.6L252.7,112.6z M254.8,112.7c0,0.6,0.1,1.1,0.4,1.6c0.3,0.5,0.6,0.9,1.1,1.2
				c0.5,0.3,1,0.4,1.5,0.4l0,0c0.9,0,1.6-0.3,2.2-0.9c0.6-0.6,0.9-1.4,0.9-2.3l0,0c0-0.9-0.3-1.7-0.9-2.3c-0.6-0.6-1.3-0.9-2.2-0.9
				l0,0c-0.6,0-1.1,0.1-1.5,0.4c-0.4,0.3-0.8,0.7-1.1,1.2C255,111.5,254.8,112.1,254.8,112.7L254.8,112.7z M275.1,117.4h-2.5
				l-2.5-3.3l-2.3,3.3h-2.1l3.4-4.7l-3.5-4.6h2.6l2.4,3.2l2.1-3.2h2.1l-3.2,4.5L275.1,117.4z M299.6,101.2h2.2v16.8h-0.1l-11.9-12.1
				l0,11.5h-2.2v-16.7h0.1l11.9,12.2L299.6,101.2z M311.6,115.8c0.8,0,1.5-0.3,2.3-0.8l0,0l1,1.5c-0.5,0.3-1,0.6-1.6,0.8
				c-0.6,0.2-1.1,0.3-1.7,0.3l0,0c-1,0-1.9-0.2-2.7-0.6c-0.8-0.4-1.4-1-1.8-1.8c-0.4-0.7-0.6-1.6-0.6-2.5l0,0c0-0.9,0.2-1.7,0.7-2.5
				s1.1-1.4,1.9-1.8c0.8-0.4,1.7-0.7,2.6-0.7l0,0c1.2,0,2.2,0.4,3,1.1c0.8,0.7,1.4,1.7,1.7,3l0,0l-7.4,2.6c0.3,0.5,0.6,0.8,1.1,1.1
				C310.5,115.7,311,115.8,311.6,115.8L311.6,115.8z M311.4,109.4c-0.9,0-1.6,0.3-2.1,0.9c-0.6,0.6-0.8,1.4-0.8,2.3l0,0
				c0,0.2,0,0.4,0,0.5l0,0l5.4-2c-0.2-0.5-0.5-0.9-1-1.2S312.1,109.4,311.4,109.4L311.4,109.4z M324.6,115.8c0.8,0,1.5-0.3,2.3-0.8
				l0,0l1,1.5c-0.5,0.3-1,0.6-1.6,0.8c-0.6,0.2-1.1,0.3-1.7,0.3l0,0c-1,0-1.9-0.2-2.7-0.6c-0.8-0.4-1.4-1-1.8-1.8s-0.6-1.6-0.6-2.5
				l0,0c0-0.9,0.2-1.7,0.7-2.5s1.1-1.4,1.9-1.8c0.8-0.4,1.7-0.7,2.6-0.7l0,0c1.2,0,2.2,0.4,3,1.1c0.8,0.7,1.4,1.7,1.7,3l0,0
				l-7.4,2.6c0.3,0.5,0.6,0.8,1.1,1.1C323.5,115.7,324,115.8,324.6,115.8L324.6,115.8z M324.4,109.4c-0.9,0-1.6,0.3-2.1,0.9
				c-0.6,0.6-0.8,1.4-0.8,2.3l0,0c0,0.2,0,0.4,0,0.5l0,0l5.4-2c-0.2-0.5-0.5-0.9-1-1.2C325.6,109.5,325.1,109.4,324.4,109.4
				L324.4,109.4z M340.9,100h2.1v17.4h-2.1v-1.5c-0.4,0.5-1,0.9-1.6,1.2c-0.7,0.3-1.4,0.4-2.1,0.4l0,0c-0.9,0-1.7-0.2-2.4-0.6
				c-0.7-0.4-1.3-1-1.6-1.8s-0.6-1.6-0.6-2.6l0,0c0-1,0.2-1.9,0.6-2.6c0.4-0.7,1-1.3,1.7-1.7c0.7-0.4,1.6-0.6,2.5-0.6l0,0
				c0.7,0,1.4,0.1,2,0.4c0.7,0.3,1.2,0.7,1.5,1.2l0,0V100z M337.7,115.8c0.8,0,1.5-0.2,2.1-0.7c0.6-0.4,0.9-1,1.1-1.7l0,0v-1.7
				c-0.2-0.7-0.6-1.2-1.1-1.6c-0.6-0.4-1.2-0.6-2-0.6l0,0c-0.6,0-1.1,0.1-1.6,0.4s-0.9,0.7-1.1,1.1c-0.3,0.5-0.4,1-0.4,1.6l0,0
				c0,0.6,0.1,1.1,0.4,1.6c0.3,0.5,0.7,0.9,1.1,1.2C336.6,115.7,337.1,115.8,337.7,115.8L337.7,115.8z M350.5,117.6
				c-0.7,0-1.3-0.1-2-0.4c-0.6-0.2-1.1-0.6-1.5-1.1l0,0l0.9-1.2c0.4,0.4,0.8,0.6,1.2,0.8s0.8,0.3,1.2,0.3l0,0c0.5,0,0.9-0.1,1.2-0.3
				c0.3-0.2,0.5-0.5,0.5-0.9l0,0c0-0.3-0.1-0.6-0.3-0.8c-0.2-0.2-0.4-0.3-0.7-0.4c-0.2-0.1-0.7-0.2-1.2-0.4l0,0
				c-1.6-0.5-2.4-1.4-2.4-2.7l0,0c0-0.8,0.3-1.4,0.9-2c0.6-0.6,1.4-0.8,2.4-0.8l0,0c0.7,0,1.2,0.1,1.7,0.2c0.5,0.2,1,0.4,1.4,0.8
				l0,0l-0.8,1.3c-0.2-0.3-0.5-0.5-0.9-0.6c-0.4-0.1-0.7-0.2-1-0.2l0,0c-0.4,0-0.8,0.1-1.1,0.3c-0.3,0.2-0.4,0.5-0.4,0.8l0,0
				c0,0.3,0.1,0.5,0.3,0.7c0.2,0.2,0.4,0.3,0.6,0.4c0.2,0.1,0.6,0.2,1.2,0.4l0,0c0.8,0.3,1.4,0.6,1.8,1c0.4,0.4,0.6,0.9,0.6,1.6l0,0
				c0,0.9-0.3,1.6-0.9,2.2S351.7,117.6,350.5,117.6L350.5,117.6z M374.4,108.1h1.9v9.3h-2.1v-1.5c-0.3,0.4-0.8,0.8-1.4,1.2
				c-0.6,0.4-1.3,0.5-2.1,0.5l0,0c-0.9,0-1.7-0.2-2.4-0.6c-0.7-0.4-1.3-0.9-1.7-1.7c-0.4-0.7-0.6-1.6-0.6-2.6l0,0
				c0-1,0.2-1.9,0.6-2.7c0.4-0.8,1-1.3,1.7-1.7c0.7-0.4,1.5-0.6,2.4-0.6l0,0c0.8,0,1.5,0.2,2.1,0.5c0.6,0.3,1.1,0.8,1.4,1.3l0,0
				L374.4,108.1z M371.3,115.9c0.8,0,1.4-0.2,2-0.6c0.5-0.4,0.9-1,1-1.7l0,0v-1.8c-0.2-0.7-0.6-1.2-1.1-1.6c-0.6-0.4-1.2-0.6-2-0.6
				l0,0c-0.6,0-1.1,0.1-1.5,0.4s-0.8,0.6-1.1,1.1c-0.3,0.5-0.4,1-0.4,1.6l0,0c0,0.6,0.1,1.1,0.4,1.6c0.3,0.5,0.7,0.9,1.1,1.2
				C370.2,115.7,370.7,115.9,371.3,115.9L371.3,115.9z M403.1,101.2v16.2H401v-7.1h-8.5v7.1h-2.2v-16.2h2.2v7h8.5v-7H403.1z
				 M416.2,108.1h1.9v9.3h-2.1v-1.5c-0.3,0.4-0.8,0.8-1.4,1.2c-0.6,0.4-1.3,0.5-2.1,0.5l0,0c-0.9,0-1.7-0.2-2.4-0.6
				c-0.7-0.4-1.3-0.9-1.7-1.7c-0.4-0.7-0.6-1.6-0.6-2.6l0,0c0-1,0.2-1.9,0.6-2.7c0.4-0.8,1-1.3,1.7-1.7c0.7-0.4,1.5-0.6,2.4-0.6l0,0
				c0.8,0,1.5,0.2,2.1,0.5c0.6,0.3,1.1,0.8,1.4,1.3l0,0L416.2,108.1z M413.1,115.9c0.8,0,1.4-0.2,2-0.6c0.5-0.4,0.9-1,1-1.7l0,0
				v-1.8c-0.2-0.7-0.6-1.2-1.1-1.6c-0.6-0.4-1.2-0.6-2-0.6l0,0c-0.6,0-1.1,0.1-1.5,0.4c-0.5,0.3-0.8,0.6-1.1,1.1
				c-0.3,0.5-0.4,1-0.4,1.6l0,0c0,0.6,0.1,1.1,0.4,1.6c0.3,0.5,0.7,0.9,1.1,1.2C412,115.7,412.5,115.9,413.1,115.9L413.1,115.9z
				 M435.1,107.7c0.9,0,1.6,0.3,2.1,0.8c0.5,0.5,0.8,1.2,0.8,2l0,0v6.9H436v-6.1c0-1.1-0.5-1.7-1.5-1.7l0,0c-0.5,0-1,0.2-1.4,0.5
				c-0.4,0.3-0.8,0.7-1,1.3c-0.2,0.5-0.4,1.1-0.4,1.7l0,0v4.4h-2.1v-6.1c0-1.1-0.6-1.7-1.5-1.7l0,0c-0.5,0-1,0.2-1.4,0.5
				c-0.4,0.3-0.8,0.7-1,1.3c-0.2,0.5-0.4,1.1-0.4,1.7l0,0v4.4h-2.1v-9.3h1.9l0.2,1.7c0.4-0.7,0.8-1.2,1.5-1.6s1.3-0.6,2.1-0.6l0,0
				c0.7,0,1.4,0.2,1.9,0.5c0.5,0.4,0.8,0.8,1,1.4l0,0c0.4-0.6,0.9-1.1,1.5-1.4S434.4,107.7,435.1,107.7L435.1,107.7z M454.9,107.7
				c0.9,0,1.6,0.3,2.1,0.8s0.8,1.2,0.8,2l0,0v6.9h-2.1v-6.1c0-1.1-0.5-1.7-1.5-1.7l0,0c-0.5,0-1,0.2-1.4,0.5s-0.8,0.7-1,1.3
				c-0.2,0.5-0.4,1.1-0.4,1.7l0,0v4.4h-2.1v-6.1c0-1.1-0.6-1.7-1.5-1.7l0,0c-0.5,0-1,0.2-1.4,0.5s-0.8,0.7-1,1.3
				c-0.2,0.5-0.4,1.1-0.4,1.7l0,0v4.4H443v-9.3h1.9l0.2,1.7c0.4-0.7,0.8-1.2,1.5-1.6c0.6-0.4,1.3-0.6,2.1-0.6l0,0
				c0.7,0,1.4,0.2,1.9,0.5c0.5,0.4,0.8,0.8,1,1.4l0,0c0.4-0.6,0.9-1.1,1.5-1.4C453.6,107.9,454.2,107.7,454.9,107.7L454.9,107.7z
				 M467.2,115.8c0.8,0,1.5-0.3,2.3-0.8l0,0l1,1.5c-0.5,0.3-1,0.6-1.6,0.8c-0.6,0.2-1.1,0.3-1.7,0.3l0,0c-1,0-1.9-0.2-2.7-0.6
				c-0.8-0.4-1.4-1-1.8-1.8c-0.4-0.7-0.6-1.6-0.6-2.5l0,0c0-0.9,0.2-1.7,0.7-2.5c0.5-0.8,1.1-1.4,1.9-1.8c0.8-0.4,1.7-0.7,2.6-0.7
				l0,0c1.2,0,2.2,0.4,3,1.1c0.8,0.7,1.4,1.7,1.7,3l0,0l-7.4,2.6c0.3,0.5,0.6,0.8,1.1,1.1C466.1,115.7,466.6,115.8,467.2,115.8
				L467.2,115.8z M467,109.4c-0.9,0-1.6,0.3-2.1,0.9c-0.6,0.6-0.8,1.4-0.8,2.3l0,0c0,0.2,0,0.4,0,0.5l0,0l5.4-2
				c-0.2-0.5-0.5-0.9-1-1.2C468.2,109.5,467.7,109.4,467,109.4L467,109.4z M477.9,110.3c0.2-0.5,0.6-1,1-1.3
				c0.4-0.4,0.9-0.7,1.4-0.9c0.5-0.2,0.9-0.3,1.3-0.3l0,0l-0.1,2.1c-0.7,0-1.3,0.1-1.8,0.4c-0.5,0.3-1,0.7-1.3,1.2
				c-0.3,0.5-0.5,1.1-0.5,1.7l0,0v4.2h-2.1v-9.3h1.9L477.9,110.3z"/>
		</g>
	</g>
	<g transform="rotate(0 60 60)">
		<g transform="matrix(1 0 0 1 0 0)">
			<path class="st1" d="M61.4,75H60c0,0.6,0.2,1.2,0.5,1.7c0.3,0.5,0.7,0.9,1.2,1.3c0.5,0.3,1.1,0.6,1.8,0.8s1.4,0.3,2.2,0.3l0,0
				c0.8,0,1.6-0.1,2.2-0.3s1.2-0.5,1.7-0.8c0.5-0.4,0.8-0.8,1.1-1.3c0.3-0.5,0.4-1.1,0.4-1.7l0,0c0-0.9-0.2-1.6-0.7-2.1
				c-0.4-0.6-1-1-1.6-1.4c-0.7-0.4-1.4-0.7-2.1-0.9s-1.5-0.5-2.1-0.8c-0.7-0.3-1.2-0.6-1.6-1c-0.4-0.4-0.7-0.9-0.7-1.5l0,0
				c0-0.3,0.1-0.7,0.2-1c0.1-0.3,0.4-0.6,0.7-0.8c0.3-0.2,0.6-0.4,1.1-0.5c0.4-0.1,0.9-0.2,1.5-0.2l0,0c0.9,0,1.7,0.2,2.3,0.6
				c0.6,0.4,1,1,1.1,1.8l0,0h1.4c-0.1-0.5-0.3-1-0.6-1.4c-0.3-0.4-0.7-0.8-1.1-1.1c-0.5-0.3-1-0.5-1.5-0.7c-0.6-0.1-1.2-0.2-1.8-0.2
				l0,0c-0.6,0-1.3,0.1-1.9,0.3c-0.6,0.2-1.1,0.4-1.5,0.7c-0.4,0.3-0.8,0.7-1.1,1.2c-0.3,0.5-0.4,1.1-0.4,1.7l0,0
				c0,0.8,0.2,1.5,0.6,2c0.4,0.5,1,0.9,1.6,1.3s1.3,0.6,2.1,0.9c0.7,0.2,1.4,0.5,2.1,0.8c0.6,0.3,1.2,0.7,1.6,1.1
				c0.4,0.4,0.6,1,0.6,1.8l0,0c0,0.9-0.3,1.6-1,2c-0.7,0.4-1.6,0.6-2.7,0.6l0,0c-0.9,0-1.6-0.1-2.1-0.3c-0.5-0.2-0.9-0.5-1.2-0.8
				s-0.5-0.7-0.6-1C61.5,75.5,61.5,75.2,61.4,75L61.4,75z M76.4,78.7V63.9h-1.8v14.8H76.4z M90.5,73.5L90.5,73.5
				c0,0.7-0.1,1.4-0.4,2.1c-0.3,0.7-0.6,1.3-1.1,1.8c-0.5,0.5-1,0.9-1.7,1.2c-0.7,0.3-1.4,0.4-2.3,0.4l0,0c-0.8,0-1.6-0.2-2.3-0.5
				s-1.3-0.7-1.7-1.2c-0.5-0.5-0.8-1.1-1.1-1.8c-0.3-0.7-0.4-1.4-0.4-2.1l0,0c0-0.7,0.1-1.4,0.4-2.1c0.3-0.7,0.6-1.3,1.1-1.8
				c0.5-0.5,1.1-0.9,1.7-1.2s1.5-0.5,2.3-0.5l0,0c0.8,0,1.6,0.2,2.3,0.5c0.7,0.3,1.2,0.7,1.7,1.2c0.5,0.5,0.8,1.1,1.1,1.8
				C90.4,72,90.5,72.7,90.5,73.5z M88.5,73.5L88.5,73.5c0-1-0.1-1.8-0.3-2.4c-0.2-0.6-0.5-1.1-0.8-1.4c-0.3-0.3-0.7-0.6-1.1-0.7
				c-0.4-0.1-0.8-0.2-1.2-0.2l0,0c-0.4,0-0.8,0.1-1.2,0.2c-0.4,0.1-0.8,0.3-1.1,0.7c-0.3,0.3-0.6,0.8-0.8,1.4s-0.3,1.4-0.3,2.4l0,0
				c0,1,0.1,1.8,0.3,2.4c0.2,0.6,0.5,1.1,0.8,1.4s0.7,0.6,1.1,0.7c0.4,0.1,0.8,0.2,1.2,0.2l0,0c0.4,0,0.8-0.1,1.2-0.2
				c0.4-0.1,0.8-0.3,1.1-0.7s0.6-0.8,0.8-1.4C88.4,75.2,88.5,74.4,88.5,73.5z M93.8,68.1H92l3.7,10.6h1.1l2.5-7.1h0.1l2.8,7.1h1
				l3.9-10.6h-1.1l-2.9,7.9h-0.1l-3-7.9h-0.4l-2.8,8h-0.1L93.8,68.1z M119.2,78.7v-7.4h8.9v7.4h1.9V63.9h-1.9v6.5h-8.9v-6.5h-1.9
				v14.8H119.2z M138.2,67.9L138.2,67.9c1,0,1.8,0.1,2.4,0.4c0.6,0.3,1,0.7,1.2,1.1c0.3,0.5,0.4,1,0.5,1.6c0,0.6,0.1,1.2,0.1,1.9
				l0,0v5.8h-1.7v-1c-0.4,0.4-0.9,0.7-1.6,0.9c-0.6,0.2-1.3,0.3-1.9,0.3l0,0c-0.6,0-1.1-0.1-1.6-0.3s-0.9-0.5-1.2-0.8
				c-0.3-0.3-0.5-0.7-0.7-1.1c-0.2-0.4-0.2-0.9-0.2-1.3l0,0c0-0.5,0.1-0.9,0.3-1.4c0.2-0.5,0.4-0.9,0.8-1.2s0.8-0.7,1.2-0.9
				c0.5-0.2,1.1-0.3,1.7-0.3l0,0c0.6,0,1.2,0.1,1.8,0.4c0.6,0.2,1,0.6,1.4,1l0,0v-0.9c0-1.2-0.2-2-0.5-2.6c-0.3-0.6-1-0.8-1.9-0.8
				l0,0c-0.4,0-0.7,0-1,0.1s-0.6,0.2-0.8,0.4c-0.2,0.2-0.4,0.4-0.6,0.7c-0.2,0.3-0.4,0.6-0.6,0.9l0,0l-1.1-1.1
				c0.2-0.2,0.4-0.4,0.6-0.6c0.2-0.2,0.5-0.4,0.8-0.6c0.3-0.2,0.7-0.3,1.1-0.4C137,68,137.5,67.9,138.2,67.9z M140.6,76.2v-1.6
				c-0.1-0.2-0.2-0.4-0.3-0.6c-0.1-0.2-0.3-0.4-0.5-0.7s-0.5-0.4-0.8-0.5c-0.3-0.1-0.6-0.2-1.1-0.2l0,0c-0.4,0-0.8,0.1-1.1,0.2
				c-0.3,0.2-0.6,0.4-0.9,0.6c-0.2,0.3-0.4,0.6-0.5,0.9c-0.1,0.4-0.2,0.7-0.2,1.1l0,0c0,0.5,0.1,0.8,0.2,1.2
				c0.2,0.3,0.4,0.6,0.6,0.8c0.3,0.2,0.5,0.4,0.8,0.5c0.3,0.1,0.6,0.2,0.9,0.2l0,0c0.3,0,0.5,0,0.8-0.1c0.3-0.1,0.5-0.2,0.8-0.4
				c0.2-0.2,0.5-0.4,0.7-0.6C140.3,76.7,140.5,76.5,140.6,76.2L140.6,76.2z M152.7,78.7h1.8v-6.9c0-0.3,0-0.6-0.1-1
				c0-0.4-0.2-0.9-0.4-1.3c-0.2-0.4-0.6-0.8-1.1-1.1s-1.2-0.5-2.2-0.5l0,0c-0.4,0-0.9,0.1-1.4,0.2s-1,0.5-1.5,1l0,0l-0.3,0.3h-0.1
				v-1.4h-1.8v10.6h1.8v-6.5c0-0.6,0.1-1,0.2-1.4c0.2-0.4,0.4-0.7,0.6-1c0.3-0.3,0.6-0.5,0.9-0.6c0.3-0.1,0.7-0.2,1.1-0.2l0,0
				c0.6,0,1.1,0.1,1.4,0.3s0.6,0.5,0.7,0.8c0.1,0.3,0.2,0.6,0.3,0.9c0,0.3,0,0.5,0,0.7l0,0V78.7z M167.4,78.7V63.9h-1.8v6h-0.1
				c-0.1-0.4-0.3-0.7-0.6-0.9c-0.2-0.2-0.5-0.4-0.8-0.6c-0.3-0.2-0.6-0.3-0.9-0.3c-0.3-0.1-0.7-0.1-1-0.1l0,0
				c-0.7,0-1.4,0.1-1.9,0.4c-0.6,0.3-1.1,0.6-1.5,1.1c-0.4,0.5-0.8,1.1-1,1.7c-0.2,0.7-0.4,1.4-0.4,2.3l0,0c0,0.8,0.1,1.6,0.4,2.3
				c0.2,0.7,0.6,1.3,1,1.8c0.4,0.5,0.9,0.9,1.5,1.1c0.6,0.3,1.2,0.4,1.9,0.4l0,0c1.7,0,2.8-0.7,3.3-2l0,0h0.1v1.7H167.4z
				 M165.6,72.7v1.8c0,0.5-0.1,0.9-0.2,1.3c-0.2,0.4-0.4,0.8-0.6,1.1c-0.3,0.3-0.6,0.5-0.9,0.7c-0.4,0.2-0.7,0.3-1.2,0.3l0,0
				c-0.5,0-0.9-0.1-1.3-0.2c-0.4-0.2-0.7-0.4-1-0.8c-0.3-0.4-0.5-0.8-0.7-1.4c-0.2-0.6-0.3-1.2-0.3-2l0,0c0-0.8,0.1-1.5,0.3-2.1
				c0.2-0.6,0.4-1,0.7-1.4c0.3-0.4,0.7-0.6,1-0.8c0.4-0.2,0.8-0.2,1.2-0.2l0,0c0.4,0,0.8,0.1,1.1,0.2c0.4,0.2,0.7,0.4,0.9,0.7
				c0.3,0.3,0.5,0.7,0.6,1.2S165.6,72.1,165.6,72.7L165.6,72.7z M185,63.9h-1.9v10.7c0,0.3,0,0.7,0,1.1c0,0.4-0.1,0.8-0.2,1.1
				c-0.1,0.3-0.4,0.6-0.6,0.9c-0.3,0.2-0.7,0.3-1.2,0.3l0,0c-0.5,0-0.9-0.1-1.2-0.3c-0.3-0.2-0.5-0.4-0.7-0.6s-0.3-0.5-0.4-0.8
				c-0.1-0.3-0.1-0.5-0.1-0.8l0,0h-1.8c0,1.1,0.4,1.9,1.1,2.5c0.7,0.6,1.7,0.9,3,0.9l0,0c1,0,1.7-0.1,2.3-0.4c0.6-0.3,1-0.7,1.3-1.1
				c0.3-0.4,0.4-0.9,0.5-1.4c0.1-0.5,0.1-1,0.1-1.5l0,0V63.9z M191,68.1h-1.8V75c0,0.3,0,0.6,0.1,1c0,0.4,0.2,0.9,0.4,1.3
				c0.2,0.4,0.6,0.8,1.1,1.1s1.2,0.5,2.2,0.5l0,0c0.4,0,0.9-0.1,1.3-0.2c0.5-0.2,1-0.5,1.5-1l0,0l0.3-0.3h0.1v1.3h1.8V68.1h-1.8v6.6
				c0,0.6-0.1,1-0.2,1.4c-0.2,0.4-0.4,0.7-0.6,1c-0.3,0.3-0.6,0.5-0.9,0.6c-0.3,0.1-0.7,0.2-1.1,0.2l0,0c-0.6,0-1.1-0.1-1.4-0.3
				c-0.3-0.2-0.6-0.5-0.7-0.8c-0.2-0.3-0.3-0.6-0.3-0.9c0-0.3,0-0.5,0-0.7l0,0V68.1z M207.1,70.6h1.2c0-0.4-0.1-0.7-0.3-1.1
				s-0.5-0.6-0.8-0.8s-0.7-0.4-1.2-0.6c-0.5-0.1-0.9-0.2-1.5-0.2l0,0c-0.5,0-1,0.1-1.4,0.2s-0.8,0.3-1.1,0.6
				c-0.3,0.3-0.6,0.6-0.8,0.9c-0.2,0.4-0.3,0.8-0.3,1.3l0,0c0,0.7,0.2,1.2,0.5,1.6c0.3,0.4,0.7,0.7,1.2,1c0.5,0.2,1,0.4,1.5,0.6
				s1,0.3,1.5,0.5c0.5,0.2,0.9,0.4,1.2,0.7c0.3,0.3,0.5,0.6,0.5,1.1l0,0c0,0.2,0,0.4-0.1,0.6s-0.2,0.4-0.3,0.6
				c-0.2,0.2-0.4,0.3-0.7,0.4c-0.3,0.1-0.7,0.2-1.1,0.2l0,0c-0.6,0-1-0.1-1.4-0.3c-0.4-0.2-0.7-0.4-1-0.6c-0.2-0.2-0.4-0.5-0.5-0.8
				s-0.2-0.5-0.2-0.6l0,0h-1.4c0,0.4,0.1,0.8,0.3,1.2c0.2,0.4,0.5,0.7,0.8,1c0.4,0.3,0.8,0.5,1.4,0.7c0.5,0.2,1.2,0.3,1.9,0.3l0,0
				c1.3,0,2.3-0.3,2.9-0.9c0.7-0.6,1-1.3,1-2.3l0,0c0-0.7-0.2-1.2-0.5-1.6s-0.7-0.7-1.2-1c-0.5-0.2-1-0.4-1.6-0.6
				c-0.6-0.2-1.1-0.3-1.6-0.5c-0.5-0.2-0.9-0.4-1.2-0.6c-0.3-0.2-0.5-0.6-0.5-1l0,0c0-0.2,0-0.4,0.1-0.6c0.1-0.2,0.2-0.4,0.4-0.6
				c0.2-0.2,0.4-0.3,0.7-0.4c0.3-0.1,0.6-0.2,1.1-0.2l0,0c0.4,0,0.8,0.1,1.1,0.2c0.3,0.1,0.6,0.3,0.8,0.4c0.2,0.2,0.4,0.4,0.5,0.6
				C207,70.2,207.1,70.4,207.1,70.6L207.1,70.6z M212.5,69h-1.8v-0.8h1.8v-3.3h1.8v3.3h2.6V69h-2.6v7c0,0.2,0,0.4,0,0.6
				c0,0.2,0.1,0.4,0.1,0.6s0.2,0.3,0.3,0.5c0.1,0.1,0.4,0.2,0.6,0.2l0,0c0.3,0,0.6-0.1,0.8-0.4c0.2-0.3,0.4-0.5,0.6-0.8l0,0l1,1
				c-0.7,0.7-1.5,1-2.3,1l0,0c-0.4,0-0.7-0.1-1.1-0.2c-0.4-0.1-0.7-0.3-0.9-0.6c-0.3-0.3-0.5-0.6-0.7-1c-0.2-0.4-0.3-0.9-0.3-1.4
				l0,0V69z M222.1,68.1h-1.8v10.6h1.8V68.1z M220.1,64.8L220.1,64.8c0,0.3,0.1,0.6,0.3,0.8c0.2,0.2,0.5,0.3,0.8,0.3l0,0
				c0.3,0,0.6-0.1,0.8-0.3c0.2-0.2,0.3-0.5,0.3-0.8l0,0c0-0.3-0.1-0.6-0.3-0.8c-0.2-0.2-0.5-0.3-0.8-0.3l0,0c-0.3,0-0.6,0.1-0.8,0.3
				C220.2,64.2,220.1,64.5,220.1,64.8z M231.5,77.9L231.5,77.9c-0.5,0-1-0.1-1.5-0.2c-0.5-0.2-0.9-0.4-1.3-0.8
				c-0.4-0.3-0.7-0.8-0.9-1.4c-0.2-0.6-0.3-1.3-0.3-2.1l0,0c0-0.9,0.1-1.6,0.4-2.2c0.2-0.6,0.5-1.1,0.9-1.4c0.4-0.4,0.8-0.6,1.2-0.8
				c0.4-0.2,0.9-0.2,1.2-0.2l0,0c0.6,0,1.2,0.2,1.7,0.5c0.5,0.3,0.8,0.8,1,1.2l0,0h1.5c-0.1-0.5-0.4-0.9-0.7-1.3
				c-0.3-0.3-0.7-0.6-1.1-0.8c-0.4-0.2-0.8-0.3-1.3-0.4c-0.5-0.1-0.9-0.1-1.3-0.1l0,0c-0.9,0-1.7,0.1-2.3,0.4
				c-0.7,0.3-1.2,0.7-1.7,1.2s-0.8,1.1-1,1.7c-0.2,0.7-0.3,1.4-0.3,2.1l0,0c0,0.8,0.1,1.5,0.4,2.2c0.3,0.7,0.6,1.3,1.1,1.8
				c0.5,0.5,1,0.9,1.7,1.2c0.7,0.3,1.4,0.4,2.2,0.4l0,0c0.9,0,1.7-0.2,2.4-0.5c0.7-0.3,1.3-0.6,1.8-1l0,0l-0.6-0.8
				c-0.5,0.4-1,0.7-1.5,0.9C232.6,77.8,232,77.9,231.5,77.9z M239,73.9h8v-0.4c0-0.9-0.1-1.8-0.4-2.5s-0.6-1.3-1.1-1.7
				c-0.5-0.5-1-0.8-1.6-1c-0.6-0.2-1.2-0.3-1.9-0.3l0,0c-0.7,0-1.4,0.1-2,0.4c-0.6,0.2-1.1,0.6-1.6,1.1s-0.8,1-1.1,1.7
				c-0.3,0.7-0.4,1.4-0.4,2.3l0,0c0,0.7,0.1,1.4,0.3,2.1c0.2,0.7,0.6,1.3,1,1.8c0.4,0.5,1,1,1.7,1.3c0.7,0.3,1.5,0.5,2.4,0.5l0,0
				c0.9,0,1.7-0.2,2.5-0.5c0.8-0.3,1.4-0.8,2-1.4l0,0l-0.7-0.7c-0.3,0.3-0.6,0.5-0.8,0.7s-0.5,0.4-0.8,0.5c-0.3,0.1-0.5,0.3-0.8,0.3
				c-0.3,0.1-0.6,0.1-1,0.1l0,0c-0.4,0-0.8-0.1-1.3-0.2c-0.4-0.1-0.9-0.3-1.2-0.6c-0.4-0.3-0.7-0.7-1-1.3
				C239.2,75.5,239,74.8,239,73.9L239,73.9z M245.2,73.1H239c0-0.6,0.1-1.1,0.2-1.6c0.1-0.5,0.3-1,0.6-1.4c0.2-0.4,0.6-0.7,0.9-1
				c0.4-0.2,0.8-0.4,1.4-0.4l0,0c1,0,1.8,0.4,2.3,1.2C244.9,70.6,245.2,71.7,245.2,73.1L245.2,73.1z M267.6,78.7h-9.6V63.9h1.9v13.7
				h7.6V78.7z M280.3,73.5L280.3,73.5c0,0.7-0.1,1.4-0.4,2.1c-0.3,0.7-0.6,1.3-1.1,1.8c-0.5,0.5-1,0.9-1.7,1.2s-1.4,0.4-2.3,0.4l0,0
				c-0.8,0-1.6-0.2-2.3-0.5s-1.3-0.7-1.7-1.2c-0.5-0.5-0.8-1.1-1.1-1.8c-0.3-0.7-0.4-1.4-0.4-2.1l0,0c0-0.7,0.1-1.4,0.4-2.1
				c0.3-0.7,0.6-1.3,1.1-1.8c0.5-0.5,1.1-0.9,1.7-1.2s1.5-0.5,2.3-0.5l0,0c0.8,0,1.6,0.2,2.3,0.5s1.2,0.7,1.7,1.2
				c0.5,0.5,0.8,1.1,1.1,1.8C280.2,72,280.3,72.7,280.3,73.5z M278.3,73.5L278.3,73.5c0-1-0.1-1.8-0.3-2.4s-0.5-1.1-0.8-1.4
				c-0.3-0.3-0.7-0.6-1.1-0.7c-0.4-0.1-0.8-0.2-1.2-0.2l0,0c-0.4,0-0.8,0.1-1.2,0.2c-0.4,0.1-0.8,0.3-1.1,0.7
				c-0.3,0.3-0.6,0.8-0.8,1.4s-0.3,1.4-0.3,2.4l0,0c0,1,0.1,1.8,0.3,2.4c0.2,0.6,0.5,1.1,0.8,1.4s0.7,0.6,1.1,0.7
				c0.4,0.1,0.8,0.2,1.2,0.2l0,0c0.4,0,0.8-0.1,1.2-0.2c0.4-0.1,0.8-0.3,1.1-0.7c0.3-0.3,0.6-0.8,0.8-1.4
				C278.2,75.2,278.3,74.4,278.3,73.5z M290.6,77v2.6c0,0.6-0.1,1.2-0.2,1.7c-0.2,0.5-0.4,0.8-0.6,1.1c-0.3,0.3-0.6,0.5-1,0.6
				c-0.4,0.1-0.8,0.2-1.2,0.2l0,0c-0.7,0-1.4-0.2-1.8-0.6s-0.9-0.9-1.3-1.5l0,0l-1.2,1.1c0.1,0.1,0.3,0.3,0.5,0.5
				c0.2,0.2,0.5,0.4,0.8,0.6c0.3,0.2,0.7,0.4,1.2,0.5c0.5,0.1,1,0.2,1.5,0.2l0,0c1.1,0,1.9-0.2,2.6-0.5c0.7-0.3,1.2-0.7,1.5-1.2
				c0.4-0.5,0.6-1.1,0.8-1.7s0.2-1.3,0.2-2l0,0V68.1h-1.8v1.7h-0.1c-0.2-0.6-0.5-1.1-1.1-1.4c-0.6-0.3-1.3-0.5-2.2-0.5l0,0
				c-0.7,0-1.4,0.1-2,0.4c-0.6,0.3-1.1,0.6-1.5,1.1c-0.4,0.5-0.8,1.1-1,1.7c-0.2,0.7-0.3,1.4-0.3,2.3l0,0c0,0.8,0.1,1.6,0.3,2.3
				c0.2,0.7,0.6,1.3,1,1.8c0.4,0.5,0.9,0.9,1.5,1.1s1.2,0.4,2,0.4l0,0c0.8,0,1.5-0.2,2.1-0.5C289.9,78.2,290.3,77.7,290.6,77
				L290.6,77L290.6,77z M290.6,72.7v1.6c0,0.6-0.1,1.1-0.2,1.6c-0.2,0.5-0.4,0.8-0.6,1.1c-0.3,0.3-0.6,0.5-0.9,0.7
				c-0.4,0.2-0.7,0.2-1.1,0.2l0,0c-0.3,0-0.7-0.1-1.1-0.2c-0.4-0.1-0.7-0.3-1.1-0.7c-0.3-0.3-0.6-0.8-0.8-1.4
				c-0.2-0.6-0.3-1.4-0.3-2.3l0,0c0-1,0.1-1.8,0.4-2.4c0.3-0.6,0.6-1,0.9-1.3c0.4-0.3,0.7-0.5,1.1-0.6c0.4-0.1,0.7-0.1,0.9-0.1l0,0
				c0.5,0,0.9,0.1,1.2,0.3c0.4,0.2,0.7,0.5,0.9,0.8s0.4,0.7,0.6,1.2S290.6,72.2,290.6,72.7L290.6,72.7z M299.7,67.9L299.7,67.9
				c1,0,1.8,0.1,2.4,0.4c0.6,0.3,1,0.7,1.2,1.1c0.3,0.5,0.4,1,0.5,1.6c0,0.6,0.1,1.2,0.1,1.9l0,0v5.8h-1.7v-1
				c-0.4,0.4-0.9,0.7-1.6,0.9c-0.6,0.2-1.3,0.3-1.9,0.3l0,0c-0.6,0-1.1-0.1-1.6-0.3c-0.5-0.2-0.9-0.5-1.2-0.8
				c-0.3-0.3-0.5-0.7-0.7-1.1c-0.2-0.4-0.2-0.9-0.2-1.3l0,0c0-0.5,0.1-0.9,0.3-1.4s0.4-0.9,0.8-1.2c0.3-0.4,0.8-0.7,1.2-0.9
				c0.5-0.2,1.1-0.3,1.7-0.3l0,0c0.6,0,1.2,0.1,1.8,0.4c0.6,0.2,1,0.6,1.4,1l0,0v-0.9c0-1.2-0.2-2-0.5-2.6c-0.3-0.6-1-0.8-1.9-0.8
				l0,0c-0.4,0-0.7,0-1,0.1s-0.6,0.2-0.8,0.4c-0.2,0.2-0.4,0.4-0.6,0.7c-0.2,0.3-0.4,0.6-0.6,0.9l0,0l-1.1-1.1
				c0.2-0.2,0.4-0.4,0.6-0.6s0.5-0.4,0.8-0.6c0.3-0.2,0.7-0.3,1.1-0.4S299.1,67.9,299.7,67.9z M302.1,76.2v-1.6
				c-0.1-0.2-0.2-0.4-0.3-0.6c-0.1-0.2-0.3-0.4-0.5-0.7s-0.5-0.4-0.8-0.5c-0.3-0.1-0.6-0.2-1.1-0.2l0,0c-0.4,0-0.8,0.1-1.1,0.2
				s-0.6,0.4-0.9,0.6c-0.2,0.3-0.4,0.6-0.5,0.9c-0.1,0.4-0.2,0.7-0.2,1.1l0,0c0,0.5,0.1,0.8,0.2,1.2c0.2,0.3,0.4,0.6,0.6,0.8
				c0.3,0.2,0.5,0.4,0.8,0.5c0.3,0.1,0.6,0.2,0.9,0.2l0,0c0.3,0,0.5,0,0.8-0.1c0.3-0.1,0.5-0.2,0.8-0.4c0.2-0.2,0.5-0.4,0.7-0.6
				C301.8,76.7,302,76.5,302.1,76.2L302.1,76.2z M314.3,78.7h1.8v-6.9c0-0.3,0-0.6-0.1-1s-0.2-0.9-0.4-1.3c-0.2-0.4-0.6-0.8-1.1-1.1
				c-0.5-0.3-1.2-0.5-2.2-0.5l0,0c-0.4,0-0.9,0.1-1.4,0.2s-1,0.5-1.5,1l0,0l-0.3,0.3H309v-1.4h-1.8v10.6h1.8v-6.5
				c0-0.6,0.1-1,0.2-1.4c0.2-0.4,0.4-0.7,0.6-1c0.3-0.3,0.6-0.5,0.9-0.6c0.3-0.1,0.7-0.2,1.1-0.2l0,0c0.6,0,1.1,0.1,1.4,0.3
				c0.3,0.2,0.6,0.5,0.7,0.8c0.1,0.3,0.2,0.6,0.3,0.9c0,0.3,0,0.5,0,0.7l0,0V78.7z M329.7,78.7v-7.4h8.9v7.4h1.9V63.9h-1.9v6.5h-8.9
				v-6.5h-1.9v14.8H329.7z M355.1,73.5L355.1,73.5c0,0.7-0.1,1.4-0.4,2.1c-0.3,0.7-0.6,1.3-1.1,1.8c-0.5,0.5-1,0.9-1.7,1.2
				c-0.7,0.3-1.4,0.4-2.3,0.4l0,0c-0.8,0-1.6-0.2-2.3-0.5c-0.7-0.3-1.3-0.7-1.7-1.2c-0.5-0.5-0.8-1.1-1.1-1.8
				c-0.3-0.7-0.4-1.4-0.4-2.1l0,0c0-0.7,0.1-1.4,0.4-2.1c0.3-0.7,0.6-1.3,1.1-1.8c0.5-0.5,1.1-0.9,1.7-1.2c0.7-0.3,1.5-0.5,2.3-0.5
				l0,0c0.8,0,1.6,0.2,2.3,0.5c0.7,0.3,1.2,0.7,1.7,1.2c0.5,0.5,0.8,1.1,1.1,1.8C354.9,72,355.1,72.7,355.1,73.5z M353.1,73.5
				L353.1,73.5c0-1-0.1-1.8-0.3-2.4c-0.2-0.6-0.5-1.1-0.8-1.4c-0.3-0.3-0.7-0.6-1.1-0.7c-0.4-0.1-0.8-0.2-1.2-0.2l0,0
				c-0.4,0-0.8,0.1-1.2,0.2c-0.4,0.1-0.8,0.3-1.1,0.7c-0.3,0.3-0.6,0.8-0.8,1.4c-0.2,0.6-0.3,1.4-0.3,2.4l0,0c0,1,0.1,1.8,0.3,2.4
				c0.2,0.6,0.5,1.1,0.8,1.4c0.3,0.3,0.7,0.6,1.1,0.7c0.4,0.1,0.8,0.2,1.2,0.2l0,0c0.4,0,0.8-0.1,1.2-0.2c0.4-0.1,0.8-0.3,1.1-0.7
				c0.3-0.3,0.6-0.8,0.8-1.4C353,75.2,353.1,74.4,353.1,73.5z M360,78.7V63.9h-1.8v14.8H360z M366.1,78.7V63.9h-1.8v14.8H366.1z
				 M373.8,67.9L373.8,67.9c1,0,1.8,0.1,2.4,0.4c0.6,0.3,1,0.7,1.2,1.1c0.3,0.5,0.4,1,0.5,1.6c0,0.6,0.1,1.2,0.1,1.9l0,0v5.8h-1.7
				v-1c-0.4,0.4-0.9,0.7-1.6,0.9c-0.6,0.2-1.3,0.3-1.9,0.3l0,0c-0.6,0-1.1-0.1-1.6-0.3c-0.5-0.2-0.9-0.5-1.2-0.8
				c-0.3-0.3-0.5-0.7-0.7-1.1c-0.2-0.4-0.2-0.9-0.2-1.3l0,0c0-0.5,0.1-0.9,0.3-1.4s0.4-0.9,0.8-1.2c0.3-0.4,0.8-0.7,1.2-0.9
				c0.5-0.2,1.1-0.3,1.7-0.3l0,0c0.6,0,1.2,0.1,1.8,0.4c0.6,0.2,1,0.6,1.4,1l0,0v-0.9c0-1.2-0.2-2-0.5-2.6c-0.3-0.6-1-0.8-1.9-0.8
				l0,0c-0.4,0-0.7,0-1,0.1s-0.6,0.2-0.8,0.4c-0.2,0.2-0.4,0.4-0.6,0.7c-0.2,0.3-0.4,0.6-0.6,0.9l0,0l-1.1-1.1
				c0.2-0.2,0.4-0.4,0.6-0.6c0.2-0.2,0.5-0.4,0.8-0.6c0.3-0.2,0.7-0.3,1.1-0.4S373.2,67.9,373.8,67.9z M376.2,76.2v-1.6
				c-0.1-0.2-0.2-0.4-0.3-0.6c-0.1-0.2-0.3-0.4-0.5-0.7c-0.2-0.2-0.5-0.4-0.8-0.5c-0.3-0.1-0.6-0.2-1.1-0.2l0,0
				c-0.4,0-0.8,0.1-1.1,0.2s-0.6,0.4-0.9,0.6c-0.2,0.3-0.4,0.6-0.5,0.9c-0.1,0.4-0.2,0.7-0.2,1.1l0,0c0,0.5,0.1,0.8,0.2,1.2
				c0.2,0.3,0.4,0.6,0.6,0.8c0.3,0.2,0.5,0.4,0.8,0.5c0.3,0.1,0.6,0.2,0.9,0.2l0,0c0.3,0,0.5,0,0.8-0.1c0.3-0.1,0.5-0.2,0.8-0.4
				c0.2-0.2,0.5-0.4,0.7-0.6S376.1,76.5,376.2,76.2L376.2,76.2z M388.4,78.7h1.8v-6.9c0-0.3,0-0.6-0.1-1c0-0.4-0.2-0.9-0.4-1.3
				c-0.2-0.4-0.6-0.8-1.1-1.1c-0.5-0.3-1.2-0.5-2.2-0.5l0,0c-0.4,0-0.9,0.1-1.4,0.2c-0.5,0.2-1,0.5-1.5,1l0,0l-0.3,0.3h-0.1v-1.4
				h-1.8v10.6h1.8v-6.5c0-0.6,0.1-1,0.2-1.4c0.2-0.4,0.4-0.7,0.6-1c0.3-0.3,0.6-0.5,0.9-0.6c0.3-0.1,0.7-0.2,1.1-0.2l0,0
				c0.6,0,1.1,0.1,1.4,0.3c0.3,0.2,0.6,0.5,0.7,0.8c0.1,0.3,0.2,0.6,0.3,0.9c0,0.3,0,0.5,0,0.7l0,0V78.7z M403,78.7V63.9h-1.8v6
				h-0.1c-0.1-0.4-0.3-0.7-0.6-0.9c-0.2-0.2-0.5-0.4-0.8-0.6s-0.6-0.3-0.9-0.3c-0.3-0.1-0.7-0.1-1-0.1l0,0c-0.7,0-1.4,0.1-1.9,0.4
				s-1.1,0.6-1.5,1.1c-0.4,0.5-0.8,1.1-1,1.7c-0.2,0.7-0.4,1.4-0.4,2.3l0,0c0,0.8,0.1,1.6,0.4,2.3c0.2,0.7,0.6,1.3,1,1.8
				c0.4,0.5,0.9,0.9,1.5,1.1s1.2,0.4,1.9,0.4l0,0c1.7,0,2.8-0.7,3.3-2l0,0h0.1v1.7H403z M401.2,72.7v1.8c0,0.5-0.1,0.9-0.2,1.3
				c-0.2,0.4-0.4,0.8-0.6,1.1c-0.3,0.3-0.6,0.5-0.9,0.7c-0.4,0.2-0.7,0.3-1.2,0.3l0,0c-0.5,0-0.9-0.1-1.3-0.2
				c-0.4-0.2-0.7-0.4-1-0.8c-0.3-0.4-0.5-0.8-0.7-1.4c-0.2-0.6-0.3-1.2-0.3-2l0,0c0-0.8,0.1-1.5,0.3-2.1c0.2-0.6,0.4-1,0.7-1.4
				c0.3-0.4,0.7-0.6,1-0.8c0.4-0.2,0.8-0.2,1.2-0.2l0,0c0.4,0,0.8,0.1,1.1,0.2c0.4,0.2,0.7,0.4,0.9,0.7c0.3,0.3,0.5,0.7,0.6,1.2
				C401.1,71.6,401.2,72.1,401.2,72.7L401.2,72.7z M415.8,60h-1.5v24h1.5V60z M437.4,78.7h-9.6V63.9h1.9v13.7h7.6V78.7z M441.1,73.9
				h8v-0.4c0-0.9-0.1-1.8-0.4-2.5c-0.3-0.7-0.6-1.3-1.1-1.7c-0.5-0.5-1-0.8-1.6-1c-0.6-0.2-1.2-0.3-1.9-0.3l0,0
				c-0.7,0-1.4,0.1-2,0.4c-0.6,0.2-1.1,0.6-1.6,1.1c-0.5,0.5-0.8,1-1.1,1.7c-0.3,0.7-0.4,1.4-0.4,2.3l0,0c0,0.7,0.1,1.4,0.3,2.1
				c0.2,0.7,0.6,1.3,1,1.8c0.4,0.5,1,1,1.7,1.3s1.5,0.5,2.4,0.5l0,0c0.9,0,1.7-0.2,2.5-0.5c0.8-0.3,1.4-0.8,2-1.4l0,0l-0.7-0.7
				c-0.3,0.3-0.6,0.5-0.8,0.7c-0.3,0.2-0.5,0.4-0.8,0.5c-0.3,0.1-0.5,0.3-0.8,0.3c-0.3,0.1-0.6,0.1-1,0.1l0,0
				c-0.4,0-0.8-0.1-1.3-0.2c-0.4-0.1-0.9-0.3-1.2-0.6c-0.4-0.3-0.7-0.7-1-1.3C441.2,75.5,441.1,74.8,441.1,73.9L441.1,73.9z
				 M447.3,73.1h-6.2c0-0.6,0.1-1.1,0.2-1.6c0.1-0.5,0.3-1,0.6-1.4s0.6-0.7,0.9-1c0.4-0.2,0.8-0.4,1.4-0.4l0,0c1,0,1.8,0.4,2.3,1.2
				C447,70.6,447.3,71.7,447.3,73.1L447.3,73.1z M455.8,67.9L455.8,67.9c1,0,1.8,0.1,2.4,0.4c0.6,0.3,1,0.7,1.2,1.1
				c0.3,0.5,0.4,1,0.5,1.6c0,0.6,0.1,1.2,0.1,1.9l0,0v5.8h-1.7v-1c-0.4,0.4-0.9,0.7-1.6,0.9c-0.6,0.2-1.3,0.3-1.9,0.3l0,0
				c-0.6,0-1.1-0.1-1.6-0.3c-0.5-0.2-0.9-0.5-1.2-0.8c-0.3-0.3-0.5-0.7-0.7-1.1s-0.2-0.9-0.2-1.3l0,0c0-0.5,0.1-0.9,0.3-1.4
				s0.4-0.9,0.8-1.2s0.8-0.7,1.2-0.9c0.5-0.2,1.1-0.3,1.7-0.3l0,0c0.6,0,1.2,0.1,1.8,0.4c0.6,0.2,1,0.6,1.4,1l0,0v-0.9
				c0-1.2-0.2-2-0.5-2.6c-0.3-0.6-1-0.8-1.9-0.8l0,0c-0.4,0-0.7,0-1,0.1c-0.3,0.1-0.6,0.2-0.8,0.4c-0.2,0.2-0.4,0.4-0.6,0.7
				c-0.2,0.3-0.4,0.6-0.6,0.9l0,0l-1.1-1.1c0.2-0.2,0.4-0.4,0.6-0.6s0.5-0.4,0.8-0.6c0.3-0.2,0.7-0.3,1.1-0.4
				C454.6,68,455.2,67.9,455.8,67.9z M458.2,76.2v-1.6c-0.1-0.2-0.2-0.4-0.3-0.6c-0.1-0.2-0.3-0.4-0.5-0.7c-0.2-0.2-0.5-0.4-0.8-0.5
				c-0.3-0.1-0.6-0.2-1.1-0.2l0,0c-0.4,0-0.8,0.1-1.1,0.2c-0.3,0.2-0.6,0.4-0.9,0.6c-0.2,0.3-0.4,0.6-0.5,0.9
				c-0.1,0.4-0.2,0.7-0.2,1.1l0,0c0,0.5,0.1,0.8,0.2,1.2c0.2,0.3,0.4,0.6,0.6,0.8c0.3,0.2,0.5,0.4,0.8,0.5c0.3,0.1,0.6,0.2,0.9,0.2
				l0,0c0.3,0,0.5,0,0.8-0.1c0.3-0.1,0.5-0.2,0.8-0.4c0.2-0.2,0.5-0.4,0.7-0.6S458.1,76.5,458.2,76.2L458.2,76.2z M472.7,78.7V63.9
				h-1.8v6h-0.1c-0.1-0.4-0.3-0.7-0.6-0.9c-0.2-0.2-0.5-0.4-0.8-0.6s-0.6-0.3-0.9-0.3c-0.3-0.1-0.7-0.1-1-0.1l0,0
				c-0.7,0-1.4,0.1-1.9,0.4c-0.6,0.3-1.1,0.6-1.5,1.1c-0.4,0.5-0.8,1.1-1,1.7c-0.2,0.7-0.4,1.4-0.4,2.3l0,0c0,0.8,0.1,1.6,0.4,2.3
				c0.2,0.7,0.6,1.3,1,1.8c0.4,0.5,0.9,0.9,1.5,1.1c0.6,0.3,1.2,0.4,1.9,0.4l0,0c1.7,0,2.8-0.7,3.3-2l0,0h0.1v1.7H472.7z
				 M470.9,72.7v1.8c0,0.5-0.1,0.9-0.2,1.3c-0.2,0.4-0.4,0.8-0.6,1.1c-0.3,0.3-0.6,0.5-0.9,0.7c-0.4,0.2-0.7,0.3-1.2,0.3l0,0
				c-0.5,0-0.9-0.1-1.3-0.2c-0.4-0.2-0.7-0.4-1-0.8c-0.3-0.4-0.5-0.8-0.7-1.4c-0.2-0.6-0.3-1.2-0.3-2l0,0c0-0.8,0.1-1.5,0.3-2.1
				c0.2-0.6,0.4-1,0.7-1.4c0.3-0.4,0.7-0.6,1-0.8c0.4-0.2,0.8-0.2,1.2-0.2l0,0c0.4,0,0.8,0.1,1.1,0.2c0.4,0.2,0.7,0.4,0.9,0.7
				c0.3,0.3,0.5,0.7,0.6,1.2C470.8,71.6,470.9,72.1,470.9,72.7L470.9,72.7z M497.9,78.7v-6.6h-4.2V73h2.4v3.8
				c-0.6,0.4-1.3,0.7-1.9,0.9c-0.7,0.2-1.4,0.3-2.3,0.3l0,0c-1.1,0-2.1-0.2-2.9-0.5c-0.8-0.3-1.5-0.8-2.1-1.4
				c-0.6-0.6-1-1.3-1.2-2.1c-0.3-0.8-0.4-1.7-0.4-2.7l0,0c0-1,0.1-1.9,0.4-2.7c0.3-0.8,0.7-1.5,1.2-2.1c0.5-0.6,1.2-1.1,1.9-1.4
				s1.6-0.5,2.6-0.5l0,0c0.7,0,1.3,0.1,1.9,0.2c0.6,0.1,1.1,0.3,1.5,0.6c0.5,0.2,0.8,0.5,1.1,0.8c0.3,0.3,0.5,0.6,0.6,0.9l0,0h1.5
				c-0.1-0.3-0.3-0.7-0.6-1c-0.3-0.4-0.7-0.8-1.2-1.1s-1.2-0.6-1.9-0.9c-0.8-0.2-1.7-0.3-2.7-0.3l0,0c-1.2,0-2.3,0.2-3.3,0.5
				c-1,0.3-1.9,0.8-2.6,1.5c-0.7,0.6-1.3,1.4-1.7,2.3c-0.4,0.9-0.6,2-0.6,3.1l0,0c0,1,0.2,2,0.5,2.9c0.3,0.9,0.8,1.8,1.5,2.5
				c0.7,0.7,1.5,1.3,2.5,1.8s2.2,0.7,3.6,0.7l0,0c1.1,0,2-0.1,2.8-0.3s1.5-0.5,2-0.8l0,0v0.9H497.9z M502.6,68.1h-1.8V75
				c0,0.3,0,0.6,0.1,1c0,0.4,0.2,0.9,0.4,1.3c0.2,0.4,0.6,0.8,1.1,1.1c0.5,0.3,1.2,0.5,2.2,0.5l0,0c0.4,0,0.9-0.1,1.3-0.2
				c0.5-0.2,1-0.5,1.5-1l0,0l0.3-0.3h0.1v1.3h1.8V68.1h-1.8v6.6c0,0.6-0.1,1-0.2,1.4c-0.2,0.4-0.4,0.7-0.6,1
				c-0.3,0.3-0.6,0.5-0.9,0.6c-0.3,0.1-0.7,0.2-1.1,0.2l0,0c-0.6,0-1.1-0.1-1.4-0.3c-0.3-0.2-0.6-0.5-0.7-0.8
				c-0.2-0.3-0.3-0.6-0.3-0.9c0-0.3,0-0.5,0-0.7l0,0V68.1z M515.6,68.1h-1.8v10.6h1.8V68.1z M513.5,64.8L513.5,64.8
				c0,0.3,0.1,0.6,0.3,0.8c0.2,0.2,0.5,0.3,0.8,0.3l0,0c0.3,0,0.6-0.1,0.8-0.3c0.2-0.2,0.3-0.5,0.3-0.8l0,0c0-0.3-0.1-0.6-0.3-0.8
				c-0.2-0.2-0.5-0.3-0.8-0.3l0,0c-0.3,0-0.6,0.1-0.8,0.3C513.7,64.2,513.5,64.5,513.5,64.8z M520.4,69h-1.8v-0.8h1.8v-3.3h1.8v3.3
				h2.6V69h-2.6v7c0,0.2,0,0.4,0,0.6c0,0.2,0.1,0.4,0.1,0.6s0.2,0.3,0.3,0.5c0.1,0.1,0.4,0.2,0.6,0.2l0,0c0.3,0,0.6-0.1,0.8-0.4
				c0.2-0.3,0.4-0.5,0.6-0.8l0,0l1,1c-0.7,0.7-1.5,1-2.3,1l0,0c-0.4,0-0.7-0.1-1.1-0.2s-0.7-0.3-0.9-0.6c-0.3-0.3-0.5-0.6-0.7-1
				s-0.3-0.9-0.3-1.4l0,0V69z M531.5,67.9L531.5,67.9c1,0,1.8,0.1,2.4,0.4c0.6,0.3,1,0.7,1.2,1.1c0.3,0.5,0.4,1,0.5,1.6
				c0,0.6,0.1,1.2,0.1,1.9l0,0v5.8h-1.7v-1c-0.4,0.4-0.9,0.7-1.6,0.9s-1.3,0.3-1.9,0.3l0,0c-0.6,0-1.1-0.1-1.6-0.3s-0.9-0.5-1.2-0.8
				c-0.3-0.3-0.5-0.7-0.7-1.1c-0.2-0.4-0.2-0.9-0.2-1.3l0,0c0-0.5,0.1-0.9,0.3-1.4c0.2-0.5,0.4-0.9,0.8-1.2c0.3-0.4,0.8-0.7,1.2-0.9
				c0.5-0.2,1.1-0.3,1.7-0.3l0,0c0.6,0,1.2,0.1,1.8,0.4c0.6,0.2,1,0.6,1.4,1l0,0v-0.9c0-1.2-0.2-2-0.5-2.6c-0.3-0.6-1-0.8-1.9-0.8
				l0,0c-0.4,0-0.7,0-1,0.1c-0.3,0.1-0.6,0.2-0.8,0.4c-0.2,0.2-0.4,0.4-0.6,0.7c-0.2,0.3-0.4,0.6-0.6,0.9l0,0l-1.1-1.1
				c0.2-0.2,0.4-0.4,0.6-0.6s0.5-0.4,0.8-0.6c0.3-0.2,0.7-0.3,1.1-0.4C530.3,68,530.8,67.9,531.5,67.9z M533.9,76.2v-1.6
				c-0.1-0.2-0.2-0.4-0.3-0.6c-0.1-0.2-0.3-0.4-0.5-0.7c-0.2-0.2-0.5-0.4-0.8-0.5c-0.3-0.1-0.6-0.2-1.1-0.2l0,0
				c-0.4,0-0.8,0.1-1.1,0.2s-0.6,0.4-0.9,0.6c-0.2,0.3-0.4,0.6-0.5,0.9c-0.1,0.4-0.2,0.7-0.2,1.1l0,0c0,0.5,0.1,0.8,0.2,1.2
				c0.2,0.3,0.4,0.6,0.6,0.8s0.5,0.4,0.8,0.5c0.3,0.1,0.6,0.2,0.9,0.2l0,0c0.3,0,0.5,0,0.8-0.1c0.3-0.1,0.5-0.2,0.8-0.4
				c0.2-0.2,0.5-0.4,0.7-0.6C533.6,76.7,533.8,76.5,533.9,76.2L533.9,76.2z M540.8,68.1H539v10.6h1.8v-6.4c0-0.6,0.1-1.1,0.2-1.5
				c0.1-0.4,0.3-0.7,0.5-1c0.2-0.3,0.4-0.4,0.7-0.6c0.3-0.1,0.5-0.2,0.7-0.2l0,0c0.3,0,0.6,0.1,0.9,0.3c0.3,0.2,0.5,0.4,0.6,0.6l0,0
				l0.7-1.3c-0.1-0.2-0.3-0.3-0.5-0.4c-0.2-0.1-0.4-0.2-0.5-0.3c-0.2-0.1-0.3-0.1-0.5-0.1c-0.1,0-0.3,0-0.3,0l0,0
				c-0.6,0-1.1,0.2-1.5,0.5c-0.4,0.3-0.7,0.8-1,1.4l0,0h-0.1V68.1z"/>
		</g>
	</g>
</g>
</svg>
