<?xml version="1.0" encoding="utf-8"?>
<!-- Generator: Adobe Illustrator 24.2.1, SVG Export Plug-In . SVG Version: 6.00 Build 0)  -->
<svg version="1.1" id="Layer_1" xmlns="http://www.w3.org/2000/svg" xmlns:xlink="http://www.w3.org/1999/xlink" x="0px" y="0px"
	 viewBox="0 0 388.2 62" style="enable-background:new 0 0 388.2 62;" xml:space="preserve">
<style type="text/css">
	.st0{fill:#B49167;}
</style>
<g>
	<g transform="rotate(0 27.959 48)">
		<g transform="matrix(1 0 0 1 0 0)">
			<path class="st0" d="M34.9,57.7c0.2,0,0.3,0,0.4,0.1c0.1,0.1,0.1,0.2,0.1,0.4l0,0c0,0.1,0,0.3-0.1,0.4c-0.1,0.1-0.2,0.1-0.4,0.1
				l0,0h-6.4c-0.1,0-0.3-0.1-0.4-0.2S28,58.4,28,58.2l0,0v-9.6c0-0.2,0.1-0.3,0.2-0.4c0.1-0.1,0.2-0.1,0.4-0.1l0,0h6.4
				c0.2,0,0.3,0,0.4,0.1c0.1,0.1,0.1,0.2,0.1,0.4l0,0c0,0.1,0,0.3-0.1,0.4c-0.1,0.1-0.2,0.1-0.4,0.1l0,0H29v3.8h4.3
				c0.2,0,0.3,0,0.4,0.1c0.1,0.1,0.1,0.2,0.1,0.4l0,0c0,0.1-0.1,0.3-0.2,0.4c-0.1,0.1-0.2,0.1-0.4,0.1l0,0H29v3.8H34.9z M44.4,51.4
				c0.2,0.1,0.3,0.2,0.3,0.4l0,0c0,0.1,0,0.1,0,0.2l0,0l-3,6.4c-0.1,0.2-0.3,0.4-0.5,0.4l0,0c-0.2,0-0.4-0.1-0.5-0.4l0,0l-3-6.4
				c0-0.1,0-0.1,0-0.2l0,0c0-0.2,0.1-0.3,0.3-0.4l0,0c0.1,0,0.1-0.1,0.2-0.1l0,0c0.1,0,0.2,0,0.3,0.1c0.1,0,0.1,0.1,0.2,0.2l0,0
				l2.6,5.7l2.6-5.7c0-0.1,0.1-0.2,0.2-0.2c0.1,0,0.2-0.1,0.3-0.1l0,0C44.3,51.3,44.3,51.3,44.4,51.4L44.4,51.4z M50.4,51.3
				c0.7,0,1.3,0.2,1.8,0.5c0.5,0.3,0.9,0.7,1.2,1.3s0.4,1.2,0.4,1.9l0,0c0,0.1,0,0.3-0.1,0.3c-0.1,0.1-0.2,0.1-0.4,0.1l0,0h-5.5
				c0.1,0.7,0.4,1.3,0.9,1.8s1.1,0.7,1.9,0.7l0,0c0.3,0,0.7-0.1,1-0.2c0.3-0.1,0.6-0.3,0.8-0.4l0,0c0.1-0.1,0.2-0.1,0.4-0.1l0,0
				c0.1,0,0.2,0,0.3,0.1l0,0c0.1,0.1,0.2,0.2,0.2,0.4l0,0c0,0.1,0,0.2-0.1,0.3l0,0c-0.3,0.3-0.7,0.5-1.1,0.6
				c-0.5,0.2-0.9,0.3-1.3,0.3l0,0c-0.7,0-1.4-0.2-1.9-0.5c-0.6-0.3-1-0.8-1.3-1.3c-0.3-0.6-0.5-1.2-0.5-2l0,0c0-0.7,0.2-1.4,0.5-2
				c0.3-0.6,0.7-1,1.3-1.3C49.1,51.4,49.7,51.3,50.4,51.3L50.4,51.3z M50.4,52.2c-0.7,0-1.3,0.2-1.7,0.6s-0.7,1-0.8,1.7l0,0h5
				c-0.1-0.7-0.3-1.3-0.8-1.7C51.6,52.4,51.1,52.2,50.4,52.2L50.4,52.2z M60.3,51.2c0.4,0,0.7,0,0.9,0.1c0.2,0.1,0.3,0.2,0.3,0.4
				l0,0c0,0.1,0,0.1,0,0.1l0,0c0,0.1-0.1,0.2-0.2,0.3c-0.1,0-0.2,0.1-0.3,0.1l0,0c-0.1,0-0.2,0-0.4,0l0,0c-0.1,0-0.2,0-0.3,0l0,0
				c-0.7,0-1.2,0.2-1.7,0.5c-0.4,0.4-0.6,0.8-0.6,1.4l0,0v4.1c0,0.2,0,0.3-0.1,0.4c-0.1,0.1-0.2,0.1-0.4,0.1l0,0
				c-0.2,0-0.3,0-0.4-0.1s-0.1-0.2-0.1-0.4l0,0v-6.4c0-0.2,0-0.3,0.1-0.4s0.2-0.1,0.4-0.1l0,0c0.2,0,0.3,0,0.4,0.1
				c0.1,0.1,0.1,0.2,0.1,0.4l0,0v0.6c0.3-0.4,0.6-0.7,1-0.9C59.4,51.3,59.8,51.2,60.3,51.2L60.3,51.2z M70.3,51.4
				c0.2,0.1,0.3,0.2,0.3,0.4l0,0c0,0.1,0,0.2-0.1,0.2l0,0l-4.4,9.7C66.1,61.9,66,62,65.8,62l0,0c-0.1,0-0.2,0-0.2-0.1l0,0
				c-0.2-0.1-0.3-0.2-0.3-0.4l0,0c0-0.1,0-0.2,0.1-0.2l0,0l1.3-3v0l-3-6.3c0-0.1-0.1-0.2-0.1-0.2l0,0c0-0.2,0.1-0.3,0.3-0.4l0,0
				c0.1,0,0.2-0.1,0.2-0.1l0,0c0.2,0,0.3,0.1,0.4,0.3l0,0l2.7,5.6l2.5-5.6c0.1-0.2,0.2-0.3,0.4-0.3l0,0
				C70.2,51.3,70.2,51.3,70.3,51.4L70.3,51.4z M85.7,48.1c0.1,0,0.3,0,0.4,0.1s0.1,0.2,0.1,0.4l0,0c0,0.1,0,0.2-0.1,0.3
				s-0.2,0.1-0.4,0.1l0,0h-3.2v9.1c0,0.1,0,0.3-0.1,0.4s-0.2,0.2-0.4,0.2l0,0c-0.1,0-0.3-0.1-0.4-0.2c-0.1-0.1-0.2-0.2-0.2-0.4l0,0
				v-9.1h-3.2c-0.1,0-0.3,0-0.4-0.1s-0.1-0.2-0.1-0.3l0,0c0-0.1,0-0.3,0.1-0.4s0.2-0.1,0.4-0.1l0,0H85.7z M90.3,51.3
				c0.7,0,1.4,0.2,1.9,0.5s1,0.8,1.4,1.4c0.3,0.6,0.5,1.2,0.5,1.9l0,0c0,0.7-0.2,1.4-0.5,1.9c-0.3,0.6-0.8,1-1.4,1.4
				c-0.6,0.3-1.2,0.5-1.9,0.5l0,0c-0.7,0-1.4-0.2-1.9-0.5c-0.6-0.3-1-0.8-1.4-1.4c-0.3-0.6-0.5-1.2-0.5-1.9l0,0
				c0-0.7,0.2-1.4,0.5-1.9c0.3-0.6,0.8-1,1.4-1.4C88.9,51.4,89.6,51.3,90.3,51.3L90.3,51.3z M90.3,52.2c-0.5,0-1,0.1-1.4,0.4
				c-0.4,0.2-0.8,0.6-1,1c-0.2,0.4-0.4,0.9-0.4,1.5l0,0c0,0.5,0.1,1,0.4,1.4c0.2,0.4,0.6,0.8,1,1c0.4,0.2,0.9,0.4,1.4,0.4l0,0
				c0.5,0,1-0.1,1.4-0.4c0.4-0.2,0.7-0.6,1-1c0.2-0.4,0.4-0.9,0.4-1.4l0,0c0-0.5-0.1-1-0.4-1.5s-0.6-0.8-1-1
				C91.3,52.3,90.8,52.2,90.3,52.2L90.3,52.2z M100.8,51.3c0.7,0,1.4,0.2,1.9,0.5c0.6,0.3,1,0.8,1.4,1.4c0.3,0.6,0.5,1.2,0.5,1.9
				l0,0c0,0.7-0.2,1.4-0.5,1.9c-0.3,0.6-0.8,1-1.4,1.4s-1.2,0.5-1.9,0.5l0,0c-0.7,0-1.4-0.2-1.9-0.5s-1-0.8-1.4-1.4
				c-0.3-0.6-0.5-1.2-0.5-1.9l0,0c0-0.7,0.2-1.4,0.5-1.9c0.3-0.6,0.8-1,1.4-1.4S100.1,51.3,100.8,51.3L100.8,51.3z M100.8,52.2
				c-0.5,0-1,0.1-1.4,0.4c-0.4,0.2-0.8,0.6-1,1c-0.2,0.4-0.4,0.9-0.4,1.5l0,0c0,0.5,0.1,1,0.4,1.4c0.2,0.4,0.6,0.8,1,1
				c0.4,0.2,0.9,0.4,1.4,0.4l0,0c0.5,0,1-0.1,1.4-0.4c0.4-0.2,0.7-0.6,1-1c0.2-0.4,0.4-0.9,0.4-1.4l0,0c0-0.5-0.1-1-0.4-1.5
				c-0.2-0.4-0.6-0.8-1-1C101.8,52.3,101.4,52.2,100.8,52.2L100.8,52.2z M107.8,48.7c0-0.2,0-0.3,0.1-0.4s0.2-0.1,0.4-0.1l0,0
				c0.2,0,0.3,0,0.4,0.1c0.1,0.1,0.1,0.2,0.1,0.4l0,0v7.8c0,0.4,0.1,0.7,0.2,1c0.2,0.2,0.4,0.4,0.6,0.4l0,0h0.3c0.1,0,0.2,0,0.3,0.1
				s0.1,0.2,0.1,0.4l0,0c0,0.2-0.1,0.3-0.2,0.4s-0.3,0.1-0.4,0.1l0,0h-0.2c-0.6,0-1-0.2-1.4-0.7c-0.3-0.4-0.5-1-0.5-1.7l0,0V48.7z
				 M113.2,51.7c0,0,0,0.1,0,0.1l0,0V55c0,0.7,0.2,1.4,0.5,1.9c0.3,0.6,0.8,1,1.4,1.4c0.6,0.3,1.2,0.5,1.9,0.5l0,0
				c0.7,0,1.3-0.2,1.9-0.5c0.6-0.3,1-0.8,1.4-1.4c0.3-0.6,0.5-1.2,0.5-1.9l0,0c0-0.7-0.2-1.3-0.5-1.9c-0.3-0.6-0.8-1-1.3-1.4
				c-0.6-0.3-1.2-0.5-1.9-0.5l0,0c-0.6,0-1.1,0.1-1.6,0.4c-0.5,0.2-0.9,0.6-1.2,1l0,0v-4c0-0.2,0-0.3-0.1-0.4
				c-0.1-0.1-0.2-0.1-0.4-0.1l0,0c-0.2,0-0.3,0-0.4,0.1c-0.1,0.1-0.1,0.2-0.1,0.4l0,0V51.7z M117,57.9c-0.5,0-1-0.1-1.4-0.4
				c-0.4-0.2-0.7-0.6-1-1c-0.2-0.4-0.4-0.9-0.4-1.4l0,0c0-0.2,0-0.3,0-0.3l0,0c0,0,0,0,0-0.1l0,0c0.1-0.7,0.4-1.3,0.9-1.7
				c0.5-0.5,1.1-0.7,1.8-0.7l0,0c0.5,0,1,0.1,1.4,0.4c0.4,0.2,0.8,0.6,1,1c0.2,0.4,0.4,0.9,0.4,1.4l0,0c0,0.5-0.1,1-0.4,1.4
				c-0.2,0.4-0.6,0.8-1,1C118,57.8,117.5,57.9,117,57.9L117,57.9z M127.6,51.3c0.7,0,1.4,0.2,1.9,0.5s1,0.8,1.4,1.4
				c0.3,0.6,0.5,1.2,0.5,1.9l0,0c0,0.7-0.2,1.4-0.5,1.9c-0.3,0.6-0.8,1-1.4,1.4s-1.2,0.5-1.9,0.5l0,0c-0.7,0-1.4-0.2-1.9-0.5
				s-1-0.8-1.4-1.4c-0.3-0.6-0.5-1.2-0.5-1.9l0,0c0-0.7,0.2-1.4,0.5-1.9c0.3-0.6,0.8-1,1.4-1.4S126.9,51.3,127.6,51.3L127.6,51.3z
				 M127.6,52.2c-0.5,0-1,0.1-1.4,0.4c-0.4,0.2-0.8,0.6-1,1c-0.2,0.4-0.4,0.9-0.4,1.5l0,0c0,0.5,0.1,1,0.4,1.4c0.2,0.4,0.6,0.8,1,1
				c0.4,0.2,0.9,0.4,1.4,0.4l0,0c0.5,0,1-0.1,1.4-0.4c0.4-0.2,0.7-0.6,1-1c0.2-0.4,0.4-0.9,0.4-1.4l0,0c0-0.5-0.1-1-0.4-1.5
				c-0.2-0.4-0.6-0.8-1-1C128.6,52.3,128.1,52.2,127.6,52.2L127.6,52.2z M139.6,57.9c0.1,0.1,0.1,0.2,0.1,0.4l0,0
				c0,0.1,0,0.2-0.1,0.3c-0.1,0.1-0.2,0.1-0.3,0.1l0,0c-0.1,0-0.2,0-0.3-0.1s-0.1-0.1-0.2-0.2l0,0l-2.2-2.8l-2.3,2.9
				c-0.1,0.1-0.2,0.2-0.4,0.2l0,0c-0.1,0-0.3,0-0.3-0.1s-0.1-0.2-0.1-0.3l0,0c0-0.1,0-0.3,0.1-0.4l0,0l2.4-2.9l-2.2-2.8
				c-0.1-0.1-0.1-0.2-0.1-0.4l0,0c0-0.1,0-0.2,0.1-0.3c0.1-0.1,0.2-0.1,0.4-0.1l0,0c0.2,0,0.3,0.1,0.4,0.2l0,0l2.2,2.8l2.2-2.7
				c0.1-0.2,0.3-0.2,0.4-0.2l0,0c0.1,0,0.3,0,0.3,0.1c0.1,0.1,0.1,0.2,0.1,0.3l0,0c0,0.1,0,0.3-0.1,0.4l0,0l-2.3,2.8L139.6,57.9z
				 M155.8,48.7c0-0.2,0.1-0.3,0.2-0.4c0.1-0.1,0.2-0.1,0.4-0.1l0,0c0.2,0,0.3,0,0.4,0.1c0.1,0.1,0.1,0.2,0.1,0.4l0,0v9.6
				c0,0.1,0,0.3-0.1,0.4s-0.2,0.2-0.4,0.2l0,0c-0.2,0-0.3-0.1-0.4-0.2l0,0l-6.5-8.5v8.2c0,0.1,0,0.3-0.1,0.4s-0.2,0.2-0.4,0.2l0,0
				c-0.2,0-0.3,0-0.4-0.1s-0.1-0.2-0.1-0.4l0,0v-9.6c0-0.2,0-0.3,0.1-0.4c0.1-0.1,0.2-0.1,0.4-0.1l0,0c0.2,0,0.3,0.1,0.4,0.2l0,0
				l6.5,8.5V48.7z M164,51.3c0.7,0,1.3,0.2,1.8,0.5c0.5,0.3,0.9,0.7,1.2,1.3c0.3,0.6,0.4,1.2,0.4,1.9l0,0c0,0.1,0,0.3-0.1,0.3
				c-0.1,0.1-0.2,0.1-0.4,0.1l0,0h-5.5c0.1,0.7,0.4,1.3,0.9,1.8c0.5,0.5,1.1,0.7,1.9,0.7l0,0c0.3,0,0.7-0.1,1-0.2
				c0.3-0.1,0.6-0.3,0.8-0.4l0,0c0.1-0.1,0.2-0.1,0.4-0.1l0,0c0.1,0,0.2,0,0.3,0.1l0,0c0.1,0.1,0.2,0.2,0.2,0.4l0,0
				c0,0.1,0,0.2-0.1,0.3l0,0c-0.3,0.3-0.7,0.5-1.1,0.6s-0.9,0.3-1.3,0.3l0,0c-0.7,0-1.4-0.2-1.9-0.5c-0.6-0.3-1-0.8-1.3-1.3
				c-0.3-0.6-0.5-1.2-0.5-2l0,0c0-0.7,0.2-1.4,0.5-2c0.3-0.6,0.7-1,1.3-1.3S163.3,51.3,164,51.3L164,51.3z M164,52.2
				c-0.7,0-1.3,0.2-1.7,0.6s-0.7,1-0.8,1.7l0,0h5c-0.1-0.7-0.3-1.3-0.8-1.7S164.7,52.2,164,52.2L164,52.2z M173.4,51.3
				c0.7,0,1.3,0.2,1.8,0.5c0.5,0.3,0.9,0.7,1.2,1.3c0.3,0.6,0.4,1.2,0.4,1.9l0,0c0,0.1,0,0.3-0.1,0.3c-0.1,0.1-0.2,0.1-0.4,0.1l0,0
				h-5.5c0.1,0.7,0.4,1.3,0.9,1.8c0.5,0.5,1.1,0.7,1.9,0.7l0,0c0.3,0,0.7-0.1,1-0.2c0.3-0.1,0.6-0.3,0.8-0.4l0,0
				c0.1-0.1,0.2-0.1,0.4-0.1l0,0c0.1,0,0.2,0,0.3,0.1l0,0c0.1,0.1,0.2,0.2,0.2,0.4l0,0c0,0.1,0,0.2-0.1,0.3l0,0
				c-0.3,0.3-0.7,0.5-1.1,0.6s-0.9,0.3-1.3,0.3l0,0c-0.7,0-1.4-0.2-1.9-0.5c-0.6-0.3-1-0.8-1.3-1.3c-0.3-0.6-0.5-1.2-0.5-2l0,0
				c0-0.7,0.2-1.4,0.5-2c0.3-0.6,0.7-1,1.3-1.3S172.8,51.3,173.4,51.3L173.4,51.3z M173.4,52.2c-0.7,0-1.3,0.2-1.7,0.6
				c-0.5,0.4-0.7,1-0.8,1.7l0,0h5c-0.1-0.7-0.3-1.3-0.8-1.7S174.1,52.2,173.4,52.2L173.4,52.2z M186.9,51.7c0,0,0,0.1,0,0.1l0,0V55
				c0,0.7-0.2,1.4-0.5,1.9c-0.3,0.6-0.8,1-1.4,1.4c-0.6,0.3-1.2,0.5-1.9,0.5l0,0c-0.7,0-1.3-0.2-1.9-0.5c-0.6-0.3-1-0.8-1.4-1.4
				c-0.3-0.6-0.5-1.2-0.5-1.9l0,0c0-0.7,0.2-1.3,0.5-1.9c0.3-0.6,0.8-1,1.3-1.4c0.6-0.3,1.2-0.5,1.9-0.5l0,0c0.6,0,1.1,0.1,1.6,0.4
				c0.5,0.2,0.9,0.6,1.2,1l0,0v-4c0-0.2,0-0.3,0.1-0.4c0.1-0.1,0.2-0.1,0.4-0.1l0,0c0.2,0,0.3,0,0.4,0.1c0.1,0.1,0.1,0.2,0.1,0.4
				l0,0V51.7z M183.1,57.9c0.5,0,1-0.1,1.4-0.4c0.4-0.2,0.7-0.6,1-1c0.2-0.4,0.4-0.9,0.4-1.4l0,0c0-0.2,0-0.3,0-0.3l0,0
				c0,0,0,0,0-0.1l0,0c-0.1-0.7-0.4-1.3-0.9-1.7s-1.1-0.7-1.8-0.7l0,0c-0.5,0-1,0.1-1.4,0.4c-0.4,0.2-0.8,0.6-1,1
				c-0.2,0.4-0.4,0.9-0.4,1.4l0,0c0,0.5,0.1,1,0.4,1.4c0.2,0.4,0.6,0.8,1,1C182.1,57.8,182.6,57.9,183.1,57.9L183.1,57.9z
				 M193.3,51.3c0.6,0,1.1,0.1,1.6,0.3c0.4,0.2,0.8,0.5,1.1,0.9l0,0c0.1,0.1,0.1,0.2,0.1,0.3l0,0c0,0.2-0.1,0.3-0.2,0.4l0,0
				c-0.1,0-0.1,0.1-0.3,0.1l0,0c-0.2,0-0.3-0.1-0.5-0.2l0,0c-0.4-0.5-1.1-0.8-1.8-0.8l0,0c-0.5,0-0.9,0.1-1.2,0.3
				c-0.3,0.2-0.4,0.5-0.4,0.8l0,0c0,0.3,0.1,0.6,0.4,0.8c0.3,0.2,0.8,0.4,1.5,0.5l0,0c1,0.2,1.7,0.4,2.1,0.8
				c0.4,0.4,0.6,0.8,0.6,1.4l0,0c0,0.4-0.1,0.8-0.4,1.1c-0.2,0.3-0.6,0.6-1,0.8c-0.4,0.2-0.9,0.3-1.5,0.3l0,0
				c-0.6,0-1.1-0.1-1.6-0.3c-0.5-0.2-0.9-0.5-1.3-0.8l0,0c-0.1-0.1-0.1-0.2-0.1-0.3l0,0c0-0.2,0.1-0.3,0.2-0.4l0,0
				c0.1-0.1,0.2-0.1,0.3-0.1l0,0c0.2,0,0.3,0.1,0.4,0.2l0,0c0.2,0.3,0.5,0.4,0.9,0.6c0.4,0.1,0.8,0.2,1.2,0.2l0,0
				c0.6,0,1.1-0.1,1.4-0.3c0.3-0.2,0.5-0.5,0.5-0.9l0,0c0-0.3-0.2-0.6-0.5-0.8s-0.8-0.4-1.5-0.5l0,0c-0.9-0.1-1.6-0.4-2-0.8
				c-0.4-0.4-0.7-0.8-0.7-1.3l0,0c0-0.7,0.3-1.2,0.8-1.5C191.8,51.4,192.5,51.3,193.3,51.3L193.3,51.3z M208.1,51.3
				c0.7,0,1.3,0.2,1.9,0.5c0.6,0.3,1,0.8,1.4,1.4c0.3,0.6,0.5,1.2,0.5,1.9l0,0v3.2c0,0.1,0,0.3-0.1,0.4c-0.1,0.1-0.2,0.1-0.4,0.1
				l0,0c-0.2,0-0.3,0-0.4-0.1s-0.1-0.2-0.1-0.4l0,0v-0.8c-0.3,0.4-0.7,0.8-1.2,1c-0.5,0.2-1,0.4-1.6,0.4l0,0c-0.7,0-1.3-0.2-1.9-0.5
				c-0.6-0.3-1-0.8-1.3-1.4s-0.5-1.2-0.5-1.9l0,0c0-0.7,0.2-1.4,0.5-1.9c0.3-0.6,0.8-1,1.4-1.4C206.8,51.4,207.4,51.3,208.1,51.3
				L208.1,51.3z M208.1,57.9c0.5,0,1-0.1,1.4-0.4c0.4-0.2,0.7-0.6,1-1c0.2-0.4,0.4-0.9,0.4-1.4l0,0c0-0.5-0.1-1-0.4-1.4
				s-0.6-0.8-1-1c-0.4-0.2-0.9-0.4-1.4-0.4l0,0c-0.5,0-1,0.1-1.4,0.4c-0.4,0.2-0.8,0.6-1,1s-0.4,0.9-0.4,1.4l0,0
				c0,0.5,0.1,1,0.4,1.4c0.2,0.4,0.6,0.8,1,1C207.1,57.8,207.6,57.9,208.1,57.9L208.1,57.9z M228.5,48.7c0-0.2,0.1-0.3,0.2-0.4
				c0.1-0.1,0.2-0.1,0.4-0.1l0,0c0.2,0,0.3,0,0.4,0.1c0.1,0.1,0.1,0.2,0.1,0.4l0,0v9.6c0,0.1,0,0.3-0.1,0.4
				c-0.1,0.1-0.2,0.2-0.4,0.2l0,0c-0.1,0-0.3-0.1-0.4-0.2c-0.1-0.1-0.2-0.2-0.2-0.4l0,0v-4.4h-6.6v4.4c0,0.1,0,0.3-0.1,0.4
				c-0.1,0.1-0.2,0.2-0.4,0.2l0,0c-0.1,0-0.3-0.1-0.4-0.2s-0.2-0.2-0.2-0.4l0,0v-9.6c0-0.2,0.1-0.3,0.2-0.4c0.1-0.1,0.2-0.1,0.4-0.1
				l0,0c0.2,0,0.3,0,0.4,0.1c0.1,0.1,0.1,0.2,0.1,0.4l0,0v4.2h6.6V48.7z M236.9,51.3c0.7,0,1.3,0.2,1.9,0.5c0.6,0.3,1,0.8,1.4,1.4
				c0.3,0.6,0.5,1.2,0.5,1.9l0,0v3.2c0,0.1,0,0.3-0.1,0.4s-0.2,0.1-0.4,0.1l0,0c-0.2,0-0.3,0-0.4-0.1s-0.1-0.2-0.1-0.4l0,0v-0.8
				c-0.3,0.4-0.7,0.8-1.2,1c-0.5,0.2-1,0.4-1.6,0.4l0,0c-0.7,0-1.3-0.2-1.9-0.5c-0.6-0.3-1-0.8-1.3-1.4c-0.3-0.6-0.5-1.2-0.5-1.9
				l0,0c0-0.7,0.2-1.4,0.5-1.9c0.3-0.6,0.8-1,1.4-1.4C235.5,51.4,236.2,51.3,236.9,51.3L236.9,51.3z M236.9,57.9
				c0.5,0,1-0.1,1.4-0.4c0.4-0.2,0.7-0.6,1-1c0.2-0.4,0.4-0.9,0.4-1.4l0,0c0-0.5-0.1-1-0.4-1.4s-0.6-0.8-1-1
				c-0.4-0.2-0.9-0.4-1.4-0.4l0,0c-0.5,0-1,0.1-1.4,0.4c-0.4,0.2-0.8,0.6-1,1s-0.4,0.9-0.4,1.4l0,0c0,0.5,0.1,1,0.4,1.4
				c0.2,0.4,0.6,0.8,1,1C235.9,57.8,236.3,57.9,236.9,57.9L236.9,57.9z M251.9,51.2c0.5,0,1,0.1,1.4,0.4c0.4,0.3,0.7,0.6,1,1.1
				c0.2,0.5,0.3,1,0.3,1.6l0,0v3.9c0,0.2,0,0.3-0.1,0.4c-0.1,0.1-0.2,0.1-0.4,0.1l0,0c-0.2,0-0.3,0-0.4-0.1s-0.1-0.2-0.1-0.4l0,0
				v-3.9c0-0.6-0.2-1.2-0.5-1.5c-0.3-0.4-0.8-0.6-1.3-0.6l0,0c-0.6,0-1,0.2-1.4,0.6c-0.4,0.4-0.5,0.9-0.5,1.5l0,0v0v3.9
				c0,0.2,0,0.3-0.1,0.4c-0.1,0.1-0.2,0.1-0.4,0.1l0,0c-0.2,0-0.3,0-0.4-0.1s-0.1-0.2-0.1-0.4l0,0v-3.9c0-0.6-0.2-1.2-0.5-1.5
				c-0.3-0.4-0.8-0.6-1.3-0.6l0,0c-0.6,0-1,0.2-1.4,0.6s-0.5,0.8-0.5,1.4l0,0v4c0,0.2,0,0.3-0.1,0.4c-0.1,0.1-0.2,0.1-0.4,0.1l0,0
				c-0.2,0-0.3,0-0.4-0.1s-0.1-0.2-0.1-0.4l0,0v-6.4c0-0.2,0-0.3,0.1-0.4c0.1-0.1,0.2-0.1,0.4-0.1l0,0c0.2,0,0.3,0,0.4,0.1
				c0.1,0.1,0.1,0.2,0.1,0.4l0,0v0.3c0.3-0.3,0.6-0.5,0.9-0.7s0.7-0.2,1.1-0.2l0,0c0.5,0,0.9,0.1,1.3,0.3c0.4,0.2,0.7,0.5,1,1l0,0
				c0.3-0.4,0.6-0.7,1-1S251.4,51.2,251.9,51.2L251.9,51.2z M266.1,51.2c0.5,0,1,0.1,1.4,0.4c0.4,0.3,0.7,0.6,1,1.1
				c0.2,0.5,0.3,1,0.3,1.6l0,0v3.9c0,0.2,0,0.3-0.1,0.4s-0.2,0.1-0.4,0.1l0,0c-0.2,0-0.3,0-0.4-0.1c-0.1-0.1-0.1-0.2-0.1-0.4l0,0
				v-3.9c0-0.6-0.2-1.2-0.5-1.5c-0.3-0.4-0.8-0.6-1.3-0.6l0,0c-0.6,0-1,0.2-1.4,0.6c-0.4,0.4-0.5,0.9-0.5,1.5l0,0v0v3.9
				c0,0.2,0,0.3-0.1,0.4c-0.1,0.1-0.2,0.1-0.4,0.1l0,0c-0.2,0-0.3,0-0.4-0.1c-0.1-0.1-0.1-0.2-0.1-0.4l0,0v-3.9
				c0-0.6-0.2-1.2-0.5-1.5c-0.3-0.4-0.8-0.6-1.3-0.6l0,0c-0.6,0-1,0.2-1.4,0.6c-0.4,0.4-0.5,0.8-0.5,1.4l0,0v4c0,0.2,0,0.3-0.1,0.4
				c-0.1,0.1-0.2,0.1-0.4,0.1l0,0c-0.2,0-0.3,0-0.4-0.1c-0.1-0.1-0.1-0.2-0.1-0.4l0,0v-6.4c0-0.2,0-0.3,0.1-0.4
				c0.1-0.1,0.2-0.1,0.4-0.1l0,0c0.2,0,0.3,0,0.4,0.1c0.1,0.1,0.1,0.2,0.1,0.4l0,0v0.3c0.3-0.3,0.6-0.5,0.9-0.7s0.7-0.2,1.1-0.2l0,0
				c0.5,0,0.9,0.1,1.3,0.3s0.7,0.5,1,1l0,0c0.3-0.4,0.6-0.7,1-1C265.1,51.4,265.6,51.2,266.1,51.2L266.1,51.2z M275.7,51.3
				c0.7,0,1.3,0.2,1.8,0.5c0.5,0.3,0.9,0.7,1.2,1.3c0.3,0.6,0.4,1.2,0.4,1.9l0,0c0,0.1,0,0.3-0.1,0.3c-0.1,0.1-0.2,0.1-0.4,0.1l0,0
				h-5.5c0.1,0.7,0.4,1.3,0.9,1.8s1.1,0.7,1.9,0.7l0,0c0.3,0,0.7-0.1,1-0.2c0.3-0.1,0.6-0.3,0.8-0.4l0,0c0.1-0.1,0.2-0.1,0.4-0.1
				l0,0c0.1,0,0.2,0,0.3,0.1l0,0c0.1,0.1,0.2,0.2,0.2,0.4l0,0c0,0.1,0,0.2-0.1,0.3l0,0c-0.3,0.3-0.7,0.5-1.1,0.6s-0.9,0.3-1.3,0.3
				l0,0c-0.7,0-1.4-0.2-1.9-0.5c-0.6-0.3-1-0.8-1.3-1.3c-0.3-0.6-0.5-1.2-0.5-2l0,0c0-0.7,0.2-1.4,0.5-2c0.3-0.6,0.7-1,1.3-1.3
				C274.4,51.4,275,51.3,275.7,51.3L275.7,51.3z M275.7,52.2c-0.7,0-1.3,0.2-1.7,0.6c-0.5,0.4-0.7,1-0.8,1.7l0,0h5
				c-0.1-0.7-0.3-1.3-0.8-1.7S276.4,52.2,275.7,52.2L275.7,52.2z M285.6,51.2c0.4,0,0.7,0,0.9,0.1c0.2,0.1,0.3,0.2,0.3,0.4l0,0
				c0,0.1,0,0.1,0,0.1l0,0c0,0.1-0.1,0.2-0.2,0.3c-0.1,0-0.2,0.1-0.3,0.1l0,0c-0.1,0-0.2,0-0.4,0l0,0c-0.1,0-0.2,0-0.3,0l0,0
				c-0.7,0-1.2,0.2-1.7,0.5s-0.6,0.8-0.6,1.4l0,0v4.1c0,0.2,0,0.3-0.1,0.4c-0.1,0.1-0.2,0.1-0.4,0.1l0,0c-0.2,0-0.3,0-0.4-0.1
				c-0.1-0.1-0.1-0.2-0.1-0.4l0,0v-6.4c0-0.2,0-0.3,0.1-0.4c0.1-0.1,0.2-0.1,0.4-0.1l0,0c0.2,0,0.3,0,0.4,0.1
				c0.1,0.1,0.1,0.2,0.1,0.4l0,0v0.6c0.3-0.4,0.6-0.7,1-0.9C284.7,51.3,285.1,51.2,285.6,51.2L285.6,51.2z M296.1,48.7
				c0-0.2,0.1-0.3,0.2-0.4s0.2-0.1,0.4-0.1l0,0c0.2,0,0.3,0,0.4,0.1c0.1,0.1,0.1,0.2,0.1,0.4l0,0v12.8c0,0.2,0,0.3-0.1,0.4
				c-0.1,0.1-0.2,0.1-0.4,0.1l0,0c-0.1,0-0.3,0-0.4-0.1s-0.2-0.2-0.2-0.4l0,0V48.7z M310.6,48c0.7,0,1.3,0.2,1.9,0.5s1,0.7,1.3,1.2
				l0,0c0.1,0.1,0.1,0.2,0.1,0.3l0,0c0,0.2-0.1,0.3-0.2,0.4l0,0c-0.1,0-0.2,0.1-0.2,0.1l0,0c-0.1,0-0.2,0-0.3-0.1
				c-0.1,0-0.2-0.1-0.2-0.2l0,0c-0.5-0.8-1.3-1.2-2.3-1.2l0,0c-0.7,0-1.3,0.2-1.7,0.5c-0.4,0.3-0.6,0.7-0.6,1.3l0,0
				c0,1.1,0.9,1.7,2.6,1.9l0,0c1.1,0.2,2,0.5,2.5,1s0.8,1.2,0.8,2.1l0,0c0,0.6-0.2,1.2-0.5,1.6s-0.7,0.8-1.3,1.1
				c-0.5,0.2-1.1,0.4-1.8,0.4l0,0c-0.9,0-1.6-0.2-2.3-0.6s-1.1-0.9-1.4-1.5l0,0c0-0.1-0.1-0.1-0.1-0.2l0,0c0-0.1,0-0.2,0.1-0.3
				s0.2-0.1,0.4-0.1l0,0c0.1,0,0.2,0,0.3,0.1c0.1,0.1,0.2,0.1,0.2,0.3l0,0c0.2,0.4,0.6,0.7,1,1c0.5,0.2,1,0.4,1.7,0.4l0,0
				c0.7,0,1.3-0.2,1.8-0.5c0.5-0.4,0.7-0.9,0.7-1.5l0,0c0-0.6-0.2-1.1-0.6-1.4c-0.4-0.4-1.1-0.6-1.9-0.7l0,0c-1.1-0.1-1.9-0.5-2.5-1
				c-0.6-0.5-0.9-1.2-0.9-2l0,0c0-0.5,0.1-1,0.4-1.4c0.3-0.4,0.7-0.7,1.2-1C309.3,48.1,309.9,48,310.6,48L310.6,48z M320.8,57.7
				c0.1,0,0.3,0,0.4,0.1c0.1,0.1,0.1,0.2,0.1,0.4l0,0c0,0.1-0.1,0.3-0.2,0.4s-0.2,0.1-0.4,0.1l0,0h-0.3c-0.5,0-0.9-0.1-1.3-0.3
				c-0.4-0.2-0.7-0.5-0.9-0.9c-0.2-0.4-0.3-0.8-0.3-1.3l0,0v-3.6h-0.9c-0.1,0-0.3,0-0.3-0.1c-0.1-0.1-0.1-0.2-0.1-0.3l0,0
				c0-0.1,0-0.2,0.1-0.3c0.1-0.1,0.2-0.1,0.3-0.1l0,0h0.9v-2.1c0-0.2,0-0.3,0.1-0.4c0.1-0.1,0.2-0.1,0.4-0.1l0,0
				c0.2,0,0.3,0,0.4,0.1c0.1,0.1,0.1,0.2,0.1,0.4l0,0v2.1h1.5c0.1,0,0.3,0,0.3,0.1c0.1,0.1,0.1,0.2,0.1,0.3l0,0c0,0.1,0,0.2-0.1,0.3
				c-0.1,0.1-0.2,0.1-0.3,0.1l0,0H319v3.6c0,0.5,0.1,0.8,0.4,1.1s0.6,0.4,1,0.4l0,0H320.8z M327.8,51.3c0.7,0,1.4,0.2,1.9,0.5
				s1,0.8,1.4,1.4c0.3,0.6,0.5,1.2,0.5,1.9l0,0c0,0.7-0.2,1.4-0.5,1.9c-0.3,0.6-0.8,1-1.4,1.4s-1.2,0.5-1.9,0.5l0,0
				c-0.7,0-1.4-0.2-1.9-0.5s-1-0.8-1.4-1.4c-0.3-0.6-0.5-1.2-0.5-1.9l0,0c0-0.7,0.2-1.4,0.5-1.9c0.3-0.6,0.8-1,1.4-1.4
				S327.1,51.3,327.8,51.3L327.8,51.3z M327.8,52.2c-0.5,0-1,0.1-1.4,0.4c-0.4,0.2-0.8,0.6-1,1S325,54.5,325,55l0,0
				c0,0.5,0.1,1,0.4,1.4c0.2,0.4,0.6,0.8,1,1c0.4,0.2,0.9,0.4,1.4,0.4l0,0c0.5,0,1-0.1,1.4-0.4c0.4-0.2,0.7-0.6,1-1
				c0.2-0.4,0.4-0.9,0.4-1.4l0,0c0-0.5-0.1-1-0.4-1.5s-0.6-0.8-1-1C328.8,52.3,328.3,52.2,327.8,52.2L327.8,52.2z M338.7,51.3
				c0.7,0,1.3,0.2,1.9,0.5c0.6,0.3,1,0.8,1.4,1.4c0.3,0.6,0.5,1.2,0.5,1.9l0,0c0,0.7-0.2,1.3-0.5,1.9c-0.3,0.6-0.8,1-1.3,1.4
				c-0.6,0.3-1.2,0.5-1.9,0.5l0,0c-0.6,0-1.1-0.1-1.6-0.4c-0.5-0.2-0.9-0.6-1.2-1l0,0v4c0,0.2,0,0.3-0.1,0.4
				c-0.1,0.1-0.2,0.1-0.4,0.1l0,0c-0.2,0-0.3,0-0.4-0.1s-0.1-0.2-0.1-0.4l0,0v-3c0,0,0-0.1,0-0.1l0,0V55c0-0.7,0.2-1.4,0.5-1.9
				c0.3-0.6,0.8-1,1.4-1.4C337.4,51.4,338,51.3,338.7,51.3L338.7,51.3z M338.7,57.9c0.5,0,1-0.1,1.4-0.4c0.4-0.2,0.8-0.6,1-1
				c0.2-0.4,0.4-0.9,0.4-1.4l0,0c0-0.5-0.1-1-0.4-1.4c-0.2-0.4-0.6-0.8-1-1c-0.4-0.2-0.9-0.4-1.4-0.4l0,0c-0.5,0-1,0.1-1.4,0.4
				c-0.4,0.2-0.7,0.6-1,1S336,54.5,336,55l0,0c0,0.2,0,0.3,0,0.3l0,0c0,0,0,0,0,0.1l0,0c0.1,0.7,0.4,1.3,0.9,1.7
				C337.4,57.7,338,57.9,338.7,57.9L338.7,57.9z M351.4,48.7c0-0.2,0.1-0.3,0.2-0.4c0.1-0.1,0.2-0.1,0.4-0.1l0,0
				c0.2,0,0.3,0,0.4,0.1c0.1,0.1,0.1,0.2,0.1,0.4l0,0v9.6c0,0.1,0,0.3-0.1,0.4c-0.1,0.1-0.2,0.2-0.4,0.2l0,0c-0.1,0-0.3-0.1-0.4-0.2
				s-0.2-0.2-0.2-0.4l0,0V48.7z M359.7,57.7c0.1,0,0.3,0,0.4,0.1s0.1,0.2,0.1,0.4l0,0c0,0.1-0.1,0.3-0.2,0.4s-0.2,0.1-0.4,0.1l0,0
				h-0.3c-0.5,0-0.9-0.1-1.3-0.3s-0.7-0.5-0.9-0.9c-0.2-0.4-0.3-0.8-0.3-1.3l0,0v-3.6h-0.9c-0.1,0-0.3,0-0.3-0.1
				c-0.1-0.1-0.1-0.2-0.1-0.3l0,0c0-0.1,0-0.2,0.1-0.3c0.1-0.1,0.2-0.1,0.3-0.1l0,0h0.9v-2.1c0-0.2,0-0.3,0.1-0.4
				c0.1-0.1,0.2-0.1,0.4-0.1l0,0c0.2,0,0.3,0,0.4,0.1c0.1,0.1,0.1,0.2,0.1,0.4l0,0v2.1h1.5c0.1,0,0.3,0,0.3,0.1
				c0.1,0.1,0.1,0.2,0.1,0.3l0,0c0,0.1,0,0.2-0.1,0.3c-0.1,0.1-0.2,0.1-0.3,0.1l0,0h-1.5v3.6c0,0.5,0.1,0.8,0.4,1.1s0.6,0.4,1,0.4
				l0,0H359.7z"/>
		</g>
	</g>
	<g transform="rotate(0 0 0)">
		<g transform="matrix(1 0 0 1 0 0)">
			<path class="st0" d="M21,5.8L21,5.8C21,5.9,21,6,20.9,6.1c-0.1,0.1-0.2,0.1-0.3,0.1l0,0c-0.2,0-0.3,0-0.4-0.1
				c-0.1-0.1-0.1-0.2-0.1-0.3l0,0c0-0.1,0-0.2,0-0.4c0-0.1,0-0.2,0-0.4l0,0c0-0.6-0.2-1.1-0.6-1.6c-0.4-0.5-0.9-0.9-1.6-1.2
				c-0.7-0.3-1.5-0.6-2.5-0.7c-1-0.2-2-0.3-3.2-0.3l0,0c-0.9,0-1.8,0.1-2.7,0.2C8.7,1.5,7.8,1.7,7,1.9C6.1,2.1,5.4,2.4,4.6,2.7
				C3.9,3.1,3.2,3.5,2.7,3.9c-0.5,0.4-1,0.9-1.3,1.5S0.9,6.5,0.9,7.2l0,0c0,0.5,0.1,0.9,0.3,1.3c0.2,0.4,0.5,0.7,0.9,1
				C2.5,9.8,3,10,3.5,10.2c0.5,0.2,1.1,0.4,1.7,0.5C5.8,10.9,6.4,11,7,11.1c0.6,0.1,1.3,0.2,1.9,0.2l0,0l1.9,0.2
				c0.9,0.1,1.8,0.2,2.5,0.3c0.7,0.1,1.4,0.2,2,0.3l0,0c0.9,0.2,1.6,0.6,2.1,1c0.4,0.4,0.7,1,0.7,1.8l0,0c0,0.7-0.2,1.3-0.6,1.9
				c-0.4,0.5-0.9,1-1.6,1.4c-0.7,0.4-1.5,0.6-2.4,0.8c-0.9,0.2-1.9,0.3-2.9,0.3l0,0c-1.1,0-2.1-0.1-3-0.2s-1.6-0.3-2.1-0.5
				c-0.6-0.2-1-0.4-1.3-0.5c-0.3-0.2-0.5-0.2-0.5-0.3l0,0c-0.1-0.1-0.2-0.2-0.2-0.4l0,0c0-0.1,0.1-0.2,0.2-0.3
				c0.1-0.1,0.2-0.1,0.3-0.1l0,0c0.1,0,0.2,0,0.2,0.1l0,0c0,0,0.2,0.1,0.4,0.2c0.3,0.1,0.7,0.3,1.2,0.5s1.2,0.3,2,0.5
				c0.8,0.1,1.7,0.2,2.8,0.2l0,0c1.1,0,2-0.1,2.8-0.3c0.8-0.2,1.5-0.4,2-0.7c0.6-0.3,1-0.7,1.3-1.1c0.3-0.4,0.4-0.9,0.4-1.3l0,0
				c0-0.3-0.1-0.5-0.2-0.7c-0.1-0.2-0.2-0.4-0.4-0.5c-0.2-0.2-0.4-0.3-0.6-0.4c-0.2-0.1-0.5-0.2-0.8-0.3l0,0c-0.3-0.1-0.6-0.1-1-0.2
				c-0.4-0.1-0.7-0.1-1.1-0.2c-0.4,0-0.8-0.1-1.1-0.1c-0.4,0-0.8-0.1-1.1-0.1l0,0l-1.9-0.2c-1.5-0.1-2.8-0.3-3.9-0.6
				c-1.1-0.3-2-0.6-2.8-1c-0.7-0.4-1.3-0.9-1.7-1.5C0.2,8.6,0,7.9,0,7.2l0,0c0-0.8,0.2-1.5,0.5-2.1s0.8-1.2,1.4-1.7
				c0.6-0.5,1.3-1,2.1-1.3c0.8-0.4,1.7-0.7,2.6-1c0.9-0.3,1.9-0.4,2.8-0.6c1-0.1,1.9-0.2,2.9-0.2l0,0c1.2,0,2.2,0.1,3.1,0.2
				c0.9,0.1,1.6,0.3,2.3,0.6c0.6,0.2,1.1,0.5,1.5,0.8c0.4,0.3,0.7,0.6,1,0.8l0,0c0.6,0.7,0.9,1.5,0.9,2.3l0,0
				C21.1,5.3,21.1,5.5,21,5.8z M28.7,15.3L28.7,15.3c-0.1,0.2-0.2,0.4-0.3,0.7c-0.1,0.3-0.3,0.5-0.5,0.8c-0.2,0.3-0.4,0.6-0.6,0.8
				c-0.2,0.3-0.4,0.5-0.7,0.7c-0.3,0.2-0.5,0.4-0.8,0.5c-0.3,0.1-0.6,0.2-0.9,0.2l0,0c-0.5,0-0.9-0.2-1.3-0.5
				c-0.4-0.3-0.7-0.7-0.9-1.2c-0.2-0.5-0.4-1-0.6-1.7c-0.2-0.6-0.3-1.3-0.4-1.9c-0.1-0.7-0.1-1.3-0.2-1.9c0-0.6,0-1.2,0-1.6l0,0
				c0-0.7,0-1.4,0.1-2.1c0-0.7,0.1-1.5,0.2-2.2c0.1-0.7,0.2-1.4,0.4-2c0.2-0.6,0.3-1.2,0.5-1.7c0.2-0.5,0.4-0.8,0.7-1.1
				c0.3-0.3,0.6-0.4,0.9-0.4l0,0c0.3,0,0.5,0.1,0.7,0.2c0.2,0.1,0.4,0.3,0.5,0.6c0.1,0.3,0.3,0.7,0.3,1.1c0.1,0.5,0.1,1,0.1,1.7l0,0
				c0,0.8-0.1,1.7-0.3,2.5c-0.2,0.9-0.4,1.7-0.7,2.6c-0.3,0.9-0.6,1.8-1,2.6c-0.4,0.9-0.8,1.7-1.3,2.6l0,0c0.2,1,0.5,1.9,0.8,2.5
				c0.3,0.6,0.8,0.9,1.2,0.9l0,0c0.3,0,0.6-0.1,0.9-0.4c0.3-0.3,0.6-0.6,0.8-0.9c0.3-0.4,0.5-0.7,0.7-1.1c0.2-0.4,0.3-0.7,0.4-0.9
				l0,0c0-0.1,0.1-0.1,0.2-0.2c0.1,0,0.2-0.1,0.2-0.1l0,0c0.1,0,0.3,0,0.3,0.1c0.1,0.1,0.1,0.2,0.1,0.3l0,0
				C28.8,15.1,28.7,15.2,28.7,15.3z M22.5,10.4L22.5,10.4c0,0.5,0,1,0,1.5c0,0.5,0.1,0.9,0.1,1.4l0,0c0.3-0.7,0.7-1.4,1-2.1
				c0.3-0.7,0.6-1.5,0.8-2.3c0.2-0.8,0.4-1.5,0.6-2.3c0.1-0.8,0.2-1.5,0.2-2.2l0,0c0-1-0.1-1.7-0.2-2.1c-0.2-0.4-0.4-0.6-0.6-0.6
				l0,0c-0.2,0-0.3,0.1-0.5,0.4c-0.2,0.2-0.3,0.6-0.4,1c-0.1,0.4-0.3,0.9-0.4,1.4C23,5,22.9,5.6,22.8,6.3c-0.1,0.6-0.1,1.3-0.2,2
				C22.6,9,22.5,9.7,22.5,10.4z M33.5,17.3L33.5,17.3c-0.2,0-0.4,0-0.5-0.1l0,0c-0.1,0.2-0.3,0.5-0.4,0.7c-0.2,0.2-0.4,0.4-0.6,0.5
				c-0.2,0.2-0.5,0.3-0.8,0.4C30.9,19,30.6,19,30.3,19l0,0c-0.4,0-0.7-0.1-1.1-0.2c-0.3-0.1-0.6-0.3-0.8-0.6
				c-0.2-0.2-0.4-0.5-0.6-0.9c-0.1-0.3-0.2-0.7-0.2-1.1l0,0c0-0.5,0.1-1,0.3-1.4c0.2-0.4,0.4-0.7,0.6-1c0.2-0.3,0.5-0.4,0.7-0.6
				c0.2-0.1,0.4-0.2,0.6-0.2l0,0c0.1,0,0.2,0,0.3,0.1c0.1,0.1,0.1,0.2,0.1,0.3l0,0c0,0.1,0,0.2-0.1,0.3c-0.1,0.1-0.2,0.1-0.3,0.2
				l0,0c-0.1,0.1-0.3,0.2-0.4,0.3c-0.1,0.1-0.3,0.3-0.4,0.4c-0.1,0.2-0.2,0.4-0.3,0.6c-0.1,0.2-0.1,0.5-0.1,0.8l0,0
				c0,0.3,0,0.5,0.1,0.8c0.1,0.2,0.2,0.4,0.4,0.6c0.2,0.2,0.3,0.3,0.6,0.4c0.2,0.1,0.5,0.1,0.7,0.1l0,0c0.5,0,0.9-0.1,1.2-0.3
				c0.3-0.2,0.5-0.5,0.7-0.8l0,0c-0.5-0.3-0.9-0.6-1.2-1.1c-0.3-0.5-0.5-1-0.5-1.6l0,0c0-0.5,0.1-0.9,0.3-1.1
				c0.2-0.3,0.5-0.4,0.9-0.4l0,0c0.2,0,0.4,0.1,0.6,0.2s0.4,0.3,0.5,0.5c0.2,0.2,0.3,0.5,0.4,0.9c0.1,0.4,0.1,0.8,0.1,1.3l0,0
				c0,0.3,0,0.5-0.1,0.8l0,0c0.1,0,0.1,0,0.2,0c0,0,0.1,0,0.2,0l0,0c0.3,0,0.5,0,0.7-0.1c0.2-0.1,0.4-0.2,0.6-0.3
				c0.2-0.1,0.3-0.3,0.5-0.5s0.3-0.4,0.4-0.7l0,0c0-0.1,0.1-0.1,0.2-0.1c0.1,0,0.2-0.1,0.2-0.1l0,0c0.1,0,0.2,0,0.3,0.1
				c0.1,0.1,0.1,0.2,0.1,0.3l0,0c0,0.1,0,0.1-0.1,0.2c0,0.1-0.1,0.2-0.1,0.2l0,0c-0.1,0.2-0.3,0.5-0.5,0.7c-0.2,0.2-0.4,0.4-0.7,0.6
				c-0.2,0.2-0.5,0.3-0.8,0.4C34.3,17.3,33.9,17.4,33.5,17.3z M31.4,14.3L31.4,14.3c0,0.2,0,0.3,0.1,0.5c0,0.2,0.1,0.3,0.2,0.5
				c0.1,0.2,0.2,0.3,0.3,0.5s0.3,0.3,0.4,0.4l0,0c0-0.2,0-0.3,0-0.5l0,0c0-0.2,0-0.4-0.1-0.7c0-0.2-0.1-0.4-0.1-0.6
				s-0.1-0.3-0.2-0.5c-0.1-0.1-0.2-0.2-0.3-0.2l0,0c-0.1,0-0.1,0-0.2,0.1C31.5,13.8,31.4,14,31.4,14.3z M44.4,15.3L44.4,15.3
				c0,0.4-0.1,0.9-0.2,1.3c-0.1,0.4-0.2,0.8-0.4,1.2s-0.4,0.6-0.8,0.8c-0.3,0.2-0.7,0.3-1.2,0.3l0,0c-0.3,0-0.5,0-0.8-0.1
				c-0.2-0.1-0.4-0.2-0.6-0.3c-0.2-0.1-0.3-0.3-0.4-0.5c-0.1-0.2-0.2-0.4-0.3-0.6l0,0c-0.3,0.5-0.6,0.8-1,1.1
				c-0.4,0.3-0.8,0.4-1.2,0.4l0,0c-0.3,0-0.6-0.1-0.8-0.2c-0.2-0.1-0.5-0.3-0.6-0.5c-0.2-0.2-0.3-0.5-0.4-0.8
				c-0.1-0.3-0.1-0.6-0.1-1l0,0c0-0.6,0.1-1.1,0.2-1.6c0.1-0.4,0.2-0.8,0.4-1.1s0.3-0.5,0.4-0.6c0.1-0.1,0.2-0.2,0.2-0.2l0,0
				c0-0.1,0.1-0.1,0.2-0.1c0.1,0,0.1,0,0.2,0l0,0c0.1,0,0.2,0,0.3,0.1c0.1,0.1,0.1,0.2,0.1,0.3l0,0c0,0.1,0,0.2-0.1,0.3l0,0
				c0,0.1-0.1,0.1-0.2,0.3c-0.1,0.1-0.2,0.3-0.3,0.6c-0.1,0.2-0.2,0.5-0.3,0.9c-0.1,0.3-0.1,0.7-0.1,1.2l0,0c0,0.5,0.1,0.8,0.3,1.1
				c0.2,0.3,0.5,0.4,0.8,0.4l0,0c0.2,0,0.4,0,0.6-0.1c0.2-0.1,0.4-0.2,0.6-0.4c0.2-0.2,0.3-0.4,0.5-0.7c0.1-0.3,0.2-0.7,0.2-1.1l0,0
				l0.2-2.1c0-0.1,0.1-0.2,0.2-0.3C40,13,40.1,13,40.2,13l0,0c0.1,0,0.2,0.1,0.3,0.2c0.1,0.1,0.1,0.2,0.1,0.4l0,0l-0.1,2
				c0,0.4,0,0.8,0,1.1c0.1,0.3,0.1,0.6,0.3,0.8c0.1,0.2,0.3,0.3,0.5,0.4c0.2,0.1,0.4,0.1,0.6,0.1l0,0c0.3,0,0.5-0.1,0.7-0.3
				c0.2-0.2,0.4-0.4,0.5-0.7c0.1-0.3,0.2-0.6,0.3-1c0.1-0.4,0.1-0.8,0.1-1.2l0,0c0-0.5,0-0.9-0.1-1.3c-0.1-0.3-0.1-0.6-0.1-0.7l0,0
				c0-0.1,0-0.2,0.1-0.3c0.1-0.1,0.2-0.1,0.3-0.1l0,0c0.1,0,0.2,0,0.3,0.1c0.1,0.1,0.1,0.2,0.2,0.3l0,0c0,0,0,0.1,0.1,0.3
				c0,0.2,0.1,0.3,0.2,0.6c0.1,0.2,0.2,0.4,0.3,0.7c0.1,0.2,0.3,0.5,0.4,0.7c0.2,0.2,0.4,0.4,0.6,0.5c0.2,0.1,0.5,0.2,0.7,0.2l0,0
				c0.2,0,0.3,0,0.4-0.1c0.1-0.1,0.2-0.1,0.3-0.2c0.1-0.1,0.1-0.2,0.2-0.2c0-0.1,0.1-0.1,0.1-0.1l0,0c0-0.1,0.1-0.2,0.2-0.2
				c0.1-0.1,0.2-0.1,0.3-0.1l0,0c0.1,0,0.2,0.1,0.3,0.2c0.1,0.1,0.1,0.2,0.1,0.3l0,0c0,0.1,0,0.2-0.1,0.4c-0.1,0.2-0.2,0.3-0.4,0.5
				c-0.2,0.2-0.3,0.3-0.6,0.4c-0.2,0.1-0.5,0.2-0.7,0.2l0,0c-0.2,0-0.5,0-0.7-0.1c-0.2-0.1-0.4-0.2-0.6-0.3
				c-0.2-0.1-0.3-0.2-0.5-0.4C44.7,15.6,44.5,15.4,44.4,15.3z M71.2,0.9L71.2,0.9c0,0.3-0.1,0.6-0.2,0.8c-0.2,0.3-0.4,0.5-0.6,0.8
				c-0.2,0.2-0.5,0.4-0.8,0.6c-0.3,0.2-0.6,0.4-0.9,0.5l0,0c-0.1,0.3-0.1,0.7-0.2,1.1c-0.1,0.4-0.1,0.9-0.1,1.4l0,0
				c0,0.6,0,1.3-0.1,1.9c0,0.6-0.1,1.3-0.2,1.9l0,0c0.7,0,1.4,0,2.2-0.1c0.8,0,1.6-0.1,2.5-0.1c0.9,0,1.7,0,2.6-0.1
				c0.9,0,1.8,0,2.7,0l0,0c0.1-1.3,0.2-2.5,0.4-3.5c0.2-1,0.5-1.9,0.9-2.6s0.8-1.2,1.3-1.6c0.5-0.4,1-0.5,1.6-0.5l0,0
				c0.1,0,0.2,0,0.4,0c0.1,0,0.3,0,0.4,0.1c0.1,0,0.3,0.1,0.4,0.2c0.1,0.1,0.1,0.2,0.1,0.4l0,0c0,0,0,0.1,0,0.1c0,0,0,0.1,0,0.1l0,0
				c-0.1,0.1-0.2,0.2-0.4,0.2l0,0c-0.1,0-0.1,0-0.2,0c0,0-0.1,0-0.1-0.1c-0.1,0-0.1,0-0.2-0.1c-0.1,0-0.2,0-0.3,0l0,0
				c-0.1,0-0.3,0-0.5,0.1c-0.2,0-0.4,0.1-0.6,0.3c-0.2,0.2-0.4,0.4-0.7,0.7c-0.2,0.3-0.5,0.7-0.6,1.3c-0.2,0.5-0.4,1.2-0.5,2
				C79.1,7.6,79,8.6,79,9.7l0,0c0.5,0,1.1,0,1.6,0s1,0,1.5,0l0,0c0.1,0,0.2,0,0.3,0.1c0.1,0.1,0.1,0.2,0.1,0.3l0,0
				c0,0.1,0,0.2-0.1,0.3c-0.1,0.1-0.2,0.1-0.3,0.1l0,0c-0.2,0-0.3,0-0.5,0c-0.2,0-0.4,0-0.6,0c-0.2,0-0.5,0-0.9,0s-0.7,0-1.2,0l0,0
				c0,0.1,0,0.3,0,0.4c0,0.1,0,0.3,0,0.4l0,0c0,0.9,0,1.7,0.1,2.4c0.1,0.7,0.2,1.3,0.3,1.9c0.1,0.5,0.2,1,0.3,1.4
				c0.1,0.4,0.2,0.7,0.3,1c0.1,0.3,0.2,0.4,0.3,0.6c0.1,0.1,0.1,0.2,0.1,0.2l0,0c0.1,0.1,0.1,0.2,0.1,0.3l0,0c0,0.1,0,0.2-0.1,0.3
				c-0.1,0.1-0.2,0.1-0.3,0.1l0,0c-0.2,0-0.3-0.1-0.4-0.2l0,0c0,0-0.1-0.2-0.3-0.5c-0.2-0.3-0.3-0.8-0.5-1.4
				c-0.2-0.6-0.4-1.5-0.5-2.4c-0.2-1-0.2-2.2-0.2-3.6l0,0v-0.8c-0.9,0-1.8,0-2.7,0s-1.8,0-2.7,0.1c-0.9,0-1.7,0.1-2.5,0.1
				c-0.8,0-1.5,0.1-2.2,0.1l0,0c-0.2,1.1-0.4,2.2-0.7,3.2c-0.3,1-0.8,1.9-1.4,2.6c-0.6,0.8-1.4,1.4-2.3,1.8
				c-0.9,0.4-2.1,0.7-3.5,0.7l0,0c-0.7,0-1.4-0.1-2.1-0.2s-1.3-0.4-1.9-0.6c-0.6-0.3-1.1-0.6-1.6-1c-0.5-0.4-0.8-0.8-1.1-1.3l0,0
				c0-0.1-0.1-0.2-0.1-0.2l0,0c0-0.1,0-0.2,0.1-0.3c0.1-0.1,0.2-0.1,0.3-0.1l0,0c0.1,0,0.1,0,0.2,0.1c0.1,0,0.1,0.1,0.2,0.2l0,0
				c0.3,0.4,0.6,0.8,1,1.1c0.4,0.3,0.9,0.6,1.4,0.8c0.5,0.2,1.1,0.4,1.7,0.5c0.6,0.1,1.2,0.2,1.9,0.2l0,0c1.2,0,2.2-0.2,3-0.6
				c0.8-0.4,1.5-0.9,2-1.6c0.5-0.7,0.9-1.4,1.2-2.3c0.3-0.9,0.5-1.8,0.6-2.9l0,0c-0.8,0-1.4,0.1-1.9,0.1c-0.5,0-0.7,0-0.7,0l0,0
				c-0.1,0-0.2,0-0.3-0.1c-0.1-0.1-0.2-0.2-0.2-0.3l0,0c0-0.1,0-0.2,0.1-0.3c0.1-0.1,0.2-0.1,0.3-0.2l0,0c0,0,0.3,0,0.8,0
				c0.5,0,1.2-0.1,2-0.1l0,0c0.1-0.6,0.1-1.3,0.2-1.9c0-0.6,0.1-1.3,0.1-1.9l0,0c0-0.4,0-0.8,0.1-1.2c0-0.4,0.1-0.7,0.2-1.1l0,0
				c-0.2,0-0.4,0.1-0.6,0.1c-0.2,0-0.5,0-0.7,0l0,0c-0.7,0-1.4-0.1-2.1-0.2c-0.7-0.1-1.4-0.2-2.1-0.4c-0.7-0.1-1.4-0.3-2.1-0.4
				c-0.7-0.1-1.4-0.2-2.2-0.2l0,0c-0.6,0-1.2,0.1-1.7,0.2c-0.5,0.1-1,0.3-1.4,0.6c-0.4,0.3-0.7,0.6-0.9,1c-0.2,0.4-0.3,0.9-0.3,1.4
				l0,0c0,0.3,0.1,0.6,0.2,0.9c0.1,0.3,0.3,0.5,0.4,0.7c0.2,0.2,0.3,0.3,0.4,0.4c0.1,0.1,0.2,0.2,0.3,0.2l0,0
				C54.9,8.4,55,8.5,55,8.7l0,0c0,0.1,0,0.2-0.1,0.3c-0.1,0.1-0.2,0.1-0.3,0.1l0,0c-0.1,0-0.1,0-0.2,0c-0.1,0-0.1,0-0.1-0.1l0,0
				c-0.2-0.1-0.4-0.3-0.6-0.4c-0.2-0.2-0.4-0.4-0.6-0.6c-0.2-0.3-0.3-0.5-0.4-0.8c-0.1-0.3-0.2-0.6-0.2-1l0,0c0-0.7,0.2-1.3,0.5-1.9
				s0.7-0.9,1.2-1.3c0.5-0.3,1.1-0.6,1.7-0.7C56.5,2.1,57.2,2,57.8,2l0,0c0.7,0,1.4,0.1,2.1,0.2c0.7,0.1,1.4,0.2,2.1,0.4
				c0.7,0.1,1.4,0.3,2.1,0.4c0.7,0.1,1.4,0.2,2.2,0.2l0,0c0.3,0,0.6,0,0.8,0c0.2,0,0.5-0.1,0.7-0.1l0,0c0.2-0.5,0.3-1,0.5-1.3
				c0.2-0.4,0.4-0.7,0.6-0.9c0.2-0.2,0.4-0.4,0.7-0.5C69.8,0.1,70,0,70.2,0l0,0c0.3,0,0.5,0.1,0.7,0.2C71.1,0.4,71.2,0.6,71.2,0.9z
				 M70.1,0.9L70.1,0.9c-0.1,0-0.2,0-0.3,0.1c-0.1,0.1-0.2,0.2-0.4,0.3c-0.1,0.1-0.3,0.3-0.4,0.5c-0.1,0.2-0.2,0.5-0.3,0.8l0,0
				c0.3-0.1,0.5-0.3,0.7-0.5c0.2-0.2,0.4-0.4,0.5-0.6c0.1-0.2,0.2-0.4,0.2-0.5C70.2,0.9,70.2,0.9,70.1,0.9z M92.2,15.3L92.2,15.3
				c0,0.1-0.1,0.2-0.2,0.4c-0.1,0.2-0.2,0.4-0.4,0.7c-0.2,0.3-0.3,0.6-0.6,0.8c-0.2,0.3-0.5,0.6-0.7,0.8c-0.3,0.2-0.5,0.5-0.8,0.6
				c-0.3,0.2-0.6,0.2-1,0.2l0,0c-0.5,0-0.9-0.2-1.2-0.5c-0.3-0.3-0.6-0.7-0.7-1.1l0,0c-0.3,0.5-0.6,0.8-1,1.1
				c-0.4,0.3-0.8,0.4-1.2,0.4l0,0c-0.3,0-0.6-0.1-0.8-0.2c-0.2-0.1-0.5-0.3-0.6-0.5s-0.3-0.4-0.4-0.7c-0.1-0.3-0.1-0.6-0.1-0.9l0,0
				c0-0.6,0.1-1.2,0.3-1.7c0.2-0.5,0.5-0.9,0.8-1.2c0.3-0.3,0.7-0.6,1.1-0.7c0.4-0.2,0.8-0.2,1.2-0.2l0,0c0.3,0,0.5,0,0.7,0.1
				c0.2,0.1,0.4,0.1,0.5,0.2c0.2,0.1,0.3,0.2,0.4,0.2c0.1,0.1,0.1,0.1,0.1,0.1l0,0c0.1,0.1,0.1,0.2,0.1,0.3l0,0c0,0.1,0,0.2-0.1,0.3
				c-0.1,0.1-0.2,0.1-0.3,0.1l0,0c-0.1,0-0.2,0-0.3-0.1l0,0c0,0-0.1,0-0.1-0.1c-0.1,0-0.1-0.1-0.2-0.1c-0.1-0.1-0.2-0.1-0.3-0.1
				c-0.1,0-0.3-0.1-0.5-0.1l0,0c-0.3,0-0.5,0.1-0.8,0.2c-0.3,0.1-0.5,0.3-0.8,0.5c-0.2,0.2-0.4,0.5-0.6,0.9
				c-0.2,0.4-0.2,0.8-0.2,1.3l0,0c0,0.2,0,0.3,0,0.5c0,0.2,0.1,0.3,0.2,0.4c0.1,0.1,0.2,0.2,0.3,0.3c0.1,0.1,0.3,0.1,0.5,0.1l0,0
				c0.1,0,0.3,0,0.5-0.1c0.2-0.1,0.4-0.3,0.5-0.5c0.2-0.2,0.3-0.5,0.5-0.8c0.1-0.3,0.2-0.7,0.3-1.1l0,0c0-0.1,0.1-0.2,0.2-0.3
				c0.1-0.1,0.2-0.1,0.3-0.1l0,0c0.1,0,0.2,0,0.3,0.1c0.1,0.1,0.1,0.2,0.1,0.3l0,0c0,0.2,0,0.4,0.1,0.7c0,0.3,0.1,0.6,0.2,0.8
				c0.1,0.3,0.2,0.5,0.4,0.7c0.2,0.2,0.4,0.3,0.7,0.3l0,0c0.2,0,0.4-0.1,0.6-0.2c0.2-0.1,0.4-0.2,0.6-0.4c0.2-0.2,0.4-0.4,0.5-0.6
				c0.2-0.2,0.3-0.4,0.5-0.7c0.1-0.2,0.3-0.5,0.4-0.7c0.1-0.2,0.2-0.4,0.3-0.6l0,0c0-0.1,0.1-0.2,0.2-0.2c0.1,0,0.2-0.1,0.3-0.1l0,0
				c0.1,0,0.2,0.1,0.3,0.2c0.1,0.1,0.1,0.2,0.1,0.3l0,0C92.3,15.2,92.3,15.2,92.2,15.3z M94.1,17.6L94.1,17.6
				c0.1-0.3,0.3-0.6,0.5-0.9c0.2-0.3,0.4-0.7,0.6-1c0.2-0.3,0.4-0.7,0.6-1c0.2-0.3,0.4-0.6,0.7-0.9l0,0c0.2-0.3,0.5-0.5,0.7-0.6
				c0.2-0.1,0.5-0.2,0.7-0.2l0,0c0.4,0,0.7,0.2,0.9,0.5c0.2,0.3,0.3,0.7,0.3,1.2l0,0c0,0.1,0,0.2,0,0.4c0,0.2,0,0.3,0,0.5
				c0,0.2,0,0.3,0,0.5c0,0.2,0,0.3,0,0.5l0,0c0,0.2,0,0.4,0,0.6c0,0.2,0.1,0.3,0.1,0.5c0.1,0.1,0.1,0.2,0.2,0.3
				c0.1,0.1,0.2,0.1,0.4,0.1l0,0c0.3,0,0.6-0.1,0.9-0.4c0.3-0.2,0.6-0.5,0.8-0.9c0.2-0.3,0.5-0.7,0.6-1c0.2-0.3,0.3-0.6,0.4-0.8l0,0
				c0-0.1,0.1-0.2,0.2-0.2c0.1,0,0.2-0.1,0.3-0.1l0,0c0.1,0,0.3,0.1,0.3,0.2c0.1,0.1,0.1,0.2,0.1,0.3l0,0c0,0.1,0,0.1,0,0.2l0,0
				c0,0.1-0.1,0.2-0.2,0.4c-0.1,0.2-0.2,0.4-0.4,0.7c-0.2,0.3-0.3,0.5-0.6,0.8c-0.2,0.3-0.5,0.6-0.7,0.8c-0.3,0.2-0.5,0.5-0.8,0.6
				c-0.3,0.2-0.6,0.2-0.9,0.2l0,0c-0.4,0-0.7-0.1-0.9-0.2c-0.2-0.1-0.4-0.3-0.5-0.6c-0.1-0.2-0.2-0.5-0.3-0.8c0-0.3-0.1-0.6-0.1-0.9
				l0,0c0-0.1,0-0.3,0-0.4c0-0.2,0-0.3,0.1-0.5c0-0.2,0-0.3,0.1-0.5c0-0.2,0-0.3,0-0.5l0,0c0-0.3,0-0.4-0.1-0.5
				c-0.1-0.1-0.2-0.1-0.2-0.1l0,0c-0.1,0-0.3,0.1-0.5,0.2c-0.2,0.2-0.3,0.4-0.5,0.6c-0.2,0.2-0.4,0.5-0.6,0.8
				c-0.2,0.3-0.4,0.6-0.5,0.9c-0.2,0.3-0.3,0.6-0.5,0.9c-0.1,0.3-0.3,0.5-0.3,0.7l0,0c-0.2,0.3-0.3,0.6-0.5,0.7
				c-0.2,0.1-0.3,0.2-0.5,0.2l0,0c-0.2,0-0.4-0.1-0.6-0.2c-0.1-0.1-0.2-0.3-0.2-0.6l0,0c0-0.1,0-0.2,0-0.3c0-0.2,0-0.4,0.1-0.6
				c0-0.2,0.1-0.5,0.1-0.8c0-0.3,0.1-0.5,0.1-0.8c0-0.3,0-0.5,0.1-0.7c0-0.2,0-0.4,0-0.6l0,0c0-0.2,0-0.4,0-0.6c0-0.2,0-0.3-0.1-0.3
				l0,0c-0.1,0-0.2,0.2-0.4,0.5c-0.2,0.3-0.4,0.8-0.7,1.5l0,0c0,0.1-0.1,0.2-0.2,0.2c-0.1,0.1-0.2,0.1-0.3,0.1l0,0
				c-0.1,0-0.2,0-0.3-0.1c-0.1-0.1-0.1-0.2-0.1-0.3l0,0c0-0.1,0-0.1,0-0.2l0,0c0.4-0.9,0.7-1.5,1-1.9c0.3-0.4,0.6-0.6,1-0.6l0,0
				c0.2,0,0.3,0,0.5,0.1c0.1,0.1,0.2,0.2,0.3,0.4c0.1,0.2,0.1,0.3,0.2,0.5c0,0.2,0.1,0.4,0.1,0.6l0,0c0,0.1,0,0.4,0,0.7
				c0,0.3,0,0.6-0.1,1c0,0.4-0.1,0.7-0.1,1.1C94.2,17.1,94.1,17.4,94.1,17.6z M107.3,15.1L107.3,15.1c0.4,1.9,1,2.8,1.7,2.8l0,0
				c0.3,0,0.6-0.1,0.8-0.3c0.3-0.2,0.5-0.5,0.8-0.8c0.2-0.3,0.4-0.6,0.6-1c0.2-0.4,0.3-0.7,0.4-0.9l0,0c0.1-0.2,0.2-0.3,0.4-0.3l0,0
				c0.1,0,0.2,0,0.3,0.1c0.1,0.1,0.1,0.2,0.1,0.3l0,0c0,0.1,0,0.1,0,0.2l0,0c-0.1,0.1-0.1,0.3-0.3,0.6c-0.1,0.2-0.2,0.5-0.4,0.7
				c-0.2,0.3-0.3,0.5-0.5,0.8c-0.2,0.3-0.4,0.5-0.7,0.7c-0.2,0.2-0.5,0.4-0.8,0.5c-0.3,0.1-0.5,0.2-0.8,0.2l0,0
				c-0.5,0-1-0.2-1.4-0.6c-0.4-0.4-0.7-1-1-1.9l0,0c-0.4,0.8-0.8,1.4-1.2,1.8c-0.4,0.4-0.8,0.6-1.3,0.6l0,0c-0.2,0-0.5,0-0.7-0.1
				c-0.2-0.1-0.4-0.2-0.6-0.4s-0.3-0.4-0.4-0.7c-0.1-0.3-0.2-0.6-0.2-1l0,0c0-0.6,0.1-1.1,0.3-1.6c0.2-0.5,0.5-0.9,0.8-1.2
				c0.3-0.3,0.7-0.6,1-0.8c0.4-0.2,0.8-0.3,1.1-0.3l0,0c0.1,0,0.2,0,0.3,0.1c0.1,0.1,0.1,0.2,0.1,0.3l0,0c0,0.1,0,0.2-0.1,0.3
				c-0.1,0.1-0.2,0.1-0.3,0.2l0,0c-0.2,0-0.5,0.1-0.8,0.2c-0.3,0.1-0.5,0.3-0.8,0.5c-0.2,0.2-0.4,0.5-0.6,0.9
				c-0.2,0.4-0.2,0.8-0.2,1.3l0,0c0,0.4,0.1,0.7,0.3,1c0.2,0.2,0.4,0.3,0.7,0.3l0,0c0.1,0,0.3,0,0.4-0.1c0.1-0.1,0.3-0.2,0.5-0.4
				s0.4-0.5,0.6-0.9c0.2-0.4,0.4-0.9,0.7-1.5l0,0c-0.1-0.7-0.3-1.6-0.4-2.5c-0.1-0.9-0.2-2-0.2-3.2l0,0c0-0.5,0-1,0.1-1.6
				c0-0.6,0.1-1.1,0.2-1.6c0.1-0.5,0.2-1,0.3-1.5c0.1-0.5,0.3-0.9,0.5-1.3c0.2-0.4,0.4-0.6,0.6-0.8c0.2-0.2,0.5-0.3,0.8-0.3l0,0
				c0.3,0,0.5,0.1,0.7,0.2c0.2,0.1,0.3,0.4,0.5,0.6c0.1,0.3,0.2,0.6,0.3,0.9c0.1,0.4,0.1,0.8,0.1,1.2l0,0c0,1-0.1,1.9-0.2,2.8
				c-0.2,1-0.4,1.9-0.6,2.7c-0.2,0.9-0.5,1.7-0.8,2.4C107.8,14,107.5,14.6,107.3,15.1z M108.8,5.2L108.8,5.2c0-0.2,0-0.4,0-0.7
				c0-0.2,0-0.5-0.1-0.7c0-0.2-0.1-0.4-0.2-0.5c-0.1-0.1-0.2-0.2-0.3-0.2l0,0c-0.2,0-0.4,0.2-0.6,0.5c-0.2,0.4-0.3,0.8-0.5,1.4
				c-0.1,0.6-0.2,1.2-0.3,2c-0.1,0.7-0.1,1.5-0.1,2.2l0,0c0,0.7,0,1.4,0.1,2.2c0.1,0.7,0.1,1.4,0.2,1.9l0,0c0.2-0.6,0.5-1.3,0.7-1.9
				c0.2-0.7,0.4-1.3,0.6-2c0.2-0.7,0.3-1.4,0.4-2.1C108.7,6.6,108.8,5.9,108.8,5.2z M138.9,16.7L138.9,16.7c0,0-0.1,0.1-0.2,0.2
				c-0.1,0.1-0.2,0.3-0.4,0.4c-0.2,0.2-0.4,0.4-0.6,0.6c-0.2,0.2-0.5,0.4-0.9,0.6s-0.7,0.3-1.2,0.4c-0.4,0.1-0.9,0.2-1.4,0.2l0,0
				c-0.8,0-1.6-0.1-2.3-0.3c-0.7-0.2-1.4-0.5-2-0.8c-0.6-0.3-1.3-0.7-1.9-1c-0.6-0.4-1.3-0.7-1.9-1.1l0,0c-0.4,0.7-0.9,1.2-1.4,1.6
				c-0.5,0.4-1.1,0.7-1.6,1c-0.6,0.2-1.1,0.4-1.7,0.5c-0.5,0.1-1.1,0.1-1.5,0.1l0,0c-0.4,0-0.9,0-1.4-0.1c-0.5-0.1-0.9-0.2-1.3-0.5
				c-0.4-0.2-0.7-0.5-0.9-0.9c-0.2-0.4-0.4-0.8-0.4-1.3l0,0c0-0.5,0.1-0.9,0.3-1.3c0.2-0.4,0.5-0.7,0.9-1c0.4-0.3,0.9-0.5,1.4-0.6
				c0.5-0.2,1.1-0.2,1.7-0.2l0,0c0.5,0,0.9,0,1.4,0.1c0.5,0.1,0.9,0.2,1.4,0.3c0.4,0.1,0.9,0.3,1.3,0.5c0.4,0.2,0.8,0.4,1.2,0.5l0,0
				c0.1-0.1,0.1-0.3,0.1-0.4c0-0.1,0.1-0.3,0.1-0.5c0-0.2,0.1-0.4,0.1-0.6c0-0.2,0-0.5,0-0.8l0,0c0-0.3,0-0.5,0-0.8
				c0-0.2,0-0.5,0-0.8c0-0.3,0-0.6,0-1c0-0.4,0-0.8,0-1.3l0,0c0-1.2,0.1-2.2,0.3-3.2c0.2-1,0.6-1.8,1-2.5c0.5-0.7,1-1.2,1.7-1.6
				c0.7-0.4,1.5-0.6,2.3-0.6l0,0c0.5,0,1.1,0.1,1.5,0.3c0.5,0.2,0.9,0.4,1.3,0.7c0.4,0.3,0.7,0.7,0.9,1.1c0.2,0.4,0.3,0.9,0.3,1.5
				l0,0c0,0.3,0,0.6-0.1,0.9c-0.1,0.3-0.2,0.6-0.3,0.9c-0.1,0.3-0.3,0.5-0.5,0.7c-0.2,0.2-0.4,0.3-0.6,0.3l0,0c-0.1,0-0.2,0-0.3-0.1
				c-0.1-0.1-0.1-0.2-0.1-0.3l0,0c0-0.1,0-0.2,0.1-0.3c0-0.1,0.1-0.1,0.2-0.2l0,0c0.2-0.2,0.4-0.5,0.6-0.8c0.2-0.3,0.2-0.7,0.2-1.1
				l0,0c0-0.4-0.1-0.8-0.3-1.1c-0.2-0.3-0.4-0.6-0.7-0.8c-0.3-0.2-0.6-0.4-1-0.5c-0.4-0.1-0.8-0.2-1.2-0.2l0,0c-0.8,0-1.4,0.2-2,0.5
				c-0.6,0.3-1,0.8-1.4,1.4c-0.4,0.6-0.6,1.3-0.8,2.2c-0.2,0.9-0.3,1.8-0.3,2.9l0,0c0,0.5,0,1,0,1.3c0,0.4,0,0.7,0,1.1
				c0,0.3,0,0.6,0,0.9c0,0.3,0,0.6,0,0.9l0,0c0,0.2,0,0.4,0,0.6s0,0.4-0.1,0.6c0,0.2-0.1,0.4-0.1,0.6c-0.1,0.2-0.1,0.4-0.2,0.5l0,0
				c0.6,0.3,1.2,0.7,1.8,1c0.6,0.4,1.2,0.7,1.8,1c0.6,0.3,1.3,0.6,1.9,0.8c0.7,0.2,1.4,0.3,2.1,0.3l0,0c0.7,0,1.2-0.1,1.7-0.3
				s0.9-0.4,1.2-0.7c0.3-0.2,0.6-0.5,0.7-0.7c0.2-0.2,0.2-0.3,0.2-0.3l0,0c0.1-0.2,0.2-0.2,0.4-0.2l0,0c0.1,0,0.3,0.1,0.3,0.2
				c0.1,0.1,0.1,0.2,0.1,0.3l0,0C139,16.5,139,16.6,138.9,16.7z M125.4,15.4L125.4,15.4c-0.4-0.2-0.7-0.3-1.1-0.5
				c-0.4-0.2-0.8-0.3-1.2-0.5c-0.4-0.1-0.8-0.2-1.3-0.3c-0.4-0.1-0.9-0.1-1.3-0.1l0,0c-0.5,0-0.9,0.1-1.4,0.2
				c-0.4,0.1-0.8,0.3-1.1,0.5c-0.3,0.2-0.6,0.4-0.8,0.7c-0.2,0.3-0.3,0.6-0.3,0.9l0,0c0,0.3,0.1,0.6,0.2,0.9s0.4,0.4,0.7,0.6
				c0.3,0.2,0.6,0.3,0.9,0.4c0.4,0.1,0.7,0.1,1.1,0.1l0,0c0.5,0,1,0,1.5-0.1c0.5-0.1,1-0.2,1.5-0.4c0.5-0.2,0.9-0.5,1.3-0.9
				C124.7,16.4,125,16,125.4,15.4z M145.6,17.3L145.6,17.3c-0.2,0-0.4,0-0.5-0.1l0,0c-0.1,0.2-0.3,0.5-0.4,0.7s-0.4,0.4-0.6,0.5
				c-0.2,0.2-0.5,0.3-0.8,0.4c-0.3,0.1-0.6,0.1-0.9,0.1l0,0c-0.4,0-0.7-0.1-1.1-0.2c-0.3-0.1-0.6-0.3-0.8-0.6
				c-0.2-0.2-0.4-0.5-0.6-0.9c-0.1-0.3-0.2-0.7-0.2-1.1l0,0c0-0.5,0.1-1,0.3-1.4c0.2-0.4,0.4-0.7,0.6-1c0.2-0.3,0.5-0.4,0.7-0.6
				c0.2-0.1,0.4-0.2,0.6-0.2l0,0c0.1,0,0.2,0,0.3,0.1c0.1,0.1,0.1,0.2,0.1,0.3l0,0c0,0.1,0,0.2-0.1,0.3c-0.1,0.1-0.2,0.1-0.3,0.2
				l0,0c-0.1,0.1-0.3,0.2-0.4,0.3c-0.1,0.1-0.3,0.3-0.4,0.4c-0.1,0.2-0.2,0.4-0.3,0.6c-0.1,0.2-0.1,0.5-0.1,0.8l0,0
				c0,0.3,0,0.5,0.1,0.8c0.1,0.2,0.2,0.4,0.4,0.6c0.2,0.2,0.3,0.3,0.6,0.4c0.2,0.1,0.5,0.1,0.7,0.1l0,0c0.5,0,0.9-0.1,1.2-0.3
				c0.3-0.2,0.5-0.5,0.7-0.8l0,0c-0.5-0.3-0.9-0.6-1.2-1.1c-0.3-0.5-0.5-1-0.5-1.6l0,0c0-0.5,0.1-0.9,0.3-1.1
				c0.2-0.3,0.5-0.4,0.9-0.4l0,0c0.2,0,0.4,0.1,0.6,0.2s0.4,0.3,0.5,0.5c0.2,0.2,0.3,0.5,0.4,0.9c0.1,0.4,0.1,0.8,0.1,1.3l0,0
				c0,0.3,0,0.5-0.1,0.8l0,0c0.1,0,0.1,0,0.2,0c0,0,0.1,0,0.2,0l0,0c0.3,0,0.5,0,0.7-0.1c0.2-0.1,0.4-0.2,0.6-0.3
				c0.2-0.1,0.3-0.3,0.5-0.5c0.1-0.2,0.3-0.4,0.4-0.7l0,0c0-0.1,0.1-0.1,0.2-0.1c0.1,0,0.2-0.1,0.2-0.1l0,0c0.1,0,0.2,0,0.3,0.1
				c0.1,0.1,0.1,0.2,0.1,0.3l0,0c0,0.1,0,0.1-0.1,0.2c0,0.1-0.1,0.2-0.1,0.2l0,0c-0.1,0.2-0.3,0.5-0.5,0.7c-0.2,0.2-0.4,0.4-0.7,0.6
				c-0.2,0.2-0.5,0.3-0.8,0.4C146.3,17.3,146,17.4,145.6,17.3z M143.5,14.3L143.5,14.3c0,0.2,0,0.3,0.1,0.5c0,0.2,0.1,0.3,0.2,0.5
				c0.1,0.2,0.2,0.3,0.3,0.5c0.1,0.2,0.3,0.3,0.4,0.4l0,0c0-0.2,0-0.3,0-0.5l0,0c0-0.2,0-0.4,0-0.7c0-0.2-0.1-0.4-0.1-0.6
				c-0.1-0.2-0.1-0.3-0.2-0.5c-0.1-0.1-0.2-0.2-0.3-0.2l0,0c-0.1,0-0.1,0-0.2,0.1C143.5,13.8,143.5,14,143.5,14.3z M152.3,19.9
				L152.3,19.9c1.5-2,2.6-3.7,3.2-5l0,0c0-0.1,0.1-0.2,0.2-0.2c0.1,0,0.1-0.1,0.2-0.1l0,0c0.1,0,0.3,0,0.3,0.1
				c0.1,0.1,0.1,0.2,0.1,0.3l0,0c0,0.1,0,0.1,0,0.2l0,0c-0.4,0.8-0.9,1.7-1.5,2.7c-0.7,1-1.5,2.1-2.5,3.4l0,0c0,0.5,0,1,0,1.5
				s0,1.1,0,1.7l0,0c0,0.6,0,1.2,0,1.8c0,0.6-0.1,1.2-0.2,1.7c-0.1,0.5-0.2,1-0.3,1.5c-0.1,0.5-0.3,0.9-0.5,1.2
				c-0.2,0.3-0.4,0.6-0.7,0.8c-0.3,0.2-0.6,0.3-1,0.3l0,0c-0.5,0-1-0.2-1.3-0.6c-0.3-0.4-0.4-1-0.4-1.8l0,0c0-0.4,0-0.9,0.1-1.3
				c0.1-0.5,0.2-1,0.3-1.5c0.1-0.5,0.3-1,0.5-1.5c0.2-0.5,0.4-1,0.7-1.5c0.3-0.5,0.5-1,0.8-1.4c0.3-0.4,0.6-0.9,0.9-1.2l0,0
				c0-0.6,0-1.1,0-1.7c0-0.6,0-1.1,0-1.6l0,0c-0.2,0.3-0.5,0.6-0.9,0.7c-0.3,0.2-0.7,0.3-1,0.3l0,0c-0.3,0-0.5-0.1-0.8-0.2
				c-0.2-0.1-0.4-0.3-0.6-0.5c-0.2-0.2-0.3-0.4-0.4-0.7c-0.1-0.3-0.1-0.6-0.1-0.9l0,0c0-0.6,0.1-1.2,0.3-1.7
				c0.2-0.5,0.5-0.9,0.8-1.2c0.3-0.3,0.7-0.6,1.1-0.7c0.4-0.2,0.8-0.2,1.2-0.2l0,0c0.3,0,0.5,0,0.7,0.1c0.2,0.1,0.4,0.1,0.5,0.2
				c0.2,0.1,0.3,0.2,0.3,0.2c0.1,0.1,0.1,0.1,0.1,0.1l0,0c0.1,0.1,0.1,0.2,0.1,0.3l0,0c0,0.1,0,0.2-0.1,0.3
				c-0.1,0.1-0.2,0.1-0.3,0.1l0,0c-0.1,0-0.2,0-0.3-0.1l0,0c0,0-0.1-0.1-0.1-0.1c-0.1,0-0.1-0.1-0.2-0.1c-0.1-0.1-0.2-0.1-0.3-0.1
				c-0.1,0-0.3-0.1-0.4-0.1l0,0c-0.2,0-0.5,0.1-0.8,0.2c-0.3,0.1-0.6,0.3-0.8,0.5c-0.3,0.2-0.5,0.5-0.6,0.9
				c-0.2,0.4-0.3,0.8-0.3,1.3l0,0c0,0.4,0.1,0.7,0.3,0.9c0.2,0.2,0.4,0.4,0.8,0.4l0,0c0.2,0,0.4,0,0.5-0.1c0.2-0.1,0.4-0.3,0.6-0.5
				c0.2-0.2,0.3-0.5,0.5-0.8c0.1-0.3,0.2-0.7,0.3-1.1l0,0c0-0.1,0.1-0.2,0.2-0.3c0.1-0.1,0.2-0.1,0.3-0.1l0,0c0.1,0,0.2,0,0.3,0.1
				c0.1,0.1,0.1,0.2,0.1,0.3l0,0c0,0,0,0.1,0,0.4c0,0.2,0,0.6,0,1c0,0.4,0,0.9,0,1.4C152.3,18.8,152.3,19.3,152.3,19.9z M151.4,22.6
				L151.4,22.6c-0.4,0.5-0.7,1.1-1,1.7c-0.3,0.6-0.6,1.3-0.8,1.9c-0.2,0.6-0.4,1.3-0.5,1.9c-0.1,0.6-0.2,1.1-0.2,1.6l0,0
				c0,0.3,0,0.5,0.1,0.7c0.1,0.2,0.1,0.3,0.2,0.4c0.1,0.1,0.2,0.2,0.3,0.2c0.1,0,0.2,0.1,0.3,0.1l0,0c0.3,0,0.5-0.1,0.7-0.3
				s0.3-0.5,0.5-0.8c0.1-0.3,0.2-0.7,0.3-1.2c0.1-0.4,0.1-0.9,0.2-1.4c0-0.5,0.1-0.9,0.1-1.4c0-0.5,0-0.9,0-1.3l0,0
				c0-0.4,0-0.7,0-1.1S151.4,23,151.4,22.6z M165,15.3L165,15.3c0,0.1-0.1,0.2-0.2,0.4c-0.1,0.2-0.2,0.4-0.4,0.7
				c-0.2,0.3-0.3,0.6-0.6,0.8c-0.2,0.3-0.5,0.6-0.7,0.8c-0.3,0.2-0.5,0.5-0.8,0.6c-0.3,0.2-0.6,0.2-1,0.2l0,0
				c-0.5,0-0.9-0.2-1.2-0.5c-0.3-0.3-0.6-0.7-0.7-1.1l0,0c-0.3,0.5-0.6,0.8-1,1.1c-0.4,0.3-0.8,0.4-1.2,0.4l0,0
				c-0.3,0-0.6-0.1-0.8-0.2c-0.2-0.1-0.5-0.3-0.6-0.5c-0.2-0.2-0.3-0.4-0.4-0.7c-0.1-0.3-0.1-0.6-0.1-0.9l0,0c0-0.6,0.1-1.2,0.3-1.7
				c0.2-0.5,0.5-0.9,0.8-1.2c0.3-0.3,0.7-0.6,1.1-0.7c0.4-0.2,0.8-0.2,1.2-0.2l0,0c0.3,0,0.5,0,0.7,0.1c0.2,0.1,0.4,0.1,0.5,0.2
				c0.2,0.1,0.3,0.2,0.4,0.2c0.1,0.1,0.1,0.1,0.1,0.1l0,0c0.1,0.1,0.1,0.2,0.1,0.3l0,0c0,0.1,0,0.2-0.1,0.3
				c-0.1,0.1-0.2,0.1-0.3,0.1l0,0c-0.1,0-0.2,0-0.3-0.1l0,0c0,0-0.1,0-0.1-0.1c-0.1,0-0.1-0.1-0.2-0.1c-0.1-0.1-0.2-0.1-0.3-0.1
				c-0.1,0-0.3-0.1-0.5-0.1l0,0c-0.3,0-0.5,0.1-0.8,0.2c-0.3,0.1-0.6,0.3-0.8,0.5c-0.2,0.2-0.4,0.5-0.6,0.9
				c-0.2,0.4-0.2,0.8-0.2,1.3l0,0c0,0.2,0,0.3,0.1,0.5c0,0.2,0.1,0.3,0.2,0.4c0.1,0.1,0.2,0.2,0.3,0.3c0.1,0.1,0.3,0.1,0.5,0.1l0,0
				c0.1,0,0.3,0,0.5-0.1c0.2-0.1,0.4-0.3,0.6-0.5c0.2-0.2,0.3-0.5,0.5-0.8c0.1-0.3,0.2-0.7,0.3-1.1l0,0c0-0.1,0.1-0.2,0.2-0.3
				c0.1-0.1,0.2-0.1,0.3-0.1l0,0c0.1,0,0.2,0,0.3,0.1c0.1,0.1,0.1,0.2,0.1,0.3l0,0c0,0.2,0,0.4,0.1,0.7c0,0.3,0.1,0.6,0.2,0.8
				c0.1,0.3,0.2,0.5,0.4,0.7c0.2,0.2,0.4,0.3,0.7,0.3l0,0c0.2,0,0.4-0.1,0.6-0.2c0.2-0.1,0.4-0.2,0.6-0.4c0.2-0.2,0.4-0.4,0.5-0.6
				c0.2-0.2,0.3-0.4,0.5-0.7c0.1-0.2,0.3-0.5,0.4-0.7c0.1-0.2,0.2-0.4,0.3-0.6l0,0c0-0.1,0.1-0.2,0.2-0.2c0.1,0,0.2-0.1,0.3-0.1l0,0
				c0.1,0,0.3,0.1,0.3,0.2c0.1,0.1,0.1,0.2,0.1,0.3l0,0C165,15.2,165,15.2,165,15.3z M166.9,17.6L166.9,17.6
				c0.1-0.3,0.3-0.6,0.5-0.9c0.2-0.3,0.4-0.7,0.6-1c0.2-0.3,0.4-0.7,0.6-1c0.2-0.3,0.4-0.6,0.7-0.9l0,0c0.2-0.3,0.5-0.5,0.7-0.6
				c0.2-0.1,0.5-0.2,0.7-0.2l0,0c0.4,0,0.7,0.2,0.9,0.5c0.2,0.3,0.3,0.7,0.3,1.2l0,0c0,0.1,0,0.2,0,0.4c0,0.2,0,0.3,0,0.5
				c0,0.2,0,0.3,0,0.5c0,0.2,0,0.3,0,0.5l0,0c0,0.2,0,0.4,0,0.6c0,0.2,0.1,0.3,0.1,0.5c0.1,0.1,0.1,0.2,0.2,0.3
				c0.1,0.1,0.2,0.1,0.4,0.1l0,0c0.3,0,0.6-0.1,0.9-0.4c0.3-0.2,0.6-0.5,0.8-0.9c0.2-0.3,0.5-0.7,0.6-1c0.2-0.3,0.3-0.6,0.4-0.8l0,0
				c0-0.1,0.1-0.2,0.2-0.2c0.1,0,0.2-0.1,0.3-0.1l0,0c0.1,0,0.3,0.1,0.3,0.2c0.1,0.1,0.1,0.2,0.1,0.3l0,0c0,0.1,0,0.1,0,0.2l0,0
				c0,0.1-0.1,0.2-0.2,0.4c-0.1,0.2-0.2,0.4-0.4,0.7c-0.2,0.3-0.3,0.5-0.6,0.8c-0.2,0.3-0.4,0.6-0.7,0.8c-0.3,0.2-0.5,0.5-0.8,0.6
				c-0.3,0.2-0.6,0.2-0.9,0.2l0,0c-0.4,0-0.7-0.1-0.9-0.2c-0.2-0.1-0.4-0.3-0.5-0.6c-0.1-0.2-0.2-0.5-0.3-0.8c0-0.3-0.1-0.6-0.1-0.9
				l0,0c0-0.1,0-0.3,0-0.4c0-0.2,0-0.3,0.1-0.5c0-0.2,0-0.3,0.1-0.5s0-0.3,0-0.5l0,0c0-0.3,0-0.4-0.1-0.5c-0.1-0.1-0.2-0.1-0.2-0.1
				l0,0c-0.1,0-0.3,0.1-0.4,0.2c-0.2,0.2-0.3,0.4-0.5,0.6c-0.2,0.2-0.4,0.5-0.6,0.8c-0.2,0.3-0.4,0.6-0.5,0.9
				c-0.2,0.3-0.3,0.6-0.5,0.9c-0.1,0.3-0.3,0.5-0.3,0.7l0,0c-0.2,0.3-0.3,0.6-0.5,0.7c-0.2,0.1-0.3,0.2-0.5,0.2l0,0
				c-0.2,0-0.4-0.1-0.6-0.2c-0.1-0.1-0.2-0.3-0.2-0.6l0,0c0-0.1,0-0.2,0-0.3c0-0.2,0-0.4,0.1-0.6c0-0.2,0.1-0.5,0.1-0.8
				c0-0.3,0.1-0.5,0.1-0.8c0-0.3,0-0.5,0.1-0.7c0-0.2,0-0.4,0-0.6l0,0c0-0.2,0-0.4,0-0.6c0-0.2-0.1-0.3-0.1-0.3l0,0
				c-0.1,0-0.2,0.2-0.4,0.5c-0.2,0.3-0.4,0.8-0.7,1.5l0,0c0,0.1-0.1,0.2-0.2,0.2c-0.1,0.1-0.2,0.1-0.3,0.1l0,0c-0.1,0-0.2,0-0.3-0.1
				c-0.1-0.1-0.1-0.2-0.1-0.3l0,0c0-0.1,0-0.1,0-0.2l0,0c0.4-0.9,0.7-1.5,1-1.9c0.3-0.4,0.6-0.6,1-0.6l0,0c0.2,0,0.3,0,0.5,0.1
				c0.1,0.1,0.2,0.2,0.3,0.4c0.1,0.2,0.1,0.3,0.2,0.5c0,0.2,0.1,0.4,0.1,0.6l0,0c0,0.1,0,0.4,0,0.7c0,0.3,0,0.6-0.1,1
				c0,0.4-0.1,0.7-0.1,1.1S166.9,17.4,166.9,17.6z M199,0.9L199,0.9c0,0.3-0.1,0.6-0.2,0.8c-0.2,0.3-0.4,0.5-0.6,0.8
				c-0.2,0.2-0.5,0.4-0.8,0.6c-0.3,0.2-0.6,0.4-0.9,0.5l0,0c-0.1,0.3-0.1,0.7-0.2,1.1c-0.1,0.4-0.1,0.9-0.1,1.4l0,0
				c0,0.6,0,1.3-0.1,1.9c0,0.6-0.1,1.3-0.1,1.9l0,0c0.7,0,1.4,0,2.2-0.1c0.8,0,1.6-0.1,2.5-0.1s1.7,0,2.6-0.1c0.9,0,1.8,0,2.7,0l0,0
				c0.1-1.3,0.2-2.5,0.4-3.5c0.2-1,0.5-1.9,0.9-2.6c0.4-0.7,0.8-1.2,1.3-1.6c0.5-0.4,1-0.5,1.6-0.5l0,0c0.1,0,0.2,0,0.4,0
				c0.1,0,0.3,0,0.4,0.1c0.1,0,0.3,0.1,0.4,0.2c0.1,0.1,0.1,0.2,0.1,0.4l0,0c0,0,0,0.1,0,0.1c0,0,0,0.1-0.1,0.1l0,0
				c-0.1,0.1-0.2,0.2-0.4,0.2l0,0c-0.1,0-0.1,0-0.2,0c0,0-0.1,0-0.1-0.1c-0.1,0-0.1,0-0.2-0.1c-0.1,0-0.2,0-0.3,0l0,0
				c-0.1,0-0.3,0-0.5,0.1c-0.2,0-0.4,0.1-0.6,0.3c-0.2,0.2-0.4,0.4-0.7,0.7c-0.2,0.3-0.5,0.7-0.7,1.3c-0.2,0.5-0.4,1.2-0.5,2
				c-0.2,0.8-0.3,1.8-0.3,2.9l0,0c0.5,0,1.1,0,1.6,0c0.5,0,1,0,1.5,0l0,0c0.1,0,0.2,0,0.3,0.1c0.1,0.1,0.1,0.2,0.1,0.3l0,0
				c0,0.1,0,0.2-0.1,0.3c-0.1,0.1-0.2,0.1-0.3,0.1l0,0c-0.2,0-0.3,0-0.5,0c-0.2,0-0.4,0-0.6,0c-0.2,0-0.5,0-0.9,0s-0.7,0-1.2,0l0,0
				c0,0.1,0,0.3,0,0.4c0,0.1,0,0.3,0,0.4l0,0c0,0.9,0,1.7,0.1,2.4c0.1,0.7,0.2,1.3,0.3,1.9c0.1,0.5,0.2,1,0.3,1.4
				c0.1,0.4,0.2,0.7,0.3,1c0.1,0.3,0.2,0.4,0.3,0.6c0.1,0.1,0.1,0.2,0.1,0.2l0,0c0.1,0.1,0.1,0.2,0.1,0.3l0,0c0,0.1,0,0.2-0.1,0.3
				c-0.1,0.1-0.2,0.1-0.3,0.1l0,0c-0.2,0-0.3-0.1-0.4-0.2l0,0c0,0-0.1-0.2-0.3-0.5c-0.2-0.3-0.3-0.8-0.5-1.4
				c-0.2-0.6-0.4-1.5-0.5-2.4c-0.2-1-0.2-2.2-0.2-3.6l0,0v-0.8c-0.9,0-1.8,0-2.7,0c-0.9,0-1.8,0-2.7,0.1c-0.9,0-1.7,0.1-2.5,0.1
				c-0.8,0-1.5,0.1-2.2,0.1l0,0c-0.2,1.1-0.4,2.2-0.7,3.2c-0.3,1-0.8,1.9-1.4,2.6c-0.6,0.8-1.4,1.4-2.3,1.8
				c-0.9,0.4-2.1,0.7-3.5,0.7l0,0c-0.7,0-1.4-0.1-2.1-0.2c-0.7-0.2-1.3-0.4-1.9-0.6c-0.6-0.3-1.1-0.6-1.6-1
				c-0.5-0.4-0.9-0.8-1.1-1.3l0,0c-0.1-0.1-0.1-0.2-0.1-0.2l0,0c0-0.1,0-0.2,0.1-0.3c0.1-0.1,0.2-0.1,0.3-0.1l0,0
				c0.1,0,0.2,0,0.2,0.1c0.1,0,0.1,0.1,0.2,0.2l0,0c0.3,0.4,0.6,0.8,1,1.1c0.4,0.3,0.9,0.6,1.4,0.8c0.5,0.2,1.1,0.4,1.7,0.5
				c0.6,0.1,1.2,0.2,1.9,0.2l0,0c1.2,0,2.2-0.2,3-0.6c0.8-0.4,1.5-0.9,2-1.6c0.5-0.7,0.9-1.4,1.2-2.3c0.3-0.9,0.5-1.8,0.6-2.9l0,0
				c-0.8,0-1.4,0.1-1.9,0.1c-0.5,0-0.7,0-0.7,0l0,0c-0.1,0-0.2,0-0.3-0.1c-0.1-0.1-0.2-0.2-0.2-0.3l0,0c0-0.1,0-0.2,0.1-0.3
				c0.1-0.1,0.2-0.1,0.3-0.2l0,0c0,0,0.3,0,0.8,0c0.5,0,1.2-0.1,2-0.1l0,0c0.1-0.6,0.1-1.3,0.2-1.9c0-0.6,0.1-1.3,0.1-1.9l0,0
				c0-0.4,0-0.8,0.1-1.2c0-0.4,0.1-0.7,0.2-1.1l0,0c-0.2,0-0.4,0.1-0.6,0.1c-0.2,0-0.5,0-0.7,0l0,0c-0.7,0-1.4-0.1-2.1-0.2
				c-0.7-0.1-1.4-0.2-2.1-0.4c-0.7-0.1-1.4-0.3-2.1-0.4c-0.7-0.1-1.4-0.2-2.2-0.2l0,0c-0.6,0-1.2,0.1-1.7,0.2
				c-0.5,0.1-1,0.3-1.4,0.6c-0.4,0.3-0.7,0.6-0.9,1c-0.2,0.4-0.3,0.9-0.3,1.4l0,0c0,0.3,0.1,0.6,0.2,0.9c0.1,0.3,0.3,0.5,0.4,0.7
				c0.2,0.2,0.3,0.3,0.4,0.4c0.1,0.1,0.2,0.2,0.3,0.2l0,0c0.1,0.1,0.2,0.2,0.2,0.4l0,0c0,0.1,0,0.2-0.1,0.3
				c-0.1,0.1-0.2,0.1-0.3,0.1l0,0c-0.1,0-0.1,0-0.2,0c-0.1,0-0.1,0-0.1-0.1l0,0c-0.2-0.1-0.4-0.3-0.6-0.4c-0.2-0.2-0.4-0.4-0.6-0.6
				c-0.2-0.3-0.3-0.5-0.4-0.8c-0.1-0.3-0.2-0.6-0.2-1l0,0c0-0.7,0.2-1.3,0.5-1.9c0.3-0.5,0.7-0.9,1.2-1.3c0.5-0.3,1.1-0.6,1.7-0.7
				c0.6-0.2,1.3-0.2,1.9-0.2l0,0c0.7,0,1.4,0.1,2.1,0.2c0.7,0.1,1.4,0.2,2.1,0.4c0.7,0.1,1.4,0.3,2.1,0.4c0.7,0.1,1.4,0.2,2.2,0.2
				l0,0c0.3,0,0.6,0,0.8,0c0.2,0,0.5-0.1,0.7-0.1l0,0c0.1-0.5,0.3-1,0.5-1.3c0.2-0.4,0.4-0.7,0.6-0.9c0.2-0.2,0.4-0.4,0.7-0.5
				c0.2-0.1,0.4-0.2,0.6-0.2l0,0c0.3,0,0.5,0.1,0.7,0.2C199,0.4,199,0.6,199,0.9z M198,0.9L198,0.9c-0.1,0-0.2,0-0.3,0.1
				c-0.1,0.1-0.2,0.2-0.4,0.3c-0.1,0.1-0.3,0.3-0.4,0.5c-0.1,0.2-0.2,0.5-0.3,0.8l0,0c0.3-0.1,0.5-0.3,0.7-0.5
				c0.2-0.2,0.4-0.4,0.5-0.6c0.1-0.2,0.2-0.4,0.2-0.5C198.1,0.9,198.1,0.9,198,0.9z M216.3,17.3L216.3,17.3c-0.2,0-0.4,0-0.5-0.1
				l0,0c-0.1,0.2-0.3,0.5-0.4,0.7c-0.2,0.2-0.4,0.4-0.6,0.5c-0.2,0.2-0.5,0.3-0.8,0.4c-0.3,0.1-0.6,0.1-0.9,0.1l0,0
				c-0.4,0-0.7-0.1-1.1-0.2c-0.3-0.1-0.6-0.3-0.8-0.6c-0.2-0.2-0.4-0.5-0.6-0.9s-0.2-0.7-0.2-1.1l0,0c0-0.5,0.1-1,0.3-1.4
				c0.2-0.4,0.4-0.7,0.6-1c0.2-0.3,0.5-0.4,0.7-0.6c0.2-0.1,0.4-0.2,0.6-0.2l0,0c0.1,0,0.2,0,0.3,0.1c0.1,0.1,0.1,0.2,0.1,0.3l0,0
				c0,0.1,0,0.2-0.1,0.3c-0.1,0.1-0.2,0.1-0.3,0.2l0,0c-0.1,0.1-0.3,0.2-0.4,0.3c-0.1,0.1-0.3,0.3-0.4,0.4c-0.1,0.2-0.2,0.4-0.3,0.6
				c-0.1,0.2-0.1,0.5-0.1,0.8l0,0c0,0.3,0,0.5,0.1,0.8c0.1,0.2,0.2,0.4,0.4,0.6c0.2,0.2,0.3,0.3,0.6,0.4c0.2,0.1,0.5,0.1,0.7,0.1
				l0,0c0.5,0,0.9-0.1,1.2-0.3c0.3-0.2,0.5-0.5,0.7-0.8l0,0c-0.5-0.3-0.9-0.6-1.2-1.1c-0.3-0.5-0.5-1-0.5-1.6l0,0
				c0-0.5,0.1-0.9,0.3-1.1c0.2-0.3,0.5-0.4,0.9-0.4l0,0c0.2,0,0.4,0.1,0.6,0.2c0.2,0.1,0.4,0.3,0.5,0.5c0.2,0.2,0.3,0.5,0.4,0.9
				c0.1,0.4,0.1,0.8,0.1,1.3l0,0c0,0.3,0,0.5-0.1,0.8l0,0c0.1,0,0.1,0,0.2,0c0,0,0.1,0,0.2,0l0,0c0.3,0,0.5,0,0.7-0.1
				c0.2-0.1,0.4-0.2,0.6-0.3c0.2-0.1,0.3-0.3,0.5-0.5c0.1-0.2,0.3-0.4,0.4-0.7l0,0c0-0.1,0.1-0.1,0.2-0.1c0.1,0,0.2-0.1,0.2-0.1l0,0
				c0.1,0,0.2,0,0.3,0.1c0.1,0.1,0.1,0.2,0.1,0.3l0,0c0,0.1,0,0.1-0.1,0.2c0,0.1-0.1,0.2-0.1,0.2l0,0c-0.1,0.2-0.3,0.5-0.5,0.7
				c-0.2,0.2-0.4,0.4-0.7,0.6c-0.2,0.2-0.5,0.3-0.8,0.4C217,17.3,216.7,17.4,216.3,17.3z M214.2,14.3L214.2,14.3
				c0,0.2,0,0.3,0.1,0.5c0,0.2,0.1,0.3,0.2,0.5c0.1,0.2,0.2,0.3,0.3,0.5s0.3,0.3,0.4,0.4l0,0c0-0.2,0-0.3,0-0.5l0,0
				c0-0.2,0-0.4,0-0.7c0-0.2-0.1-0.4-0.1-0.6c-0.1-0.2-0.1-0.3-0.2-0.5c-0.1-0.1-0.2-0.2-0.3-0.2l0,0c-0.1,0-0.1,0-0.2,0.1
				C214.2,13.8,214.2,14,214.2,14.3z M225.6,15.3L225.6,15.3c-0.1,0.2-0.2,0.4-0.3,0.7c-0.1,0.3-0.3,0.5-0.5,0.8
				c-0.2,0.3-0.4,0.6-0.6,0.8c-0.2,0.3-0.4,0.5-0.7,0.7c-0.3,0.2-0.5,0.4-0.8,0.5c-0.3,0.1-0.6,0.2-0.9,0.2l0,0
				c-0.5,0-0.9-0.2-1.3-0.5c-0.4-0.3-0.6-0.7-0.9-1.2c-0.2-0.5-0.4-1-0.6-1.7c-0.2-0.6-0.3-1.3-0.4-1.9c-0.1-0.7-0.1-1.3-0.2-1.9
				c0-0.6,0-1.2,0-1.6l0,0c0-0.7,0-1.4,0.1-2.1c0-0.7,0.1-1.5,0.2-2.2c0.1-0.7,0.2-1.4,0.4-2c0.2-0.6,0.3-1.2,0.5-1.7
				c0.2-0.5,0.5-0.8,0.7-1.1c0.3-0.3,0.6-0.4,0.9-0.4l0,0c0.3,0,0.5,0.1,0.7,0.2c0.2,0.1,0.4,0.3,0.5,0.6c0.1,0.3,0.3,0.7,0.3,1.1
				c0.1,0.5,0.1,1,0.1,1.7l0,0c0,0.8-0.1,1.7-0.3,2.5c-0.2,0.9-0.4,1.7-0.7,2.6c-0.3,0.9-0.6,1.8-1,2.6s-0.8,1.7-1.3,2.6l0,0
				c0.2,1,0.5,1.9,0.8,2.5c0.3,0.6,0.8,0.9,1.2,0.9l0,0c0.3,0,0.6-0.1,0.9-0.4c0.3-0.3,0.6-0.6,0.8-0.9c0.3-0.4,0.5-0.7,0.7-1.1
				c0.2-0.4,0.3-0.7,0.4-0.9l0,0c0-0.1,0.1-0.1,0.2-0.2c0.1,0,0.2-0.1,0.3-0.1l0,0c0.1,0,0.2,0,0.3,0.1c0.1,0.1,0.1,0.2,0.1,0.3l0,0
				C225.6,15.1,225.6,15.2,225.6,15.3z M219.4,10.4L219.4,10.4c0,0.5,0,1,0,1.5c0,0.5,0.1,0.9,0.1,1.4l0,0c0.3-0.7,0.7-1.4,1-2.1
				c0.3-0.7,0.6-1.5,0.8-2.3c0.2-0.8,0.4-1.5,0.6-2.3c0.1-0.8,0.2-1.5,0.2-2.2l0,0c0-1-0.1-1.7-0.2-2.1c-0.2-0.4-0.4-0.6-0.6-0.6
				l0,0c-0.2,0-0.3,0.1-0.5,0.4c-0.2,0.2-0.3,0.6-0.4,1c-0.1,0.4-0.3,0.9-0.4,1.4c-0.1,0.6-0.2,1.2-0.3,1.8c-0.1,0.6-0.1,1.3-0.2,2
				C219.4,9,219.4,9.7,219.4,10.4z M231.7,15.3L231.7,15.3c-0.1,0.2-0.2,0.4-0.3,0.7c-0.1,0.3-0.3,0.5-0.5,0.8
				c-0.2,0.3-0.4,0.6-0.6,0.8c-0.2,0.3-0.4,0.5-0.7,0.7c-0.2,0.2-0.5,0.4-0.8,0.5c-0.3,0.1-0.6,0.2-0.9,0.2l0,0
				c-0.5,0-0.9-0.2-1.3-0.5c-0.4-0.3-0.7-0.7-0.9-1.2c-0.2-0.5-0.4-1-0.6-1.7c-0.2-0.6-0.3-1.3-0.3-1.9c-0.1-0.7-0.1-1.3-0.2-1.9
				c0-0.6,0-1.2,0-1.6l0,0c0-0.7,0-1.4,0.1-2.1c0-0.7,0.1-1.5,0.2-2.2c0.1-0.7,0.2-1.4,0.4-2c0.2-0.6,0.3-1.2,0.5-1.7
				c0.2-0.5,0.4-0.8,0.7-1.1c0.3-0.3,0.6-0.4,0.9-0.4l0,0c0.3,0,0.5,0.1,0.7,0.2c0.2,0.1,0.4,0.3,0.5,0.6c0.1,0.3,0.3,0.7,0.3,1.1
				c0.1,0.5,0.1,1,0.1,1.7l0,0c0,0.8-0.1,1.7-0.3,2.5c-0.2,0.9-0.4,1.7-0.7,2.6c-0.3,0.9-0.6,1.8-1,2.6c-0.4,0.9-0.8,1.7-1.3,2.6
				l0,0c0.2,1,0.5,1.9,0.8,2.5c0.3,0.6,0.8,0.9,1.2,0.9l0,0c0.3,0,0.6-0.1,0.9-0.4c0.3-0.3,0.6-0.6,0.8-0.9c0.3-0.4,0.5-0.7,0.7-1.1
				c0.2-0.4,0.3-0.7,0.5-0.9l0,0c0-0.1,0.1-0.1,0.2-0.2c0.1,0,0.2-0.1,0.2-0.1l0,0c0.1,0,0.3,0,0.3,0.1c0.1,0.1,0.1,0.2,0.1,0.3l0,0
				C231.8,15.1,231.7,15.2,231.7,15.3z M225.6,10.4L225.6,10.4c0,0.5,0,1,0,1.5c0,0.5,0.1,0.9,0.1,1.4l0,0c0.3-0.7,0.7-1.4,1-2.1
				c0.3-0.7,0.6-1.5,0.8-2.3c0.2-0.8,0.4-1.5,0.6-2.3c0.1-0.8,0.2-1.5,0.2-2.2l0,0c0-1-0.1-1.7-0.2-2.1c-0.2-0.4-0.4-0.6-0.6-0.6
				l0,0c-0.2,0-0.3,0.1-0.5,0.4c-0.2,0.2-0.3,0.6-0.5,1c-0.1,0.4-0.3,0.9-0.4,1.4c-0.1,0.6-0.2,1.2-0.3,1.8c-0.1,0.6-0.1,1.3-0.2,2
				C225.6,9,225.6,9.7,225.6,10.4z M240.4,15.3L240.4,15.3c0,0.1-0.1,0.2-0.2,0.4c-0.1,0.2-0.2,0.4-0.4,0.7
				c-0.2,0.3-0.3,0.6-0.6,0.8c-0.2,0.3-0.5,0.6-0.7,0.8c-0.3,0.2-0.5,0.5-0.8,0.6c-0.3,0.2-0.6,0.2-1,0.2l0,0
				c-0.5,0-0.9-0.2-1.2-0.5c-0.3-0.3-0.6-0.7-0.7-1.1l0,0c-0.3,0.5-0.6,0.8-1,1.1c-0.4,0.3-0.8,0.4-1.2,0.4l0,0
				c-0.3,0-0.6-0.1-0.8-0.2c-0.2-0.1-0.5-0.3-0.6-0.5c-0.2-0.2-0.3-0.4-0.4-0.7c-0.1-0.3-0.1-0.6-0.1-0.9l0,0c0-0.6,0.1-1.2,0.3-1.7
				c0.2-0.5,0.5-0.9,0.8-1.2c0.3-0.3,0.7-0.6,1.1-0.7c0.4-0.2,0.8-0.2,1.2-0.2l0,0c0.3,0,0.5,0,0.7,0.1c0.2,0.1,0.4,0.1,0.5,0.2
				c0.2,0.1,0.3,0.2,0.3,0.2c0.1,0.1,0.1,0.1,0.1,0.1l0,0c0.1,0.1,0.1,0.2,0.1,0.3l0,0c0,0.1,0,0.2-0.1,0.3
				c-0.1,0.1-0.2,0.1-0.3,0.1l0,0c-0.1,0-0.2,0-0.3-0.1l0,0c0,0-0.1,0-0.1-0.1c-0.1,0-0.1-0.1-0.2-0.1c-0.1-0.1-0.2-0.1-0.4-0.1
				c-0.1,0-0.3-0.1-0.5-0.1l0,0c-0.3,0-0.5,0.1-0.8,0.2c-0.3,0.1-0.6,0.3-0.8,0.5c-0.2,0.2-0.4,0.5-0.6,0.9
				c-0.2,0.4-0.2,0.8-0.2,1.3l0,0c0,0.2,0,0.3,0.1,0.5c0,0.2,0.1,0.3,0.2,0.4c0.1,0.1,0.2,0.2,0.3,0.3c0.1,0.1,0.3,0.1,0.5,0.1l0,0
				c0.1,0,0.3,0,0.5-0.1c0.2-0.1,0.4-0.3,0.6-0.5c0.2-0.2,0.3-0.5,0.5-0.8c0.1-0.3,0.2-0.7,0.3-1.1l0,0c0-0.1,0.1-0.2,0.2-0.3
				c0.1-0.1,0.2-0.1,0.3-0.1l0,0c0.1,0,0.2,0,0.3,0.1c0.1,0.1,0.1,0.2,0.1,0.3l0,0c0,0.2,0,0.4,0.1,0.7c0,0.3,0.1,0.6,0.2,0.8
				c0.1,0.3,0.2,0.5,0.4,0.7c0.2,0.2,0.4,0.3,0.7,0.3l0,0c0.2,0,0.4-0.1,0.6-0.2c0.2-0.1,0.4-0.2,0.6-0.4c0.2-0.2,0.4-0.4,0.5-0.6
				c0.2-0.2,0.3-0.4,0.5-0.7c0.1-0.2,0.3-0.5,0.4-0.7c0.1-0.2,0.2-0.4,0.3-0.6l0,0c0-0.1,0.1-0.2,0.2-0.2c0.1,0,0.2-0.1,0.3-0.1l0,0
				c0.1,0,0.3,0.1,0.3,0.2c0.1,0.1,0.1,0.2,0.1,0.3l0,0C240.4,15.2,240.4,15.2,240.4,15.3z M242.2,17.6L242.2,17.6
				c0.1-0.3,0.3-0.6,0.5-0.9c0.2-0.3,0.4-0.7,0.5-1c0.2-0.3,0.4-0.7,0.6-1c0.2-0.3,0.4-0.6,0.7-0.9l0,0c0.2-0.3,0.5-0.5,0.7-0.6
				c0.2-0.1,0.5-0.2,0.7-0.2l0,0c0.4,0,0.7,0.2,0.9,0.5c0.2,0.3,0.3,0.7,0.3,1.2l0,0c0,0.1,0,0.2,0,0.4c0,0.2,0,0.3,0,0.5
				c0,0.2,0,0.3,0,0.5c0,0.2,0,0.3,0,0.5l0,0c0,0.2,0,0.4,0,0.6c0,0.2,0.1,0.3,0.1,0.5c0.1,0.1,0.1,0.2,0.2,0.3
				c0.1,0.1,0.2,0.1,0.4,0.1l0,0c0.3,0,0.6-0.1,0.9-0.4c0.3-0.2,0.6-0.5,0.8-0.9c0.3-0.3,0.5-0.7,0.7-1c0.2-0.3,0.3-0.6,0.4-0.8l0,0
				c0-0.1,0.1-0.2,0.2-0.2c0.1,0,0.2-0.1,0.3-0.1l0,0c0.1,0,0.3,0.1,0.3,0.2c0.1,0.1,0.1,0.2,0.1,0.3l0,0c0,0.1,0,0.1,0,0.2l0,0
				c0,0.1-0.1,0.2-0.2,0.4c-0.1,0.2-0.2,0.4-0.4,0.7c-0.2,0.3-0.3,0.5-0.6,0.8c-0.2,0.3-0.4,0.6-0.7,0.8c-0.3,0.2-0.5,0.5-0.8,0.6
				c-0.3,0.2-0.6,0.2-0.9,0.2l0,0c-0.4,0-0.7-0.1-0.9-0.2c-0.2-0.1-0.4-0.3-0.5-0.6c-0.1-0.2-0.2-0.5-0.3-0.8c0-0.3-0.1-0.6-0.1-0.9
				l0,0c0-0.1,0-0.3,0-0.4c0-0.2,0-0.3,0.1-0.5c0-0.2,0-0.3,0.1-0.5s0-0.3,0-0.5l0,0c0-0.3,0-0.4-0.1-0.5c-0.1-0.1-0.2-0.1-0.2-0.1
				l0,0c-0.1,0-0.3,0.1-0.4,0.2c-0.2,0.2-0.3,0.4-0.5,0.6c-0.2,0.2-0.4,0.5-0.6,0.8c-0.2,0.3-0.4,0.6-0.5,0.9
				c-0.2,0.3-0.3,0.6-0.5,0.9c-0.1,0.3-0.3,0.5-0.3,0.7l0,0c-0.2,0.3-0.3,0.6-0.5,0.7c-0.2,0.1-0.3,0.2-0.5,0.2l0,0
				c-0.2,0-0.4-0.1-0.6-0.2c-0.1-0.1-0.2-0.3-0.2-0.6l0,0c0-0.1,0-0.2,0-0.3c0-0.2,0-0.4,0.1-0.6c0-0.2,0-0.5,0.1-0.8
				c0-0.3,0.1-0.5,0.1-0.8c0-0.3,0-0.5,0.1-0.7c0-0.2,0-0.4,0-0.6l0,0c0-0.2,0-0.4,0-0.6c0-0.2-0.1-0.3-0.1-0.3l0,0
				c-0.1,0-0.2,0.2-0.4,0.5c-0.2,0.3-0.4,0.8-0.7,1.5l0,0c0,0.1-0.1,0.2-0.2,0.2c-0.1,0.1-0.2,0.1-0.3,0.1l0,0c-0.1,0-0.2,0-0.3-0.1
				c-0.1-0.1-0.1-0.2-0.1-0.3l0,0c0-0.1,0-0.1,0-0.2l0,0c0.4-0.9,0.7-1.5,1-1.9c0.3-0.4,0.6-0.6,1-0.6l0,0c0.2,0,0.3,0,0.5,0.1
				c0.1,0.1,0.2,0.2,0.3,0.4c0.1,0.2,0.1,0.3,0.2,0.5c0,0.2,0.1,0.4,0.1,0.6l0,0c0,0.1,0,0.4,0,0.7c0,0.3,0,0.6-0.1,1
				c0,0.4-0.1,0.7-0.1,1.1C242.3,17.1,242.3,17.4,242.2,17.6z M255.5,15.1L255.5,15.1c0.4,1.9,1,2.8,1.7,2.8l0,0
				c0.3,0,0.6-0.1,0.8-0.3c0.3-0.2,0.5-0.5,0.8-0.8c0.2-0.3,0.4-0.6,0.6-1c0.2-0.4,0.3-0.7,0.4-0.9l0,0c0.1-0.2,0.2-0.3,0.4-0.3l0,0
				c0.1,0,0.2,0,0.3,0.1c0.1,0.1,0.1,0.2,0.1,0.3l0,0c0,0.1,0,0.1,0,0.2l0,0c-0.1,0.1-0.1,0.3-0.3,0.6c-0.1,0.2-0.2,0.5-0.4,0.7
				c-0.2,0.3-0.3,0.5-0.5,0.8c-0.2,0.3-0.4,0.5-0.6,0.7c-0.2,0.2-0.5,0.4-0.8,0.5c-0.3,0.1-0.5,0.2-0.8,0.2l0,0
				c-0.5,0-1-0.2-1.4-0.6c-0.4-0.4-0.7-1-1-1.9l0,0c-0.4,0.8-0.8,1.4-1.2,1.8c-0.4,0.4-0.8,0.6-1.3,0.6l0,0c-0.2,0-0.5,0-0.7-0.1
				c-0.2-0.1-0.4-0.2-0.6-0.4c-0.2-0.2-0.3-0.4-0.4-0.7c-0.1-0.3-0.2-0.6-0.2-1l0,0c0-0.6,0.1-1.1,0.3-1.6c0.2-0.5,0.5-0.9,0.8-1.2
				c0.3-0.3,0.7-0.6,1-0.8c0.4-0.2,0.8-0.3,1.1-0.3l0,0c0.1,0,0.2,0,0.3,0.1c0.1,0.1,0.1,0.2,0.1,0.3l0,0c0,0.1,0,0.2-0.1,0.3
				c-0.1,0.1-0.2,0.1-0.3,0.2l0,0c-0.2,0-0.5,0.1-0.8,0.2c-0.3,0.1-0.5,0.3-0.8,0.5c-0.2,0.2-0.4,0.5-0.6,0.9
				c-0.2,0.4-0.2,0.8-0.2,1.3l0,0c0,0.4,0.1,0.7,0.3,1c0.2,0.2,0.4,0.3,0.7,0.3l0,0c0.1,0,0.3,0,0.4-0.1c0.1-0.1,0.3-0.2,0.5-0.4
				s0.4-0.5,0.6-0.9c0.2-0.4,0.4-0.9,0.7-1.5l0,0c-0.1-0.7-0.3-1.6-0.4-2.5c-0.1-0.9-0.2-2-0.2-3.2l0,0c0-0.5,0-1,0-1.6
				c0-0.6,0.1-1.1,0.2-1.6c0.1-0.5,0.2-1,0.3-1.5c0.1-0.5,0.3-0.9,0.4-1.3s0.4-0.6,0.6-0.8c0.2-0.2,0.5-0.3,0.8-0.3l0,0
				c0.3,0,0.5,0.1,0.7,0.2c0.2,0.1,0.3,0.4,0.5,0.6c0.1,0.3,0.2,0.6,0.3,0.9c0.1,0.4,0.1,0.8,0.1,1.2l0,0c0,1-0.1,1.9-0.2,2.8
				c-0.2,1-0.4,1.9-0.6,2.7c-0.2,0.9-0.5,1.7-0.8,2.4C255.9,14,255.7,14.6,255.5,15.1z M256.9,5.2L256.9,5.2c0-0.2,0-0.4,0-0.7
				c0-0.2,0-0.5-0.1-0.7c0-0.2-0.1-0.4-0.2-0.5c-0.1-0.1-0.2-0.2-0.3-0.2l0,0c-0.2,0-0.4,0.2-0.6,0.5c-0.2,0.4-0.3,0.8-0.5,1.4
				c-0.1,0.6-0.2,1.2-0.3,2c-0.1,0.7-0.1,1.5-0.1,2.2l0,0c0,0.7,0,1.4,0.1,2.2c0.1,0.7,0.1,1.4,0.2,1.9l0,0c0.2-0.6,0.5-1.3,0.7-1.9
				c0.2-0.7,0.4-1.3,0.6-2c0.2-0.7,0.3-1.4,0.4-2.1C256.8,6.6,256.9,5.9,256.9,5.2z M268.5,20.4L268.5,20.4c0,0.1,0,0.2-0.1,0.3
				c-0.1,0.1-0.2,0.1-0.3,0.1l0,0c-0.1,0-0.2,0-0.3-0.1c-0.1-0.1-0.1-0.2-0.1-0.3l0,0c0,0,0-0.1,0-0.3s0-0.4,0-0.8
				c0-0.3,0-0.7,0-1.1c0-0.4,0-0.9,0-1.4l0,0c0-0.5,0-1,0-1.5c0-0.5,0-1.1,0-1.6c0-0.5,0-1,0-1.5c0-0.5,0-0.9,0-1.4l0,0
				c0-0.5,0-1.2,0-1.9c0-0.7,0-1.4-0.1-2.2c0-0.7,0-1.5-0.1-2.2c0-0.7,0-1.4-0.1-1.9c0-0.6,0-1,0-1.4c0-0.4,0-0.5,0-0.5l0,0
				c0-0.1,0-0.2,0.1-0.3c0.1-0.1,0.2-0.1,0.3-0.1l0,0c0.1,0,0.2,0,0.3,0.1c0.1,0.1,0.1,0.2,0.1,0.3l0,0c0,0,0,0.2,0,0.6
				c0,0.4,0,0.8,0.1,1.4c0,0.6,0,1.2,0.1,1.9c0,0.7,0,1.5,0.1,2.2c0,0.7,0,1.5,0.1,2.2c0,0.7,0,1.3,0,1.9l0,0c0,0.4,0,0.8,0,1.2
				c0,0.4,0,0.9,0,1.4c0,0.5,0,0.9,0,1.4c0,0.5,0,1,0,1.4l0,0c0,0.6,0,1.1,0,1.6s0,0.9,0,1.3c0,0.4,0,0.7,0,0.9
				C268.5,20.2,268.5,20.4,268.5,20.4z M304.7,0.5L304.7,0.5c0.3,0,0.6,0,0.9,0.1c0.3,0.1,0.6,0.2,0.9,0.3c0.3,0.1,0.5,0.3,0.7,0.6
				c0.2,0.2,0.3,0.5,0.3,0.9l0,0c0,0.4-0.1,0.8-0.4,1.2c-0.3,0.4-0.6,0.7-1.1,0.9c-0.5,0.3-1,0.5-1.7,0.6c-0.6,0.1-1.4,0.2-2.2,0.2
				l0,0c-0.9,0-1.8-0.1-2.9-0.2l0,0c-0.2,0.6-0.3,1.2-0.4,2c-0.1,0.7-0.1,1.5-0.2,2.4l0,0c0.3,0,0.6,0,0.9,0s0.7,0,1,0l0,0
				c0.5,0,0.9,0,1.4,0c0.5,0,0.9,0,1.4,0l0,0c0.1,0,0.3,0.1,0.3,0.2c0.1,0.1,0.1,0.2,0.1,0.3l0,0c0,0.1,0,0.2-0.1,0.3
				c-0.1,0.1-0.2,0.1-0.3,0.1l0,0c-0.5,0-0.9,0-1.4,0c-0.5,0-0.9,0-1.4,0l0,0c-0.3,0-0.7,0-1,0c-0.3,0-0.6,0-1,0l0,0
				c0,0.1,0,0.2,0,0.3c0,0.1,0,0.2,0,0.3l0,0c0,1.3-0.2,2.4-0.6,3.4c-0.4,1-0.9,1.8-1.7,2.5c-0.7,0.7-1.7,1.2-2.7,1.5
				c-1.1,0.4-2.3,0.5-3.7,0.5l0,0c-1,0-1.9-0.1-2.7-0.3c-0.8-0.2-1.5-0.4-2.1-0.7c-0.6-0.3-1.1-0.6-1.5-1c-0.4-0.4-0.8-0.8-1.1-1.2
				c-0.3-0.4-0.5-0.8-0.7-1.1s-0.3-0.7-0.4-0.9l0,0c0,0,0,0,0-0.1c0,0,0,0,0-0.1l0,0c0-0.1,0-0.2,0.1-0.3c0.1-0.1,0.2-0.1,0.3-0.1
				l0,0c0.1,0,0.2,0,0.3,0.1c0.1,0.1,0.1,0.1,0.2,0.2l0,0c0.1,0.2,0.2,0.5,0.3,0.8c0.1,0.3,0.3,0.6,0.6,1c0.3,0.3,0.6,0.7,1,1
				c0.4,0.3,0.8,0.6,1.4,0.9c0.5,0.3,1.2,0.5,1.9,0.6c0.7,0.2,1.5,0.2,2.5,0.2l0,0c2.6,0,4.5-0.6,5.8-1.8c1.3-1.2,2-3,2-5.3l0,0
				c0-0.1,0-0.2,0-0.3c0-0.1,0-0.2,0-0.3l0,0c-0.8,0-1.6,0.1-2.3,0.1c-0.7,0-1.3,0.1-1.8,0.1c-0.5,0-0.9,0.1-1.3,0.1
				c-0.3,0-0.5,0-0.6,0l0,0c-0.1,0-0.3,0-0.4-0.1c-0.1-0.1-0.2-0.2-0.2-0.4l0,0c0-0.1,0-0.2,0.1-0.3c0.1-0.1,0.2-0.1,0.3-0.2l0,0
				c0,0,0.2,0,0.5-0.1c0.3,0,0.7-0.1,1.3-0.1c0.5,0,1.2-0.1,1.9-0.1s1.5-0.1,2.4-0.1l0,0c0-1.8,0.2-3.3,0.6-4.6l0,0
				c-0.9-0.1-1.8-0.3-2.7-0.5c-0.9-0.2-1.8-0.4-2.8-0.6c-0.9-0.2-1.8-0.4-2.7-0.6c-0.9-0.2-1.7-0.4-2.6-0.5
				c-0.8-0.2-1.6-0.3-2.3-0.4c-0.7-0.1-1.4-0.1-2-0.1l0,0c-0.8,0-1.6,0.1-2.3,0.3c-0.7,0.2-1.3,0.4-1.8,0.7
				c-0.5,0.3-0.9,0.7-1.2,1.2c-0.3,0.5-0.4,1-0.4,1.6l0,0c0,0.4,0.1,0.7,0.2,1c0.1,0.3,0.3,0.6,0.5,0.8c0.2,0.2,0.3,0.4,0.5,0.5
				c0.2,0.1,0.2,0.2,0.3,0.2l0,0c0.1,0,0.1,0.1,0.2,0.2c0,0.1,0.1,0.1,0.1,0.2l0,0c0,0.1,0,0.3-0.1,0.3c-0.1,0.1-0.2,0.1-0.3,0.1
				l0,0c-0.1,0-0.2,0-0.3-0.1l0,0c-0.2-0.1-0.4-0.3-0.6-0.5c-0.2-0.2-0.4-0.5-0.6-0.7c-0.2-0.3-0.3-0.6-0.5-0.9
				c-0.1-0.3-0.2-0.7-0.2-1.1l0,0c0-0.7,0.2-1.4,0.5-2s0.8-1.1,1.4-1.5c0.6-0.4,1.3-0.7,2.1-0.9c0.8-0.2,1.7-0.3,2.7-0.3l0,0
				c0.6,0,1.2,0.1,1.9,0.2c0.7,0.1,1.5,0.2,2.3,0.4s1.7,0.3,2.6,0.6c0.9,0.2,1.8,0.4,2.8,0.6c1,0.2,1.9,0.4,2.9,0.6
				c1,0.2,1.9,0.3,2.8,0.5l0,0c0.2-0.6,0.6-1.2,1-1.6c0.4-0.5,0.9-0.8,1.5-1.1c0.5-0.3,1.1-0.5,1.8-0.6
				C303.5,0.6,304.1,0.5,304.7,0.5z M306.6,2.4L306.6,2.4c0-0.2-0.1-0.4-0.2-0.5c-0.1-0.1-0.3-0.2-0.5-0.3c-0.2-0.1-0.4-0.1-0.6-0.1
				c-0.2,0-0.4,0-0.6,0l0,0c-0.4,0-0.8,0-1.3,0.1c-0.5,0.1-1,0.2-1.4,0.4c-0.5,0.2-0.9,0.5-1.3,0.9c-0.4,0.4-0.7,0.8-1,1.4l0,0
				c0.9,0.1,1.7,0.1,2.5,0.1l0,0c0.6,0,1.2-0.1,1.8-0.2c0.5-0.1,1-0.2,1.4-0.4c0.4-0.2,0.7-0.4,0.9-0.7C306.4,3,306.6,2.7,306.6,2.4
				z M306.3,9.1L306.3,9.1c0,0.3-0.1,0.6-0.3,0.8c-0.2,0.2-0.5,0.3-0.8,0.3l0,0c-0.3,0-0.6-0.1-0.8-0.3c-0.2-0.2-0.3-0.5-0.3-0.8
				l0,0c0-0.2,0-0.3,0.1-0.4c0.1-0.1,0.1-0.3,0.2-0.4c0.1-0.1,0.2-0.2,0.4-0.2c0.1-0.1,0.3-0.1,0.4-0.1l0,0c0.2,0,0.3,0,0.4,0.1
				c0.1,0.1,0.3,0.1,0.4,0.2c0.1,0.1,0.2,0.2,0.2,0.4C306.2,8.8,306.3,8.9,306.3,9.1z M304.3,16.2L304.3,16.2c0-1.2,0.1-2.4,0.2-3.5
				l0,0c0-0.1,0.1-0.2,0.2-0.3c0.1-0.1,0.2-0.1,0.3-0.1l0,0c0.1,0,0.2,0,0.3,0.1c0.1,0.1,0.1,0.2,0.1,0.3l0,0c0,0,0,0.2,0,0.4
				c0,0.2,0,0.5-0.1,0.9c0,0.3,0,0.7-0.1,1.1c0,0.4,0,0.7,0,1l0,0c0,0.4,0,0.8,0.1,1c0.1,0.3,0.2,0.5,0.3,0.6
				c0.1,0.1,0.3,0.2,0.4,0.3c0.2,0.1,0.3,0.1,0.4,0.1l0,0c0.2,0,0.5-0.1,0.7-0.2c0.2-0.2,0.5-0.4,0.8-0.7c0.3-0.3,0.5-0.6,0.8-1.1
				c0.3-0.4,0.5-0.9,0.8-1.4l0,0c0-0.1,0.1-0.1,0.2-0.2c0.1,0,0.2-0.1,0.2-0.1l0,0c0.1,0,0.2,0,0.3,0.1c0.1,0.1,0.1,0.2,0.1,0.3l0,0
				c0,0.1,0,0.1-0.1,0.2l0,0c-0.1,0.2-0.2,0.4-0.4,0.7c-0.1,0.3-0.3,0.6-0.5,0.8c-0.2,0.3-0.4,0.6-0.6,0.9c-0.2,0.3-0.5,0.5-0.7,0.8
				c-0.3,0.2-0.5,0.4-0.8,0.5c-0.3,0.1-0.6,0.2-0.8,0.2l0,0c-0.4,0-0.7-0.1-1-0.2c-0.3-0.2-0.5-0.4-0.7-0.6
				c-0.2-0.3-0.3-0.6-0.4-0.9C304.3,17,304.3,16.7,304.3,16.2z M305.6,9.1L305.6,9.1c0-0.1,0-0.2-0.1-0.3c-0.1-0.1-0.2-0.1-0.3-0.1
				l0,0c-0.1,0-0.2,0-0.3,0.1c-0.1,0.1-0.1,0.2-0.1,0.3l0,0c0,0.1,0,0.2,0.1,0.3c0.1,0.1,0.2,0.1,0.3,0.1l0,0c0.1,0,0.2,0,0.3-0.1
				C305.5,9.3,305.6,9.2,305.6,9.1z M310.8,13.6L310.8,13.6c0,0.2-0.1,0.4-0.1,0.6c-0.1,0.2-0.1,0.4-0.1,0.5c0,0.1-0.1,0.3-0.1,0.4
				c0,0.1-0.1,0.1-0.1,0.1l0,0c-0.1,0.2-0.2,0.3-0.4,0.3l0,0c-0.1,0-0.2,0-0.3-0.1c-0.1-0.1-0.2-0.2-0.2-0.3l0,0c0-0.1,0-0.1,0-0.1
				c0,0,0-0.1,0.1-0.1c0-0.1,0.1-0.2,0.1-0.4c0-0.2,0.1-0.4,0.2-0.8l0,0c-0.1,0-0.3,0-0.4,0c-0.2,0-0.3,0-0.4-0.1
				c-0.1-0.1-0.2-0.1-0.3-0.2c-0.1-0.1-0.1-0.3-0.1-0.4l0,0c0-0.1,0-0.3,0.1-0.6c0.1-0.2,0.2-0.5,0.3-0.7c0.1-0.2,0.3-0.4,0.4-0.6
				c0.2-0.2,0.3-0.3,0.5-0.3l0,0c0.2,0,0.3,0.1,0.5,0.2c0.1,0.1,0.2,0.3,0.3,0.5c0.1,0.2,0.1,0.4,0.1,0.6c0,0.2,0,0.4,0,0.6l0,0
				c0.1,0,0.3,0,0.4,0c0.1,0,0.3,0,0.4,0l0,0c0.5,0,0.8,0.1,1.1,0.3c0.2,0.2,0.4,0.5,0.4,1l0,0c0,0.2,0,0.4,0,0.6
				c0,0.2-0.1,0.4-0.1,0.6c0,0.2-0.1,0.4-0.1,0.6c0,0.2,0,0.4,0,0.6l0,0c0,0.3,0,0.5,0.1,0.7c0.1,0.2,0.2,0.3,0.3,0.5
				c0.1,0.1,0.3,0.2,0.4,0.2c0.1,0,0.3,0.1,0.4,0.1l0,0c0.4,0,0.7-0.1,1-0.3c0.3-0.2,0.6-0.5,0.9-0.8c0.3-0.3,0.5-0.7,0.7-1
				c0.2-0.4,0.4-0.7,0.5-0.9l0,0c0-0.1,0.1-0.1,0.2-0.2c0.1,0,0.2-0.1,0.2-0.1l0,0c0.1,0,0.3,0,0.3,0.1c0.1,0.1,0.1,0.2,0.1,0.3l0,0
				c0,0.1,0,0.2-0.1,0.2l0,0c-0.2,0.3-0.4,0.7-0.7,1.1c-0.2,0.4-0.5,0.8-0.8,1.2c-0.3,0.4-0.7,0.7-1.1,0.9c-0.4,0.3-0.8,0.4-1.3,0.4
				l0,0c-0.3,0-0.6-0.1-0.8-0.2c-0.3-0.1-0.5-0.3-0.7-0.5c-0.2-0.2-0.3-0.5-0.5-0.8c-0.1-0.3-0.2-0.7-0.2-1l0,0c0-0.4,0-0.8,0.1-1.2
				c0.1-0.4,0.1-0.8,0.1-1.2l0,0c0-0.2,0-0.3-0.1-0.4c-0.1-0.1-0.2-0.1-0.5-0.1l0,0c-0.1,0-0.2,0-0.4,0
				C311.1,13.6,311,13.6,310.8,13.6z M309.5,12.7h0.5c0-0.1,0-0.1,0-0.2c0-0.1,0-0.2,0-0.3c0-0.1,0-0.2-0.1-0.2c0-0.1,0-0.1-0.1-0.1
				l0,0c0,0-0.1,0-0.1,0.1c0,0.1-0.1,0.1-0.1,0.2c0,0.1-0.1,0.2-0.1,0.3C309.5,12.6,309.5,12.7,309.5,12.7L309.5,12.7z M318.5,14.2
				L318.5,14.2c-0.1,0.1-0.1,0.3-0.2,0.4c-0.1,0.2-0.2,0.3-0.2,0.5l0,0c-0.1,0.1-0.2,0.2-0.2,0.3c-0.1,0.1-0.2,0.1-0.3,0.1l0,0
				c-0.1,0-0.3,0-0.3-0.1c-0.1-0.1-0.1-0.2-0.1-0.3l0,0c0,0,0-0.1,0-0.1s0-0.1,0.1-0.1l0,0c0.2-0.4,0.4-0.8,0.5-1.1
				c0.1-0.3,0.2-0.6,0.3-1l0,0c-0.1-0.2-0.1-0.3-0.1-0.5c0-0.1,0-0.3,0-0.4l0,0c0-0.3,0.1-0.5,0.2-0.7c0.1-0.2,0.3-0.3,0.5-0.3l0,0
				c0.2,0,0.3,0.1,0.5,0.2c0.1,0.2,0.2,0.4,0.2,0.6l0,0c0,0.1,0,0.3,0,0.4c0,0.1-0.1,0.3-0.1,0.5l0,0c0.2,0.5,0.4,0.9,0.6,1.2
				s0.4,0.7,0.5,1c0.2,0.3,0.3,0.6,0.4,0.8c0.1,0.3,0.1,0.5,0.1,0.8l0,0c0,0.3-0.1,0.7-0.2,1c-0.1,0.3-0.4,0.6-0.7,0.8l0,0
				c0,0,0.1,0,0.1,0c0,0,0.1,0,0.1,0l0,0c0.5,0,0.9-0.1,1.3-0.3c0.4-0.2,0.7-0.5,1.1-0.8c0.3-0.3,0.6-0.7,0.8-1.1
				c0.2-0.4,0.5-0.8,0.6-1.2l0,0c0.1-0.2,0.2-0.3,0.3-0.3l0,0c0.1,0,0.2,0,0.3,0.1c0.1,0.1,0.1,0.2,0.1,0.3l0,0c0,0.1,0,0.1,0,0.2
				l0,0c-0.1,0.2-0.2,0.5-0.4,0.8c-0.1,0.3-0.3,0.6-0.5,0.9s-0.4,0.6-0.7,0.9c-0.3,0.3-0.6,0.5-0.9,0.8c-0.3,0.2-0.7,0.4-1.1,0.5
				c-0.4,0.1-0.8,0.2-1.3,0.2l0,0c-0.5,0-1.1-0.1-1.5-0.3c-0.5-0.2-0.9-0.5-1.2-1l0,0c-0.1-0.1-0.1-0.1-0.1-0.2l0,0
				c0-0.1,0-0.2,0.1-0.3c0.1-0.1,0.2-0.1,0.3-0.1l0,0c0.1,0,0.2,0,0.3,0.1l0,0c0,0,0,0,0.1,0.1c0.1,0,0.1,0.1,0.2,0.1
				c0.1,0,0.2,0.1,0.2,0.1c0.1,0,0.2,0.1,0.3,0.1l0,0c0.2,0,0.4,0,0.5-0.1c0.1-0.1,0.2-0.2,0.3-0.3c0.1-0.1,0.1-0.2,0.2-0.4
				c0-0.1,0.1-0.2,0.1-0.3l0,0c0-0.2,0-0.4-0.1-0.6c-0.1-0.2-0.1-0.4-0.3-0.6c-0.1-0.2-0.2-0.4-0.3-0.6
				C318.7,14.6,318.6,14.4,318.5,14.2z M333.5,6.4L333.5,6.4c0,0.1,0,0.2-0.1,0.3c-0.1,0.1-0.2,0.1-0.3,0.1l0,0h-6.2V7
				c0,0.5,0,1-0.1,1.6c-0.1,0.6-0.2,1.1-0.3,1.7c-0.1,0.6-0.3,1.1-0.4,1.6c-0.2,0.5-0.3,1-0.5,1.5c-0.2,0.5-0.3,0.8-0.5,1.2
				c-0.2,0.3-0.3,0.6-0.4,0.7l0,0c0.1,0.4,0.2,0.7,0.4,1c0.1,0.3,0.3,0.6,0.5,0.8c0.2,0.2,0.4,0.4,0.6,0.6c0.2,0.1,0.4,0.2,0.7,0.2
				l0,0c0.3,0,0.6-0.1,0.8-0.4c0.3-0.2,0.5-0.5,0.8-0.9c0.2-0.3,0.5-0.7,0.6-1c0.2-0.3,0.3-0.6,0.4-0.8l0,0c0.1-0.2,0.2-0.3,0.4-0.3
				l0,0c0.1,0,0.3,0,0.3,0.1c0.1,0.1,0.1,0.2,0.1,0.3l0,0c0,0.1,0,0.1,0,0.2l0,0c0,0.1-0.1,0.2-0.2,0.4c-0.1,0.2-0.2,0.4-0.4,0.7
				c-0.2,0.3-0.3,0.6-0.5,0.9c-0.2,0.3-0.4,0.6-0.7,0.8c-0.3,0.2-0.5,0.4-0.8,0.6c-0.3,0.2-0.6,0.2-0.9,0.2l0,0
				c-0.6,0-1.1-0.2-1.5-0.6c-0.4-0.4-0.8-0.9-1.1-1.5c-0.3-0.7-0.6-1.4-0.7-2.4c-0.2-0.9-0.2-1.9-0.2-3l0,0c0-0.3,0-0.6,0-1
				s0-0.7,0.1-1.2c0-0.4,0.1-0.8,0.1-1.3c0-0.4,0.1-0.8,0.2-1.3l0,0h-4.4c-0.1,0-0.2,0-0.3-0.1c-0.1-0.1-0.1-0.2-0.1-0.3l0,0
				c0-0.1,0-0.2,0.1-0.3C318.9,6,319,6,319.1,6l0,0h4.6c0.1-0.3,0.2-0.6,0.3-0.8c0.1-0.2,0.2-0.5,0.4-0.6c0.1-0.2,0.3-0.3,0.5-0.4
				C325,4,325.2,4,325.4,4l0,0c0.2,0,0.4,0.1,0.5,0.2c0.2,0.1,0.3,0.2,0.4,0.4c0.1,0.2,0.2,0.4,0.3,0.6c0.1,0.2,0.1,0.5,0.1,0.8l0,0
				h6.3c0.1,0,0.2,0,0.3,0.1C333.4,6.2,333.5,6.3,333.5,6.4z M324.2,14.1L324.2,14.1c0.2-0.5,0.5-1.1,0.7-1.8
				c0.2-0.6,0.4-1.3,0.5-1.9c0.1-0.6,0.3-1.3,0.3-1.9c0.1-0.6,0.1-1.2,0.1-1.7l0,0h-1.5c-0.1,0.5-0.2,1.1-0.3,1.9
				c-0.1,0.7-0.1,1.7-0.1,2.7l0,0c0,0.6,0,1.1,0.1,1.5C324.1,13.4,324.2,13.7,324.2,14.1z M325.4,4.9L325.4,4.9
				c-0.1,0-0.2,0.1-0.3,0.2c-0.1,0.2-0.3,0.4-0.4,0.9l0,0h1.2c0-0.3-0.1-0.6-0.2-0.8C325.6,5,325.5,4.9,325.4,4.9z M324.4,14.9
				L324.4,14.9L324.4,14.9z M355,14.1L355,14.1c-0.4,0.6-0.9,1.2-1.6,1.8c-0.7,0.6-1.4,1.2-2.2,1.6c-0.8,0.5-1.8,0.9-2.7,1.2
				c-1,0.3-2,0.4-3.1,0.4l0,0c-0.8,0-1.6-0.1-2.5-0.2c-0.8-0.1-1.6-0.4-2.4-0.7c-0.8-0.3-1.5-0.7-2.1-1.1c-0.6-0.5-1.2-1-1.7-1.6
				c-0.5-0.6-0.9-1.3-1.1-2.1c-0.3-0.8-0.4-1.7-0.4-2.7l0,0c0-1,0.1-1.9,0.4-2.7c0.3-0.9,0.7-1.7,1.2-2.4c0.5-0.7,1.1-1.4,1.8-2
				c0.7-0.6,1.5-1.1,2.3-1.5c0.8-0.4,1.7-0.7,2.6-0.9c0.9-0.2,1.9-0.3,2.8-0.3l0,0c1.1,0,2,0.1,3,0.4c0.9,0.2,1.7,0.6,2.4,1.1
				c0.7,0.5,1.2,1,1.7,1.6c0.4,0.6,0.6,1.3,0.6,2.1l0,0c0,0.7-0.2,1.4-0.5,2.1c-0.3,0.7-0.8,1.2-1.4,1.7c-0.6,0.5-1.3,0.9-2.1,1.2
				c-0.8,0.3-1.6,0.4-2.5,0.4l0,0c-0.7,0-1.3-0.1-1.9-0.3c-0.5-0.2-1-0.4-1.4-0.7c-0.4-0.3-0.6-0.7-0.8-1.1
				c-0.2-0.4-0.3-0.9-0.3-1.4l0,0c0-0.4,0.1-0.8,0.2-1.1c0.1-0.3,0.3-0.6,0.4-0.9c0.2-0.2,0.3-0.4,0.4-0.6c0.1-0.1,0.2-0.2,0.2-0.2
				l0,0c0,0,0.1-0.1,0.1-0.1c0.1,0,0.1,0,0.2,0l0,0c0.1,0,0.2,0,0.3,0.1c0.1,0.1,0.1,0.2,0.1,0.3l0,0c0,0.1-0.1,0.3-0.2,0.4l0,0
				c0,0-0.1,0.1-0.2,0.2c-0.1,0.1-0.2,0.2-0.3,0.4c-0.1,0.2-0.2,0.4-0.3,0.6c-0.1,0.2-0.1,0.5-0.1,0.8l0,0c0,0.5,0.1,0.9,0.3,1.2
				c0.2,0.3,0.5,0.6,0.8,0.8c0.3,0.2,0.7,0.3,1.1,0.4c0.4,0.1,0.8,0.1,1.2,0.1l0,0c0.8,0,1.5-0.1,2.1-0.4c0.7-0.2,1.2-0.6,1.7-1
				c0.5-0.4,0.9-0.9,1.2-1.4c0.3-0.5,0.4-1.1,0.4-1.7l0,0c0-0.6-0.2-1.2-0.5-1.7c-0.4-0.5-0.8-1-1.5-1.4c-0.6-0.4-1.3-0.7-2.2-0.9
				c-0.8-0.2-1.7-0.3-2.6-0.3l0,0c-0.7,0-1.4,0.1-2.2,0.3c-0.8,0.2-1.5,0.4-2.3,0.8c-0.8,0.3-1.5,0.8-2.2,1.3
				c-0.7,0.5-1.3,1.1-1.8,1.7c-0.5,0.7-0.9,1.4-1.2,2.2c-0.3,0.8-0.5,1.7-0.5,2.7l0,0c0,0.9,0.1,1.7,0.4,2.4c0.3,0.7,0.6,1.4,1,1.9
				c0.4,0.6,1,1,1.6,1.5c0.6,0.4,1.2,0.7,1.9,1c0.7,0.3,1.4,0.5,2.1,0.6c0.7,0.1,1.5,0.2,2.2,0.2l0,0c1,0,1.9-0.1,2.8-0.4
				c0.9-0.3,1.7-0.6,2.5-1.1c0.8-0.4,1.5-0.9,2.1-1.5c0.6-0.6,1.1-1.1,1.4-1.7l0,0c0-0.1,0.1-0.1,0.2-0.2c0.1,0,0.2-0.1,0.2-0.1l0,0
				c0.1,0,0.2,0,0.3,0.1c0.1,0.1,0.1,0.2,0.1,0.3l0,0c0,0,0,0.1,0,0.1C355.1,14.1,355,14.1,355,14.1z M357.2,17.1l0,0.6
				c0.1-0.3,0.3-0.6,0.5-0.9c0.2-0.3,0.4-0.7,0.6-1c0.2-0.3,0.4-0.7,0.6-1s0.5-0.6,0.7-0.9l0,0c0.2-0.3,0.5-0.5,0.7-0.6
				c0.2-0.1,0.5-0.2,0.7-0.2l0,0c0.2,0,0.4,0,0.6,0.1c0.2,0.1,0.3,0.2,0.4,0.4c0.1,0.1,0.2,0.3,0.2,0.5c0.1,0.2,0.1,0.4,0.1,0.6l0,0
				c0,0.2,0,0.4-0.1,0.8c0,0.3-0.1,0.6-0.1,1l0,0c0,0.2,0,0.4,0,0.6c0,0.2,0.1,0.4,0.1,0.5s0.1,0.3,0.2,0.4c0.1,0.1,0.2,0.1,0.4,0.1
				l0,0c0.2,0,0.4-0.1,0.6-0.2c0.2-0.1,0.4-0.3,0.6-0.4c0.2-0.2,0.4-0.4,0.5-0.6c0.2-0.2,0.3-0.4,0.5-0.7c0.1-0.2,0.3-0.4,0.4-0.7
				c0.1-0.2,0.2-0.4,0.3-0.5l0,0c0.1-0.2,0.2-0.3,0.4-0.3l0,0c0.1,0,0.2,0,0.3,0.1c0.1,0.1,0.1,0.2,0.1,0.3l0,0c0,0.1,0,0.1,0,0.2
				l0,0c0,0.1-0.1,0.2-0.2,0.4c-0.1,0.2-0.2,0.4-0.4,0.7c-0.2,0.3-0.3,0.6-0.6,0.8c-0.2,0.3-0.5,0.6-0.7,0.8
				c-0.3,0.3-0.5,0.5-0.8,0.6c-0.3,0.2-0.6,0.2-0.9,0.2l0,0c-0.4,0-0.7-0.1-0.9-0.2c-0.2-0.2-0.4-0.4-0.5-0.6
				c-0.1-0.2-0.2-0.5-0.3-0.8c0-0.3-0.1-0.6-0.1-0.9l0,0c0-0.1,0-0.3,0-0.5c0-0.2,0-0.3,0-0.5c0-0.2,0-0.3,0-0.5c0-0.1,0-0.3,0-0.4
				l0,0c0-0.3,0-0.4-0.1-0.5c-0.1-0.1-0.2-0.1-0.2-0.1l0,0c-0.1,0-0.3,0.1-0.4,0.2c-0.2,0.2-0.3,0.4-0.5,0.6
				c-0.2,0.2-0.4,0.5-0.6,0.8c-0.2,0.3-0.4,0.6-0.5,0.9c-0.2,0.3-0.3,0.6-0.5,0.9c-0.1,0.3-0.3,0.5-0.3,0.7l0,0
				c-0.2,0.3-0.3,0.6-0.5,0.7c-0.2,0.1-0.3,0.2-0.5,0.2l0,0c-0.3,0-0.5-0.1-0.6-0.3c-0.1-0.2-0.2-0.4-0.2-0.7l0,0v-0.8
				c0-1.5,0-3,0-4.4c0-1.4,0-2.7,0.1-3.9c0-1.2,0.1-2.3,0.2-3.3c0.1-1,0.2-1.8,0.4-2.5c0.2-0.7,0.4-1.2,0.7-1.6
				c0.3-0.4,0.6-0.6,1-0.6l0,0c0.3,0,0.6,0.1,0.9,0.3c0.2,0.2,0.4,0.4,0.6,0.8c0.1,0.3,0.3,0.7,0.3,1.1c0.1,0.4,0.1,0.9,0.1,1.4l0,0
				c0,1-0.1,1.9-0.3,2.8c-0.2,0.9-0.4,1.8-0.7,2.7c-0.3,0.9-0.6,1.7-1,2.6c-0.4,0.8-0.8,1.7-1.2,2.4l0,0c0,0.2,0,0.3,0,0.5
				c0,0.2,0,0.4,0,0.6c0,0.2,0,0.4,0,0.6S357.2,17,357.2,17.1L357.2,17.1z M357.3,13.1L357.3,13.1c0.3-0.7,0.7-1.5,0.9-2.2
				c0.3-0.7,0.5-1.4,0.7-2.1c0.2-0.7,0.4-1.4,0.5-2.2c0.1-0.7,0.2-1.5,0.2-2.3l0,0c0-0.1,0-0.3,0-0.6c0-0.3,0-0.6-0.1-0.9
				c-0.1-0.3-0.2-0.6-0.3-0.8c-0.1-0.2-0.3-0.3-0.5-0.3l0,0c-0.2,0-0.3,0.1-0.5,0.4c-0.1,0.2-0.2,0.6-0.3,1
				c-0.1,0.4-0.2,0.9-0.2,1.4c-0.1,0.5-0.1,1.1-0.2,1.7c0,0.6-0.1,1.2-0.1,1.9c0,0.6,0,1.3,0,1.9c0,0.6,0,1.2,0,1.7
				C357.3,12.3,357.3,12.7,357.3,13.1z M375.2,15.3L375.2,15.3c0,0.1-0.1,0.2-0.2,0.4c-0.1,0.2-0.2,0.4-0.4,0.7
				c-0.2,0.3-0.3,0.6-0.6,0.8c-0.2,0.3-0.5,0.6-0.7,0.8c-0.3,0.2-0.5,0.5-0.8,0.6c-0.3,0.2-0.6,0.2-1,0.2l0,0
				c-0.5,0-0.9-0.2-1.2-0.5s-0.6-0.7-0.7-1.1l0,0c-0.3,0.5-0.6,0.8-1,1.1c-0.4,0.3-0.8,0.4-1.2,0.4l0,0c-0.3,0-0.6-0.1-0.8-0.2
				c-0.2-0.1-0.5-0.3-0.6-0.5s-0.3-0.4-0.4-0.7c-0.1-0.3-0.1-0.6-0.1-0.9l0,0c0-0.6,0.1-1.2,0.3-1.7c0.2-0.5,0.5-0.9,0.8-1.2
				c0.3-0.3,0.7-0.6,1.1-0.7c0.4-0.2,0.8-0.2,1.2-0.2l0,0c0.3,0,0.5,0,0.7,0.1c0.2,0.1,0.4,0.1,0.5,0.2c0.2,0.1,0.3,0.2,0.3,0.2
				c0.1,0.1,0.1,0.1,0.1,0.1l0,0c0.1,0.1,0.1,0.2,0.1,0.3l0,0c0,0.1,0,0.2-0.1,0.3c-0.1,0.1-0.2,0.1-0.3,0.1l0,0
				c-0.1,0-0.2,0-0.3-0.1l0,0c0,0-0.1,0-0.1-0.1c-0.1,0-0.1-0.1-0.2-0.1c-0.1-0.1-0.2-0.1-0.4-0.1c-0.1,0-0.3-0.1-0.5-0.1l0,0
				c-0.3,0-0.5,0.1-0.8,0.2c-0.3,0.1-0.6,0.3-0.8,0.5c-0.2,0.2-0.4,0.5-0.6,0.9c-0.2,0.4-0.2,0.8-0.2,1.3l0,0c0,0.2,0,0.3,0.1,0.5
				c0,0.2,0.1,0.3,0.2,0.4c0.1,0.1,0.2,0.2,0.3,0.3c0.1,0.1,0.3,0.1,0.5,0.1l0,0c0.1,0,0.3,0,0.5-0.1c0.2-0.1,0.4-0.3,0.6-0.5
				c0.2-0.2,0.3-0.5,0.5-0.8c0.1-0.3,0.2-0.7,0.3-1.1l0,0c0-0.1,0.1-0.2,0.2-0.3c0.1-0.1,0.2-0.1,0.3-0.1l0,0c0.1,0,0.2,0,0.3,0.1
				c0.1,0.1,0.1,0.2,0.1,0.3l0,0c0,0.2,0,0.4,0.1,0.7c0,0.3,0.1,0.6,0.2,0.8c0.1,0.3,0.2,0.5,0.4,0.7s0.4,0.3,0.7,0.3l0,0
				c0.2,0,0.4-0.1,0.6-0.2c0.2-0.1,0.4-0.2,0.6-0.4c0.2-0.2,0.4-0.4,0.5-0.6c0.2-0.2,0.3-0.4,0.5-0.7c0.1-0.2,0.3-0.5,0.4-0.7
				c0.1-0.2,0.2-0.4,0.3-0.6l0,0c0-0.1,0.1-0.2,0.2-0.2c0.1,0,0.2-0.1,0.3-0.1l0,0c0.1,0,0.3,0.1,0.3,0.2c0.1,0.1,0.1,0.2,0.1,0.3
				l0,0C375.2,15.2,375.2,15.2,375.2,15.3z M376.4,9.1L376.4,9.1c0,0.3-0.1,0.6-0.3,0.8c-0.2,0.2-0.5,0.3-0.8,0.3l0,0
				c-0.3,0-0.6-0.1-0.8-0.3c-0.2-0.2-0.3-0.5-0.3-0.8l0,0c0-0.2,0-0.3,0.1-0.4c0.1-0.1,0.1-0.3,0.2-0.4c0.1-0.1,0.2-0.2,0.4-0.2
				c0.1-0.1,0.3-0.1,0.4-0.1l0,0c0.2,0,0.3,0,0.4,0.1c0.1,0.1,0.3,0.1,0.4,0.2c0.1,0.1,0.2,0.2,0.2,0.4
				C376.3,8.8,376.4,8.9,376.4,9.1z M374.4,16.2L374.4,16.2c0-1.2,0.1-2.4,0.2-3.5l0,0c0-0.1,0.1-0.2,0.2-0.3
				c0.1-0.1,0.2-0.1,0.3-0.1l0,0c0.1,0,0.2,0,0.3,0.1c0.1,0.1,0.1,0.2,0.1,0.3l0,0c0,0,0,0.2,0,0.4c0,0.2,0,0.5-0.1,0.9
				c0,0.3-0.1,0.7-0.1,1.1c0,0.4,0,0.7,0,1l0,0c0,0.4,0,0.8,0.1,1c0.1,0.3,0.2,0.5,0.3,0.6c0.1,0.1,0.3,0.2,0.4,0.3
				c0.2,0.1,0.3,0.1,0.4,0.1l0,0c0.2,0,0.5-0.1,0.7-0.2c0.2-0.2,0.5-0.4,0.8-0.7c0.3-0.3,0.5-0.6,0.8-1.1c0.3-0.4,0.5-0.9,0.8-1.4
				l0,0c0-0.1,0.1-0.1,0.2-0.2c0.1,0,0.2-0.1,0.2-0.1l0,0c0.1,0,0.2,0,0.3,0.1c0.1,0.1,0.1,0.2,0.1,0.3l0,0c0,0.1,0,0.1-0.1,0.2l0,0
				c-0.1,0.2-0.2,0.4-0.4,0.7c-0.1,0.3-0.3,0.6-0.5,0.8c-0.2,0.3-0.4,0.6-0.6,0.9c-0.2,0.3-0.5,0.5-0.7,0.8
				c-0.3,0.2-0.5,0.4-0.8,0.5c-0.3,0.1-0.6,0.2-0.8,0.2l0,0c-0.4,0-0.7-0.1-1-0.2c-0.3-0.2-0.5-0.4-0.7-0.6
				c-0.2-0.3-0.3-0.6-0.4-0.9C374.4,17,374.4,16.7,374.4,16.2z M375.7,9.1L375.7,9.1c0-0.1,0-0.2-0.1-0.3c-0.1-0.1-0.2-0.1-0.3-0.1
				l0,0c-0.1,0-0.2,0-0.3,0.1c-0.1,0.1-0.1,0.2-0.1,0.3l0,0c0,0.1,0,0.2,0.1,0.3c0.1,0.1,0.2,0.1,0.3,0.1l0,0c0.1,0,0.2,0,0.3-0.1
				C375.6,9.3,375.7,9.2,375.7,9.1z M380.9,13.6L380.9,13.6c0,0.2-0.1,0.4-0.1,0.6s-0.1,0.4-0.1,0.5c0,0.1-0.1,0.3-0.1,0.4
				c0,0.1-0.1,0.1-0.1,0.1l0,0c-0.1,0.2-0.2,0.3-0.4,0.3l0,0c-0.1,0-0.2,0-0.3-0.1c-0.1-0.1-0.1-0.2-0.1-0.3l0,0c0-0.1,0-0.1,0-0.1
				c0,0,0-0.1,0.1-0.1c0-0.1,0.1-0.2,0.1-0.4c0.1-0.2,0.1-0.4,0.2-0.8l0,0c-0.1,0-0.3,0-0.4,0c-0.1,0-0.3,0-0.4-0.1
				c-0.1-0.1-0.2-0.1-0.3-0.2c-0.1-0.1-0.1-0.3-0.1-0.4l0,0c0-0.1,0-0.3,0.1-0.6c0.1-0.2,0.2-0.5,0.3-0.7c0.1-0.2,0.3-0.4,0.4-0.6
				c0.2-0.2,0.3-0.3,0.5-0.3l0,0c0.2,0,0.3,0.1,0.5,0.2c0.1,0.1,0.2,0.3,0.3,0.5c0.1,0.2,0.1,0.4,0.1,0.6c0,0.2,0,0.4,0,0.6l0,0
				c0.1,0,0.3,0,0.4,0c0.1,0,0.3,0,0.4,0l0,0c0.5,0,0.8,0.1,1.1,0.3c0.2,0.2,0.4,0.5,0.4,1l0,0c0,0.2,0,0.4,0,0.6
				c0,0.2-0.1,0.4-0.1,0.6c0,0.2-0.1,0.4-0.1,0.6c0,0.2,0,0.4,0,0.6l0,0c0,0.3,0,0.5,0.1,0.7c0.1,0.2,0.2,0.3,0.3,0.5
				c0.1,0.1,0.3,0.2,0.4,0.2c0.1,0,0.3,0.1,0.4,0.1l0,0c0.4,0,0.7-0.1,1-0.3c0.3-0.2,0.6-0.5,0.9-0.8c0.3-0.3,0.5-0.7,0.7-1
				c0.2-0.4,0.4-0.7,0.5-0.9l0,0c0-0.1,0.1-0.1,0.2-0.2c0.1,0,0.1-0.1,0.2-0.1l0,0c0.1,0,0.3,0,0.3,0.1c0.1,0.1,0.1,0.2,0.1,0.3l0,0
				c0,0.1,0,0.2-0.1,0.2l0,0c-0.2,0.3-0.4,0.7-0.7,1.1c-0.3,0.4-0.5,0.8-0.9,1.2c-0.3,0.4-0.7,0.7-1.1,0.9c-0.4,0.3-0.8,0.4-1.3,0.4
				l0,0c-0.3,0-0.6-0.1-0.8-0.2c-0.3-0.1-0.5-0.3-0.7-0.5c-0.2-0.2-0.3-0.5-0.5-0.8c-0.1-0.3-0.2-0.7-0.2-1l0,0c0-0.4,0-0.8,0.1-1.2
				c0.1-0.4,0.1-0.8,0.1-1.2l0,0c0-0.2,0-0.3-0.1-0.4c-0.1-0.1-0.2-0.1-0.5-0.1l0,0c-0.1,0-0.2,0-0.4,0S381.1,13.6,380.9,13.6z
				 M379.6,12.7h0.5c0-0.1,0-0.1,0-0.2c0-0.1,0-0.2,0-0.3c0-0.1,0-0.2-0.1-0.2c0-0.1,0-0.1-0.1-0.1l0,0c0,0-0.1,0-0.1,0.1
				c0,0.1-0.1,0.1-0.1,0.2c0,0.1-0.1,0.2-0.1,0.3C379.6,12.6,379.6,12.7,379.6,12.7L379.6,12.7z"/>
		</g>
	</g>
</g>
</svg>
