<?xml version="1.0" encoding="utf-8"?>
<!-- Generator: Adobe Illustrator 24.2.1, SVG Export Plug-In . SVG Version: 6.00 Build 0)  -->
<svg version="1.1" id="Layer_1" xmlns="http://www.w3.org/2000/svg" xmlns:xlink="http://www.w3.org/1999/xlink" x="0px" y="0px"
	 viewBox="0 0 436.6 63.2" style="enable-background:new 0 0 436.6 63.2;" xml:space="preserve">
<style type="text/css">
	.st0{fill:#768CAA;}
	.st1{fill:#EFEFEF;}
</style>
<g>
	<g transform="rotate(0 0 32)">
		<rect y="32" class="st0" width="436.6" height="5"/>
	</g>
	<g transform="rotate(0 0 44)">
		<g transform="matrix(1 0 0 1 0 0)">
			<path class="st1" d="M1.5,57.8h8.6v1.3H0V44.9h9.8v1.3H1.5v5.1h7.4v1.3H1.5V57.8z M21.5,48.4H23l-4.8,10.7h-1.5l-4.8-10.7h1.5
				l4,9.1L21.5,48.4z M34.9,53.8l0,0.4h-9c0.1,1.1,0.5,2,1.3,2.7c0.8,0.7,1.8,1,2.9,1l0,0c0.7,0,1.3-0.1,1.8-0.4
				c0.6-0.2,1-0.6,1.4-1.1l0,0l0.8,0.9c-0.5,0.6-1.1,1-1.8,1.3c-0.7,0.3-1.5,0.4-2.4,0.4l0,0c-1.1,0-2.1-0.2-2.9-0.7
				c-0.9-0.5-1.5-1.1-2-1.9c-0.5-0.8-0.7-1.8-0.7-2.8l0,0c0-1,0.2-2,0.7-2.8c0.5-0.8,1.1-1.5,1.9-1.9c0.8-0.5,1.7-0.7,2.7-0.7l0,0
				c1,0,1.9,0.2,2.7,0.7c0.8,0.5,1.4,1.1,1.9,1.9C34.6,51.8,34.9,52.7,34.9,53.8L34.9,53.8z M29.7,49.6c-1,0-1.9,0.3-2.6,1
				c-0.7,0.7-1.1,1.5-1.2,2.6l0,0h7.6c-0.1-1.1-0.5-1.9-1.2-2.6C31.6,49.9,30.7,49.6,29.7,49.6L29.7,49.6z M40,50.5
				c0.3-0.7,0.8-1.3,1.5-1.6c0.7-0.4,1.5-0.6,2.5-0.6l0,0v1.4l-0.3,0c-1.1,0-2,0.3-2.7,1c-0.6,0.7-1,1.7-1,2.9l0,0v5.5h-1.4V48.4H40
				V50.5z M55.5,48.4H57l-5.4,12c-0.4,1-0.9,1.7-1.5,2.1c-0.6,0.4-1.3,0.6-2.1,0.6l0,0c-0.5,0-1-0.1-1.4-0.2
				c-0.4-0.2-0.8-0.4-1.2-0.7l0,0l0.7-1.1c0.5,0.5,1.2,0.8,2,0.8l0,0c0.5,0,0.9-0.1,1.3-0.4c0.3-0.3,0.7-0.7,1-1.4l0,0l0.5-1
				l-4.8-10.7h1.5l4,9.1L55.5,48.4z M69.1,59.1v-13h-5v-1.3h11.5v1.3h-5v13H69.1z M81.8,59.2c-1,0-2-0.2-2.8-0.7
				c-0.8-0.5-1.5-1.1-2-1.9c-0.5-0.8-0.7-1.8-0.7-2.8l0,0c0-1,0.2-2,0.7-2.8c0.5-0.8,1.1-1.5,2-1.9c0.8-0.5,1.8-0.7,2.8-0.7l0,0
				c1,0,2,0.2,2.8,0.7c0.8,0.5,1.5,1.1,1.9,1.9c0.5,0.8,0.7,1.8,0.7,2.8l0,0c0,1-0.2,2-0.7,2.8c-0.5,0.8-1.1,1.5-1.9,1.9
				S82.8,59.2,81.8,59.2L81.8,59.2z M81.8,58c0.8,0,1.4-0.2,2.1-0.5c0.6-0.3,1.1-0.8,1.4-1.5c0.3-0.6,0.5-1.4,0.5-2.2l0,0
				c0-0.8-0.2-1.5-0.5-2.2c-0.3-0.6-0.8-1.1-1.4-1.5c-0.6-0.3-1.3-0.5-2.1-0.5l0,0c-0.8,0-1.4,0.2-2.1,0.5c-0.6,0.3-1.1,0.8-1.4,1.5
				s-0.5,1.4-0.5,2.2l0,0c0,0.8,0.2,1.5,0.5,2.2c0.3,0.6,0.8,1.1,1.4,1.5C80.3,57.8,81,58,81.8,58L81.8,58z M95.4,59.2
				c-1,0-2-0.2-2.8-0.7c-0.8-0.5-1.5-1.1-2-1.9c-0.5-0.8-0.7-1.8-0.7-2.8l0,0c0-1,0.2-2,0.7-2.8s1.1-1.5,2-1.9
				c0.8-0.5,1.8-0.7,2.8-0.7l0,0c1,0,2,0.2,2.8,0.7c0.8,0.5,1.5,1.1,1.9,1.9c0.5,0.8,0.7,1.8,0.7,2.8l0,0c0,1-0.2,2-0.7,2.8
				c-0.5,0.8-1.1,1.5-1.9,1.9C97.4,59,96.4,59.2,95.4,59.2L95.4,59.2z M95.4,58c0.8,0,1.4-0.2,2.1-0.5c0.6-0.3,1.1-0.8,1.4-1.5
				c0.3-0.6,0.5-1.4,0.5-2.2l0,0c0-0.8-0.2-1.5-0.5-2.2s-0.8-1.1-1.4-1.5c-0.6-0.3-1.3-0.5-2.1-0.5l0,0c-0.8,0-1.4,0.2-2.1,0.5
				c-0.6,0.3-1.1,0.8-1.4,1.5c-0.3,0.6-0.5,1.4-0.5,2.2l0,0c0,0.8,0.2,1.5,0.5,2.2c0.3,0.6,0.8,1.1,1.4,1.5
				C93.9,57.8,94.6,58,95.4,58L95.4,58z M104.6,59.1V44h1.4v15.1H104.6z M116.4,48.3c1,0,1.9,0.2,2.7,0.7c0.8,0.5,1.5,1.1,1.9,1.9
				c0.5,0.8,0.7,1.8,0.7,2.8l0,0c0,1.1-0.2,2-0.7,2.8c-0.5,0.8-1.1,1.5-1.9,1.9c-0.8,0.5-1.7,0.7-2.7,0.7l0,0
				c-0.9,0-1.7-0.2-2.4-0.6s-1.3-0.9-1.7-1.7l0,0v2.1h-1.4V44h1.4v6.4c0.4-0.7,1-1.2,1.7-1.6C114.8,48.5,115.6,48.3,116.4,48.3
				L116.4,48.3z M116.3,58c0.7,0,1.4-0.2,2-0.5c0.6-0.3,1.1-0.8,1.4-1.5c0.3-0.6,0.5-1.4,0.5-2.2l0,0c0-0.8-0.2-1.5-0.5-2.2
				c-0.3-0.6-0.8-1.1-1.4-1.5c-0.6-0.3-1.3-0.5-2-0.5l0,0c-0.8,0-1.4,0.2-2.1,0.5c-0.6,0.3-1.1,0.8-1.4,1.5s-0.5,1.4-0.5,2.2l0,0
				c0,0.8,0.2,1.5,0.5,2.2c0.3,0.6,0.8,1.1,1.4,1.5C114.9,57.8,115.6,58,116.3,58L116.3,58z M130,59.2c-1,0-2-0.2-2.8-0.7
				c-0.8-0.5-1.5-1.1-2-1.9c-0.5-0.8-0.7-1.8-0.7-2.8l0,0c0-1,0.2-2,0.7-2.8c0.5-0.8,1.1-1.5,2-1.9c0.8-0.5,1.8-0.7,2.8-0.7l0,0
				c1,0,2,0.2,2.8,0.7c0.8,0.5,1.5,1.1,1.9,1.9s0.7,1.8,0.7,2.8l0,0c0,1-0.2,2-0.7,2.8c-0.5,0.8-1.1,1.5-1.9,1.9
				C131.9,59,131,59.2,130,59.2L130,59.2z M130,58c0.8,0,1.4-0.2,2.1-0.5c0.6-0.3,1.1-0.8,1.4-1.5c0.3-0.6,0.5-1.4,0.5-2.2l0,0
				c0-0.8-0.2-1.5-0.5-2.2c-0.3-0.6-0.8-1.1-1.4-1.5c-0.6-0.3-1.3-0.5-2.1-0.5l0,0c-0.8,0-1.4,0.2-2.1,0.5c-0.6,0.3-1.1,0.8-1.4,1.5
				c-0.3,0.6-0.5,1.4-0.5,2.2l0,0c0,0.8,0.2,1.5,0.5,2.2c0.3,0.6,0.8,1.1,1.4,1.5C128.5,57.8,129.2,58,130,58L130,58z M147.3,59.1
				h-1.7l-3.4-4.5l-3.4,4.5h-1.6l4.2-5.5l-4-5.2h1.6l3.2,4.2l3.2-4.2h1.6l-4,5.2L147.3,59.1z M167.4,44.9h1.5v14.3h-1.2l-9.2-11.6
				v11.6H157V44.9h1.2l9.2,11.6V44.9z M183.4,53.8l0,0.4h-9c0.1,1.1,0.5,2,1.3,2.7c0.8,0.7,1.8,1,2.9,1l0,0c0.7,0,1.3-0.1,1.8-0.4
				s1-0.6,1.4-1.1l0,0l0.8,0.9c-0.5,0.6-1.1,1-1.8,1.3c-0.7,0.3-1.5,0.4-2.4,0.4l0,0c-1.1,0-2.1-0.2-2.9-0.7c-0.9-0.5-1.5-1.1-2-1.9
				c-0.5-0.8-0.7-1.8-0.7-2.8l0,0c0-1,0.2-2,0.7-2.8c0.5-0.8,1.1-1.5,1.9-1.9c0.8-0.5,1.7-0.7,2.7-0.7l0,0c1,0,1.9,0.2,2.7,0.7
				c0.8,0.5,1.4,1.1,1.9,1.9C183.2,51.8,183.4,52.7,183.4,53.8L183.4,53.8z M178.2,49.6c-1,0-1.9,0.3-2.6,1
				c-0.7,0.7-1.1,1.5-1.2,2.6l0,0h7.6c-0.1-1.1-0.5-1.9-1.2-2.6C180.2,49.9,179.3,49.6,178.2,49.6L178.2,49.6z M196.6,53.8l0,0.4h-9
				c0.1,1.1,0.5,2,1.3,2.7c0.8,0.7,1.8,1,2.9,1l0,0c0.7,0,1.3-0.1,1.8-0.4s1-0.6,1.4-1.1l0,0l0.8,0.9c-0.5,0.6-1.1,1-1.8,1.3
				c-0.7,0.3-1.5,0.4-2.4,0.4l0,0c-1.1,0-2.1-0.2-2.9-0.7s-1.5-1.1-2-1.9c-0.5-0.8-0.7-1.8-0.7-2.8l0,0c0-1,0.2-2,0.7-2.8
				s1.1-1.5,1.9-1.9c0.8-0.5,1.7-0.7,2.7-0.7l0,0c1,0,1.9,0.2,2.7,0.7c0.8,0.5,1.4,1.1,1.9,1.9C196.3,51.8,196.6,52.7,196.6,53.8
				L196.6,53.8z M191.4,49.6c-1,0-1.9,0.3-2.6,1c-0.7,0.7-1.1,1.5-1.2,2.6l0,0h7.6c-0.1-1.1-0.5-1.9-1.2-2.6
				C193.3,49.9,192.4,49.6,191.4,49.6L191.4,49.6z M208.7,44h1.4v15.1h-1.4V57c-0.4,0.7-1,1.3-1.7,1.7c-0.7,0.4-1.5,0.6-2.4,0.6l0,0
				c-1,0-1.9-0.2-2.7-0.7c-0.8-0.5-1.5-1.1-1.9-1.9c-0.5-0.8-0.7-1.8-0.7-2.8l0,0c0-1.1,0.2-2,0.7-2.8c0.5-0.8,1.1-1.5,1.9-1.9
				s1.7-0.7,2.7-0.7l0,0c0.9,0,1.7,0.2,2.4,0.5c0.7,0.4,1.3,0.9,1.7,1.6l0,0V44z M204.7,58c0.7,0,1.4-0.2,2-0.5
				c0.6-0.3,1.1-0.8,1.4-1.5c0.3-0.6,0.5-1.4,0.5-2.2l0,0c0-0.8-0.2-1.5-0.5-2.2s-0.8-1.1-1.4-1.5c-0.6-0.3-1.3-0.5-2-0.5l0,0
				c-0.8,0-1.4,0.2-2.1,0.5c-0.6,0.3-1.1,0.8-1.4,1.5s-0.5,1.4-0.5,2.2l0,0c0,0.8,0.2,1.5,0.5,2.2c0.3,0.6,0.8,1.1,1.4,1.5
				C203.3,57.8,204,58,204.7,58L204.7,58z M217.9,59.2c-0.9,0-1.7-0.1-2.5-0.4c-0.8-0.3-1.4-0.6-1.9-0.9l0,0l0.7-1.1
				c0.4,0.4,1,0.6,1.7,0.9c0.7,0.2,1.4,0.3,2.1,0.3l0,0c1,0,1.7-0.2,2.2-0.5c0.5-0.3,0.7-0.7,0.7-1.3l0,0c0-0.4-0.1-0.7-0.4-0.9
				c-0.3-0.2-0.6-0.4-1-0.5c-0.4-0.1-0.9-0.2-1.6-0.3l0,0c-0.9-0.2-1.6-0.3-2.1-0.5c-0.5-0.2-1-0.5-1.4-0.9c-0.4-0.4-0.6-1-0.6-1.7
				l0,0c0-0.9,0.4-1.6,1.1-2.2c0.7-0.6,1.8-0.9,3.1-0.9l0,0c0.7,0,1.4,0.1,2.1,0.3c0.7,0.2,1.3,0.4,1.7,0.7l0,0l-0.6,1.2
				c-0.9-0.6-1.9-0.9-3.2-0.9l0,0c-0.9,0-1.6,0.2-2.1,0.5c-0.5,0.3-0.7,0.8-0.7,1.3l0,0c0,0.4,0.1,0.7,0.4,1c0.3,0.2,0.6,0.4,1,0.5
				c0.4,0.1,0.9,0.2,1.6,0.4l0,0c0.9,0.2,1.5,0.3,2.1,0.5c0.5,0.2,1,0.4,1.3,0.8c0.4,0.4,0.6,0.9,0.6,1.6l0,0c0,0.9-0.4,1.7-1.2,2.2
				C220.3,59,219.3,59.2,217.9,59.2L217.9,59.2z M235.7,48.3c1.4,0,2.5,0.4,3.2,1.1c0.7,0.7,1.1,1.7,1.1,3.1l0,0v6.7h-1.4v-1.7
				c-0.3,0.6-0.8,1-1.4,1.3c-0.6,0.3-1.4,0.5-2.3,0.5l0,0c-1.2,0-2.1-0.3-2.9-0.9c-0.7-0.6-1.1-1.3-1.1-2.3l0,0c0-0.9,0.3-1.6,1-2.2
				c0.7-0.6,1.7-0.8,3.2-0.8l0,0h3.4v-0.7c0-0.9-0.3-1.6-0.8-2.1s-1.3-0.7-2.3-0.7l0,0c-0.7,0-1.3,0.1-2,0.3
				c-0.6,0.2-1.2,0.5-1.6,0.9l0,0l-0.7-1.1c0.5-0.5,1.2-0.8,2-1.1S234.9,48.3,235.7,48.3L235.7,48.3z M235.2,58.1
				c0.8,0,1.5-0.2,2.1-0.6s1-0.9,1.3-1.6l0,0v-1.8h-3.4c-1.8,0-2.8,0.6-2.8,1.9l0,0c0,0.6,0.2,1.1,0.7,1.5
				C233.7,57.9,234.3,58.1,235.2,58.1L235.2,58.1z M261.7,44.9h1.5v14.3h-1.5v-6.6h-8.9v6.6h-1.5V44.9h1.5v6.4h8.9V44.9z
				 M272.1,48.3c1.4,0,2.5,0.4,3.2,1.1c0.7,0.7,1.1,1.7,1.1,3.1l0,0v6.7h-1.4v-1.7c-0.3,0.6-0.8,1-1.4,1.3s-1.4,0.5-2.3,0.5l0,0
				c-1.2,0-2.1-0.3-2.9-0.9c-0.7-0.6-1.1-1.3-1.1-2.3l0,0c0-0.9,0.3-1.6,1-2.2c0.7-0.6,1.7-0.8,3.2-0.8l0,0h3.4v-0.7
				c0-0.9-0.3-1.6-0.8-2.1s-1.3-0.7-2.3-0.7l0,0c-0.7,0-1.3,0.1-2,0.3c-0.6,0.2-1.2,0.5-1.6,0.9l0,0l-0.7-1.1c0.5-0.5,1.2-0.8,2-1.1
				C270.5,48.5,271.3,48.3,272.1,48.3L272.1,48.3z M271.6,58.1c0.8,0,1.5-0.2,2.1-0.6s1-0.9,1.3-1.6l0,0v-1.8h-3.4
				c-1.8,0-2.8,0.6-2.8,1.9l0,0c0,0.6,0.2,1.1,0.7,1.5C270.1,57.9,270.8,58.1,271.6,58.1L271.6,58.1z M294.6,48.3
				c1.3,0,2.4,0.4,3.2,1.2c0.8,0.8,1.2,1.9,1.2,3.4l0,0v6.2h-1.4v-6.1c0-1.1-0.3-2-0.8-2.6c-0.5-0.6-1.3-0.9-2.3-0.9l0,0
				c-1.1,0-2,0.3-2.6,1c-0.6,0.7-1,1.6-1,2.8l0,0v5.6h-1.4v-6.1c0-1.1-0.3-2-0.8-2.6c-0.5-0.6-1.3-0.9-2.3-0.9l0,0
				c-1.1,0-2,0.3-2.6,1c-0.6,0.7-1,1.6-1,2.8l0,0v5.6h-1.4V48.4h1.4v2c0.4-0.7,0.9-1.2,1.6-1.5c0.7-0.4,1.5-0.5,2.3-0.5l0,0
				c0.9,0,1.7,0.2,2.3,0.6s1.2,0.9,1.5,1.7l0,0c0.4-0.7,1-1.3,1.7-1.7S293.7,48.3,294.6,48.3L294.6,48.3z M317.1,48.3
				c1.3,0,2.4,0.4,3.2,1.2c0.8,0.8,1.2,1.9,1.2,3.4l0,0v6.2H320v-6.1c0-1.1-0.3-2-0.8-2.6c-0.5-0.6-1.3-0.9-2.3-0.9l0,0
				c-1.1,0-2,0.3-2.6,1c-0.6,0.7-1,1.6-1,2.8l0,0v5.6h-1.4v-6.1c0-1.1-0.3-2-0.8-2.6c-0.5-0.6-1.3-0.9-2.3-0.9l0,0
				c-1.1,0-2,0.3-2.6,1c-0.6,0.7-1,1.6-1,2.8l0,0v5.6h-1.4V48.4h1.4v2c0.4-0.7,0.9-1.2,1.6-1.5c0.7-0.4,1.5-0.5,2.3-0.5l0,0
				c0.9,0,1.7,0.2,2.3,0.6s1.2,0.9,1.5,1.7l0,0c0.4-0.7,1-1.3,1.7-1.7C315.3,48.5,316.1,48.3,317.1,48.3L317.1,48.3z M335.6,53.8
				l0,0.4h-9c0.1,1.1,0.5,2,1.3,2.7c0.8,0.7,1.8,1,2.9,1l0,0c0.7,0,1.3-0.1,1.8-0.4c0.6-0.2,1-0.6,1.4-1.1l0,0l0.8,0.9
				c-0.5,0.6-1.1,1-1.8,1.3c-0.7,0.3-1.5,0.4-2.4,0.4l0,0c-1.1,0-2.1-0.2-2.9-0.7c-0.9-0.5-1.5-1.1-2-1.9c-0.5-0.8-0.7-1.8-0.7-2.8
				l0,0c0-1,0.2-2,0.7-2.8s1.1-1.5,1.9-1.9c0.8-0.5,1.7-0.7,2.7-0.7l0,0c1,0,1.9,0.2,2.7,0.7c0.8,0.5,1.4,1.1,1.9,1.9
				C335.3,51.8,335.6,52.7,335.6,53.8L335.6,53.8z M330.4,49.6c-1,0-1.9,0.3-2.6,1c-0.7,0.7-1.1,1.5-1.2,2.6l0,0h7.6
				c-0.1-1.1-0.5-1.9-1.2-2.6C332.3,49.9,331.4,49.6,330.4,49.6L330.4,49.6z M340.7,50.5c0.3-0.7,0.8-1.3,1.5-1.6
				c0.7-0.4,1.5-0.6,2.5-0.6l0,0v1.4l-0.3,0c-1.1,0-2,0.3-2.7,1c-0.6,0.7-1,1.7-1,2.9l0,0v5.5h-1.4V48.4h1.4V50.5z M354.8,63.1V44
				h1.3v19.1H354.8z M371.7,59.3c-1.1,0-2.1-0.2-3.1-0.5c-1-0.3-1.7-0.8-2.3-1.3l0,0l0.6-1.2c0.5,0.5,1.2,0.9,2.1,1.3
				c0.9,0.3,1.7,0.5,2.7,0.5l0,0c1.3,0,2.2-0.2,2.9-0.7s1-1.1,1-1.8l0,0c0-0.6-0.2-1-0.5-1.4c-0.3-0.3-0.8-0.6-1.3-0.8
				c-0.5-0.2-1.2-0.4-2.1-0.6l0,0c-1.1-0.3-1.9-0.5-2.6-0.8c-0.6-0.3-1.2-0.6-1.6-1.2c-0.5-0.5-0.7-1.2-0.7-2.1l0,0
				c0-0.7,0.2-1.4,0.6-2c0.4-0.6,1-1.1,1.8-1.4c0.8-0.4,1.8-0.5,2.9-0.5l0,0c0.8,0,1.6,0.1,2.4,0.3c0.8,0.2,1.5,0.5,2,0.9l0,0
				l-0.5,1.2c-0.6-0.4-1.2-0.7-1.9-0.9c-0.7-0.2-1.3-0.3-2-0.3l0,0c-1.3,0-2.2,0.2-2.8,0.7c-0.6,0.5-0.9,1.1-0.9,1.9l0,0
				c0,0.6,0.2,1,0.5,1.4c0.3,0.3,0.8,0.6,1.3,0.8s1.2,0.4,2.1,0.6l0,0c1,0.3,1.9,0.5,2.5,0.8c0.6,0.3,1.2,0.6,1.6,1.1
				c0.4,0.5,0.7,1.2,0.7,2.1l0,0c0,0.7-0.2,1.4-0.6,2c-0.4,0.6-1,1.1-1.8,1.4C373.9,59.1,372.9,59.3,371.7,59.3L371.7,59.3z
				 M386,57.4l0.5,1c-0.3,0.2-0.6,0.4-1,0.6c-0.4,0.1-0.8,0.2-1.3,0.2l0,0c-1,0-1.8-0.3-2.3-0.8s-0.8-1.3-0.8-2.3l0,0v-6.5h-1.9
				v-1.2h1.9v-2.3h1.4v2.3h3.3v1.2h-3.3V56c0,0.6,0.2,1.1,0.5,1.5c0.3,0.3,0.8,0.5,1.4,0.5l0,0c0.3,0,0.6,0,0.9-0.1
				C385.6,57.8,385.8,57.6,386,57.4L386,57.4z M394,59.2c-1,0-2-0.2-2.8-0.7s-1.5-1.1-2-1.9c-0.5-0.8-0.7-1.8-0.7-2.8l0,0
				c0-1,0.2-2,0.7-2.8s1.1-1.5,2-1.9c0.8-0.5,1.8-0.7,2.8-0.7l0,0c1,0,2,0.2,2.8,0.7c0.8,0.5,1.5,1.1,1.9,1.9s0.7,1.8,0.7,2.8l0,0
				c0,1-0.2,2-0.7,2.8c-0.5,0.8-1.1,1.5-1.9,1.9C395.9,59,395,59.2,394,59.2L394,59.2z M394,58c0.8,0,1.4-0.2,2.1-0.5
				c0.6-0.3,1.1-0.8,1.4-1.5c0.3-0.6,0.5-1.4,0.5-2.2l0,0c0-0.8-0.2-1.5-0.5-2.2c-0.3-0.6-0.8-1.1-1.4-1.5c-0.6-0.3-1.3-0.5-2.1-0.5
				l0,0c-0.8,0-1.4,0.2-2.1,0.5c-0.6,0.3-1.1,0.8-1.4,1.5c-0.3,0.6-0.5,1.4-0.5,2.2l0,0c0,0.8,0.2,1.5,0.5,2.2
				c0.3,0.6,0.8,1.1,1.4,1.5C392.5,57.8,393.2,58,394,58L394,58z M408.7,48.3c1,0,1.9,0.2,2.7,0.7c0.8,0.5,1.5,1.1,1.9,1.9
				c0.5,0.8,0.7,1.8,0.7,2.8l0,0c0,1.1-0.2,2-0.7,2.9c-0.5,0.8-1.1,1.5-1.9,1.9s-1.7,0.7-2.7,0.7l0,0c-0.9,0-1.7-0.2-2.4-0.5
				s-1.3-0.9-1.7-1.6l0,0v6h-1.4V48.4h1.4v2.1c0.4-0.7,1-1.3,1.7-1.6S407.8,48.3,408.7,48.3L408.7,48.3z M408.6,58
				c0.7,0,1.4-0.2,2-0.5c0.6-0.3,1.1-0.8,1.4-1.5c0.3-0.6,0.5-1.4,0.5-2.2l0,0c0-0.8-0.2-1.5-0.5-2.2c-0.3-0.6-0.8-1.1-1.4-1.5
				c-0.6-0.4-1.3-0.5-2-0.5l0,0c-0.8,0-1.4,0.2-2.1,0.5c-0.6,0.4-1.1,0.8-1.4,1.5c-0.3,0.6-0.5,1.4-0.5,2.2l0,0
				c0,0.8,0.2,1.5,0.5,2.2c0.3,0.6,0.8,1.1,1.4,1.5C407.2,57.8,407.8,58,408.6,58L408.6,58z M424.3,59.1V44.9h1.5v14.3H424.3z
				 M436.1,57.4l0.5,1c-0.3,0.2-0.6,0.4-1,0.6c-0.4,0.1-0.8,0.2-1.3,0.2l0,0c-1,0-1.8-0.3-2.3-0.8c-0.5-0.5-0.8-1.3-0.8-2.3l0,0
				v-6.5h-1.9v-1.2h1.9v-2.3h1.4v2.3h3.3v1.2h-3.3V56c0,0.6,0.2,1.1,0.5,1.5c0.3,0.3,0.8,0.5,1.4,0.5l0,0c0.3,0,0.6,0,0.9-0.1
				C435.7,57.8,435.9,57.6,436.1,57.4L436.1,57.4z"/>
		</g>
	</g>
	<g transform="rotate(0 26.2837 0)">
		<g transform="matrix(1 0 0 1 0 0)">
			<path class="st1" d="M36.5,4.3v1.4h-3.8V4.2c0-0.2-0.1-0.3-0.2-0.4c-0.1-0.1-0.2-0.2-0.4-0.2l0,0h-1.6c-0.2,0-0.3,0.1-0.4,0.2
				c-0.1,0.1-0.2,0.2-0.2,0.4l0,0v3.3c0,0.2,0.1,0.3,0.2,0.4C30.3,8,30.5,8,30.6,8l0,0h2.6c2.4,0,3.5,1.3,3.5,3.8l0,0v4
				c0,2.5-1.2,3.8-3.5,3.8l0,0h-3.4c-2.4,0-3.5-1.3-3.5-3.8l0,0v-1.9h3.8v2c0,0.2,0.1,0.3,0.2,0.4c0.1,0.1,0.2,0.2,0.4,0.2l0,0h1.8
				c0.2,0,0.3-0.1,0.4-0.2c0.1-0.1,0.2-0.2,0.2-0.4l0,0v-3.6c0-0.2-0.1-0.3-0.2-0.4c-0.1-0.1-0.2-0.2-0.4-0.2l0,0h-2.6
				c-2.4,0-3.5-1.3-3.5-3.8l0,0V4.3c0-2.5,1.2-3.8,3.5-3.8l0,0H33C35.3,0.5,36.5,1.8,36.5,4.3L36.5,4.3z M43,0.8v18.4h-3.8V0.8H43z
				 M55.8,8.8L55.8,8.8v6.9c0,2.5-1.2,3.8-3.5,3.8l0,0h-3.2c-2.4,0-3.5-1.3-3.5-3.8l0,0V8.8c0-2.5,1.2-3.8,3.5-3.8l0,0h3.2
				C54.6,5,55.8,6.3,55.8,8.8z M52,16.5L52,16.5V8c0-0.2-0.1-0.3-0.2-0.4c-0.1-0.1-0.2-0.2-0.4-0.2l0,0h-1.6c-0.2,0-0.3,0.1-0.4,0.2
				c-0.1,0.1-0.2,0.2-0.2,0.4l0,0v8.6c0,0.2,0.1,0.3,0.2,0.4c0.1,0.1,0.2,0.2,0.4,0.2l0,0h1.6c0.2,0,0.3-0.1,0.4-0.2
				C51.9,16.8,52,16.7,52,16.5z M62.6,16.1l2.1-10.8h3.6l2.1,10.8L72,5.3h3.7l-3,13.9h-4.6l-1.6-8.6L65,19.2h-4.6l-3-13.9H61
				L62.6,16.1z M90.2,12h-3.2v7.2h-4V0.8h4v7.7h3.2V0.8h4v18.4h-4V12z M104,6.3v-1h3.2v13.9H104v-1c-0.6,0.9-1.6,1.3-2.9,1.3l0,0
				h-0.6c-2.4,0-3.5-1.3-3.5-3.8l0,0V8.8c0-2.5,1.2-3.8,3.5-3.8l0,0h0.6C102.4,5,103.4,5.5,104,6.3L104,6.3z M103.4,16.2L103.4,16.2
				V8.3c0-0.2-0.1-0.3-0.2-0.4c-0.1-0.1-0.2-0.2-0.4-0.2l0,0h-1.6c-0.2,0-0.3,0.1-0.4,0.2s-0.2,0.2-0.2,0.4l0,0v7.8
				c0,0.2,0.1,0.3,0.2,0.4s0.2,0.2,0.4,0.2l0,0h1.6c0.2,0,0.3-0.1,0.4-0.2C103.3,16.5,103.4,16.3,103.4,16.2z M113.6,8.3v10.9h-3.8
				V5.3h3.5V6c0.6-0.7,1.5-1,2.7-1l0,0h0.6c2.4,0,3.5,1.3,3.5,3.8l0,0v10.4h-3.8V8.3c0-0.2-0.1-0.3-0.2-0.4
				c-0.1-0.1-0.2-0.2-0.4-0.2l0,0h-1.6c-0.2,0-0.3,0.1-0.4,0.2C113.6,8,113.6,8.2,113.6,8.3L113.6,8.3z M126.2,5h0.6
				c1,0,1.7,0.2,2.3,0.7l0,0V0.8h3.8v18.4h-3.2v-1c-0.6,0.9-1.6,1.3-2.9,1.3l0,0h-0.6c-2.4,0-3.5-1.3-3.5-3.8l0,0V8.8
				C122.6,6.3,123.8,5,126.2,5L126.2,5z M129.1,16.2L129.1,16.2V8.3c0-0.2-0.1-0.3-0.2-0.4c-0.1-0.1-0.2-0.2-0.4-0.2l0,0H127
				c-0.2,0-0.3,0.1-0.4,0.2c-0.1,0.1-0.2,0.2-0.2,0.4l0,0v7.8c0,0.2,0.1,0.3,0.2,0.4c0.1,0.1,0.2,0.2,0.4,0.2l0,0h1.6
				c0.2,0,0.3-0.1,0.4-0.2C129,16.5,129.1,16.3,129.1,16.2z M145.3,0.8v15h4.4v3.4h-8.3V0.8H145.3z M161.7,8.8L161.7,8.8v6.9
				c0,2.5-1.2,3.8-3.5,3.8l0,0H155c-2.4,0-3.5-1.3-3.5-3.8l0,0V8.8c0-2.5,1.2-3.8,3.5-3.8l0,0h3.2C160.5,5,161.7,6.3,161.7,8.8z
				 M157.9,16.5L157.9,16.5V8c0-0.2-0.1-0.3-0.2-0.4c-0.1-0.1-0.2-0.2-0.4-0.2l0,0h-1.6c-0.2,0-0.3,0.1-0.4,0.2
				c-0.1,0.1-0.2,0.2-0.2,0.4l0,0v8.6c0,0.2,0.1,0.3,0.2,0.4s0.2,0.2,0.4,0.2l0,0h1.6c0.2,0,0.3-0.1,0.4-0.2
				C157.8,16.8,157.9,16.7,157.9,16.5z M171.3,5.3h3.2v14.9c0,2.5-1.2,3.8-3.5,3.8l0,0h-2.8c-2.4,0-3.5-1.3-3.5-3.8l0,0v-0.5h3.4
				v0.9c0,0.2,0.1,0.3,0.2,0.4c0.1,0.1,0.2,0.2,0.4,0.2l0,0h1.6c0.2,0,0.3-0.1,0.4-0.2c0.1-0.1,0.2-0.2,0.2-0.4l0,0v-2.8
				c-0.6,0.5-1.4,0.7-2.3,0.7l0,0h-0.6c-2.4,0-3.5-1.3-3.5-3.8l0,0v-6c0-2.5,1.2-3.8,3.5-3.8l0,0h0.6c1.4,0,2.3,0.4,2.9,1.3l0,0V5.3
				z M170.7,15.2L170.7,15.2V8.3c0-0.2-0.1-0.3-0.2-0.4s-0.2-0.2-0.4-0.2l0,0h-1.6c-0.2,0-0.3,0.1-0.4,0.2s-0.2,0.2-0.2,0.4l0,0v6.9
				c0,0.2,0.1,0.3,0.2,0.4s0.2,0.2,0.4,0.2l0,0h1.6c0.2,0,0.3-0.1,0.4-0.2S170.7,15.4,170.7,15.2z M184.2,6.3v-1h3.2v13.9h-3.2v-1
				c-0.6,0.9-1.6,1.3-2.9,1.3l0,0h-0.6c-2.4,0-3.5-1.3-3.5-3.8l0,0V8.8c0-2.5,1.2-3.8,3.5-3.8l0,0h0.6C182.6,5,183.6,5.5,184.2,6.3
				L184.2,6.3z M183.6,16.2L183.6,16.2V8.3c0-0.2-0.1-0.3-0.2-0.4s-0.2-0.2-0.4-0.2l0,0h-1.6c-0.2,0-0.3,0.1-0.4,0.2
				c-0.1,0.1-0.2,0.2-0.2,0.4l0,0v7.8c0,0.2,0.1,0.3,0.2,0.4c0.1,0.1,0.2,0.2,0.4,0.2l0,0h1.6c0.2,0,0.3-0.1,0.4-0.2
				S183.6,16.3,183.6,16.2z M193.8,8.3v10.9H190V5.3h3.5V6c0.6-0.7,1.5-1,2.7-1l0,0h0.6c2.4,0,3.5,1.3,3.5,3.8l0,0v10.4h-3.8V8.3
				c0-0.2-0.1-0.3-0.2-0.4s-0.2-0.2-0.4-0.2l0,0h-1.6c-0.2,0-0.3,0.1-0.4,0.2S193.8,8.2,193.8,8.3L193.8,8.3z M215.9,12h-3.2v7.2h-4
				V0.8h4v7.7h3.2V0.8h4v18.4h-4V12z M232.8,8.8L232.8,8.8v6.9c0,2.5-1.2,3.8-3.5,3.8l0,0h-3.2c-2.4,0-3.5-1.3-3.5-3.8l0,0V8.8
				c0-2.5,1.2-3.8,3.5-3.8l0,0h3.2C231.6,5,232.8,6.3,232.8,8.8z M229,16.5L229,16.5V8c0-0.2-0.1-0.3-0.2-0.4
				c-0.1-0.1-0.2-0.2-0.4-0.2l0,0h-1.6c-0.2,0-0.3,0.1-0.4,0.2c-0.1,0.1-0.2,0.2-0.2,0.4l0,0v8.6c0,0.2,0.1,0.3,0.2,0.4
				s0.2,0.2,0.4,0.2l0,0h1.6c0.2,0,0.3-0.1,0.4-0.2S229,16.7,229,16.5z M239.2,0.8v18.4h-3.8V0.8H239.2z M245.6,0.8v18.4h-3.8V0.8
				H245.6z M255.2,6.3v-1h3.2v13.9h-3.2v-1c-0.6,0.9-1.6,1.3-2.9,1.3l0,0h-0.6c-2.4,0-3.5-1.3-3.5-3.8l0,0V8.8
				c0-2.5,1.2-3.8,3.5-3.8l0,0h0.6C253.6,5,254.6,5.5,255.2,6.3L255.2,6.3z M254.6,16.2L254.6,16.2V8.3c0-0.2-0.1-0.3-0.2-0.4
				c-0.1-0.1-0.2-0.2-0.4-0.2l0,0h-1.6c-0.2,0-0.3,0.1-0.4,0.2C252,8,252,8.2,252,8.3l0,0v7.8c0,0.2,0.1,0.3,0.2,0.4
				c0.1,0.1,0.2,0.2,0.4,0.2l0,0h1.6c0.2,0,0.3-0.1,0.4-0.2C254.5,16.5,254.6,16.3,254.6,16.2z M264.8,8.3v10.9H261V5.3h3.5V6
				c0.6-0.7,1.5-1,2.7-1l0,0h0.6c2.4,0,3.5,1.3,3.5,3.8l0,0v10.4h-3.8V8.3c0-0.2-0.1-0.3-0.2-0.4s-0.2-0.2-0.4-0.2l0,0h-1.6
				c-0.2,0-0.3,0.1-0.4,0.2C264.9,8,264.8,8.2,264.8,8.3L264.8,8.3z M277.4,5h0.6c1,0,1.7,0.2,2.3,0.7l0,0V0.8h3.8v18.4h-3.2v-1
				c-0.6,0.9-1.6,1.3-2.9,1.3l0,0h-0.6c-2.4,0-3.5-1.3-3.5-3.8l0,0V8.8C273.8,6.3,275,5,277.4,5L277.4,5z M280.3,16.2L280.3,16.2
				V8.3c0-0.2-0.1-0.3-0.2-0.4c-0.1-0.1-0.2-0.2-0.4-0.2l0,0h-1.6c-0.2,0-0.3,0.1-0.4,0.2c-0.1,0.1-0.2,0.2-0.2,0.4l0,0v7.8
				c0,0.2,0.1,0.3,0.2,0.4c0.1,0.1,0.2,0.2,0.4,0.2l0,0h1.6c0.2,0,0.3-0.1,0.4-0.2C280.3,16.5,280.3,16.3,280.3,16.2z M296.4,21.3
				h-2.9V0h2.9V21.3z M313.9,12h-4v7.2h-4V0.8h8.3v3.4h-4.3v4.4h4V12z M320.2,3.6c-0.4,0.4-0.9,0.6-1.5,0.6c-0.6,0-1.1-0.2-1.5-0.6
				c-0.4-0.4-0.6-0.9-0.6-1.5c0-0.6,0.2-1.1,0.6-1.5s0.9-0.6,1.5-0.6c0.6,0,1.1,0.2,1.5,0.6s0.6,0.9,0.6,1.5S320.6,3.2,320.2,3.6z
				 M320.7,19.2h-3.8V5.3h3.8V19.2z M329.3,5L329.3,5h0.7v3.7h-1.9c-0.6,0-1,0.3-1,1l0,0v9.5h-3.8V5.3h3.5v1.3
				C327.4,5.6,328.2,5,329.3,5z M335.3,10.5h2.9c2.4,0,3.5,1.3,3.5,3.8l0,0v1.5c0,2.5-1.2,3.8-3.5,3.8l0,0h-3.2
				c-2.4,0-3.5-1.3-3.5-3.8l0,0v-0.9h3.5v1.3c0,0.2,0.1,0.3,0.2,0.4c0.1,0.1,0.2,0.2,0.4,0.2l0,0h2.3c0.2,0,0.3-0.1,0.4-0.2
				c0.1-0.1,0.2-0.2,0.2-0.4l0,0v-1.7c0-0.2-0.1-0.3-0.2-0.4c-0.1-0.1-0.2-0.2-0.4-0.2l0,0H335c-2.4,0-3.5-1.3-3.5-3.8l0,0V8.8
				c0-2.5,1.2-3.8,3.5-3.8l0,0h3c2.4,0,3.5,1.3,3.5,3.8l0,0v0.5H338V8.4c0-0.2-0.1-0.3-0.2-0.4c-0.1-0.1-0.2-0.2-0.4-0.2l0,0h-2.2
				c-0.2,0-0.3,0.1-0.4,0.2c-0.1,0.1-0.2,0.2-0.2,0.4l0,0v1.5c0,0.2,0.1,0.3,0.2,0.4C335,10.4,335.2,10.5,335.3,10.5L335.3,10.5z
				 M349.1,17L349.1,17h1.1v2.5h-2.7c-2.4,0-3.5-1.3-3.5-3.8l0,0V2.3h3.8v3h2.4v2.8h-2.4v7.6c0,0.5,0.1,0.9,0.3,1.1
				C348.4,16.9,348.7,17,349.1,17z M365,16.2L365,16.2v-2.8h3.8v2.4c0,2.5-1.2,3.8-3.5,3.8l0,0h-3.6c-2.4,0-3.5-1.3-3.5-3.8l0,0V4.3
				c0-2.5,1.2-3.8,3.5-3.8l0,0h3.6c2.4,0,3.5,1.3,3.5,3.8l0,0V6H365V3.8c0-0.2-0.1-0.3-0.2-0.4c-0.1-0.1-0.2-0.2-0.4-0.2l0,0h-1.8
				c-0.2,0-0.3,0.1-0.4,0.2c-0.1,0.1-0.2,0.2-0.2,0.4l0,0v12.4c0,0.2,0.1,0.3,0.2,0.4c0.1,0.1,0.2,0.2,0.4,0.2l0,0h1.8
				c0.2,0,0.3-0.1,0.4-0.2C364.9,16.5,365,16.3,365,16.2z M374.8,8.3v10.9H371V0.8h3.8v4.9c0.6-0.5,1.3-0.7,2.3-0.7l0,0h0.6
				c2.4,0,3.5,1.3,3.5,3.8l0,0v10.4h-3.8V8.3c0-0.2-0.1-0.3-0.2-0.4s-0.2-0.2-0.4-0.2l0,0h-1.6C375,7.8,374.8,7.9,374.8,8.3
				L374.8,8.3z M390.9,6.3v-1h3.2v13.9h-3.2v-1c-0.6,0.9-1.6,1.3-2.9,1.3l0,0h-0.6c-2.4,0-3.5-1.3-3.5-3.8l0,0V8.8
				c0-2.5,1.2-3.8,3.5-3.8l0,0h0.6C389.3,5,390.3,5.5,390.9,6.3L390.9,6.3z M390.3,16.2L390.3,16.2V8.3c0-0.2-0.1-0.3-0.2-0.4
				s-0.2-0.2-0.4-0.2l0,0h-1.6c-0.2,0-0.3,0.1-0.4,0.2c-0.1,0.1-0.2,0.2-0.2,0.4l0,0v7.8c0,0.2,0.1,0.3,0.2,0.4
				c0.1,0.1,0.2,0.2,0.4,0.2l0,0h1.6c0.2,0,0.3-0.1,0.4-0.2S390.3,16.3,390.3,16.2z M400.6,3.6c-0.4,0.4-0.9,0.6-1.5,0.6
				c-0.6,0-1.1-0.2-1.5-0.6c-0.4-0.4-0.6-0.9-0.6-1.5c0-0.6,0.2-1.1,0.6-1.5c0.4-0.4,0.9-0.6,1.5-0.6c0.6,0,1.1,0.2,1.5,0.6
				s0.6,0.9,0.6,1.5S401,3.2,400.6,3.6z M401,19.2h-3.8V5.3h3.8V19.2z M409.6,5L409.6,5h0.7v3.7h-1.9c-0.6,0-1,0.3-1,1l0,0v9.5h-3.8
				V5.3h3.5v1.3C407.7,5.6,408.5,5,409.6,5z"/>
		</g>
	</g>
</g>
</svg>
