<?xml version="1.0" encoding="utf-8"?>
<!-- Generator: Adobe Illustrator 24.2.1, SVG Export Plug-In . SVG Version: 6.00 Build 0)  -->
<svg version="1.1" id="Layer_1" xmlns="http://www.w3.org/2000/svg" xmlns:xlink="http://www.w3.org/1999/xlink" x="0px" y="0px"
	 viewBox="0 0 559.5 63.8" style="enable-background:new 0 0 559.5 63.8;" xml:space="preserve">
<style type="text/css">
	.st0{fill:#F9F9F9;}
</style>
<g>
	<g transform="rotate(0 113.2637 42.91909999999996)">
		<g transform="matrix(1 0 0 1 0 0)">
			<path class="st0" d="M113.3,44.4l2.2,0.4v13.1l-2.1,0.5l-0.1,0.7h12.1l0.4-3.9l-0.8-0.1l-1.1,3.1h-6.6v-6.5h3.8l0.3,2.3l0.8-0.1
				l0.4-4.8l-0.9,0.1l-0.5,1.6h-3.9v-6.3h6.3l0.4,3l0.8,0.1l0.4-4h-11.8L113.3,44.4z M127.9,49.1l1.5,0.5l3.5,9.9l1.1-0.2l3.5-9.7
				l1.4-0.5l0.1-0.7h-4.5l-0.1,0.7l2,0.5l-2.6,7.6l-2.6-7.6L133,49l0.1-0.7H128L127.9,49.1z M145.7,59.5c0.8,0,1.5-0.2,2.2-0.5
				c0.7-0.3,1.2-0.7,1.7-1.2l0,0l-0.2-0.5c-0.5,0.3-0.9,0.5-1.3,0.7c-0.4,0.1-0.9,0.2-1.4,0.2l0,0c-0.8,0-1.4-0.2-2-0.6
				c-0.5-0.4-0.9-1-1.2-1.7c-0.3-0.7-0.4-1.4-0.4-2.3l0,0l6-0.1c0.1-0.2,0.1-0.5,0.1-0.8c0-0.3,0.1-0.6,0.1-0.8l0,0
				c0-1.3-0.3-2.2-0.8-2.8c-0.6-0.6-1.3-0.9-2.3-0.9l0,0c-0.8,0-1.6,0.2-2.4,0.7c-0.8,0.5-1.4,1.1-1.8,2c-0.5,0.9-0.7,1.9-0.7,3.1
				l0,0c0,1.2,0.2,2.2,0.6,3.1c0.4,0.8,0.9,1.5,1.6,1.9C144.1,59.3,144.8,59.5,145.7,59.5L145.7,59.5z M145.5,49
				c0.6,0,1.1,0.2,1.4,0.7c0.4,0.5,0.5,1.1,0.5,1.8l0,0c0,0.5,0,0.8-0.1,1l0,0l-4.4,0.3c0-0.8,0.1-1.5,0.4-2.1
				c0.2-0.6,0.5-1,0.9-1.3C144.6,49.2,145,49,145.5,49L145.5,49z M158.1,59.1l0.1-0.8l-2.9-0.3v-4.7c0.1-0.7,0.2-1.3,0.5-1.8
				c0.2-0.6,0.5-1,0.8-1.3c0.3-0.3,0.6-0.5,1-0.5l0,0c0.5,0,0.9,0.2,1.3,0.6l0,0c0.2-0.2,0.4-0.4,0.6-0.6c0.1-0.2,0.2-0.4,0.2-0.6
				l0,0c0-0.3-0.1-0.6-0.4-0.8c-0.3-0.2-0.6-0.4-1-0.4l0,0c-0.4,0-0.8,0.1-1.2,0.4c-0.4,0.3-0.7,0.7-1,1.2c-0.3,0.5-0.6,1.1-0.8,1.8
				l0,0h-0.2l0.2-3.1l-0.2-0.2l-3.2,0.4l-0.1,0.6l2,0.5V58l-1.9,0.4l-0.1,0.6H158.1z M163.5,63.8c0.6,0,1.2-0.1,1.6-0.4
				c0.5-0.3,0.9-0.7,1.3-1.3c0.4-0.6,0.8-1.4,1.2-2.4l0,0l4.1-10.3l1.3-0.4l0.1-0.7h-3.9l-0.1,0.7l1.6,0.4l-2.9,7.2l-2.7-7.2
				l1.6-0.4l0.1-0.7h-4.8l-0.1,0.7l1.5,0.4l3.5,9.5l-0.3,0.8c-0.6,1.5-1.3,2.2-2.3,2.2l0,0c-0.4,0-0.8-0.1-1.1-0.2
				c-0.3-0.1-0.6-0.3-0.9-0.5l0,0c-0.4,0.3-0.6,0.7-0.6,1.2l0,0c0,0.2,0.1,0.5,0.2,0.7c0.2,0.2,0.4,0.4,0.6,0.5
				C162.9,63.7,163.2,63.8,163.5,63.8L163.5,63.8z M180.1,43.6l0.1,4l0.9,0.1l0.6-3.2h4v13.4l-2.1,0.5l-0.1,0.7h6.2l0.1-0.8
				l-2.2-0.4V44.5h4.2l0.3,3.1l0.9,0.1l0.4-4.2H180.1z M200.6,59.4c0.9,0,1.7-0.2,2.5-0.7c0.8-0.5,1.4-1.2,1.8-2.1
				c0.5-0.9,0.7-1.9,0.7-3l0,0c0-1.1-0.2-2-0.6-2.9c-0.4-0.9-0.9-1.5-1.6-2s-1.5-0.7-2.5-0.7l0,0c-0.9,0-1.8,0.2-2.6,0.7
				c-0.8,0.5-1.4,1.2-1.9,2.1c-0.5,0.9-0.7,2-0.7,3.2l0,0c0,1.1,0.2,2,0.6,2.8c0.4,0.8,1,1.5,1.7,1.9
				C198.7,59.2,199.6,59.4,200.6,59.4L200.6,59.4z M200.4,49.1c0.7,0,1.4,0.3,1.9,0.8c0.5,0.5,0.9,1.2,1.2,2
				c0.3,0.8,0.4,1.7,0.4,2.5l0,0c0,0.7-0.1,1.4-0.3,2c-0.2,0.6-0.5,1.1-1,1.5c-0.4,0.4-0.9,0.5-1.5,0.5l0,0c-0.8,0-1.4-0.2-2-0.7
				c-0.5-0.5-0.9-1.1-1.2-2c-0.3-0.8-0.4-1.7-0.4-2.6l0,0c0-0.7,0.1-1.4,0.3-2c0.2-0.6,0.6-1.1,1-1.5
				C199.2,49.2,199.7,49.1,200.4,49.1L200.4,49.1z M212.7,59.4c0.9,0,1.7-0.2,2.5-0.7c0.8-0.5,1.4-1.2,1.8-2.1
				c0.4-0.9,0.7-1.9,0.7-3l0,0c0-1.1-0.2-2-0.6-2.9c-0.4-0.9-0.9-1.5-1.6-2c-0.7-0.5-1.5-0.7-2.5-0.7l0,0c-0.9,0-1.8,0.2-2.6,0.7
				c-0.8,0.5-1.4,1.2-1.9,2.1c-0.5,0.9-0.7,2-0.7,3.2l0,0c0,1.1,0.2,2,0.6,2.8c0.4,0.8,1,1.5,1.7,1.9
				C210.9,59.2,211.7,59.4,212.7,59.4L212.7,59.4z M212.5,49.1c0.7,0,1.4,0.3,1.9,0.8c0.5,0.5,0.9,1.2,1.2,2
				c0.3,0.8,0.4,1.7,0.4,2.5l0,0c0,0.7-0.1,1.4-0.3,2c-0.2,0.6-0.5,1.1-1,1.5c-0.4,0.4-0.9,0.5-1.5,0.5l0,0c-0.8,0-1.4-0.2-1.9-0.7
				c-0.5-0.5-0.9-1.1-1.2-2c-0.3-0.8-0.4-1.7-0.4-2.6l0,0c0-0.7,0.1-1.4,0.3-2c0.2-0.6,0.6-1.1,1-1.5
				C211.4,49.2,211.9,49.1,212.5,49.1L212.5,49.1z M219.9,59.1h5.5l0.1-0.7l-2-0.4V43.1l-0.2-0.2l-3.3,0.3l-0.1,0.6l1.9,0.5V58
				l-1.9,0.4L219.9,59.1z M229.5,44.4v14.1c0.9,0.6,2,0.9,3.1,0.9l0,0c1.1,0,2.1-0.2,3-0.7c0.9-0.5,1.7-1.2,2.2-2.1
				c0.5-0.9,0.8-2,0.8-3.3l0,0c0-1-0.2-1.9-0.5-2.7c-0.3-0.8-0.8-1.4-1.4-1.8c-0.6-0.4-1.3-0.6-2.1-0.6l0,0c-1.3,0-2.5,0.6-3.6,1.9
				l0,0H231l0.2-1.3v-5.5L231,43l-3.2,0.2l-0.1,0.7L229.5,44.4z M231.1,50.8c0.5-0.5,0.9-0.9,1.4-1.1c0.5-0.2,0.9-0.4,1.3-0.4l0,0
				c1.1,0,1.8,0.4,2.3,1.3c0.5,0.9,0.7,2,0.7,3.4l0,0c0,0.9-0.2,1.7-0.5,2.3c-0.3,0.6-0.7,1.1-1.2,1.5c-0.5,0.3-1,0.5-1.5,0.5l0,0
				c-0.5,0-1.1-0.1-1.5-0.2c-0.5-0.1-0.8-0.3-1.1-0.6l0,0V50.8z M245.8,59.4c0.9,0,1.7-0.2,2.5-0.7c0.8-0.5,1.4-1.2,1.8-2.1
				c0.5-0.9,0.7-1.9,0.7-3l0,0c0-1.1-0.2-2-0.6-2.9c-0.4-0.9-0.9-1.5-1.6-2c-0.7-0.5-1.5-0.7-2.5-0.7l0,0c-0.9,0-1.8,0.2-2.6,0.7
				c-0.8,0.5-1.4,1.2-1.9,2.1c-0.5,0.9-0.7,2-0.7,3.2l0,0c0,1.1,0.2,2,0.6,2.8c0.4,0.8,1,1.5,1.7,1.9
				C244,59.2,244.8,59.4,245.8,59.4L245.8,59.4z M245.6,49.1c0.7,0,1.4,0.3,1.9,0.8c0.5,0.5,0.9,1.2,1.2,2c0.3,0.8,0.4,1.7,0.4,2.5
				l0,0c0,0.7-0.1,1.4-0.3,2c-0.2,0.6-0.5,1.1-1,1.5c-0.4,0.4-0.9,0.5-1.5,0.5l0,0c-0.8,0-1.4-0.2-2-0.7c-0.5-0.5-0.9-1.1-1.2-2
				c-0.3-0.8-0.4-1.7-0.4-2.6l0,0c0-0.7,0.1-1.4,0.3-2c0.2-0.6,0.6-1.1,1-1.5C244.4,49.2,245,49.1,245.6,49.1L245.6,49.1z M253,59.1
				h4.5l0.1-0.7l-1.8-0.4l2.6-3.4l2.4,3.5l-1.6,0.4l-0.2,0.6h5l0.1-0.6l-1.4-0.4l-3.3-4.7l3.1-4l1.3-0.4l0.1-0.7h-4.3l-0.2,0.7
				l1.7,0.4l-2.5,3.2l-2.3-3.2l1.4-0.4l0.1-0.7h-4.9l-0.1,0.7l1.5,0.4l3.1,4.4l-3.3,4.3l-1.3,0.4L253,59.1z M271.5,44.3l2.3,0.5
				v13.1l-2.1,0.5l-0.1,0.7h5.6l0.1-0.8l-2.3-0.3V46.1l8.9,13.3l1.3-0.3V44.7l2.1-0.4l0.1-0.7h-5.6l-0.1,0.7l2.3,0.4v11.6l-8.3-12.7
				h-4.1L271.5,44.3z M294.1,59.5c0.8,0,1.5-0.2,2.2-0.5c0.7-0.3,1.2-0.7,1.7-1.2l0,0l-0.2-0.5c-0.5,0.3-0.9,0.5-1.3,0.7
				c-0.4,0.1-0.9,0.2-1.4,0.2l0,0c-0.8,0-1.4-0.2-2-0.6c-0.5-0.4-0.9-1-1.2-1.7c-0.3-0.7-0.4-1.4-0.4-2.3l0,0l6-0.1
				c0.1-0.2,0.1-0.5,0.1-0.8c0-0.3,0.1-0.6,0.1-0.8l0,0c0-1.3-0.3-2.2-0.8-2.8c-0.6-0.6-1.3-0.9-2.3-0.9l0,0c-0.8,0-1.6,0.2-2.4,0.7
				c-0.7,0.5-1.4,1.1-1.8,2c-0.5,0.9-0.7,1.9-0.7,3.1l0,0c0,1.2,0.2,2.2,0.6,3.1c0.4,0.8,0.9,1.5,1.6,1.9
				C292.5,59.3,293.3,59.5,294.1,59.5L294.1,59.5z M293.9,49c0.6,0,1.1,0.2,1.4,0.7c0.4,0.5,0.5,1.1,0.5,1.8l0,0c0,0.5,0,0.8-0.1,1
				l0,0l-4.4,0.3c0-0.8,0.1-1.5,0.4-2.1c0.2-0.6,0.5-1,0.9-1.3C293,49.2,293.5,49,293.9,49L293.9,49z M304.6,59.5
				c0.8,0,1.5-0.2,2.2-0.5c0.7-0.3,1.2-0.7,1.7-1.2l0,0l-0.2-0.5c-0.5,0.3-0.9,0.5-1.3,0.7c-0.4,0.1-0.9,0.2-1.4,0.2l0,0
				c-0.8,0-1.4-0.2-2-0.6s-0.9-1-1.2-1.7c-0.3-0.7-0.4-1.4-0.4-2.3l0,0l6-0.1c0.1-0.2,0.1-0.5,0.1-0.8c0-0.3,0.1-0.6,0.1-0.8l0,0
				c0-1.3-0.3-2.2-0.8-2.8c-0.6-0.6-1.3-0.9-2.3-0.9l0,0c-0.8,0-1.6,0.2-2.4,0.7c-0.7,0.5-1.4,1.1-1.8,2c-0.5,0.9-0.7,1.9-0.7,3.1
				l0,0c0,1.2,0.2,2.2,0.6,3.1c0.4,0.8,0.9,1.5,1.6,1.9C303.1,59.3,303.8,59.5,304.6,59.5L304.6,59.5z M304.4,49
				c0.6,0,1.1,0.2,1.4,0.7c0.4,0.5,0.5,1.1,0.5,1.8l0,0c0,0.5,0,0.8-0.1,1l0,0l-4.4,0.3c0-0.8,0.1-1.5,0.4-2.1
				c0.2-0.6,0.5-1,0.9-1.3C303.6,49.2,304,49,304.4,49L304.4,49z M314.7,59.4c0.8,0,1.5-0.2,2.1-0.5c0.6-0.4,1.1-0.8,1.5-1.4l0,0
				h0.1v0.1c0,0.5,0.1,1,0.4,1.3c0.3,0.3,0.7,0.5,1.3,0.5l0,0c0.3,0,0.6,0,0.8-0.1c0.2,0,0.4-0.1,0.8-0.2l0,0l0.1-0.7l-0.7-0.2
				c-0.3-0.1-0.5-0.1-0.7-0.2c-0.2-0.1-0.3-0.3-0.4-0.5c-0.1-0.3-0.2-0.6-0.2-1.2l0,0V43.1l-0.2-0.2l-3.2,0.3l-0.1,0.7l1.9,0.5V47
				l0.2,1.6h-0.1c-0.2-0.2-0.5-0.3-1-0.4c-0.5-0.1-0.9-0.2-1.3-0.2l0,0c-0.9,0-1.7,0.3-2.6,0.8c-0.8,0.5-1.5,1.3-2,2.2
				c-0.5,0.9-0.8,2-0.8,3.2l0,0c0,1.1,0.2,2,0.5,2.8c0.3,0.8,0.8,1.4,1.4,1.8C313.2,59.2,313.9,59.4,314.7,59.4L314.7,59.4z
				 M315.4,49c0.5,0,1.1,0.1,1.6,0.4c0.5,0.3,1,0.7,1.3,1.1l0,0v6.1c-0.3,0.4-0.7,0.7-1.2,1c-0.5,0.3-1.1,0.4-1.6,0.4l0,0
				c-1,0-1.7-0.4-2.2-1.2c-0.5-0.8-0.8-2-0.8-3.4l0,0c0-0.9,0.1-1.7,0.4-2.4c0.2-0.7,0.6-1.2,1-1.5C314.3,49.2,314.8,49,315.4,49
				L315.4,49z M327.3,59.5c0.6,0,1.2-0.1,1.8-0.4c0.6-0.3,1-0.6,1.4-1.1c0.3-0.5,0.5-1,0.5-1.6l0,0c0-0.5-0.1-1-0.4-1.4
				c-0.3-0.4-0.6-0.7-1-1c-0.4-0.3-0.9-0.6-1.5-1l0,0c-0.6-0.3-1-0.6-1.3-0.9s-0.6-0.5-0.8-0.8c-0.2-0.3-0.3-0.6-0.3-1l0,0
				c0-0.5,0.1-0.8,0.4-1.1c0.3-0.3,0.7-0.4,1.2-0.4l0,0c0.4,0,0.8,0.2,1.1,0.5c0.3,0.3,0.6,1,0.8,1.8l0,0l0.1,0.5
				c0.4,0,0.7-0.2,0.9-0.4c0.2-0.2,0.4-0.6,0.4-1l0,0c0-0.4-0.1-0.8-0.4-1.1c-0.2-0.3-0.6-0.6-1-0.8c-0.4-0.2-0.9-0.3-1.5-0.3l0,0
				c-0.7,0-1.4,0.2-1.9,0.5s-0.9,0.7-1.2,1.2c-0.3,0.5-0.4,1-0.4,1.5l0,0c0,0.5,0.1,1,0.4,1.5c0.3,0.4,0.6,0.8,1,1.1
				c0.4,0.3,0.9,0.6,1.6,1l0,0c0.5,0.3,0.9,0.6,1.2,0.8c0.3,0.2,0.5,0.4,0.7,0.7c0.2,0.3,0.3,0.5,0.3,0.9l0,0c0,0.4-0.2,0.8-0.5,1.1
				c-0.3,0.3-0.8,0.4-1.3,0.4l0,0c-0.7,0-1.2-0.2-1.6-0.7c-0.4-0.4-0.7-1.1-0.9-2.1l0,0c-0.4,0-0.7,0.2-0.9,0.4
				c-0.3,0.2-0.4,0.6-0.4,0.9l0,0c0,0.5,0.2,0.9,0.5,1.2c0.3,0.4,0.7,0.6,1.2,0.8C326.1,59.4,326.7,59.5,327.3,59.5L327.3,59.5z
				 M340.7,59.4c0.6,0,1.1-0.1,1.6-0.3c0.5-0.2,0.9-0.5,1.2-0.8c0.3-0.3,0.5-0.6,0.7-0.9l0,0h0.1v0.2c0,0.5,0.1,0.9,0.4,1.2
				c0.3,0.3,0.7,0.5,1.3,0.5l0,0c0.2,0,0.4,0,0.6,0c0.2,0,0.4-0.1,0.6-0.1l0,0l0.2-0.1l0.1-0.7l-0.7-0.1c-0.4-0.1-0.6-0.2-0.8-0.3
				c-0.2-0.2-0.3-0.4-0.3-0.6c-0.1-0.3-0.1-0.6-0.1-1l0,0v-4.4c0-1.3-0.2-2.3-0.7-2.9c-0.5-0.6-1.3-0.9-2.3-0.9l0,0
				c-0.6,0-1.2,0.1-1.8,0.4c-0.6,0.2-1.1,0.6-1.5,1c-0.4,0.4-0.6,0.8-0.6,1.2l0,0c0,0.4,0.1,0.7,0.4,0.9c0.3,0.2,0.6,0.2,1,0.2l0,0
				c0-0.7,0.1-1.2,0.2-1.6c0.1-0.4,0.3-0.7,0.5-0.9c0.2-0.2,0.5-0.3,1-0.3l0,0c0.9,0,1.5,0.3,1.8,0.9c0.4,0.6,0.6,1.5,0.6,2.6l0,0
				v0.8c-1.3,0.1-2.4,0.2-3.3,0.6c-0.9,0.3-1.5,0.8-2,1.3c-0.4,0.5-0.7,1.2-0.7,1.9l0,0c0,0.5,0.1,0.9,0.4,1.2
				c0.2,0.3,0.5,0.6,0.9,0.8C339.8,59.3,340.3,59.4,340.7,59.4L340.7,59.4z M344.1,54v2.8c-0.2,0.4-0.6,0.7-1,1
				c-0.5,0.3-1,0.4-1.5,0.4l0,0c-0.3,0-0.6-0.1-0.9-0.2c-0.3-0.1-0.4-0.3-0.6-0.6c-0.1-0.2-0.2-0.5-0.2-0.8l0,0
				C339.9,55.2,341.3,54.3,344.1,54L344.1,54z M354.3,44.3l2.3,0.4v13.2l-2.1,0.5l-0.1,0.7h6.2l0.2-0.8l-2.3-0.3v-6.2l8.4,0v6.2
				l-2.1,0.5l-0.1,0.7h6.2l0.1-0.8l-2.3-0.3V44.7l2.1-0.4l0.1-0.7h-6.2l-0.1,0.7l2.3,0.4v6h-8.4v-6l2.1-0.4l0.1-0.7h-6.2L354.3,44.3
				z M375.8,59.4c0.6,0,1.1-0.1,1.6-0.3c0.5-0.2,0.9-0.5,1.2-0.8c0.3-0.3,0.5-0.6,0.7-0.9l0,0h0.1v0.2c0,0.5,0.1,0.9,0.4,1.2
				c0.3,0.3,0.7,0.5,1.3,0.5l0,0c0.2,0,0.4,0,0.6,0s0.4-0.1,0.6-0.1l0,0l0.2-0.1l0.1-0.7l-0.7-0.1c-0.4-0.1-0.6-0.2-0.8-0.3
				s-0.3-0.4-0.4-0.6c-0.1-0.3-0.1-0.6-0.1-1l0,0v-4.4c0-1.3-0.2-2.3-0.7-2.9c-0.5-0.6-1.3-0.9-2.3-0.9l0,0c-0.6,0-1.2,0.1-1.8,0.4
				c-0.6,0.2-1.1,0.6-1.5,1c-0.4,0.4-0.6,0.8-0.6,1.2l0,0c0,0.4,0.1,0.7,0.4,0.9c0.3,0.2,0.6,0.2,1,0.2l0,0c0-0.7,0.1-1.2,0.2-1.6
				c0.1-0.4,0.2-0.7,0.5-0.9c0.2-0.2,0.5-0.3,1-0.3l0,0c0.9,0,1.5,0.3,1.8,0.9c0.4,0.6,0.6,1.5,0.6,2.6l0,0v0.8
				c-1.3,0.1-2.4,0.2-3.3,0.6c-0.9,0.3-1.5,0.8-2,1.3c-0.4,0.5-0.6,1.2-0.6,1.9l0,0c0,0.5,0.1,0.9,0.4,1.2c0.2,0.3,0.6,0.6,0.9,0.8
				S375.3,59.4,375.8,59.4L375.8,59.4z M379.1,54v2.8c-0.2,0.4-0.6,0.7-1,1c-0.5,0.3-1,0.4-1.5,0.4l0,0c-0.3,0-0.6-0.1-0.9-0.2
				c-0.2-0.1-0.4-0.3-0.6-0.6c-0.1-0.2-0.2-0.5-0.2-0.8l0,0C375,55.2,376.3,54.3,379.1,54L379.1,54z M389.7,59.1l0.1-0.7l-1.8-0.4
				v-7.2c0.3-0.4,0.8-0.8,1.3-1c0.5-0.3,1-0.4,1.6-0.4l0,0c0.7,0,1.2,0.2,1.6,0.7c0.4,0.5,0.6,1.1,0.6,1.9l0,0V58l-1.6,0.4l-0.1,0.7
				h4.9l0.1-0.7l-1.7-0.4v-7.1c0.4-0.4,0.8-0.8,1.3-1.1c0.5-0.3,1-0.4,1.5-0.4l0,0c0.7,0,1.2,0.2,1.6,0.7s0.6,1.1,0.6,1.9l0,0V58
				l-1.6,0.4l-0.1,0.6h4.9l0.2-0.7l-1.8-0.3v-6.3c0-1.1-0.2-2-0.7-2.6c-0.5-0.6-1.2-0.9-2.2-0.9l0,0c-0.7,0-1.4,0.2-2.1,0.6
				c-0.7,0.4-1.2,0.9-1.6,1.4l0,0h-0.1c-0.1-0.7-0.5-1.2-0.9-1.5c-0.5-0.4-1.1-0.5-1.7-0.5l0,0c-0.7,0-1.4,0.2-2.1,0.6
				c-0.7,0.4-1.2,0.9-1.7,1.4l0,0h-0.1l0.1-1.7l-0.1-0.2l-3.3,0.4l-0.1,0.6l2,0.5V58l-1.9,0.4l-0.1,0.7H389.7z M410.6,59.1l0.1-0.7
				L409,58v-7.2c0.3-0.4,0.8-0.8,1.3-1c0.5-0.3,1-0.4,1.6-0.4l0,0c0.7,0,1.2,0.2,1.6,0.7c0.4,0.5,0.6,1.1,0.6,1.9l0,0V58l-1.7,0.4
				l-0.1,0.7h5l0.1-0.7l-1.7-0.4v-7.1c0.4-0.4,0.8-0.8,1.3-1.1c0.5-0.3,1-0.4,1.5-0.4l0,0c0.7,0,1.2,0.2,1.6,0.7s0.6,1.1,0.6,1.9
				l0,0V58l-1.6,0.4l-0.1,0.6h4.9l0.2-0.7l-1.8-0.3v-6.3c0-1.1-0.2-2-0.7-2.6c-0.5-0.6-1.2-0.9-2.2-0.9l0,0c-0.7,0-1.4,0.2-2.1,0.6
				c-0.7,0.4-1.2,0.9-1.6,1.4l0,0h-0.1c-0.1-0.7-0.5-1.2-0.9-1.5s-1-0.5-1.7-0.5l0,0c-0.7,0-1.4,0.2-2.1,0.6
				c-0.7,0.4-1.2,0.9-1.7,1.4l0,0h-0.1l0.1-1.7l-0.2-0.2l-3.3,0.4l-0.1,0.6l2,0.5V58l-1.9,0.4l-0.1,0.7H410.6z M430.7,59.5
				c0.8,0,1.5-0.2,2.2-0.5c0.7-0.3,1.2-0.7,1.7-1.2l0,0l-0.2-0.5c-0.5,0.3-0.9,0.5-1.3,0.7c-0.4,0.1-0.9,0.2-1.4,0.2l0,0
				c-0.8,0-1.4-0.2-2-0.6s-0.9-1-1.2-1.7c-0.3-0.7-0.4-1.4-0.4-2.3l0,0l6-0.1c0.1-0.2,0.1-0.5,0.1-0.8c0-0.3,0.1-0.6,0.1-0.8l0,0
				c0-1.3-0.3-2.2-0.8-2.8c-0.6-0.6-1.3-0.9-2.3-0.9l0,0c-0.8,0-1.6,0.2-2.4,0.7s-1.4,1.1-1.8,2c-0.5,0.9-0.7,1.9-0.7,3.1l0,0
				c0,1.2,0.2,2.2,0.6,3.1c0.4,0.8,0.9,1.5,1.6,1.9C429.2,59.3,429.9,59.5,430.7,59.5L430.7,59.5z M430.5,49c0.6,0,1.1,0.2,1.4,0.7
				c0.4,0.5,0.5,1.1,0.5,1.8l0,0c0,0.5,0,0.8-0.1,1l0,0l-4.4,0.3c0-0.8,0.1-1.5,0.4-2.1c0.2-0.6,0.5-1,0.9-1.3
				C429.7,49.2,430.1,49,430.5,49L430.5,49z M443.1,59.1l0.1-0.8l-2.9-0.3v-4.7c0.1-0.7,0.2-1.3,0.5-1.8c0.2-0.6,0.5-1,0.8-1.3
				c0.3-0.3,0.6-0.5,1-0.5l0,0c0.5,0,0.9,0.2,1.3,0.6l0,0c0.2-0.2,0.4-0.4,0.6-0.6c0.1-0.2,0.2-0.4,0.2-0.6l0,0
				c0-0.3-0.1-0.6-0.4-0.8c-0.2-0.2-0.6-0.4-1-0.4l0,0c-0.4,0-0.8,0.1-1.2,0.4c-0.4,0.3-0.7,0.7-1,1.2c-0.3,0.5-0.6,1.1-0.8,1.8l0,0
				h-0.2l0.2-3.1l-0.2-0.2l-3.2,0.4l-0.1,0.6l2,0.5V58l-1.9,0.4l-0.1,0.6H443.1z"/>
		</g>
	</g>
	<g transform="rotate(0 0 0)">
		<g transform="matrix(1 0 0 1 0 0)">
			<path class="st0" d="M10.8,25.8L10.8,25.8c-0.5-0.7-1.2-1.7-2.1-3l0,0C2.9,22.2,0,21,0,19.2l0,0c0-0.4,0.2-0.8,0.6-1
				c0.4-0.3,1.1-0.4,2-0.4l0,0c2.2,0,4.4,1.4,6.6,4.2l0,0c2.2,0.2,4.7,0.3,7.5,0.3l0,0h0.4c2.8-1.7,5.5-3.4,7.9-5.1l0,0
				c1-1.8,1.9-3.3,2.6-4.5c0.7-1.2,1.6-2.4,2.7-3.7l0,0C32.3,6.3,34.5,5,36.8,5l0,0c0.6,0,0.9,0.3,0.9,0.8l0,0c0,1.3-1.1,3-3.2,5
				c-2.1,2.1-4.9,4.3-8.5,6.7l0,0c-1.1,2-1.9,3.5-2.4,4.4l0,0c3.1-0.2,5.3-0.6,6.7-1.1l0,0h0.1c0.1,0,0.1,0.1,0.1,0.2
				s-0.1,0.3-0.2,0.5l0,0c-1.7,0.5-4,0.9-7.2,1.2l0,0c-1.2,2.1-2.4,3.7-3.5,4.8s-2.2,1.7-3.4,1.7l0,0c-1.8,0-3.5-1-5.1-3l0,0
				c-3.2,1.6-6,2.8-8.4,3.7l0,0c-0.3,0.1-0.7,0.2-1.1,0.2S1,29.9,1,29.6l0,0c0-0.2,0.1-0.3,0.3-0.5C1.4,29,1.7,28.9,2,28.9l0,0
				C3.7,28.9,6.7,27.8,10.8,25.8z M17.1,23.1L17.1,23.1c-1.7,1-3.3,1.8-5,2.7l0,0c1.5,1.8,2.8,2.8,4,2.8l0,0c0.9,0,1.8-0.5,2.7-1.5
				c0.9-1,1.9-2.4,3-4.2l0,0C20.5,23,18.9,23.1,17.1,23.1z M35.8,5.8L35.8,5.8c-1.5,0-3.1,1-4.6,3.1l0,0c-1.3,1.7-2.7,4-4.2,6.8l0,0
				c2.8-2.1,5-3.9,6.7-5.6s2.5-3,2.5-3.9l0,0C36.2,5.9,36.1,5.8,35.8,5.8z M1.6,19L1.6,19c0,1.3,2.1,2.2,6.4,2.8l0,0
				c-1.7-2.3-3.5-3.5-5.2-3.5l0,0C2,18.3,1.6,18.6,1.6,19z M11.8,25.3L11.8,25.3c1.4-0.7,2.7-1.5,4-2.2l0,0h-0.1
				c-1.9,0-3.8-0.1-5.6-0.2l0,0C10.8,24.1,11.4,24.9,11.8,25.3z M24.1,18.8L24.1,18.8c-1.2,0.8-3.1,1.9-5.6,3.5l0,0
				c1.7,0,3-0.1,3.8-0.2l0,0C22.7,21.4,23.3,20.3,24.1,18.8z M39.4,24.2l0.8-0.7c0.2-0.1,0.3-0.2,0.4-0.2s0.2,0.1,0.2,0.2l0,0v0.1
				c-2.3,1.9-4,3.2-5.2,4l0,0c-1.5,1.2-2.9,1.8-3.9,1.8l0,0c-0.9,0-1.4-0.6-1.4-1.7l0,0c0-1.5,1-3.7,2.9-6.6
				c1.9-2.9,4.1-5.5,6.5-7.9s4.2-3.5,5.4-3.5l0,0c0.6,0,0.8,0.2,0.8,0.7l0,0c0,1.2-1.5,3.2-4.4,6c-2.9,2.8-5.8,5.2-8.6,7.2l0,0
				c-0.8,1.6-1.2,2.8-1.2,3.6c0,0.8,0.3,1.2,0.9,1.2c0.6,0,1.3-0.3,2.3-1l0,0C36.4,26.6,37.9,25.5,39.4,24.2L39.4,24.2z M44.2,10.9
				L44.2,10.9c-0.9,0-2.6,1.3-4.9,4c-2.4,2.7-4.3,5.4-5.9,8l0,0c2.5-1.8,5-4,7.5-6.7c2.4-2.6,3.7-4.3,3.7-5.1l0,0
				C44.5,11,44.4,10.9,44.2,10.9z M44.4,26.2L44.4,26.2c1.2,0,2.7-0.7,4.4-2.1l0,0l0.6,0.2c-2.2,1.8-4,2.7-5.6,2.7l0,0
				c-0.2,0-0.3,0-0.4,0l0,0c-0.6,0.7-1.3,1.3-2,1.8s-1.3,0.7-1.9,0.7l0,0c-0.8,0-1.3-0.5-1.3-1.4c0-0.9,0.8-2.2,2.4-3.8l0,0
				c-0.3-0.6-0.4-1.3-0.4-2c0-0.7,0.3-1.3,0.8-1.7s1.1-0.7,1.8-0.7c0.7,0,1.2,0.2,1.7,0.7c0.5,0.4,0.7,1.1,0.7,1.9l0,0
				c0,1.3-0.4,2.5-1.2,3.8l0,0C44.1,26.2,44.3,26.2,44.4,26.2z M43.4,25.9L43.4,25.9c0.7-1.2,1-2.1,1-2.9s-0.2-1.4-0.6-1.8
				c-0.4-0.4-0.8-0.6-1.2-0.6l0,0c-0.8,0-1.2,0.4-1.2,1.2s0.2,1.6,0.5,2.4S42.8,25.5,43.4,25.9z M39.7,27.8L39.7,27.8
				c0,0.4,0.3,0.7,0.9,0.7s1.3-0.6,2.2-1.8l0,0c-0.6-0.3-1.1-0.9-1.6-1.6l0,0C40.2,26.2,39.7,27.1,39.7,27.8z M59.2,24.7L59.2,24.7
				L59,23.6c0-0.2,0-0.3,0.1-0.5s0.2-0.2,0.4-0.2c0.2,0,0.4,0.1,0.5,0.4c0.1,0.3,0.2,0.6,0.2,0.9l0,0c0,1.1-0.6,2.3-1.9,3.5
				s-2.5,1.8-3.9,1.8l0,0c-0.3,0-0.6-0.1-0.7-0.3c-0.2-0.2-0.3-0.4-0.3-0.7c0-0.3,0.1-0.7,0.4-1.3c0.3-0.6,0.4-0.9,0.4-1.1
				c0-0.1,0-0.2-0.1-0.2c-0.1,0-0.1,0-0.2,0.1l0,0c-2.2,1.9-3.8,2.8-4.9,2.8l0,0c-0.6,0-0.9-0.3-0.9-0.8l0,0c0-0.8,0.6-2,1.9-3.5
				c1.3-1.5,2.1-2.3,2.7-2.3l0,0c0.3,0,0.5,0.1,0.5,0.2c0,0.1-0.2,0.4-0.6,0.8c-0.4,0.4-1,1.1-1.9,2.1c-0.8,1-1.2,1.8-1.2,2.2l0,0
				c0,0.3,0.2,0.4,0.7,0.4s1.4-0.6,2.9-1.8c1.5-1.2,2.7-2.3,3.7-3.3l0,0c0.4-0.4,0.7-0.5,0.9-0.5c0.3,0,0.4,0.1,0.4,0.2
				s0,0.3-0.1,0.5c-0.1,0.2-0.4,0.6-1,1.2l0,0c-1.4,1.7-2.2,3.1-2.2,4.1l0,0c0,0.3,0.1,0.4,0.3,0.4l0,0c0.8,0,1.7-0.4,2.6-1.3
				C58.8,26.7,59.2,25.7,59.2,24.7z M103.6,4.7L103.6,4.7c0,1-0.9,2.2-2.8,3.8C99,10.1,96.4,12,93,14.3l0,0
				c-2.1,2.8-3.8,5.4-5.2,7.9s-2.1,4.3-2.1,5.2c0,1,0.3,1.5,0.8,1.5l0,0c0.4,0,0.9-0.2,1.6-0.6c0.7-0.4,1.3-0.8,1.8-1.3l0,0l0.7-0.6
				c0.1-0.2,0.3-0.2,0.4-0.2c0.1,0,0.2,0,0.2,0.1l0,0c0,0.6-0.7,1.3-2.1,2.1c-1.4,0.8-2.5,1.3-3.2,1.3l0,0c-1.3,0-2-0.5-2-1.6
				s0.5-2.6,1.6-4.7c1.1-2.1,2.4-4.4,4.1-6.8l0,0c-3.7,2.4-6.4,4.2-8.2,5.4l0,0c-2.3,3.2-4.7,6-7,8.3c-2.3,2.4-4,3.5-4.9,3.5l0,0
				c-0.5,0-0.8-0.2-0.8-0.6l0,0c0-1.2,0.9-2.8,2.8-4.5c1.9-1.8,4.5-3.9,7.9-6.2l0,0c2.1-3,3.8-5.8,5.2-8.4s2.1-4.6,2.1-5.8l0,0
				c0-1.4-0.7-2.2-2.1-2.6l0,0c-1.1-0.3-2.2-0.4-3.4-0.4c-1.2,0-2.1,0-2.8,0.1c-0.7,0.1-1.5,0.2-2.3,0.4c-0.8,0.2-1.5,0.5-2,0.9
				c-0.5,0.4-0.8,0.9-0.8,1.5l0,0c0,0.7,0.6,1.2,1.8,1.6c1.2,0.4,2.6,0.8,4,1.2c1.5,0.4,2.5,0.9,2.9,1.5l0,0
				c0.2,0.2,0.3,0.6,0.4,1.1l0,0c0,0.2,0,0.2-0.1,0.2s-0.2-0.1-0.3-0.2l0,0c-0.2-0.5-0.8-0.9-1.9-1.2c-1.1-0.4-2.2-0.7-3.4-0.9
				c-1.2-0.2-2.2-0.6-3.2-1c-0.9-0.5-1.4-1.1-1.4-1.8c0-0.7,0.2-1.3,0.7-1.8c0.5-0.5,1-0.9,1.6-1.2c0.6-0.3,1.4-0.5,2.4-0.6l0,0
				C78.3,4.9,80,4.8,82,4.8s3.5,0.3,4.6,1c1.1,0.6,1.6,1.5,1.6,2.7l0,0c0,2.5-2,6.5-5.9,12.1l0,0c1.1-0.7,2.6-1.7,4.5-3
				s3.2-2.1,3.8-2.5l0,0c2.3-3.1,4.6-5.7,6.9-7.8c2.3-2.1,4.1-3.2,5.6-3.2l0,0C103.4,4.2,103.6,4.4,103.6,4.7z M69.8,33.1L69.8,33.1
				c0.6,0,1.7-0.9,3.3-2.6c1.6-1.7,3.3-3.9,5.2-6.5l0,0c-5.9,4.1-8.8,7.1-8.8,8.8l0,0C69.6,33,69.7,33.1,69.8,33.1z M102.2,4.9
				L102.2,4.9c-0.6,0-1.7,0.7-3.1,2.2c-1.5,1.4-3.1,3.3-4.8,5.6l0,0c5.4-3.7,8.2-6.2,8.2-7.6l0,0C102.4,5,102.3,4.9,102.2,4.9z
				 M100.4,25.1L100.4,25.1c-0.1,0-0.2,0-0.2-0.1s0.1-0.2,0.2-0.3l0,0c0.7-0.6,1.1-1.1,1.1-1.6l0,0c0-0.3-0.3-0.5-0.8-0.5l0,0
				c-1,0-2.2,0.7-3.6,2.2C95.7,26,95,27,95,27.7l0,0c0,0.2,0.1,0.4,0.4,0.4s0.6-0.2,1.1-0.6l0,0c0.4-0.3,1.2-0.9,2.4-2l0,0
				c0.3-0.3,0.5-0.4,0.8-0.4l0,0c0.3,0,0.5,0.1,0.5,0.4l0,0c0,0.1,0,0.2-0.1,0.3c-0.1,0.1-0.2,0.2-0.4,0.4c-0.2,0.2-0.3,0.4-0.5,0.6
				l0,0c-0.4,0.6-0.6,1-0.6,1.1l0,0c0,0.4,0.2,0.7,0.5,0.7l0,0c0.5,0,1.3-0.4,2.6-1.3c1.3-0.9,2.5-1.7,3.5-2.6l0,0l1.6-1.3
				c0.2-0.1,0.3-0.2,0.4-0.2c0.1,0,0.2,0.1,0.2,0.2l0,0v0.1c-1.7,1.4-3.5,2.8-5.4,4c-1.9,1.3-3.1,1.9-3.7,1.9l0,0
				c-0.7,0-1.1-0.4-1.1-1.1l0,0c0-0.2,0-0.3,0.1-0.5c0.1-0.2,0.1-0.3,0.1-0.3c0-0.1,0-0.1-0.1-0.1l0,0c-0.1,0-0.5,0.3-1.3,0.9
				c-0.8,0.6-1.5,0.9-2.1,0.9c-0.6,0-0.9-0.3-0.9-0.9c0-0.6,0.4-1.5,1.2-2.5c0.8-1.1,1.9-2,3.3-2.9c1.4-0.9,2.8-1.3,4.1-1.3l0,0
				c0.3,0,0.6,0.1,0.8,0.2c0.2,0.2,0.3,0.4,0.3,0.7s-0.3,0.8-1,1.4C101.4,24.7,100.8,25.1,100.4,25.1z M122,23.5L122,23.5
				c-4.7,4-7.6,5.9-8.7,5.9l0,0c-0.6,0-1-0.3-1-0.8s0.2-1.2,0.7-1.9s1-1.4,1.4-1.9c0.5-0.6,0.7-0.9,0.7-1c0-0.1,0-0.2-0.1-0.2l0,0
				c-2.1,1.4-3.3,2.2-3.7,2.5s-1,0.8-1.9,1.5c-0.9,0.7-1.4,1.2-1.7,1.3s-0.6,0.3-0.9,0.3l0,0c-0.3,0-0.5-0.1-0.5-0.4l0,0
				c0-0.3,0.6-1.3,1.9-2.9l0,0c1.2-1.6,1.8-2.6,1.8-2.8l0,0c0,0,0-0.1-0.1-0.1c-0.1,0-1,0.7-2.9,2l0,0l-0.1-0.5
				c1.6-1.3,2.6-2.1,3.2-2.4c0.6-0.4,1-0.5,1.3-0.5c0.3,0,0.5,0.2,0.5,0.5l0,0c0,0.2-0.6,1.1-1.9,2.7c-1.3,1.6-1.9,2.4-1.9,2.6
				c0,0.1,0,0.2,0.1,0.2c0.1,0,1.3-0.9,3.8-2.7c2.4-1.8,3.9-2.7,4.5-2.7l0,0c0.2,0,0.3,0.1,0.4,0.2c0.1,0.1,0.2,0.2,0.2,0.3l0,0
				c0,0.3-0.6,1.1-1.8,2.6c-1.2,1.5-1.8,2.3-1.8,2.5c0,0.2,0.1,0.3,0.4,0.3c0.3,0,0.9-0.3,1.8-0.9l0,0c1.7-1.1,3.2-2.2,4.6-3.4l0,0
				l0.7-0.6c0.2-0.1,0.3-0.2,0.4-0.2C122,23.3,122,23.4,122,23.5L122,23.5z M125.4,24.3L125.4,24.3l1.1-1.6c-0.1,0-0.1,0-0.2,0l0,0
				c-0.9,0-2.1,0.7-3.7,2.1c-1.5,1.4-2.3,2.4-2.3,3l0,0c0,0.2,0.1,0.2,0.3,0.2l0,0c0.6,0,1.4-0.5,2.5-1.4
				C124.3,25.6,125,24.9,125.4,24.3z M132.8,23.6L132.8,23.6c-4.6,3.8-7.4,5.6-8.4,5.6l0,0c-0.4,0-0.6-0.2-0.6-0.7s0.2-1.2,0.5-2.2
				l0,0c0,0,0,0-0.1,0l0,0c-2.5,2.1-4.2,3.2-5.1,3.2l0,0c-0.6,0-0.9-0.2-0.9-0.6l0,0c0-0.9,1-2.3,3-4.1c2-1.8,3.6-2.7,4.8-2.7l0,0
				c0.2,0,0.3,0.1,0.5,0.3l0,0c0.5-0.8,3.4-4.8,8.6-12.2l0,0c0.6-0.7,1-1,1.3-1c0.3,0,0.5,0.1,0.5,0.3l0,0c0,0.6-1.9,3.2-5.7,7.8
				l0,0c-1.4,1.8-2.7,3.6-3.9,5.5c-1.2,1.9-1.8,3.4-1.8,4.4l0,0c0,0.4,0.1,0.6,0.4,0.6l0,0c0.3,0,0.8-0.3,1.5-0.8l0,0
				c1.5-1.1,2.8-2.1,4-3l0,0l0.6-0.5c0.2-0.1,0.3-0.2,0.4-0.2S132.8,23.4,132.8,23.6L132.8,23.6z M147.7,23.8L147.7,23.8
				c1,0.8,2.5,1.2,4.5,1.2l0,0h0.1c1.2-2.3,2.4-4.4,3.6-6.4l0,0C152.6,20.6,149.8,22.3,147.7,23.8z M167.3,8.1L167.3,8.1
				c0-0.8-0.5-1.2-1.5-1.3l0,0c-1.9,2.2-4,5.2-6.4,8.8l0,0c2.6-1.5,4.6-2.9,5.9-4.1C166.7,10.3,167.3,9.2,167.3,8.1z M151.4,12.1
				c-1.5,1.4-2.8,2.9-3.7,4.4c-0.9,1.6-1.4,2.9-1.4,4s0.3,2,0.8,2.7l0,0c2.1-1.5,5.3-3.5,9.7-6l0,0c2.7-4.6,5.1-8,7.2-10.4l0,0
				c-2.3,0.2-4.6,0.7-6.8,1.7C154.9,9.5,153,10.7,151.4,12.1z M152,25.6L152,25.6h-0.7c-1.9,0-3.5-0.3-4.7-1l0,0
				c-5.7,4.2-8.5,8.3-8.5,12.3l0,0c0,2.5,0.9,3.7,2.6,3.7l0,0c0.8,0,1.6-0.4,2.5-1.3l0,0c0.5-0.5,0.9-0.9,1.3-1.3
				c0.4-0.4,0.9-1.1,1.4-1.9c0.6-0.9,1-1.6,1.4-2.2c0.4-0.6,0.9-1.5,1.5-2.6c0.7-1.2,1.2-2.1,1.5-2.7C150.7,28,151.3,27,152,25.6z
				 M168.1,8L168.1,8c0,1.3-0.8,2.7-2.5,4s-4,3-7.1,4.9l0,0c-1.7,2.8-3.3,5.4-4.7,7.8l0,0c2.1-0.3,4-1.1,5.4-2.4l0,0
				c0.1-0.1,0.2-0.1,0.3-0.1c0.1,0,0.2,0.1,0.2,0.2s-0.2,0.4-0.7,0.7s-1.2,0.8-2.3,1.2s-2.1,0.8-3.2,0.9l0,0
				c-3.5,6-5.9,9.8-7.3,11.5l0,0c-1.8,2.3-3.2,3.7-4.3,4.3l0,0c-0.7,0.4-1.3,0.5-1.9,0.5l0,0c-1,0-1.7-0.4-2.2-1.3s-0.8-1.8-0.8-2.9
				l0,0c0-4.6,3-9.2,8.9-13.6l0,0c-0.9-0.8-1.3-1.8-1.3-3.2c0-1.3,0.5-2.8,1.5-4.5s2.4-3.2,4.1-4.7c1.7-1.5,3.8-2.7,6.4-3.8
				c2.5-1,5.2-1.6,7.9-1.8l0,0c1-1.1,1.9-1.9,2.7-2.5l0,0c0.3-0.2,0.6-0.3,1-0.3s0.6,0.1,0.6,0.3l0,0c0,0.1-0.2,0.3-0.5,0.5
				c-0.3,0.2-0.5,0.4-0.7,0.5l0,0l-1.4,1.4c0.5,0.1,0.9,0.3,1.3,0.7C167.9,7.3,168.1,7.6,168.1,8z M163.2,28.6L163.2,28.6
				c0-0.3,0.2-0.8,0.5-1.3c0.3-0.5,0.5-0.8,0.5-0.9s0-0.1-0.1-0.1s-0.2,0.1-0.3,0.2c-0.1,0.1-0.8,0.6-2,1.4
				c-1.2,0.8-2.1,1.2-2.5,1.2l0,0c-0.3,0-0.5-0.2-0.5-0.6c0-0.4,0.6-1.4,1.9-3.1c1.2-1.7,2.1-2.5,2.6-2.5l0,0c0.1,0,0.2,0,0.3,0.1
				c0.1,0.1,0.1,0.2,0.1,0.2s-0.6,0.7-1.7,2c-1.1,1.3-1.7,2.1-1.7,2.5l0,0c0,0.1,0,0.1,0.1,0.1l0,0c0.4,0,1.3-0.6,2.7-1.7
				c1.4-1.1,2.4-2,3-2.6s1-0.9,1.4-0.9c0.3,0,0.5,0.1,0.5,0.4l0,0c0,0.2-0.1,0.4-0.2,0.5c-0.1,0.2-0.4,0.5-0.7,0.9
				c-0.4,0.5-0.7,0.9-1,1.3l0,0c-0.9,1.1-1.3,1.8-1.3,2.1c0,0.3,0.1,0.4,0.3,0.4c0.2,0,0.8-0.3,1.7-0.9l0,0c1.7-1.1,3.2-2.2,4.6-3.4
				l0,0l0.7-0.6c0.2-0.1,0.3-0.2,0.4-0.2s0.2,0.1,0.2,0.2l0,0v0.1c0.1,0-0.5,0.5-1.8,1.5c-1.3,1-2.6,1.9-4.1,2.9
				c-1.4,1-2.4,1.5-2.7,1.5l0,0C163.5,29.5,163.2,29.2,163.2,28.6z M179.4,24.3l0.9-0.7c0.2-0.1,0.3-0.2,0.4-0.2
				c0.1,0,0.2,0.1,0.2,0.2l0,0v0.1c-1.7,1.4-3.5,2.8-5.4,4c-1.9,1.3-3.1,1.9-3.6,1.9c-0.5,0-0.9-0.1-1.3-0.3
				c-0.3-0.2-0.5-0.4-0.5-0.6s0.1-0.4,0.2-0.6c0.1-0.2,0.3-0.2,0.4-0.2s0.3,0.2,0.5,0.5c0.3,0.3,0.5,0.5,0.7,0.5l0,0
				c0.5,0,0.9-0.5,1.2-1.6c0.3-1.1,0.4-1.8,0.4-2.2s0-0.6-0.1-0.6s-0.1,0-0.1,0.1l0,0l-1,0.8l-0.1-0.5c1.4-1.1,2.2-1.8,2.4-2.2l0,0
				c0.1-0.4,0.3-0.5,0.6-0.5l0,0c0.2,0,0.2,0.1,0.2,0.2s-0.1,0.3-0.2,0.7c-0.2,0.4-0.4,1.2-0.6,2.5c-0.3,1.3-0.4,2-0.4,2.2
				c0,0.2,0.1,0.3,0.2,0.3l0,0C176.1,26.9,177.7,25.7,179.4,24.3L179.4,24.3z M200,15L200,15l-4.7-0.2c-1.9,0-3.9,0.1-5.8,0.2l0,0
				l0.2,0.7c0,0.2-0.7,1.2-2.2,2.8c-1.4,1.6-2.9,3.4-4.3,5.2c-1.4,1.9-2.2,3.3-2.2,4.2l0,0c0,0.4,0.1,0.5,0.4,0.5s0.8-0.3,1.7-0.9
				l0,0c1.7-1.1,3.2-2.2,4.6-3.4l0,0l0.7-0.6c0.2-0.1,0.3-0.2,0.4-0.2s0.2,0.1,0.2,0.2l0,0v0.1c0.1,0-0.5,0.5-1.8,1.5
				c-1.3,1-2.6,1.9-4.1,2.9c-1.4,1-2.4,1.5-2.7,1.5l0,0c-0.6,0-1-0.3-1-0.9l0,0c0-0.8,0.5-2,1.4-3.5c0.9-1.5,2-2.9,3.1-4.2
				c1.1-1.3,2.2-2.6,3.2-3.7c1-1.2,1.6-1.9,1.6-2.2l0,0c-2.4,0.2-4.3,0.5-5.6,0.8l0,0l-0.7,0.1c-0.2,0-0.3,0.2-0.3,0.5l0,0
				c0,0.1-0.2,0.2-0.5,0.2c-0.3,0-0.7-0.1-1.1-0.2c-0.5-0.1-0.7-0.3-0.7-0.6c0-0.3,0.2-0.4,0.7-0.5l0,0c3.3-0.6,5.6-0.9,7-1
				c1.4-0.1,2.3-0.2,2.7-0.2c0.5,0,1.2-0.1,2.1-0.1s1.6,0,1.9,0l0,0c1,0,2.2-0.1,3.5-0.1c1.3,0,2.2,0.1,2.4,0.2
				c0.3,0.1,0.4,0.3,0.4,0.6l0,0C200.7,14.9,200.5,15,200,15z M193.6,19c0.2,0,0.4,0.1,0.5,0.2c0.1,0.1,0.2,0.3,0.2,0.6
				c0,0.2-0.2,0.6-0.5,0.9c-0.3,0.4-0.6,0.6-0.9,0.6s-0.4-0.1-0.5-0.2s-0.2-0.3-0.2-0.5c0-0.2,0.2-0.5,0.5-0.9
				C193.1,19.2,193.4,19,193.6,19z M195.6,24.1l0.7-0.6c0.2-0.1,0.3-0.2,0.4-0.2s0.1,0.1,0.1,0.2l0,0v0.1c0.1,0-0.5,0.5-1.8,1.5
				c-1.3,1-2.6,1.9-4.1,2.9c-1.4,1-2.4,1.5-2.7,1.5l0,0c-0.6,0-1-0.3-1-0.8l0,0c0-0.6,0.6-1.9,1.7-3.6c1.1-1.8,1.9-2.7,2.4-2.7l0,0
				c0.4,0,0.6,0.1,0.6,0.4s-0.5,1.1-1.5,2.4s-1.5,2.2-1.5,2.8l0,0c0,0.3,0.1,0.5,0.3,0.5c0.2,0,0.8-0.3,1.7-0.9l0,0
				C192.7,26.3,194.2,25.2,195.6,24.1L195.6,24.1z M205.1,24.2l0.8-0.7c0.2-0.1,0.3-0.2,0.4-0.2c0.1,0,0.2,0.1,0.2,0.2l0,0v0.1
				c-1.7,1.5-3.6,2.9-5.4,4.1c-1.9,1.2-3.4,1.8-4.6,1.8l0,0c-1,0-1.5-0.6-1.5-1.7s0.7-2.4,2.1-3.8c1.4-1.4,2.9-2.1,4.6-2.1l0,0
				c0.5,0,0.8,0.1,0.9,0.2c0.1,0.1,0.2,0.3,0.2,0.5c0,0.2-0.2,0.6-0.6,1.1c-0.4,0.5-0.8,0.8-1.1,0.8l0,0c-0.4-0.1-0.6-0.2-0.6-0.4
				l0,0c0-0.1,0.1-0.2,0.3-0.4l0,0c0.4-0.3,0.6-0.6,0.6-0.7c0-0.2-0.1-0.2-0.4-0.2l0,0c-0.8,0-1.7,0.7-2.9,1.9
				c-1.2,1.3-1.8,2.3-1.8,3.1l0,0c0,0.6,0.4,0.9,1.2,0.9s1.7-0.3,2.6-0.9l0,0C201.8,26.8,203.4,25.6,205.1,24.2L205.1,24.2z
				 M215.4,24.2l0.8-0.7c0.2-0.1,0.3-0.2,0.4-0.2c0.1,0,0.2,0.1,0.2,0.2l0,0v0.1c-2.3,1.9-4.2,3.3-5.7,4.3c-1.5,1-2.9,1.4-4.1,1.4
				l0,0c-1,0-1.5-0.5-1.5-1.5l0,0c0-1.4,0.7-2.9,2.2-4.4c1.5-1.5,2.7-2.3,3.7-2.3l0,0c0.6,0,0.8,0.3,0.8,0.9l0,0
				c-0.1,1.2-1.9,2.9-5.2,4.9l0,0v0.3c0,0.7,0.4,1.1,1.1,1.1c0.8,0,1.6-0.3,2.5-0.8l0,0C212.2,26.7,213.9,25.5,215.4,24.2
				L215.4,24.2z M210.4,22.2L210.4,22.2c-0.5,0-1.1,0.4-1.9,1.2c-0.8,0.8-1.3,1.7-1.5,2.8l0,0c1.1-0.6,2-1.3,2.7-2s1.1-1.2,1.1-1.5
				S210.7,22.2,210.4,22.2z M222.5,30.8L222.5,30.8c0-1.1,1-2.5,3-4.3c2-1.8,4-2.8,6.1-3.2l0,0c0.4-0.5,1.1-1.4,2.1-2.7
				s1.7-2.3,2.3-3l0,0c1.9-2.5,3.4-4.3,4.5-5.6l0,0c-4.5,1.2-9.1,1.8-13.8,1.8l0,0c-1,0-1.5-0.1-1.5-0.4l0,0c0-0.2,0.1-0.3,0.4-0.5
				c0.3-0.2,0.5-0.3,0.8-0.3l0,0c1.2,0.2,2.3,0.2,3.4,0.2l0,0c3.6,0,7.4-0.6,11.6-1.9l0,0c4-4.4,7.4-6.6,10.2-6.6l0,0
				c1.2,0,1.7,0.3,1.7,0.8l0,0c0,0.7-1,1.7-3.1,3c-2.1,1.2-4.7,2.3-7.8,3.3l0,0c-1.2,1.4-2.8,3.5-5,6.4c-2.2,2.9-3.5,4.7-4,5.3l0,0
				c2,0.1,3.8,0.8,5.3,2.1l0,0c0.6,0.5,1.2,1,1.8,1.5l0,0c1.4,1.2,2.9,1.8,4.5,1.8l0,0c0.8,0,1.6-0.2,2.5-0.7s1.4-0.7,1.5-0.7
				c0.1,0,0.2,0.1,0.2,0.2l0,0c0,0.4-0.6,0.8-1.7,1.3c-1.1,0.5-2.2,0.7-3.4,0.7s-2.1-0.2-3-0.5c-0.9-0.4-1.6-0.8-2.2-1.3
				c-0.6-0.5-1.2-1.1-1.7-1.6l0,0c-1.3-1.3-2.7-2-4.2-2.1l0,0c-2,2.5-3.7,4.4-5.2,5.8c-1.5,1.4-2.8,2.1-4,2.1l0,0
				C222.8,31.7,222.5,31.4,222.5,30.8z M223.8,30.8L223.8,30.8c0.8,0,1.7-0.6,2.9-1.8s2.6-2.9,4.3-5.1l0,0c-1.7,0.4-3.5,1.4-5.2,2.9
				s-2.6,2.7-2.6,3.5l0,0C223.2,30.6,223.4,30.8,223.8,30.8z M250.8,5L250.8,5c-2,0-4.5,1.8-7.7,5.3l0,0c2.5-0.8,4.6-1.7,6.3-2.7
				c1.7-1,2.5-1.7,2.5-2.2l0,0C252,5.2,251.6,5,250.8,5z M257.3,26.2L257.3,26.2c1.2,0,2.7-0.7,4.4-2.1l0,0l0.6,0.2
				c-2.2,1.8-4,2.7-5.6,2.7l0,0c-0.2,0-0.3,0-0.4,0l0,0c-0.6,0.7-1.3,1.3-2,1.8s-1.3,0.7-1.9,0.7l0,0c-0.8,0-1.3-0.5-1.3-1.4
				c0-0.9,0.8-2.2,2.4-3.8l0,0c-0.3-0.6-0.4-1.3-0.4-2c0-0.7,0.3-1.3,0.8-1.7c0.5-0.4,1.1-0.7,1.8-0.7c0.7,0,1.2,0.2,1.7,0.7
				c0.5,0.4,0.7,1.1,0.7,1.9l0,0c0,1.3-0.4,2.5-1.2,3.8l0,0C256.9,26.2,257.1,26.2,257.3,26.2z M256.2,25.9L256.2,25.9
				c0.7-1.2,1-2.1,1-2.9s-0.2-1.4-0.6-1.8c-0.4-0.4-0.8-0.6-1.2-0.6l0,0c-0.8,0-1.2,0.4-1.2,1.2s0.2,1.6,0.5,2.4
				C255.2,24.9,255.6,25.5,256.2,25.9z M252.5,27.8L252.5,27.8c0,0.4,0.3,0.7,0.9,0.7c0.6,0,1.3-0.6,2.2-1.8l0,0
				c-0.6-0.3-1.1-0.9-1.6-1.6l0,0C253,26.2,252.5,27.1,252.5,27.8z M273.1,24.2l0.8-0.7c0.2-0.1,0.3-0.2,0.4-0.2
				c0.1,0,0.2,0.1,0.2,0.2l0,0v0.1c-2.1,1.8-3.8,3.1-5,3.9l0,0l-6.6,4.3l-2.1,2.9c-3.2,4.4-4.8,6.7-4.8,7l0,0
				c-0.4,0.8-0.7,1.2-1,1.2l0,0c-0.4,0-0.6-0.3-0.6-0.8c0-0.6,0.3-1.3,0.8-2.2c0.5-0.9,1.1-1.7,1.6-2.3l0,0l3.2-3.3
				c0.3-0.4,0.8-1.2,1.6-2.3c0.8-1.1,1.4-1.9,1.6-2.3l0,0l1.4-2.1l0.1-0.1c0,0,0-0.1-0.1-0.1l0,0c-1.3,1.1-2.4,1.6-3.3,1.6
				c-0.9,0-1.3-0.2-1.3-0.7c0-0.5,0.3-1.2,1-2s1.5-1.6,2.4-2.4c0.9-0.8,2-1.4,3.1-2c1.1-0.6,2.1-0.8,3-0.8s1.3,0.3,1.3,0.9l0,0
				c0,0.4-0.4,1-1.2,1.6c-0.8,0.6-1.3,0.9-1.5,0.9c-0.2,0-0.3,0-0.3-0.1l0,0c0-0.1,0.1-0.3,0.3-0.4l0,0c0.8-0.5,1.1-1,1.1-1.5
				s-0.2-0.7-0.6-0.7l0,0c-1,0-2.3,0.8-4.1,2.5c-1.7,1.6-2.6,2.8-2.6,3.5l0,0c0,0.2,0.2,0.3,0.5,0.3c0.3,0,0.9-0.3,1.6-0.8
				c0.8-0.5,1.4-1,1.8-1.5l0,0l0.9-1.1c0.1-0.2,0.3-0.2,0.4-0.2c0.2,0,0.3,0.1,0.5,0.2c0.1,0.1,0.2,0.2,0.2,0.3l0,0l-4,5.6l4.9-3.1
				C270.2,26.5,271.7,25.4,273.1,24.2L273.1,24.2z M279,25.1L279,25.1c-0.1,0-0.2,0-0.2-0.1s0.1-0.2,0.2-0.3l0,0
				c0.7-0.6,1.1-1.1,1.1-1.6l0,0c0-0.3-0.3-0.5-0.8-0.5l0,0c-1,0-2.2,0.7-3.6,2.2c-1.4,1.4-2.1,2.5-2.1,3.2l0,0
				c0,0.2,0.1,0.4,0.4,0.4c0.3,0,0.6-0.2,1.1-0.6l0,0c0.4-0.3,1.2-0.9,2.4-2l0,0c0.3-0.3,0.5-0.4,0.8-0.4l0,0c0.3,0,0.5,0.1,0.5,0.4
				l0,0c0,0.1,0,0.2-0.1,0.3s-0.2,0.2-0.4,0.4c-0.2,0.2-0.3,0.4-0.5,0.6l0,0c-0.4,0.6-0.6,1-0.6,1.1l0,0c0,0.4,0.2,0.7,0.5,0.7l0,0
				c0.5,0,1.3-0.4,2.6-1.3c1.3-0.9,2.5-1.7,3.5-2.6l0,0l1.6-1.3c0.2-0.1,0.3-0.2,0.4-0.2s0.2,0.1,0.2,0.2l0,0v0.1
				c-1.7,1.4-3.5,2.8-5.4,4c-1.9,1.3-3.1,1.9-3.7,1.9l0,0c-0.7,0-1.1-0.4-1.1-1.1l0,0c0-0.2,0-0.3,0.1-0.5c0.1-0.2,0.1-0.3,0.1-0.3
				c0-0.1,0-0.1-0.1-0.1l0,0c-0.1,0-0.5,0.3-1.3,0.9c-0.8,0.6-1.5,0.9-2.1,0.9c-0.6,0-0.9-0.3-0.9-0.9c0-0.6,0.4-1.5,1.2-2.5
				c0.8-1.1,1.9-2,3.3-2.9s2.8-1.3,4.1-1.3l0,0c0.3,0,0.6,0.1,0.8,0.2c0.2,0.2,0.3,0.4,0.3,0.7s-0.3,0.8-1,1.4
				C280,24.7,279.4,25.1,279,25.1z M300.6,23.5L300.6,23.5c-4.7,4-7.6,5.9-8.7,5.9l0,0c-0.6,0-1-0.3-1-0.8s0.2-1.2,0.7-1.9
				c0.5-0.7,1-1.4,1.4-1.9c0.5-0.6,0.7-0.9,0.7-1c0-0.1,0-0.2-0.1-0.2l0,0c-2.1,1.4-3.3,2.2-3.7,2.5s-1,0.8-1.9,1.5
				c-0.9,0.7-1.4,1.2-1.7,1.3s-0.6,0.3-0.9,0.3l0,0c-0.3,0-0.5-0.1-0.5-0.4l0,0c0-0.3,0.6-1.3,1.9-2.9l0,0c1.2-1.6,1.8-2.6,1.8-2.8
				l0,0c0,0,0-0.1-0.1-0.1c-0.1,0-1,0.7-2.9,2l0,0l-0.1-0.5c1.6-1.3,2.6-2.1,3.2-2.4s1-0.5,1.3-0.5s0.5,0.2,0.5,0.5l0,0
				c0,0.2-0.6,1.1-1.9,2.7c-1.3,1.6-1.9,2.4-1.9,2.6c0,0.1,0,0.2,0.1,0.2s1.3-0.9,3.8-2.7c2.4-1.8,3.9-2.7,4.5-2.7l0,0
				c0.2,0,0.3,0.1,0.4,0.2c0.1,0.1,0.2,0.2,0.2,0.3l0,0c0,0.3-0.6,1.1-1.8,2.6c-1.2,1.5-1.8,2.3-1.8,2.5c0,0.2,0.1,0.3,0.4,0.3
				c0.3,0,0.9-0.3,1.8-0.9l0,0c1.7-1.1,3.2-2.2,4.6-3.4l0,0l0.7-0.6c0.2-0.1,0.3-0.2,0.4-0.2S300.6,23.4,300.6,23.5L300.6,23.5z
				 M339.9,4.7L339.9,4.7c0,1-0.9,2.2-2.8,3.8c-1.8,1.6-4.4,3.5-7.8,5.7l0,0c-2.1,2.8-3.8,5.4-5.2,7.9s-2.1,4.3-2.1,5.2
				c0,1,0.3,1.5,0.8,1.5l0,0c0.4,0,0.9-0.2,1.6-0.6s1.3-0.8,1.8-1.3l0,0l0.7-0.6c0.1-0.2,0.3-0.2,0.4-0.2c0.1,0,0.2,0,0.2,0.1l0,0
				c0,0.6-0.7,1.3-2.1,2.1c-1.4,0.8-2.5,1.3-3.2,1.3l0,0c-1.3,0-2-0.5-2-1.6s0.5-2.6,1.6-4.7s2.4-4.4,4.1-6.8l0,0
				c-3.7,2.4-6.4,4.2-8.2,5.4l0,0c-2.3,3.2-4.7,6-7,8.3c-2.3,2.4-4,3.5-4.9,3.5l0,0c-0.5,0-0.8-0.2-0.8-0.6l0,0
				c0-1.2,0.9-2.8,2.8-4.5c1.9-1.8,4.5-3.9,7.9-6.2l0,0c2.1-3,3.8-5.8,5.2-8.4c1.4-2.7,2.1-4.6,2.1-5.8l0,0c0-1.4-0.7-2.2-2.1-2.6
				l0,0c-1.1-0.3-2.2-0.4-3.4-0.4c-1.2,0-2.1,0-2.8,0.1c-0.7,0.1-1.5,0.2-2.3,0.4c-0.8,0.2-1.5,0.5-2,0.9c-0.5,0.4-0.8,0.9-0.8,1.5
				l0,0c0,0.7,0.6,1.2,1.8,1.6c1.2,0.4,2.6,0.8,4,1.2c1.5,0.4,2.5,0.9,2.9,1.5l0,0c0.2,0.2,0.3,0.6,0.4,1.1l0,0c0,0.2,0,0.2-0.1,0.2
				c-0.1,0-0.2-0.1-0.3-0.2l0,0c-0.2-0.5-0.8-0.9-1.9-1.2c-1.1-0.4-2.2-0.7-3.4-0.9c-1.2-0.2-2.2-0.6-3.2-1
				c-0.9-0.5-1.4-1.1-1.4-1.8c0-0.7,0.2-1.3,0.7-1.8c0.5-0.5,1-0.9,1.6-1.2c0.6-0.3,1.4-0.5,2.4-0.6l0,0c1.5-0.2,3.2-0.3,5.1-0.3
				c2,0,3.5,0.3,4.6,1c1.1,0.6,1.6,1.5,1.6,2.7l0,0c0,2.5-2,6.5-5.9,12.1l0,0c1.1-0.7,2.6-1.7,4.5-3c1.9-1.3,3.2-2.1,3.8-2.5l0,0
				c2.3-3.1,4.6-5.7,6.9-7.8c2.3-2.1,4.1-3.2,5.6-3.2l0,0C339.7,4.2,339.9,4.4,339.9,4.7z M306.1,33.1L306.1,33.1
				c0.6,0,1.7-0.9,3.3-2.6c1.6-1.7,3.3-3.9,5.2-6.5l0,0c-5.9,4.1-8.8,7.1-8.8,8.8l0,0C305.9,33,306,33.1,306.1,33.1z M338.5,4.9
				L338.5,4.9c-0.6,0-1.7,0.7-3.1,2.2c-1.5,1.4-3.1,3.3-4.8,5.6l0,0c5.4-3.7,8.2-6.2,8.2-7.6l0,0C338.7,5,338.6,4.9,338.5,4.9z
				 M335.8,26.2L335.8,26.2c1.2,0,2.7-0.7,4.4-2.1l0,0l0.6,0.2c-2.2,1.8-4,2.7-5.6,2.7l0,0c-0.2,0-0.3,0-0.4,0l0,0
				c-0.6,0.7-1.3,1.3-2,1.8s-1.3,0.7-1.9,0.7l0,0c-0.8,0-1.3-0.5-1.3-1.4c0-0.9,0.8-2.2,2.4-3.8l0,0c-0.3-0.6-0.4-1.3-0.4-2
				c0-0.7,0.3-1.3,0.8-1.7c0.5-0.4,1.1-0.7,1.8-0.7c0.7,0,1.2,0.2,1.7,0.7c0.5,0.4,0.7,1.1,0.7,1.9l0,0c0,1.3-0.4,2.5-1.2,3.8l0,0
				C335.5,26.2,335.6,26.2,335.8,26.2z M334.8,25.9L334.8,25.9c0.7-1.2,1-2.1,1-2.9s-0.2-1.4-0.6-1.8s-0.8-0.6-1.2-0.6l0,0
				c-0.8,0-1.2,0.4-1.2,1.2s0.2,1.6,0.5,2.4S334.2,25.5,334.8,25.9z M331.1,27.8L331.1,27.8c0,0.4,0.3,0.7,0.9,0.7
				c0.6,0,1.3-0.6,2.2-1.8l0,0c-0.6-0.3-1.1-0.9-1.6-1.6l0,0C331.6,26.2,331.1,27.1,331.1,27.8z M349.8,24.2l0.8-0.7
				c0.2-0.1,0.3-0.2,0.4-0.2s0.2,0.1,0.2,0.2l0,0v0.1c-2.3,1.9-4,3.2-5.2,4l0,0c-1.5,1.2-2.9,1.8-3.9,1.8l0,0
				c-0.9,0-1.4-0.6-1.4-1.7l0,0c0-1.5,1-3.7,2.9-6.6s4.1-5.5,6.5-7.9c2.4-2.3,4.2-3.5,5.4-3.5l0,0c0.6,0,0.8,0.2,0.8,0.7l0,0
				c0,1.2-1.5,3.2-4.4,6c-2.9,2.8-5.8,5.2-8.6,7.2l0,0c-0.8,1.6-1.2,2.8-1.2,3.6c0,0.8,0.3,1.2,0.9,1.2s1.3-0.3,2.3-1l0,0
				C346.8,26.6,348.3,25.5,349.8,24.2L349.8,24.2z M354.6,10.9L354.6,10.9c-0.9,0-2.6,1.3-4.9,4c-2.4,2.7-4.3,5.4-5.9,8l0,0
				c2.5-1.8,5-4,7.5-6.7c2.4-2.6,3.7-4.3,3.7-5.1l0,0C354.9,11,354.8,10.9,354.6,10.9z M359.5,24.2l0.8-0.7c0.2-0.1,0.3-0.2,0.4-0.2
				c0.1,0,0.2,0.1,0.2,0.2l0,0v0.1c-2.3,1.9-4,3.2-5.2,4l0,0c-1.5,1.2-2.9,1.8-3.9,1.8l0,0c-0.9,0-1.4-0.6-1.4-1.7l0,0
				c0-1.5,1-3.7,2.9-6.6c1.9-2.9,4.1-5.5,6.5-7.9c2.4-2.3,4.2-3.5,5.4-3.5l0,0c0.6,0,0.8,0.2,0.8,0.7l0,0c0,1.2-1.5,3.2-4.4,6
				c-2.9,2.8-5.8,5.2-8.6,7.2l0,0c-0.8,1.6-1.2,2.8-1.2,3.6c0,0.8,0.3,1.2,0.9,1.2s1.3-0.3,2.3-1l0,0
				C356.4,26.6,358,25.5,359.5,24.2L359.5,24.2z M364.3,10.9L364.3,10.9c-0.9,0-2.6,1.3-4.9,4s-4.3,5.4-5.9,8l0,0
				c2.5-1.8,5-4,7.5-6.7c2.4-2.6,3.7-4.3,3.7-5.1l0,0C364.6,11,364.5,10.9,364.3,10.9z M365.4,25.1L365.4,25.1c-0.1,0-0.2,0-0.2-0.1
				s0.1-0.2,0.2-0.3l0,0c0.7-0.6,1.1-1.1,1.1-1.6l0,0c0-0.3-0.3-0.5-0.8-0.5l0,0c-1,0-2.2,0.7-3.6,2.2c-1.4,1.4-2.1,2.5-2.1,3.2l0,0
				c0,0.2,0.1,0.4,0.4,0.4c0.3,0,0.6-0.2,1.1-0.6l0,0c0.4-0.3,1.2-0.9,2.4-2l0,0c0.3-0.3,0.5-0.4,0.8-0.4l0,0c0.3,0,0.5,0.1,0.5,0.4
				l0,0c0,0.1,0,0.2-0.1,0.3c-0.1,0.1-0.2,0.2-0.4,0.4c-0.2,0.2-0.3,0.4-0.5,0.6l0,0c-0.4,0.6-0.6,1-0.6,1.1l0,0
				c0,0.4,0.2,0.7,0.5,0.7l0,0c0.5,0,1.3-0.4,2.6-1.3s2.5-1.7,3.5-2.6l0,0l1.6-1.3c0.2-0.1,0.3-0.2,0.4-0.2c0.1,0,0.2,0.1,0.2,0.2
				l0,0v0.1c-1.7,1.4-3.5,2.8-5.4,4c-1.9,1.3-3.1,1.9-3.7,1.9l0,0c-0.7,0-1.1-0.4-1.1-1.1l0,0c0-0.2,0-0.3,0.1-0.5
				c0.1-0.2,0.1-0.3,0.1-0.3c0-0.1,0-0.1-0.1-0.1l0,0c-0.1,0-0.5,0.3-1.3,0.9c-0.8,0.6-1.5,0.9-2.1,0.9c-0.6,0-0.9-0.3-0.9-0.9
				c0-0.6,0.4-1.5,1.2-2.5c0.8-1.1,1.9-2,3.3-2.9c1.4-0.9,2.8-1.3,4.1-1.3l0,0c0.3,0,0.6,0.1,0.8,0.2s0.3,0.4,0.3,0.7
				s-0.3,0.8-1,1.4C366.4,24.7,365.9,25.1,365.4,25.1z M387,23.5L387,23.5c-4.7,4-7.6,5.9-8.7,5.9l0,0c-0.6,0-1-0.3-1-0.8
				c0-0.5,0.2-1.2,0.7-1.9c0.5-0.7,1-1.4,1.4-1.9c0.5-0.6,0.7-0.9,0.7-1c0-0.1,0-0.2-0.1-0.2l0,0c-2.1,1.4-3.3,2.2-3.7,2.5
				c-0.4,0.3-1,0.8-1.9,1.5c-0.9,0.7-1.4,1.2-1.7,1.3c-0.3,0.2-0.6,0.3-0.9,0.3l0,0c-0.3,0-0.5-0.1-0.5-0.4l0,0
				c0-0.3,0.6-1.3,1.9-2.9l0,0c1.2-1.6,1.8-2.6,1.8-2.8l0,0c0,0,0-0.1-0.1-0.1c-0.1,0-1,0.7-2.9,2l0,0l-0.1-0.5
				c1.6-1.3,2.6-2.1,3.2-2.4s1-0.5,1.3-0.5c0.3,0,0.5,0.2,0.5,0.5l0,0c0,0.2-0.6,1.1-1.9,2.7c-1.3,1.6-1.9,2.4-1.9,2.6
				c0,0.1,0,0.2,0.1,0.2s1.3-0.9,3.8-2.7c2.4-1.8,3.9-2.7,4.5-2.7l0,0c0.2,0,0.3,0.1,0.4,0.2c0.1,0.1,0.2,0.2,0.2,0.3l0,0
				c0,0.3-0.6,1.1-1.8,2.6c-1.2,1.5-1.8,2.3-1.8,2.5c0,0.2,0.1,0.3,0.4,0.3s0.9-0.3,1.8-0.9l0,0c1.7-1.1,3.2-2.2,4.6-3.4l0,0
				l0.7-0.6c0.2-0.1,0.3-0.2,0.4-0.2C387,23.3,387,23.4,387,23.5L387,23.5z M390.4,24.3L390.4,24.3l1.1-1.6c-0.1,0-0.1,0-0.2,0l0,0
				c-0.9,0-2.1,0.7-3.7,2.1s-2.3,2.4-2.3,3l0,0c0,0.2,0.1,0.2,0.3,0.2l0,0c0.6,0,1.4-0.5,2.5-1.4C389.3,25.6,390,24.9,390.4,24.3z
				 M397.8,23.6L397.8,23.6c-4.6,3.8-7.4,5.6-8.4,5.6l0,0c-0.4,0-0.6-0.2-0.6-0.7s0.2-1.2,0.5-2.2l0,0c0,0,0,0-0.1,0l0,0
				c-2.5,2.1-4.2,3.2-5.1,3.2l0,0c-0.6,0-0.9-0.2-0.9-0.6l0,0c0-0.9,1-2.3,3-4.1s3.6-2.7,4.8-2.7l0,0c0.2,0,0.3,0.1,0.5,0.3l0,0
				c0.5-0.8,3.4-4.8,8.6-12.2l0,0c0.6-0.7,1-1,1.3-1c0.3,0,0.5,0.1,0.5,0.3l0,0c0,0.6-1.9,3.2-5.7,7.8l0,0c-1.4,1.8-2.7,3.6-3.9,5.5
				c-1.2,1.9-1.8,3.4-1.8,4.4l0,0c0,0.4,0.1,0.6,0.4,0.6l0,0c0.3,0,0.8-0.3,1.5-0.8l0,0c1.5-1.1,2.8-2.1,4-3l0,0l0.6-0.5
				c0.2-0.1,0.3-0.2,0.4-0.2C397.8,23.4,397.8,23.4,397.8,23.6L397.8,23.6z M417.1,0L417.1,0c0.2,0,0.2,0.1,0.2,0.2
				c0,0.2,0,0.3,0,0.3l0,0c-0.7,3.5-2.2,8.6-4.4,15.2s-4.4,12.1-6.6,16.4l0,0c-0.2,0.2-0.5,0.3-0.7,0.3l0,0c-0.3,0-0.5-0.1-0.5-0.4
				l0,0c1.6-2.9,3.7-8.1,6.4-15.4s4.4-12.7,5-16l0,0c0-0.2,0.1-0.4,0.3-0.5l0,0C416.9,0,417,0,417.1,0z M424.6,30.8L424.6,30.8
				c0-1.1,1-2.5,3-4.3c2-1.8,4-2.8,6.1-3.2l0,0c0.4-0.5,1.1-1.4,2.1-2.7c1-1.3,1.7-2.3,2.3-3l0,0c1.9-2.5,3.4-4.3,4.5-5.6l0,0
				c-4.5,1.2-9.1,1.8-13.8,1.8l0,0c-1,0-1.5-0.1-1.5-0.4l0,0c0-0.2,0.1-0.3,0.4-0.5c0.3-0.2,0.5-0.3,0.8-0.3l0,0
				c1.2,0.2,2.3,0.2,3.4,0.2l0,0c3.6,0,7.4-0.6,11.6-1.9l0,0c4-4.4,7.4-6.6,10.2-6.6l0,0c1.2,0,1.7,0.3,1.7,0.8l0,0
				c0,0.7-1,1.7-3.1,3s-4.7,2.3-7.8,3.3l0,0c-1.2,1.4-2.8,3.5-5,6.4c-2.2,2.9-3.5,4.7-4,5.3l0,0c2,0.1,3.8,0.8,5.3,2.1l0,0
				c0.6,0.5,1.2,1,1.8,1.5l0,0c1.4,1.2,2.9,1.8,4.5,1.8l0,0c0.8,0,1.6-0.2,2.5-0.7c0.9-0.5,1.4-0.7,1.5-0.7s0.2,0.1,0.2,0.2l0,0
				c0,0.4-0.6,0.8-1.7,1.3c-1.1,0.5-2.2,0.7-3.4,0.7s-2.1-0.2-3-0.5c-0.9-0.4-1.6-0.8-2.2-1.3c-0.6-0.5-1.2-1.1-1.7-1.6l0,0
				c-1.3-1.3-2.7-2-4.2-2.1l0,0c-2,2.5-3.7,4.4-5.2,5.8c-1.5,1.4-2.8,2.1-4,2.1l0,0C425,31.7,424.6,31.4,424.6,30.8z M426,30.8
				L426,30.8c0.8,0,1.7-0.6,2.9-1.8c1.2-1.2,2.6-2.9,4.3-5.1l0,0c-1.7,0.4-3.5,1.4-5.2,2.9s-2.6,2.7-2.6,3.5l0,0
				C425.4,30.6,425.6,30.8,426,30.8z M453,5L453,5c-2,0-4.5,1.8-7.7,5.3l0,0c2.5-0.8,4.6-1.7,6.3-2.7c1.7-1,2.5-1.7,2.5-2.2l0,0
				C454.2,5.2,453.8,5,453,5z M463,24.2l0.8-0.7c0.2-0.1,0.3-0.2,0.4-0.2c0.1,0,0.2,0.1,0.2,0.2l0,0v0.1c-2.3,1.9-4.2,3.3-5.7,4.3
				c-1.5,1-2.9,1.4-4.1,1.4l0,0c-1,0-1.5-0.5-1.5-1.5l0,0c0-1.4,0.7-2.9,2.2-4.4c1.5-1.5,2.7-2.3,3.7-2.3l0,0c0.6,0,0.8,0.3,0.8,0.9
				l0,0c-0.1,1.2-1.9,2.9-5.2,4.9l0,0v0.3c0,0.7,0.4,1.1,1.1,1.1c0.8,0,1.6-0.3,2.5-0.8l0,0C459.8,26.7,461.4,25.5,463,24.2
				L463,24.2z M458,22.2L458,22.2c-0.5,0-1.1,0.4-1.9,1.2c-0.8,0.8-1.3,1.7-1.5,2.8l0,0c1.1-0.6,2-1.3,2.7-2
				c0.7-0.7,1.1-1.2,1.1-1.5S458.3,22.2,458,22.2z M468.9,25.1L468.9,25.1c-0.1,0-0.2,0-0.2-0.1s0.1-0.2,0.2-0.3l0,0
				c0.7-0.6,1.1-1.1,1.1-1.6l0,0c0-0.3-0.3-0.5-0.8-0.5l0,0c-1,0-2.2,0.7-3.6,2.2c-1.4,1.4-2.1,2.5-2.1,3.2l0,0
				c0,0.2,0.1,0.4,0.4,0.4c0.3,0,0.6-0.2,1.1-0.6l0,0c0.4-0.3,1.2-0.9,2.4-2l0,0c0.3-0.3,0.5-0.4,0.8-0.4l0,0c0.3,0,0.5,0.1,0.5,0.4
				l0,0c0,0.1,0,0.2-0.1,0.3c-0.1,0.1-0.2,0.2-0.4,0.4c-0.2,0.2-0.3,0.4-0.5,0.6l0,0c-0.4,0.6-0.6,1-0.6,1.1l0,0
				c0,0.4,0.2,0.7,0.5,0.7l0,0c0.5,0,1.3-0.4,2.6-1.3c1.3-0.9,2.5-1.7,3.5-2.6l0,0l1.6-1.3c0.2-0.1,0.3-0.2,0.4-0.2
				c0.1,0,0.2,0.1,0.2,0.2l0,0v0.1c-1.7,1.4-3.5,2.8-5.4,4c-1.9,1.3-3.1,1.9-3.7,1.9l0,0c-0.7,0-1.1-0.4-1.1-1.1l0,0
				c0-0.2,0-0.3,0.1-0.5c0.1-0.2,0.1-0.3,0.1-0.3c0-0.1,0-0.1-0.1-0.1l0,0c-0.1,0-0.5,0.3-1.3,0.9c-0.8,0.6-1.5,0.9-2.1,0.9
				s-0.9-0.3-0.9-0.9c0-0.6,0.4-1.5,1.2-2.5c0.8-1.1,1.9-2,3.3-2.9c1.4-0.9,2.8-1.3,4.1-1.3l0,0c0.3,0,0.6,0.1,0.8,0.2
				c0.2,0.2,0.3,0.4,0.3,0.7s-0.3,0.8-1,1.4C469.9,24.7,469.4,25.1,468.9,25.1z M479.5,24.3L479.5,24.3l1.1-1.6c-0.1,0-0.1,0-0.2,0
				l0,0c-0.9,0-2.1,0.7-3.7,2.1s-2.3,2.4-2.3,3l0,0c0,0.2,0.1,0.2,0.3,0.2l0,0c0.6,0,1.4-0.5,2.5-1.4
				C478.4,25.6,479.1,24.9,479.5,24.3z M486.9,23.6L486.9,23.6c-4.6,3.8-7.4,5.6-8.4,5.6l0,0c-0.4,0-0.6-0.2-0.6-0.7
				s0.2-1.2,0.5-2.2l0,0c0,0,0,0-0.1,0l0,0c-2.5,2.1-4.2,3.2-5.1,3.2l0,0c-0.6,0-0.9-0.2-0.9-0.6l0,0c0-0.9,1-2.3,3-4.1
				c2-1.8,3.6-2.7,4.8-2.7l0,0c0.2,0,0.3,0.1,0.5,0.3l0,0c0.5-0.8,3.4-4.8,8.6-12.2l0,0c0.6-0.7,1-1,1.3-1c0.3,0,0.5,0.1,0.5,0.3
				l0,0c0,0.6-1.9,3.2-5.7,7.8l0,0c-1.4,1.8-2.7,3.6-3.9,5.5c-1.2,1.9-1.8,3.4-1.8,4.4l0,0c0,0.4,0.1,0.6,0.4,0.6l0,0
				c0.3,0,0.8-0.3,1.5-0.8l0,0c1.5-1.1,2.8-2.1,4-3l0,0l0.6-0.5c0.2-0.1,0.3-0.2,0.4-0.2S486.9,23.4,486.9,23.6L486.9,23.6z
				 M494.6,26.2L494.6,26.2c0.7,0.6,1.8,0.9,3.2,0.9l0,0c0.6,0,1.3-0.1,2.1-0.2l0,0c0.8-0.9,2.3-3,4.7-6.4c2.3-3.4,4.1-5.6,5.4-6.8
				l0,0c0.1-0.1,0.1-0.2,0.1-0.3c0-0.1,0-0.2-0.1-0.2l0,0l-2.2,1.3c-1.5,0.9-3.3,1.8-5.4,2.7c-2.1,0.9-4,1.3-5.6,1.3l0,0
				c-2.4,0-3.7-0.8-3.7-2.3l0,0c0-0.9,0.4-2,1.3-3.2l0,0c-1.3-0.1-2-0.4-2-0.9l0,0c0-0.1,0-0.2,0.1-0.3c0.1-0.1,0.2-0.2,0.2-0.2
				s0.3,0.1,0.7,0.2c0.4,0.1,0.9,0.2,1.5,0.2l0,0c1.5-1.9,3.4-3.6,5.7-5.1c2.3-1.5,4.4-2.3,6.1-2.3l0,0c1,0,1.5,0.3,1.5,0.8l0,0
				c0,0.6-0.7,1.5-2.1,2.6c-1.4,1.1-3.1,2.1-5.1,3.1c-2,1-3.9,1.5-5.5,1.7l0,0c-0.5,0.8-0.7,1.6-0.7,2.2l0,0c0,1.4,1.2,2.1,3.6,2.1
				l0,0c1.3,0,3.2-0.5,5.7-1.6c2.4-1.1,4.9-2.6,7.4-4.5l0,0c3.4-2.7,5.4-4.3,5.8-4.8l0,0c0.1-0.2,0.3-0.3,0.4-0.3
				c0.1,0,0.3,0.1,0.4,0.2c0.1,0.1,0.2,0.2,0.2,0.4c0,0.1-0.1,0.2-0.2,0.3l0,0c-1.8,1.4-3.6,3.1-5.3,5c-1.8,1.9-3.2,3.6-4.3,5
				c-1.1,1.4-2.3,3.2-3.8,5.2c-1.5,2.1-2.5,3.5-3.1,4.3l0,0c1.4-0.4,2.8-0.8,4.1-1.4c1.3-0.6,2.1-1,2.4-1.3l0,0
				c0.2,0,0.3,0.1,0.3,0.4l0,0c0,0.3-0.8,0.8-2.4,1.5c-1.6,0.7-3.3,1.3-5.1,1.7l0,0c-2.2,2.7-4.1,4-5.7,4l0,0c-0.7,0-1.2-0.3-1.5-1
				s-0.5-1.4-0.5-2.3s0.1-1.5,0.2-2c0.1-0.5,0.3-0.7,0.5-0.7s0.3,0,0.4,0.1s0.1,0.2,0.1,0.3C494.6,26.1,494.6,26.2,494.6,26.2z
				 M505.3,5.9L505.3,5.9c-1.2,0-2.6,0.6-4.5,1.9c-1.8,1.3-3.3,2.7-4.4,4.2l0,0c2-0.3,4.1-1.1,6.5-2.5c2.3-1.4,3.5-2.4,3.5-3.1l0,0
				C506.4,6.1,506,5.9,505.3,5.9z M495.9,29.9L495.9,29.9c0.9,0,1.9-0.7,3.2-2l0,0c-0.8,0.1-1.7,0.2-2.7,0.2s-1.6-0.2-2.1-0.7l0,0
				c-0.2,0-0.3,0.2-0.3,0.5s0,0.6,0.1,0.9s0.2,0.5,0.5,0.7C494.9,29.8,495.3,29.9,495.9,29.9z M513.5,28.6L513.5,28.6
				c0-0.3,0.2-0.8,0.5-1.3c0.3-0.5,0.5-0.8,0.5-0.9c0-0.1,0-0.1-0.1-0.1c-0.1,0-0.2,0.1-0.3,0.2s-0.8,0.6-2,1.4
				c-1.2,0.8-2.1,1.2-2.5,1.2l0,0c-0.3,0-0.5-0.2-0.5-0.6s0.6-1.4,1.9-3.1c1.2-1.7,2.1-2.5,2.6-2.5l0,0c0.1,0,0.2,0,0.3,0.1
				c0.1,0.1,0.1,0.2,0.1,0.2s-0.6,0.7-1.7,2c-1.1,1.3-1.7,2.1-1.7,2.5l0,0c0,0.1,0,0.1,0.1,0.1l0,0c0.4,0,1.3-0.6,2.7-1.7
				s2.4-2,3-2.6s1-0.9,1.4-0.9c0.3,0,0.5,0.1,0.5,0.4l0,0c0,0.2-0.1,0.4-0.2,0.5c-0.1,0.2-0.4,0.5-0.7,0.9s-0.7,0.9-1,1.3l0,0
				c-0.9,1.1-1.3,1.8-1.3,2.1c0,0.3,0.1,0.4,0.3,0.4c0.2,0,0.8-0.3,1.7-0.9l0,0c1.7-1.1,3.2-2.2,4.6-3.4l0,0l0.7-0.6
				c0.2-0.1,0.3-0.2,0.4-0.2c0.1,0,0.2,0.1,0.2,0.2l0,0v0.1c0.1,0-0.5,0.5-1.8,1.5c-1.3,1-2.6,1.9-4.1,2.9c-1.4,1-2.4,1.5-2.7,1.5
				l0,0C513.9,29.5,513.5,29.2,513.5,28.6z M527.7,19c0.2,0,0.4,0.1,0.5,0.2s0.2,0.3,0.2,0.6c0,0.2-0.2,0.6-0.5,0.9
				c-0.3,0.4-0.6,0.6-0.9,0.6s-0.4-0.1-0.5-0.2s-0.2-0.3-0.2-0.5c0-0.2,0.2-0.5,0.5-0.9C527.2,19.2,527.5,19,527.7,19z M529.7,24.1
				l0.7-0.6c0.2-0.1,0.3-0.2,0.4-0.2c0.1,0,0.1,0.1,0.1,0.2l0,0v0.1c0.1,0-0.5,0.5-1.8,1.5c-1.3,1-2.6,1.9-4.1,2.9
				c-1.4,1-2.4,1.5-2.7,1.5l0,0c-0.6,0-1-0.3-1-0.8l0,0c0-0.6,0.6-1.9,1.7-3.6c1.1-1.8,1.9-2.7,2.4-2.7l0,0c0.4,0,0.6,0.1,0.6,0.4
				s-0.5,1.1-1.5,2.4c-1,1.3-1.5,2.2-1.5,2.8l0,0c0,0.3,0.1,0.5,0.3,0.5s0.8-0.3,1.7-0.9l0,0C526.8,26.3,528.3,25.2,529.7,24.1
				L529.7,24.1z M549.9,15L549.9,15l-4.7-0.2c-1.9,0-3.9,0.1-5.8,0.2l0,0l0.2,0.7c0,0.2-0.7,1.2-2.2,2.8s-2.9,3.4-4.3,5.2
				c-1.4,1.9-2.2,3.3-2.2,4.2l0,0c0,0.4,0.1,0.5,0.4,0.5c0.3,0,0.8-0.3,1.7-0.9l0,0c1.7-1.1,3.2-2.2,4.6-3.4l0,0l0.7-0.6
				c0.2-0.1,0.3-0.2,0.4-0.2c0.1,0,0.2,0.1,0.2,0.2l0,0v0.1c0.1,0-0.5,0.5-1.8,1.5c-1.3,1-2.6,1.9-4.1,2.9c-1.4,1-2.4,1.5-2.7,1.5
				l0,0c-0.6,0-1-0.3-1-0.9l0,0c0-0.8,0.5-2,1.4-3.5s2-2.9,3.1-4.2c1.1-1.3,2.2-2.6,3.2-3.7c1-1.2,1.6-1.9,1.6-2.2l0,0
				c-2.4,0.2-4.3,0.5-5.6,0.8l0,0l-0.7,0.1c-0.2,0-0.3,0.2-0.3,0.5l0,0c0,0.1-0.2,0.2-0.5,0.2c-0.3,0-0.7-0.1-1.1-0.2
				c-0.5-0.1-0.7-0.3-0.7-0.6c0-0.3,0.2-0.4,0.7-0.5l0,0c3.3-0.6,5.6-0.9,7-1c1.4-0.1,2.3-0.2,2.7-0.2c0.5,0,1.2-0.1,2.1-0.1
				c1,0,1.6,0,1.9,0l0,0c1,0,2.2-0.1,3.5-0.1c1.3,0,2.2,0.1,2.4,0.2c0.3,0.1,0.4,0.3,0.4,0.6l0,0C550.7,14.9,550.4,15,549.9,15z
				 M543.4,25.1L543.4,25.1c-0.1,0-0.2,0-0.2-0.1s0.1-0.2,0.2-0.3l0,0c0.7-0.6,1.1-1.1,1.1-1.6l0,0c0-0.3-0.3-0.5-0.8-0.5l0,0
				c-1,0-2.2,0.7-3.6,2.2c-1.4,1.4-2.1,2.5-2.1,3.2l0,0c0,0.2,0.1,0.4,0.4,0.4s0.6-0.2,1.1-0.6l0,0c0.4-0.3,1.2-0.9,2.4-2l0,0
				c0.3-0.3,0.5-0.4,0.8-0.4l0,0c0.3,0,0.5,0.1,0.5,0.4l0,0c0,0.1,0,0.2-0.1,0.3s-0.2,0.2-0.4,0.4c-0.2,0.2-0.3,0.4-0.5,0.6l0,0
				c-0.4,0.6-0.6,1-0.6,1.1l0,0c0,0.4,0.2,0.7,0.5,0.7l0,0c0.5,0,1.3-0.4,2.6-1.3s2.5-1.7,3.5-2.6l0,0l1.6-1.3
				c0.2-0.1,0.3-0.2,0.4-0.2c0.1,0,0.2,0.1,0.2,0.2l0,0v0.1c-1.7,1.4-3.5,2.8-5.4,4c-1.9,1.3-3.1,1.9-3.7,1.9l0,0
				c-0.7,0-1.1-0.4-1.1-1.1l0,0c0-0.2,0-0.3,0.1-0.5c0.1-0.2,0.1-0.3,0.1-0.3c0-0.1,0-0.1-0.1-0.1l0,0c-0.1,0-0.5,0.3-1.3,0.9
				c-0.8,0.6-1.5,0.9-2.1,0.9s-0.9-0.3-0.9-0.9c0-0.6,0.4-1.5,1.2-2.5c0.8-1.1,1.9-2,3.3-2.9c1.4-0.9,2.8-1.3,4.1-1.3l0,0
				c0.3,0,0.6,0.1,0.8,0.2c0.2,0.2,0.3,0.4,0.3,0.7s-0.3,0.8-1,1.4C544.4,24.7,543.8,25.1,543.4,25.1z M558.2,24.1l0.7-0.6
				c0.2-0.1,0.3-0.2,0.4-0.2s0.2,0.1,0.2,0.2l0,0v0.1c-1.7,1.3-3.3,2.6-4.9,3.7c-1.6,1.2-2.8,1.7-3.6,1.7l0,0
				c-0.6,0-0.8-0.3-0.8-0.9c0-0.6,0.3-1.2,0.8-1.8c0.5-0.6,1.1-1.1,1.6-1.6c0.5-0.4,0.8-0.7,0.8-0.9c0-0.1-0.1-0.3-0.2-0.5
				c-0.2-0.2-0.3-0.3-0.4-0.4l0,0c-0.4,0.4-1.2,1.1-2.5,2.1l0,0l-0.1-0.5c1.4-1.1,2.2-1.8,2.4-2.2l0,0v-0.3c0-0.6,0.1-0.9,0.2-1.1
				c0.1-0.2,0.4-0.5,0.8-0.8c0.4-0.4,0.7-0.5,0.9-0.5c0.2,0,0.3,0.1,0.4,0.2c0.1,0.1,0.2,0.2,0.2,0.3c0,0.1,0,0.2-0.1,0.4
				c-0.1,0.1-0.2,0.3-0.2,0.4c-0.1,0.1-0.2,0.2-0.3,0.4c-0.1,0.1-0.2,0.2-0.2,0.3s-0.1,0.1-0.1,0.3c0,0.1-0.1,0.2-0.2,0.3
				c-0.1,0.1-0.2,0.2-0.2,0.3c0,0.1,0.1,0.4,0.3,0.9c0.2,0.5,0.3,0.8,0.3,1c0,0.2-0.4,0.7-1.2,1.5c-0.8,0.8-1.2,1.4-1.2,1.9l0,0
				c0,0.3,0.1,0.4,0.4,0.4l0,0c0.3,0,0.9-0.3,1.7-0.8l0,0l0.4-0.3C555.6,26.1,557,25.1,558.2,24.1L558.2,24.1z"/>
		</g>
	</g>
</g>
</svg>
