<?xml version="1.0" encoding="utf-8"?>
<!-- Generator: Adobe Illustrator 24.2.1, SVG Export Plug-In . SVG Version: 6.00 Build 0)  -->
<svg version="1.1" id="Layer_1" xmlns="http://www.w3.org/2000/svg" xmlns:xlink="http://www.w3.org/1999/xlink" x="0px" y="0px"
	 viewBox="0 0 476 226.9" style="enable-background:new 0 0 476 226.9;" xml:space="preserve">
<style type="text/css">
	.st0{fill:#EFEFEF;}
	.st1{fill:#768CAA;}
	.st2{fill:#5F6984;}
</style>
<g>
	<g transform="rotate(0 0 206.2049)">
		<g transform="matrix(1 0 0 1 0 0)">
			<path class="st0" d="M2.2,220.6h9v1.9H0v-15.4h10.8v1.9H2.2v4.7h7.7v1.9H2.2V220.6z M23.3,210.9h2.1l-5.1,11.6h-2.2L13,210.9h2.2
				l4,9.3L23.3,210.9z M38.4,216.7c0,0.2,0,0.4,0,0.6l0,0h-9.4c0.1,1,0.6,1.8,1.3,2.5c0.8,0.6,1.7,0.9,2.9,0.9l0,0
				c1.4,0,2.5-0.5,3.4-1.4l0,0l1.2,1.4c-0.5,0.6-1.2,1.1-2,1.4c-0.8,0.3-1.7,0.5-2.6,0.5l0,0c-1.2,0-2.3-0.3-3.3-0.8
				c-1-0.5-1.7-1.2-2.2-2.1c-0.5-0.9-0.8-1.9-0.8-3.1l0,0c0-1.1,0.3-2.1,0.8-3.1s1.2-1.6,2.1-2.1c0.9-0.5,1.9-0.8,3-0.8l0,0
				c1.1,0,2.1,0.3,3,0.8c0.9,0.5,1.6,1.2,2,2.1S38.4,215.6,38.4,216.7L38.4,216.7z M32.7,212.5c-1,0-1.9,0.3-2.5,0.9
				c-0.7,0.6-1.1,1.4-1.2,2.4l0,0h7.5c-0.1-1-0.5-1.8-1.2-2.4S33.7,212.5,32.7,212.5L32.7,212.5z M44.2,212.8
				c0.4-0.7,0.9-1.2,1.6-1.5c0.7-0.4,1.6-0.5,2.6-0.5l0,0v2c-0.1,0-0.3,0-0.5,0l0,0c-1.1,0-2,0.3-2.7,1s-1,1.6-1,2.9l0,0v5.8h-2.1
				v-11.6h2V212.8z M60.6,210.9h2.1l-5.6,12.8c-0.5,1.2-1.1,2-1.7,2.5s-1.5,0.7-2.4,0.7l0,0c-0.6,0-1.1-0.1-1.7-0.3
				c-0.5-0.2-1-0.4-1.3-0.8l0,0l0.9-1.6c0.6,0.6,1.3,0.9,2.1,0.9l0,0c0.5,0,0.9-0.1,1.3-0.4c0.3-0.3,0.7-0.7,0.9-1.4l0,0l0.4-0.8
				l-5.1-11.6h2.2l4.1,9.3L60.6,210.9z M75.7,222.5V209h-5.3v-1.9h12.7v1.9h-5.3v13.5H75.7z M89.9,222.6c-1.2,0-2.2-0.3-3.1-0.8
				c-0.9-0.5-1.6-1.2-2.2-2.1c-0.5-0.9-0.8-1.9-0.8-3.1l0,0c0-1.1,0.3-2.2,0.8-3.1c0.5-0.9,1.2-1.6,2.2-2.1c0.9-0.5,2-0.8,3.1-0.8
				l0,0c1.2,0,2.2,0.3,3.1,0.8c0.9,0.5,1.6,1.2,2.2,2.1c0.5,0.9,0.8,1.9,0.8,3.1l0,0c0,1.1-0.3,2.2-0.8,3.1
				c-0.5,0.9-1.2,1.6-2.2,2.1C92.1,222.4,91,222.6,89.9,222.6L89.9,222.6z M89.9,220.8c0.7,0,1.4-0.2,2-0.5s1.1-0.8,1.4-1.4
				c0.3-0.6,0.5-1.3,0.5-2.1l0,0c0-0.8-0.2-1.5-0.5-2.1c-0.3-0.6-0.8-1.1-1.4-1.4s-1.3-0.5-2-0.5l0,0c-0.7,0-1.4,0.2-2,0.5
				c-0.6,0.3-1.1,0.8-1.4,1.4c-0.3,0.6-0.5,1.3-0.5,2.1l0,0c0,0.8,0.2,1.5,0.5,2.1c0.3,0.6,0.8,1.1,1.4,1.4
				C88.5,220.6,89.1,220.8,89.9,220.8L89.9,220.8z M104.7,222.6c-1.2,0-2.2-0.3-3.1-0.8c-0.9-0.5-1.6-1.2-2.2-2.1
				c-0.5-0.9-0.8-1.9-0.8-3.1l0,0c0-1.1,0.3-2.2,0.8-3.1c0.5-0.9,1.2-1.6,2.2-2.1c0.9-0.5,2-0.8,3.1-0.8l0,0c1.2,0,2.2,0.3,3.1,0.8
				c0.9,0.5,1.6,1.2,2.2,2.1c0.5,0.9,0.8,1.9,0.8,3.1l0,0c0,1.1-0.3,2.2-0.8,3.1c-0.5,0.9-1.2,1.6-2.2,2.1
				C106.9,222.4,105.8,222.6,104.7,222.6L104.7,222.6z M104.7,220.8c0.7,0,1.4-0.2,2-0.5c0.6-0.3,1.1-0.8,1.4-1.4s0.5-1.3,0.5-2.1
				l0,0c0-0.8-0.2-1.5-0.5-2.1s-0.8-1.1-1.4-1.4c-0.6-0.3-1.3-0.5-2-0.5l0,0c-0.7,0-1.4,0.2-2,0.5c-0.6,0.3-1.1,0.8-1.4,1.4
				s-0.5,1.3-0.5,2.1l0,0c0,0.8,0.2,1.5,0.5,2.1s0.8,1.1,1.4,1.4C103.3,220.6,103.9,220.8,104.7,220.8L104.7,220.8z M114.5,222.5
				v-16.3h2.1v16.3H114.5z M127.7,210.7c1.1,0,2.1,0.2,3,0.7c0.9,0.5,1.6,1.2,2.1,2.1c0.5,0.9,0.8,1.9,0.8,3.1l0,0
				c0,1.2-0.3,2.2-0.8,3.1c-0.5,0.9-1.2,1.6-2.1,2.1c-0.9,0.5-1.9,0.7-3,0.7l0,0c-0.9,0-1.7-0.2-2.4-0.5c-0.7-0.3-1.3-0.8-1.8-1.5
				l0,0v1.8h-2v-16.3h2.1v6.4c0.5-0.6,1.1-1.1,1.8-1.4C126.1,210.9,126.9,210.7,127.7,210.7L127.7,210.7z M127.5,220.8
				c0.7,0,1.4-0.2,2-0.5c0.6-0.3,1.1-0.8,1.4-1.4s0.5-1.3,0.5-2.1l0,0c0-0.8-0.2-1.5-0.5-2.1s-0.8-1.1-1.4-1.4
				c-0.6-0.3-1.3-0.5-2-0.5l0,0c-0.7,0-1.4,0.2-2,0.5c-0.6,0.3-1.1,0.8-1.4,1.4c-0.3,0.6-0.5,1.3-0.5,2.1l0,0c0,0.8,0.2,1.5,0.5,2.1
				c0.3,0.6,0.8,1.1,1.4,1.4C126.1,220.6,126.8,220.8,127.5,220.8L127.5,220.8z M142.3,222.6c-1.2,0-2.2-0.3-3.1-0.8
				c-0.9-0.5-1.6-1.2-2.2-2.1c-0.5-0.9-0.8-1.9-0.8-3.1l0,0c0-1.1,0.3-2.2,0.8-3.1c0.5-0.9,1.2-1.6,2.2-2.1c0.9-0.5,2-0.8,3.1-0.8
				l0,0c1.2,0,2.2,0.3,3.1,0.8c0.9,0.5,1.6,1.2,2.2,2.1c0.5,0.9,0.8,1.9,0.8,3.1l0,0c0,1.1-0.3,2.2-0.8,3.1
				c-0.5,0.9-1.2,1.6-2.2,2.1C144.5,222.4,143.5,222.6,142.3,222.6L142.3,222.6z M142.3,220.8c0.7,0,1.4-0.2,2-0.5
				c0.6-0.3,1.1-0.8,1.4-1.4s0.5-1.3,0.5-2.1l0,0c0-0.8-0.2-1.5-0.5-2.1s-0.8-1.1-1.4-1.4c-0.6-0.3-1.3-0.5-2-0.5l0,0
				c-0.7,0-1.4,0.2-2,0.5s-1.1,0.8-1.4,1.4c-0.3,0.6-0.5,1.3-0.5,2.1l0,0c0,0.8,0.2,1.5,0.5,2.1c0.3,0.6,0.8,1.1,1.4,1.4
				S141.6,220.8,142.3,220.8L142.3,220.8z M161.6,222.5h-2.4l-3.4-4.5l-3.4,4.5h-2.3l4.6-5.9l-4.4-5.7h2.3l3.2,4.2l3.2-4.2h2.3
				l-4.4,5.7L161.6,222.5z M182.9,207.1h2.2v15.4h-1.8l-9.2-11.5v11.5h-2.2v-15.4h1.8l9.2,11.5V207.1z M200.8,216.7
				c0,0.2,0,0.4,0,0.6l0,0h-9.4c0.1,1,0.6,1.8,1.3,2.5c0.8,0.6,1.7,0.9,2.9,0.9l0,0c1.4,0,2.5-0.5,3.4-1.4l0,0l1.2,1.4
				c-0.5,0.6-1.2,1.1-2,1.4c-0.8,0.3-1.7,0.5-2.6,0.5l0,0c-1.2,0-2.3-0.3-3.3-0.8c-1-0.5-1.7-1.2-2.2-2.1c-0.5-0.9-0.8-1.9-0.8-3.1
				l0,0c0-1.1,0.3-2.1,0.8-3.1c0.5-0.9,1.2-1.6,2.1-2.1c0.9-0.5,1.9-0.8,3-0.8l0,0c1.1,0,2.1,0.3,3,0.8c0.9,0.5,1.6,1.2,2,2.1
				C200.5,214.5,200.8,215.6,200.8,216.7L200.8,216.7z M195,212.5c-1,0-1.9,0.3-2.5,0.9c-0.7,0.6-1.1,1.4-1.2,2.4l0,0h7.5
				c-0.1-1-0.5-1.8-1.2-2.4S196,212.5,195,212.5L195,212.5z M215.1,216.7c0,0.2,0,0.4,0,0.6l0,0h-9.4c0.1,1,0.6,1.8,1.3,2.5
				c0.8,0.6,1.7,0.9,2.9,0.9l0,0c1.4,0,2.5-0.5,3.4-1.4l0,0l1.2,1.4c-0.5,0.6-1.2,1.1-2,1.4s-1.7,0.5-2.6,0.5l0,0
				c-1.2,0-2.3-0.3-3.3-0.8c-1-0.5-1.7-1.2-2.2-2.1c-0.5-0.9-0.8-1.9-0.8-3.1l0,0c0-1.1,0.3-2.1,0.8-3.1s1.2-1.6,2.1-2.1
				c0.9-0.5,1.9-0.8,3-0.8l0,0c1.1,0,2.1,0.3,3,0.8c0.9,0.5,1.6,1.2,2,2.1C214.8,214.5,215.1,215.6,215.1,216.7L215.1,216.7z
				 M209.3,212.5c-1,0-1.9,0.3-2.5,0.9c-0.7,0.6-1.1,1.4-1.2,2.4l0,0h7.5c-0.1-1-0.5-1.8-1.2-2.4S210.3,212.5,209.3,212.5
				L209.3,212.5z M227.7,206.2h2.1v16.3h-2v-1.8c-0.5,0.6-1.1,1.1-1.8,1.5c-0.7,0.3-1.5,0.5-2.4,0.5l0,0c-1.1,0-2.1-0.2-3-0.7
				c-0.9-0.5-1.6-1.2-2.1-2.1c-0.5-0.9-0.8-1.9-0.8-3.1l0,0c0-1.2,0.3-2.2,0.8-3.1c0.5-0.9,1.2-1.6,2.1-2.1c0.9-0.5,1.9-0.7,3-0.7
				l0,0c0.8,0,1.6,0.2,2.3,0.5c0.7,0.3,1.3,0.8,1.8,1.4l0,0V206.2z M223.9,220.8c0.7,0,1.4-0.2,2-0.5c0.6-0.3,1.1-0.8,1.4-1.4
				c0.3-0.6,0.5-1.3,0.5-2.1l0,0c0-0.8-0.2-1.5-0.5-2.1c-0.3-0.6-0.8-1.1-1.4-1.4c-0.6-0.3-1.3-0.5-2-0.5l0,0c-0.7,0-1.4,0.2-2,0.5
				s-1.1,0.8-1.4,1.4c-0.3,0.6-0.5,1.3-0.5,2.1l0,0c0,0.8,0.2,1.5,0.5,2.1c0.3,0.6,0.8,1.1,1.4,1.4S223.1,220.8,223.9,220.8
				L223.9,220.8z M238.1,222.6c-1,0-1.9-0.1-2.7-0.4c-0.9-0.3-1.6-0.6-2.1-1l0,0l0.9-1.7c0.5,0.4,1.1,0.7,1.9,0.9
				c0.7,0.2,1.5,0.3,2.2,0.3l0,0c1.8,0,2.8-0.5,2.8-1.6l0,0c0-0.4-0.1-0.6-0.4-0.8c-0.2-0.2-0.6-0.4-0.9-0.4s-0.9-0.2-1.6-0.3l0,0
				c-0.9-0.1-1.7-0.3-2.3-0.5c-0.6-0.2-1.1-0.5-1.5-1c-0.4-0.5-0.6-1.1-0.6-1.9l0,0c0-1.1,0.4-1.9,1.3-2.5c0.9-0.6,2.1-1,3.5-1l0,0
				c0.8,0,1.6,0.1,2.3,0.3c0.8,0.2,1.4,0.4,1.9,0.8l0,0l-0.9,1.7c-1-0.6-2.1-0.9-3.4-0.9l0,0c-0.9,0-1.6,0.1-2,0.4
				c-0.5,0.3-0.7,0.7-0.7,1.2l0,0c0,0.4,0.1,0.7,0.4,0.9c0.3,0.2,0.6,0.4,1,0.5c0.4,0.1,0.9,0.2,1.6,0.4l0,0
				c0.9,0.2,1.7,0.3,2.3,0.5s1.1,0.5,1.5,0.9c0.4,0.4,0.6,1.1,0.6,1.8l0,0c0,1.1-0.4,1.9-1.3,2.5
				C240.8,222.3,239.6,222.6,238.1,222.6L238.1,222.6z M257.6,210.7c1.6,0,2.8,0.4,3.7,1.2c0.9,0.8,1.3,2,1.3,3.5l0,0v7h-2V221
				c-0.4,0.5-0.9,1-1.5,1.2s-1.4,0.4-2.3,0.4l0,0c-1.3,0-2.3-0.3-3.1-0.9c-0.8-0.6-1.2-1.5-1.2-2.5l0,0c0-1,0.4-1.8,1.1-2.5
				c0.7-0.6,1.9-0.9,3.6-0.9l0,0h3.3v-0.4c0-0.9-0.3-1.6-0.8-2.1c-0.5-0.5-1.3-0.7-2.3-0.7l0,0c-0.7,0-1.4,0.1-2,0.3
				c-0.7,0.2-1.2,0.5-1.7,0.9l0,0l-0.9-1.6c0.6-0.5,1.3-0.9,2.2-1.1S256.7,210.7,257.6,210.7L257.6,210.7z M257.1,221
				c0.8,0,1.5-0.2,2.1-0.5c0.6-0.4,1-0.9,1.3-1.5l0,0v-1.6h-3.2c-1.8,0-2.7,0.6-2.7,1.8l0,0c0,0.6,0.2,1,0.7,1.4
				C255.7,220.8,256.3,221,257.1,221L257.1,221z M285.5,207.1h2.2v15.4h-2.2v-6.8h-8.8v6.8h-2.2v-15.4h2.2v6.6h8.8V207.1z
				 M297.1,210.7c1.6,0,2.8,0.4,3.7,1.2c0.9,0.8,1.3,2,1.3,3.5l0,0v7h-2V221c-0.4,0.5-0.9,1-1.5,1.2s-1.4,0.4-2.3,0.4l0,0
				c-1.3,0-2.3-0.3-3.1-0.9c-0.8-0.6-1.2-1.5-1.2-2.5l0,0c0-1,0.4-1.8,1.1-2.5c0.7-0.6,1.9-0.9,3.6-0.9l0,0h3.3v-0.4
				c0-0.9-0.3-1.6-0.8-2.1s-1.3-0.7-2.3-0.7l0,0c-0.7,0-1.4,0.1-2,0.3c-0.7,0.2-1.2,0.5-1.7,0.9l0,0l-0.9-1.6
				c0.6-0.5,1.3-0.9,2.2-1.1C295.3,210.9,296.2,210.7,297.1,210.7L297.1,210.7z M296.6,221c0.8,0,1.5-0.2,2.1-0.5
				c0.6-0.4,1-0.9,1.3-1.5l0,0v-1.6h-3.2c-1.8,0-2.7,0.6-2.7,1.8l0,0c0,0.6,0.2,1,0.7,1.4C295.2,220.8,295.8,221,296.6,221
				L296.6,221z M321.4,210.7c1.5,0,2.6,0.4,3.5,1.3c0.9,0.8,1.3,2.1,1.3,3.8l0,0v6.7h-2.1V216c0-1.1-0.3-2-0.8-2.5
				c-0.5-0.6-1.3-0.9-2.2-0.9l0,0c-1.1,0-1.9,0.3-2.5,1s-0.9,1.6-0.9,2.9l0,0v6h-2.1V216c0-1.1-0.3-2-0.8-2.5
				c-0.5-0.6-1.3-0.9-2.2-0.9l0,0c-1.1,0-1.9,0.3-2.5,1c-0.6,0.7-0.9,1.6-0.9,2.9l0,0v6h-2.1v-11.6h2v1.7c0.4-0.6,1-1.1,1.7-1.4
				c0.7-0.3,1.5-0.5,2.3-0.5l0,0c0.9,0,1.7,0.2,2.4,0.5c0.7,0.4,1.2,0.9,1.6,1.6l0,0c0.4-0.7,1-1.2,1.8-1.6
				C319.5,210.9,320.4,210.7,321.4,210.7L321.4,210.7z M345.5,210.7c1.5,0,2.6,0.4,3.5,1.3s1.3,2.1,1.3,3.8l0,0v6.7h-2.1V216
				c0-1.1-0.3-2-0.8-2.5c-0.5-0.6-1.3-0.9-2.2-0.9l0,0c-1.1,0-1.9,0.3-2.5,1s-0.9,1.6-0.9,2.9l0,0v6h-2.1V216c0-1.1-0.3-2-0.8-2.5
				c-0.5-0.6-1.3-0.9-2.2-0.9l0,0c-1.1,0-1.9,0.3-2.5,1c-0.6,0.7-0.9,1.6-0.9,2.9l0,0v6h-2.1v-11.6h2v1.7c0.4-0.6,1-1.1,1.7-1.4
				c0.7-0.3,1.5-0.5,2.3-0.5l0,0c0.9,0,1.7,0.2,2.4,0.5c0.7,0.4,1.2,0.9,1.6,1.6l0,0c0.4-0.7,1-1.2,1.8-1.6
				C343.6,210.9,344.5,210.7,345.5,210.7L345.5,210.7z M365.6,216.7c0,0.2,0,0.4,0,0.6l0,0h-9.4c0.1,1,0.6,1.8,1.3,2.5
				c0.8,0.6,1.7,0.9,2.9,0.9l0,0c1.4,0,2.5-0.5,3.4-1.4l0,0l1.2,1.4c-0.5,0.6-1.2,1.1-2,1.4c-0.8,0.3-1.7,0.5-2.6,0.5l0,0
				c-1.2,0-2.3-0.3-3.3-0.8c-1-0.5-1.7-1.2-2.2-2.1s-0.8-1.9-0.8-3.1l0,0c0-1.1,0.3-2.1,0.8-3.1s1.2-1.6,2.1-2.1
				c0.9-0.5,1.9-0.8,3-0.8l0,0c1.1,0,2.1,0.3,3,0.8c0.9,0.5,1.6,1.2,2,2.1S365.6,215.6,365.6,216.7L365.6,216.7z M359.8,212.5
				c-1,0-1.9,0.3-2.5,0.9c-0.7,0.6-1.1,1.4-1.2,2.4l0,0h7.5c-0.1-1-0.5-1.8-1.2-2.4C361.7,212.8,360.8,212.5,359.8,212.5
				L359.8,212.5z M371.4,212.8c0.4-0.7,0.9-1.2,1.6-1.5c0.7-0.4,1.6-0.5,2.6-0.5l0,0v2c-0.1,0-0.3,0-0.5,0l0,0c-1.1,0-2,0.3-2.7,1
				c-0.7,0.7-1,1.6-1,2.9l0,0v5.8h-2.1v-11.6h2V212.8z M386.4,226.7v-20.5h2v20.5H386.4z M405,222.7c-1.2,0-2.3-0.2-3.3-0.5
				c-1.1-0.4-1.9-0.8-2.5-1.4l0,0l0.8-1.7c0.6,0.5,1.3,1,2.2,1.3c0.9,0.3,1.9,0.5,2.8,0.5l0,0c1.3,0,2.2-0.2,2.9-0.6
				c0.6-0.4,0.9-1,0.9-1.7l0,0c0-0.5-0.2-1-0.5-1.3c-0.3-0.3-0.8-0.6-1.3-0.8c-0.5-0.2-1.2-0.4-2.1-0.6l0,0
				c-1.2-0.3-2.1-0.6-2.8-0.8s-1.3-0.7-1.8-1.3c-0.5-0.6-0.8-1.4-0.8-2.3l0,0c0-0.8,0.2-1.6,0.6-2.2s1.1-1.2,2-1.6
				c0.9-0.4,2-0.6,3.3-0.6l0,0c0.9,0,1.8,0.1,2.7,0.4c0.9,0.2,1.6,0.6,2.3,1l0,0l-0.7,1.8c-0.6-0.4-1.3-0.7-2.1-0.9
				c-0.7-0.2-1.4-0.3-2.2-0.3l0,0c-1.2,0-2.2,0.2-2.8,0.7c-0.6,0.5-0.9,1-0.9,1.8l0,0c0,0.5,0.2,1,0.5,1.3c0.4,0.3,0.8,0.6,1.3,0.8
				s1.2,0.4,2.1,0.6l0,0c1.2,0.3,2.1,0.6,2.8,0.8c0.7,0.3,1.3,0.7,1.8,1.3c0.5,0.6,0.8,1.3,0.8,2.3l0,0c0,0.8-0.2,1.5-0.7,2.2
				c-0.4,0.7-1.1,1.2-2,1.6C407.4,222.5,406.4,222.7,405,222.7L405,222.7z M420.7,220.3l0.7,1.5c-0.3,0.3-0.7,0.5-1.1,0.6
				c-0.5,0.1-0.9,0.2-1.4,0.2l0,0c-1.2,0-2.1-0.3-2.7-0.9c-0.6-0.6-1-1.5-1-2.7l0,0v-6.4h-2v-1.7h2v-2.5h2.1v2.5h3.3v1.7h-3.3v6.3
				c0,0.6,0.2,1.1,0.5,1.4c0.3,0.3,0.8,0.5,1.3,0.5l0,0C419.7,220.8,420.2,220.7,420.7,220.3L420.7,220.3z M429.3,222.6
				c-1.2,0-2.2-0.3-3.1-0.8c-0.9-0.5-1.6-1.2-2.2-2.1c-0.5-0.9-0.8-1.9-0.8-3.1l0,0c0-1.1,0.3-2.2,0.8-3.1c0.5-0.9,1.2-1.6,2.2-2.1
				c0.9-0.5,2-0.8,3.1-0.8l0,0c1.2,0,2.2,0.3,3.1,0.8c0.9,0.5,1.6,1.2,2.2,2.1c0.5,0.9,0.8,1.9,0.8,3.1l0,0c0,1.1-0.3,2.2-0.8,3.1
				c-0.5,0.9-1.2,1.6-2.2,2.1C431.5,222.4,430.5,222.6,429.3,222.6L429.3,222.6z M429.3,220.8c0.7,0,1.4-0.2,2-0.5
				c0.6-0.3,1.1-0.8,1.4-1.4s0.5-1.3,0.5-2.1l0,0c0-0.8-0.2-1.5-0.5-2.1s-0.8-1.1-1.4-1.4c-0.6-0.3-1.3-0.5-2-0.5l0,0
				c-0.7,0-1.4,0.2-2,0.5c-0.6,0.3-1.1,0.8-1.4,1.4c-0.3,0.6-0.5,1.3-0.5,2.1l0,0c0,0.8,0.2,1.5,0.5,2.1c0.3,0.6,0.8,1.1,1.4,1.4
				C427.9,220.6,428.6,220.8,429.3,220.8L429.3,220.8z M445.3,210.7c1.1,0,2.1,0.2,3,0.7c0.9,0.5,1.6,1.2,2.1,2.1
				c0.5,0.9,0.8,1.9,0.8,3.1l0,0c0,1.2-0.3,2.2-0.8,3.1c-0.5,0.9-1.2,1.6-2.1,2.1c-0.9,0.5-1.9,0.7-3,0.7l0,0
				c-0.8,0-1.6-0.2-2.3-0.5c-0.7-0.3-1.3-0.8-1.8-1.4l0,0v6h-2.1v-15.9h2v1.8c0.5-0.6,1.1-1.1,1.8-1.5
				C443.7,210.9,444.5,210.7,445.3,210.7L445.3,210.7z M445.1,220.8c0.7,0,1.4-0.2,2-0.5c0.6-0.3,1.1-0.8,1.4-1.4
				c0.3-0.6,0.5-1.3,0.5-2.1l0,0c0-0.8-0.2-1.5-0.5-2.1c-0.3-0.6-0.8-1.1-1.4-1.4c-0.6-0.3-1.3-0.5-2-0.5l0,0c-0.7,0-1.4,0.2-2,0.5
				s-1.1,0.8-1.4,1.4c-0.3,0.6-0.5,1.3-0.5,2.1l0,0c0,0.8,0.2,1.5,0.5,2.1c0.3,0.6,0.8,1.1,1.4,1.4S444.4,220.8,445.1,220.8
				L445.1,220.8z M462.1,222.5v-15.4h2.2v15.4H462.1z M475.3,220.3l0.7,1.5c-0.3,0.3-0.7,0.5-1.1,0.6c-0.5,0.1-0.9,0.2-1.4,0.2l0,0
				c-1.2,0-2.1-0.3-2.7-0.9c-0.6-0.6-1-1.5-1-2.7l0,0v-6.4h-2v-1.7h2v-2.5h2.1v2.5h3.3v1.7h-3.3v6.3c0,0.6,0.2,1.1,0.5,1.4
				c0.3,0.3,0.8,0.5,1.3,0.5l0,0C474.3,220.8,474.9,220.7,475.3,220.3L475.3,220.3z"/>
		</g>
	</g>
	<g transform="rotate(0 23.7267 166.2049)">
		<g transform="matrix(1 0 0 1 0 0)">
			<path class="st0" d="M24.6,182.5l-0.2-0.3c-0.4-0.5-0.6-1-0.6-1.4c0-0.4,0.3-0.9,1-1.6l0,0c0.4-0.4,0.8-0.6,1.3-0.6
				s1.1,0.4,1.9,1.2l0,0c0.2,0.3,0.5,0.5,1,0.8c0.4,0.2,0.8,0.4,1.1,0.4l0,0c1.5,0,2.2-0.6,2.2-1.8l0,0c0-0.4-0.2-0.7-0.6-0.9
				s-0.9-0.4-1.5-0.5c-0.6-0.1-1.3-0.3-2-0.5c-0.7-0.2-1.3-0.5-2-0.9c-0.6-0.3-1.1-0.9-1.5-1.6c-0.4-0.7-0.6-1.6-0.6-2.6l0,0
				c0-1.4,0.5-2.6,1.6-3.7c1-1,2.5-1.6,4.3-1.6l0,0c1,0,1.8,0.1,2.6,0.4c0.8,0.2,1.3,0.5,1.6,0.8l0,0l0.6,0.5
				c0.5,0.5,0.7,0.8,0.7,1.2s-0.2,0.8-0.6,1.3l0,0c-0.5,0.8-1.1,1.2-1.7,1.2l0,0c-0.3,0-0.7-0.2-1.2-0.5l0,0c0,0-0.1-0.1-0.3-0.2
				c-0.1-0.1-0.3-0.2-0.4-0.3l0,0c-0.3-0.2-0.8-0.3-1.3-0.3s-0.9,0.1-1.3,0.4c-0.3,0.2-0.5,0.6-0.5,1s0.2,0.8,0.6,1.1
				s0.9,0.5,1.5,0.5c0.6,0.1,1.3,0.2,2,0.4c0.7,0.2,1.4,0.4,2,0.7c0.6,0.3,1.1,0.8,1.5,1.5c0.4,0.7,0.6,1.6,0.6,2.6
				c0,1-0.2,1.9-0.6,2.7c-0.4,0.8-1,1.4-1.6,1.8l0,0c-1.3,0.8-2.7,1.3-4.1,1.3l0,0c-0.7,0-1.5-0.1-2.1-0.3c-0.7-0.2-1.2-0.4-1.6-0.7
				l0,0C25.5,183.5,24.9,183,24.6,182.5L24.6,182.5z M38,179.7v-11.3c0-0.4,0-0.6,0-0.8c0-0.2,0.1-0.4,0.2-0.6l0,0
				c0.2-0.4,0.8-0.6,1.9-0.6l0,0c1,0,1.6,0.2,1.8,0.6l0,0c0.1,0.2,0.2,0.5,0.2,0.6c0,0.2,0,0.5,0,0.8l0,0v11c0,0.6,0,0.9,0.1,1.1
				c0.1,0.2,0.3,0.2,0.6,0.2s0.5,0,0.7,0c0.1,0,0.2,0.1,0.4,0.2l0,0c0.3,0.2,0.5,0.8,0.5,1.7l0,0c0,1-0.2,1.6-0.5,1.8l0,0
				c-0.4,0.3-1.4,0.3-3,0.1l0,0c-1.2-0.2-2-0.6-2.4-1.2l0,0C38.2,182.6,38,181.4,38,179.7L38,179.7z M45.4,178.4
				c0-1.9,0.7-3.5,2-4.7c1.3-1.2,2.9-1.9,4.6-1.9c1.7,0,3.2,0.6,4.5,1.8c1.3,1.2,2,2.8,2,4.7l0,0c0,1.3-0.3,2.5-1,3.5
				c-0.7,1-1.5,1.8-2.5,2.3c-1,0.5-2,0.7-3,0.7c-1,0-2.1-0.3-3-0.8s-1.8-1.3-2.5-2.3C45.7,180.8,45.4,179.7,45.4,178.4L45.4,178.4z
				 M50.4,180.1c0.5,0.4,1,0.6,1.5,0.6s1-0.2,1.6-0.6c0.5-0.4,0.8-1,0.8-1.8c0-0.8-0.2-1.4-0.7-1.7c-0.5-0.4-1-0.6-1.6-0.6
				s-1.1,0.2-1.6,0.6c-0.5,0.4-0.7,1-0.7,1.8C49.6,179.2,49.9,179.7,50.4,180.1z M75.6,172.2L75.6,172.2c1,0.4,1.5,1,1.5,1.6l0,0
				c0,0.3-0.1,0.7-0.4,1.3c-0.3,0.6-0.5,1.1-0.6,1.6l0,0l-2.6,6.4c-0.2,0.7-0.6,1.2-1.2,1.5l0,0c-0.2,0.1-0.5,0.2-0.9,0.2
				s-0.7-0.1-1.1-0.4c-0.3-0.3-0.6-0.6-0.7-0.8l0,0l-0.2-0.4c-0.1-0.3-0.6-1.6-1.4-3.7l0,0c-0.2,0.4-0.4,1-0.7,1.9
				c-0.3,0.9-0.5,1.4-0.6,1.6c-0.1,0.2-0.1,0.4-0.2,0.4c0,0.1-0.1,0.2-0.2,0.4c-0.1,0.2-0.2,0.4-0.4,0.5l0,0
				c-0.4,0.4-0.8,0.6-1.3,0.6c-0.5,0-0.9-0.1-1.2-0.4c-0.3-0.3-0.6-0.6-0.7-0.8l0,0l-3.6-8.8c-0.2-0.5-0.2-0.8-0.2-0.9l0,0
				c0-0.6,0.5-1.1,1.4-1.5l0,0c0.5-0.2,0.9-0.3,1.2-0.3c0.3,0,0.6,0.1,0.8,0.2c0.2,0.1,0.3,0.3,0.4,0.4c0.1,0.1,0.1,0.3,0.2,0.4l0,0
				c0.3,0.6,0.8,2.1,1.7,4.5l0,0l1.4-3.9c0.1-0.3,0.3-0.6,0.5-0.8l0,0c0.5-0.5,0.9-0.7,1.4-0.7c0.5,0,0.9,0.1,1.2,0.4
				s0.6,0.5,0.7,0.8l0,0l0.2,0.4c0.8,2.2,1.3,3.5,1.4,3.8l0,0l1.5-4c0.4-1,1-1.5,1.7-1.5l0,0C75,172,75.3,172.1,75.6,172.2z
				 M95.3,167.9c0.1-0.2,0.3-0.4,0.6-0.5c0.3-0.1,0.7-0.1,1.1-0.1c0.5,0,0.8,0,1.1,0.1c0.3,0.1,0.5,0.2,0.6,0.3
				c0.1,0.1,0.3,0.3,0.3,0.5l0,0c0.1,0.3,0.1,0.7,0.1,1.2l0,0v13.2c0,0.4,0,0.6,0,0.8c0,0.2-0.1,0.4-0.2,0.6l0,0
				c-0.2,0.4-0.8,0.6-1.9,0.6l0,0c-1.1,0-1.8-0.3-2-0.9l0,0c-0.1-0.3-0.1-0.7-0.1-1.2l0,0v-4.8h-6.3v4.9c0,0.4,0,0.6,0,0.8
				s-0.1,0.4-0.2,0.6l0,0c-0.2,0.4-0.8,0.6-1.9,0.6l0,0c-1.1,0-1.8-0.3-2-0.9l0,0c-0.1-0.3-0.1-0.7-0.1-1.2l0,0v-13.2
				c0-0.4,0-0.6,0-0.8c0-0.2,0.1-0.4,0.2-0.6l0,0c0.2-0.4,0.8-0.6,1.9-0.6l0,0c1.1,0,1.8,0.3,2,0.9l0,0c0.1,0.3,0.1,0.7,0.1,1.2l0,0
				v4.9H95v-4.9c0-0.4,0-0.6,0-0.8S95.1,168.1,95.3,167.9z M109.3,173.5L109.3,173.5c0.1-0.9,0.7-1.3,1.9-1.3l0,0
				c0.6,0,1.1,0,1.4,0.1c0.3,0.1,0.5,0.3,0.6,0.5c0.1,0.2,0.2,0.4,0.2,0.6c0,0.2,0,0.5,0,0.8l0,0v8.3c0,0.4,0,0.6,0,0.8
				c0,0.2-0.1,0.4-0.2,0.6l0,0c-0.2,0.4-0.8,0.6-1.6,0.6c-0.9,0-1.4-0.1-1.7-0.3c-0.3-0.2-0.5-0.5-0.5-0.9l0,0
				c-0.6,0.8-1.6,1.3-2.9,1.3c-1.4,0-2.6-0.6-3.8-1.9c-1.2-1.3-1.8-2.7-1.8-4.4c0-1.7,0.6-3.1,1.8-4.4c1.2-1.2,2.5-1.9,3.9-1.9l0,0
				c0.5,0,1,0.1,1.5,0.3c0.4,0.2,0.8,0.4,0.9,0.5C109,173.1,109.1,173.3,109.3,173.5z M104.9,178.4c0,0.5,0.2,1,0.6,1.4
				c0.4,0.4,0.9,0.6,1.5,0.6c0.6,0,1.1-0.2,1.5-0.6c0.4-0.4,0.6-0.9,0.6-1.4c0-0.5-0.2-1-0.6-1.4c-0.4-0.4-0.9-0.7-1.5-0.7
				s-1.1,0.2-1.5,0.7C105.1,177.4,104.9,177.9,104.9,178.4z M122.3,172.1L122.3,172.1c1.6,0,2.9,0.6,4,1.8c1.1,1.2,1.6,2.7,1.6,4.4
				l0,0v4.2c0,0.4,0,0.6,0,0.8c0,0.2-0.1,0.4-0.2,0.6l0,0c-0.2,0.4-0.8,0.6-1.9,0.6l0,0c-1.1,0-1.8-0.3-2-0.9l0,0
				c-0.1-0.3-0.1-0.7-0.1-1.2l0,0v-4.2c0-0.7-0.2-1.2-0.6-1.5s-0.9-0.5-1.5-0.5s-1.1,0.2-1.5,0.6s-0.6,0.9-0.6,1.5l0,0v4.2
				c0,0.4,0,0.6,0,0.8s-0.1,0.4-0.2,0.6l0,0c-0.2,0.4-0.8,0.6-1.8,0.6l0,0c-1,0-1.6-0.2-1.8-0.6l0,0c-0.1-0.2-0.2-0.4-0.2-0.6
				c0-0.2,0-0.5,0-0.8l0,0v-8.4c0-0.3,0-0.6,0-0.8c0-0.2,0.1-0.4,0.2-0.6l0,0c0.2-0.4,0.8-0.6,1.8-0.6l0,0c1,0,1.6,0.2,1.8,0.5l0,0
				c0.2,0.3,0.2,0.6,0.2,1l0,0c0.1-0.1,0.2-0.3,0.4-0.5c0.2-0.2,0.4-0.4,0.6-0.5l0,0C121,172.3,121.6,172.1,122.3,172.1z
				 M138.1,166.9c0.1-0.2,0.3-0.4,0.6-0.5c0.3-0.1,0.7-0.1,1.2-0.1s0.9,0,1.2,0.1c0.3,0.1,0.5,0.3,0.6,0.5s0.2,0.4,0.2,0.6
				c0,0.2,0,0.5,0,0.8l0,0v14.2c0,0.4,0,0.6,0,0.8c0,0.2-0.1,0.4-0.2,0.6l0,0c-0.2,0.4-0.9,0.6-2,0.6s-1.7-0.4-1.8-1.2l0,0
				c-0.7,0.8-1.6,1.1-2.8,1.1l0,0c-1.4,0-2.7-0.6-3.9-1.9s-1.8-2.7-1.8-4.4c0-1.7,0.6-3.1,1.8-4.4s2.5-1.9,3.9-1.9l0,0
				c1.2,0,2.1,0.4,2.7,1.2l0,0v-5c0-0.4,0-0.6,0-0.8C138,167.3,138,167.1,138.1,166.9z M134.3,179.8c0.4,0.4,0.9,0.6,1.5,0.6
				c0.6,0,1.1-0.2,1.5-0.6c0.4-0.4,0.6-0.9,0.6-1.4s-0.2-1-0.6-1.4c-0.4-0.4-0.9-0.7-1.5-0.7s-1.1,0.2-1.5,0.7
				c-0.4,0.4-0.6,0.9-0.6,1.4C133.7,178.9,133.9,179.4,134.3,179.8z M154.2,169.3v11.8h6.5c0.5,0,0.9,0.1,1.1,0.2
				c0.2,0.1,0.4,0.3,0.5,0.6s0.1,0.6,0.1,1c0,0.4,0,0.8-0.1,1s-0.2,0.4-0.4,0.5l0,0c-0.3,0.2-0.7,0.2-1.2,0.2l0,0h-8.6
				c-1.1,0-1.8-0.3-2-0.9l0,0c-0.1-0.3-0.1-0.7-0.1-1.2l0,0v-13.2c0-0.4,0-0.6,0-0.8c0-0.2,0.1-0.4,0.2-0.6l0,0
				c0.2-0.4,0.8-0.6,1.9-0.6l0,0c1.1,0,1.8,0.3,2,0.9l0,0C154.2,168.4,154.2,168.8,154.2,169.3L154.2,169.3z M163.6,178.4
				c0-1.9,0.7-3.5,2-4.7c1.3-1.2,2.9-1.9,4.6-1.9s3.2,0.6,4.5,1.8c1.3,1.2,2,2.8,2,4.7l0,0c0,1.3-0.3,2.5-1,3.5
				c-0.7,1-1.5,1.8-2.5,2.3c-1,0.5-2,0.7-3,0.7c-1,0-2.1-0.3-3-0.8s-1.8-1.3-2.5-2.3C163.9,180.8,163.6,179.7,163.6,178.4
				L163.6,178.4z M168.6,180.1c0.5,0.4,1,0.6,1.5,0.6s1-0.2,1.6-0.6c0.5-0.4,0.8-1,0.8-1.8c0-0.8-0.2-1.4-0.7-1.7s-1-0.6-1.6-0.6
				c-0.6,0-1.1,0.2-1.6,0.6c-0.5,0.4-0.7,1-0.7,1.8C167.8,179.2,168.1,179.7,168.6,180.1z M186.2,183.8v-0.7
				c-0.6,0.8-1.6,1.2-2.9,1.2s-2.6-0.6-3.7-1.8c-1.2-1.2-1.7-2.6-1.7-4.3s0.6-3,1.7-4.3c1.2-1.2,2.4-1.8,3.8-1.8l0,0
				c0.5,0,1,0.1,1.5,0.3c0.4,0.2,0.8,0.4,0.9,0.5c0.2,0.2,0.3,0.3,0.4,0.5l0,0c0-0.4,0.2-0.8,0.5-1c0.3-0.2,0.7-0.3,1.3-0.3
				c0.6,0,1.1,0,1.4,0.1c0.3,0.1,0.5,0.3,0.6,0.5c0.1,0.2,0.2,0.4,0.2,0.6s0,0.4,0,0.8l0,0v9.9c0,1.8-0.6,3.3-1.9,4.4
				c-1.3,1.1-2.7,1.7-4.3,1.7l0,0c-1.2,0-2.4-0.3-3.5-0.9c-1.1-0.6-1.6-1.1-1.6-1.6l0,0c0-0.6,0.2-1.2,0.7-1.6l0,0
				c0.3-0.3,0.5-0.6,0.7-0.7c0.2-0.1,0.4-0.2,0.6-0.2s0.5,0.1,0.7,0.3l0,0c0.8,0.6,1.6,0.9,2.5,0.9l0,0c0.6,0,1.1-0.2,1.5-0.7
				C186,185.1,186.2,184.5,186.2,183.8L186.2,183.8z M182,178.2c0,0.5,0.2,1,0.6,1.4c0.4,0.4,0.9,0.6,1.5,0.6s1.1-0.2,1.4-0.6
				c0.4-0.4,0.6-0.9,0.6-1.4s-0.2-1-0.5-1.4c-0.4-0.4-0.9-0.7-1.5-0.7c-0.6,0-1.1,0.2-1.5,0.6C182.2,177.3,182,177.7,182,178.2z
				 M200.3,173.5L200.3,173.5c0.1-0.9,0.7-1.3,1.9-1.3l0,0c0.6,0,1.1,0,1.4,0.1c0.3,0.1,0.5,0.3,0.6,0.5c0.1,0.2,0.2,0.4,0.2,0.6
				c0,0.2,0,0.5,0,0.8l0,0v8.3c0,0.4,0,0.6,0,0.8c0,0.2-0.1,0.4-0.2,0.6l0,0c-0.2,0.4-0.8,0.6-1.6,0.6c-0.9,0-1.4-0.1-1.7-0.3
				c-0.3-0.2-0.5-0.5-0.5-0.9l0,0c-0.6,0.8-1.6,1.3-2.9,1.3c-1.4,0-2.6-0.6-3.8-1.9c-1.2-1.3-1.8-2.7-1.8-4.4c0-1.7,0.6-3.1,1.8-4.4
				c1.2-1.2,2.5-1.9,3.9-1.9l0,0c0.5,0,1,0.1,1.5,0.3s0.8,0.4,0.9,0.5C200.1,173.1,200.2,173.3,200.3,173.5z M196,178.4
				c0,0.5,0.2,1,0.6,1.4c0.4,0.4,0.9,0.6,1.5,0.6c0.6,0,1.1-0.2,1.5-0.6s0.6-0.9,0.6-1.4c0-0.5-0.2-1-0.6-1.4
				c-0.4-0.4-0.9-0.7-1.5-0.7s-1.1,0.2-1.5,0.7C196.2,177.4,196,177.9,196,178.4z M213.3,172.1L213.3,172.1c1.6,0,2.9,0.6,4,1.8
				c1.1,1.2,1.6,2.7,1.6,4.4l0,0v4.2c0,0.4,0,0.6,0,0.8s-0.1,0.4-0.2,0.6l0,0c-0.2,0.4-0.8,0.6-1.9,0.6l0,0c-1.1,0-1.8-0.3-2-0.9
				l0,0c-0.1-0.3-0.1-0.7-0.1-1.2l0,0v-4.2c0-0.7-0.2-1.2-0.6-1.5c-0.4-0.4-0.9-0.5-1.5-0.5c-0.6,0-1.1,0.2-1.5,0.6
				c-0.4,0.4-0.6,0.9-0.6,1.5l0,0v4.2c0,0.4,0,0.6,0,0.8c0,0.2-0.1,0.4-0.2,0.6l0,0c-0.2,0.4-0.8,0.6-1.8,0.6l0,0
				c-1,0-1.6-0.2-1.8-0.6l0,0c-0.1-0.2-0.2-0.4-0.2-0.6c0-0.2,0-0.5,0-0.8l0,0v-8.4c0-0.3,0-0.6,0-0.8c0-0.2,0.1-0.4,0.2-0.6l0,0
				c0.2-0.4,0.8-0.6,1.8-0.6l0,0c1,0,1.6,0.2,1.8,0.5l0,0c0.2,0.3,0.2,0.6,0.2,1l0,0c0.1-0.1,0.2-0.3,0.4-0.5
				c0.2-0.2,0.4-0.4,0.6-0.5l0,0C212.1,172.3,212.7,172.1,213.3,172.1z M237.6,167.9c0.1-0.2,0.3-0.4,0.6-0.5
				c0.3-0.1,0.7-0.1,1.1-0.1s0.8,0,1.1,0.1c0.3,0.1,0.5,0.2,0.6,0.3c0.1,0.1,0.3,0.3,0.3,0.5l0,0c0.1,0.3,0.1,0.7,0.1,1.2l0,0v13.2
				c0,0.4,0,0.6,0,0.8c0,0.2-0.1,0.4-0.2,0.6l0,0c-0.2,0.4-0.8,0.6-1.9,0.6l0,0c-1.1,0-1.8-0.3-2-0.9l0,0c-0.1-0.3-0.1-0.7-0.1-1.2
				l0,0v-4.8H231v4.9c0,0.4,0,0.6,0,0.8c0,0.2-0.1,0.4-0.2,0.6l0,0c-0.2,0.4-0.8,0.6-1.9,0.6l0,0c-1.1,0-1.8-0.3-2-0.9l0,0
				c-0.1-0.3-0.1-0.7-0.1-1.2l0,0v-13.2c0-0.4,0-0.6,0-0.8c0-0.2,0.1-0.4,0.2-0.6l0,0c0.2-0.4,0.8-0.6,1.9-0.6l0,0
				c1.1,0,1.8,0.3,2,0.9l0,0c0.1,0.3,0.1,0.7,0.1,1.2l0,0v4.9h6.3v-4.9c0-0.4,0-0.6,0-0.8C237.4,168.3,237.5,168.1,237.6,167.9z
				 M243.1,178.4c0-1.9,0.7-3.5,2-4.7c1.3-1.2,2.9-1.9,4.6-1.9c1.7,0,3.2,0.6,4.5,1.8c1.3,1.2,2,2.8,2,4.7l0,0c0,1.3-0.3,2.5-1,3.5
				c-0.7,1-1.5,1.8-2.5,2.3s-2,0.7-3,0.7s-2.1-0.3-3-0.8c-1-0.5-1.8-1.3-2.5-2.3C243.4,180.8,243.1,179.7,243.1,178.4L243.1,178.4z
				 M248.1,180.1c0.5,0.4,1,0.6,1.5,0.6c0.5,0,1-0.2,1.6-0.6c0.5-0.4,0.8-1,0.8-1.8c0-0.8-0.2-1.4-0.7-1.7c-0.5-0.4-1-0.6-1.6-0.6
				c-0.6,0-1.1,0.2-1.6,0.6c-0.5,0.4-0.7,1-0.7,1.8C247.3,179.2,247.6,179.7,248.1,180.1z M262.1,180.5L262.1,180.5
				c0.5,0,0.9,0.1,1.2,0.4s0.4,0.8,0.4,1.7c0,0.8-0.1,1.4-0.4,1.7c-0.3,0.3-0.7,0.4-1.2,0.4l0,0c-1.6,0-2.7-0.4-3.4-1.2
				c-0.7-0.8-1-2.1-1-3.8l0,0v-11.4c0-0.4,0-0.6,0-0.8c0-0.2,0.1-0.4,0.2-0.6l0,0c0.2-0.4,0.8-0.6,1.9-0.6l0,0c1,0,1.6,0.2,1.8,0.7
				l0,0c0.1,0.2,0.2,0.4,0.2,0.6s0,0.5,0,0.8l0,0v11.4C261.9,180.2,262,180.5,262.1,180.5z M268.3,179.7c0,0.3,0.1,0.5,0.2,0.6
				c0.1,0.1,0.5,0.1,1,0.1s1,0.1,1.3,0.4s0.5,0.8,0.5,1.7c0,0.8-0.2,1.4-0.6,1.7c-0.4,0.3-0.9,0.4-1.6,0.4l0,0c-3.4,0-5-1.7-5-5l0,0
				l0-11.4c0-0.4,0-0.6,0-0.8s0.1-0.4,0.2-0.6l0,0c0.2-0.4,0.9-0.6,1.9-0.6l0,0c1,0,1.6,0.2,1.8,0.7l0,0c0.2,0.3,0.3,0.8,0.3,1.4
				l0,0V179.7z M280.8,173.5L280.8,173.5c0.1-0.9,0.7-1.3,1.9-1.3l0,0c0.6,0,1.1,0,1.4,0.1c0.3,0.1,0.5,0.3,0.6,0.5
				c0.1,0.2,0.2,0.4,0.2,0.6s0,0.5,0,0.8l0,0v8.3c0,0.4,0,0.6,0,0.8s-0.1,0.4-0.2,0.6l0,0c-0.2,0.4-0.8,0.6-1.6,0.6
				c-0.9,0-1.4-0.1-1.7-0.3c-0.3-0.2-0.5-0.5-0.5-0.9l0,0c-0.6,0.8-1.6,1.3-2.9,1.3s-2.6-0.6-3.8-1.9c-1.2-1.3-1.8-2.7-1.8-4.4
				c0-1.7,0.6-3.1,1.8-4.4c1.2-1.2,2.5-1.9,3.9-1.9l0,0c0.5,0,1,0.1,1.5,0.3c0.4,0.2,0.8,0.4,0.9,0.5
				C280.5,173.1,280.7,173.3,280.8,173.5z M276.5,178.4c0,0.5,0.2,1,0.6,1.4c0.4,0.4,0.9,0.6,1.5,0.6s1.1-0.2,1.5-0.6
				s0.6-0.9,0.6-1.4c0-0.5-0.2-1-0.6-1.4c-0.4-0.4-0.9-0.7-1.5-0.7s-1.1,0.2-1.5,0.7C276.7,177.4,276.5,177.9,276.5,178.4z
				 M293.8,172.1L293.8,172.1c1.6,0,2.9,0.6,4,1.8c1.1,1.2,1.6,2.7,1.6,4.4l0,0v4.2c0,0.4,0,0.6,0,0.8c0,0.2-0.1,0.4-0.2,0.6l0,0
				c-0.2,0.4-0.8,0.6-1.9,0.6l0,0c-1.1,0-1.8-0.3-2-0.9l0,0c-0.1-0.3-0.1-0.7-0.1-1.2l0,0v-4.2c0-0.7-0.2-1.2-0.6-1.5
				s-0.9-0.5-1.5-0.5s-1.1,0.2-1.5,0.6s-0.6,0.9-0.6,1.5l0,0v4.2c0,0.4,0,0.6,0,0.8s-0.1,0.4-0.2,0.6l0,0c-0.2,0.4-0.8,0.6-1.8,0.6
				l0,0c-1,0-1.6-0.2-1.8-0.6l0,0c-0.1-0.2-0.2-0.4-0.2-0.6c0-0.2,0-0.5,0-0.8l0,0v-8.4c0-0.3,0-0.6,0-0.8c0-0.2,0.1-0.4,0.2-0.6
				l0,0c0.2-0.4,0.8-0.6,1.8-0.6l0,0c1,0,1.6,0.2,1.8,0.5l0,0c0.2,0.3,0.2,0.6,0.2,1l0,0c0.1-0.1,0.2-0.3,0.4-0.5s0.4-0.4,0.6-0.5
				l0,0C292.6,172.3,293.2,172.1,293.8,172.1z M309.7,166.9c0.1-0.2,0.3-0.4,0.6-0.5c0.3-0.1,0.7-0.1,1.2-0.1s0.9,0,1.2,0.1
				c0.3,0.1,0.5,0.3,0.6,0.5s0.2,0.4,0.2,0.6s0,0.5,0,0.8l0,0v14.2c0,0.4,0,0.6,0,0.8s-0.1,0.4-0.2,0.6l0,0c-0.2,0.4-0.9,0.6-2,0.6
				c-1.1,0-1.7-0.4-1.8-1.2l0,0c-0.7,0.8-1.6,1.1-2.8,1.1l0,0c-1.4,0-2.7-0.6-3.9-1.9s-1.8-2.7-1.8-4.4c0-1.7,0.6-3.1,1.8-4.4
				s2.5-1.9,3.9-1.9l0,0c1.2,0,2.1,0.4,2.7,1.2l0,0v-5c0-0.4,0-0.6,0-0.8C309.5,167.3,309.6,167.1,309.7,166.9z M305.8,179.8
				c0.4,0.4,0.9,0.6,1.5,0.6s1.1-0.2,1.5-0.6s0.6-0.9,0.6-1.4s-0.2-1-0.6-1.4s-0.9-0.7-1.5-0.7s-1.1,0.2-1.5,0.7s-0.6,0.9-0.6,1.4
				C305.2,178.9,305.4,179.4,305.8,179.8z M321.5,188.1v-19.8c0-1.1,0.2-1.7,0.7-1.9l0,0c0.2-0.1,0.6-0.1,0.9-0.1
				c0.4,0,0.7,0,0.9,0.1c0.2,0.1,0.4,0.3,0.5,0.5l0,0c0.1,0.3,0.2,0.8,0.2,1.4l0,0v19.8c0,1.1-0.2,1.7-0.7,1.9l0,0
				c-0.2,0.1-0.6,0.1-0.9,0.1c-0.4,0-0.7,0-0.9-0.1c-0.2-0.1-0.4-0.3-0.5-0.5l0,0C321.6,189.2,321.5,188.8,321.5,188.1L321.5,188.1z
				 M334.9,167.2h9.4c0.4,0,0.6,0,0.8,0c0.2,0,0.4,0.1,0.6,0.2c0.2,0.1,0.4,0.3,0.5,0.6s0.1,0.7,0.1,1.2c0,0.5,0,0.9-0.1,1.2
				s-0.3,0.5-0.5,0.6c-0.2,0.1-0.4,0.2-0.6,0.2c-0.2,0-0.5,0-0.8,0l0,0h-7.3v2.4h4.7c0.4,0,0.7,0,0.8,0c0.2,0,0.4,0.1,0.6,0.2l0,0
				c0.4,0.2,0.6,0.9,0.6,1.9l0,0c0,1.1-0.3,1.8-0.9,2l0,0c-0.3,0.1-0.7,0.1-1.2,0.1l0,0h-4.7v4.5c0,0.4,0,0.7,0,0.8
				c0,0.2-0.1,0.4-0.2,0.6l0,0c-0.2,0.4-0.8,0.6-1.9,0.6l0,0c-1.1,0-1.8-0.3-2-0.9l0,0c-0.1-0.3-0.1-0.7-0.1-1.2l0,0v-13.2
				c0-0.8,0.2-1.4,0.5-1.7C333.5,167.4,334.1,167.2,334.9,167.2L334.9,167.2z M347.4,182.6v-8.4c0-0.4,0-0.6,0-0.8s0.1-0.4,0.2-0.6
				l0,0c0.2-0.4,0.8-0.6,1.9-0.6l0,0c0.8,0,1.3,0.1,1.6,0.4l0,0c0.3,0.2,0.4,0.6,0.4,1l0,0c0,0.2,0,0.4,0,0.7l0,0v8.3
				c0,0.4,0,0.6,0,0.8s-0.1,0.4-0.2,0.6l0,0c-0.2,0.4-0.8,0.6-1.8,0.6l0,0c-1,0-1.6-0.2-1.8-0.6l0,0c-0.1-0.2-0.2-0.4-0.2-0.6
				S347.4,183,347.4,182.6L347.4,182.6z M351.3,169.8c-0.1,0.2-0.3,0.4-0.6,0.5c-0.3,0.1-0.7,0.1-1.2,0.1s-0.9,0-1.2-0.1
				c-0.3-0.1-0.5-0.3-0.6-0.5s-0.2-0.4-0.2-0.6s0-0.5,0-0.8c0-0.4,0-0.6,0-0.8c0-0.2,0.1-0.4,0.2-0.6l0,0c0.2-0.4,0.8-0.6,1.9-0.6
				l0,0c1,0,1.6,0.2,1.8,0.6l0,0c0.1,0.2,0.2,0.4,0.2,0.6s0,0.5,0,0.8s0,0.6,0,0.8S351.5,169.6,351.3,169.8z M362,172.3
				c0.3,0.1,0.6,0.3,0.8,0.5c0.2,0.2,0.3,0.6,0.3,1.1s-0.2,1.1-0.5,1.7c-0.3,0.6-0.7,0.9-1.3,0.9l0,0c-0.3,0-0.6-0.1-0.8-0.2
				s-0.6-0.2-1-0.2s-0.8,0.2-1.2,0.5c-0.4,0.3-0.6,0.7-0.6,1.1l0,0v5c0,0.4,0,0.6,0,0.8c0,0.2-0.1,0.4-0.2,0.6l0,0
				c-0.2,0.4-0.9,0.6-1.9,0.6l0,0c-0.8,0-1.3-0.1-1.6-0.4l0,0c-0.3-0.2-0.4-0.6-0.4-1l0,0c0-0.2,0-0.4,0-0.7l0,0v-8.4
				c0-0.4,0-0.6,0-0.8c0-0.2,0.1-0.4,0.2-0.6l0,0c0.2-0.4,0.8-0.6,1.9-0.6l0,0c1,0,1.5,0.2,1.8,0.5l0,0c0.2,0.3,0.3,0.5,0.3,0.8l0,0
				c0.1-0.1,0.2-0.2,0.3-0.4c0.2-0.2,0.5-0.4,1-0.6c0.5-0.3,0.9-0.4,1.3-0.4c0.4,0,0.7,0,0.9,0.1C361.4,172.1,361.7,172.2,362,172.3
				z M364,183.6L364,183.6c-0.3-0.2-0.5-0.5-0.5-0.9c0-0.4,0.3-1,0.9-1.9l0,0c0.2-0.3,0.5-0.4,0.8-0.4c0.4,0,0.9,0.2,1.6,0.6
				c0.7,0.4,1.3,0.6,1.8,0.6l0,0c1,0,1.5-0.2,1.5-0.6l0,0c0-0.3-0.5-0.5-1.6-0.7l0,0c-1-0.1-2-0.5-3-1.1l0,0
				c-0.5-0.3-0.8-0.7-1.1-1.3c-0.3-0.6-0.5-1.3-0.5-2.2l0,0c0-2.5,1.7-3.8,5.2-3.8l0,0c1.1,0,2.3,0.3,3.5,0.8l0,0
				c0.6,0.3,0.8,0.6,0.8,1s-0.2,0.8-0.5,1.4s-0.7,0.8-1.1,0.8l0,0c-0.2,0-0.5-0.1-1.1-0.4c-0.5-0.2-1.1-0.4-1.7-0.4l0,0
				c-0.9,0-1.4,0.2-1.4,0.5l0,0c0,0.5,0.5,0.8,1.6,0.9l0,0c1,0.1,2.1,0.4,3,0.9l0,0c0.5,0.2,0.8,0.6,1.2,1.2s0.5,1.2,0.5,2.1
				s-0.2,1.5-0.5,2.1s-0.7,1-1.3,1.3l0,0c-1,0.5-2.3,0.7-3.8,0.7C366.9,184.9,365.4,184.5,364,183.6z M382.4,176.3L382.4,176.3
				l-1.5-0.1v3.3c0,0.4,0.1,0.7,0.2,0.9s0.4,0.3,0.8,0.3c0.4,0,0.7,0,0.9,0c0.2,0,0.4,0.1,0.6,0.2l0,0c0.4,0.2,0.5,0.7,0.5,1.6l0,0
				c0,1-0.2,1.6-0.7,1.8l0,0c-0.2,0.1-0.4,0.2-0.6,0.2c-0.2,0-0.4,0-0.8,0l0,0c-1.7,0-2.9-0.4-3.8-1.1s-1.3-2-1.3-3.8l0,0v-3.5
				c-0.3,0-0.6,0.1-1,0.1s-0.6-0.1-0.9-0.4c-0.2-0.3-0.3-0.7-0.3-1.4c0-0.7,0-1.1,0.1-1.4c0.1-0.3,0.2-0.5,0.3-0.6l0,0
				c0.3-0.2,0.6-0.3,1-0.3l0,0l0.8,0.1v-2.5c0-0.4,0-0.6,0-0.8c0-0.2,0.1-0.4,0.2-0.6l0,0c0.2-0.4,0.8-0.6,1.8-0.6l0,0
				c1.1,0,1.7,0.3,1.9,0.9l0,0c0.1,0.3,0.1,0.7,0.1,1.2l0,0v2.3c0.7-0.1,1.2-0.1,1.6-0.1c0.4,0,0.6,0,0.8,0c0.2,0,0.4,0.1,0.6,0.2
				l0,0c0.4,0.2,0.6,0.8,0.6,1.8l0,0c0,1-0.2,1.6-0.6,1.8l0,0c-0.2,0.1-0.4,0.2-0.6,0.2C383.1,176.3,382.8,176.3,382.4,176.3z
				 M402.8,180.1L402.8,180.1l0.4-0.3c0.5-0.3,0.9-0.5,1.1-0.5l0,0c0.5,0,1,0.4,1.6,1.3l0,0c0.3,0.6,0.5,1,0.5,1.3s-0.1,0.6-0.3,0.8
				c-0.2,0.2-0.5,0.4-0.8,0.6c-0.3,0.2-0.6,0.3-0.8,0.5c-0.3,0.2-0.8,0.4-1.6,0.6c-0.8,0.3-1.6,0.4-2.3,0.4c-0.8,0-1.5-0.1-2.3-0.3
				c-0.8-0.2-1.6-0.5-2.4-1c-0.8-0.5-1.6-1-2.2-1.7c-0.7-0.7-1.2-1.5-1.6-2.6c-0.4-1.1-0.6-2.2-0.6-3.4s0.2-2.4,0.6-3.4
				s0.9-1.8,1.6-2.5c0.6-0.7,1.4-1.2,2.2-1.7l0,0c1.6-0.9,3.1-1.3,4.7-1.3l0,0c0.7,0,1.5,0.1,2.3,0.3c0.8,0.2,1.4,0.5,1.8,0.7l0,0
				l0.6,0.3c0.3,0.2,0.5,0.3,0.7,0.4l0,0c0.4,0.3,0.6,0.7,0.6,1.1s-0.2,0.9-0.5,1.3l0,0c-0.6,0.9-1.2,1.3-1.7,1.3l0,0
				c-0.3,0-0.7-0.2-1.2-0.5l0,0c-0.7-0.5-1.6-0.8-2.7-0.8l0,0c-1,0-2,0.4-3,1.1l0,0c-0.5,0.3-0.9,0.8-1.2,1.5
				c-0.3,0.6-0.5,1.4-0.5,2.2s0.2,1.5,0.5,2.2c0.3,0.6,0.7,1.1,1.2,1.5l0,0c1,0.7,2,1,3,1l0,0c0.5,0,1-0.1,1.4-0.2
				C402.3,180.4,402.6,180.2,402.8,180.1z M415,172.2L415,172.2c1.6,0,2.9,0.6,4,1.8c1.1,1.2,1.6,2.7,1.6,4.4l0,0v4.2
				c0,0.4,0,0.6,0,0.8c0,0.2-0.1,0.4-0.2,0.6l0,0c-0.2,0.4-0.8,0.6-1.8,0.6l0,0c-1,0-1.6-0.2-1.8-0.6l0,0c-0.1-0.2-0.2-0.5-0.2-0.6
				c0-0.2,0-0.5,0-0.9l0,0v-4.2c0-0.7-0.2-1.2-0.5-1.5s-0.8-0.5-1.4-0.5s-1.1,0.2-1.5,0.5c-0.4,0.3-0.7,0.7-0.7,1.2l0,0v4.6
				c0,0.4,0,0.6,0,0.8c0,0.2-0.1,0.4-0.2,0.6l0,0c-0.2,0.4-0.8,0.6-1.8,0.6l0,0c-1,0-1.6-0.2-1.8-0.6l0,0c-0.1-0.2-0.2-0.4-0.2-0.6
				c0-0.2,0-0.5,0-0.8l0,0v-14.2c0-0.4,0-0.6,0-0.8c0-0.2,0.1-0.4,0.2-0.6l0,0c0.2-0.4,0.8-0.6,1.9-0.6l0,0c1,0,1.6,0.2,1.8,0.6l0,0
				c0.1,0.2,0.2,0.4,0.2,0.6c0,0.2,0,0.5,0,0.8l0,0v5.3C413,172.7,413.9,172.2,415,172.2z M430.6,173.5L430.6,173.5
				c0.1-0.9,0.7-1.3,1.9-1.3l0,0c0.6,0,1.1,0,1.4,0.1c0.3,0.1,0.5,0.3,0.6,0.5c0.1,0.2,0.2,0.4,0.2,0.6c0,0.2,0,0.5,0,0.8l0,0v8.3
				c0,0.4,0,0.6,0,0.8c0,0.2-0.1,0.4-0.2,0.6l0,0c-0.2,0.4-0.8,0.6-1.6,0.6c-0.9,0-1.4-0.1-1.7-0.3c-0.3-0.2-0.5-0.5-0.5-0.9l0,0
				c-0.6,0.8-1.6,1.3-2.9,1.3s-2.6-0.6-3.8-1.9c-1.2-1.3-1.8-2.7-1.8-4.4c0-1.7,0.6-3.1,1.8-4.4c1.2-1.2,2.5-1.9,3.9-1.9l0,0
				c0.5,0,1,0.1,1.5,0.3c0.4,0.2,0.8,0.4,0.9,0.5C430.3,173.1,430.5,173.3,430.6,173.5z M426.3,178.4c0,0.5,0.2,1,0.6,1.4
				c0.4,0.4,0.9,0.6,1.5,0.6c0.6,0,1.1-0.2,1.5-0.6s0.6-0.9,0.6-1.4c0-0.5-0.2-1-0.6-1.4c-0.4-0.4-0.9-0.7-1.5-0.7
				c-0.6,0-1.1,0.2-1.5,0.7C426.4,177.4,426.3,177.9,426.3,178.4z M436.6,182.6v-8.4c0-0.4,0-0.6,0-0.8s0.1-0.4,0.2-0.6l0,0
				c0.2-0.4,0.8-0.6,1.9-0.6l0,0c0.8,0,1.3,0.1,1.6,0.4l0,0c0.3,0.2,0.4,0.6,0.4,1l0,0c0,0.2,0,0.4,0,0.7l0,0v8.3c0,0.4,0,0.6,0,0.8
				c0,0.2-0.1,0.4-0.2,0.6l0,0c-0.2,0.4-0.8,0.6-1.8,0.6l0,0c-1,0-1.6-0.2-1.8-0.6l0,0c-0.1-0.2-0.2-0.4-0.2-0.6
				S436.6,183,436.6,182.6L436.6,182.6z M440.6,169.8c-0.1,0.2-0.3,0.4-0.6,0.5c-0.3,0.1-0.7,0.1-1.2,0.1s-0.9,0-1.2-0.1
				c-0.3-0.1-0.5-0.3-0.6-0.5c-0.1-0.2-0.2-0.4-0.2-0.6s0-0.5,0-0.8c0-0.4,0-0.6,0-0.8c0-0.2,0.1-0.4,0.2-0.6l0,0
				c0.2-0.4,0.8-0.6,1.9-0.6l0,0c1,0,1.6,0.2,1.8,0.6l0,0c0.1,0.2,0.2,0.4,0.2,0.6c0,0.2,0,0.5,0,0.8s0,0.6,0,0.8
				C440.7,169.4,440.7,169.6,440.6,169.8z M451.2,172.3c0.3,0.1,0.6,0.3,0.8,0.5c0.2,0.2,0.3,0.6,0.3,1.1s-0.2,1.1-0.5,1.7
				c-0.3,0.6-0.7,0.9-1.3,0.9l0,0c-0.3,0-0.6-0.1-0.8-0.2c-0.3-0.1-0.6-0.2-1-0.2s-0.8,0.2-1.2,0.5c-0.4,0.3-0.6,0.7-0.6,1.1l0,0v5
				c0,0.4,0,0.6,0,0.8s-0.1,0.4-0.2,0.6l0,0c-0.2,0.4-0.9,0.6-1.9,0.6l0,0c-0.8,0-1.3-0.1-1.6-0.4l0,0c-0.3-0.2-0.4-0.6-0.4-1l0,0
				c0-0.2,0-0.4,0-0.7l0,0v-8.4c0-0.4,0-0.6,0-0.8c0-0.2,0.1-0.4,0.2-0.6l0,0c0.2-0.4,0.8-0.6,1.9-0.6l0,0c1,0,1.5,0.2,1.8,0.5l0,0
				c0.2,0.3,0.3,0.5,0.3,0.8l0,0c0.1-0.1,0.2-0.2,0.3-0.4c0.2-0.2,0.5-0.4,1-0.6c0.5-0.3,0.9-0.4,1.3-0.4c0.4,0,0.7,0,0.9,0.1
				C450.6,172.1,450.9,172.2,451.2,172.3z"/>
		</g>
	</g>
	<g transform="rotate(0 173.719 0)">
		<g transform="matrix(1 0 0 1 0 0)">
			<g>
				<path class="st1" d="M239.2,36.1l30.4-15.7l32.7,22.7l-32.9,13.4C269.5,56.4,239.2,36.1,239.2,36.1L239.2,36.1z"/>
				<path class="st1" d="M206.6,13.4L239.4,0l30.3,20.4l-32.8,13.4L206.6,13.4z"/>
				<path class="st0" d="M206.5,13.4v35.5l30.3,20.4V33.8C236.9,33.8,206.5,13.4,206.5,13.4z"/>
				<path class="st0" d="M206.4,84.1l-2.3,33.7l32.6,22.2v-35.5C236.6,104.5,206.4,84.1,206.4,84.1z"/>
				<path class="st1" d="M173.7,62.3l32.9-13.4l30.3,20.4L204,82.7C204,82.6,173.7,62.3,173.7,62.3z"/>
				<path class="st0" d="M173.7,62.3v35.5l30.3,20.3V82.6C204,82.7,173.7,62.3,173.7,62.3z"/>
				<path class="st2" d="M302.1,42.9L269.7,56v-0.2h-0.1l0.1-35.4l-32.8,13.4v35.6l-32.8,13.4v35.5l32.6-13.3v35.2l32.8-13.4
					l0.1-34.9l32.6-13.3L302.1,42.9z"/>
			</g>
		</g>
	</g>
</g>
</svg>
