<?xml version="1.0" encoding="utf-8"?>
<!-- Generator: Adobe Illustrator 24.2.1, SVG Export Plug-In . SVG Version: 6.00 Build 0)  -->
<svg version="1.1" id="Layer_1" xmlns="http://www.w3.org/2000/svg" xmlns:xlink="http://www.w3.org/1999/xlink" x="0px" y="0px"
	 viewBox="0 0 528.6 120" style="enable-background:new 0 0 528.6 120;" xml:space="preserve">
<style type="text/css">
	.st0{fill:#B6C1D9;}
	.st1{fill:#768CAA;}
	.st2{fill:#EFEFEF;}
</style>
<g>
	<g transform="rotate(45 264.2762 0)">
		
			<rect x="264.3" y="0" transform="matrix(2.535182e-06 1 -1 2.535182e-06 349.1281 -264.276)" class="st0" width="84.9" height="84.9"/>
	</g>
	<g transform="rotate(0 45.5141 92)">
		<g transform="matrix(1 0 0 1 0 0)">
			<path class="st1" d="M47.2,103.1h6.9v1.5h-8.6V92.7h8.4v1.5h-6.7v3.7h6v1.4h-6V103.1z M65.4,95.6H67l-3.9,9h-1.7l-3.9-9h1.7
				l3.1,7.2L65.4,95.6z M79,100.2c0,0.1,0,0.3,0,0.5l0,0h-7.3c0.1,0.8,0.5,1.4,1,1.9c0.6,0.5,1.3,0.7,2.2,0.7l0,0
				c1.1,0,1.9-0.4,2.6-1.1l0,0l0.9,1.1c-0.4,0.5-0.9,0.8-1.5,1.1c-0.6,0.2-1.3,0.4-2,0.4l0,0c-1,0-1.8-0.2-2.5-0.6
				c-0.7-0.4-1.3-0.9-1.7-1.6c-0.4-0.7-0.6-1.5-0.6-2.4l0,0c0-0.9,0.2-1.7,0.6-2.4c0.4-0.7,0.9-1.2,1.6-1.6s1.5-0.6,2.3-0.6l0,0
				c0.9,0,1.6,0.2,2.3,0.6c0.7,0.4,1.2,0.9,1.6,1.6C78.8,98.4,79,99.2,79,100.2L79,100.2z M74.5,96.9c-0.8,0-1.4,0.2-2,0.7
				c-0.5,0.5-0.8,1.1-0.9,1.9l0,0h5.8c-0.1-0.8-0.4-1.4-0.9-1.9C76,97.1,75.3,96.9,74.5,96.9L74.5,96.9z M85.3,97.1
				c0.3-0.5,0.7-0.9,1.3-1.2c0.6-0.3,1.2-0.4,2-0.4l0,0v1.6c-0.1,0-0.2,0-0.4,0l0,0c-0.9,0-1.6,0.3-2.1,0.8
				c-0.5,0.5-0.8,1.3-0.8,2.3l0,0v4.5h-1.6v-9h1.6V97.1z M99.9,95.6h1.6l-4.4,9.9c-0.4,0.9-0.8,1.6-1.4,1.9s-1.1,0.6-1.9,0.6l0,0
				c-0.4,0-0.9-0.1-1.3-0.2c-0.4-0.1-0.8-0.3-1-0.6l0,0l0.7-1.2c0.5,0.4,1,0.7,1.6,0.7l0,0c0.4,0,0.7-0.1,1-0.3
				c0.3-0.2,0.5-0.6,0.7-1.1l0,0l0.3-0.6l-4-9h1.7l3.1,7.2L99.9,95.6z M115.3,104.6V94.2h-4.1v-1.5h9.8v1.5H117v10.4H115.3z
				 M128.1,104.7c-0.9,0-1.7-0.2-2.4-0.6c-0.7-0.4-1.3-0.9-1.7-1.6c-0.4-0.7-0.6-1.5-0.6-2.4l0,0c0-0.9,0.2-1.7,0.6-2.4
				c0.4-0.7,1-1.2,1.7-1.6c0.7-0.4,1.5-0.6,2.4-0.6l0,0c0.9,0,1.7,0.2,2.4,0.6s1.3,0.9,1.7,1.6c0.4,0.7,0.6,1.5,0.6,2.4l0,0
				c0,0.9-0.2,1.7-0.6,2.4c-0.4,0.7-1,1.2-1.7,1.6S129,104.7,128.1,104.7L128.1,104.7z M128.1,103.3c0.6,0,1.1-0.1,1.6-0.4
				s0.8-0.6,1.1-1.1s0.4-1,0.4-1.7l0,0c0-0.6-0.1-1.2-0.4-1.7s-0.6-0.9-1.1-1.1s-1-0.4-1.6-0.4l0,0c-0.6,0-1.1,0.1-1.6,0.4
				s-0.8,0.6-1.1,1.1c-0.3,0.5-0.4,1-0.4,1.7l0,0c0,0.6,0.1,1.2,0.4,1.7c0.3,0.5,0.6,0.9,1.1,1.1S127.6,103.3,128.1,103.3
				L128.1,103.3z M141.5,104.7c-0.9,0-1.7-0.2-2.4-0.6s-1.3-0.9-1.7-1.6c-0.4-0.7-0.6-1.5-0.6-2.4l0,0c0-0.9,0.2-1.7,0.6-2.4
				c0.4-0.7,1-1.2,1.7-1.6s1.5-0.6,2.4-0.6l0,0c0.9,0,1.7,0.2,2.4,0.6s1.3,0.9,1.7,1.6c0.4,0.7,0.6,1.5,0.6,2.4l0,0
				c0,0.9-0.2,1.7-0.6,2.4c-0.4,0.7-1,1.2-1.7,1.6S142.4,104.7,141.5,104.7L141.5,104.7z M141.5,103.3c0.6,0,1.1-0.1,1.6-0.4
				s0.8-0.6,1.1-1.1c0.3-0.5,0.4-1,0.4-1.7l0,0c0-0.6-0.1-1.2-0.4-1.7c-0.3-0.5-0.6-0.9-1.1-1.1s-1-0.4-1.6-0.4l0,0
				c-0.6,0-1.1,0.1-1.6,0.4s-0.8,0.6-1.1,1.1c-0.3,0.5-0.4,1-0.4,1.7l0,0c0,0.6,0.1,1.2,0.4,1.7c0.3,0.5,0.6,0.9,1.1,1.1
				S140.9,103.3,141.5,103.3L141.5,103.3z M151,104.6V92h1.6v12.6H151z M163,95.5c0.9,0,1.7,0.2,2.3,0.6c0.7,0.4,1.2,0.9,1.6,1.6
				c0.4,0.7,0.6,1.5,0.6,2.4l0,0c0,0.9-0.2,1.7-0.6,2.4c-0.4,0.7-0.9,1.2-1.6,1.6c-0.7,0.4-1.5,0.6-2.3,0.6l0,0
				c-0.7,0-1.3-0.1-1.8-0.4c-0.6-0.3-1-0.6-1.4-1.1l0,0v1.4h-1.6V92h1.6v5c0.4-0.5,0.8-0.8,1.4-1.1C161.8,95.6,162.4,95.5,163,95.5
				L163,95.5z M162.9,103.3c0.6,0,1.1-0.1,1.6-0.4c0.5-0.3,0.8-0.6,1.1-1.1c0.3-0.5,0.4-1,0.4-1.7l0,0c0-0.6-0.1-1.2-0.4-1.7
				c-0.3-0.5-0.6-0.9-1.1-1.1c-0.5-0.3-1-0.4-1.6-0.4l0,0c-0.6,0-1.1,0.1-1.5,0.4c-0.5,0.3-0.8,0.6-1.1,1.1c-0.3,0.5-0.4,1-0.4,1.7
				l0,0c0,0.6,0.1,1.2,0.4,1.7c0.3,0.5,0.6,0.9,1.1,1.1C161.8,103.1,162.3,103.3,162.9,103.3L162.9,103.3z M176.2,104.7
				c-0.9,0-1.7-0.2-2.4-0.6s-1.3-0.9-1.7-1.6c-0.4-0.7-0.6-1.5-0.6-2.4l0,0c0-0.9,0.2-1.7,0.6-2.4c0.4-0.7,1-1.2,1.7-1.6
				s1.5-0.6,2.4-0.6l0,0c0.9,0,1.7,0.2,2.4,0.6s1.3,0.9,1.7,1.6c0.4,0.7,0.6,1.5,0.6,2.4l0,0c0,0.9-0.2,1.7-0.6,2.4
				c-0.4,0.7-1,1.2-1.7,1.6S177.1,104.7,176.2,104.7L176.2,104.7z M176.2,103.3c0.6,0,1.1-0.1,1.6-0.4s0.8-0.6,1.1-1.1
				s0.4-1,0.4-1.7l0,0c0-0.6-0.1-1.2-0.4-1.7s-0.6-0.9-1.1-1.1s-1-0.4-1.6-0.4l0,0c-0.6,0-1.1,0.1-1.6,0.4s-0.8,0.6-1.1,1.1
				c-0.3,0.5-0.4,1-0.4,1.7l0,0c0,0.6,0.1,1.2,0.4,1.7c0.3,0.5,0.6,0.9,1.1,1.1S175.7,103.3,176.2,103.3L176.2,103.3z M193,104.6
				h-1.9l-2.6-3.4l-2.6,3.4h-1.8l3.5-4.6l-3.4-4.4h1.8l2.5,3.2l2.5-3.2h1.8l-3.4,4.4L193,104.6z M213.2,92.7h1.7v11.9h-1.4l-7.1-8.9
				v8.9h-1.7V92.7h1.4l7.1,8.9V92.7z M228.9,100.2c0,0.1,0,0.3,0,0.5l0,0h-7.3c0.1,0.8,0.5,1.4,1,1.9s1.3,0.7,2.2,0.7l0,0
				c1.1,0,1.9-0.4,2.6-1.1l0,0l0.9,1.1c-0.4,0.5-0.9,0.8-1.5,1.1c-0.6,0.2-1.3,0.4-2,0.4l0,0c-1,0-1.8-0.2-2.5-0.6
				c-0.7-0.4-1.3-0.9-1.7-1.6c-0.4-0.7-0.6-1.5-0.6-2.4l0,0c0-0.9,0.2-1.7,0.6-2.4c0.4-0.7,0.9-1.2,1.6-1.6c0.7-0.4,1.5-0.6,2.3-0.6
				l0,0c0.9,0,1.6,0.2,2.3,0.6c0.7,0.4,1.2,0.9,1.6,1.6C228.7,98.4,228.9,99.2,228.9,100.2L228.9,100.2z M224.5,96.9
				c-0.8,0-1.4,0.2-2,0.7c-0.5,0.5-0.8,1.1-0.9,1.9l0,0h5.8c-0.1-0.8-0.4-1.4-0.9-1.9C225.9,97.1,225.3,96.9,224.5,96.9L224.5,96.9z
				 M241.9,100.2c0,0.1,0,0.3,0,0.5l0,0h-7.3c0.1,0.8,0.5,1.4,1,1.9s1.3,0.7,2.2,0.7l0,0c1.1,0,1.9-0.4,2.6-1.1l0,0l0.9,1.1
				c-0.4,0.5-0.9,0.8-1.5,1.1c-0.6,0.2-1.3,0.4-2,0.4l0,0c-1,0-1.8-0.2-2.5-0.6s-1.3-0.9-1.7-1.6c-0.4-0.7-0.6-1.5-0.6-2.4l0,0
				c0-0.9,0.2-1.7,0.6-2.4c0.4-0.7,0.9-1.2,1.6-1.6c0.7-0.4,1.5-0.6,2.3-0.6l0,0c0.9,0,1.6,0.2,2.3,0.6s1.2,0.9,1.6,1.6
				C241.7,98.4,241.9,99.2,241.9,100.2L241.9,100.2z M237.4,96.9c-0.8,0-1.4,0.2-2,0.7c-0.5,0.5-0.8,1.1-0.9,1.9l0,0h5.8
				c-0.1-0.8-0.4-1.4-0.9-1.9C238.8,97.1,238.2,96.9,237.4,96.9L237.4,96.9z M253.5,92h1.6v12.6h-1.6v-1.4c-0.4,0.5-0.8,0.9-1.4,1.1
				c-0.6,0.3-1.2,0.4-1.8,0.4l0,0c-0.9,0-1.7-0.2-2.3-0.6c-0.7-0.4-1.2-0.9-1.6-1.6c-0.4-0.7-0.6-1.5-0.6-2.4l0,0
				c0-0.9,0.2-1.7,0.6-2.4c0.4-0.7,0.9-1.2,1.6-1.6c0.7-0.4,1.5-0.6,2.3-0.6l0,0c0.6,0,1.2,0.1,1.8,0.4c0.5,0.2,1,0.6,1.4,1.1l0,0
				V92z M250.5,103.3c0.6,0,1.1-0.1,1.5-0.4c0.5-0.3,0.8-0.6,1.1-1.1s0.4-1,0.4-1.7l0,0c0-0.6-0.1-1.2-0.4-1.7s-0.6-0.9-1.1-1.1
				c-0.5-0.3-1-0.4-1.5-0.4l0,0c-0.6,0-1.1,0.1-1.6,0.4c-0.5,0.3-0.8,0.6-1.1,1.1c-0.3,0.5-0.4,1-0.4,1.7l0,0c0,0.6,0.1,1.2,0.4,1.7
				c0.3,0.5,0.6,0.9,1.1,1.1C249.4,103.1,249.9,103.3,250.5,103.3L250.5,103.3z M263.4,104.7c-0.7,0-1.4-0.1-2.1-0.3
				c-0.7-0.2-1.2-0.5-1.6-0.8l0,0l0.7-1.3c0.4,0.3,0.9,0.5,1.4,0.7c0.6,0.2,1.1,0.3,1.7,0.3l0,0c1.4,0,2.1-0.4,2.1-1.2l0,0
				c0-0.3-0.1-0.5-0.3-0.6c-0.2-0.2-0.4-0.3-0.7-0.3c-0.3-0.1-0.7-0.2-1.2-0.2l0,0c-0.7-0.1-1.3-0.2-1.8-0.4
				c-0.5-0.1-0.9-0.4-1.2-0.7c-0.3-0.4-0.5-0.8-0.5-1.5l0,0c0-0.8,0.3-1.5,1-2s1.6-0.7,2.7-0.7l0,0c0.6,0,1.2,0.1,1.8,0.2
				s1.1,0.3,1.5,0.6l0,0l-0.7,1.3c-0.7-0.5-1.6-0.7-2.6-0.7l0,0c-0.7,0-1.2,0.1-1.6,0.3c-0.4,0.2-0.5,0.5-0.5,0.9l0,0
				c0,0.3,0.1,0.5,0.3,0.7c0.2,0.2,0.5,0.3,0.8,0.4c0.3,0.1,0.7,0.2,1.3,0.3l0,0c0.7,0.1,1.3,0.3,1.8,0.4c0.4,0.1,0.8,0.4,1.1,0.7
				c0.3,0.3,0.5,0.8,0.5,1.4l0,0c0,0.8-0.3,1.5-1,1.9C265.5,104.5,264.6,104.7,263.4,104.7L263.4,104.7z M282.3,95.5
				c1.2,0,2.2,0.3,2.9,0.9c0.7,0.6,1,1.5,1,2.7l0,0v5.4h-1.5v-1.2c-0.3,0.4-0.7,0.7-1.2,1c-0.5,0.2-1.1,0.3-1.8,0.3l0,0
				c-1,0-1.8-0.2-2.4-0.7s-0.9-1.1-0.9-1.9l0,0c0-0.8,0.3-1.4,0.9-1.9c0.6-0.5,1.5-0.7,2.8-0.7l0,0h2.6v-0.3c0-0.7-0.2-1.2-0.6-1.6
				s-1-0.6-1.8-0.6l0,0c-0.5,0-1.1,0.1-1.6,0.3c-0.5,0.2-0.9,0.4-1.3,0.7l0,0l-0.7-1.2c0.5-0.4,1-0.7,1.7-0.9
				C280.8,95.6,281.5,95.5,282.3,95.5L282.3,95.5z M281.9,103.4c0.6,0,1.2-0.1,1.6-0.4c0.5-0.3,0.8-0.7,1-1.2l0,0v-1.3H282
				c-1.4,0-2.1,0.5-2.1,1.4l0,0c0,0.5,0.2,0.8,0.5,1.1C280.8,103.3,281.3,103.4,281.9,103.4L281.9,103.4z M307.6,92.7h1.7v11.9h-1.7
				v-5.3h-6.8v5.3H299V92.7h1.7v5.1h6.8V92.7z M318.4,95.5c1.2,0,2.2,0.3,2.9,0.9s1,1.5,1,2.7l0,0v5.4h-1.5v-1.2
				c-0.3,0.4-0.7,0.7-1.2,1c-0.5,0.2-1.1,0.3-1.8,0.3l0,0c-1,0-1.8-0.2-2.4-0.7c-0.6-0.5-0.9-1.1-0.9-1.9l0,0c0-0.8,0.3-1.4,0.9-1.9
				c0.6-0.5,1.5-0.7,2.8-0.7l0,0h2.6v-0.3c0-0.7-0.2-1.2-0.6-1.6c-0.4-0.4-1-0.6-1.8-0.6l0,0c-0.5,0-1.1,0.1-1.6,0.3
				c-0.5,0.2-0.9,0.4-1.3,0.7l0,0l-0.7-1.2c0.5-0.4,1-0.7,1.7-0.9S317.7,95.5,318.4,95.5L318.4,95.5z M318,103.4
				c0.6,0,1.2-0.1,1.6-0.4c0.5-0.3,0.8-0.7,1-1.2l0,0v-1.3h-2.5c-1.4,0-2.1,0.5-2.1,1.4l0,0c0,0.5,0.2,0.8,0.5,1.1
				C316.9,103.3,317.4,103.4,318,103.4L318,103.4z M339.1,95.5c1.1,0,2,0.3,2.7,1c0.7,0.7,1,1.6,1,2.9l0,0v5.2h-1.6v-5
				c0-0.9-0.2-1.5-0.6-2c-0.4-0.4-1-0.7-1.7-0.7l0,0c-0.8,0-1.5,0.3-2,0.8c-0.5,0.5-0.7,1.3-0.7,2.2l0,0v4.6h-1.6v-5
				c0-0.9-0.2-1.5-0.6-2c-0.4-0.4-1-0.7-1.7-0.7l0,0c-0.8,0-1.5,0.3-2,0.8c-0.5,0.5-0.7,1.3-0.7,2.2l0,0v4.6h-1.6v-9h1.6v1.3
				c0.3-0.5,0.8-0.8,1.3-1.1c0.5-0.2,1.1-0.4,1.8-0.4l0,0c0.7,0,1.3,0.1,1.9,0.4c0.5,0.3,1,0.7,1.3,1.2l0,0c0.3-0.5,0.8-0.9,1.4-1.2
				C337.7,95.7,338.3,95.5,339.1,95.5L339.1,95.5z M359.6,95.5c1.1,0,2,0.3,2.7,1c0.7,0.7,1,1.6,1,2.9l0,0v5.2h-1.6v-5
				c0-0.9-0.2-1.5-0.6-2s-1-0.7-1.7-0.7l0,0c-0.8,0-1.5,0.3-2,0.8c-0.5,0.5-0.7,1.3-0.7,2.2l0,0v4.6H355v-5c0-0.9-0.2-1.5-0.6-2
				s-1-0.7-1.7-0.7l0,0c-0.8,0-1.5,0.3-2,0.8c-0.5,0.5-0.7,1.3-0.7,2.2l0,0v4.6h-1.6v-9h1.6v1.3c0.3-0.5,0.8-0.8,1.3-1.1
				c0.5-0.2,1.1-0.4,1.8-0.4l0,0c0.7,0,1.3,0.1,1.9,0.4c0.5,0.3,1,0.7,1.3,1.2l0,0c0.3-0.5,0.8-0.9,1.4-1.2
				C358.2,95.7,358.8,95.5,359.6,95.5L359.6,95.5z M377,100.2c0,0.1,0,0.3,0,0.5l0,0h-7.3c0.1,0.8,0.5,1.4,1,1.9s1.3,0.7,2.2,0.7
				l0,0c1.1,0,1.9-0.4,2.6-1.1l0,0l0.9,1.1c-0.4,0.5-0.9,0.8-1.5,1.1c-0.6,0.2-1.3,0.4-2,0.4l0,0c-1,0-1.8-0.2-2.5-0.6
				c-0.7-0.4-1.3-0.9-1.7-1.6c-0.4-0.7-0.6-1.5-0.6-2.4l0,0c0-0.9,0.2-1.7,0.6-2.4c0.4-0.7,0.9-1.2,1.6-1.6s1.5-0.6,2.3-0.6l0,0
				c0.9,0,1.6,0.2,2.3,0.6c0.7,0.4,1.2,0.9,1.6,1.6C376.8,98.4,377,99.2,377,100.2L377,100.2z M372.6,96.9c-0.8,0-1.4,0.2-2,0.7
				c-0.5,0.5-0.8,1.1-0.9,1.9l0,0h5.8c-0.1-0.8-0.4-1.4-0.9-1.9C374,97.1,373.4,96.9,372.6,96.9L372.6,96.9z M383.4,97.1
				c0.3-0.5,0.7-0.9,1.3-1.2c0.6-0.3,1.2-0.4,2-0.4l0,0v1.6c-0.1,0-0.2,0-0.4,0l0,0c-0.9,0-1.6,0.3-2.1,0.8
				c-0.5,0.5-0.8,1.3-0.8,2.3l0,0v4.5h-1.6v-9h1.6V97.1z M398.7,107.9V92h1.5v15.9H398.7z M416.9,104.7c-0.9,0-1.8-0.1-2.6-0.4
				c-0.8-0.3-1.5-0.6-2-1.1l0,0l0.6-1.3c0.5,0.4,1,0.7,1.7,1c0.7,0.3,1.4,0.4,2.2,0.4l0,0c1,0,1.7-0.2,2.2-0.5
				c0.5-0.3,0.7-0.8,0.7-1.3l0,0c0-0.4-0.1-0.7-0.4-1c-0.3-0.3-0.6-0.5-1-0.6s-0.9-0.3-1.7-0.5l0,0c-0.9-0.2-1.6-0.4-2.2-0.6
				c-0.5-0.2-1-0.5-1.4-1c-0.4-0.4-0.6-1.1-0.6-1.8l0,0c0-0.6,0.2-1.2,0.5-1.7c0.3-0.5,0.8-0.9,1.5-1.2s1.5-0.5,2.5-0.5l0,0
				c0.7,0,1.4,0.1,2.1,0.3s1.3,0.4,1.7,0.8l0,0l-0.6,1.4c-0.5-0.3-1-0.6-1.6-0.7c-0.6-0.2-1.1-0.2-1.7-0.2l0,0c-1,0-1.7,0.2-2.2,0.5
				c-0.5,0.4-0.7,0.8-0.7,1.4l0,0c0,0.4,0.1,0.7,0.4,1s0.6,0.5,1,0.6c0.4,0.1,0.9,0.3,1.6,0.5l0,0c0.9,0.2,1.6,0.4,2.2,0.6
				c0.5,0.2,1,0.5,1.4,1c0.4,0.4,0.6,1,0.6,1.8l0,0c0,0.6-0.2,1.2-0.5,1.7c-0.3,0.5-0.9,0.9-1.5,1.2S417.9,104.7,416.9,104.7
				L416.9,104.7z M430.9,102.9l0.5,1.2c-0.2,0.2-0.5,0.4-0.9,0.5c-0.4,0.1-0.7,0.2-1.1,0.2l0,0c-0.9,0-1.6-0.2-2.1-0.7
				s-0.7-1.2-0.7-2.1l0,0v-4.9H425v-1.3h1.5v-2h1.6v2h2.6v1.3h-2.6v4.9c0,0.5,0.1,0.9,0.4,1.1c0.2,0.3,0.6,0.4,1,0.4l0,0
				C430.1,103.3,430.5,103.2,430.9,102.9L430.9,102.9z M439.4,104.7c-0.9,0-1.7-0.2-2.4-0.6c-0.7-0.4-1.3-0.9-1.7-1.6
				c-0.4-0.7-0.6-1.5-0.6-2.4l0,0c0-0.9,0.2-1.7,0.6-2.4c0.4-0.7,1-1.2,1.7-1.6c0.7-0.4,1.5-0.6,2.4-0.6l0,0c0.9,0,1.7,0.2,2.4,0.6
				c0.7,0.4,1.3,0.9,1.7,1.6c0.4,0.7,0.6,1.5,0.6,2.4l0,0c0,0.9-0.2,1.7-0.6,2.4c-0.4,0.7-1,1.2-1.7,1.6
				C441.1,104.5,440.3,104.7,439.4,104.7L439.4,104.7z M439.4,103.3c0.6,0,1.1-0.1,1.6-0.4s0.8-0.6,1.1-1.1s0.4-1,0.4-1.7l0,0
				c0-0.6-0.1-1.2-0.4-1.7s-0.6-0.9-1.1-1.1s-1-0.4-1.6-0.4l0,0c-0.6,0-1.1,0.1-1.6,0.4s-0.8,0.6-1.1,1.1c-0.3,0.5-0.4,1-0.4,1.7
				l0,0c0,0.6,0.1,1.2,0.4,1.7c0.3,0.5,0.6,0.9,1.1,1.1S438.9,103.3,439.4,103.3L439.4,103.3z M453.7,95.5c0.9,0,1.7,0.2,2.3,0.6
				c0.7,0.4,1.2,0.9,1.6,1.6s0.6,1.5,0.6,2.4l0,0c0,0.9-0.2,1.7-0.6,2.4s-0.9,1.2-1.6,1.6c-0.7,0.4-1.5,0.6-2.3,0.6l0,0
				c-0.6,0-1.2-0.1-1.8-0.4s-1-0.6-1.4-1.1l0,0v4.7h-1.6V95.6h1.6V97c0.4-0.5,0.8-0.9,1.4-1.1C452.4,95.6,453,95.5,453.7,95.5
				L453.7,95.5z M453.6,103.3c0.6,0,1.1-0.1,1.6-0.4s0.8-0.6,1.1-1.1s0.4-1,0.4-1.7l0,0c0-0.6-0.1-1.2-0.4-1.7s-0.6-0.9-1.1-1.1
				s-1-0.4-1.6-0.4l0,0c-0.6,0-1.1,0.1-1.5,0.4s-0.8,0.6-1.1,1.1s-0.4,1-0.4,1.6l0,0c0,0.6,0.1,1.2,0.4,1.7c0.3,0.5,0.6,0.9,1.1,1.1
				S453,103.3,453.6,103.3L453.6,103.3z M470.4,104.6V92.7h1.7v11.9H470.4z M482.5,102.9l0.5,1.2c-0.2,0.2-0.5,0.4-0.9,0.5
				c-0.4,0.1-0.7,0.2-1.1,0.2l0,0c-0.9,0-1.6-0.2-2.1-0.7s-0.7-1.2-0.7-2.1l0,0v-4.9h-1.5v-1.3h1.5v-2h1.6v2h2.6v1.3h-2.6v4.9
				c0,0.5,0.1,0.9,0.4,1.1c0.2,0.3,0.6,0.4,1,0.4l0,0C481.8,103.3,482.2,103.2,482.5,102.9L482.5,102.9z"/>
		</g>
	</g>
	<g transform="rotate(0 0 48)">
		<g transform="matrix(1 0 0 1 0 0)">
			<path class="st2" d="M5.7,66.2L5.7,66.2c-1.1,0-2.1-0.1-3-0.3c-0.9-0.2-1.7-0.5-2.5-0.9l0,0L0,60.8h0.5l2.1,3.3
				c0.3,0.3,0.7,0.5,1.2,0.6s0.9,0.3,1.4,0.3l0,0c0.8,0,1.5-0.2,2.1-0.5s0.8-0.9,0.8-1.7l0,0c0-0.4-0.1-0.8-0.3-1.1S7.2,61,6.6,60.7
				S5.2,60,4,59.5l0,0c-1.1-0.5-2-1.1-2.6-1.8s-0.9-1.6-0.9-2.6l0,0c0-0.7,0.2-1.4,0.6-2s0.9-1.2,1.5-1.6c0.6-0.5,1.3-0.8,2.1-1.1
				c0.8-0.3,1.5-0.4,2.3-0.4l0,0c0.9,0,1.7,0.1,2.5,0.3c0.8,0.2,1.6,0.5,2.2,0.8l0,0l0.2,3.8h-0.4l-2-2.8c-0.4-0.3-0.7-0.5-1.1-0.6
				c-0.4-0.2-0.8-0.2-1.3-0.2l0,0c-0.6,0-1.1,0.2-1.5,0.6c-0.4,0.4-0.6,0.9-0.6,1.5l0,0c0,0.4,0.1,0.7,0.3,1c0.2,0.3,0.5,0.6,1,0.9
				c0.5,0.3,1.1,0.6,1.9,1l0,0c1.5,0.6,2.5,1.3,3.2,2.1c0.7,0.8,1,1.7,1,2.8l0,0c0,1.1-0.3,2-0.9,2.7c-0.6,0.8-1.4,1.3-2.5,1.8
				S6.9,66.2,5.7,66.2z M26.8,66H14.2v-0.4l1.8-0.8V53.7l-1.8-0.8v-0.4h8.3v0.4l-2,0.8v11h3.9l2-4.2h0.4V66z M36.1,66.2L36.1,66.2
				c-1.5,0-2.7-0.3-3.9-0.9c-1.1-0.6-2-1.4-2.7-2.5c-0.6-1.1-1-2.2-1-3.6l0,0c0-1.3,0.3-2.5,1-3.6c0.6-1.1,1.5-1.9,2.7-2.5
				c1.1-0.6,2.4-0.9,3.9-0.9l0,0c1.5,0,2.7,0.3,3.9,0.9c1.1,0.6,2,1.4,2.7,2.5c0.6,1.1,1,2.2,1,3.6l0,0c0,1.3-0.3,2.5-1,3.6
				c-0.6,1.1-1.5,1.9-2.7,2.5C38.8,65.9,37.5,66.2,36.1,66.2z M36.4,65L36.4,65c0.5,0,1-0.2,1.4-0.7c0.4-0.4,0.7-1.1,0.9-1.8
				c0.2-0.8,0.3-1.6,0.3-2.6l0,0c0-1.2-0.1-2.3-0.4-3.3c-0.3-1-0.6-1.7-1.1-2.3s-1-0.8-1.6-0.8l0,0c-0.5,0-1,0.2-1.4,0.7
				c-0.4,0.4-0.7,1.1-0.9,1.8c-0.2,0.8-0.3,1.6-0.3,2.6l0,0c0,1.2,0.1,2.3,0.4,3.2c0.3,1,0.6,1.7,1.1,2.3C35.2,64.7,35.8,65,36.4,65
				z M52.5,66.1h-2.3l-4-12.2l-1.6-1v-0.4h7.9v0.4l-1.7,0.8l2.2,7.1h0.1l3.5-8.2h2.3l3.5,8.2h0.1l2.2-7.1l-1.7-0.7v-0.4h4.7v0.4
				l-1.4,0.7l-4.1,12.4h-2.3l-3.6-8.6H56L52.5,66.1z M83.1,66h-8.5v-0.4l2.1-1V51.6l-2.1-1v-0.4h8.5v0.4l-1.8,1v5.6h5.7v-5.6l-1.9-1
				v-0.4h8.5v0.4l-2.1,1v13.1l2.1,1V66H85v-0.4l1.9-1v-6.1h-5.7v6.1l1.8,1V66z M99,66h-4.5v-0.4l1.2-0.7l5.4-12.5h2.7l5.2,12.2
				l1.5,1V66h-7.7v-0.4l1.7-0.7l-1.3-3.1h-4.8l-1.3,3l1.7,0.8V66z M101,56.2l-1.8,4.4h3.7L101,56.2z M117.4,66h-5.9v-0.4l1.8-0.8
				V53.7l-1.8-0.8v-0.4h5l7.9,8.3v-7.1l-2.5-0.8v-0.4h5.9v0.4l-1.8,0.8v12.4h-2.2l-8.9-9.2v7.9l2.5,0.8V66z M137.2,66h-8v-0.4
				l1.8-0.8V53.7l-1.8-0.8v-0.4h8.2c1.7,0,3.1,0.3,4.3,0.8c1.2,0.5,2.1,1.3,2.7,2.2c0.6,0.9,0.9,2,0.9,3.1l0,0c0,1.4-0.3,2.7-1,3.8
				c-0.7,1.1-1.6,2-2.9,2.6C140.2,65.7,138.8,66,137.2,66L137.2,66z M135.7,53.8L135.7,53.8h-0.2v10.9h0.6c1.5,0,2.7-0.5,3.5-1.4
				c0.8-1,1.2-2.3,1.2-4l0,0c0-1.7-0.4-3.1-1.2-4C138.6,54.3,137.4,53.8,135.7,53.8z M166.9,66h-14.2v-0.4l2.1-1V51.6l-2.1-1v-0.4
				h9.1v0.4l-2.4,1v13.1h4.9l2.2-4.9h0.4V66z M176.2,66.2L176.2,66.2c-1.5,0-2.7-0.3-3.9-0.9c-1.1-0.6-2-1.4-2.7-2.5
				c-0.6-1.1-1-2.2-1-3.6l0,0c0-1.3,0.3-2.5,1-3.6c0.6-1.1,1.5-1.9,2.7-2.5c1.1-0.6,2.4-0.9,3.9-0.9l0,0c1.5,0,2.7,0.3,3.9,0.9
				c1.1,0.6,2,1.4,2.7,2.5c0.6,1.1,1,2.2,1,3.6l0,0c0,1.3-0.3,2.5-1,3.6c-0.6,1.1-1.5,1.9-2.7,2.5C178.9,65.9,177.6,66.2,176.2,66.2
				z M176.4,65L176.4,65c0.5,0,1-0.2,1.4-0.7c0.4-0.4,0.7-1.1,0.9-1.8c0.2-0.8,0.3-1.6,0.3-2.6l0,0c0-1.2-0.1-2.3-0.4-3.3
				c-0.3-1-0.6-1.7-1.1-2.3s-1-0.8-1.6-0.8l0,0c-0.5,0-1,0.2-1.4,0.7c-0.4,0.4-0.7,1.1-0.9,1.8c-0.2,0.8-0.3,1.6-0.3,2.6l0,0
				c0,1.2,0.1,2.3,0.4,3.2c0.3,1,0.6,1.7,1.1,2.3C175.3,64.7,175.9,65,176.4,65z M192.8,66.2L192.8,66.2c-1.3,0-2.6-0.3-3.7-0.8
				c-1.1-0.6-2-1.3-2.7-2.4c-0.7-1-1-2.2-1-3.6l0,0c0-1.1,0.2-2.1,0.7-3s1-1.6,1.8-2.3s1.7-1.1,2.7-1.4c1-0.3,2.1-0.5,3.2-0.5l0,0
				c1.1,0,1.9,0.1,2.7,0.3c0.7,0.2,1.4,0.4,2,0.7l0,0l0.3,3.7h-0.4l-2-3c-0.3-0.2-0.7-0.3-1-0.4c-0.3-0.1-0.7-0.1-1.1-0.1l0,0
				c-1.4,0-2.4,0.6-3.1,1.7s-1,2.6-1,4.3l0,0c0,1,0.1,2,0.4,2.8c0.3,0.8,0.7,1.5,1.2,1.9c0.6,0.5,1.3,0.7,2.2,0.7l0,0
				c0.1,0,0.2,0,0.3,0l0,0v-3.8l-1.8-1v-0.4h7.9v0.4l-1.6,1v3.4c-0.4,0.3-0.8,0.6-1.4,0.9c-0.6,0.3-1.3,0.5-2,0.6
				C194.3,66.2,193.6,66.2,192.8,66.2z M205.2,66h-4.5v-0.4l1.2-0.7l5.4-12.5h2.7l5.2,12.2l1.5,1V66h-7.7v-0.4l1.7-0.7l-1.3-3.1
				h-4.8l-1.3,3l1.7,0.8V66z M207.2,56.2l-1.8,4.4h3.7L207.2,56.2z M223.7,66h-5.9v-0.4l1.8-0.8V53.7l-1.8-0.8v-0.4h5l7.9,8.3v-7.1
				l-2.5-0.8v-0.4h5.9v0.4l-1.8,0.8v12.4H230l-8.9-9.2v7.9l2.5,0.8V66z M250,66h-8.5v-0.4l2.1-1V51.6l-2.1-1v-0.4h8.5v0.4l-1.8,1
				v5.6h5.7v-5.6l-1.9-1v-0.4h8.5v0.4l-2.1,1v13.1l2.1,1V66h-8.5v-0.4l1.9-1v-6.1h-5.7v6.1l1.8,1V66z M269.5,66.2L269.5,66.2
				c-1.5,0-2.7-0.3-3.9-0.9c-1.1-0.6-2-1.4-2.7-2.5c-0.6-1.1-1-2.2-1-3.6l0,0c0-1.3,0.3-2.5,1-3.6c0.6-1.1,1.5-1.9,2.7-2.5
				c1.1-0.6,2.4-0.9,3.9-0.9l0,0c1.5,0,2.7,0.3,3.9,0.9c1.1,0.6,2,1.4,2.7,2.5c0.6,1.1,1,2.2,1,3.6l0,0c0,1.3-0.3,2.5-1,3.6
				c-0.6,1.1-1.5,1.9-2.7,2.5C272.2,65.9,271,66.2,269.5,66.2z M269.8,65L269.8,65c0.5,0,1-0.2,1.4-0.7c0.4-0.4,0.7-1.1,0.9-1.8
				s0.3-1.6,0.3-2.6l0,0c0-1.2-0.1-2.3-0.4-3.3c-0.3-1-0.6-1.7-1.1-2.3c-0.5-0.6-1-0.8-1.6-0.8l0,0c-0.5,0-1,0.2-1.4,0.7
				c-0.4,0.4-0.7,1.1-0.9,1.8c-0.2,0.8-0.3,1.6-0.3,2.6l0,0c0,1.2,0.1,2.3,0.4,3.2c0.3,1,0.6,1.7,1.1,2.3
				C268.7,64.7,269.2,65,269.8,65z M291.2,66h-12.6v-0.4l1.8-0.8V53.7l-1.8-0.8v-0.4h8.3v0.4l-2,0.8v11h3.9l2-4.2h0.4V66z M305.5,66
				h-12.6v-0.4l1.8-0.8V53.7l-1.8-0.8v-0.4h8.3v0.4l-2,0.8v11h3.9l2-4.2h0.4V66z M311.1,66h-4.5v-0.4l1.2-0.7l5.4-12.5h2.7l5.2,12.2
				l1.5,1V66H315v-0.4l1.7-0.7l-1.3-3.1h-4.8l-1.3,3l1.7,0.8V66z M313.1,56.2l-1.8,4.4h3.7L313.1,56.2z M329.6,66h-5.9v-0.4l1.8-0.8
				V53.7l-1.8-0.8v-0.4h5l7.9,8.3v-7.1l-2.5-0.8v-0.4h5.9v0.4l-1.8,0.8v12.4H336l-8.9-9.2v7.9l2.5,0.8V66z M349.4,66h-8v-0.4
				l1.8-0.8V53.7l-1.8-0.8v-0.4h8.2c1.7,0,3.1,0.3,4.3,0.8c1.2,0.5,2.1,1.3,2.7,2.2c0.6,0.9,0.9,2,0.9,3.1l0,0c0,1.4-0.3,2.7-1,3.8
				c-0.7,1.1-1.6,2-2.9,2.6C352.3,65.7,350.9,66,349.4,66L349.4,66z M347.9,53.8L347.9,53.8h-0.2v10.9h0.6c1.5,0,2.7-0.5,3.5-1.4
				c0.8-1,1.2-2.3,1.2-4l0,0c0-1.7-0.4-3.1-1.2-4C350.8,54.3,349.5,53.8,347.9,53.8z M367.8,72h-1.2V48h1.2V72z M386.2,66h-9.3v-0.4
				l2.1-1V51.6l-2.1-1v-0.4h13.7v4.2h-0.4l-1.7-2.9h-4.9v5.8h3.2l1.4-2.1h0.4v5.3h-0.4l-1.4-2.1h-3.2v6.2l2.6,1V66z M400.1,66h-7.8
				v-0.4l1.6-0.8V53.7l-1.6-0.8v-0.4h7.8v0.4l-1.8,0.8v11.1l1.8,0.8V66z M409.3,66h-7.8v-0.4l1.8-0.8V53.7l-1.8-0.8v-0.4h8.7
				c1.4,0,2.6,0.3,3.4,0.8c0.8,0.6,1.2,1.3,1.2,2.3l0,0c0,0.7-0.2,1.3-0.6,1.8c-0.4,0.5-1.1,0.9-2,1.2l0,0l3.6,6l1.6,0.8V66h-6
				l-3.2-6.1h-0.5v4.9l1.5,0.8V66z M408.1,53.6L408.1,53.6h-0.3v5.2h0.4c0.8,0,1.4-0.2,1.8-0.7c0.3-0.5,0.5-1.1,0.5-1.9l0,0
				c0-0.8-0.2-1.4-0.5-1.9S409,53.6,408.1,53.6z M423,66.2L423,66.2c-0.9,0-1.8-0.1-2.5-0.3s-1.4-0.5-2.1-0.8l0,0l-0.2-3.5h0.4
				l2.1,2.9c0.7,0.3,1.4,0.5,2.1,0.5l0,0c0.7,0,1.3-0.1,1.7-0.4c0.4-0.3,0.6-0.6,0.6-1.1l0,0c0-0.4-0.1-0.7-0.3-0.9
				c-0.2-0.2-0.5-0.5-1-0.7c-0.5-0.3-1.2-0.6-2.1-1l0,0c-1-0.4-1.7-1-2.2-1.7c-0.5-0.7-0.8-1.5-0.8-2.4l0,0c0-0.8,0.2-1.6,0.7-2.2
				s1.2-1.2,2-1.6c0.8-0.4,1.7-0.6,2.7-0.6l0,0c0.8,0,1.5,0.1,2.2,0.3c0.7,0.2,1.3,0.4,1.8,0.7l0,0l0.2,3.3h-0.4l-2.2-2.8
				c-0.4-0.2-0.9-0.2-1.5-0.2l0,0c-0.5,0-1,0.1-1.3,0.4c-0.4,0.3-0.5,0.7-0.5,1.2l0,0c0,0.3,0.1,0.6,0.3,0.8
				c0.2,0.2,0.5,0.5,0.9,0.7c0.4,0.2,0.9,0.5,1.6,0.9l0,0c1.2,0.6,2.1,1.2,2.7,1.9c0.6,0.7,0.9,1.5,0.9,2.5l0,0
				c0,0.9-0.3,1.7-0.8,2.3c-0.5,0.6-1.2,1.1-2.1,1.5C425,66.1,424,66.2,423,66.2z M420.1,64.2l-0.2-0.2
				C420,64.1,420,64.1,420.1,64.2L420.1,64.2z M441.9,66h-9v-0.4l2.3-0.8v-11h-2.5l-1.9,3.6h-0.4v-4.9h14v4.9h-0.4l-1.9-3.6h-2.5v11
				l2.3,0.8V66z M460.7,66.2L460.7,66.2c-1.3,0-2.5-0.2-3.5-0.6c-1.1-0.4-2-1-2.8-1.7c-0.8-0.7-1.4-1.6-1.8-2.5
				c-0.4-1-0.6-2-0.6-3.1l0,0c0-1.2,0.3-2.4,0.8-3.4s1.2-1.9,2.1-2.7c0.9-0.8,1.8-1.3,2.9-1.8s2.2-0.6,3.4-0.6l0,0
				c0.9,0,1.6,0,2.1,0.1c0.6,0.1,1.1,0.2,1.5,0.4c0.4,0.2,0.9,0.4,1.4,0.6l0,0l0.4,4.7h-0.4l-2.8-4.2c-0.3-0.1-0.6-0.2-0.8-0.3
				c-0.3-0.1-0.6-0.1-1.1-0.1l0,0c-0.9,0-1.6,0.3-2.3,0.9s-1.2,1.4-1.6,2.5c-0.4,1.1-0.6,2.4-0.6,3.9l0,0c0,1.3,0.2,2.5,0.6,3.5
				c0.4,1,0.9,1.7,1.6,2.3s1.4,0.8,2.3,0.8l0,0c0.4,0,0.8,0,1.2-0.1c0.4-0.1,0.8-0.2,1.2-0.4l0,0l2.7-3.6h0.4l-0.4,4.2
				c-0.6,0.4-1.4,0.7-2.4,1C462.8,66.1,461.8,66.2,460.7,66.2z M476.5,66h-7.8v-0.4l1.8-0.8V53.7l-1.8-0.8v-0.4h7.8v0.4l-1.6,0.8
				v4.7h4.2v-4.7l-1.6-0.8v-0.4h7.8v0.4l-1.8,0.8v11.1l1.8,0.8V66h-7.8v-0.4l1.6-0.8v-5.1H475v5.1l1.6,0.8V66z M490.8,66h-4.5v-0.4
				l1.2-0.7l5.4-12.5h2.7l5.2,12.2l1.5,1V66h-7.7v-0.4l1.7-0.7l-1.3-3.1h-4.8l-1.3,3l1.7,0.8V66z M492.8,56.2l-1.8,4.4h3.7
				L492.8,56.2z M511.2,66h-7.8v-0.4l1.6-0.8V53.7l-1.6-0.8v-0.4h7.8v0.4l-1.8,0.8v11.1l1.8,0.8V66z M520.5,66h-7.8v-0.4l1.8-0.8
				V53.7l-1.8-0.8v-0.4h8.7c1.4,0,2.6,0.3,3.4,0.8c0.8,0.6,1.2,1.3,1.2,2.3l0,0c0,0.7-0.2,1.3-0.6,1.8c-0.4,0.5-1.1,0.9-2,1.2l0,0
				l3.6,6l1.6,0.8V66h-6l-3.2-6.1h-0.5v4.9l1.5,0.8V66z M519.3,53.6L519.3,53.6h-0.3v5.2h0.4c0.8,0,1.4-0.2,1.8-0.7
				c0.3-0.5,0.5-1.1,0.5-1.9l0,0c0-0.8-0.2-1.4-0.5-1.9C520.7,53.8,520.1,53.6,519.3,53.6z"/>
		</g>
	</g>
</g>
</svg>
