<?xml version="1.0" encoding="utf-8"?>
<!-- Generator: Adobe Illustrator 24.2.1, SVG Export Plug-In . SVG Version: 6.00 Build 0)  -->
<svg version="1.1" id="Layer_1" xmlns="http://www.w3.org/2000/svg" xmlns:xlink="http://www.w3.org/1999/xlink" x="0px" y="0px"
	 viewBox="0 0 454.4 193.9" style="enable-background:new 0 0 454.4 193.9;" xml:space="preserve">
<style type="text/css">
	.st0{fill:#EFEFEF;}
	.st1{fill:#768CAA;}
</style>
<g>
	<g transform="rotate(0 0 171.6585)">
		<g transform="matrix(1 0 0 1 0 0)">
			<path class="st0" d="M0,172.8h10.4v2H2.1v4.8h7.3v2H2.1v4.9h8.5v2.1H0V172.8z M21.6,179.6h2.3L19,189h-0.1l-5.1-9.4h2.4l2.8,5.8
				L21.6,179.6z M31.4,187.2c0.8,0,1.5-0.3,2.2-0.8l0,0l0.9,1.5c-0.5,0.3-1,0.6-1.6,0.8c-0.6,0.2-1.1,0.3-1.6,0.3l0,0
				c-1,0-1.9-0.2-2.7-0.6c-0.8-0.4-1.3-1-1.8-1.7c-0.4-0.7-0.6-1.6-0.6-2.5l0,0c0-0.9,0.2-1.7,0.7-2.5s1.1-1.3,1.8-1.8
				c0.8-0.4,1.6-0.6,2.6-0.6l0,0c1.2,0,2.2,0.3,3,1c0.8,0.7,1.3,1.7,1.6,2.9l0,0l-7.2,2.5c0.3,0.5,0.6,0.8,1.1,1.1
				S30.9,187.2,31.4,187.2L31.4,187.2z M31.3,180.9c-0.8,0-1.5,0.3-2.1,0.9c-0.5,0.6-0.8,1.3-0.8,2.2l0,0c0,0.2,0,0.4,0,0.5l0,0
				l5.3-2c-0.2-0.5-0.5-0.9-0.9-1.2C32.4,181,31.9,180.9,31.3,180.9L31.3,180.9z M41.9,181.8c0.2-0.5,0.6-0.9,1-1.3
				c0.4-0.4,0.9-0.7,1.4-0.9c0.5-0.2,0.9-0.3,1.3-0.3l0,0l-0.1,2c-0.7,0-1.3,0.1-1.8,0.4c-0.5,0.3-1,0.7-1.3,1.2
				c-0.3,0.5-0.5,1.1-0.5,1.7l0,0v4.2h-2v-9.1h1.8L41.9,181.8z M56.3,179.6h1.9l-5.9,13.5h-2l2.1-4.7l-4.2-8.8h2.3l3,6.5L56.3,179.6
				z M69.4,172.8h10.6v2h-4.3v13.9h-2.1v-13.9h-4.2V172.8z M81,184.1c0-0.9,0.2-1.7,0.6-2.5c0.4-0.7,1-1.3,1.8-1.8s1.6-0.6,2.6-0.6
				l0,0c1,0,1.8,0.2,2.6,0.6c0.8,0.4,1.3,1,1.8,1.7c0.4,0.7,0.6,1.6,0.6,2.5l0,0c0,0.9-0.2,1.7-0.6,2.5c-0.4,0.7-1,1.3-1.8,1.8
				c-0.8,0.4-1.6,0.6-2.6,0.6l0,0c-1,0-1.8-0.2-2.6-0.6c-0.8-0.4-1.4-1-1.8-1.7C81.2,185.9,81,185,81,184.1L81,184.1z M83.1,184.1
				c0,0.6,0.1,1.1,0.4,1.6s0.6,0.9,1.1,1.1c0.4,0.3,0.9,0.4,1.5,0.4l0,0c0.9,0,1.6-0.3,2.1-0.9s0.8-1.4,0.8-2.2l0,0
				c0-0.9-0.3-1.6-0.8-2.3s-1.3-0.9-2.1-0.9l0,0c-0.6,0-1.1,0.1-1.5,0.4s-0.8,0.7-1,1.2S83.1,183.5,83.1,184.1L83.1,184.1z
				 M94.3,184.1c0-0.9,0.2-1.7,0.6-2.5c0.4-0.7,1-1.3,1.8-1.8c0.8-0.4,1.6-0.6,2.6-0.6l0,0c1,0,1.8,0.2,2.6,0.6
				c0.8,0.4,1.3,1,1.8,1.7c0.4,0.7,0.6,1.6,0.6,2.5l0,0c0,0.9-0.2,1.7-0.6,2.5c-0.4,0.7-1,1.3-1.8,1.8c-0.8,0.4-1.6,0.6-2.6,0.6l0,0
				c-1,0-1.8-0.2-2.6-0.6c-0.8-0.4-1.4-1-1.8-1.7C94.6,185.9,94.3,185,94.3,184.1L94.3,184.1z M96.4,184.1c0,0.6,0.1,1.1,0.4,1.6
				c0.3,0.5,0.6,0.9,1.1,1.1c0.4,0.3,0.9,0.4,1.5,0.4l0,0c0.9,0,1.6-0.3,2.1-0.9s0.8-1.4,0.8-2.2l0,0c0-0.9-0.3-1.6-0.8-2.3
				s-1.3-0.9-2.1-0.9l0,0c-0.6,0-1.1,0.1-1.5,0.4s-0.8,0.7-1,1.2C96.5,183,96.4,183.5,96.4,184.1L96.4,184.1z M108.5,171.7h2v17.1
				h-2V171.7z M121.2,179.2c0.8,0,1.6,0.2,2.3,0.6c0.7,0.4,1.2,1,1.6,1.7c0.4,0.7,0.6,1.6,0.6,2.5l0,0c0,1-0.2,1.9-0.6,2.6
				c-0.4,0.7-1,1.3-1.7,1.7c-0.7,0.4-1.5,0.6-2.4,0.6l0,0c-0.7,0-1.4-0.1-2-0.4c-0.6-0.3-1.1-0.7-1.5-1.2l0,0v1.4h-2v-17.1h2v9.2
				c0.4-0.5,0.9-0.9,1.6-1.2C119.7,179.4,120.4,179.2,121.2,179.2L121.2,179.2z M120.5,187.2c0.9,0,1.6-0.3,2.2-0.9
				c0.6-0.6,0.9-1.4,0.9-2.3l0,0c0-0.6-0.1-1.1-0.4-1.6c-0.3-0.5-0.6-0.9-1.1-1.1c-0.5-0.3-1-0.4-1.6-0.4l0,0c-0.7,0-1.4,0.2-2,0.6
				c-0.6,0.4-0.9,0.9-1.1,1.6l0,0v1.8c0.2,0.7,0.5,1.2,1.1,1.6C119.1,187,119.8,187.2,120.5,187.2L120.5,187.2z M129,184.1
				c0-0.9,0.2-1.7,0.6-2.5s1-1.3,1.8-1.8s1.6-0.6,2.6-0.6l0,0c1,0,1.8,0.2,2.6,0.6c0.8,0.4,1.3,1,1.8,1.7c0.4,0.7,0.6,1.6,0.6,2.5
				l0,0c0,0.9-0.2,1.7-0.6,2.5c-0.4,0.7-1,1.3-1.8,1.8c-0.8,0.4-1.6,0.6-2.6,0.6l0,0c-1,0-1.8-0.2-2.6-0.6c-0.8-0.4-1.4-1-1.8-1.7
				C129.2,185.9,129,185,129,184.1L129,184.1z M131,184.1c0,0.6,0.1,1.1,0.4,1.6s0.6,0.9,1.1,1.1c0.4,0.3,0.9,0.4,1.5,0.4l0,0
				c0.9,0,1.6-0.3,2.1-0.9s0.8-1.4,0.8-2.2l0,0c0-0.9-0.3-1.6-0.8-2.3s-1.3-0.9-2.1-0.9l0,0c-0.6,0-1.1,0.1-1.5,0.4
				c-0.4,0.3-0.8,0.7-1,1.2S131,183.5,131,184.1L131,184.1z M150.9,188.7h-2.5l-2.4-3.2l-2.3,3.2h-2.1l3.3-4.6l-3.5-4.5h2.6l2.4,3.2
				l2-3.2h2.1l-3.2,4.4L150.9,188.7z M175,172.8h2.1v16.4h-0.1l-11.7-11.9l0,11.3h-2.2v-16.4h0.1l11.7,12L175,172.8z M186.8,187.2
				c0.8,0,1.5-0.3,2.2-0.8l0,0l0.9,1.5c-0.5,0.3-1,0.6-1.6,0.8c-0.6,0.2-1.1,0.3-1.6,0.3l0,0c-1,0-1.9-0.2-2.7-0.6
				c-0.8-0.4-1.3-1-1.8-1.7c-0.4-0.7-0.6-1.6-0.6-2.5l0,0c0-0.9,0.2-1.7,0.7-2.5c0.4-0.7,1.1-1.3,1.8-1.8c0.8-0.4,1.6-0.6,2.6-0.6
				l0,0c1.2,0,2.2,0.3,3,1c0.8,0.7,1.3,1.7,1.6,2.9l0,0l-7.2,2.5c0.3,0.5,0.6,0.8,1.1,1.1C185.7,187.1,186.2,187.2,186.8,187.2
				L186.8,187.2z M186.6,180.9c-0.8,0-1.5,0.3-2.1,0.9c-0.5,0.6-0.8,1.3-0.8,2.2l0,0c0,0.2,0,0.4,0,0.5l0,0l5.3-2
				c-0.2-0.5-0.5-0.9-0.9-1.2C187.7,181,187.2,180.9,186.6,180.9L186.6,180.9z M199.6,187.2c0.8,0,1.5-0.3,2.2-0.8l0,0l0.9,1.5
				c-0.5,0.3-1,0.6-1.6,0.8c-0.6,0.2-1.1,0.3-1.6,0.3l0,0c-1,0-1.9-0.2-2.7-0.6c-0.8-0.4-1.3-1-1.8-1.7c-0.4-0.7-0.6-1.6-0.6-2.5
				l0,0c0-0.9,0.2-1.7,0.7-2.5s1.1-1.3,1.8-1.8c0.8-0.4,1.6-0.6,2.6-0.6l0,0c1.2,0,2.2,0.3,3,1c0.8,0.7,1.3,1.7,1.6,2.9l0,0
				l-7.2,2.5c0.3,0.5,0.6,0.8,1.1,1.1C198.5,187.1,199,187.2,199.6,187.2L199.6,187.2z M199.4,180.9c-0.8,0-1.5,0.3-2.1,0.9
				c-0.5,0.6-0.8,1.3-0.8,2.2l0,0c0,0.2,0,0.4,0,0.5l0,0l5.3-2c-0.2-0.5-0.5-0.9-0.9-1.2C200.5,181,200,180.9,199.4,180.9
				L199.4,180.9z M215.5,171.7h2v17.1h-2.1v-1.4c-0.4,0.5-1,0.9-1.6,1.2s-1.3,0.4-2.1,0.4l0,0c-0.9,0-1.6-0.2-2.3-0.6
				s-1.2-1-1.6-1.7c-0.4-0.7-0.6-1.6-0.6-2.6l0,0c0-1,0.2-1.8,0.6-2.6s1-1.3,1.7-1.7c0.7-0.4,1.5-0.6,2.4-0.6l0,0
				c0.7,0,1.4,0.1,2,0.4c0.6,0.3,1.1,0.7,1.5,1.2l0,0V171.7z M212.4,187.2c0.8,0,1.5-0.2,2-0.6s0.9-1,1.1-1.7l0,0v-1.7
				c-0.2-0.7-0.6-1.2-1.1-1.6c-0.6-0.4-1.2-0.6-2-0.6l0,0c-0.6,0-1.1,0.1-1.5,0.4s-0.8,0.6-1.1,1.1c-0.3,0.5-0.4,1-0.4,1.6l0,0
				c0,0.6,0.1,1.1,0.4,1.6c0.3,0.5,0.7,0.9,1.1,1.1S211.9,187.2,212.4,187.2L212.4,187.2z M225,188.9c-0.7,0-1.3-0.1-1.9-0.4
				s-1.1-0.6-1.5-1l0,0l0.9-1.2c0.4,0.4,0.8,0.6,1.2,0.8c0.4,0.2,0.8,0.3,1.2,0.3l0,0c0.5,0,0.9-0.1,1.2-0.3
				c0.3-0.2,0.5-0.5,0.5-0.9l0,0c0-0.3-0.1-0.6-0.3-0.7s-0.4-0.3-0.6-0.4s-0.6-0.2-1.2-0.4l0,0c-1.6-0.5-2.3-1.4-2.3-2.7l0,0
				c0-0.8,0.3-1.4,0.8-2c0.6-0.5,1.4-0.8,2.4-0.8l0,0c0.6,0,1.2,0.1,1.7,0.2c0.5,0.2,1,0.4,1.4,0.8l0,0l-0.8,1.3
				c-0.2-0.2-0.5-0.4-0.9-0.6c-0.4-0.1-0.7-0.2-1-0.2l0,0c-0.4,0-0.8,0.1-1.1,0.3c-0.3,0.2-0.4,0.5-0.4,0.8l0,0
				c0,0.3,0.1,0.5,0.3,0.7c0.2,0.2,0.4,0.3,0.6,0.4c0.2,0.1,0.6,0.2,1.2,0.4l0,0c0.7,0.2,1.3,0.6,1.8,1c0.4,0.4,0.6,0.9,0.6,1.6l0,0
				c0,0.9-0.3,1.6-0.9,2.2C227,188.6,226.1,188.9,225,188.9L225,188.9z M248.5,179.6h1.9v9.1h-2v-1.5c-0.3,0.4-0.8,0.8-1.4,1.2
				c-0.6,0.4-1.3,0.5-2.1,0.5l0,0c-0.9,0-1.6-0.2-2.3-0.6c-0.7-0.4-1.2-0.9-1.7-1.6c-0.4-0.7-0.6-1.6-0.6-2.6l0,0
				c0-1,0.2-1.9,0.6-2.6s1-1.3,1.7-1.7c0.7-0.4,1.5-0.6,2.4-0.6l0,0c0.8,0,1.5,0.2,2,0.5c0.6,0.3,1,0.8,1.4,1.3l0,0L248.5,179.6z
				 M245.4,187.2c0.7,0,1.4-0.2,1.9-0.6s0.9-1,1-1.7l0,0v-1.8c-0.2-0.6-0.5-1.2-1.1-1.6s-1.2-0.6-1.9-0.6l0,0c-0.5,0-1,0.1-1.5,0.4
				c-0.5,0.3-0.8,0.6-1.1,1.1s-0.4,1-0.4,1.6l0,0c0,0.6,0.1,1.1,0.4,1.6c0.3,0.5,0.7,0.9,1.1,1.2S244.8,187.2,245.4,187.2
				L245.4,187.2z M276.7,172.8v15.9h-2.1v-7h-8.3v7h-2.1v-15.9h2.1v6.9h8.3v-6.9H276.7z M289.5,179.6h1.9v9.1h-2v-1.5
				c-0.3,0.4-0.8,0.8-1.4,1.2c-0.6,0.4-1.3,0.5-2.1,0.5l0,0c-0.9,0-1.6-0.2-2.3-0.6c-0.7-0.4-1.2-0.9-1.7-1.6
				c-0.4-0.7-0.6-1.6-0.6-2.6l0,0c0-1,0.2-1.9,0.6-2.6s1-1.3,1.7-1.7c0.7-0.4,1.5-0.6,2.4-0.6l0,0c0.8,0,1.5,0.2,2,0.5
				c0.6,0.3,1,0.8,1.4,1.3l0,0L289.5,179.6z M286.4,187.2c0.7,0,1.4-0.2,1.9-0.6s0.9-1,1-1.7l0,0v-1.8c-0.2-0.6-0.5-1.2-1.1-1.6
				c-0.6-0.4-1.2-0.6-1.9-0.6l0,0c-0.5,0-1,0.1-1.5,0.4c-0.5,0.3-0.8,0.6-1.1,1.1c-0.3,0.5-0.4,1-0.4,1.6l0,0c0,0.6,0.1,1.1,0.4,1.6
				s0.7,0.9,1.1,1.2S285.9,187.2,286.4,187.2L286.4,187.2z M308,179.2c0.9,0,1.6,0.2,2.1,0.7c0.5,0.5,0.8,1.2,0.8,2l0,0v6.8h-2v-6
				c0-1.1-0.5-1.6-1.5-1.7l0,0c-0.5,0-1,0.2-1.4,0.5c-0.4,0.3-0.7,0.7-1,1.2c-0.2,0.5-0.4,1.1-0.4,1.7l0,0v4.3h-2.1v-6
				c0-1.1-0.5-1.6-1.5-1.7l0,0c-0.5,0-1,0.2-1.4,0.5c-0.4,0.3-0.7,0.7-1,1.3c-0.2,0.5-0.4,1.1-0.4,1.7l0,0v4.3h-2v-9.1h1.8l0.2,1.7
				c0.4-0.7,0.8-1.2,1.4-1.5c0.6-0.4,1.3-0.6,2.1-0.6l0,0c0.7,0,1.4,0.2,1.8,0.5s0.8,0.8,1,1.4l0,0c0.4-0.6,0.9-1.1,1.5-1.4
				C306.7,179.4,307.3,179.2,308,179.2L308,179.2z M327.5,179.2c0.9,0,1.6,0.2,2.1,0.7c0.5,0.5,0.8,1.2,0.8,2l0,0v6.8h-2v-6
				c0-1.1-0.5-1.6-1.5-1.7l0,0c-0.5,0-1,0.2-1.4,0.5c-0.4,0.3-0.7,0.7-1,1.2c-0.2,0.5-0.4,1.1-0.4,1.7l0,0v4.3h-2.1v-6
				c0-1.1-0.5-1.6-1.5-1.7l0,0c-0.5,0-1,0.2-1.4,0.5c-0.4,0.3-0.7,0.7-1,1.3c-0.2,0.5-0.4,1.1-0.4,1.7l0,0v4.3h-2v-9.1h1.8l0.2,1.7
				c0.4-0.7,0.8-1.2,1.4-1.5c0.6-0.4,1.3-0.6,2.1-0.6l0,0c0.7,0,1.4,0.2,1.8,0.5c0.5,0.3,0.8,0.8,1,1.4l0,0c0.4-0.6,0.9-1.1,1.5-1.4
				C326.2,179.4,326.8,179.2,327.5,179.2L327.5,179.2z M339.6,187.2c0.8,0,1.5-0.3,2.2-0.8l0,0l0.9,1.5c-0.5,0.3-1,0.6-1.6,0.8
				c-0.6,0.2-1.1,0.3-1.6,0.3l0,0c-1,0-1.9-0.2-2.7-0.6c-0.8-0.4-1.3-1-1.8-1.7c-0.4-0.7-0.6-1.6-0.6-2.5l0,0c0-0.9,0.2-1.7,0.7-2.5
				c0.4-0.7,1.1-1.3,1.8-1.8c0.8-0.4,1.6-0.6,2.6-0.6l0,0c1.2,0,2.2,0.3,3,1c0.8,0.7,1.3,1.7,1.6,2.9l0,0l-7.2,2.5
				c0.3,0.5,0.6,0.8,1.1,1.1C338.5,187.1,339,187.2,339.6,187.2L339.6,187.2z M339.4,180.9c-0.8,0-1.5,0.3-2.1,0.9
				c-0.5,0.6-0.8,1.3-0.8,2.2l0,0c0,0.2,0,0.4,0,0.5l0,0l5.3-2c-0.2-0.5-0.5-0.9-0.9-1.2C340.5,181,340,180.9,339.4,180.9
				L339.4,180.9z M350.1,181.8c0.2-0.5,0.6-0.9,1-1.3c0.4-0.4,0.9-0.7,1.4-0.9s0.9-0.3,1.3-0.3l0,0l-0.1,2c-0.7,0-1.3,0.1-1.8,0.4
				c-0.5,0.3-1,0.7-1.3,1.2c-0.3,0.5-0.5,1.1-0.5,1.7l0,0v4.2h-2v-9.1h1.8L350.1,181.8z M366.2,173.1h1.9v20.8h-1.9V173.1z
				 M390.3,175.6c-0.6-0.3-1.2-0.6-1.8-0.7s-1.3-0.3-1.8-0.3l0,0c-0.9,0-1.6,0.2-2.1,0.6c-0.5,0.4-0.8,0.9-0.8,1.6l0,0
				c0,0.7,0.3,1.2,0.9,1.6c0.6,0.4,1.4,0.8,2.5,1.2l0,0c0.8,0.3,1.5,0.6,2.1,1c0.6,0.3,1,0.8,1.4,1.4s0.6,1.4,0.6,2.3l0,0
				c0,0.9-0.2,1.6-0.6,2.3c-0.4,0.7-1,1.2-1.8,1.6c-0.8,0.4-1.7,0.6-2.8,0.6l0,0c-1,0-1.9-0.2-2.8-0.5c-0.9-0.3-1.7-0.7-2.4-1.2l0,0
				l0.9-1.7c0.5,0.4,1.2,0.8,2,1c0.8,0.3,1.5,0.4,2.1,0.4l0,0c0.9,0,1.6-0.2,2.2-0.7c0.6-0.4,1-1.1,1-2l0,0c0-0.7-0.3-1.3-0.8-1.8
				c-0.5-0.4-1.3-0.8-2.3-1.2l0,0c-0.9-0.3-1.6-0.7-2.2-1c-0.6-0.3-1.1-0.8-1.5-1.3c-0.4-0.6-0.6-1.3-0.6-2.1l0,0
				c0-1.2,0.4-2.3,1.3-3c0.9-0.8,2-1.2,3.4-1.2l0,0c1.7,0,3.3,0.4,4.8,1.3l0,0L390.3,175.6z M396.6,175.6h2.1v4h2.5v1.6h-2.5v7.5
				h-2.1v-7.5h-1.7v-1.6h1.7V175.6z M404.2,184.1c0-0.9,0.2-1.7,0.6-2.5s1-1.3,1.8-1.8c0.8-0.4,1.6-0.6,2.6-0.6l0,0
				c1,0,1.8,0.2,2.6,0.6c0.8,0.4,1.3,1,1.8,1.7c0.4,0.7,0.6,1.6,0.6,2.5l0,0c0,0.9-0.2,1.7-0.6,2.5c-0.4,0.7-1,1.3-1.8,1.8
				s-1.6,0.6-2.6,0.6l0,0c-1,0-1.8-0.2-2.6-0.6c-0.8-0.4-1.4-1-1.8-1.7C404.4,185.9,404.2,185,404.2,184.1L404.2,184.1z
				 M406.3,184.1c0,0.6,0.1,1.1,0.4,1.6c0.3,0.5,0.6,0.9,1.1,1.1s0.9,0.4,1.5,0.4l0,0c0.9,0,1.6-0.3,2.1-0.9s0.8-1.4,0.8-2.2l0,0
				c0-0.9-0.3-1.6-0.8-2.3s-1.3-0.9-2.1-0.9l0,0c-0.6,0-1.1,0.1-1.5,0.4c-0.4,0.3-0.8,0.7-1,1.2C406.4,183,406.3,183.5,406.3,184.1
				L406.3,184.1z M424.1,179.2c0.9,0,1.6,0.2,2.3,0.6c0.7,0.4,1.2,1,1.6,1.7c0.4,0.7,0.6,1.6,0.6,2.6l0,0c0,1-0.2,1.8-0.6,2.5
				c-0.4,0.7-1,1.3-1.8,1.7s-1.6,0.6-2.5,0.6l0,0c-0.7,0-1.3-0.1-1.9-0.4c-0.6-0.3-1.1-0.7-1.5-1.2l0,0v5.7h-2v-13.7h1.8l0.2,1.5
				c0.5-0.5,1-1,1.7-1.3C422.6,179.4,423.3,179.2,424.1,179.2L424.1,179.2z M423.3,187.3c0.6,0,1.1-0.1,1.6-0.4
				c0.5-0.3,0.9-0.6,1.2-1.1c0.3-0.5,0.4-1,0.4-1.6l0,0c0-0.6-0.1-1.1-0.4-1.6c-0.3-0.5-0.6-0.9-1.1-1.1c-0.5-0.3-1-0.4-1.6-0.4l0,0
				c-0.8,0-1.4,0.2-2,0.6s-0.9,1-1.1,1.8l0,0v1.5c0.1,0.7,0.5,1.3,1,1.7S422.5,187.3,423.3,187.3L423.3,187.3z M441.5,172.8h2.1
				v15.9h-2.1V172.8z M449.9,175.6h2.1v4h2.5v1.6h-2.5v7.5h-2.1v-7.5h-1.7v-1.6h1.7V175.6z"/>
		</g>
	</g>
	<g transform="rotate(0 40.8976 123.6585)">
		<g transform="matrix(1 0 0 1 0 0)">
			<path class="st0" d="M41.2,142.3L41.2,142.3c0.2-0.1,0.5-0.1,0.8-0.1l0,0c0.6,0,1.2,0,1.7,0.1c0.5,0.1,1,0.1,1.5,0.2l0,0l0.3-0.2
				l0.9-0.1c0,0,0.1,0,0.1,0l0,0c0.1,0,0.2,0,0.2-0.1s0.1-0.1,0.2-0.1l0,0c0.2,0,0.4,0,0.7-0.1s0.5-0.2,0.6-0.3l0,0
				c0.2-0.5,0.3-1,0.3-1.5c0.1-0.5,0.1-0.9,0.1-1.3l0,0l-0.2-0.4c0-0.1-0.1-0.2-0.2-0.2c-0.2-0.1-0.3-0.1-0.3-0.1l0,0l-0.4-0.1
				c-0.2,0-0.4,0-0.5-0.1s-0.3-0.1-0.5-0.2c-0.2-0.1-0.4-0.1-0.6-0.2s-0.6-0.1-0.9-0.1l0,0h-0.3c-0.1,0-0.1,0-0.1-0.1l0,0
				c-0.2-0.2-0.4-0.3-0.6-0.3c-0.2,0-0.4-0.2-0.5-0.4l0,0c0,0-0.1-0.1-0.2-0.3s-0.1-0.4-0.2-0.6s-0.1-0.4-0.2-0.6s-0.1-0.3-0.1-0.4
				l0,0c0.1,0,0.2-0.1,0.2-0.2l0,0c0,0,0-0.1,0-0.1c0,0,0-0.1,0-0.1l0,0c0,0,0-0.1,0.1-0.2l0,0l0.1-0.1c0.1-0.1,0.1-0.2,0.1-0.2
				s0-0.1,0.1-0.2l0,0v0.3l0.1,0l0.8-2.4l1-1.1l0.6-0.4l0.6,0.2c0.2,0,0.3,0,0.5-0.1s0.4-0.1,0.6-0.1l0,0c0.3,0,0.7,0.1,1.1,0.2
				c0.4,0.1,0.8,0.2,1.2,0.4c0.4,0.2,0.8,0.3,1.1,0.5c0.3,0.2,0.5,0.3,0.6,0.4l0,0c0,0.2-0.1,0.2-0.1,0.2s-0.1,0-0.1,0.1l0,0
				c0,0.1,0,0.1,0,0.1c0,0,0,0.1,0,0.1l0,0c0,0.1-0.1,0.1-0.2,0.2s-0.2,0.1-0.3,0.1l0,0l-1.9-0.2h-0.1c-0.1,0-0.3,0-0.5,0
				c-0.2,0-0.4,0-0.5,0l0,0c-0.3,0-0.6,0.1-0.9,0.3c-0.3,0.2-0.5,0.4-0.7,0.7c-0.2,0.3-0.3,0.6-0.4,1c-0.1,0.4-0.1,0.7-0.1,1.1l0,0
				c0,0.1,0,0.1,0.1,0.2s0.2,0.1,0.3,0.1c0.1,0,0.2,0.1,0.3,0.1c0.1,0,0.2,0,0.3,0l0,0l0.1,0c0.2,0.1,0.3,0.2,0.3,0.2
				c0,0,0.1,0.1,0.2,0.1l0,0h0.1l0.4,0l0.6,0.2c0,0,0.1,0,0.2,0l0,0h0.4c0.4,0.1,0.7,0.3,1,0.4c0.3,0.2,0.6,0.4,0.9,0.6
				s0.5,0.6,0.6,1.1c0.2,0.4,0.2,1,0.2,1.6l0,0c0,0.2,0,0.4,0,0.6c0,0.2-0.1,0.4-0.1,0.6l0,0l0,0.1c0,0-0.1,0.1-0.2,0.3
				c-0.1,0.2-0.2,0.2-0.2,0.3l0,0l-0.1,0.4l-0.2,0.1l-1.3,1.7c-0.3,0-0.6,0.1-0.8,0.2c-0.3,0.1-0.5,0.1-0.8,0.1l0,0
				c0,0-0.1,0-0.3-0.1l0,0c-0.2,0-0.3,0.1-0.5,0.1c-0.2,0-0.3,0-0.5,0l0,0c-0.2,0-0.6,0-1.2-0.1c-0.6,0-1.1-0.1-1.7-0.2
				c-0.6-0.1-1.2-0.2-1.8-0.2c-0.6-0.1-1-0.1-1.2-0.2l0,0c0-0.1,0-0.1,0.1-0.1c0.1,0,0.1-0.1,0.1-0.1l0,0c0,0,0,0,0,0l0,0h0
				c0,0-0.1,0-0.1-0.1l0,0c0,0,0.1,0,0.2,0c0.1,0,0.1-0.1,0.1-0.1l0,0l-0.1-0.2l0.1-0.1c0,0,0-0.1,0.1-0.1c0,0,0,0,0-0.1l0,0
				c0-0.1,0-0.2-0.1-0.1C41.2,142.5,41.2,142.4,41.2,142.3z M43.5,132.5L43.5,132.5c0,0,0,0.2-0.1,0.4c-0.1,0.2-0.1,0.4-0.1,0.4l0,0
				c-0.1,0-0.1,0-0.1-0.1l0,0c0,0,0-0.1,0.1-0.3S43.4,132.5,43.5,132.5z M43.7,131.6L43.7,131.6C43.7,131.6,43.8,131.6,43.7,131.6
				L43.7,131.6l0.1,0l-0.3,0.5c0,0-0.1,0-0.1-0.1l0,0c0,0,0-0.1,0.1-0.2C43.6,131.7,43.7,131.6,43.7,131.6z M58.2,131.9L58.2,131.9
				c0,0.2-0.1,0.4-0.1,0.5c-0.1,0.1-0.1,0.3-0.2,0.5l0,0l0,0.1c0,0.1,0,0.2-0.1,0.3c-0.1,0.1-0.1,0.2-0.1,0.2l0,0l-0.1,1.3
				c0,0.1,0,0.1,0,0.2c0,0.1,0,0.1,0,0.2l0,0v0.3c0,0.1,0,0.2-0.1,0.4l0,0l0.1,0.3v0l0,0.1c-0.1,0.1-0.1,0.2-0.1,0.2s0,0.1,0,0.2
				l0,0l0.1,0.1c0,0.1,0,0.2,0,0.2l0,0l-0.2,0.5c0,0,0,0.1-0.1,0.2l0,0l-0.2-0.1l-0.8,1h0.1c0,0,0.1,0,0.2-0.1s0.2-0.1,0.3-0.1l0,0
				c0.1-0.1,0.3-0.1,0.4-0.2l0,0c0,0.2,0,0.3-0.1,0.4c-0.1,0.1-0.1,0.3-0.1,0.4l0,0l-0.1,0.6l0.1,0.3l-0.3,0l-0.4,0.2l0,0.1l0.3,0.3
				l0.3-0.4l0.1,0.1l0.1,0.4l0.2,0.1v0.7l-0.1,0.2h-0.4l-0.1,0.6h0.4c0,0,0.1,0.1,0.1,0.1c0,0.1,0.1,0.1,0.1,0.1l0,0l2.1,1.6
				l0.2,0.2v0.4l-0.9,0.4c-0.1,0-0.2,0-0.2,0c0,0,0,0-0.1,0s-0.1,0-0.2-0.1c-0.1,0-0.3-0.1-0.7-0.2l0,0c-0.1,0-0.1-0.1-0.1-0.1l0,0
				c0,0,0,0,0,0s0,0,0,0l0,0c0,0-0.1,0-0.1,0l0,0l-0.3-0.1c0,0,0,0-0.1,0l0,0c-0.2,0-0.4,0-0.5,0c-0.1,0-0.2-0.1-0.3-0.2l0,0
				l-1.3-0.7c0,0,0,0-0.1-0.1c-0.1-0.1-0.2-0.2-0.2-0.3c-0.1-0.1-0.2-0.2-0.2-0.3s-0.1-0.1-0.1-0.1l0,0l-0.2-1.1
				c0-0.1,0-0.1,0.1-0.2c0-0.1,0.1-0.2,0.1-0.3l0,0c0-0.1,0-0.2,0-0.2s0-0.1,0-0.2l0,0v-0.1v0c0,0,0-0.1,0-0.1c0,0,0-0.1,0-0.2l0,0
				c0,0,0,0,0-0.1l0,0l0-0.2l0.2-0.4c0,0,0,0,0,0s0,0,0,0l0,0v-0.1c0-0.1,0-0.1-0.1-0.1c-0.1,0-0.1,0-0.1-0.1l0,0l0.2-0.6v-0.3
				c0-0.1,0-0.2,0-0.3c0-0.1,0-0.2,0-0.4l0,0c0.1-0.4,0.1-0.8,0.2-1c0.1-0.3,0.2-0.6,0.3-1l0,0c0,0,0.1,0,0.1-0.1l0,0
				c0-0.1,0-0.1-0.1-0.1c0,0-0.1-0.1-0.1-0.3l0,0c0-0.2,0.1-0.5,0.2-0.9c0.1-0.4,0.2-0.8,0.2-1.2l0,0h-0.1c0-0.2,0.1-0.5,0.1-0.7
				c0-0.3,0.1-0.5,0.2-0.8l0,0l0.1-0.4c0.1-0.2,0.1-0.3,0.1-0.4l0,0l0.1-0.7l0.2-0.2c0.1,0,0.3,0,0.6,0.1c0.3,0,0.5,0.1,0.6,0.1l0,0
				c0.1-0.1,0.2-0.1,0.3-0.1l0,0h0.4l1,0.4l-0.1,0.5c0,0.1,0,0.2,0.1,0.4c0.1,0.2,0.1,0.3,0.1,0.3l0,0L58.2,131.9z M57.6,141.6
				l0.1-0.3h0.6l-0.4,0.1l-0.1,0.4L57.6,141.6z M55,132.4L55,132.4c0,0-0.1,0.1-0.1,0.2l0,0c0,0.1,0,0.2,0.1,0.2l0,0
				c0.1,0,0.1-0.1,0.1-0.2l0,0C55.1,132.5,55.1,132.4,55,132.4z M57.3,136.6l-0.2,0.2v0.1c0,0.1,0,0.1,0.1,0.1l0,0
				c0,0,0.1-0.1,0.2-0.2l0,0C57.3,136.7,57.3,136.7,57.3,136.6L57.3,136.6L57.3,136.6z M55.1,131.9L55.1,131.9
				c-0.1,0-0.1,0.1-0.1,0.1l0,0c0,0.1,0,0.1,0.1,0.1l0,0c0.1,0,0.1,0,0.1-0.1l0,0C55.3,131.9,55.2,131.9,55.1,131.9z M57.2,141.8
				h0.1v0.1h-0.2L57.2,141.8z M61.3,140.6l0.1-0.2c0,0,0-0.1,0-0.1c0,0,0-0.1,0.1-0.1l0,0l0.1-0.1c0-0.3,0.1-0.7,0.3-1.2
				s0.4-0.8,0.7-1l0,0l0.3-0.1c0,0,0.1-0.1,0.1-0.1s0-0.1,0-0.2l0,0l0.1-0.2c0.2-0.2,0.4-0.5,0.6-0.7c0.2-0.3,0.4-0.5,0.6-0.7
				c0.2-0.2,0.4-0.4,0.6-0.5c0.2-0.1,0.3-0.2,0.5-0.2l0,0c0,0,0.1,0,0.1,0c0,0,0.1,0.1,0.3,0.1l0,0l0.4,0.5c0.1,0,0.2,0.1,0.2,0.3
				l0,0l0.1,0.2v0.5l0.1,0.1c0,0,0.1,0.1,0.1,0.1c0,0,0.1,0.1,0.1,0.1l0,0l0.4,0.3c0,0.1,0.1,0.2,0.2,0.3c0.1,0.1,0.2,0.3,0.3,0.4
				l0,0l0.5,0.5c0,0.1,0.1,0.2,0.1,0.4c0,0.2,0.1,0.4,0.1,0.6c0,0.2,0.1,0.4,0.1,0.5c0,0.2,0,0.3,0,0.3l0,0v0.3l-0.3,0.7l0,0.3
				l-0.3,0.4l-0.5,0.4c-0.1,0.1-0.3,0.1-0.4,0.1c-0.2,0-0.3,0.1-0.5,0.2l0,0l-0.3,0.1c-0.1,0.1-0.2,0.1-0.3,0.1l0,0c0,0,0,0,0,0
				c0,0,0,0,0,0l0,0l-0.4,0.1c-0.1,0.1-0.3,0.1-0.6,0.1l0,0c-0.2,0-0.3,0-0.4,0l0,0l-0.8-0.2l-0.8-0.3c-0.3-0.1-0.5-0.2-0.7-0.2
				c-0.2-0.1-0.3-0.3-0.5-0.7l0,0c0-0.1-0.1-0.2-0.1-0.3c0-0.1-0.1-0.2-0.1-0.3l0,0L61.3,140.6z M64.1,140.7l0,0.8l0.2,0
				c0.2,0,0.4-0.1,0.6-0.1c0.2,0,0.4-0.1,0.5-0.1l0,0l0.3-0.2l0.3-0.3l0.1-0.3l-0.4-1.5l-0.6-0.2l-0.1,0.1c0,0-0.1,0.1-0.2,0.2
				c-0.1,0.1-0.2,0.3-0.3,0.5c-0.1,0.2-0.2,0.4-0.3,0.6C64.2,140.3,64.1,140.5,64.1,140.7L64.1,140.7z M63.1,138.7l-0.2-0.1
				c-0.1,0.1-0.2,0.3-0.4,0.6c-0.2,0.3-0.2,0.5-0.2,0.8l0,0c0,0.1,0,0.2,0,0.2l0,0l0.1-0.2l0.5-1C63,138.8,63.1,138.7,63.1,138.7
				L63.1,138.7z M79.7,139.6L79.7,139.6c0-0.2,0.1-0.3,0.1-0.3l0,0l0,0.2l0.7-0.5v-0.1c0,0,0-0.1-0.1-0.1l0,0c0,0-0.1,0.1-0.1,0.1
				c0,0,0,0-0.1,0l0,0c-0.1,0-0.2,0-0.3-0.1l0,0c0-0.2,0.1-0.4,0.2-0.5c0.1-0.1,0.2-0.2,0.2-0.3l0,0h0c0,0-0.1-0.1-0.1-0.2l0,0h-0.1
				c0,0-0.1,0-0.1,0l0,0c0,0,0.1-0.1,0.3-0.3c0.1-0.1,0.2-0.2,0.2-0.3l0,0l-0.1-0.4l0.2-0.1c0,0,0-0.1-0.1-0.2l0,0l0.3-1.2l0.5-0.3
				l0.1-0.7c0,0,0-0.1,0.1-0.2c0-0.1,0.1-0.3,0.1-0.4c0-0.2,0.1-0.3,0.1-0.4c0-0.1,0.1-0.2,0.1-0.3l0,0v0c0.2-0.4,0.3-0.7,0.5-1
				s0.3-0.6,0.5-1l0,0l1.4-0.7c0,0,0.1,0.1,0.1,0.2c0.1,0.1,0.1,0.2,0.2,0.2l0,0c0.2,0,0.3-0.1,0.5-0.1c0.2-0.1,0.3-0.1,0.5-0.1l0,0
				c0.2,0,0.3,0,0.4,0.1c0.1,0.1,0.2,0.1,0.2,0.2c0.1,0.1,0.1,0.2,0.1,0.4c0,0.2,0.1,0.3,0.2,0.5l0,0c0,0-0.1,0-0.1,0.1
				c0,0-0.1,0-0.1,0.1l0,0l-0.1,0.1l-0.2,0.5c-0.1,0.2-0.2,0.5-0.3,0.7c-0.1,0.3-0.2,0.5-0.3,0.7l0,0l-0.2,0.3
				c-0.2,0.2-0.3,0.5-0.4,0.8c-0.1,0.3-0.2,0.5-0.2,0.7l0,0l-0.1,0.5l-0.9,1.6h-0.1v0.1c0,0,0.1,0.1,0,0.1s0,0,0,0l0,0l-0.2,0.5
				c0,0.1,0,0.1-0.1,0.2l0,0l-0.1,0.1l0,0.2H83c-0.1,0-0.1,0-0.1,0.1l0,0v0.1l0-0.1H83l-0.1,0.1l0.1,0.1c0,0.1,0,0.2-0.1,0.3
				c-0.1,0.1-0.1,0.2-0.2,0.2l0,0l0.1,0c-0.1,0.1-0.1,0.2-0.2,0.5s-0.1,0.6-0.2,0.9c-0.1,0.3-0.1,0.6-0.2,0.8
				c-0.1,0.2-0.1,0.4-0.2,0.4l0,0l-0.2,0.1c0,0.1,0,0.2-0.1,0.4c-0.1,0.2-0.1,0.4-0.2,0.5c-0.1,0.2-0.2,0.4-0.3,0.5
				c-0.1,0.1-0.2,0.2-0.2,0.2l0,0l-0.7,0.5c-0.1,0-0.2,0.1-0.3,0.1c-0.2,0-0.3,0-0.5,0c-0.2,0-0.3,0-0.5,0s-0.2,0-0.3,0.1l0,0
				c0,0,0,0-0.1,0l0,0c0,0,0,0,0-0.1l0,0l-0.2,0.1l-0.1-0.1c-0.3-0.4-0.5-0.8-0.5-1s0-0.5-0.1-0.7l0,0c-0.2-0.4-0.4-0.9-0.5-1.4
				c-0.2-0.5-0.3-1-0.5-1.5l0,0l-0.1-0.1c0,0,0-0.1-0.1-0.1c0,0-0.1-0.1-0.1-0.1l0,0c0,0,0,0.1-0.1,0.2c-0.1,0.1-0.1,0.3-0.2,0.4
				c-0.1,0.2-0.1,0.3-0.2,0.4c0,0.1-0.1,0.2-0.1,0.2l0,0l-0.1,0.5l-0.4,1.3l-0.3,0.9v0.1c0,0,0,0.1-0.1,0.1s-0.2,0.1-0.3,0.1
				s-0.2,0.1-0.3,0.1s-0.1,0.1-0.1,0.1l0,0c-0.2,0-0.3,0-0.3,0l0,0l-0.4,0.3l-0.4,0l-0.4,0.1l-0.4-0.6l-0.1-0.1c0,0-0.1-0.1-0.1-0.2
				c-0.1-0.1-0.2-0.2-0.2-0.3c-0.1-0.1-0.2-0.2-0.2-0.3C72,143,72,143,72,143l0,0c0,0,0,0,0-0.1l0,0c-0.2-0.5-0.4-1-0.6-1.5
				s-0.3-0.8-0.3-1.1l0,0c0-0.2,0-0.6-0.1-1c-0.1-0.4-0.2-0.9-0.3-1.4s-0.2-0.9-0.3-1.4c-0.1-0.5-0.2-0.8-0.2-1.1l0,0v-0.7l0.1-0.1
				c0.1,0,0.2,0,0.4,0c0.1,0,0.3-0.1,0.4-0.2l0,0l0.1-0.1h0.2l0,0.1l0.2,0.1l0.3,0.5c0.2,0,0.3,0.1,0.3,0.4s0,0.5,0.1,0.7l0,0
				c0,0,0,0.1,0.1,0.3s0.1,0.3,0.1,0.5c0.1,0.2,0.1,0.4,0.1,0.5s0.1,0.3,0.1,0.3l0,0l0,0.4h0c0,0.2,0.1,0.4,0.2,0.6
				c0.1,0.2,0.2,0.4,0.2,0.6l0,0c0,0,0,0,0,0.1c0,0,0,0,0,0.1l0,0l-0.1,0.2L73,140c0,0,0,0.1,0,0.1s0,0.1,0,0.1l0,0l0.5,1.2
				c0,0,0.1-0.1,0.2-0.4c0.1-0.3,0.2-0.5,0.3-0.8c0.1-0.3,0.2-0.6,0.3-0.9s0.1-0.5,0.1-0.5l0,0c0.1-0.3,0.2-0.6,0.3-1
				c0.1-0.4,0.2-0.7,0.5-0.9l0,0l0.9-0.7c0.2-0.2,0.3-0.2,0.4-0.2s0.2,0,0.3,0l0,0c0,0,0.2,0,0.3,0.1c0.2,0.1,0.3,0.2,0.3,0.3l0,0
				l0.2,0.5c0.1,0.4,0.2,0.9,0.5,1.5c0.2,0.6,0.5,1.2,0.7,1.9l0,0c0,0,0,0.1,0.1,0.2s0.1,0.3,0.1,0.4c0.1,0.1,0.1,0.3,0.1,0.4
				c0,0.1,0.1,0.2,0.1,0.2l0,0l0.3-1.1c-0.1-0.1-0.1-0.1-0.1-0.2l0,0v0c0-0.1,0.1-0.2,0.1-0.3C79.6,139.8,79.7,139.7,79.7,139.6z
				 M80.6,138.5L80.6,138.5C80.6,138.5,80.7,138.5,80.6,138.5L80.6,138.5c0.1,0,0.2,0,0.2-0.1c0-0.1,0.1-0.3,0.2-0.5l0,0h0
				c-0.1,0-0.2,0.1-0.3,0.2l0,0v0c0,0,0,0.1-0.1,0.1C80.6,138.3,80.6,138.3,80.6,138.5L80.6,138.5C80.6,138.5,80.6,138.5,80.6,138.5
				z M107.9,136.4l0,0.3v0.3l-0.7,0.5l-0.1,0.3c-0.1,0.1-0.1,0.3-0.1,0.4l0,0v1c0,0.3,0,0.7,0,1c0,0.4-0.1,0.7-0.1,1l0,0l-0.1,0.9
				l-0.2,0.5l0.2,0.2l-0.1,0.7v0.6l0.4-0.2v0.4l-0.2,0.4l-0.2-0.2l-1.2,0.2l-0.2,0.3h-0.5l-0.8-0.3l-0.2-0.2l-0.4,0.1l-0.2-0.5v-2
				l0.1-0.4c0-0.1,0-0.2,0-0.3c0-0.1,0-0.2,0-0.2l0,0c0-0.1,0-0.3,0-0.6c0-0.4,0-0.8,0-1.2s0-0.8,0-1.2c0-0.4,0-0.6,0-0.6l0,0
				c-0.2,0.1-0.5,0.2-0.7,0.3c-0.2,0.1-0.5,0.1-0.7,0.1l0,0l-0.2,0c-0.1,0-0.2,0-0.2,0c0,0-0.1,0-0.2,0l0,0c0,0-0.1,0-0.1-0.1l0,0
				c-0.1,0-0.3,0.1-0.4,0.1l0,0c-0.2,0-0.5,0-0.7-0.1c-0.2-0.1-0.4-0.1-0.6-0.1l0,0c0,0-0.1,0-0.3,0c-0.1,0-0.2,0-0.3,0l0,0
				c-0.1,0-0.1,0-0.2,0s-0.1,0-0.1-0.1l0,0l-0.3-0.4l-0.2,0.5l0.1,0.1l-0.1,0.3l0.2,0.3c0,0.2,0,0.3,0,0.3c0,0.1,0,0.1,0,0.2l0,0
				c0,0,0,0.1,0.1,0.3s0.1,0.3,0.1,0.5c0.1,0.2,0.1,0.3,0.1,0.5c0,0.2,0.1,0.2,0.1,0.3l0,0v0.6l-0.2,0.1v0.4l-0.2,0.4
				c0,0.2,0,0.4-0.1,0.7c0,0.3-0.1,0.5-0.1,0.6l0,0l-0.2,0.2c0,0.1-0.1,0.1-0.2,0.2c-0.1,0.1-0.2,0.1-0.2,0.1l0,0l-0.3,0l-0.5-0.2
				l-0.5,0.1l-0.8-0.1l-0.2-0.2l-0.2-0.9v-0.3l-0.2-0.1l0.3-0.9v-0.2l-0.2-0.3l0-0.3l0.1,0.3c0-0.2,0.1-0.5,0.2-0.8
				c0.1-0.4,0.2-0.6,0.2-0.6l0,0l0.1,0.3V139l-0.2,0.1l0.2-0.4l0-0.3l0.3-0.5v-0.2l0,0.1v-0.3c0-0.1,0-0.2,0-0.2s0-0.1,0-0.1l0,0
				l-0.1,0v-0.2h0c0,0,0,0,0.1,0l0,0c0-0.1,0.1-0.2,0.1-0.2l0,0v-0.1l0,0c0,0,0,0.1-0.1,0.2l0,0v0c0-0.1,0-0.2,0-0.3s0-0.3,0.1-0.4
				c0-0.1,0.1-0.2,0.1-0.3c0-0.1,0.1-0.1,0.1-0.1l0,0l-0.1-0.1l0.1-1c0.1-0.1,0.2-0.2,0.3-0.5c0.1-0.3,0.2-0.4,0.2-0.4l0,0
				c0.1,0,0.1,0,0.2,0.1l0,0c-0.1,0.1-0.2,0.2-0.2,0.3c-0.1,0.1-0.1,0.2-0.1,0.3l0,0c0.2,0,0.3-0.2,0.4-0.5s0.1-0.5,0.2-0.7l0,0
				h-0.1c-0.1,0-0.2,0.1-0.2,0.1c0,0.1,0,0.1-0.1,0.1l0,0l-0.1,0c0,0,0-0.1,0-0.1c0,0,0-0.1,0.1-0.2l0,0l0.2-0.3c0,0,0,0,0-0.1l0,0
				c0,0,0-0.1,0.1-0.3c0-0.1,0.1-0.3,0.2-0.4s0.2-0.3,0.2-0.4c0.1-0.1,0.2-0.2,0.3-0.2l0,0l0.1,0.1l0.3-0.1l0,0.1l0.2,0
				c0,0,0.1,0,0.1,0.1c0.1,0.1,0.1,0.1,0.1,0.1l0,0l0,0.2c0,0.1,0.1,0.1,0.2,0.2c0.1,0.1,0.1,0.1,0.1,0.1l0,0c0,0.1,0,0.2-0.1,0.3
				c0,0.1-0.1,0.1-0.1,0.2l0,0c0,0.2,0,0.3,0.1,0.4c0,0.1,0.1,0.3,0.1,0.6l0,0c0,0.2,0,0.4,0,0.7c0,0.3-0.1,0.7-0.2,1.1l0,0l-0.1,0
				v0.6l0.2,0c0,0,0.1,0,0.2,0c0.1,0,0.1,0,0.1,0l0,0l1,0.1l0.5-0.1c0,0,0.1,0,0.1,0l0,0c0.1,0,0.1,0,0.2,0c0.1,0,0.2,0,0.3,0l0,0
				c0.5,0,0.8-0.2,1.1-0.5c0.3-0.4,0.6-0.8,0.8-1.2l0,0l-0.1-0.1c0.2-0.2,0.3-0.3,0.4-0.4c0.1-0.1,0.2-0.3,0.2-0.5l0,0l0.1-0.4
				l0.4-0.5l0.2-0.5c0,0,0.1-0.1,0.1-0.1s0-0.1,0.1-0.1l0,0l0.2-0.9v-0.4l0.1-0.1c0.1,0,0.2-0.1,0.4-0.1c0.1,0,0.4-0.1,0.8-0.2l0,0
				l0.7-0.1l0.4,0.1c0.1,0,0.2,0,0.3,0c0.1,0,0.2,0,0.2,0l0,0l0.9,0.5l0.2,0.3l0.1,0.7l-0.4,0.6l-0.5-0.3l-0.1-0.2l-0.1-0.1
				c-0.2,0-0.3-0.1-0.2-0.1l0,0h-0.1l-0.2,0.5c0,0,0,0.1,0,0.2l0,0c0,0.1,0,0.1,0,0.2c0,0.1,0,0.2,0,0.2l0,0c0,0.1,0,0.1,0,0.2l0,0
				l0.3-0.1l0.1,0.2l0.2-0.3l0-0.4l0.1-0.1l0.4,0.4l0.3,0.2v0.4c0,0.1,0,0.2,0,0.3c0,0.1,0,0.2,0,0.3l0,0l-0.1,0.4l-0.2,0.3
				c-0.1,0.2-0.2,0.5-0.3,0.8c-0.1,0.4-0.2,0.7-0.2,0.9l0,0L107.9,136.4z M107.6,133.9l-0.1-0.3l-0.4,0.9c0,0.1-0.1,0.2-0.1,0.4
				c0,0.2-0.1,0.3-0.1,0.4l0,0l0.1,0.3l0.6-1.1v-0.2C107.5,134.1,107.5,134,107.6,133.9L107.6,133.9z M107.9,134.5l-0.2,0.3
				l-0.1,0.5l0.2-0.4c0-0.1,0.1-0.2,0.1-0.3s0-0.2,0-0.3l0,0L107.9,134.5z M107.2,133.1L107.2,133.1
				C107.2,133.1,107.2,133.1,107.2,133.1C107.2,133.1,107.1,133.1,107.2,133.1L107.2,133.1c-0.2,0-0.3,0-0.3,0.2l0,0
				c0,0.1,0,0.2,0.1,0.2l0,0C107.2,133.4,107.3,133.4,107.2,133.1L107.2,133.1C107.3,133.2,107.2,133.1,107.2,133.1z M106.6,134.6
				L106.6,134.6L106.6,134.6c-0.2,0-0.2,0.1-0.2,0.2l0,0c0,0.1,0.1,0.2,0.2,0.2l0,0c0.1,0,0.2-0.1,0.2-0.2l0,0
				C106.7,134.7,106.7,134.7,106.6,134.6z M107.6,133.1L107.6,133.1L107.6,133.1c-0.2,0-0.3,0.1-0.3,0.2l0,0c0,0,0,0.1,0,0.1
				c0,0,0.1,0.1,0.1,0.1l0,0C107.6,133.4,107.7,133.4,107.6,133.1L107.6,133.1C107.7,133.2,107.6,133.1,107.6,133.1z M107,142.5v0.7
				l-0.2,0.1L107,142.5z M106.9,141.9l0.2,0l-0.1,0.4l-0.1-0.1L106.9,141.9z M107.4,135.7L107.4,135.7L107.4,135.7
				c0,0.1,0,0.2,0.1,0.2l0,0c0.1,0,0.2-0.1,0.2-0.2l0,0c0-0.1,0-0.1-0.1-0.1l0,0C107.5,135.6,107.4,135.6,107.4,135.7z M107.1,141.6
				L107.1,141.6c0.1,0,0.2,0,0.2,0.1l0,0c0,0.1-0.1,0.1-0.2,0.1l0,0c-0.1,0-0.1,0-0.1-0.1l0,0C107,141.6,107,141.6,107.1,141.6z
				 M115.1,142.8L115.1,142.8c0.4,0.1,0.6,0.2,0.6,0.2l0,0l0,0.3c0,0.2,0,0.5,0.1,0.6l0,0c0,0.1,0.1,0.1,0.1,0.2l0,0
				c0,0-0.1,0.1-0.3,0.1s-0.4,0-0.7,0c-0.3,0-0.5,0-0.8,0c-0.3,0-0.5,0-0.6,0l0,0h-0.2c-0.5,0-0.9-0.1-1.2-0.2
				c-0.3-0.2-0.6-0.4-0.8-0.8l0,0l-0.1-0.1l-0.1-0.4c0-0.2-0.1-0.3-0.1-0.5c0-0.2-0.1-0.3-0.1-0.5l0,0c0-0.1,0.1-0.2,0.2-0.3
				c0.1-0.1,0.2-0.2,0.2-0.3c0.1-0.1,0.1-0.1,0.2-0.2c0,0,0-0.1,0-0.1l0,0c0-0.1,0.1-0.3,0.2-0.4c0.1-0.2,0.3-0.4,0.5-0.5
				c0.2-0.2,0.4-0.3,0.6-0.5c0.2-0.2,0.4-0.3,0.5-0.4l0,0l0.3,0.1c0,0,0.2,0,0.3-0.1c0.2-0.1,0.3-0.1,0.4-0.1l0,0l0.5-0.3
				c0.2,0,0.2-0.1,0.2-0.2l0,0l1.3-0.6c0,0,0.1-0.1,0.1-0.1c0.1-0.1,0.1-0.1,0.1-0.1l0,0l-0.3-1.1c0,0,0-0.1-0.1-0.1l0,0
				c0,0,0,0,0,0c0,0,0,0,0,0l0,0h-0.1c-0.1,0-0.3,0-0.6,0.1s-0.6,0.1-0.8,0.2c-0.3,0.1-0.5,0.1-0.8,0.2c-0.2,0-0.3,0.1-0.3,0.1l0,0
				c0,0-0.1,0-0.1,0l0,0c-0.1,0-0.3-0.1-0.4-0.2c-0.1-0.1-0.3-0.3-0.4-0.4l0,0l-0.3-0.1l-0.2-0.1c0,0,0-0.1,0-0.1c0,0,0-0.1-0.1-0.1
				l0,0l-0.1-0.1c0-0.1,0.2-0.2,0.5-0.3s0.8-0.2,1.4-0.2c0.6-0.1,1.1-0.1,1.8-0.1c0.6,0,1.2,0,1.7,0l0,0h0.1c0.3,0,0.6,0,0.8,0.1
				c0.2,0.1,0.4,0.2,0.5,0.4c0.1,0.1,0.2,0.3,0.3,0.5c0.1,0.2,0.2,0.3,0.3,0.4l0,0v0.6c0,0.2,0,0.4,0,0.6s0,0.3,0,0.4l0,0
				c0,0.1,0,0.3,0,0.4c0,0.1-0.1,0.3-0.1,0.6l0,0c0,0.1,0,0.2,0.1,0.3c0,0.1,0.1,0.2,0.1,0.2l0,0v0l0,0.2l-0.3,0.3l0.2,0.2l-0.2,0.3
				c0,0,0,0.1,0,0.2c0,0.1,0,0.1,0,0.2l0,0l0,0l-0.1,0.5l0.3,0.1l0,0.2l-0.2,0.1l0.1,0.1l0,0.2c-0.1,0.2-0.2,0.5-0.2,0.9
				c0,0.4-0.1,0.7-0.1,0.8l0,0c0,0-0.1,0.1-0.2,0.1c-0.1,0-0.3,0-0.5,0c-0.2,0-0.3,0-0.5,0c-0.1,0-0.2,0-0.2,0l0,0
				c-0.2,0-0.4-0.1-0.5-0.2s-0.3-0.2-0.3-0.4c-0.1-0.2-0.1-0.3-0.2-0.5c0-0.2,0-0.4,0-0.5l0,0c0-0.4,0.1-0.7,0.2-0.9
				c0.1-0.2,0.2-0.6,0.2-1l0,0c0-0.2,0-0.4,0-0.5c0-0.2,0-0.3-0.2-0.3l0,0c0,0-0.1,0.1-0.1,0.1s-0.1,0.1-0.1,0.1l0,0
				c0,0-0.1,0-0.2,0l0,0c0,0-0.1,0-0.3,0.1s-0.3,0.1-0.5,0.2c-0.2,0.1-0.3,0.2-0.5,0.3c-0.1,0.1-0.2,0.2-0.2,0.2l0,0
				c-0.2,0.2-0.5,0.3-0.7,0.4c-0.2,0.1-0.4,0.2-0.6,0.4l0,0l-0.1,0.5c0,0,0,0.1,0,0.1s0,0.1,0,0.2l0,0l0,0l0.1-0.1l0.1,0.2
				c0.2,0,0.3,0,0.5,0c0.2,0,0.3,0,0.3,0l0,0c0,0,0,0,0,0c0,0,0,0,0,0l0,0c0.1,0,0.2,0.1,0.4,0.2
				C114.7,142.8,114.9,142.8,115.1,142.8L115.1,142.8C115.1,142.8,115.1,142.8,115.1,142.8z M121.8,140.5l-0.1-0.5l0.4-0.9
				c0,0,0-0.1,0-0.1s0-0.1,0-0.1l0,0c0-0.2,0-0.4,0.1-0.7c0.1-0.3,0.2-0.5,0.3-0.8c0.1-0.3,0.3-0.6,0.4-0.8c0.2-0.3,0.3-0.5,0.5-0.8
				l0,0c0,0,0,0,0-0.1l0,0c0-0.1,0-0.2,0.1-0.2c0.1-0.1,0.1-0.1,0.2-0.1l0,0c0.2,0,0.4,0,0.7,0.1s0.5,0.2,0.7,0.3
				c0.2,0.1,0.4,0.3,0.5,0.5c0.2,0.2,0.2,0.4,0.2,0.6l0,0l-0.1,0.3l2.6-1.1h0.6c0,0,0-0.1,0.1-0.1c0.1,0,0.1,0,0.1,0l0,0
				c0.1,0,0.2,0,0.3,0.1c0.1,0,0.1,0.1,0.2,0.2l0,0l0.4,0.1c0.1,0,0.2,0.1,0.4,0.2c0.2,0.1,0.3,0.2,0.3,0.2l0,0v0.6h-0.1l0,0.1
				c0,0,0,0,0,0l0,0h0.1c0,0,0,0,0.1,0l0,0v0.1l-0.1,0.1c0,0.2,0,0.3,0.1,0.3l0,0c0,0.2,0,0.5-0.1,0.8c-0.1,0.3-0.2,0.6-0.4,0.7l0,0
				h0.2c0,0-0.1,0.1-0.1,0.2l0,0c0,0.1,0,0.1,0,0.1c0,0,0,0,0,0l0,0c0,0.2,0,0.4-0.1,0.5c-0.1,0.2-0.1,0.3-0.1,0.4l0,0l-0.1,0.5
				c0,0.2-0.1,0.3-0.1,0.4c-0.1,0.1-0.1,0.3-0.1,0.5l0,0l0.1,0.2c0,0.1,0,0.2-0.1,0.3c-0.1,0.1-0.1,0.2-0.1,0.3l0,0
				c0,0.2,0,0.4,0.1,0.4l0,0v0.1l-0.2,0.1l-0.1,0.2c-0.1,0-0.2,0.1-0.2,0.1c0,0-0.1,0.1-0.1,0.1c0,0-0.1,0-0.1,0c-0.1,0-0.2,0-0.4,0
				l0,0c-0.2,0-0.4-0.1-0.5-0.3c-0.1-0.2-0.2-0.4-0.3-0.6c-0.1-0.2-0.1-0.5-0.1-0.7c0-0.3,0-0.4,0-0.6l0,0c0-0.3,0-0.6,0-0.8
				s0-0.5,0-0.7c0-0.2,0-0.4,0-0.7s0.1-0.5,0.1-0.8l0,0c0-0.1,0-0.2,0-0.4s0-0.3,0-0.4l0,0l-0.4,0.1c-0.5,0.2-1,0.5-1.5,0.8
				c-0.5,0.3-0.8,0.7-0.9,1.2l0,0l-0.1,0.3l0.1,0.1c0,0.1-0.1,0.2-0.1,0.2c0,0.1,0,0.2,0,0.4l0,0l0.3-0.2v0c0,0.3-0.1,0.5-0.3,0.7
				c-0.2,0.1-0.3,0.3-0.3,0.5l0,0l0.2,0.9l-0.1,0.9h-0.3c0,0-0.1,0.1-0.2,0.1c-0.1,0.1-0.1,0.1-0.2,0.1l0,0l-1.6-0.2l-1.1-0.5
				l0.3-0.4c0,0-0.1,0.1-0.1,0.1l0,0h0c-0.1,0-0.1,0-0.1,0l0,0c0-0.1,0-0.2,0.1-0.2l0,0l0.1,0.1l0.6-0.6c0-0.1,0-0.2-0.1-0.2l0,0
				c-0.1,0.1-0.1,0.1-0.1,0.1c0,0-0.1,0-0.4,0l0,0c0-0.2,0-0.4,0.1-0.5c0.1-0.1,0.1-0.3,0.1-0.4l0,0h-0.1c0,0-0.1,0-0.2-0.1l0,0
				c0,0-0.1,0-0.1,0c0,0-0.1,0-0.1,0l0,0c0-0.1,0.1-0.2,0.2-0.3C121.7,140.6,121.8,140.5,121.8,140.5L121.8,140.5z M122.1,141.8
				L122.1,141.8c0.1,0,0.2,0,0.1-0.1c0-0.1,0-0.3,0.1-0.5l0,0c-0.1,0-0.1,0.1-0.2,0.2S122.1,141.6,122.1,141.8L122.1,141.8
				C122.1,141.8,122.1,141.8,122.1,141.8z M121.8,141l0-0.2h-0.1v0C121.7,140.9,121.7,140.9,121.8,141L121.8,141z M121.8,141.6
				L121.8,141.6l0.1-0.1C121.8,141.5,121.8,141.5,121.8,141.6L121.8,141.6C121.8,141.5,121.8,141.5,121.8,141.6
				C121.8,141.6,121.8,141.6,121.8,141.6L121.8,141.6z M122,140.6L122,140.6l0.1-0.1L122,140.6z M138.2,143.8L138.2,143.8
				c-0.4,0.1-0.7,0.2-1.2,0.3c-0.4,0.1-0.8,0.1-1.2,0.1l0,0c-0.2,0-0.5,0-0.8-0.1c-0.3,0-0.7-0.1-1-0.2c-0.3-0.1-0.6-0.2-0.9-0.4
				s-0.4-0.4-0.4-0.6l0,0c0-0.1,0-0.2,0-0.3c0-0.1,0-0.2,0-0.3l0,0c0-0.6,0.1-1.1,0.1-1.4c0-0.3,0.1-0.6,0.1-0.7
				c0.1-0.2,0.1-0.3,0.2-0.5c0.1-0.1,0.2-0.4,0.3-0.7l0,0c0,0,0,0,0.1-0.1c0.1,0,0.1-0.1,0.1-0.1l0,0l0.2-0.1h0.2c0,0.1,0,0.1,0,0.2
				c0,0,0,0.1,0,0.1l0,0v0.1c0.1,0,0.2-0.1,0.2-0.2c0.1-0.1,0.1-0.2,0.2-0.3l0,0l1.5-1.3h-0.5c0.1-0.1,0.2-0.2,0.4-0.3
				c0.2-0.1,0.4-0.2,0.6-0.3c0.2-0.1,0.4-0.2,0.6-0.3c0.2-0.1,0.3-0.2,0.4-0.2l0,0c0.3-0.2,0.6-0.4,0.9-0.5c0.3-0.1,0.6-0.3,0.8-0.5
				l0,0c0.1-0.4,0.1-0.8,0.2-1.3s0.1-0.9,0.2-1.4c0.1-0.5,0.2-0.9,0.3-1.4c0.1-0.5,0.2-0.9,0.4-1.3l0,0c0-0.1,0.1-0.1,0.2-0.1
				c0.1,0,0.2,0,0.3,0l0,0c0,0,0.1,0,0.1,0c0,0,0.1,0,0.1,0l0,0l0.3-0.1h0.1c0.2,0,0.3,0,0.6,0.1s0.4,0.2,0.6,0.3
				c0.2,0.1,0.4,0.2,0.5,0.4s0.2,0.2,0.2,0.3l0,0c0,0.1,0,0.2-0.1,0.2l0,0l0.1,0.1c0,0-0.1,0-0.1,0.1c-0.1,0.1-0.2,0.1-0.2,0.2
				c-0.1,0.1-0.2,0.2-0.2,0.3c-0.1,0.1-0.1,0.2-0.1,0.2l0,0c0,0.2,0,0.4-0.1,0.6c-0.1,0.3-0.1,0.5-0.2,0.8c-0.1,0.3-0.1,0.5-0.2,0.7
				c-0.1,0.2-0.1,0.4-0.1,0.4l0,0l0.1,0.2c0,0.2,0,0.3-0.1,0.5c-0.1,0.2-0.1,0.4-0.1,0.5l0,0c0,0,0,0.1,0,0.2s-0.1,0.2-0.1,0.4
				s-0.1,0.4-0.2,0.7c-0.1,0.3-0.2,0.8-0.2,1.3l0,0c-0.1,0.1-0.1,0.3-0.1,0.6c0,0.3,0,0.5,0,0.7l0,0l-0.1,0.2c0,0,0,0.1,0,0.2
				c0,0.1,0,0.2,0,0.3l0,0c-0.1,0-0.1,0-0.2,0.1c0,0.1-0.1,0.2-0.1,0.2l0,0v0.2l0.1-0.4c0,0.1,0,0.2,0.1,0.3c0,0.1,0,0.2,0,0.2l0,0
				l-0.1,0.2v0.3c0,0,0,0.1,0,0.1c0,0,0,0,0,0.1l0,0v0.1h-0.1v0.4h0.2l0.1,0.2l-0.1,0.4l0.1,0.1c0,0,0,0.1,0,0.2c0,0.1,0,0.2,0,0.2
				l0,0l-0.1,0.1v0.3l-0.6,0.3l-1.5,0.2c-0.2,0-0.4-0.1-0.5-0.3C138.4,143.9,138.3,143.8,138.2,143.8L138.2,143.8z M135.1,142.3
				L135.1,142.3c0.1,0.1,0.3,0.1,0.6,0.1c0.2,0,0.5,0.1,0.7,0.1c0.3,0,0.5,0,0.7,0c0.2,0,0.4,0.1,0.6,0.1l0,0c0,0,0.1,0,0.2,0.1
				c0.1,0.1,0.2,0.1,0.2,0.1l0,0c0,0,0-0.1,0-0.2l0,0v-0.3c0-0.1,0-0.2,0.1-0.5c0-0.3,0.1-0.6,0.1-1l0,0v-0.3h0c0-0.1,0-0.1,0-0.2
				s0-0.1,0-0.2l0,0v-1l0.1-0.1v-0.9c-0.1,0-0.2,0.1-0.5,0.2c-0.3,0.1-0.5,0.2-0.8,0.4s-0.6,0.3-0.8,0.4c-0.2,0.1-0.4,0.2-0.4,0.2
				l0,0c-0.3,0.4-0.5,0.7-0.6,1c-0.1,0.3-0.2,0.5-0.2,0.7l0,0v0.2c0,0,0,0.1,0,0.1c0,0,0,0.1,0,0.1l0,0l0.1,0.3c0,0,0,0.1,0,0.2
				S135.1,142.3,135.1,142.3z M135,137.8L135,137.8c0,0-0.1,0.1-0.2,0.3s-0.2,0.2-0.3,0.3l0,0v-0.1c0-0.1,0-0.2,0.1-0.3
				C134.8,137.9,134.9,137.8,135,137.8z M134.4,138.2l0,0.2c0,0,0,0.1-0.1,0.2c0,0.1-0.1,0.2-0.2,0.2l0,0v-0.3L134.4,138.2z
				 M135.3,137.5L135.3,137.5C135.3,137.5,135.3,137.5,135.3,137.5L135.3,137.5c0,0.1,0,0.2,0,0.3c0,0.1-0.1,0.1-0.2,0.1l0,0
				c0,0,0,0,0,0l0,0c0,0,0-0.1,0.1-0.2C135.2,137.5,135.2,137.5,135.3,137.5z M154.4,144l-0.1,0.1l-0.7-0.1c-0.4,0-0.7-0.2-1.1-0.4
				c-0.3-0.2-0.5-0.5-0.5-0.9l0,0c0-0.1,0-0.1,0-0.1l0,0l0.2,0l0.1-0.3c0,0-0.1,0-0.1-0.1l0,0l0-0.1l0.1-0.1l-0.1-0.3c0,0,0,0,0,0
				l0,0c0,0,0,0,0.1,0l0,0l0.3-0.3l0.1,0c0,0-0.1,0-0.1,0.1s0,0.2,0,0.3l0,0v0.1c0,0,0,0,0,0.1l0,0h0.1c0,0,0-0.1,0-0.1l0,0v-0.2
				c0,0,0-0.1,0-0.3c0-0.1,0-0.2,0-0.3l0,0v-1c0,0,0-0.2,0-0.6c0-0.3,0.1-0.7,0.1-1.1c0-0.4,0.1-0.7,0.1-1c0-0.3,0-0.5,0-0.5l0,0
				l0.2-0.3l-0.2-0.5c0-0.1,0-0.3,0.1-0.6c0-0.3,0.1-0.5,0.1-0.5l0,0l0.1-0.5l0.2-0.3l-0.2-0.1v-0.6l0.2-0.5l-0.1,0l0.4-2.5
				c0,0,0,0,0,0s0,0,0,0l0,0c0-0.2,0-0.4,0.1-0.6c0.1-0.2,0.1-0.4,0.1-0.4l0,0l0.6,0l0.6-0.2h0.4c0.1,0,0.2,0.1,0.5,0.2
				c0.2,0.1,0.4,0.3,0.5,0.4l0,0l0.4,0.4c0,0,0.1,0.1,0.1,0.2c0,0.1,0.1,0.2,0.1,0.2l0,0l0,0.2c0,0,0,0.2-0.1,0.4
				c0,0.2-0.1,0.5-0.2,0.7l0,0c0,0,0,0.1,0,0.2l0,0c0,0.1,0,0.1,0,0.2c0,0.1-0.1,0.1-0.1,0.1l0,0v0l0,0c0,0,0,0,0,0l0,0h0.1
				c0,0.1-0.1,0.2-0.2,0.3l0,0c0,0,0.1,0.1,0.1,0.1l0,0c0,0,0,0.1-0.1,0.2c-0.1,0.1-0.1,0.2-0.1,0.4l0,0l0,0.1c0,0,0,0.1-0.1,0.1
				s0,0,0,0l0,0c0,0,0,0.1,0.1,0.2l0,0c0,0.1-0.1,0.2-0.1,0.2c-0.1,0-0.1,0.1-0.1,0.3l0,0c0,0,0.1,0.1,0.2,0.1l0,0
				c-0.2,0.1-0.2,0.1-0.2,0.1l0,0c0,0,0,0,0,0l0,0c0,0,0,0,0,0s0,0,0.1,0l0,0l0.1,0.4c-0.1,0.1-0.1,0.2-0.2,0.2s-0.1,0.1-0.1,0.2
				l0,0v0v0.1c0,0,0,0.1,0.1,0.1l0,0c0,0.3,0,0.5-0.1,0.7c-0.1,0.2-0.1,0.3-0.1,0.4l0,0c0,0.1,0,0.1,0,0.1l0,0l0.1,0.1
				c0,0.2-0.1,0.3-0.1,0.5c-0.1,0.2-0.1,0.3-0.1,0.3l0,0H156l0,0.1l0.2,0c0,0-0.1,0.1-0.1,0.1c0,0-0.1,0.1-0.1,0.1l0,0c0,0,0,0,0,0
				l0,0h0.2l-0.2,0.7h0.2c0,0.1,0,0.1,0,0.2s0,0.2,0,0.2l0,0l-0.1,0.1c0,0.2,0,0.4,0,0.5c0,0.1,0,0.3,0,0.4l0,0l-0.1,0.1l0.2,0.2
				c0,0,0,0.1,0,0.1c0,0,0,0-0.1,0.1l0,0l0-0.1c-0.1,0.1-0.2,0.1-0.3,0.2l0,0l0.3,0c-0.1,0.1-0.2,0.2-0.3,0.2l0,0h0h-0.1v0.2
				c0,0.3,0,0.6,0.1,0.9c0.1,0.3,0.3,0.4,0.6,0.4l0,0c0,0,0.1,0,0.1,0c0,0,0,0,0.1,0l0,0c0,0.1,0,0.1,0.1,0.1l0,0
				c0.1,0,0.2,0,0.5-0.1c0.2-0.1,0.5-0.1,0.8-0.1l0,0h0.3c0.2,0,0.3,0,0.4-0.1s0.1-0.2,0.2-0.2l0,0c0.1,0,0.1,0,0.1,0
				c0,0,0,0,0.1,0.1l0,0c0.1-0.1,0.3-0.2,0.4-0.2l0,0c0,0,0.1,0,0.2,0c0.1,0,0.1,0,0.1,0.1l0,0l0.1-0.1c0,0,0.1,0,0.1-0.1
				c0,0,0,0,0,0l0,0c0.2,0.2,0.4,0.2,0.6,0.3l0,0l-0.1,0.2c0,0,0,0,0.1,0l0,0c0,0,0.1,0,0.1,0c0,0,0.1,0,0.2,0l0,0
				c0,0,0.1,0.1,0.3,0.2c0.2,0.1,0.3,0.2,0.3,0.3l0,0c0,0,0,0.1,0,0.1l0,0l0,0.3c-0.2,0.1-0.3,0.1-0.4,0.2c-0.1,0-0.2,0.1-0.3,0.2
				l0,0c-0.1,0-0.1,0-0.2-0.1c-0.1,0-0.1-0.1,0,0l0,0c0,0,0,0.1,0,0.2l0,0v0c0,0,0,0,0.1,0l0,0c-0.2,0-0.4,0-0.6,0.1
				c-0.2,0-0.3,0-0.5,0l0,0c-0.1,0-0.1,0-0.2,0c-0.1,0-0.1,0-0.2,0l0,0c-0.2,0-0.4,0.1-0.7,0.2c-0.3,0.2-0.6,0.2-0.9,0.2l0,0h-0.3
				c-0.1,0-0.2,0-0.4,0c-0.2,0-0.3,0-0.4,0S156,144,156,144c-0.1,0-0.1,0.1-0.1,0.2l0,0l-0.1-0.1c0,0.1-0.1,0.2-0.1,0.2
				c-0.1,0-0.1,0.1-0.1,0.2l0,0c0,0-0.1-0.1-0.1-0.2l0,0c0-0.1,0-0.2,0.1-0.3l0,0c-0.1,0-0.2,0.1-0.4,0.1l0,0c0-0.1-0.1-0.2-0.2-0.2
				c-0.1,0-0.1-0.1-0.1-0.1l0,0L154.4,144z M161.4,142.4L161.4,142.4C161.4,142.4,161.3,142.4,161.4,142.4L161.4,142.4
				c-0.1,0.1-0.1,0.1,0,0.1l0,0C161.4,142.5,161.5,142.5,161.4,142.4L161.4,142.4C161.5,142.4,161.4,142.4,161.4,142.4z
				 M162.9,140.6l0.1-0.2c0,0,0-0.1,0-0.1c0,0,0-0.1,0.1-0.1l0,0l0.1-0.1c0-0.3,0.1-0.7,0.3-1.2c0.2-0.5,0.4-0.8,0.7-1l0,0l0.3-0.1
				c0,0,0.1-0.1,0.1-0.1s0-0.1,0-0.2l0,0l0.1-0.2c0.2-0.2,0.4-0.5,0.6-0.7c0.2-0.3,0.4-0.5,0.6-0.7c0.2-0.2,0.4-0.4,0.6-0.5
				c0.2-0.1,0.3-0.2,0.5-0.2l0,0c0,0,0.1,0,0.1,0c0,0,0.1,0.1,0.3,0.1l0,0l0.4,0.5c0.1,0,0.2,0.1,0.2,0.3l0,0l0.1,0.2v0.5l0.1,0.1
				c0,0,0.1,0.1,0.1,0.1c0,0,0.1,0.1,0.1,0.1l0,0l0.4,0.3c0,0.1,0.1,0.2,0.2,0.3s0.2,0.3,0.3,0.4l0,0l0.5,0.5c0,0.1,0.1,0.2,0.1,0.4
				c0,0.2,0.1,0.4,0.1,0.6s0.1,0.4,0.1,0.5c0,0.2,0,0.3,0,0.3l0,0v0.3l-0.3,0.7l0,0.3l-0.3,0.4l-0.5,0.4c-0.1,0.1-0.3,0.1-0.4,0.1
				c-0.2,0-0.3,0.1-0.5,0.2l0,0l-0.3,0.1c-0.1,0.1-0.2,0.1-0.3,0.1l0,0c0,0,0,0,0,0c0,0,0,0,0,0l0,0L167,143
				c-0.1,0.1-0.3,0.1-0.6,0.1l0,0c-0.2,0-0.3,0-0.4,0l0,0l-0.8-0.2l-0.8-0.3c-0.3-0.1-0.5-0.2-0.7-0.2c-0.2-0.1-0.3-0.3-0.5-0.7l0,0
				c0-0.1-0.1-0.2-0.1-0.3c0-0.1-0.1-0.2-0.1-0.3l0,0L162.9,140.6z M165.7,140.7l0,0.8l0.2,0c0.2,0,0.4-0.1,0.6-0.1
				c0.2,0,0.4-0.1,0.5-0.1l0,0l0.3-0.2l0.3-0.3l0.1-0.3l-0.4-1.5l-0.6-0.2l-0.1,0.1c0,0-0.1,0.1-0.2,0.2s-0.2,0.3-0.3,0.5
				c-0.1,0.2-0.2,0.4-0.3,0.6C165.8,140.3,165.7,140.5,165.7,140.7L165.7,140.7z M164.6,138.7l-0.2-0.1c-0.1,0.1-0.2,0.3-0.4,0.6
				c-0.2,0.3-0.2,0.5-0.2,0.8l0,0c0,0.1,0,0.2,0,0.2l0,0l0.1-0.2l0.5-1C164.5,138.8,164.6,138.7,164.6,138.7L164.6,138.7z
				 M173.7,150.4L173.7,150.4c-0.1-0.1-0.1-0.1-0.1-0.1l0,0c0,0,0,0,0,0s0,0,0,0l0,0l0,0c0,0,0,0-0.1,0c0,0-0.1,0-0.1,0.1l0,0l0,0
				h0.4c-0.1,0.1-0.1,0.1-0.2,0.1c-0.1,0-0.1,0-0.2,0l0,0l0.1,0.1l-0.5,0.2c0,0,0,0.1,0,0.1s0,0,0,0.1l0,0c0,0,0,0.1-0.1,0.2l0,0
				l-0.2,0.1l0.1,0.1c0,0-0.1,0.1-0.3,0c-0.1,0-0.2,0-0.2,0l0,0c0,0,0,0,0,0l0,0l0,0l-0.1,0h0.1c0,0-0.1,0-0.3,0l0,0
				c-0.2,0-0.4,0-0.4-0.1s-0.1-0.1-0.3-0.2l0,0c0,0,0-0.1,0-0.1c0,0,0-0.1,0-0.1l0,0c-0.1,0-0.1,0-0.2,0c0,0-0.1,0-0.1-0.1l0,0
				l-0.3-0.1c0,0,0,0,0.1-0.1c0,0,0.1,0,0.2,0l0,0h0.1v-0.2c0,0-0.1,0-0.1,0s0,0-0.1,0l0,0c-0.1,0-0.1,0-0.2,0.1l0,0l-0.2-0.3
				c0,0,0.1,0,0.1,0l0,0c0,0,0-0.1,0-0.1s0,0,0-0.1l0,0l-0.2-0.1l0,0c0,0-0.1,0-0.1-0.1c0-0.1,0-0.1,0-0.1l0,0c0-0.2,0-0.3,0.1-0.4
				c0.1-0.1,0.2-0.2,0.3-0.2s0.2-0.1,0.3-0.1s0.1,0,0.1,0l0,0c0,0,0.1,0,0.1,0c0.1,0,0.1,0,0.1,0l0,0c0.1,0,0.2,0,0.4-0.1
				c0.2-0.1,0.3-0.2,0.4-0.3c0.1-0.1,0.3-0.3,0.4-0.4s0.2-0.2,0.3-0.3l0,0l0.2-0.3l0.3-0.2c0.2-0.1,0.3-0.2,0.4-0.3
				c0.1-0.1,0.3-0.1,0.4-0.1l0,0l-0.5,0.7l0.4,0.2l-0.1,0.2l-0.3,0.1l-0.2,0.3l0.3,0.2l0,0.2c0-0.1,0.2-0.1,0.3-0.1
				c0.2,0,0.3-0.1,0.3-0.1l0,0l0.2-0.3c0,0-0.1-0.1-0.1-0.2l0,0c-0.1-0.1-0.1-0.2-0.1-0.3l0,0l-0.1-0.1l-0.3,0l0.5-0.8l0.1-0.3
				l0.4-0.1l0.4-2.5l0.1-0.3l-0.1-0.1c0-0.2,0-0.3,0.1-0.5s0.1-0.4,0.1-0.6s0.1-0.4,0.1-0.6c0-0.2,0.1-0.3,0.1-0.4l0,0
				c-0.2,0-0.5,0.1-0.7,0.1c-0.2,0.1-0.5,0.1-0.8,0.1l0,0c-0.2,0-0.4-0.1-0.6-0.1c-0.2,0-0.5,0-0.7-0.1c-0.2,0-0.4-0.1-0.6-0.1
				c-0.2,0-0.2-0.1-0.2-0.2l0,0c0,0,0-0.1,0.1-0.1l0,0c-0.2-0.3-0.3-0.6-0.4-1s-0.1-0.7-0.1-1.1l0,0c0-0.2,0-0.3,0-0.4
				s0-0.3,0.1-0.4l0,0l0.3-0.5c0-0.1,0-0.1,0-0.2l0,0l0.2-0.1l-0.1,0.1l0.3-0.3c0,0,0.1-0.1,0.2-0.2c0.1-0.1,0.2-0.2,0.2-0.2l0,0
				l0.2-0.3c0,0,0.1-0.1,0.1-0.1c0,0,0-0.1,0-0.1l0,0l0.1-0.1c0,0,0.1,0,0.3,0c0.2,0,0.4-0.1,0.6-0.1c0.2,0,0.4-0.1,0.6-0.1
				c0.2,0,0.3,0,0.4,0l0,0c0.6,0,0.9,0.1,1.1,0.3c0.1,0.2,0.2,0.4,0.2,0.5l0,0c0,0.2-0.1,0.3-0.2,0.3c-0.1,0-0.3,0.1-0.4,0.2l0,0
				c-0.1,0-0.2-0.1-0.3-0.1l0,0c-0.3,0-0.6,0.2-0.9,0.6s-0.4,0.9-0.4,1.4l0,0c0,0.1,0,0.3,0.1,0.5s0.2,0.4,0.3,0.6l0,0h0.3
				c0.4-0.1,0.6-0.2,0.8-0.2c0.2,0,0.4-0.1,0.5-0.2s0.2-0.2,0.3-0.3c0.1-0.1,0.1-0.4,0.2-0.7l0,0c0-0.4,0.1-0.9,0.2-1.4
				c0.1-0.5,0.2-0.8,0.2-1.1l0,0c0-0.1,0-0.2,0-0.3c0-0.1,0-0.2,0-0.3l0,0c0,0,0-0.1,0-0.2s0-0.1,0-0.2l0,0c0-0.1,0-0.1,0.1-0.1l0,0
				l1.2-0.4h0.1l0.1,0.1l0-0.3l0.3,0.1l0.2,0c0.2,0,0.3,0,0.3,0c0.1,0,0.1,0.1,0.3,0.2l0,0v0.1l0.1,0.1l0,2.4c0,0.1,0,0.1,0,0.2
				s0,0.1,0,0.1l0,0l-0.1,0.7c0,0,0,0.2-0.1,0.4c-0.1,0.3-0.2,0.5-0.3,0.6l0,0l-0.4,1.3c0,0,0,0.2-0.1,0.4c-0.1,0.2-0.1,0.4-0.1,0.5
				l0,0c0,0.4,0,0.7,0,0.9c0,0.2,0,0.4-0.1,0.5c0,0.1,0,0.2-0.1,0.2c0,0,0,0,0,0l0,0l-0.2,1.5l0.5-0.2c0,0.3-0.1,0.6-0.2,0.8
				c-0.1,0.2-0.2,0.5-0.2,0.8l0,0c0,0,0,0.1,0,0.1c0,0,0,0.1,0,0.1l0,0c-0.1,0-0.1,0.1-0.1,0.3c0,0.2-0.1,0.3-0.2,0.4l0,0
				c-0.8,0.8-1.5,1.4-2.2,1.8S174.3,150,173.7,150.4L173.7,150.4z M173.3,148.2l-0.2,0.1c-0.1,0.1-0.2,0.2-0.2,0.2
				c-0.1,0-0.1,0-0.1,0.1l0,0l-0.7,0.8l0.2,0c0-0.1,0.1-0.2,0.3-0.3c0.2-0.1,0.3-0.2,0.3-0.2l0,0L173.3,148.2z M185.6,142.8
				L185.6,142.8c0.4,0.1,0.6,0.2,0.6,0.2l0,0l0,0.3c0,0.2,0,0.5,0.1,0.6l0,0c0,0.1,0.1,0.1,0.1,0.2l0,0c0,0-0.1,0.1-0.3,0.1
				c-0.2,0-0.4,0-0.7,0c-0.3,0-0.5,0-0.8,0c-0.3,0-0.5,0-0.6,0l0,0h-0.2c-0.5,0-0.9-0.1-1.2-0.2c-0.3-0.2-0.6-0.4-0.8-0.8l0,0
				l-0.1-0.1l-0.1-0.4c0-0.2-0.1-0.3-0.1-0.5c0-0.2-0.1-0.3-0.1-0.5l0,0c0-0.1,0.1-0.2,0.2-0.3c0.1-0.1,0.2-0.2,0.2-0.3
				c0.1-0.1,0.1-0.1,0.2-0.2c0,0,0-0.1,0-0.1l0,0c0-0.1,0.1-0.3,0.2-0.4c0.1-0.2,0.3-0.4,0.5-0.5c0.2-0.2,0.4-0.3,0.6-0.5
				c0.2-0.2,0.4-0.3,0.5-0.4l0,0l0.3,0.1c0,0,0.2,0,0.3-0.1s0.3-0.1,0.4-0.1l0,0l0.5-0.3c0.2,0,0.2-0.1,0.2-0.2l0,0l1.3-0.6
				c0,0,0.1-0.1,0.1-0.1c0.1-0.1,0.1-0.1,0.1-0.1l0,0l-0.3-1.1c0,0,0-0.1-0.1-0.1l0,0c0,0,0,0,0,0s0,0,0,0l0,0h-0.1
				c-0.1,0-0.3,0-0.6,0.1c-0.3,0-0.6,0.1-0.8,0.2c-0.3,0.1-0.5,0.1-0.8,0.2c-0.2,0-0.3,0.1-0.3,0.1l0,0c0,0-0.1,0-0.1,0l0,0
				c-0.1,0-0.3-0.1-0.4-0.2c-0.1-0.1-0.3-0.3-0.4-0.4l0,0l-0.3-0.1l-0.2-0.1c0,0,0-0.1,0-0.1c0,0,0-0.1-0.1-0.1l0,0l-0.1-0.1
				c0-0.1,0.2-0.2,0.5-0.3c0.4-0.1,0.8-0.2,1.4-0.2s1.1-0.1,1.8-0.1c0.6,0,1.2,0,1.7,0l0,0h0.1c0.3,0,0.6,0,0.8,0.1
				c0.2,0.1,0.4,0.2,0.5,0.4c0.1,0.1,0.2,0.3,0.3,0.5c0.1,0.2,0.2,0.3,0.3,0.4l0,0v0.6c0,0.2,0,0.4,0,0.6s0,0.3,0,0.4l0,0
				c0,0.1,0,0.3,0,0.4s-0.1,0.3-0.1,0.6l0,0c0,0.1,0,0.2,0.1,0.3s0.1,0.2,0.1,0.2l0,0v0l0,0.2l-0.3,0.3l0.2,0.2l-0.2,0.3
				c0,0,0,0.1,0,0.2c0,0.1,0,0.1,0,0.2l0,0l0,0l-0.1,0.5l0.3,0.1l0,0.2l-0.2,0.1l0.1,0.1l0,0.2c-0.1,0.2-0.2,0.5-0.2,0.9
				c0,0.4-0.1,0.7-0.1,0.8l0,0c0,0-0.1,0.1-0.2,0.1c-0.1,0-0.3,0-0.5,0s-0.3,0-0.5,0c-0.1,0-0.2,0-0.2,0l0,0c-0.2,0-0.4-0.1-0.5-0.2
				s-0.3-0.2-0.3-0.4s-0.1-0.3-0.2-0.5c0-0.2,0-0.4,0-0.5l0,0c0-0.4,0.1-0.7,0.2-0.9c0.1-0.2,0.2-0.6,0.2-1l0,0c0-0.2,0-0.4,0-0.5
				c0-0.2,0-0.3-0.2-0.3l0,0c0,0-0.1,0.1-0.1,0.1s-0.1,0.1-0.1,0.1l0,0c0,0-0.1,0-0.2,0l0,0c0,0-0.1,0-0.3,0.1
				c-0.2,0.1-0.3,0.1-0.5,0.2c-0.2,0.1-0.3,0.2-0.5,0.3c-0.1,0.1-0.2,0.2-0.2,0.2l0,0c-0.2,0.2-0.5,0.3-0.7,0.4
				c-0.2,0.1-0.4,0.2-0.6,0.4l0,0l-0.1,0.5c0,0,0,0.1,0,0.1c0,0.1,0,0.1,0,0.2l0,0l0,0l0.1-0.1l0.1,0.2c0.2,0,0.3,0,0.5,0
				c0.2,0,0.3,0,0.3,0l0,0c0,0,0,0,0,0c0,0,0,0,0,0l0,0c0.1,0,0.2,0.1,0.4,0.2C185.2,142.8,185.4,142.8,185.6,142.8L185.6,142.8
				C185.6,142.8,185.6,142.8,185.6,142.8z M192.3,140.5l-0.1-0.5l0.4-0.9c0,0,0-0.1,0-0.1s0-0.1,0-0.1l0,0c0-0.2,0-0.4,0.1-0.7
				c0.1-0.3,0.2-0.5,0.3-0.8s0.3-0.6,0.4-0.8c0.2-0.3,0.3-0.5,0.5-0.8l0,0c0,0,0,0,0-0.1l0,0c0-0.1,0-0.2,0.1-0.2
				c0.1-0.1,0.1-0.1,0.2-0.1l0,0c0.2,0,0.4,0,0.7,0.1c0.2,0.1,0.5,0.2,0.7,0.3s0.4,0.3,0.5,0.5s0.2,0.4,0.2,0.6l0,0l-0.1,0.3
				l2.6-1.1h0.6c0,0,0-0.1,0.1-0.1s0.1,0,0.1,0l0,0c0.1,0,0.2,0,0.3,0.1c0.1,0,0.1,0.1,0.2,0.2l0,0l0.4,0.1c0.1,0,0.2,0.1,0.4,0.2
				c0.2,0.1,0.3,0.2,0.3,0.2l0,0v0.6h-0.1l0,0.1c0,0,0,0,0,0l0,0h0.1c0,0,0,0,0.1,0l0,0v0.1l-0.1,0.1c0,0.2,0,0.3,0.1,0.3l0,0
				c0,0.2,0,0.5-0.1,0.8c-0.1,0.3-0.2,0.6-0.4,0.7l0,0h0.2c0,0-0.1,0.1-0.1,0.2l0,0c0,0.1,0,0.1,0,0.1s0,0,0,0l0,0
				c0,0.2,0,0.4-0.1,0.5c-0.1,0.2-0.1,0.3-0.1,0.4l0,0l-0.1,0.5c0,0.2-0.1,0.3-0.1,0.4c-0.1,0.1-0.1,0.3-0.1,0.5l0,0l0.1,0.2
				c0,0.1,0,0.2-0.1,0.3c-0.1,0.1-0.1,0.2-0.1,0.3l0,0c0,0.2,0,0.4,0.1,0.4l0,0v0.1l-0.2,0.1l-0.1,0.2c-0.1,0-0.2,0.1-0.2,0.1
				c0,0-0.1,0.1-0.1,0.1s-0.1,0-0.1,0c-0.1,0-0.2,0-0.4,0l0,0c-0.2,0-0.4-0.1-0.5-0.3c-0.1-0.2-0.2-0.4-0.3-0.6
				c-0.1-0.2-0.1-0.5-0.1-0.7c0-0.3,0-0.4,0-0.6l0,0c0-0.3,0-0.6,0-0.8c0-0.2,0-0.5,0-0.7c0-0.2,0-0.4,0-0.7c0-0.2,0.1-0.5,0.1-0.8
				l0,0c0-0.1,0-0.2,0-0.4s0-0.3,0-0.4l0,0L198,138c-0.5,0.2-1,0.5-1.5,0.8c-0.5,0.3-0.8,0.7-0.9,1.2l0,0l-0.1,0.3l0.1,0.1
				c0,0.1-0.1,0.2-0.1,0.2c0,0.1,0,0.2,0,0.4l0,0l0.3-0.2v0c0,0.3-0.1,0.5-0.3,0.7c-0.2,0.1-0.3,0.3-0.3,0.5l0,0l0.2,0.9l-0.1,0.9
				h-0.3c0,0-0.1,0.1-0.2,0.1c-0.1,0.1-0.1,0.1-0.2,0.1l0,0l-1.6-0.2l-1.1-0.5l0.3-0.4c0,0-0.1,0.1-0.1,0.1l0,0h0
				c-0.1,0-0.1,0-0.1,0l0,0c0-0.1,0-0.2,0.1-0.2l0,0l0.1,0.1l0.6-0.6c0-0.1,0-0.2-0.1-0.2l0,0c-0.1,0.1-0.1,0.1-0.1,0.1
				c0,0-0.1,0-0.4,0l0,0c0-0.2,0-0.4,0.1-0.5s0.1-0.3,0.1-0.4l0,0h-0.1c0,0-0.1,0-0.2-0.1l0,0c0,0-0.1,0-0.1,0c0,0-0.1,0-0.1,0l0,0
				c0-0.1,0.1-0.2,0.2-0.3C192.2,140.6,192.3,140.5,192.3,140.5L192.3,140.5z M192.6,141.8L192.6,141.8c0.1,0,0.2,0,0.1-0.1
				c0-0.1,0-0.3,0.1-0.5l0,0c-0.1,0-0.1,0.1-0.2,0.2C192.6,141.5,192.6,141.6,192.6,141.8L192.6,141.8
				C192.6,141.8,192.6,141.8,192.6,141.8z M192.3,141l0-0.2h-0.1v0C192.2,140.9,192.2,140.9,192.3,141L192.3,141z M192.3,141.6
				L192.3,141.6l0.1-0.1C192.3,141.5,192.3,141.5,192.3,141.6L192.3,141.6C192.3,141.5,192.3,141.5,192.3,141.6
				C192.3,141.6,192.3,141.6,192.3,141.6L192.3,141.6z M192.5,140.6L192.5,140.6l0.1-0.1L192.5,140.6z M222.6,136.4l0,0.3v0.3
				l-0.7,0.5l-0.1,0.3c-0.1,0.1-0.1,0.3-0.1,0.4l0,0v1c0,0.3,0,0.7,0,1s-0.1,0.7-0.1,1l0,0l-0.1,0.9l-0.2,0.5l0.2,0.2l-0.1,0.7v0.6
				l0.4-0.2v0.4l-0.2,0.4l-0.2-0.2l-1.2,0.2l-0.2,0.3h-0.5l-0.8-0.3l-0.2-0.2l-0.4,0.1l-0.2-0.5v-2l0.1-0.4c0-0.1,0-0.2,0-0.3
				c0-0.1,0-0.2,0-0.2l0,0c0-0.1,0-0.3,0-0.6c0-0.4,0-0.8,0-1.2s0-0.8,0-1.2c0-0.4,0-0.6,0-0.6l0,0c-0.2,0.1-0.5,0.2-0.7,0.3
				s-0.5,0.1-0.7,0.1l0,0l-0.2,0c-0.1,0-0.2,0-0.2,0c0,0-0.1,0-0.2,0l0,0c0,0-0.1,0-0.1-0.1l0,0c-0.1,0-0.3,0.1-0.4,0.1l0,0
				c-0.2,0-0.5,0-0.7-0.1c-0.2-0.1-0.4-0.1-0.6-0.1l0,0c0,0-0.1,0-0.3,0c-0.1,0-0.2,0-0.3,0l0,0c-0.1,0-0.1,0-0.2,0s-0.1,0-0.1-0.1
				l0,0l-0.3-0.4l-0.2,0.5l0.1,0.1l-0.1,0.3l0.2,0.3c0,0.2,0,0.3,0,0.3c0,0.1,0,0.1,0,0.2l0,0c0,0,0,0.1,0.1,0.3
				c0,0.1,0.1,0.3,0.1,0.5c0.1,0.2,0.1,0.3,0.1,0.5c0,0.2,0.1,0.2,0.1,0.3l0,0v0.6l-0.2,0.1v0.4l-0.2,0.4c0,0.2,0,0.4-0.1,0.7
				c0,0.3-0.1,0.5-0.1,0.6l0,0l-0.2,0.2c0,0.1-0.1,0.1-0.2,0.2c-0.1,0.1-0.2,0.1-0.2,0.1l0,0l-0.3,0l-0.5-0.2l-0.5,0.1l-0.8-0.1
				l-0.2-0.2l-0.2-0.9v-0.3l-0.2-0.1l0.3-0.9v-0.2l-0.2-0.3l0-0.3l0.1,0.3c0-0.2,0.1-0.5,0.2-0.8c0.1-0.4,0.2-0.6,0.2-0.6l0,0
				l0.1,0.3V139l-0.2,0.1l0.2-0.4l0-0.3l0.3-0.5v-0.2l0,0.1v-0.3c0-0.1,0-0.2,0-0.2s0-0.1,0-0.1l0,0l-0.1,0v-0.2h0c0,0,0,0,0.1,0
				l0,0c0-0.1,0.1-0.2,0.1-0.2l0,0v-0.1l0,0c0,0,0,0.1-0.1,0.2l0,0v0c0-0.1,0-0.2,0-0.3s0-0.3,0.1-0.4c0-0.1,0.1-0.2,0.1-0.3
				c0-0.1,0.1-0.1,0.1-0.1l0,0l-0.1-0.1l0.1-1c0.1-0.1,0.2-0.2,0.3-0.5s0.2-0.4,0.2-0.4l0,0c0.1,0,0.1,0,0.2,0.1l0,0
				c-0.1,0.1-0.2,0.2-0.2,0.3c-0.1,0.1-0.1,0.2-0.1,0.3l0,0c0.2,0,0.3-0.2,0.4-0.5s0.1-0.5,0.2-0.7l0,0h-0.1c-0.1,0-0.2,0.1-0.2,0.1
				s0,0.1-0.1,0.1l0,0l-0.1,0c0,0,0-0.1,0-0.1c0,0,0-0.1,0.1-0.2l0,0l0.2-0.3c0,0,0,0,0-0.1l0,0c0,0,0-0.1,0.1-0.3
				c0-0.1,0.1-0.3,0.2-0.4c0.1-0.2,0.2-0.3,0.2-0.4c0.1-0.1,0.2-0.2,0.3-0.2l0,0l0.1,0.1l0.3-0.1l0,0.1l0.2,0c0,0,0.1,0,0.1,0.1
				c0.1,0.1,0.1,0.1,0.1,0.1l0,0l0,0.2c0,0.1,0.1,0.1,0.2,0.2c0.1,0.1,0.1,0.1,0.1,0.1l0,0c0,0.1,0,0.2-0.1,0.3
				c0,0.1-0.1,0.1-0.1,0.2l0,0c0,0.2,0,0.3,0.1,0.4c0,0.1,0.1,0.3,0.1,0.6l0,0c0,0.2,0,0.4,0,0.7c0,0.3-0.1,0.7-0.2,1.1l0,0l-0.1,0
				v0.6l0.2,0c0,0,0.1,0,0.2,0s0.1,0,0.1,0l0,0l1,0.1l0.5-0.1c0,0,0.1,0,0.1,0l0,0c0.1,0,0.1,0,0.2,0c0.1,0,0.2,0,0.3,0l0,0
				c0.5,0,0.8-0.2,1.1-0.5c0.3-0.4,0.6-0.8,0.8-1.2l0,0l-0.1-0.1c0.2-0.2,0.3-0.3,0.4-0.4c0.1-0.1,0.2-0.3,0.2-0.5l0,0l0.1-0.4
				l0.4-0.5l0.2-0.5c0,0,0.1-0.1,0.1-0.1c0,0,0-0.1,0.1-0.1l0,0l0.2-0.9v-0.4l0.1-0.1c0.1,0,0.2-0.1,0.4-0.1c0.1,0,0.4-0.1,0.8-0.2
				l0,0l0.7-0.1l0.4,0.1c0.1,0,0.2,0,0.3,0s0.2,0,0.2,0l0,0l0.9,0.5l0.2,0.3l0.1,0.7l-0.4,0.6l-0.5-0.3l-0.1-0.2l-0.1-0.1
				c-0.2,0-0.3-0.1-0.2-0.1l0,0h-0.1l-0.2,0.5c0,0,0,0.1,0,0.2l0,0c0,0.1,0,0.1,0,0.2c0,0.1,0,0.2,0,0.2l0,0c0,0.1,0,0.1,0,0.2l0,0
				l0.3-0.1l0.1,0.2l0.2-0.3l0-0.4l0.1-0.1l0.4,0.4l0.3,0.2v0.4c0,0.1,0,0.2,0,0.3c0,0.1,0,0.2,0,0.3l0,0l-0.1,0.4l-0.2,0.3
				c-0.1,0.2-0.2,0.5-0.3,0.8c-0.1,0.4-0.2,0.7-0.2,0.9l0,0L222.6,136.4z M222.2,133.9l-0.1-0.3l-0.4,0.9c0,0.1-0.1,0.2-0.1,0.4
				c0,0.2-0.1,0.3-0.1,0.4l0,0l0.1,0.3l0.6-1.1v-0.2C222.2,134.1,222.2,134,222.2,133.9L222.2,133.9z M222.5,134.5l-0.2,0.3
				l-0.1,0.5l0.2-0.4c0-0.1,0.1-0.2,0.1-0.3s0-0.2,0-0.3l0,0L222.5,134.5z M221.9,133.1L221.9,133.1
				C221.9,133.1,221.9,133.1,221.9,133.1C221.8,133.1,221.8,133.1,221.9,133.1L221.9,133.1c-0.2,0-0.3,0-0.3,0.2l0,0
				c0,0.1,0,0.2,0.1,0.2l0,0C221.9,133.4,221.9,133.4,221.9,133.1L221.9,133.1C221.9,133.2,221.9,133.1,221.9,133.1z M221.3,134.6
				L221.3,134.6L221.3,134.6c-0.2,0-0.2,0.1-0.2,0.2l0,0c0,0.1,0.1,0.2,0.2,0.2l0,0c0.1,0,0.2-0.1,0.2-0.2l0,0
				C221.4,134.7,221.3,134.7,221.3,134.6z M222.3,133.1L222.3,133.1L222.3,133.1c-0.2,0-0.3,0.1-0.3,0.2l0,0c0,0,0,0.1,0,0.1
				c0,0,0.1,0.1,0.1,0.1l0,0C222.3,133.4,222.3,133.4,222.3,133.1L222.3,133.1C222.3,133.2,222.3,133.1,222.3,133.1z M221.6,142.5
				v0.7l-0.2,0.1L221.6,142.5z M221.6,141.9l0.2,0l-0.1,0.4l-0.1-0.1L221.6,141.9z M222.1,135.7L222.1,135.7L222.1,135.7
				c0,0.1,0,0.2,0.1,0.2l0,0c0.1,0,0.2-0.1,0.2-0.2l0,0c0-0.1,0-0.1-0.1-0.1l0,0C222.2,135.6,222.1,135.6,222.1,135.7z M221.8,141.6
				L221.8,141.6c0.1,0,0.2,0,0.2,0.1l0,0c0,0.1-0.1,0.1-0.2,0.1l0,0c-0.1,0-0.1,0-0.1-0.1l0,0C221.7,141.6,221.7,141.6,221.8,141.6z
				 M225.3,140.6l0.1-0.2c0,0,0-0.1,0-0.1c0,0,0-0.1,0.1-0.1l0,0l0.1-0.1c0-0.3,0.1-0.7,0.3-1.2c0.2-0.5,0.4-0.8,0.7-1l0,0l0.3-0.1
				c0,0,0.1-0.1,0.1-0.1s0-0.1,0-0.2l0,0l0.1-0.2c0.2-0.2,0.4-0.5,0.6-0.7c0.2-0.3,0.4-0.5,0.6-0.7c0.2-0.2,0.4-0.4,0.6-0.5
				c0.2-0.1,0.3-0.2,0.5-0.2l0,0c0,0,0.1,0,0.1,0c0,0,0.1,0.1,0.3,0.1l0,0l0.4,0.5c0.1,0,0.2,0.1,0.2,0.3l0,0l0.1,0.2v0.5l0.1,0.1
				c0,0,0.1,0.1,0.1,0.1c0,0,0.1,0.1,0.1,0.1l0,0l0.4,0.3c0,0.1,0.1,0.2,0.2,0.3c0.1,0.1,0.2,0.3,0.3,0.4l0,0l0.5,0.5
				c0,0.1,0.1,0.2,0.1,0.4c0,0.2,0.1,0.4,0.1,0.6s0.1,0.4,0.1,0.5c0,0.2,0,0.3,0,0.3l0,0v0.3l-0.3,0.7l0,0.3l-0.3,0.4l-0.5,0.4
				c-0.1,0.1-0.3,0.1-0.4,0.1c-0.2,0-0.3,0.1-0.5,0.2l0,0l-0.3,0.1c-0.1,0.1-0.2,0.1-0.3,0.1l0,0c0,0,0,0,0,0c0,0,0,0,0,0l0,0
				l-0.4,0.1c-0.1,0.1-0.3,0.1-0.6,0.1l0,0c-0.2,0-0.3,0-0.4,0l0,0l-0.8-0.2l-0.8-0.3c-0.3-0.1-0.5-0.2-0.7-0.2
				c-0.2-0.1-0.3-0.3-0.5-0.7l0,0c0-0.1-0.1-0.2-0.1-0.3c0-0.1-0.1-0.2-0.1-0.3l0,0L225.3,140.6z M228.1,140.7l0,0.8l0.2,0
				c0.2,0,0.4-0.1,0.6-0.1c0.2,0,0.4-0.1,0.5-0.1l0,0l0.3-0.2l0.3-0.3l0.1-0.3l-0.4-1.5l-0.6-0.2l-0.1,0.1c0,0-0.1,0.1-0.2,0.2
				s-0.2,0.3-0.3,0.5s-0.2,0.4-0.3,0.6C228.2,140.3,228.2,140.5,228.1,140.7L228.1,140.7z M227.1,138.7l-0.2-0.1
				c-0.1,0.1-0.2,0.3-0.4,0.6c-0.2,0.3-0.2,0.5-0.2,0.8l0,0c0,0.1,0,0.2,0,0.2l0,0l0.1-0.2l0.5-1C227,138.8,227.1,138.7,227.1,138.7
				L227.1,138.7z M238.6,131.9L238.6,131.9c0,0.2-0.1,0.4-0.1,0.5c-0.1,0.1-0.1,0.3-0.2,0.5l0,0l0,0.1c0,0.1,0,0.2-0.1,0.3
				c-0.1,0.1-0.1,0.2-0.1,0.2l0,0l-0.1,1.3c0,0.1,0,0.1,0,0.2s0,0.1,0,0.2l0,0v0.3c0,0.1,0,0.2-0.1,0.4l0,0l0.1,0.3v0l0,0.1
				c-0.1,0.1-0.1,0.2-0.1,0.2s0,0.1,0,0.2l0,0l0.1,0.1c0,0.1,0,0.2,0,0.2l0,0l-0.2,0.5c0,0,0,0.1-0.1,0.2l0,0l-0.2-0.1l-0.8,1h0.1
				c0,0,0.1,0,0.2-0.1s0.2-0.1,0.3-0.1l0,0c0.1-0.1,0.3-0.1,0.4-0.2l0,0c0,0.2,0,0.3-0.1,0.4c-0.1,0.1-0.1,0.3-0.1,0.4l0,0l-0.1,0.6
				l0.1,0.3l-0.3,0l-0.4,0.2l0,0.1l0.3,0.3l0.3-0.4l0.1,0.1l0.1,0.4l0.2,0.1v0.7l-0.1,0.2h-0.4l-0.1,0.6h0.4c0,0,0.1,0.1,0.1,0.1
				s0.1,0.1,0.1,0.1l0,0l2.1,1.6l0.2,0.2v0.4l-0.9,0.4c-0.1,0-0.2,0-0.2,0c0,0,0,0-0.1,0s-0.1,0-0.2-0.1s-0.3-0.1-0.7-0.2l0,0
				c-0.1,0-0.1-0.1-0.1-0.1l0,0c0,0,0,0,0,0s0,0,0,0l0,0c0,0-0.1,0-0.1,0l0,0l-0.3-0.1c0,0,0,0-0.1,0l0,0c-0.2,0-0.4,0-0.5,0
				c-0.1,0-0.2-0.1-0.3-0.2l0,0l-1.3-0.7c0,0,0,0-0.1-0.1c-0.1-0.1-0.2-0.2-0.2-0.3c-0.1-0.1-0.2-0.2-0.2-0.3s-0.1-0.1-0.1-0.1l0,0
				l-0.2-1.1c0-0.1,0-0.1,0.1-0.2c0-0.1,0.1-0.2,0.1-0.3l0,0c0-0.1,0-0.2,0-0.2c0,0,0-0.1,0-0.2l0,0v-0.1v0c0,0,0-0.1,0-0.1
				c0,0,0-0.1,0-0.2l0,0c0,0,0,0,0-0.1l0,0l0-0.2l0.2-0.4c0,0,0,0,0,0c0,0,0,0,0,0l0,0v-0.1c0-0.1,0-0.1-0.1-0.1
				c-0.1,0-0.1,0-0.1-0.1l0,0l0.2-0.6v-0.3c0-0.1,0-0.2,0-0.3c0-0.1,0-0.2,0-0.4l0,0c0.1-0.4,0.1-0.8,0.2-1c0.1-0.3,0.2-0.6,0.3-1
				l0,0c0,0,0.1,0,0.1-0.1l0,0c0-0.1,0-0.1-0.1-0.1c0,0-0.1-0.1-0.1-0.3l0,0c0-0.2,0.1-0.5,0.2-0.9s0.2-0.8,0.2-1.2l0,0h-0.1
				c0-0.2,0.1-0.5,0.1-0.7c0-0.3,0.1-0.5,0.2-0.8l0,0l0.1-0.4c0.1-0.2,0.1-0.3,0.1-0.4l0,0l0.1-0.7l0.2-0.2c0.1,0,0.3,0,0.6,0.1
				c0.3,0,0.5,0.1,0.6,0.1l0,0c0.1-0.1,0.2-0.1,0.3-0.1l0,0h0.4l1,0.4l-0.1,0.5c0,0.1,0,0.2,0.1,0.4c0.1,0.2,0.1,0.3,0.1,0.3l0,0
				L238.6,131.9z M238,141.6l0.1-0.3h0.6l-0.4,0.1l-0.1,0.4L238,141.6z M235.4,132.4L235.4,132.4c0,0-0.1,0.1-0.1,0.2l0,0
				c0,0.1,0,0.2,0.1,0.2l0,0c0.1,0,0.1-0.1,0.1-0.2l0,0C235.5,132.5,235.5,132.4,235.4,132.4z M237.6,136.6l-0.2,0.2v0.1
				c0,0.1,0,0.1,0.1,0.1l0,0c0,0,0.1-0.1,0.2-0.2l0,0C237.6,136.7,237.6,136.7,237.6,136.6L237.6,136.6L237.6,136.6z M235.5,131.9
				L235.5,131.9c-0.1,0-0.1,0.1-0.1,0.1l0,0c0,0.1,0,0.1,0.1,0.1l0,0c0.1,0,0.1,0,0.1-0.1l0,0C235.6,131.9,235.6,131.9,235.5,131.9z
				 M237.6,141.8h0.1v0.1h-0.2L237.6,141.8z M246.4,131.9L246.4,131.9c0,0.2-0.1,0.4-0.1,0.5c-0.1,0.1-0.1,0.3-0.2,0.5l0,0l0,0.1
				c0,0.1,0,0.2-0.1,0.3c-0.1,0.1-0.1,0.2-0.1,0.2l0,0l-0.1,1.3c0,0.1,0,0.1,0,0.2c0,0.1,0,0.1,0,0.2l0,0v0.3c0,0.1,0,0.2-0.1,0.4
				l0,0l0.1,0.3v0l0,0.1c-0.1,0.1-0.1,0.2-0.1,0.2s0,0.1,0,0.2l0,0l0.1,0.1c0,0.1,0,0.2,0,0.2l0,0l-0.2,0.5c0,0,0,0.1-0.1,0.2l0,0
				l-0.2-0.1l-0.8,1h0.1c0,0,0.1,0,0.2-0.1c0.1-0.1,0.2-0.1,0.3-0.1l0,0c0.1-0.1,0.3-0.1,0.4-0.2l0,0c0,0.2,0,0.3-0.1,0.4
				c-0.1,0.1-0.1,0.3-0.1,0.4l0,0l-0.1,0.6l0.1,0.3l-0.3,0l-0.4,0.2l0,0.1l0.3,0.3l0.3-0.4l0.1,0.1l0.1,0.4l0.2,0.1v0.7l-0.1,0.2
				h-0.4l-0.1,0.6h0.4c0,0,0.1,0.1,0.1,0.1s0.1,0.1,0.1,0.1l0,0l2.1,1.6l0.2,0.2v0.4l-0.9,0.4c-0.1,0-0.2,0-0.2,0c0,0,0,0-0.1,0
				c0,0-0.1,0-0.2-0.1s-0.3-0.1-0.7-0.2l0,0c-0.1,0-0.1-0.1-0.1-0.1l0,0c0,0,0,0,0,0s0,0,0,0l0,0c0,0-0.1,0-0.1,0l0,0l-0.3-0.1
				c0,0,0,0-0.1,0l0,0c-0.2,0-0.4,0-0.5,0c-0.1,0-0.2-0.1-0.3-0.2l0,0l-1.3-0.7c0,0,0,0-0.1-0.1c-0.1-0.1-0.2-0.2-0.2-0.3
				c-0.1-0.1-0.2-0.2-0.2-0.3c-0.1-0.1-0.1-0.1-0.1-0.1l0,0l-0.2-1.1c0-0.1,0-0.1,0.1-0.2c0-0.1,0.1-0.2,0.1-0.3l0,0
				c0-0.1,0-0.2,0-0.2s0-0.1,0-0.2l0,0v-0.1v0c0,0,0-0.1,0-0.1c0,0,0-0.1,0-0.2l0,0c0,0,0,0,0-0.1l0,0l0-0.2l0.2-0.4c0,0,0,0,0,0
				s0,0,0,0l0,0v-0.1c0-0.1,0-0.1-0.1-0.1c-0.1,0-0.1,0-0.1-0.1l0,0l0.2-0.6v-0.3c0-0.1,0-0.2,0-0.3c0-0.1,0-0.2,0-0.4l0,0
				c0.1-0.4,0.1-0.8,0.2-1c0.1-0.3,0.2-0.6,0.3-1l0,0c0,0,0.1,0,0.1-0.1l0,0c0-0.1,0-0.1-0.1-0.1c0,0-0.1-0.1-0.1-0.3l0,0
				c0-0.2,0.1-0.5,0.2-0.9c0.1-0.4,0.2-0.8,0.2-1.2l0,0h-0.1c0-0.2,0.1-0.5,0.1-0.7c0-0.3,0.1-0.5,0.2-0.8l0,0l0.1-0.4
				c0.1-0.2,0.1-0.3,0.1-0.4l0,0l0.1-0.7l0.2-0.2c0.1,0,0.3,0,0.6,0.1c0.3,0,0.5,0.1,0.6,0.1l0,0c0.1-0.1,0.2-0.1,0.3-0.1l0,0h0.4
				l1,0.4l-0.1,0.5c0,0.1,0,0.2,0.1,0.4c0.1,0.2,0.1,0.3,0.1,0.3l0,0L246.4,131.9z M245.8,141.6l0.1-0.3h0.6l-0.4,0.1l-0.1,0.4
				L245.8,141.6z M243.2,132.4L243.2,132.4c0,0-0.1,0.1-0.1,0.2l0,0c0,0.1,0,0.2,0.1,0.2l0,0c0.1,0,0.1-0.1,0.1-0.2l0,0
				C243.3,132.5,243.3,132.4,243.2,132.4z M245.4,136.6l-0.2,0.2v0.1c0,0.1,0,0.1,0.1,0.1l0,0c0,0,0.1-0.1,0.2-0.2l0,0
				C245.4,136.7,245.4,136.7,245.4,136.6L245.4,136.6L245.4,136.6z M243.3,131.9L243.3,131.9c-0.1,0-0.1,0.1-0.1,0.1l0,0
				c0,0.1,0,0.1,0.1,0.1l0,0c0.1,0,0.1,0,0.1-0.1l0,0C243.4,131.9,243.4,131.9,243.3,131.9z M245.4,141.8h0.1v0.1h-0.2L245.4,141.8z
				 M254,142.8L254,142.8c0.4,0.1,0.6,0.2,0.6,0.2l0,0l0,0.3c0,0.2,0,0.5,0.1,0.6l0,0c0,0.1,0.1,0.1,0.1,0.2l0,0
				c0,0-0.1,0.1-0.3,0.1s-0.4,0-0.7,0c-0.3,0-0.5,0-0.8,0c-0.3,0-0.5,0-0.6,0l0,0h-0.2c-0.5,0-0.9-0.1-1.2-0.2
				c-0.3-0.2-0.6-0.4-0.8-0.8l0,0l-0.1-0.1l-0.1-0.4c0-0.2-0.1-0.3-0.1-0.5c0-0.2-0.1-0.3-0.1-0.5l0,0c0-0.1,0.1-0.2,0.2-0.3
				c0.1-0.1,0.2-0.2,0.2-0.3c0.1-0.1,0.1-0.1,0.2-0.2c0,0,0-0.1,0-0.1l0,0c0-0.1,0.1-0.3,0.2-0.4c0.1-0.2,0.3-0.4,0.5-0.5
				c0.2-0.2,0.4-0.3,0.6-0.5c0.2-0.2,0.4-0.3,0.5-0.4l0,0l0.3,0.1c0,0,0.2,0,0.3-0.1c0.2-0.1,0.3-0.1,0.4-0.1l0,0l0.5-0.3
				c0.2,0,0.2-0.1,0.2-0.2l0,0l1.3-0.6c0,0,0.1-0.1,0.1-0.1c0.1-0.1,0.1-0.1,0.1-0.1l0,0l-0.3-1.1c0,0,0-0.1-0.1-0.1l0,0
				c0,0,0,0,0,0s0,0,0,0l0,0h-0.1c-0.1,0-0.3,0-0.6,0.1c-0.3,0-0.6,0.1-0.8,0.2c-0.3,0.1-0.5,0.1-0.8,0.2c-0.2,0-0.3,0.1-0.3,0.1
				l0,0c0,0-0.1,0-0.1,0l0,0c-0.1,0-0.3-0.1-0.4-0.2c-0.1-0.1-0.3-0.3-0.4-0.4l0,0l-0.3-0.1l-0.2-0.1c0,0,0-0.1,0-0.1
				c0,0,0-0.1-0.1-0.1l0,0l-0.1-0.1c0-0.1,0.2-0.2,0.5-0.3s0.8-0.2,1.4-0.2c0.6-0.1,1.1-0.1,1.8-0.1c0.6,0,1.2,0,1.7,0l0,0h0.1
				c0.3,0,0.6,0,0.8,0.1c0.2,0.1,0.4,0.2,0.5,0.4s0.2,0.3,0.3,0.5c0.1,0.2,0.2,0.3,0.3,0.4l0,0v0.6c0,0.2,0,0.4,0,0.6s0,0.3,0,0.4
				l0,0c0,0.1,0,0.3,0,0.4s-0.1,0.3-0.1,0.6l0,0c0,0.1,0,0.2,0.1,0.3s0.1,0.2,0.1,0.2l0,0v0l0,0.2l-0.3,0.3l0.2,0.2l-0.2,0.3
				c0,0,0,0.1,0,0.2c0,0.1,0,0.1,0,0.2l0,0l0,0l-0.1,0.5l0.3,0.1l0,0.2l-0.2,0.1l0.1,0.1l0,0.2c-0.1,0.2-0.2,0.5-0.2,0.9
				c0,0.4-0.1,0.7-0.1,0.8l0,0c0,0-0.1,0.1-0.2,0.1c-0.1,0-0.3,0-0.5,0c-0.2,0-0.3,0-0.5,0c-0.1,0-0.2,0-0.2,0l0,0
				c-0.2,0-0.4-0.1-0.5-0.2c-0.1-0.1-0.3-0.2-0.3-0.4c-0.1-0.2-0.1-0.3-0.2-0.5c0-0.2,0-0.4,0-0.5l0,0c0-0.4,0.1-0.7,0.2-0.9
				c0.1-0.2,0.2-0.6,0.2-1l0,0c0-0.2,0-0.4,0-0.5c0-0.2,0-0.3-0.2-0.3l0,0c0,0-0.1,0.1-0.1,0.1c-0.1,0.1-0.1,0.1-0.1,0.1l0,0
				c0,0-0.1,0-0.2,0l0,0c0,0-0.1,0-0.3,0.1c-0.2,0.1-0.3,0.1-0.5,0.2c-0.2,0.1-0.3,0.2-0.5,0.3c-0.1,0.1-0.2,0.2-0.2,0.2l0,0
				c-0.2,0.2-0.5,0.3-0.7,0.4c-0.2,0.1-0.4,0.2-0.6,0.4l0,0l-0.1,0.5c0,0,0,0.1,0,0.1c0,0.1,0,0.1,0,0.2l0,0l0,0l0.1-0.1l0.1,0.2
				c0.2,0,0.3,0,0.5,0c0.2,0,0.3,0,0.3,0l0,0c0,0,0,0,0,0c0,0,0,0,0,0l0,0c0.1,0,0.2,0.1,0.4,0.2C253.6,142.8,253.7,142.8,254,142.8
				L254,142.8C253.9,142.8,253.9,142.8,254,142.8z M260.6,140.5l-0.1-0.5l0.4-0.9c0,0,0-0.1,0-0.1c0,0,0-0.1,0-0.1l0,0
				c0-0.2,0-0.4,0.1-0.7c0.1-0.3,0.2-0.5,0.3-0.8s0.3-0.6,0.4-0.8s0.3-0.5,0.5-0.8l0,0c0,0,0,0,0-0.1l0,0c0-0.1,0-0.2,0.1-0.2
				c0.1-0.1,0.1-0.1,0.2-0.1l0,0c0.2,0,0.4,0,0.7,0.1s0.5,0.2,0.7,0.3c0.2,0.1,0.4,0.3,0.5,0.5s0.2,0.4,0.2,0.6l0,0l-0.1,0.3
				l2.6-1.1h0.6c0,0,0-0.1,0.1-0.1c0.1,0,0.1,0,0.1,0l0,0c0.1,0,0.2,0,0.3,0.1s0.1,0.1,0.2,0.2l0,0l0.4,0.1c0.1,0,0.2,0.1,0.4,0.2
				s0.3,0.2,0.3,0.2l0,0v0.6h-0.1l0,0.1c0,0,0,0,0,0l0,0h0.1c0,0,0,0,0.1,0l0,0v0.1l-0.1,0.1c0,0.2,0,0.3,0.1,0.3l0,0
				c0,0.2,0,0.5-0.1,0.8c-0.1,0.3-0.2,0.6-0.4,0.7l0,0h0.2c0,0-0.1,0.1-0.1,0.2l0,0c0,0.1,0,0.1,0,0.1c0,0,0,0,0,0l0,0
				c0,0.2,0,0.4-0.1,0.5c-0.1,0.2-0.1,0.3-0.1,0.4l0,0l-0.1,0.5c0,0.2-0.1,0.3-0.1,0.4c-0.1,0.1-0.1,0.3-0.1,0.5l0,0l0.1,0.2
				c0,0.1,0,0.2-0.1,0.3c-0.1,0.1-0.1,0.2-0.1,0.3l0,0c0,0.2,0,0.4,0.1,0.4l0,0v0.1l-0.2,0.1l-0.1,0.2c-0.1,0-0.2,0.1-0.2,0.1
				c0,0-0.1,0.1-0.1,0.1c0,0-0.1,0-0.1,0c-0.1,0-0.2,0-0.4,0l0,0c-0.2,0-0.4-0.1-0.5-0.3c-0.1-0.2-0.2-0.4-0.3-0.6
				c-0.1-0.2-0.1-0.5-0.1-0.7c0-0.3,0-0.4,0-0.6l0,0c0-0.3,0-0.6,0-0.8s0-0.5,0-0.7s0-0.4,0-0.7s0.1-0.5,0.1-0.8l0,0
				c0-0.1,0-0.2,0-0.4c0-0.2,0-0.3,0-0.4l0,0l-0.4,0.1c-0.5,0.2-1,0.5-1.5,0.8c-0.5,0.3-0.8,0.7-0.9,1.2l0,0l-0.1,0.3l0.1,0.1
				c0,0.1-0.1,0.2-0.1,0.2c0,0.1,0,0.2,0,0.4l0,0l0.3-0.2v0c0,0.3-0.1,0.5-0.3,0.7s-0.3,0.3-0.3,0.5l0,0l0.2,0.9l-0.1,0.9h-0.3
				c0,0-0.1,0.1-0.2,0.1c-0.1,0.1-0.1,0.1-0.2,0.1l0,0l-1.6-0.2l-1.1-0.5l0.3-0.4c0,0-0.1,0.1-0.1,0.1l0,0h0c-0.1,0-0.1,0-0.1,0l0,0
				c0-0.1,0-0.2,0.1-0.2l0,0l0.1,0.1l0.6-0.6c0-0.1,0-0.2-0.1-0.2l0,0c-0.1,0.1-0.1,0.1-0.1,0.1c0,0-0.1,0-0.4,0l0,0
				c0-0.2,0-0.4,0.1-0.5c0.1-0.1,0.1-0.3,0.1-0.4l0,0h-0.1c0,0-0.1,0-0.2-0.1l0,0c0,0-0.1,0-0.1,0c0,0-0.1,0-0.1,0l0,0
				c0-0.1,0.1-0.2,0.2-0.3C260.5,140.6,260.6,140.5,260.6,140.5L260.6,140.5z M261,141.8L261,141.8c0.1,0,0.2,0,0.1-0.1
				c0-0.1,0-0.3,0.1-0.5l0,0c-0.1,0-0.1,0.1-0.2,0.2S260.9,141.6,261,141.8L261,141.8C260.9,141.8,260.9,141.8,261,141.8z
				 M260.6,141l0-0.2h-0.1v0C260.5,140.9,260.5,140.9,260.6,141L260.6,141z M260.6,141.6L260.6,141.6l0.1-0.1
				C260.7,141.5,260.7,141.5,260.6,141.6L260.6,141.6C260.7,141.5,260.7,141.5,260.6,141.6C260.6,141.6,260.6,141.6,260.6,141.6
				L260.6,141.6z M260.8,140.6L260.8,140.6l0.1-0.1L260.8,140.6z M277.1,143.8L277.1,143.8c-0.4,0.1-0.7,0.2-1.2,0.3
				c-0.4,0.1-0.8,0.1-1.2,0.1l0,0c-0.2,0-0.5,0-0.8-0.1c-0.3,0-0.7-0.1-1-0.2c-0.3-0.1-0.6-0.2-0.9-0.4s-0.4-0.4-0.4-0.6l0,0
				c0-0.1,0-0.2,0-0.3c0-0.1,0-0.2,0-0.3l0,0c0-0.6,0.1-1.1,0.1-1.4c0-0.3,0.1-0.6,0.1-0.7c0.1-0.2,0.1-0.3,0.2-0.5
				c0.1-0.1,0.2-0.4,0.3-0.7l0,0c0,0,0,0,0.1-0.1c0.1,0,0.1-0.1,0.1-0.1l0,0l0.2-0.1h0.2c0,0.1,0,0.1,0,0.2c0,0,0,0.1,0,0.1l0,0v0.1
				c0.1,0,0.2-0.1,0.2-0.2c0.1-0.1,0.1-0.2,0.2-0.3l0,0l1.5-1.3h-0.5c0.1-0.1,0.2-0.2,0.4-0.3c0.2-0.1,0.4-0.2,0.6-0.3
				c0.2-0.1,0.4-0.2,0.6-0.3c0.2-0.1,0.3-0.2,0.4-0.2l0,0c0.3-0.2,0.6-0.4,0.9-0.5c0.3-0.1,0.6-0.3,0.8-0.5l0,0
				c0.1-0.4,0.1-0.8,0.2-1.3s0.1-0.9,0.2-1.4c0.1-0.5,0.2-0.9,0.3-1.4c0.1-0.5,0.2-0.9,0.4-1.3l0,0c0-0.1,0.1-0.1,0.2-0.1
				c0.1,0,0.2,0,0.3,0l0,0c0,0,0.1,0,0.1,0c0,0,0.1,0,0.1,0l0,0l0.3-0.1h0.1c0.2,0,0.3,0,0.6,0.1c0.2,0.1,0.4,0.2,0.6,0.3
				c0.2,0.1,0.4,0.2,0.5,0.4c0.1,0.1,0.2,0.2,0.2,0.3l0,0c0,0.1,0,0.2-0.1,0.2l0,0l0.1,0.1c0,0-0.1,0-0.1,0.1
				c-0.1,0.1-0.2,0.1-0.2,0.2c-0.1,0.1-0.2,0.2-0.2,0.3c-0.1,0.1-0.1,0.2-0.1,0.2l0,0c0,0.2,0,0.4-0.1,0.6c-0.1,0.3-0.1,0.5-0.2,0.8
				c-0.1,0.3-0.1,0.5-0.2,0.7c-0.1,0.2-0.1,0.4-0.1,0.4l0,0l0.1,0.2c0,0.2,0,0.3-0.1,0.5c-0.1,0.2-0.1,0.4-0.1,0.5l0,0
				c0,0,0,0.1,0,0.2s-0.1,0.2-0.1,0.4c0,0.2-0.1,0.4-0.2,0.7c-0.1,0.3-0.2,0.8-0.2,1.3l0,0c-0.1,0.1-0.1,0.3-0.1,0.6s0,0.5,0,0.7
				l0,0l-0.1,0.2c0,0,0,0.1,0,0.2s0,0.2,0,0.3l0,0c-0.1,0-0.1,0-0.2,0.1c0,0.1-0.1,0.2-0.1,0.2l0,0v0.2l0.1-0.4c0,0.1,0,0.2,0.1,0.3
				c0,0.1,0,0.2,0,0.2l0,0l-0.1,0.2v0.3c0,0,0,0.1,0,0.1c0,0,0,0,0,0.1l0,0v0.1h-0.1v0.4h0.2l0.1,0.2l-0.1,0.4l0.1,0.1
				c0,0,0,0.1,0,0.2c0,0.1,0,0.2,0,0.2l0,0l-0.1,0.1v0.3l-0.6,0.3l-1.5,0.2c-0.2,0-0.4-0.1-0.5-0.3
				C277.2,143.9,277.1,143.8,277.1,143.8L277.1,143.8z M273.9,142.3L273.9,142.3c0.1,0.1,0.3,0.1,0.6,0.1c0.2,0,0.5,0.1,0.7,0.1
				c0.3,0,0.5,0,0.7,0c0.2,0,0.4,0.1,0.6,0.1l0,0c0,0,0.1,0,0.2,0.1c0.1,0.1,0.2,0.1,0.2,0.1l0,0c0,0,0-0.1,0-0.2l0,0v-0.3
				c0-0.1,0-0.2,0.1-0.5c0-0.3,0.1-0.6,0.1-1l0,0v-0.3h0c0-0.1,0-0.1,0-0.2s0-0.1,0-0.2l0,0v-1l0.1-0.1v-0.9c-0.1,0-0.2,0.1-0.5,0.2
				c-0.3,0.1-0.5,0.2-0.8,0.4s-0.6,0.3-0.8,0.4c-0.2,0.1-0.4,0.2-0.4,0.2l0,0c-0.3,0.4-0.5,0.7-0.6,1s-0.2,0.5-0.2,0.7l0,0v0.2
				c0,0,0,0.1,0,0.1c0,0,0,0.1,0,0.1l0,0l0.1,0.3c0,0,0,0.1,0,0.2C274,142.2,273.9,142.3,273.9,142.3z M273.8,137.8L273.8,137.8
				c0,0-0.1,0.1-0.2,0.3c-0.1,0.1-0.2,0.2-0.3,0.3l0,0v-0.1c0-0.1,0-0.2,0.1-0.3C273.6,137.9,273.7,137.8,273.8,137.8z M273.2,138.2
				l0,0.2c0,0,0,0.1-0.1,0.2c0,0.1-0.1,0.2-0.2,0.2l0,0v-0.3L273.2,138.2z M274.1,137.5L274.1,137.5
				C274.1,137.5,274.1,137.5,274.1,137.5L274.1,137.5c0,0.1,0,0.2,0,0.3c0,0.1-0.1,0.1-0.2,0.1l0,0c0,0,0,0,0,0l0,0
				c0,0,0-0.1,0.1-0.2C274,137.5,274.1,137.5,274.1,137.5z M292.5,144.4L292.5,144.4c0-0.3,0-0.6,0.1-0.9c0.1-0.3,0.1-0.6,0.1-0.9
				l0,0c0-1,0-1.9-0.1-2.6c0-0.7-0.1-1.3-0.1-2c-0.1-0.6-0.1-1.3-0.1-2s-0.1-1.6-0.1-2.6l0,0v-2c0-0.1,0.1-0.2,0.1-0.3s0-0.2,0-0.3
				l0,0c0-0.1,0-0.2,0-0.2s0-0.2-0.1-0.3l0,0c0,0,0.1-0.1,0.1-0.2c0-0.1,0-0.2,0-0.3l0,0v-1l-0.1-0.1l0.1-0.1c0-0.4,0-0.9,0-1.5
				c0-0.6,0-1.1,0-1.5l0,0c0-0.2,0-0.5-0.1-0.7c0-0.2-0.1-0.5-0.1-0.8l0,0l-0.1-0.2c0-0.2,0.1-0.2,0.3-0.3c0.2,0,0.4,0,0.4,0l0,0
				c0.8,0,1.3,0.1,1.6,0.2c0.3,0.2,0.5,0.5,0.5,1.1l0,0v0.1c0,0-0.1,0.2-0.1,0.3c0,0.2,0,0.4,0,0.6c0,0.2,0,0.4,0,0.6
				c0,0.2,0,0.3,0,0.4l0,0v0.1c0,0.1,0,0.3,0,0.4c0,0.2,0,0.3,0,0.5l0,0c0,0.2,0,0.4,0,0.6c0,0.2,0,0.4,0,0.6l0,0v0.3l0.1,0.1
				l-0.1,0.1l0.1,0.5l-0.1,0.1c0,0.1,0,0.2,0.1,0.4c0,0.2,0.1,0.3,0.1,0.4l0,0c0,0.1,0,0.2-0.1,0.2l0,0c0,0,0.1,0.1,0.1,0.2
				c0,0.1,0.1,0.2,0.1,0.3c0,0.1,0,0.3,0,0.4s0,0.2,0,0.3l0,0l-0.1,0.1v0.2h0.1c0,0.3,0.1,0.6,0.2,1c0.1,0.3,0.2,0.7,0.2,1l0,0
				c0,0.1,0,0.2,0,0.2s0,0.1,0,0.2l0,0h0.1v0.9c0,0.1,0,0.3-0.1,0.4s-0.1,0.3-0.1,0.4l0,0l0.1,0.2l-0.1,0.4c0,0.2,0,0.5,0.1,0.7
				c0,0.3,0.1,0.5,0.1,0.7l0,0v1.4l0.1,0.5c0,0.3,0,0.6,0,0.7s0,0.2,0,0.3c0,0.1,0,0.2,0,0.3c0,0.1,0,0.3,0,0.7l0,0v0.1
				c0,0.2,0,0.4,0,0.6s0,0.4-0.1,0.6s-0.1,0.4-0.1,0.5c-0.1,0.1-0.1,0.2-0.2,0.2l0,0c-0.1,0-0.1,0-0.2-0.1c-0.1,0-0.1-0.1-0.1-0.2
				l0,0c-0.1,0-0.1,0-0.1,0.1c0,0,0,0.1-0.2,0.1l0,0c0,0-0.1,0-0.1-0.1l0,0c-0.1,0.1-0.2,0.2-0.4,0.2c-0.2,0-0.4,0.1-0.5,0.1l0,0
				c-0.1,0-0.3,0-0.4-0.1c-0.2,0-0.3-0.1-0.5-0.2s-0.3-0.2-0.4-0.3C292.5,144.6,292.5,144.5,292.5,144.4z M294.6,135.2L294.6,135.2
				c0,0.1,0,0.2,0,0.3s0,0.2,0,0.3l0,0c0,0.1,0,0.2,0,0.3c0,0.1,0.1,0.2,0.2,0.2l0,0l0.1-0.1c0-0.1,0-0.2,0-0.3c0-0.1,0-0.3,0-0.4
				s0-0.3,0-0.4c0-0.1,0-0.2,0-0.3l0,0l-0.1-0.1l0.1-0.2l-0.1-0.1l0.1-0.2v-0.3c0-0.5,0-1-0.1-1.4c-0.1-0.5-0.1-0.9-0.1-1.4l0,0
				c0-0.1,0-0.2,0-0.3c0-0.1,0-0.2,0-0.3l0,0c0,0,0-0.1-0.1-0.1c-0.1,0-0.1-0.1-0.1-0.1l0,0v-0.1l0.1-0.1v-0.4
				c-0.1,0-0.2,0.1-0.2,0.2c-0.1,0.2-0.1,0.3-0.1,0.4l0,0c0,0.1,0,0.1,0.1,0.1l0,0v1.7l-0.1-0.1v0.3l0.1-0.1v0.7
				c0,0.2,0,0.3,0.1,0.5s0.1,0.3,0.1,0.5l0,0l-0.1,0.1c0,0.2,0,0.4,0.1,0.5c0.1,0.2,0.1,0.4,0.1,0.5l0,0L294.6,135.2z M294.6,137.7
				L294.6,137.7v0.2c0.2,0.2,0.3,0.2,0.3,0.2l0,0V138c0-0.2,0-0.3,0-0.5c0-0.2,0-0.3-0.1-0.4l0,0c-0.1,0.1-0.1,0.2-0.1,0.3
				S294.7,137.6,294.6,137.7z M309.7,136.1v0.7c0.2,0,0.3,0,0.4,0c0.1,0,0.2,0,0.4-0.1c0.1,0,0.3-0.1,0.5-0.1
				c0.2-0.1,0.4-0.1,0.7-0.2l0,0l0.9-0.2h0.3l0.6-0.1h1.2c0.1,0,0.2,0,0.4,0.1c0.2,0,0.3,0.1,0.5,0.1l0,0l0.3,0.1v0.3l-0.2,0.3
				l0.2,0.1c-0.3,0-0.6,0-1,0.1s-0.7,0.2-1.1,0.3s-0.7,0.2-1,0.3s-0.6,0.1-0.9,0.1l0,0c0,0-0.1,0-0.2,0.1c-0.1,0.1-0.3,0.1-0.4,0.2
				s-0.3,0.2-0.4,0.2c-0.1,0.1-0.2,0.2-0.3,0.2l0,0L310,139l-0.1,0.3l-0.4,0.3l-0.1,0.1c0,0.1,0,0.2-0.1,0.3s-0.1,0.3-0.1,0.3l0,0
				c0,0,0,0,0,0.1c0,0,0,0.1,0,0.1l0,0c0,0.1,0,0.2,0,0.3c0,0.1-0.1,0.1-0.1,0.2s-0.1,0.1-0.1,0.2s0,0.2,0,0.3l0,0l-0.1,0.7
				c-0.1,0.2-0.2,0.4-0.3,0.7c-0.1,0.3-0.2,0.6-0.2,0.9l0,0c0,0.1,0,0.2,0.1,0.2l0,0l-0.3,0.3v-0.2c0,0-0.1,0.1-0.2,0.2
				s-0.1,0.2-0.1,0.3l0,0v0.1c0,0,0,0.1,0,0.2s0,0.1,0,0.2l0,0c-0.1,0-0.2,0.1-0.3,0.2c-0.1,0.1-0.2,0.2-0.4,0.2l0,0
				c0,0,0-0.1,0-0.1c0,0,0-0.1,0-0.1l0,0h-0.2v0.1c0,0.1,0,0.2,0.1,0.2l0,0h-0.1l0,0.3l-0.6,0.1l-0.2-0.1l0.1,0
				c-0.1,0-0.2-0.1-0.2-0.2l0,0l-0.3-0.1c0-0.1,0-0.1,0-0.1s0-0.1,0-0.1l0,0l-0.2,0.1c0,0-0.1-0.1-0.2-0.3c-0.1-0.2-0.2-0.4-0.2-0.7
				l0,0l0.1-0.3l0-0.5l0.1-0.2h-0.1c0-0.1,0-0.2,0.1-0.4c0.1-0.2,0.1-0.3,0.1-0.5l0,0v-0.1l-0.2,0.1c0.1-0.2,0.2-0.4,0.2-0.8
				c0-0.4,0.1-0.6,0.1-0.8l0,0v-0.5c0-0.1,0-0.2,0.1-0.2c0.1,0,0.1-0.1,0.2-0.1l0,0l-0.1-0.4c0-0.3,0.1-0.5,0.2-0.7
				c0.1-0.2,0.2-0.5,0.2-0.8l0,0l0-0.2l0-0.6c0.1,0,0.1-0.1,0.1-0.2c0-0.1,0-0.2,0-0.2l0,0l-0.1-0.2v-0.5c0.2-0.1,0.3-0.3,0.3-0.6
				c0-0.2,0.1-0.4,0.2-0.5l0,0v0.1c0.1,0,0.3,0,0.4-0.1c0.1-0.1,0.2-0.2,0.2-0.3l0,0l-0.4,0.1l0.2-0.4c-0.1,0-0.2,0.1-0.3,0.2
				c-0.1,0.1-0.2,0.2-0.2,0.2l0,0v-0.1c0,0,0-0.2,0.1-0.3c0.1-0.2,0.1-0.3,0.1-0.4l0,0l0.3-1.8v-0.3l-0.1-0.2l-0.9-0.7l-0.1-0.1
				c0-0.1-0.1-0.2-0.1-0.2l0,0c0,0,0-0.1,0.1-0.2c0-0.1,0.1-0.1,0.2-0.1l0,0h2.2c0,0,0.1,0,0.3,0c0.1,0,0.3,0,0.4,0l0,0l0.6-0.1h1
				l1-0.2c0.1,0,0.2,0,0.4,0s0.4,0,0.6,0l0,0l1.3,0.1l1.3,0.3l0.2,0.1c0.1,0,0.2,0.1,0.2,0.1l0,0l-0.1,0.1l0.1,0.2v0.3l-0.3,0.1
				l0.3,0.1l-0.3,0.2h-0.9c-0.2,0-0.5,0-0.7,0s-0.4,0-0.5,0.1l0,0l-1.2-0.2l-0.4,0.3l-1.2,0.2c0,0-0.1,0-0.3,0.1l0,0l-0.1,0.1v0.6
				l-0.3,0.6c0,0-0.1,0.2-0.1,0.4c-0.1,0.2-0.1,0.5-0.2,0.8c-0.1,0.3-0.1,0.6-0.2,0.9C309.8,135.6,309.7,135.9,309.7,136.1
				L309.7,136.1z M318.3,144l-0.2-0.1c-0.2-0.1-0.3-0.2-0.3-0.3s-0.1-0.3-0.1-0.5l0,0v-0.5l0.6-5.8c0,0,0,0,0,0c0,0,0,0,0-0.1l0,0
				c0,0,0-0.1,0-0.2c0-0.2,0.1-0.4,0.1-0.6c0-0.2,0.1-0.4,0.1-0.6c0-0.2,0.1-0.3,0.1-0.3l0,0c0,0,0.1,0,0.2,0.1
				c0.1,0,0.2,0.1,0.2,0.1l0,0c0.2,0.1,0.5,0.1,0.8,0.2c0.3,0.1,0.6,0.1,0.9,0.2c0.3,0.1,0.6,0.2,0.8,0.4s0.3,0.5,0.3,0.8l0,0
				l-0.4,0.7c-0.1,0.2-0.2,0.4-0.3,0.7c-0.1,0.2-0.1,0.5-0.1,0.7l0,0c0,0,0,0.1,0,0.2c0,0.1,0,0.3,0,0.4c0,0.2,0,0.3,0,0.5
				c0,0.2,0,0.3,0,0.5l0,0v0.5l0.1,0.1c0,0,0,0.1,0,0.1c0,0.1,0,0.1,0,0.2l0,0l0,0.1c0,0,0,0-0.1,0.1c0,0-0.1,0-0.1,0l0,0l0.1,0.2
				c0,0,0,0,0,0l0,0l-0.1,0.1c0,0,0,0,0,0s0,0,0,0l0,0l-0.1,0l-0.1,0.1c0,0,0,0.2-0.1,0.4c0,0.2-0.1,0.4-0.1,0.4l0,0h0.1
				c0.1,0,0.2-0.1,0.3-0.3c0.1-0.2,0.2-0.3,0.2-0.3l0,0c0,0.2-0.1,0.5-0.1,0.8c0,0.3,0,0.6,0,0.8l0,0l0.1,0.3l-0.4-0.1l-0.1,0.1
				c0,0-0.1,0-0.3,0.1l0,0l-0.1,0.1l-0.5-0.2h-0.2l-0.5,0.2l-0.3,0V144H318.3z M318.3,132.3L318.3,132.3c0-0.5,0.1-0.9,0.2-1.2
				c0.1-0.4,0.3-0.7,0.5-1.1l0,0l0.2,0.1c0,0,0.1,0,0.1,0c0.1,0,0.1,0,0.2,0l0,0h0.9c0.1,0,0.2,0.1,0.4,0.2c0.1,0.2,0.2,0.2,0.3,0.2
				l0,0c0,0,0,0,0.1,0c0,0,0.1,0,0.1,0l0,0c0.2,0,0.3,0,0.4,0.1c0.1,0.1,0.3,0.2,0.4,0.4c0.1,0.2,0.2,0.3,0.2,0.5
				c0.1,0.2,0.1,0.3,0.1,0.4l0,0c0,0.2-0.1,0.3-0.3,0.5c-0.2,0.2-0.5,0.3-0.7,0.5c-0.3,0.1-0.6,0.3-0.9,0.4
				c-0.3,0.1-0.5,0.1-0.7,0.1l0,0c-0.4,0-0.7-0.1-0.9-0.4C318.5,132.9,318.3,132.6,318.3,132.3z M320.2,142L320.2,142
				c0,0,0,0.1,0,0.2c0,0.1,0,0.2,0.1,0.2l0,0l0.1-0.4l0.2-0.1v-0.2c-0.1,0-0.1,0-0.2,0.1C320.3,142,320.2,142,320.2,142z
				 M320.2,143.7l0.1,0.2l0.3,0v-0.2L320.2,143.7z M320.7,144.2L320.7,144.2c0.1,0,0.1,0.1,0.1,0.2l0,0c0,0.1,0,0.1-0.1,0.1l0,0
				c-0.1,0-0.1,0-0.1-0.1l0,0C320.6,144.2,320.7,144.2,320.7,144.2z M321.1,141l-0.2,0.2v0.1c0,0,0,0.1,0.1,0.1l0,0l0.2-0.2V141z
				 M327.4,141.4L327.4,141.4l0,0.3c0,0.2,0,0.3,0.1,0.4l0,0l0.1,0c0,0.1,0,0.2,0,0.3c0,0.1-0.1,0.2-0.1,0.2l0,0l-0.2,1.5
				c-0.1,0-0.2,0-0.3,0l0,0h-0.2c0,0-0.1,0-0.2,0.1l0,0l0-0.3c-0.1,0-0.1,0.1-0.1,0.2l0,0v0.2v0.1c0,0-0.1-0.1-0.2-0.1l0,0
				c0,0-0.1,0,0,0c0,0,0,0,0,0l0,0c-0.1,0-0.2,0-0.4-0.1c-0.2-0.1-0.4-0.1-0.7-0.1l0,0c-0.1,0-0.2,0-0.3,0l0,0c0,0,0-0.1,0-0.2
				c0-0.1,0-0.1,0-0.2l0,0c-0.1-0.1-0.2-0.3-0.2-0.5c0-0.2-0.1-0.3-0.3-0.3l0,0h-0.1c0.1-0.1,0.1-0.2,0.1-0.4s0-0.3,0-0.4l0,0
				c0,0,0-0.2-0.1-0.4l0,0l0-0.4v-0.3v-0.1c0,0,0.1-0.1,0.1-0.1c0.1,0,0.1-0.1,0.2-0.1l0,0c0,0,0-0.1-0.1-0.2c0-0.1-0.1-0.2-0.1-0.3
				l0,0l0.2-0.2c0,0,0-0.1,0-0.2l0,0c0-0.1,0-0.3,0-0.5c0-0.2,0-0.3,0-0.4l0,0c0-0.1,0-0.2,0-0.2l0,0l0.3-3.8c0-0.2,0.1-0.2,0.1-0.3
				c0.1,0,0.2,0,0.3,0l0,0c0.1,0,0.3,0,0.4,0.1s0.3,0.1,0.5,0.2c0.2,0.1,0.3,0.1,0.4,0.2c0.1,0.1,0.2,0.1,0.3,0.2l0,0
				c0,0,0.1,0.1,0.1,0.2c0.1,0.1,0.1,0.3,0.2,0.4s0.1,0.3,0.2,0.4c0.1,0.1,0.1,0.2,0.2,0.2l0,0l0.1-0.1c0.3-0.2,0.5-0.3,0.6-0.5
				c0.1-0.1,0.4-0.2,0.7-0.3l0,0c0-0.1,0.1-0.2,0.4-0.4c0.3-0.2,0.6-0.3,1-0.5c0.3-0.2,0.6-0.3,0.9-0.4c0.3-0.1,0.4-0.2,0.3-0.2l0,0
				c0.1,0,0.3,0,0.5,0.1c0.2,0.1,0.4,0.2,0.6,0.4l0,0l0.6,0.6l-0.5,0.6l-0.5,0.2l0.1,0.1c-0.1,0.1-0.3,0.2-0.5,0.2s-0.4,0.1-0.6,0.2
				l0,0c0,0,0,0,0,0l0,0l0,0c-0.3,0.1-0.6,0.2-1,0.3l0,0c-0.3,0.1-0.5,0.2-0.8,0.3c-0.3,0.1-0.5,0.3-0.7,0.4l0,0l-0.5,0.5
				c0,0-0.1,0-0.2,0.1c-0.1,0.1-0.3,0.2-0.4,0.3s-0.3,0.3-0.4,0.4c-0.1,0.1-0.2,0.3-0.2,0.4l0,0v0l0.3,0.1L327.4,141.4z
				 M330.4,135.9L330.4,135.9c-0.3,0.1-0.6,0.2-0.8,0.4l0,0l-0.3,0.2l0,0.1c0.3-0.2,0.6-0.3,0.9-0.4s0.6-0.2,0.8-0.2l0,0
				c-0.1,0-0.2,0-0.3,0C330.5,135.8,330.5,135.8,330.4,135.9z M328.7,136.6L328.7,136.6c0,0-0.1,0.1-0.3,0.2
				c-0.2,0.1-0.3,0.2-0.3,0.2l0,0l-0.2,0.2h0c0-0.1,0.1-0.1,0.2-0.2c0.1-0.1,0.2-0.1,0.3-0.2c0.1-0.1,0.2-0.1,0.3-0.1
				c0.1,0,0.1-0.1,0.1-0.1l0,0c0,0-0.1-0.1-0.2-0.1l0,0C328.7,136.5,328.7,136.5,328.7,136.6C328.7,136.5,328.7,136.6,328.7,136.6z
				 M339.4,144.7L339.4,144.7c-0.1,0-0.2,0-0.3,0s-0.3,0-0.4,0s-0.3,0-0.4-0.1c-0.1,0-0.2-0.1-0.3-0.1l0,0l-0.8-0.3
				c0,0-0.1,0-0.3-0.1s-0.4-0.1-0.7-0.2l0,0l-0.4-0.5c0-0.2,0.1-0.4,0.3-0.6c0.2-0.2,0.4-0.3,0.6-0.4l0,0c0,0,0.1,0,0.2,0
				c0.1,0,0.2,0,0.3,0.1c0.1,0,0.2,0.1,0.3,0.1c0.1,0,0.2,0,0.2,0l0,0c0.2,0,0.5,0,0.8,0c0.3,0,0.7,0,1-0.1c0.3,0,0.6-0.1,0.8-0.1
				c0.2-0.1,0.3-0.1,0.3-0.2l0,0l0.2-0.9c0-0.2-0.1-0.4-0.2-0.6c-0.2-0.2-0.3-0.2-0.6-0.2l0,0c-0.1,0-0.1,0-0.2,0.1l0,0l-0.9-0.2
				h-0.3c-0.2,0-0.5,0-0.8-0.1c-0.4-0.1-0.7-0.2-1.1-0.3s-0.7-0.4-1-0.6c-0.3-0.2-0.4-0.5-0.4-0.9l0,0c0-0.2,0-0.3,0.1-0.4
				s0.1-0.2,0.2-0.4l0,0l-0.1-0.1c0-0.1,0-0.2,0.1-0.3s0.1-0.3,0.2-0.4s0.1-0.3,0.2-0.4c0.1-0.1,0.1-0.2,0.1-0.3l0,0l1.2-1.3
				c0,0,0.1-0.1,0.1,0s0.1,0,0.1,0l0,0l0.8-0.5h0.2c0,0,0.1,0,0.2-0.1l0,0l0.9-0.2h0.3l0.1,0.1c0.1,0,0.2,0.1,0.3,0.1s0.3,0,0.4,0
				l0,0h0.6c0,0,0.1,0.1,0.2,0.2c0.1,0.1,0.1,0.2,0.2,0.2l0,0c0.2,0.1,0.4,0.2,0.5,0.3c0.2,0.1,0.3,0.2,0.4,0.3
				c0.1,0.1,0.2,0.2,0.3,0.4s0.1,0.3,0.1,0.6l0,0c0,0.1-0.1,0.1-0.2,0.2c-0.1,0-0.2,0.1-0.2,0.1l0,0h-0.6c0,0-0.1,0-0.1,0
				c-0.1,0-0.2,0-0.3,0.1c-0.1,0-0.2,0-0.3,0.1c-0.1,0-0.1,0-0.2,0l0,0H340c0,0.1-0.2,0.2-0.4,0.2c-0.2,0-0.4,0.1-0.5,0.1l0,0
				c-0.3,0.2-0.5,0.4-0.6,0.6s-0.1,0.5-0.2,0.8l0,0c0.3,0.2,0.7,0.4,1.2,0.5c0.5,0.1,0.8,0.1,0.9,0.1l0,0l0.9,0.3
				c0.6,0.2,1,0.4,1.2,0.7c0.2,0.3,0.4,0.6,0.5,0.9l0,0l0.1,0.4v0.3c0,0.1,0,0.2,0,0.2c0,0.1,0,0.3-0.1,0.8l0,0l-0.2,0.5l-0.1,0.1
				c-0.2,0.3-0.4,0.6-0.6,0.8c-0.2,0.2-0.5,0.3-0.9,0.4l0,0c0,0,0,0-0.1,0.1c0,0-0.1,0.1-0.2,0.1c-0.1,0-0.3,0.1-0.6,0.1
				C340.2,144.7,339.9,144.7,339.4,144.7z M336,138.3L336,138.3c0,0.2,0.1,0.3,0.2,0.4c0.2,0.1,0.3,0.1,0.5,0.1l0,0l-0.1-0.4v-0.1
				c0-0.2,0-0.2,0-0.3c0,0,0-0.1,0-0.3l0,0c-0.1,0-0.1,0-0.1-0.1l0,0c0,0,0-0.1,0.1-0.2c0-0.1,0.1-0.2,0.1-0.2l0,0v0.2
				c0.1,0,0.1-0.1,0.1-0.2c0-0.1,0-0.2,0-0.3l0,0c0-0.1,0-0.2-0.1-0.2l0,0l-0.1,0.2v-0.4h-0.1c0,0.1-0.1,0.1-0.1,0.2
				c-0.1,0.1-0.1,0.2-0.2,0.2l0,0c0,0.2-0.1,0.3-0.1,0.5c0,0.2,0,0.3-0.1,0.5l0,0C336.2,138.2,336.1,138.2,336,138.3
				C336,138.2,336,138.2,336,138.3z M338.5,135.3L338.5,135.3c-0.4,0-0.8,0.1-1,0.4c-0.3,0.3-0.4,0.6-0.5,1l0,0v0
				c0.2,0,0.3-0.1,0.3-0.3c0.1-0.2,0.1-0.4,0.2-0.5l0,0c0,0,0.1-0.1,0.2-0.1c0.1,0,0.2-0.1,0.3-0.2c0.1-0.1,0.2-0.1,0.3-0.2
				C338.4,135.4,338.5,135.4,338.5,135.3L338.5,135.3z M354.8,135.9L354.8,135.9l0,0.2L354.8,135.9l-0.8,0.3c0,0-0.1,0-0.1,0l0,0
				c0,0-0.1,0-0.1-0.1l0,0l-0.2,0c-0.2,0-0.4,0-0.7,0.1c-0.3,0-0.5,0-0.8,0.1c-0.3,0-0.5,0.1-0.7,0.1c-0.2,0.1-0.3,0.1-0.3,0.2l0,0
				v0l0.1,0.1c0,0-0.1,0.1-0.1,0.1c0,0,0,0,0,0.1l0,0c0,0,0,0.1,0.1,0.2l0,0c0,0.1,0,0.2-0.1,0.2s-0.1,0.1-0.1,0.3l0,0
				c0,0.1,0.1,0.1,0.2,0.1l0,0c-0.1,0.1-0.2,0.2-0.2,0.4l0,0c0,0.2,0,0.3,0.1,0.3l0,0l0.1,0.3c-0.2,0.2-0.2,0.3-0.2,0.4l0,0
				c0,0.1,0,0.2,0,0.2l0,0c0,0.2,0,0.3,0,0.4c0,0.1,0,0.1,0,0.1c0,0,0,0,0,0c0,0,0,0,0,0.1l0,0l0,0c0,0.2,0,0.4-0.1,0.6
				c-0.1,0.3-0.1,0.4-0.2,0.4l0,0h-0.1v0.1h0.2c0,0-0.1,0.1-0.1,0.1c0,0-0.1,0.1-0.1,0.1l0,0c0,0,0,0,0,0.1l0,0h0.2l-0.2,1.1
				l0.1,0.1c0.1,0,0.3,0.1,0.6,0.1l0,0c0.2,0,0.4-0.1,0.5-0.1c0.2-0.1,0.3-0.1,0.5-0.1l0,0h0.1c0.1,0,0.2,0,0.3,0c0.1,0,0.2,0,0.3,0
				l0,0h1.6c0,0,0.1,0,0.2,0c0.1,0,0.2,0.1,0.3,0.1c0.1,0,0.2,0.1,0.2,0.1c0.1,0,0.1,0.1,0.1,0.1l0,0c0,0.1-0.1,0.2-0.2,0.4
				c-0.1,0.1-0.3,0.3-0.4,0.3l0,0l-1.5,0.5l-1.9,0.2c-0.2,0-0.4,0.1-0.7,0.2s-0.6,0.2-0.9,0.2l0,0v-0.1l-1-0.1
				c-0.2-0.2-0.4-0.3-0.5-0.3c-0.1,0-0.2-0.1-0.3-0.1c-0.1,0-0.1,0-0.2,0c0,0-0.1-0.1-0.2-0.2l0,0c0-0.1,0-0.2,0-0.4s0-0.4,0-0.6
				s0-0.4,0-0.6c0-0.2,0.1-0.3,0.1-0.3l0,0l0.1,1.4l0.1,0.2c0-0.3,0-0.8,0-1.4s0-1.3,0.1-2.1l0,0l0,0.1c0,0,0,0,0-0.1
				c0-0.1,0-0.2,0-0.4l0,0c0-0.2,0-0.4,0-0.4l0,0h0l0.1,0.4l0.3-1.9h-0.1v-0.3v-0.2c-0.1,0-0.3,0.1-0.5,0.1s-0.3,0.1-0.5,0.2l0,0
				l-0.7,0l-0.3,0l-0.2,0.1l-0.1-0.1c-0.2,0-0.4-0.2-0.6-0.5c-0.2-0.3-0.4-0.6-0.4-0.9l0,0c0-0.1,0.1-0.2,0.4-0.3
				c0.3-0.1,0.6-0.1,1-0.2c0.4-0.1,0.8-0.1,1.1-0.2s0.7-0.1,0.9-0.2l0,0c0.1-0.2,0.1-0.5,0.1-0.8c0-0.3,0.1-0.6,0.1-0.9s0-0.5,0-0.7
				c0-0.2,0-0.2,0-0.1l0,0c0,0,0-0.1,0.1-0.2s0.1-0.3,0.1-0.5s0.1-0.3,0.1-0.5s0.1-0.2,0.1-0.3l0,0c0,0,0-0.1,0-0.1l0,0
				c0-0.1,0-0.2,0.1-0.3c0-0.1,0.1-0.2,0.1-0.3l0,0l0.1,0c0.2,0,0.4,0,0.7,0.1c0.3,0.1,0.6,0.2,0.9,0.3c0.3,0.1,0.5,0.3,0.8,0.5
				s0.3,0.4,0.3,0.7l0,0c0,0.2-0.1,0.5-0.3,0.9c-0.2,0.3-0.3,0.7-0.3,1.1l0,0l-0.2,0.8c0.6,0,1.2,0,1.8-0.1c0.6-0.1,1.1-0.1,1.4-0.1
				l0,0c0.2,0,0.3,0,0.4,0.1s0.2,0.2,0.2,0.5l0,0L354.8,135.9z M347.7,140.5l0.1,0.9l-0.2,0c0,0,0-0.2,0-0.5
				S347.7,140.5,347.7,140.5L347.7,140.5z M349.3,142.4h-0.2l-0.2,0.4v0.3L349.3,142.4z M349.3,141.8L349.3,141.8
				c-0.1,0-0.1,0.1-0.1,0.2l0,0c0,0.1,0,0.2,0.1,0.2l0,0c0.1,0,0.2-0.1,0.2-0.2l0,0C349.4,141.8,349.4,141.8,349.3,141.8z
				 M373.4,141.5l0.1,0.1l0.2,0.4l-0.1,0.2l0.3,0.5l-0.4,0.3l-1.3,0.5c-0.1,0-0.2,0.1-0.3,0.1c-0.1,0-0.1,0-0.2,0.1l0,0h-1
				c-0.3,0-0.5,0.1-0.6,0.2c-0.1,0.1-0.4,0.1-0.8,0.1l0,0h-0.2c-0.1,0-0.2,0-0.2,0c-0.1,0-0.2,0-0.3,0l0,0c0,0-0.2,0-0.4,0.1
				s-0.3,0.1-0.4,0.1l0,0h-1.4c-0.3,0-0.6-0.1-0.9-0.3c-0.3-0.2-0.6-0.4-0.9-0.4l0,0l-0.1-0.3l-0.7-0.9c0,0,0,0-0.1-0.1
				c0,0,0-0.1,0-0.2l0,0c0-0.4,0.1-0.8,0.2-1.2c0.1-0.4,0.2-0.8,0.2-1.1l0,0l0.1-0.1c0-0.3,0-0.5,0-0.5c0,0,0-0.1-0.1-0.1l0,0
				c0-0.1,0-0.2,0.1-0.2l0,0c0,0,0,0,0-0.1l0,0c0,0,0-0.1,0.1-0.2s0.1-0.1,0.1-0.2l0,0l-0.1-0.1c0.2-0.4,0.3-0.7,0.3-0.9
				s0.1-0.4,0.2-0.7l0,0c0-0.3,0-0.5,0.1-0.5s0.1-0.1,0.2-0.1c0.1,0,0.1,0,0.2-0.1c0.1,0,0.1-0.2,0.1-0.4l0,0
				c0.1-0.2,0.2-0.5,0.3-0.8c0.1-0.3,0.3-0.6,0.5-0.9c0.2-0.3,0.5-0.5,0.9-0.7c0.4-0.2,0.8-0.3,1.3-0.3l0,0c0.2,0,0.3,0,0.4,0
				s0.2,0,0.2,0l0,0h0.3h0.1l-0.2,0.2l-0.6,0.1c0.4,0,0.7,0,1.2,0.1c0.4,0.1,0.8,0.1,1.2,0.1l0,0c0-0.1-0.1-0.2-0.2-0.2
				c-0.1,0-0.3-0.1-0.4-0.1s-0.3,0-0.5,0s-0.3,0-0.3-0.1l0,0c0,0,0.1,0,0.1,0c0.1,0,0.1,0,0.2,0l0,0l0.4,0l0.1-0.1
				c0.2,0,0.4,0,0.5,0c0.1,0,0.2,0.1,0.3,0.1c0.1,0,0.2,0.1,0.3,0.1c0.1,0,0.2,0,0.4,0l0,0h1.2l0.2,0.1c0.1,0,0.2,0.1,0.2,0.1l0,0
				l-0.1,0.1l0.1,0.2v0.2l-0.3,0.3l0.2,0.3l-0.5,0.3c-0.1,0.1-0.3,0.1-0.5,0.2c-0.2,0.1-0.4,0.1-0.5,0.1l0,0c-0.2,0-0.3,0-0.3,0
				c-0.1,0-0.1,0-0.2,0s-0.1,0-0.2,0c-0.1,0-0.3,0-0.5,0l0,0c-0.4,0-0.7,0.1-0.9,0.3c-0.3,0.2-0.5,0.4-0.7,0.6
				c-0.2,0.2-0.4,0.5-0.5,0.7c-0.2,0.2-0.3,0.4-0.4,0.5l0,0l0,0.1c0,0.3-0.1,0.6-0.3,1s-0.4,0.6-0.5,0.9l0,0l-0.1,0.2l0.1,0.1
				c0,0.2-0.1,0.4-0.2,0.5s-0.1,0.3-0.1,0.6l0,0l0.1,0.1l-0.1,0.2l0.2,0.1c-0.1,0.1-0.2,0.3-0.2,0.4l0,0c0,0.2,0.1,0.4,0.3,0.5
				c0.2,0.1,0.3,0.2,0.3,0.3l0,0l1,0.2l0.2,0.3l0.8-0.2l0.3-0.2l1.5-0.1c0,0,0.2,0,0.3,0s0.3,0,0.4,0l0,0h0.2c0,0,0.1,0,0.1,0
				c0,0,0.1,0,0.1,0l0,0c0,0,0,0,0,0s0,0,0,0l0,0L373.4,141.5z M376.7,138.6v-0.3c0-0.1-0.1-0.2-0.1-0.3c-0.1-0.1-0.1-0.2-0.1-0.4
				l0,0v-0.1c0,0,0,0,0-0.1l0,0l0.1-0.1c0-0.2,0.1-0.4,0.2-0.6s0.1-0.5,0.1-0.8l0,0l-0.1-0.2c0-0.1,0-0.3,0.1-0.6
				c0.1-0.3,0.1-0.7,0.2-1.1l0,0c0,0,0-0.1,0-0.2s0-0.1,0-0.2l0,0c0-0.4,0.1-0.8,0.2-1s0.2-0.6,0.2-1l0,0c0-0.1,0-0.3,0-0.5
				c0-0.2,0.1-0.4,0.1-0.6c0-0.2,0.1-0.4,0.2-0.5s0.1-0.2,0.2-0.2l0,0l0.7-0.4c0.1,0,0.1,0,0.2,0c0,0,0,0,0.1,0l0,0c0,0,0,0,0.1-0.1
				l0,0c0.1,0,0.2,0,0.4,0.1c0.2,0,0.4,0.1,0.6,0.1c0.2,0,0.4,0.1,0.6,0.2c0.2,0.1,0.3,0.2,0.4,0.3l0,0l-0.3,0.7
				c0,0.1,0,0.2-0.1,0.4c-0.1,0.2-0.1,0.4-0.2,0.7c-0.1,0.2-0.1,0.5-0.2,0.7s-0.1,0.4-0.1,0.5l0,0c0,0.1,0,0.2,0,0.5
				c0,0.2,0,0.4,0.1,0.5l0,0c0,0,0,0.1-0.1,0.2s-0.1,0.1-0.1,0.2l0,0c0,0,0.1,0,0.1,0.1l0,0c0,0,0,0.1-0.1,0.2s-0.1,0.2-0.1,0.4l0,0
				l0,0.2l-0.1,0.3l0.1,0c0,0,0,0.1,0,0.3c0,0.2,0,0.4,0,0.6s0,0.4,0,0.6c0,0.2,0,0.3,0,0.3l0,0l0.1,0.4v0.2l-0.2,0.7l0.2,0
				c0.1,0,0.2-0.1,0.3-0.2c0.2-0.1,0.3-0.1,0.5-0.2c0.2-0.1,0.3-0.1,0.5-0.2s0.3-0.1,0.3-0.1l0,0c0,0,0.2-0.1,0.4-0.2
				c0.2-0.1,0.3-0.2,0.4-0.2l0,0h0.4c0.3,0,0.6,0,1,0.1c0.4,0.1,0.7,0.1,1,0.1l0,0l0.5,1.3l-0.3,0.3c-0.1,0.4-0.2,0.8-0.2,1.1
				c0,0.3,0,0.7,0,1.2l0,0c0,0.2,0.1,0.3,0.1,0.3l0,0c-0.1,0.3-0.1,0.7-0.2,1.1c-0.1,0.4-0.1,0.8-0.1,1.2l0,0c0,0.2,0,0.4,0,0.5l0,0
				l-0.2,0.1c-0.1,0-0.1,0.1-0.2,0.2c-0.1,0.1-0.1,0.1-0.2,0.1l0,0c0,0-0.1,0-0.3-0.1c-0.1-0.1-0.3-0.1-0.3-0.1l0,0h-0.1l0.1,0.1
				l-0.1,0.1c0,0,0,0.1,0.1,0.1l0,0h0.1v0.2c-0.5,0-0.8-0.2-1.1-0.5s-0.4-0.7-0.4-1.1l0,0c0-0.7,0-1.4-0.1-2.1
				c-0.1-0.7-0.1-1.3-0.1-2l0,0h-0.1c-0.3,0-0.5,0.1-0.7,0.2c-0.2,0.1-0.4,0.2-0.6,0.2l0,0l-0.1,0.1c0,0,0,0-0.1,0.1l0,0l-0.1,0
				c-0.1,0-0.3,0.1-0.5,0.3s-0.4,0.3-0.4,0.5l0,0c0.1,0,0.1,0.1,0.1,0.2l0,0c0,0.2-0.1,0.3-0.2,0.4c-0.1,0.1-0.2,0.2-0.2,0.3l0,0
				l-0.1,0.4l0.2,0.5l-0.2,0.6v0.4l-0.1,0.3l0.2,0.6l-0.2,0.6l-1-0.1c0,0-0.1,0-0.1,0c0,0-0.1,0-0.1,0l0,0h-0.1l-0.5-0.1l-0.3-0.2
				c0,0-0.1-0.1-0.1-0.3c-0.1-0.2-0.1-0.3-0.1-0.3l0,0l0.1-0.3l-0.1,0.1l-0.2-0.2l0-0.1l0.2-0.4l-0.2-0.1v-0.7c0,0,0.1-0.1,0.2-0.2
				l0,0l0.1-0.2l0-0.3l-0.2-0.1l0-0.3l0.2-0.2c0-0.1,0-0.2,0.1-0.3c0-0.2,0.1-0.3,0.1-0.3l0,0l-0.1-0.2v-0.5l0-0.3l-0.2-0.5l0.1,0.1
				c0,0,0-0.1,0.1-0.2C376.7,138.8,376.7,138.7,376.7,138.6L376.7,138.6z M376.5,143.1l0.1,0.2v0.2l0.2-0.1l0-0.3L376.5,143.1z
				 M376.6,142.6L376.6,142.6C376.5,142.6,376.5,142.6,376.6,142.6L376.6,142.6c-0.1,0.2-0.1,0.3,0,0.3l0,0c0.1,0,0.1,0,0.1-0.1l0,0
				C376.7,142.6,376.7,142.6,376.6,142.6L376.6,142.6z M377,142.6L377,142.6C376.9,142.6,376.9,142.6,377,142.6L377,142.6
				c-0.1,0.1-0.1,0.1,0,0.1l0,0C377,142.7,377.1,142.7,377,142.6L377,142.6C377.1,142.6,377,142.6,377,142.6L377,142.6z
				 M391.5,142.8L391.5,142.8c0.4,0.1,0.6,0.2,0.6,0.2l0,0l0,0.3c0,0.2,0,0.5,0.1,0.6l0,0c0,0.1,0.1,0.1,0.1,0.2l0,0
				c0,0-0.1,0.1-0.3,0.1c-0.2,0-0.4,0-0.7,0c-0.3,0-0.5,0-0.8,0c-0.3,0-0.5,0-0.6,0l0,0h-0.2c-0.5,0-0.9-0.1-1.2-0.2
				c-0.3-0.2-0.6-0.4-0.8-0.8l0,0l-0.1-0.1l-0.1-0.4c0-0.2-0.1-0.3-0.1-0.5c0-0.2-0.1-0.3-0.1-0.5l0,0c0-0.1,0.1-0.2,0.2-0.3
				c0.1-0.1,0.2-0.2,0.2-0.3c0.1-0.1,0.1-0.1,0.2-0.2c0,0,0-0.1,0-0.1l0,0c0-0.1,0.1-0.3,0.2-0.4c0.1-0.2,0.3-0.4,0.5-0.5
				c0.2-0.2,0.4-0.3,0.6-0.5c0.2-0.2,0.4-0.3,0.5-0.4l0,0l0.3,0.1c0,0,0.2,0,0.3-0.1s0.3-0.1,0.4-0.1l0,0l0.5-0.3
				c0.2,0,0.2-0.1,0.2-0.2l0,0l1.3-0.6c0,0,0.1-0.1,0.1-0.1c0.1-0.1,0.1-0.1,0.1-0.1l0,0l-0.3-1.1c0,0,0-0.1-0.1-0.1l0,0
				c0,0,0,0,0,0s0,0,0,0l0,0h-0.1c-0.1,0-0.3,0-0.6,0.1s-0.6,0.1-0.8,0.2c-0.3,0.1-0.5,0.1-0.8,0.2c-0.2,0-0.3,0.1-0.3,0.1l0,0
				c0,0-0.1,0-0.1,0l0,0c-0.1,0-0.3-0.1-0.4-0.2c-0.1-0.1-0.3-0.3-0.4-0.4l0,0l-0.3-0.1l-0.2-0.1c0,0,0-0.1,0-0.1c0,0,0-0.1-0.1-0.1
				l0,0l-0.1-0.1c0-0.1,0.2-0.2,0.5-0.3s0.8-0.2,1.4-0.2s1.1-0.1,1.8-0.1c0.6,0,1.2,0,1.7,0l0,0h0.1c0.3,0,0.6,0,0.8,0.1
				c0.2,0.1,0.4,0.2,0.5,0.4c0.1,0.1,0.2,0.3,0.3,0.5c0.1,0.2,0.2,0.3,0.3,0.4l0,0v0.6c0,0.2,0,0.4,0,0.6c0,0.1,0,0.3,0,0.4l0,0
				c0,0.1,0,0.3,0,0.4c0,0.1-0.1,0.3-0.1,0.6l0,0c0,0.1,0,0.2,0.1,0.3s0.1,0.2,0.1,0.2l0,0v0l0,0.2l-0.3,0.3l0.2,0.2l-0.2,0.3
				c0,0,0,0.1,0,0.2s0,0.1,0,0.2l0,0l0,0l-0.1,0.5l0.3,0.1l0,0.2l-0.2,0.1l0.1,0.1l0,0.2c-0.1,0.2-0.2,0.5-0.2,0.9
				c0,0.4-0.1,0.7-0.1,0.8l0,0c0,0-0.1,0.1-0.2,0.1c-0.1,0-0.3,0-0.5,0c-0.2,0-0.3,0-0.5,0s-0.2,0-0.2,0l0,0c-0.2,0-0.4-0.1-0.5-0.2
				c-0.1-0.1-0.3-0.2-0.3-0.4s-0.1-0.3-0.2-0.5c0-0.2,0-0.4,0-0.5l0,0c0-0.4,0.1-0.7,0.2-0.9c0.1-0.2,0.2-0.6,0.2-1l0,0
				c0-0.2,0-0.4,0-0.5c0-0.2,0-0.3-0.2-0.3l0,0c0,0-0.1,0.1-0.1,0.1c-0.1,0.1-0.1,0.1-0.1,0.1l0,0c0,0-0.1,0-0.2,0l0,0
				c0,0-0.1,0-0.3,0.1c-0.2,0.1-0.3,0.1-0.5,0.2c-0.2,0.1-0.3,0.2-0.5,0.3c-0.1,0.1-0.2,0.2-0.2,0.2l0,0c-0.2,0.2-0.5,0.3-0.7,0.4
				c-0.2,0.1-0.4,0.2-0.6,0.4l0,0l-0.1,0.5c0,0,0,0.1,0,0.1c0,0.1,0,0.1,0,0.2l0,0l0,0l0.1-0.1l0.1,0.2c0.2,0,0.3,0,0.5,0
				s0.3,0,0.3,0l0,0c0,0,0,0,0,0c0,0,0,0,0,0l0,0c0.1,0,0.2,0.1,0.4,0.2C391.1,142.8,391.3,142.8,391.5,142.8L391.5,142.8
				C391.4,142.8,391.5,142.8,391.5,142.8z M398.4,144l-0.2-0.1c-0.2-0.1-0.3-0.2-0.3-0.3s-0.1-0.3-0.1-0.5l0,0v-0.5l0.6-5.8
				c0,0,0,0,0,0c0,0,0,0,0-0.1l0,0c0,0,0-0.1,0-0.2c0-0.2,0.1-0.4,0.1-0.6c0-0.2,0.1-0.4,0.1-0.6c0-0.2,0.1-0.3,0.1-0.3l0,0
				c0,0,0.1,0,0.2,0.1c0.1,0,0.2,0.1,0.2,0.1l0,0c0.2,0.1,0.5,0.1,0.8,0.2c0.3,0.1,0.6,0.1,0.9,0.2c0.3,0.1,0.6,0.2,0.8,0.4
				c0.2,0.2,0.3,0.5,0.3,0.8l0,0l-0.4,0.7c-0.1,0.2-0.2,0.4-0.3,0.7c-0.1,0.2-0.1,0.5-0.1,0.7l0,0c0,0,0,0.1,0,0.2
				c0,0.1,0,0.3,0,0.4c0,0.2,0,0.3,0,0.5c0,0.2,0,0.3,0,0.5l0,0v0.5l0.1,0.1c0,0,0,0.1,0,0.1c0,0.1,0,0.1,0,0.2l0,0l0,0.1
				c0,0,0,0-0.1,0.1c0,0-0.1,0-0.1,0l0,0l0.1,0.2c0,0,0,0,0,0l0,0l-0.1,0.1c0,0,0,0,0,0s0,0,0,0l0,0l-0.1,0l-0.1,0.1
				c0,0,0,0.2-0.1,0.4c0,0.2-0.1,0.4-0.1,0.4l0,0h0.1c0.1,0,0.2-0.1,0.3-0.3c0.1-0.2,0.2-0.3,0.2-0.3l0,0c0,0.2-0.1,0.5-0.1,0.8
				c0,0.3,0,0.6,0,0.8l0,0l0.1,0.3l-0.4-0.1l-0.1,0.1c0,0-0.1,0-0.3,0.1l0,0l-0.1,0.1l-0.5-0.2h-0.2l-0.5,0.2l-0.3,0V144H398.4z
				 M398.4,132.3L398.4,132.3c0-0.5,0.1-0.9,0.2-1.2c0.1-0.4,0.3-0.7,0.5-1.1l0,0l0.2,0.1c0,0,0.1,0,0.1,0c0.1,0,0.1,0,0.2,0l0,0
				h0.9c0.1,0,0.2,0.1,0.4,0.2c0.1,0.2,0.2,0.2,0.3,0.2l0,0c0,0,0,0,0.1,0c0,0,0.1,0,0.1,0l0,0c0.2,0,0.3,0,0.4,0.1
				c0.1,0.1,0.3,0.2,0.4,0.4c0.1,0.2,0.2,0.3,0.2,0.5c0.1,0.2,0.1,0.3,0.1,0.4l0,0c0,0.2-0.1,0.3-0.3,0.5c-0.2,0.2-0.5,0.3-0.7,0.5
				c-0.3,0.1-0.6,0.3-0.9,0.4c-0.3,0.1-0.5,0.1-0.7,0.1l0,0c-0.4,0-0.7-0.1-0.9-0.4C398.5,132.9,398.4,132.6,398.4,132.3z
				 M400.3,142L400.3,142c0,0,0,0.1,0,0.2c0,0.1,0,0.2,0.1,0.2l0,0l0.1-0.4l0.2-0.1v-0.2c-0.1,0-0.1,0-0.2,0.1
				C400.4,142,400.3,142,400.3,142z M400.3,143.7l0.1,0.2l0.3,0v-0.2L400.3,143.7z M400.8,144.2L400.8,144.2c0.1,0,0.1,0.1,0.1,0.2
				l0,0c0,0.1,0,0.1-0.1,0.1l0,0c-0.1,0-0.1,0-0.1-0.1l0,0C400.7,144.2,400.7,144.2,400.8,144.2z M401.2,141l-0.2,0.2v0.1
				c0,0,0,0.1,0.1,0.1l0,0l0.2-0.2V141z M407.5,141.4L407.5,141.4l0,0.3c0,0.2,0,0.3,0.1,0.4l0,0l0.1,0c0,0.1,0,0.2,0,0.3
				c0,0.1-0.1,0.2-0.1,0.2l0,0l-0.2,1.5c-0.1,0-0.2,0-0.3,0l0,0h-0.2c0,0-0.1,0-0.2,0.1l0,0l0-0.3c-0.1,0-0.1,0.1-0.1,0.2l0,0v0.2
				v0.1c0,0-0.1-0.1-0.2-0.1l0,0c0,0-0.1,0,0,0c0,0,0,0,0,0l0,0c-0.1,0-0.2,0-0.4-0.1c-0.2-0.1-0.4-0.1-0.7-0.1l0,0
				c-0.1,0-0.2,0-0.3,0l0,0c0,0,0-0.1,0-0.2c0-0.1,0-0.1,0-0.2l0,0c-0.1-0.1-0.2-0.3-0.2-0.5c0-0.2-0.1-0.3-0.3-0.3l0,0h-0.1
				c0.1-0.1,0.1-0.2,0.1-0.4s0-0.3,0-0.4l0,0c0,0,0-0.2-0.1-0.4l0,0l0-0.4v-0.3v-0.1c0,0,0.1-0.1,0.1-0.1c0.1,0,0.1-0.1,0.2-0.1l0,0
				c0,0,0-0.1-0.1-0.2s-0.1-0.2-0.1-0.3l0,0l0.2-0.2c0,0,0-0.1,0-0.2l0,0c0-0.1,0-0.3,0-0.5c0-0.2,0-0.3,0-0.4l0,0
				c0-0.1,0-0.2,0-0.2l0,0l0.3-3.8c0-0.2,0.1-0.2,0.1-0.3c0.1,0,0.2,0,0.3,0l0,0c0.1,0,0.3,0,0.4,0.1s0.3,0.1,0.5,0.2
				c0.2,0.1,0.3,0.1,0.4,0.2c0.1,0.1,0.2,0.1,0.3,0.2l0,0c0,0,0.1,0.1,0.1,0.2c0.1,0.1,0.1,0.3,0.2,0.4s0.1,0.3,0.2,0.4
				c0.1,0.1,0.1,0.2,0.2,0.2l0,0l0.1-0.1c0.3-0.2,0.5-0.3,0.6-0.5c0.1-0.1,0.4-0.2,0.7-0.3l0,0c0-0.1,0.1-0.2,0.4-0.4
				c0.3-0.2,0.6-0.3,1-0.5c0.3-0.2,0.6-0.3,0.9-0.4s0.4-0.2,0.3-0.2l0,0c0.1,0,0.3,0,0.5,0.1c0.2,0.1,0.4,0.2,0.6,0.4l0,0l0.6,0.6
				l-0.5,0.6l-0.5,0.2l0.1,0.1c-0.1,0.1-0.3,0.2-0.5,0.2c-0.3,0-0.4,0.1-0.6,0.2l0,0c0,0,0,0,0,0l0,0l0,0c-0.3,0.1-0.6,0.2-1,0.3
				l0,0c-0.3,0.1-0.5,0.2-0.8,0.3c-0.3,0.1-0.5,0.3-0.7,0.4l0,0l-0.5,0.5c0,0-0.1,0-0.2,0.1c-0.1,0.1-0.3,0.2-0.4,0.3
				c-0.1,0.1-0.3,0.3-0.4,0.4c-0.1,0.1-0.2,0.3-0.2,0.4l0,0v0l0.3,0.1L407.5,141.4z M410.5,135.9L410.5,135.9
				c-0.3,0.1-0.6,0.2-0.8,0.4l0,0l-0.3,0.2l0,0.1c0.3-0.2,0.6-0.3,0.9-0.4s0.6-0.2,0.8-0.2l0,0c-0.1,0-0.2,0-0.3,0
				S410.5,135.8,410.5,135.9z M408.7,136.6L408.7,136.6c0,0-0.1,0.1-0.3,0.2c-0.2,0.1-0.3,0.2-0.3,0.2l0,0l-0.2,0.2h0
				c0-0.1,0.1-0.1,0.2-0.2c0.1-0.1,0.2-0.1,0.3-0.2s0.2-0.1,0.3-0.1c0.1,0,0.1-0.1,0.1-0.1l0,0c0,0-0.1-0.1-0.2-0.1l0,0
				C408.8,136.5,408.8,136.5,408.7,136.6C408.8,136.5,408.8,136.6,408.7,136.6z"/>
		</g>
	</g>
	<g transform="rotate(0 152.6891 0)">
		<g transform="matrix(1 0 0 1 0 0)">
			<g>
				<path class="st1" d="M281.2,48.3c0.9,0.4,1.6,1.1,2.1,1.9c0.3-2.6-1.3-5.7-3.1-7.5c-4.1-4.4-10.8-5.2-15.4-9
					c1.9,6.1,6.8,11.2,12.8,13.3C278.8,47.4,280.1,47.7,281.2,48.3z"/>
				<path class="st1" d="M275.8,20.6c1,0.1,1.3,0,2.2,0c1.6-0.1,0.6-2.8,0.4-4.4c-0.5-2.9-2.7-5.9-4.6-8c-3.1-3.4-7-5.9-11-8.2
					c-0.3,4.1,1.1,8.1,2.9,11.8C267.3,14.9,270.9,19.9,275.8,20.6L275.8,20.6z"/>
				<path class="st1" d="M266,26.6c1.4,1.2,2.8,2.5,4.4,3.4c1.4,0.8,6.1,2.6,7.6,1.5c2-1.4-2.2-4.6-3.2-5.6c-1-1-1.9-2-3-2.9
					c-4.1-3.2-9.4-4-14.5-4.8C259.2,21.8,262.8,24,266,26.6z"/>
				<path class="st1" d="M415.2-46.3"/>
				<path class="st1" d="M269.6,47.4c0,0.6-0.1,1.2-0.1,1.8c-0.5,4.5,0.6,9.3,2.4,13.4c0.6,1.5,2.5,6.1,4,5.2
					c1.8-1.1,1.6-5.2,1.3-6.9c-0.5-2.6-1.9-4.9-3.4-7.1C272.2,51.8,270.7,49.7,269.6,47.4L269.6,47.4z"/>
				<path class="st1" d="M287.7,48c0-0.1,2.9-2.1,3.2-2.3c2.3-2.1,5-4.8,5.6-8c0.3-1.4,0.1-2.9,0-4.3c0-0.8-0.1-1.6,0-2.5
					c0.3-2.2,1.2-4.2,0.7-6.5c-2.4,0.4-5.8,8-7.1,10.1c-1.3,2.2-2.6,4.6-2.8,7.1C287.1,43.7,287.2,45.9,287.7,48L287.7,48z"/>
				<path class="st1" d="M289.5,22c0.4-1.7,0.2-3.4-0.1-5.1c-0.4-2.9-0.2-7-1.4-9.7c-1,0.8-0.4,2.5-0.4,3.8c0,2.6-2.4,4.5-3.9,6.6
					c-2.5,3.5-2.7,8.5-0.6,12.2C285.8,27.7,288.7,25.3,289.5,22L289.5,22z"/>
				<path class="st1" d="M295.4,53.7c-4.8,2.3-8.8,6.1-11.2,10.9c3.5-1.8,8.3-0.5,11.1-3.2c1-0.9,1.5-2.2,2.3-3.4
					c0.7-1.2,4.2-5.5,4.2-5.5S296.5,53.1,295.4,53.7L295.4,53.7z"/>
				<path class="st1" d="M282.3,74.3c-3.4,1.5-6.2,4-8.5,6.8c3.3,0.6,6.7,0.6,10,0.1c2-0.3,4-0.8,5.6-2.1c1.2-0.9,2.1-2.3,3.3-3.2
					c1.1-0.8,2.3-1.1,3.6-1.2c-1.1-0.3-2.2-0.8-3.3-1.1C289.6,72.4,285.7,72.8,282.3,74.3L282.3,74.3z"/>
				<path class="st1" d="M415.2-46.3"/>
				<path class="st1" d="M415.2-46.3"/>
				<path class="st1" d="M171.4,30c2.2-3.7,1.9-8.7-0.6-12.2c-1.5-2.1-3.9-4-3.9-6.6c0-1.2,0.6-2.9-0.4-3.8c-1.2,2.7-1,6.8-1.4,9.7
					c-0.2,1.7-0.4,3.5-0.1,5.1C165.7,25.6,168.6,27.9,171.4,30z"/>
				<path class="st1" d="M170.2,64.8c-2.4-4.8-6.4-8.6-11.2-10.9c-1.1-0.5-6.3-1.3-6.3-1.3s3.4,4.3,4.2,5.5c0.7,1.2,1.3,2.5,2.3,3.4
					C161.9,64.2,166.7,63,170.2,64.8z"/>
				<path class="st1" d="M172.1,74.5c-3.4-1.5-7.3-1.8-10.7-0.6c-1.1,0.4-2.2,0.8-3.3,1.1c1.3,0.1,2.5,0.4,3.6,1.2
					c1.2,0.9,2.1,2.2,3.3,3.2c1.6,1.3,3.6,1.8,5.6,2.1c3.3,0.5,6.7,0.5,10-0.1C178.3,78.5,175.4,76,172.1,74.5L172.1,74.5z"/>
				<path class="st1" d="M415.2-46.3"/>
				<path class="st1" d="M158,33.5c-0.1,1.4-0.3,2.9,0,4.3c0.6,3.2,3.3,5.9,5.6,8c0.3,0.2,3.2,2.2,3.2,2.3c0.5-2.1,0.6-4.2,0.4-6.4
					c-0.3-2.6-1.5-4.9-2.8-7.1c-1.3-2.1-4.6-9.7-7.1-10.1c-0.5,2.2,0.4,4.3,0.7,6.5C158.1,31.9,158,32.7,158,33.5z"/>
				<path class="st1" d="M415.2-46.3"/>
				<path class="st1" d="M174.2,42.9c-1.7,1.9-3.4,5-3.1,7.5c0.5-0.8,1.3-1.4,2.1-1.9c1.1-0.6,2.4-0.9,3.6-1.3
					c6-2.2,10.9-7.2,12.8-13.3C185,37.7,178.2,38.5,174.2,42.9z"/>
				<path class="st1" d="M197.2,18.5c-5.1,0.8-10.4,1.6-14.5,4.8c-1.1,0.9-2.1,1.9-3,2.9c-1,1-5.1,4.2-3.2,5.6
					c1.5,1.1,6.2-0.7,7.6-1.5c1.6-0.9,3-2.2,4.4-3.4C191.6,24.3,195.3,22.1,197.2,18.5z"/>
				<path class="st1" d="M176.4,20.8c0.9,0.1,1.2,0.2,2.2,0c4.9-0.7,8.5-5.7,10-8.8c1.8-3.7,3.3-7.7,3-11.8c-4,2.3-7.9,4.8-11,8.2
					c-1.9,2.1-4.1,5.1-4.6,8C175.8,18,174.8,20.7,176.4,20.8z"/>
			</g>
		</g>
	</g>
</g>
</svg>
