<?xml version="1.0" encoding="utf-8"?>
<!-- Generator: Adobe Illustrator 24.2.1, SVG Export Plug-In . SVG Version: 6.00 Build 0)  -->
<svg version="1.1" id="Layer_1" xmlns="http://www.w3.org/2000/svg" xmlns:xlink="http://www.w3.org/1999/xlink" x="0px" y="0px"
	 viewBox="0 0 446.9 73.2" style="enable-background:new 0 0 446.9 73.2;" xml:space="preserve">
<style type="text/css">
	.st0{fill:#EFEFEF;}
</style>
<g>
	<g transform="rotate(0 32.7276 44)">
		<g transform="matrix(1 0 0 1 0 0)">
			<path class="st0" d="M37.7,53L37.7,53c0,0.6,1,0.8,2.9,0.8l0,0c0.5,0,0.8-0.1,1.1-0.2l0,0c0.6-0.3,1.3-0.4,2.2-0.4
				s1.3,0.2,1.3,0.7l0,0c0,0.2-0.1,0.4-0.2,0.8c-0.1,0.3-0.3,0.6-0.3,0.6c-0.1,0.1-0.3,0.2-0.8,0.3c-0.5,0.1-0.8,0.2-0.9,0.2
				c-0.1,0-0.2,0-0.3,0c0,0-0.1,0-0.2,0c-0.1,0-0.2,0-0.4,0.1c-0.2,0-0.4,0-0.5,0l0,0c-2.8,1.4-4.7,2.9-5.8,4.5l0,0
				c-0.5,0.7-0.7,1.4-0.7,1.9l0,0c0,0.8,0.6,1.3,1.7,1.3l0,0c0.9,0,2.1-0.4,3.5-1.1c1.4-0.7,2.6-1.6,3.7-2.6c1.1-1,1.6-1.9,1.6-2.6
				l0,0c0-0.2,0.2-0.4,0.5-0.4l0,0c0.8,0,1.2,0.5,1.2,1.5l0,0c0,0.5-0.2,1-0.6,1.6c-0.4,0.6-1,1.3-1.7,1.9c-0.7,0.6-1.5,1.3-2.4,1.8
				c-0.9,0.6-1.8,1-2.9,1.4c-1.1,0.4-2,0.5-2.7,0.5c-0.7,0-1.3-0.1-1.8-0.2c-0.5-0.1-0.9-0.3-1.3-0.6l0,0c-0.9-0.6-1.3-1.5-1.3-2.7
				l0,0c0-0.7,0.2-1.3,0.5-2c0.4-0.7,0.8-1.3,1.4-1.9l0,0c1.1-1,2.2-1.9,3.4-2.6l0,0c-1.7-0.4-2.6-1.3-2.6-2.7l0,0
				c0-1.6,1.2-3,3.6-4.3l0,0c1.3-0.7,2.8-1.2,4.4-1.6l0,0c0.7-0.2,1.4-0.2,1.9-0.2l0,0c1,0,1.8,0.1,2.3,0.2l0,0
				c0.3,0.2,0.6,0.4,0.8,0.6c0.2,0.3,0.3,0.5,0.3,0.7c0,0.2,0,0.4-0.1,0.5c-0.1,0.2-0.1,0.3-0.3,0.4l0,0c-0.2,0.1-0.4,0.2-0.6,0.3
				c-0.2,0.1-0.3,0.1-0.4,0.1l0,0c-0.7,0.3-1.2,0.4-1.7,0.4l0,0c-0.8,0-1.3-0.1-1.4-0.3l0,0c0-0.2,0.1-0.5,0.3-0.8l0,0
				c-0.8,0-1.6,0.2-2.5,0.5c-0.9,0.3-1.6,0.6-2.2,1c-0.6,0.4-1.1,0.8-1.6,1.2C37.9,52.3,37.7,52.7,37.7,53z M57.6,55.6L57.6,55.6
				c0,0.6-0.3,1.4-1,2.6c-0.7,1.1-1.5,2.3-2.5,3.4s-2.1,2.1-3.2,3c-1.1,0.8-2,1.3-2.7,1.3l0,0c-0.3,0-0.7-0.1-1-0.4
				c-0.3-0.3-0.4-0.7-0.4-1.2c0-0.6,0.3-1.4,0.8-2.6c0.5-1.2,1-2.2,1.5-3l0,0c-0.4,0.3-0.7,0.5-0.8,0.5c-0.1,0-0.2-0.1-0.4-0.3
				c-0.1-0.2-0.2-0.4-0.2-0.5c0-0.1,0-0.2,0.1-0.3l0,0c1.7-1.9,2.8-2.8,3.5-2.8l0,0c0.3,0,0.5,0.1,0.7,0.3c0.2,0.2,0.3,0.4,0.3,0.6
				c0,0.2-0.3,0.9-0.9,2c-0.6,1.1-1.2,2.3-1.7,3.4c-0.6,1.1-0.9,1.9-0.9,2.2l0,0c0,0.1,0,0.1,0.1,0.1l0,0c0.2,0,0.8-0.4,1.8-1.3
				c1-0.9,1.7-1.7,2.4-2.4c0.6-0.8,1.1-1.5,1.6-2.3c0.5-0.8,0.7-1.3,0.7-1.5s0-0.4-0.1-0.6c-0.1-0.2-0.1-0.3-0.1-0.5
				s0.1-0.4,0.4-0.6c0.3-0.2,0.6-0.3,1-0.3l0,0C57.2,54.2,57.6,54.7,57.6,55.6z M65.5,55.9L65.5,55.9c0,0.6-0.2,1.1-0.7,1.5
				c-0.5,0.4-1,0.6-1.5,0.6l0,0c-0.2,0-0.3,0-0.4-0.1c-0.1-0.1-0.1-0.2-0.1-0.4c0-0.1,0-0.3,0.1-0.4l0,0c-0.3,0.1-0.6,0.3-1,0.5
				c-0.4,0.2-0.8,0.5-1.4,0.9c-0.5,0.4-0.8,0.7-0.8,0.9l0,0c0,0.1,0.1,0.1,0.3,0.1c0.2,0,0.5-0.1,0.9-0.2c0.4-0.1,0.7-0.2,0.9-0.2
				s0.3,0,0.3,0l0,0c0.1,0.1,0.2,0.2,0.4,0.4c0.1,0.2,0.2,0.4,0.2,0.5c0,0.1-0.1,0.3-0.3,0.4s-0.5,0.3-0.7,0.4
				C61.3,61,61.1,61,61,61.1l0,0c-1.8,1-2.7,1.7-2.7,2.1l0,0c0,0.7,0.6,1,1.7,1l0,0c0.7,0,1.4-0.2,2.2-0.7l0,0
				c0.6-0.4,1.2-0.8,1.7-1.2c0.5-0.4,0.8-0.7,0.9-0.7c0.1-0.1,0.2-0.1,0.3-0.1l0,0c0.2,0,0.3,0.2,0.3,0.7c0,0.5,0,0.8-0.1,1
				c-0.1,0.2-0.2,0.4-0.5,0.6l0,0c-1.8,1.5-3.5,2.2-5.1,2.2l0,0c-0.9,0-1.6-0.1-2.1-0.4l0,0c-0.9-0.4-1.4-1.1-1.4-2l0,0
				c0-1.2,0.8-2.1,2.4-2.7l0,0c-0.3-0.1-0.5-0.3-0.6-0.6c-0.1-0.2-0.1-0.6-0.1-1.1c0-0.5,0.2-1,0.7-1.6c0.5-0.6,1-1,1.7-1.4l0,0
				c1.5-0.8,2.8-1.2,4-1.2l0,0c0.3,0,0.6,0.1,0.9,0.2C65.3,55.5,65.5,55.6,65.5,55.9z M69.9,57.7l-0.5,0.8c2-2.3,3.7-3.4,5.1-3.4
				l0,0c0.3,0,0.6,0.1,0.9,0.3c0.2,0.2,0.3,0.5,0.3,0.8c0,0.3-0.2,0.9-0.7,1.7c-0.5,0.8-0.9,1.4-1.3,2l0,0c-0.2,0.3-0.5,0.4-0.7,0.4
				c-0.3,0-0.5-0.1-0.6-0.3c-0.1-0.2-0.2-0.4-0.2-0.7l0,0c0-0.6,0.3-1.2,0.9-2l0,0l0,0c-0.3,0-1,0.6-2.1,1.7s-2,2-2.8,2.9
				c-0.8,0.9-1.6,1.9-2.5,3.1l0,0c-0.3,0.4-0.5,0.5-0.7,0.5c-0.2,0-0.4-0.1-0.7-0.2C64,65.1,63.8,65,63.7,65c-0.1,0-0.1-0.1-0.1-0.3
				c0-0.1,0-0.3,0.1-0.4c0.1-0.2,0.2-0.4,0.4-0.7c0.2-0.3,0.5-0.7,0.8-1.4c0.4-0.6,0.9-1.6,1.7-2.9c0.8-1.3,1.2-2.1,1.4-2.4l0,0
				c0.3-0.6,0.6-1,0.8-1.2l0,0c0.4-0.5,1-0.7,1.9-0.7l0,0c0.2,0,0.3,0.1,0.3,0.4l0,0C71,55.8,70.7,56.6,69.9,57.7L69.9,57.7z
				 M78.4,69.6L78.4,69.6c0,0-0.2,0.3-0.4,0.6c-0.2,0.4-0.4,0.8-0.7,1.2c-0.2,0.4-0.5,0.8-0.9,1.1c-0.4,0.4-0.7,0.5-0.9,0.6
				c-0.2,0-0.4,0-0.5,0l0,0c-0.8,0-1.2-0.4-1.2-1.2l0,0c0-0.9,0.5-2,1.4-3.2l0,0c0.4-0.5,0.8-1,1.4-1.5c0.5-0.5,0.8-0.8,0.9-0.9
				c0.1-0.1,0.7-1.3,1.9-3.6l0,0c-0.8,0.9-1.6,1.6-2.3,2.2c-0.7,0.6-1.4,0.9-2,0.9l0,0h-0.1c-0.3,0-0.7-0.1-1-0.3
				c-0.3-0.2-0.5-0.6-0.5-1.1l0,0c0-0.8,0.2-1.6,0.6-2.3l0,0c0.2-0.3,0.4-0.7,0.8-1.3c0.4-0.6,0.7-1.2,1-1.8l0,0
				c0.3-0.5,0.6-1,0.9-1.6c0.3-0.6,0.6-1.1,0.7-1.3c0.2-0.3,0.3-0.4,0.5-0.4c0.2,0,0.3,0.1,0.6,0.3c0.2,0.2,0.4,0.4,0.4,0.7
				c0,0.3-0.6,1.4-1.7,3.4c-1.1,2-1.7,3.2-1.7,3.4l0,0c0,0.1,0,0.1,0.1,0.1l0,0c0.2,0,0.7-0.3,1.5-1c0.8-0.6,1.6-1.5,2.6-2.5l0,0
				c1.1-1.1,1.9-2.2,2.5-3.1l0,0c0.1-0.1,0.1-0.2,0.2-0.3c0-0.1,0.1-0.1,0.2-0.3c0.1-0.1,0.1-0.2,0.2-0.2c0-0.1,0.1-0.1,0.2-0.2
				c0.1-0.1,0.1-0.1,0.2-0.2c0.1,0,0.1-0.1,0.2-0.1l0,0c0.1-0.1,0.2-0.1,0.3-0.1c0.1,0,0.3,0,0.5,0.1c0.2,0.1,0.4,0.1,0.4,0.2
				c0,0.1,0.1,0.1,0.1,0.2l0,0c0.1,0.1,0.1,0.2,0.1,0.3s0,0.2-0.1,0.3c-0.1,0.1-0.5,0.8-1.2,2l0,0c-2.1,3.6-3.6,6.2-4.4,7.8l0,0
				c1.3-1.1,3.1-2.7,5.4-4.8l0,0c0.1-0.1,0.2-0.1,0.3-0.1l0,0c0.3,0,0.4,0.4,0.4,1.2l0,0c0,0.2,0,0.4-0.1,0.5l0,0
				C83,65,80.7,67.2,78.4,69.6z M96.6,61.4L96.6,61.4l-0.1,0.3c0,0.1,0,0.1,0.1,0.1c0,0,0.1,0.1,0.2,0.1c0.1,0,0.1,0,0.2-0.1l0,0
				c1.3-1.7,2.3-3.2,3.1-4.4c0.8-1.3,1.4-2.2,1.8-2.8c0.4-0.6,0.7-1.1,0.9-1.4l0,0c0.6-0.9,1.2-1.8,1.8-2.5l0,0
				c-2.3,0.6-4.1,0.9-5.4,0.9s-2.2-0.1-2.8-0.2c-0.6-0.2-0.9-0.4-1.1-0.6c-0.2-0.2-0.3-0.4-0.3-0.6c0-0.2,0-0.4,0-0.6l0,0
				c0-0.4,0.3-0.8,0.8-1c0.5-0.3,0.9-0.4,1.2-0.4c0.3,0,0.5,0,0.5,0.1c0,0.1-0.1,0.2-0.2,0.4c-0.1,0.2-0.2,0.3-0.2,0.3l0,0
				c0,0.3,1,0.4,2.9,0.4s4.2-0.3,6.7-0.8l0,0c1.5-1.2,2.7-1.8,3.8-1.8l0,0c0.7,0,1.2,0.2,1.4,0.6l0,0c0.2,0.2,0.2,0.5,0.2,0.7
				c0,0.2-0.1,0.5-0.4,0.7c-0.3,0.2-0.6,0.4-1.1,0.6l0,0c-0.8,0.3-1.8,0.5-3,0.7l0,0c-0.5,0.6-1.2,1.6-2,2.9
				c-0.9,1.3-1.5,2.2-1.8,2.6c-0.3,0.5-0.8,1.3-1.6,2.4c-0.7,1.2-1.3,2.2-1.9,3c-0.5,0.9-1.1,1.7-1.7,2.5l0,0
				c-1.2,1.7-2.3,2.6-3.2,2.6l0,0c-0.4,0-0.7-0.1-1-0.3s-0.4-0.6-0.4-1c0-0.5,0.3-1.1,0.8-1.8c0.5-0.7,0.9-1.2,1.2-1.4
				c0.2-0.2,0.4-0.3,0.5-0.3C96.6,61.2,96.6,61.2,96.6,61.4z M114.2,55.7c0.3,0,0.5,0.1,0.8,0.3c0.3,0.2,0.4,0.6,0.4,1.1
				c0,0.5-0.2,1.1-0.5,1.8s-0.8,1.5-1.4,2.3c-0.6,0.8-1.2,1.5-1.9,2.2c-0.7,0.7-1.4,1.2-2.2,1.7c-0.8,0.4-1.5,0.7-2.2,0.7
				c-0.7,0-1.2-0.2-1.6-0.6c-0.4-0.4-0.6-1-0.6-1.7s0.2-1.5,0.5-2.4c0.4-0.9,0.8-1.7,1.4-2.4c0.6-0.7,1.2-1.3,1.8-1.8l0,0
				c1.4-1.1,2.6-1.7,3.6-1.7l0,0c0.5,0,0.8,0.1,1.1,0.3l0,0c0.1,0.1,0.1,0.1,0.1,0.2l0,0v0.1C113.8,55.7,114,55.7,114.2,55.7z
				 M113,57.4L113,57.4L113,57.4c-0.4,0-0.5-0.2-0.5-0.6l0,0c-0.6,0.2-1.3,0.6-1.9,1.1c-0.7,0.5-1.3,1.1-1.8,1.8l0,0
				c-1.1,1.4-1.6,2.6-1.6,3.5l0,0c0,0.5,0.2,0.7,0.5,0.7c0.3,0,0.9-0.2,1.5-0.7c0.7-0.5,1.4-1.1,2-2c0.7-0.8,1.2-1.6,1.5-2.2
				c0.3-0.6,0.5-1,0.5-1.3C113.1,57.5,113.1,57.4,113,57.4z M124,55.7c0.3,0,0.5,0.1,0.8,0.3c0.3,0.2,0.4,0.6,0.4,1.1
				c0,0.5-0.2,1.1-0.5,1.8c-0.3,0.7-0.8,1.5-1.4,2.3c-0.6,0.8-1.2,1.5-1.9,2.2c-0.7,0.7-1.4,1.2-2.2,1.7c-0.8,0.4-1.5,0.7-2.2,0.7
				c-0.6,0-1.2-0.2-1.6-0.6c-0.4-0.4-0.6-1-0.6-1.7s0.2-1.5,0.5-2.4c0.4-0.9,0.8-1.7,1.4-2.4c0.6-0.7,1.2-1.3,1.8-1.8l0,0
				c1.4-1.1,2.6-1.7,3.6-1.7l0,0c0.5,0,0.8,0.1,1.1,0.3l0,0c0.1,0.1,0.1,0.1,0.1,0.2l0,0v0.1C123.6,55.7,123.8,55.7,124,55.7z
				 M122.7,57.4L122.7,57.4L122.7,57.4c-0.4,0-0.5-0.2-0.5-0.6l0,0c-0.6,0.2-1.3,0.6-1.9,1.1c-0.7,0.5-1.3,1.1-1.8,1.8l0,0
				c-1.1,1.4-1.6,2.6-1.6,3.5l0,0c0,0.5,0.2,0.7,0.5,0.7c0.3,0,0.9-0.2,1.6-0.7c0.7-0.5,1.4-1.1,2-2c0.7-0.8,1.2-1.6,1.5-2.2
				c0.3-0.6,0.5-1,0.5-1.3C122.9,57.5,122.9,57.4,122.7,57.4z M135.7,46.3c0.4,0,0.8,0.1,1.1,0.4c0.3,0.2,0.5,0.6,0.5,1.1
				S137,49,136.4,50c-0.5,1-1.2,2-1.9,3.1c-0.7,1.1-1.6,2.2-2.5,3.4l0,0c-1.5,1.9-2.9,3.6-4.2,5.1l0,0c0,0.1,0,0.3-0.1,0.6
				c-0.1,0.3-0.1,0.6-0.1,0.8c0,0.3,0.1,0.5,0.4,0.8c0.3,0.2,0.6,0.3,1,0.3s0.8-0.1,1.2-0.4c0.4-0.3,0.8-0.6,1.1-0.9l0,0
				c0.8-0.9,1.4-1.3,1.6-1.3c0.2,0,0.3,0.3,0.3,0.9l0,0v0.3c0,0.3-0.1,0.6-0.2,0.7l0,0c-0.7,0.9-1.5,1.5-2.4,1.9
				c-0.9,0.4-1.7,0.6-2.5,0.6c-0.8,0-1.4-0.2-1.8-0.7c-0.4-0.5-0.6-1.2-0.6-2l0,0c0-1.7,0.4-3.6,1.3-5.8c0.9-2.2,1.9-4.1,3-5.7l0,0
				C132.5,48.1,134.4,46.3,135.7,46.3L135.7,46.3z M135.1,48.4L135.1,48.4c0-0.1,0-0.2-0.1-0.2l0,0c-0.3,0-1.1,0.8-2.3,2.5
				c-1.3,1.7-2.2,3-2.7,4s-1.1,2.3-1.6,3.8l0,0c1-1.2,2.4-3,4.1-5.5C134.2,50.6,135.1,49,135.1,48.4z M142.6,47.3L142.6,47.3
				c-1.8,2.7-3.5,5.5-5.2,8.4l0,0c0.4-0.2,0.8-0.4,1.3-0.4c0.5-0.1,0.8-0.1,1-0.1s0.4,0,0.5,0c0.1,0,0.3,0.1,0.6,0.1
				c0.2,0.1,0.4,0.2,0.6,0.3l0,0c0.4,0.3,0.6,0.8,0.6,1.5c0,0.6-0.2,1.3-0.5,2.1s-0.8,1.5-1.4,2.3c-0.6,0.8-1.2,1.5-1.9,2.1
				c-0.7,0.7-1.5,1.2-2.3,1.6c-0.8,0.4-1.6,0.6-2.2,0.6l0,0c-0.3,0-0.7-0.2-1.1-0.6c-0.4-0.4-0.6-1-0.6-1.6s0.3-1.7,0.9-3.2
				c0.6-1.4,1.3-2.9,2.1-4.3c0.8-1.5,1.7-2.9,2.5-4.3c0.9-1.4,1.6-2.5,2.2-3.4c0.6-0.9,1-1.4,1.1-1.5c0.1-0.1,0.4-0.3,0.7-0.3
				c0.4-0.1,0.7-0.1,0.9-0.1c0.3,0,0.4,0.1,0.4,0.4l0,0C142.8,46.8,142.7,47,142.6,47.3z M139.2,59.5L139.2,59.5
				c0.3-0.6,0.5-1.2,0.5-1.7s-0.2-0.7-0.5-0.7c-0.3,0-0.8,0.1-1.5,0.4c-0.7,0.3-1,0.4-1.1,0.4c-0.1,0-0.2-0.1-0.4-0.2l0,0
				c-1.6,3-2.5,4.9-2.5,5.7l0,0c0,0.4,0.1,0.6,0.4,0.6l0,0c0.6,0,1.4-0.5,2.5-1.5C137.8,61.5,138.6,60.5,139.2,59.5z M150.7,55.7
				c0.3,0,0.5,0.1,0.8,0.3c0.3,0.2,0.4,0.6,0.4,1.1c0,0.5-0.2,1.1-0.5,1.8c-0.3,0.7-0.8,1.5-1.4,2.3c-0.6,0.8-1.2,1.5-1.9,2.2
				c-0.7,0.7-1.4,1.2-2.2,1.7c-0.8,0.4-1.5,0.7-2.2,0.7c-0.7,0-1.2-0.2-1.6-0.6c-0.4-0.4-0.6-1-0.6-1.7s0.2-1.5,0.5-2.4
				c0.4-0.9,0.8-1.7,1.4-2.4c0.6-0.7,1.2-1.3,1.8-1.8l0,0c1.4-1.1,2.6-1.7,3.6-1.7l0,0c0.5,0,0.8,0.1,1.1,0.3l0,0
				c0.1,0.1,0.1,0.1,0.1,0.2l0,0v0.1C150.2,55.7,150.4,55.7,150.7,55.7z M149.4,57.4L149.4,57.4L149.4,57.4c-0.4,0-0.5-0.2-0.5-0.6
				l0,0c-0.6,0.2-1.3,0.6-1.9,1.1s-1.3,1.1-1.8,1.8l0,0c-1.1,1.4-1.6,2.6-1.6,3.5l0,0c0,0.5,0.2,0.7,0.5,0.7s0.9-0.2,1.5-0.7
				c0.7-0.5,1.4-1.1,2-2c0.7-0.8,1.2-1.6,1.5-2.2c0.3-0.6,0.5-1,0.5-1.3C149.6,57.5,149.5,57.4,149.4,57.4z M161.1,54L161.1,54
				c0.1-0.1,0.3-0.1,0.4-0.1s0.4,0.1,0.7,0.3c0.3,0.2,0.4,0.4,0.4,0.6s-0.1,0.3-0.2,0.4c-0.1,0.1-0.5,0.4-1.2,1
				c-0.7,0.6-1.4,1.3-2.3,2.1c-0.9,0.8-1.5,1.4-2,1.9l0,0c-0.1,0.8-0.1,1.7-0.1,2.5s0.1,1.3,0.3,1.3l0,0c0.5-0.1,1.1-0.5,1.8-1.2
				l0,0c0.3-0.3,0.5-0.5,0.8-0.8c0.3-0.3,0.4-0.4,0.5-0.5c0.1,0,0.1-0.1,0.2-0.1l0,0c0.2,0,0.2,0.1,0.3,0.3c0,0.2,0.1,0.4,0.1,0.8
				c0,0.3,0,0.5-0.1,0.6l0,0c-0.2,0.5-0.8,1-1.6,1.7c-0.8,0.7-1.6,1-2.4,1l0,0c-1.2,0-1.8-0.8-1.8-2.5l0,0c0-0.3,0-0.8,0.1-1.3l0,0
				c-1.4,1.5-2.5,2.8-3.4,3.9l0,0c-0.1,0.1-0.2,0.1-0.4,0.1c-0.2,0-0.4-0.1-0.7-0.3c-0.3-0.2-0.4-0.4-0.4-0.6c0-0.2,0-0.3,0.1-0.4
				l0,0c0.1-0.3,0.6-1,1.6-2.1c1-1.1,2.1-2.2,3.4-3.3l0,0c0-0.7,0-1.3,0-1.7c0-0.4,0-0.6-0.1-0.6c0,0-0.2,0.1-0.5,0.4
				c-0.3,0.2-0.5,0.4-0.6,0.4c-0.2,0-0.3-0.1-0.4-0.4c-0.1-0.3-0.2-0.5-0.2-0.6l0,0c0-0.4,0.3-0.9,1-1.5c0.6-0.6,1.2-0.9,1.8-0.9
				l0,0c0.2,0,0.4,0.1,0.6,0.2c0.2,0.2,0.4,0.3,0.4,0.5l0,0c0.1,0.9,0.1,1.6,0.1,2.2l0,0C158.5,56,159.8,54.8,161.1,54z M178.4,47.2
				l0.6,0.1l0.9-0.2c0.2,0,0.4,0.1,0.6,0.2c0.1,0.1,0.2,0.2,0.2,0.3c0,0.1,0,0.2-0.1,0.4c0,0.2-0.4,1.8-1,5c-0.6,3.1-1.1,5.5-1.4,7
				l0,0c1.4-2,3.1-4.4,5-7.2c1.9-2.9,3-4.8,3.4-5.7l0,0c0.1-0.3,0.2-0.5,0.4-0.7c0.2-0.2,0.3-0.3,0.4-0.3c0.1,0,0.3,0,0.6,0
				c0.3,0,0.6,0.1,0.9,0.2c0.4,0.1,0.5,0.3,0.5,0.6l0,0c0,0.5-0.7,1.9-2.2,4.3c-1.5,2.4-3.2,4.9-5.1,7.6c-1.9,2.7-3.5,4.8-4.8,6.3
				l0,0c-0.2,0.3-0.5,0.4-0.8,0.4c-0.3,0-0.7-0.1-1-0.2c-0.4-0.1-0.5-0.3-0.5-0.6l0,0c0-0.9,0.8-5.4,2.4-13.4l0,0
				c-1.4,1.8-3.1,4.3-5.1,7.6l0,0c-2.1,3.3-3.3,5.4-3.5,6.2l0,0c-0.2,0.5-0.3,0.8-0.5,0.8l0,0c-0.1,0.1-0.3,0.1-0.4,0.1l0,0l-1,0.1
				c-0.2,0-0.4-0.1-0.5-0.2c-0.2-0.1-0.2-0.2-0.2-0.3l0,0c0-0.3,0.5-1.4,1.4-3c0.9-1.7,2-3.5,3.3-5.5c1.3-2,2.6-3.9,3.9-5.8
				c1.4-1.9,2.4-3.1,3.2-3.8l0,0C178.1,47.3,178.2,47.2,178.4,47.2L178.4,47.2z M193.2,55.9L193.2,55.9c0,0.6-0.2,1.1-0.7,1.5
				c-0.5,0.4-1,0.6-1.5,0.6l0,0c-0.2,0-0.3,0-0.4-0.1c-0.1-0.1-0.1-0.2-0.1-0.4c0-0.1,0-0.3,0-0.4l0,0c-0.3,0.1-0.6,0.3-1,0.5
				c-0.4,0.2-0.8,0.5-1.4,0.9c-0.5,0.4-0.8,0.7-0.8,0.9l0,0c0,0.1,0.1,0.1,0.3,0.1c0.2,0,0.5-0.1,0.9-0.2c0.4-0.1,0.7-0.2,0.9-0.2
				c0.2,0,0.3,0,0.3,0l0,0c0.1,0.1,0.2,0.2,0.4,0.4s0.2,0.4,0.2,0.5c0,0.1-0.1,0.3-0.3,0.4c-0.2,0.2-0.5,0.3-0.8,0.4
				c-0.3,0.1-0.5,0.2-0.6,0.2l0,0c-1.8,1-2.7,1.7-2.7,2.1l0,0c0,0.7,0.6,1,1.7,1l0,0c0.7,0,1.4-0.2,2.2-0.7l0,0
				c0.6-0.4,1.2-0.8,1.7-1.2c0.5-0.4,0.8-0.7,0.9-0.7c0.1-0.1,0.2-0.1,0.3-0.1l0,0c0.2,0,0.3,0.2,0.3,0.7c0,0.5,0,0.8-0.1,1
				c-0.1,0.2-0.2,0.4-0.5,0.6l0,0c-1.8,1.5-3.5,2.2-5.1,2.2l0,0c-0.9,0-1.6-0.1-2.1-0.4l0,0c-0.9-0.4-1.4-1.1-1.4-2l0,0
				c0-1.2,0.8-2.1,2.4-2.7l0,0c-0.3-0.1-0.5-0.3-0.6-0.6c-0.1-0.2-0.1-0.6-0.1-1.1c0-0.5,0.2-1,0.7-1.6c0.5-0.6,1-1,1.7-1.4l0,0
				c1.5-0.8,2.8-1.2,4-1.2l0,0c0.3,0,0.6,0.1,0.9,0.2C193.1,55.5,193.2,55.6,193.2,55.9z M201.7,55.9L201.7,55.9
				c0,0.6-0.2,1.1-0.7,1.5c-0.5,0.4-1,0.6-1.5,0.6l0,0c-0.2,0-0.3,0-0.4-0.1c-0.1-0.1-0.1-0.2-0.1-0.4c0-0.1,0-0.3,0.1-0.4l0,0
				c-0.3,0.1-0.6,0.3-1,0.5c-0.4,0.2-0.8,0.5-1.4,0.9c-0.5,0.4-0.8,0.7-0.8,0.9l0,0c0,0.1,0.1,0.1,0.3,0.1s0.5-0.1,0.9-0.2
				c0.4-0.1,0.7-0.2,0.9-0.2c0.2,0,0.3,0,0.3,0l0,0c0.1,0.1,0.2,0.2,0.4,0.4c0.1,0.2,0.2,0.4,0.2,0.5c0,0.1-0.1,0.3-0.3,0.4
				s-0.5,0.3-0.7,0.4c-0.3,0.1-0.5,0.2-0.6,0.2l0,0c-1.8,1-2.7,1.7-2.7,2.1l0,0c0,0.7,0.6,1,1.7,1l0,0c0.7,0,1.4-0.2,2.2-0.7l0,0
				c0.6-0.4,1.2-0.8,1.7-1.2c0.5-0.4,0.8-0.7,0.9-0.7c0.1-0.1,0.2-0.1,0.3-0.1l0,0c0.2,0,0.3,0.2,0.3,0.7c0,0.5,0,0.8-0.1,1
				c-0.1,0.2-0.2,0.4-0.5,0.6l0,0c-1.8,1.5-3.5,2.2-5.1,2.2l0,0c-0.9,0-1.6-0.1-2.1-0.4l0,0c-0.9-0.4-1.4-1.1-1.4-2l0,0
				c0-1.2,0.8-2.1,2.4-2.7l0,0c-0.3-0.1-0.5-0.3-0.6-0.6c-0.1-0.2-0.1-0.6-0.1-1.1c0-0.5,0.2-1,0.7-1.6c0.5-0.6,1-1,1.7-1.4l0,0
				c1.5-0.8,2.8-1.2,4-1.2l0,0c0.3,0,0.6,0.1,0.9,0.2C201.6,55.5,201.7,55.6,201.7,55.9z M217.4,46.4c0.2,0,0.3,0.1,0.4,0.2
				c0.1,0.1,0.1,0.2,0.1,0.3c0,0.1-0.1,0.3-0.2,0.6c-0.2,0.3-0.5,0.9-1.1,1.9c-0.6,0.9-1.1,1.7-1.4,2.2l0,0
				c-1.9,3.1-3.4,5.8-4.5,7.9c-1.1,2.2-1.6,3.5-1.6,3.9l0,0v0.1c0,0.3,0.1,0.5,0.4,0.5c0.3,0,0.6-0.1,0.9-0.4
				c0.4-0.2,0.7-0.5,0.9-0.8c0.3-0.3,0.5-0.5,0.8-0.8c0.3-0.3,0.4-0.5,0.5-0.5c0.1,0,0.1-0.1,0.2-0.1l0,0c0.1,0,0.2,0.1,0.3,0.3
				s0.1,0.4,0.1,0.8c0,0.3,0,0.5-0.1,0.6l0,0c-0.2,0.5-0.8,1-1.6,1.7c-0.8,0.7-1.6,1-2.4,1l0,0c-1.3,0-1.9-0.5-1.9-1.6l0,0
				c0-0.7,0.3-1.5,0.8-2.6l0,0c-0.7,0.9-1.4,1.6-2.1,2.3l0,0c-1.3,1.1-2.5,1.7-3.4,1.7l0,0c-0.5,0-0.9-0.2-1.2-0.6
				c-0.3-0.4-0.4-0.9-0.4-1.6s0.3-1.6,0.8-2.6c0.6-1,1.3-1.9,2.1-2.7c0.8-0.8,1.8-1.5,2.8-2c1-0.5,2-0.8,2.8-0.8l0,0
				c0.3,0,0.6,0.2,1,0.5l0,0c0.2-0.4,0.7-1.2,1.4-2.3l0,0c2.1-3.5,3.4-5.6,4.1-6.4l0,0C216.1,46.6,216.7,46.4,217.4,46.4L217.4,46.4
				z M209.5,57L209.5,57c-1.2,0.3-2.3,0.8-3.4,1.7c-1,0.9-1.8,1.8-2.4,2.7S203,63,203,63.2c0,0.3,0.1,0.4,0.2,0.4l0,0
				c0.5,0,1.8-1.1,3.8-3.4l0,0C207.9,59.1,208.8,58,209.5,57z M213.8,62.8L213.8,62.8l0,0.2c0,0.2,0.1,0.4,0.2,0.5
				c0.2,0.2,0.3,0.2,0.4,0.2l0,0c1,0,1.9-0.2,2.7-0.5c0.8-0.3,1.2-0.6,1.2-0.9l0,0c0-0.1-0.1-0.3-0.4-0.4c-0.3-0.1-0.8-0.2-1.4-0.4
				c-0.7-0.2-1.2-0.3-1.5-0.4c-0.3-0.1-0.5-0.2-0.7-0.2s-0.4-0.2-0.5-0.3l0,0c-0.4-0.3-0.6-0.7-0.6-1.2s0.2-1.1,0.6-1.7
				c0.4-0.5,0.9-1,1.5-1.4c0.6-0.4,1.3-0.7,2-1l0,0c1.4-0.6,2.6-0.9,3.5-0.9l0,0c0.9,0,1.5,0.2,1.7,0.6l0,0c0.1,0.1,0.1,0.3,0.1,0.5
				l0,0v0.1c0,0.4-0.1,0.8-0.3,1.1c-0.2,0.3-0.5,0.5-0.9,0.7s-0.7,0.3-1,0.3c-0.2,0-0.4,0-0.5-0.1c-0.1,0-0.1-0.1-0.2-0.1
				c0-0.1-0.1-0.1-0.2-0.1c-0.1,0-0.1-0.1-0.1-0.2s0-0.2,0.1-0.3c0.1-0.1,0.1-0.2,0.2-0.3l0,0c-0.6,0-1.1,0.2-1.8,0.4
				c-0.6,0.2-1.1,0.5-1.6,0.8c-0.4,0.3-0.8,0.6-1.1,0.8s-0.4,0.5-0.4,0.6c0,0.1,0.2,0.2,0.6,0.3l0,0c1.8,0.3,2.9,0.6,3.5,0.9
				c0.5,0.3,0.9,0.5,1.1,0.9c0.2,0.3,0.3,0.6,0.3,0.9l0,0c0,0.5-0.2,1.1-0.6,1.5c-0.4,0.5-1,0.9-1.6,1.2l0,0c-1.4,0.7-2.6,1-3.6,1
				c-1,0-1.7-0.2-2.1-0.5c-0.4-0.3-0.6-0.7-0.6-1.1s0.1-0.8,0.3-1.2c0.2-0.4,0.5-0.5,0.8-0.5C213.7,62.6,213.8,62.7,213.8,62.8z
				 M237.6,55.7L237.6,55.7c0.6,0,1,0.2,1,0.7l0,0c0,0.2-0.1,0.4-0.2,0.5c-0.1,0.1-0.3,0.5-0.7,1.1c-0.4,0.6-0.8,1.4-1.2,2.4
				c-0.4,1-0.7,1.8-0.8,2.5l0,0c0,0.1,0,0.2,0,0.4l0,0c0,0.5,0.1,0.7,0.4,0.7c0.3,0,0.6-0.1,0.9-0.4c0.3-0.2,0.7-0.5,0.9-0.8
				c0.3-0.3,0.5-0.6,0.8-0.8c0.3-0.3,0.4-0.5,0.5-0.5c0.1,0,0.1-0.1,0.2-0.1l0,0c0.2,0,0.3,0.1,0.3,0.4c0,0.2,0.1,0.5,0.1,0.8
				c0,0.3,0,0.4-0.1,0.5l0,0c-0.2,0.5-0.8,1.1-1.6,1.7c-0.8,0.7-1.6,1-2.3,1c-0.7,0-1.2-0.2-1.5-0.6c-0.3-0.4-0.5-0.9-0.5-1.4
				s0.1-0.9,0.3-1.3l0,0c-0.7,0.9-1.5,1.7-2.4,2.3c-0.9,0.6-1.7,1-2.2,1c-0.6,0-1-0.2-1.4-0.5l0,0c-0.5-0.4-0.7-1-0.7-1.8
				c0-0.8,0.2-1.5,0.5-2.3c0.3-0.8,0.8-1.5,1.4-2.1c0.6-0.6,1.2-1.2,1.8-1.7l0,0c1.4-1.1,2.7-1.7,3.9-1.7l0,0c0.5,0,0.8,0.1,1.1,0.2
				c0.3,0.2,0.5,0.3,0.5,0.6l0,0c0.2-0.3,0.4-0.5,0.5-0.6C237.1,55.8,237.3,55.7,237.6,55.7z M235.9,57.1L235.9,57.1
				c-1.4,0-2.9,0.8-4.5,2.4l0,0c-0.5,0.6-1.1,1.3-1.5,2.1c-0.5,0.8-0.7,1.4-0.7,1.7c0,0.3,0.1,0.4,0.3,0.4l0,0c0.2,0,0.9-0.5,2-1.4
				c1.1-0.9,1.8-1.6,2.2-2.1l0,0C234,59.8,234.7,58.7,235.9,57.1z M267.2,47.2l1.1,0.1h0.2c0.1,0,0.1,0,0.1,0c0,0,0,0,0.1,0
				c0,0,0,0,0.1,0l0,0c0,0,0.1,0.1,0.2,0.1l0,0c0.1,0.1,0.1,0.2,0.1,0.3c0,0.1-0.1,0.3-0.3,0.6c-0.2,0.3-0.7,1.1-1.5,2.4l0,0
				c-1.9,2.9-3.6,5.6-5.1,8.1l0,0c-2.6,4.3-3.9,6.5-3.9,6.5c0,0,0,0.1-0.1,0.1l0,0c0,0.1,0,0.1-0.1,0.1l0,0l-0.2,0l-0.3,0.1l-0.2,0
				l-0.2,0h-0.1l-0.7,0.1c-0.4,0-0.6-0.1-0.6-0.4l0,0c0-0.1,0-0.3,0.1-0.4l0,0c0.3-0.6,1.6-2.9,4-6.7l0,0c-1.6,0-3.1,0.1-4.6,0.1
				l0,0l-2.7,0c-0.5,0.7-1.1,1.7-1.8,3.1l0,0c-1.7,2.9-2.6,4.3-2.7,4.4c-0.1,0-0.2,0-0.3,0c-0.1,0-0.1,0-0.2-0.1
				c-0.1-0.1-0.1-0.1-0.1-0.1c0,0-0.1,0-0.1,0c-0.1,0-0.2,0.1-0.3,0.1l0,0l-0.3,0l-0.1-0.1c0,0,0,0,0,0c0,0,0,0-0.1,0l0,0
				c-0.4,0-0.5-0.2-0.5-0.5l0,0c0-0.2,0.1-0.5,0.2-0.8c0.1-0.3,0.3-0.7,0.6-1.1c0.2-0.4,0.8-1.3,1.8-2.8c1-1.5,1.4-2.2,1.4-2.2l0,0
				c-0.2,0-0.3,0-0.6,0l0,0c-0.4,0-0.7,0-0.9-0.1l0,0c-0.5-0.1-0.8-0.5-1-1.2l0,0c-0.1-0.3-0.1-0.6-0.1-0.7l0,0
				c0-0.2,0.1-0.3,0.3-0.3l0,0l0.3,0.1c0.2,0,0.6,0,1.2,0.1c0.6,0,1.1,0.1,1.4,0.1l0,0l0.7,0c1.1-1.7,2.4-3.7,3.9-5.8l0,0
				c-1.1,0.9-2.4,1.4-3.7,1.4l0,0c-0.6,0-1.2-0.2-1.7-0.5c-0.5-0.3-0.7-0.7-0.7-1.2c0-0.5,0.2-0.9,0.5-1.1c0.4-0.3,0.7-0.4,1-0.4
				c0.3,0,0.5,0.1,0.5,0.2l0,0c0,0,0,0.1-0.1,0.1c-0.1,0-0.1,0.1-0.1,0.1l0,0c0,0.1,0.1,0.3,0.4,0.4c0.3,0.1,0.6,0.2,1,0.2
				c0.4,0,0.8-0.1,1.4-0.3c0.5-0.2,1.1-0.5,1.7-0.8l0,0c0.8-0.5,1.5-0.9,1.9-1.2l0,0c0.3-0.1,0.5-0.2,0.8-0.2c0.2,0,0.4,0,0.5,0.1
				c0.1,0.1,0.2,0.1,0.2,0.2c0.1,0.1,0.1,0.1,0.2,0.2c0.1,0.1,0.1,0.2,0.2,0.2c0.1,0,0.1,0.1,0.1,0.2c0,0.1,0,0.2-0.1,0.3
				s-0.4,0.6-1,1.5c-0.6,0.9-1.3,2.1-2.3,3.5c-0.9,1.4-1.6,2.4-2,3.1l0,0c2.3,0,4.7,0,7.3-0.1l0,0c3.2-5,4.9-7.7,5.1-7.9
				c0.2-0.2,0.3-0.4,0.5-0.5C266.8,47.2,267,47.2,267.2,47.2L267.2,47.2z M273.8,55.7L273.8,55.7c0.6,0,1,0.2,1,0.7l0,0
				c0,0.2-0.1,0.4-0.2,0.5c-0.1,0.1-0.3,0.5-0.7,1.1c-0.4,0.6-0.8,1.4-1.2,2.4c-0.4,1-0.7,1.8-0.8,2.5l0,0c0,0.1,0,0.2,0,0.4l0,0
				c0,0.5,0.1,0.7,0.4,0.7c0.3,0,0.6-0.1,0.9-0.4c0.3-0.2,0.7-0.5,0.9-0.8c0.3-0.3,0.5-0.6,0.8-0.8c0.3-0.3,0.4-0.5,0.5-0.5
				c0.1,0,0.1-0.1,0.2-0.1l0,0c0.2,0,0.3,0.1,0.3,0.4c0,0.2,0.1,0.5,0.1,0.8c0,0.3,0,0.4-0.1,0.5l0,0c-0.2,0.5-0.8,1.1-1.6,1.7
				c-0.8,0.7-1.6,1-2.3,1c-0.7,0-1.2-0.2-1.5-0.6c-0.3-0.4-0.5-0.9-0.5-1.4c0-0.5,0.1-0.9,0.3-1.3l0,0c-0.7,0.9-1.5,1.7-2.4,2.3
				c-0.9,0.6-1.7,1-2.2,1s-1-0.2-1.4-0.5l0,0c-0.5-0.4-0.7-1-0.7-1.8c0-0.8,0.2-1.5,0.5-2.3c0.3-0.8,0.8-1.5,1.4-2.1
				c0.6-0.6,1.2-1.2,1.8-1.7l0,0c1.4-1.1,2.7-1.7,3.9-1.7l0,0c0.5,0,0.8,0.1,1.1,0.2c0.3,0.2,0.5,0.3,0.5,0.6l0,0
				c0.2-0.3,0.4-0.5,0.5-0.6C273.3,55.8,273.5,55.7,273.8,55.7z M272.1,57.1L272.1,57.1c-1.4,0-2.9,0.8-4.5,2.4l0,0
				c-0.5,0.6-1.1,1.3-1.5,2.1c-0.5,0.8-0.7,1.4-0.7,1.7c0,0.3,0.1,0.4,0.3,0.4l0,0c0.2,0,0.9-0.5,2-1.4c1.1-0.9,1.8-1.6,2.2-2.1l0,0
				C270.2,59.8,271,58.7,272.1,57.1z M275,65.5L275,65.5l-0.6,0h-0.2c-0.1,0-0.2-0.1-0.3-0.2c-0.1-0.1-0.2-0.1-0.2-0.2
				s-0.1-0.1-0.1-0.2c0-0.1,0-0.2,0.1-0.5l0,0c1.6-3.6,3.2-6.5,4.8-8.7l0,0c0.2-0.2,0.4-0.4,0.8-0.5c0.4-0.1,0.7-0.2,1.1-0.2l0,0
				c0.2,0,0.3,0.2,0.3,0.5l0,0c0,0.1,0,0.2-0.1,0.4c-0.1,0.2-0.2,0.4-0.5,0.8c-0.3,0.4-0.6,0.8-1,1.2c-0.4,0.5-0.6,0.7-0.6,0.8l0,0
				c1.2-1.2,2.2-2.1,3.1-2.7c0.9-0.6,1.6-0.9,2-0.9c0.4,0,0.7,0.1,1,0.4c0.2,0.2,0.3,0.5,0.3,0.8c0,0.3,0,0.5-0.1,0.7
				c0,0.2-0.1,0.4-0.2,0.6c-0.1,0.2-0.2,0.4-0.3,0.5c-0.1,0.1-0.2,0.3-0.4,0.5c-0.2,0.2-0.3,0.4-0.4,0.5c-0.1,0.1-0.2,0.2-0.4,0.5
				c-0.2,0.2-0.3,0.4-0.3,0.4l0,0c0.2-0.2,0.6-0.6,1-1.1c0.4-0.5,0.8-0.9,1.1-1.2c0.3-0.3,0.7-0.7,1.1-1.1c0.4-0.4,0.9-0.7,1.2-1
				l0,0c0.9-0.6,1.8-0.9,2.8-0.9l0,0c0.3,0,0.6,0.1,0.8,0.3c0.2,0.2,0.3,0.4,0.3,0.7c0,0.3-0.3,1-1,2c-0.7,1.1-1.4,2.1-2.1,3.2
				c-0.7,1.1-1,1.8-1,2l0,0c0,0.4,0.1,0.6,0.2,0.7c0.1,0.1,0.3,0.1,0.5,0.1c0.2,0,0.5-0.1,0.9-0.4c0.4-0.2,0.7-0.5,1-0.8l0,0
				c0.5-0.4,0.9-0.8,1.3-1.2l0,0c0.1-0.1,0.2-0.1,0.3-0.1l0,0c0.2,0,0.3,0.1,0.3,0.4c0,0.2,0,0.5,0,0.8c0,0.3,0,0.4-0.1,0.5l0,0
				c-0.2,0.5-0.8,1.1-1.6,1.7c-0.8,0.7-1.6,1-2.4,1l0,0c-0.1,0-0.2,0-0.2,0l0,0c-0.9-0.1-1.5-0.3-1.8-0.7c-0.3-0.4-0.5-0.9-0.5-1.4
				c0-0.5,0.2-1.2,0.6-2c0.4-0.8,0.8-1.5,1.2-2.1c0.4-0.6,0.8-1.2,1.2-1.7c0.4-0.5,0.6-0.8,0.6-0.8c0,0,0-0.1-0.1-0.1l0,0
				c-0.3,0-0.8,0.4-1.7,1.3l0,0c-1.6,1.4-2.9,2.8-4,4.2l0,0c-0.3,0.4-1,1.3-2.1,2.7l0,0c-0.1,0.2-0.3,0.3-0.6,0.3
				c-0.3,0-0.6-0.1-0.9-0.2c-0.3-0.1-0.4-0.2-0.4-0.4l0,0c0-0.1,0.7-1.3,2-3.6c1.3-2.3,2-3.5,2-3.7c0-0.2-0.1-0.3-0.4-0.3
				c-0.3,0-0.8,0.4-1.5,1.1l0,0c-2.1,2-3.8,4.1-5,6.1l0,0c-0.1,0.1-0.2,0.3-0.4,0.6C275.2,65.3,275.1,65.5,275,65.5z M291,65.5
				L291,65.5l-0.6,0h-0.2c-0.1,0-0.2-0.1-0.3-0.2c-0.1-0.1-0.2-0.1-0.2-0.2c-0.1,0-0.1-0.1-0.1-0.2c0-0.1,0-0.2,0.1-0.5l0,0
				c1.6-3.6,3.2-6.5,4.8-8.7l0,0c0.2-0.2,0.4-0.4,0.8-0.5c0.4-0.1,0.7-0.2,1.1-0.2l0,0c0.2,0,0.3,0.2,0.3,0.5l0,0
				c0,0.1,0,0.2-0.1,0.4c-0.1,0.2-0.2,0.4-0.5,0.8c-0.3,0.4-0.6,0.8-1,1.2c-0.4,0.5-0.6,0.7-0.6,0.8l0,0c1.2-1.2,2.2-2.1,3.1-2.7
				c0.9-0.6,1.6-0.9,2-0.9c0.4,0,0.7,0.1,1,0.4c0.2,0.2,0.3,0.5,0.3,0.8c0,0.3,0,0.5-0.1,0.7s-0.1,0.4-0.2,0.6
				c-0.1,0.2-0.2,0.4-0.3,0.5c-0.1,0.1-0.2,0.3-0.4,0.5c-0.2,0.2-0.3,0.4-0.3,0.5c-0.1,0.1-0.2,0.2-0.4,0.5
				c-0.2,0.2-0.3,0.4-0.3,0.4l0,0c0.2-0.2,0.6-0.6,1-1.1c0.4-0.5,0.8-0.9,1.1-1.2c0.3-0.3,0.7-0.7,1.1-1.1c0.4-0.4,0.8-0.7,1.2-1
				l0,0c0.9-0.6,1.8-0.9,2.8-0.9l0,0c0.3,0,0.6,0.1,0.8,0.3c0.2,0.2,0.3,0.4,0.3,0.7c0,0.3-0.3,1-1,2c-0.7,1.1-1.4,2.1-2,3.2
				c-0.7,1.1-1,1.8-1,2l0,0c0,0.4,0.1,0.6,0.2,0.7c0.1,0.1,0.3,0.1,0.5,0.1c0.2,0,0.5-0.1,0.9-0.4c0.4-0.2,0.7-0.5,1-0.8l0,0
				c0.5-0.4,0.9-0.8,1.3-1.2l0,0c0.1-0.1,0.2-0.1,0.3-0.1l0,0c0.2,0,0.3,0.1,0.3,0.4c0,0.2,0.1,0.5,0.1,0.8c0,0.3,0,0.4-0.1,0.5l0,0
				c-0.2,0.5-0.8,1.1-1.6,1.7c-0.8,0.7-1.6,1-2.4,1l0,0c-0.1,0-0.2,0-0.2,0l0,0c-0.9-0.1-1.5-0.3-1.8-0.7c-0.3-0.4-0.5-0.9-0.5-1.4
				c0-0.5,0.2-1.2,0.6-2c0.4-0.8,0.8-1.5,1.2-2.1c0.4-0.6,0.8-1.2,1.2-1.7c0.4-0.5,0.6-0.8,0.6-0.8c0,0,0-0.1-0.1-0.1l0,0
				c-0.3,0-0.8,0.4-1.8,1.3l0,0c-1.5,1.4-2.9,2.8-4,4.2l0,0c-0.3,0.4-1,1.3-2.1,2.7l0,0c-0.1,0.2-0.3,0.3-0.6,0.3
				c-0.3,0-0.6-0.1-0.9-0.2c-0.3-0.1-0.4-0.2-0.4-0.4l0,0c0-0.1,0.7-1.3,2-3.6c1.3-2.3,2-3.5,2-3.7c0-0.2-0.1-0.3-0.4-0.3
				c-0.2,0-0.8,0.4-1.5,1.1l0,0c-2.1,2-3.8,4.1-5,6.1l0,0c-0.1,0.1-0.2,0.3-0.4,0.6C291.3,65.3,291.1,65.5,291,65.5z M315.8,55.9
				L315.8,55.9c0,0.6-0.2,1.1-0.7,1.5c-0.5,0.4-1,0.6-1.5,0.6l0,0c-0.2,0-0.3,0-0.4-0.1c-0.1-0.1-0.1-0.2-0.1-0.4
				c0-0.1,0-0.3,0.1-0.4l0,0c-0.3,0.1-0.6,0.3-1,0.5s-0.8,0.5-1.4,0.9c-0.5,0.4-0.8,0.7-0.8,0.9l0,0c0,0.1,0.1,0.1,0.3,0.1
				c0.2,0,0.5-0.1,0.9-0.2c0.4-0.1,0.7-0.2,0.9-0.2s0.3,0,0.3,0l0,0c0.1,0.1,0.2,0.2,0.4,0.4c0.1,0.2,0.2,0.4,0.2,0.5
				c0,0.1-0.1,0.3-0.3,0.4c-0.2,0.2-0.5,0.3-0.7,0.4c-0.3,0.1-0.5,0.2-0.6,0.2l0,0c-1.8,1-2.7,1.7-2.7,2.1l0,0c0,0.7,0.6,1,1.7,1
				l0,0c0.7,0,1.4-0.2,2.2-0.7l0,0c0.6-0.4,1.2-0.8,1.7-1.2c0.5-0.4,0.8-0.7,0.9-0.7c0.1-0.1,0.2-0.1,0.3-0.1l0,0
				c0.2,0,0.3,0.2,0.3,0.7c0,0.5,0,0.8-0.1,1c-0.1,0.2-0.2,0.4-0.5,0.6l0,0c-1.8,1.5-3.5,2.2-5.1,2.2l0,0c-0.9,0-1.6-0.1-2.1-0.4
				l0,0c-0.9-0.4-1.4-1.1-1.4-2l0,0c0-1.2,0.8-2.1,2.4-2.7l0,0c-0.3-0.1-0.5-0.3-0.6-0.6c-0.1-0.2-0.1-0.6-0.1-1.1
				c0-0.5,0.2-1,0.7-1.6c0.5-0.6,1-1,1.7-1.4l0,0c1.5-0.8,2.8-1.2,4-1.2l0,0c0.3,0,0.6,0.1,0.9,0.2
				C315.7,55.5,315.8,55.6,315.8,55.9z M320.3,57.7l-0.5,0.8c2-2.3,3.7-3.4,5.1-3.4l0,0c0.3,0,0.6,0.1,0.9,0.3
				c0.2,0.2,0.3,0.5,0.3,0.8c0,0.3-0.2,0.9-0.7,1.7c-0.5,0.8-0.9,1.4-1.3,2l0,0c-0.2,0.3-0.5,0.4-0.7,0.4c-0.3,0-0.5-0.1-0.6-0.3
				c-0.1-0.2-0.2-0.4-0.2-0.7l0,0c0-0.6,0.3-1.2,0.9-2l0,0l0,0c-0.3,0-1,0.6-2.1,1.7c-1.1,1.1-2,2-2.8,2.9c-0.8,0.9-1.6,1.9-2.5,3.1
				l0,0c-0.3,0.4-0.5,0.5-0.7,0.5c-0.2,0-0.4-0.1-0.7-0.2c-0.3-0.1-0.5-0.2-0.5-0.3c-0.1,0-0.1-0.1-0.1-0.3c0-0.1,0-0.3,0.1-0.4
				c0.1-0.2,0.2-0.4,0.4-0.7c0.2-0.3,0.5-0.7,0.8-1.4c0.4-0.6,0.9-1.6,1.7-2.9c0.8-1.3,1.2-2.1,1.4-2.4l0,0c0.3-0.6,0.6-1,0.8-1.2
				l0,0c0.4-0.5,1-0.7,1.9-0.7l0,0c0.2,0,0.3,0.1,0.3,0.4l0,0C321.4,55.8,321,56.6,320.3,57.7L320.3,57.7z M343.4,44l0.7,0l0.5,0
				c0.2,0,0.3,0.1,0.3,0.2l0,0c0,0-0.3,0.5-0.8,1.5c-0.5,1-2.3,4.2-5.3,9.8c-3,5.6-5.1,9.7-6.4,12.3l0,0c-0.1,0.2-0.2,0.3-0.3,0.4
				l0,0c-0.4,0.2-0.7,0.3-0.8,0.3l0,0l-0.3,0.1c-0.1,0-0.1,0-0.3-0.1c-0.1,0-0.2-0.1-0.2-0.1s0-0.2,0-0.3c0-0.2,0-0.3,0-0.3l0,0
				c0.2-0.8,2.2-4.8,6.2-12.1c3.9-7.3,6.1-11.2,6.5-11.5l0,0C343.1,44,343.2,44,343.4,44L343.4,44z M348.9,61.9L348.9,61.9l-0.2,0.3
				c0,0.2,0.3,0.5,1,0.7c0.7,0.2,1.5,0.3,2.3,0.3c0.8,0,1.7-0.1,2.7-0.4c1-0.2,1.9-0.5,2.6-0.9c0.7-0.4,1.3-0.7,1.8-1.1
				c0.5-0.4,0.7-0.7,0.7-1l0,0c0-0.4-0.4-0.7-1.3-1c-0.8-0.3-2.1-0.7-3.7-1c-1.6-0.4-2.8-0.9-3.5-1.4c-0.7-0.6-1.1-1.3-1.1-2.1
				c0-0.8,0.3-1.6,0.9-2.4c0.6-0.8,1.4-1.4,2.3-2c1-0.6,2-1.1,3.1-1.6l0,0c2.3-0.9,4.5-1.4,6.5-1.4l0,0c0.8,0,1.4,0.1,2,0.2l0,0
				c1.1,0.3,1.7,0.6,1.7,1c0,0.4,0,0.7-0.1,0.9c-0.1,0.2-0.1,0.3-0.2,0.3c0,0.1-0.1,0.1-0.2,0.1c-0.1,0.1-0.1,0.1-0.2,0.1l0,0
				c-0.4,0.3-1.4,0.5-3.1,0.6l0,0c-0.6,0-0.9,0.1-0.9,0.1c-0.1,0-0.1,0-0.1,0c0,0-0.1,0-0.1-0.1c-0.1-0.1-0.1-0.2-0.1-0.3
				s0.2-0.4,0.5-0.8l0,0c-1,0.1-2.1,0.3-3.3,0.7c-1.2,0.4-2.2,0.9-3.1,1.4c-0.9,0.5-1.6,1-2.2,1.5c-0.6,0.5-0.9,0.9-0.9,1.1
				c0,0.2,0.1,0.4,0.2,0.5l0,0c0.4,0.4,1.3,0.8,3,1.2l0,0c1.7,0.4,2.8,0.8,3.4,1c0.6,0.3,1,0.5,1.4,0.7c0.4,0.2,0.7,0.5,0.9,0.7l0,0
				c0.5,0.6,0.8,1.2,0.8,1.8c0,0.6-0.2,1.2-0.5,1.7c-0.3,0.5-0.8,1-1.5,1.5c-0.7,0.5-1.4,0.9-2.3,1.3l0,0c-1.9,0.9-4.3,1.3-7,1.3
				l0,0c-2,0-3.2-0.5-3.8-1.6l0,0c-0.1-0.3-0.2-0.5-0.2-0.8c0-0.3,0.1-0.5,0.2-0.8c0.1-0.2,0.3-0.4,0.5-0.5l0,0
				c0.4-0.2,0.6-0.3,0.8-0.3C348.9,61.7,348.9,61.8,348.9,61.9z M372,49.1l0.6-0.1l0.5,0.1c0.1,0,0.1,0,0.2,0.1
				c0.1,0.1,0.1,0.2,0.1,0.2c0,0.1-0.1,0.2-0.3,0.5c-0.2,0.3-0.4,0.6-0.6,1c-0.2,0.4-0.4,0.6-0.4,0.6l0,0c0.7-0.1,1.1-0.1,1.4-0.1
				c0.3,0,0.5,0,0.6,0.1c0.1,0,0.2,0.1,0.3,0.3c0.1,0.2,0.3,0.3,0.4,0.4c0.1,0.1,0.2,0.2,0.2,0.4s-0.1,0.3-0.3,0.4
				c-0.2,0.1-0.4,0.2-0.7,0.2l0,0c-2,0.2-3,0.3-3.2,0.3l0,0c-0.7,1-1.6,2.7-2.9,4.9c-1.2,2.2-1.9,3.6-2,4.2l0,0
				c0,0.3-0.1,0.5-0.1,0.6l0,0c0,0.3,0.2,0.5,0.5,0.5c0.3,0,0.7-0.1,1.2-0.4c0.4-0.3,0.8-0.6,1.2-0.9l0,0c0.9-0.8,1.5-1.3,1.5-1.3
				l0,0c0.2,0,0.3,0.4,0.3,1.1l0,0c0,0.4-0.2,0.8-0.6,1.1l0,0c-0.9,0.7-1.6,1.3-2.2,1.7c-0.6,0.4-1.2,0.6-1.8,0.6l0,0
				c-0.1,0-0.2,0-0.4,0l0,0c-0.7-0.1-1.2-0.4-1.5-0.7s-0.5-0.9-0.5-1.5c0-0.6,0.2-1.4,0.6-2.3s0.8-1.8,1.4-2.8l0,0
				c0.9-1.6,1.8-3.2,2.7-4.6l0,0l-0.5,0.1c-1,0.1-1.5,0.2-1.7,0.2l0,0h-0.1c-0.2,0-0.5,0-0.7-0.1c-0.2-0.1-0.3-0.2-0.3-0.4
				c0-0.1,0.1-0.3,0.2-0.4c0.1-0.1,0.2-0.2,0.2-0.3l0,0c0.1-0.2,0.3-0.4,0.7-0.6c0.4-0.2,0.7-0.4,0.9-0.4c0.2,0,0.4,0,0.6,0
				c0.2,0,0.4,0,0.6,0c0.2,0,0.4,0,0.5,0l0,0l1.1-0.1c0.7-1.1,1.2-1.8,1.5-2.1c0.3-0.3,0.4-0.5,0.5-0.5
				C371.8,49.1,371.9,49.1,372,49.1L372,49.1z M378.3,55.7c0.3,0,0.5,0.1,0.8,0.3c0.3,0.2,0.4,0.6,0.4,1.1c0,0.5-0.2,1.1-0.5,1.8
				c-0.3,0.7-0.8,1.5-1.4,2.3c-0.6,0.8-1.2,1.5-1.9,2.2c-0.7,0.7-1.4,1.2-2.2,1.7c-0.8,0.4-1.5,0.7-2.2,0.7c-0.7,0-1.2-0.2-1.6-0.6
				c-0.4-0.4-0.6-1-0.6-1.7s0.2-1.5,0.5-2.4c0.4-0.9,0.8-1.7,1.4-2.4c0.6-0.7,1.2-1.3,1.8-1.8l0,0c1.4-1.1,2.6-1.7,3.6-1.7l0,0
				c0.5,0,0.8,0.1,1.1,0.3l0,0c0.1,0.1,0.1,0.1,0.1,0.2l0,0v0.1C377.9,55.7,378.1,55.7,378.3,55.7z M377.1,57.4L377.1,57.4
				L377.1,57.4c-0.4,0-0.5-0.2-0.5-0.6l0,0c-0.6,0.2-1.3,0.6-1.9,1.1c-0.7,0.5-1.3,1.1-1.8,1.8l0,0c-1.1,1.4-1.6,2.6-1.6,3.5l0,0
				c0,0.5,0.2,0.7,0.5,0.7c0.3,0,0.9-0.2,1.5-0.7c0.7-0.5,1.4-1.1,2-2c0.7-0.8,1.2-1.6,1.5-2.2c0.3-0.6,0.5-1,0.5-1.3
				C377.2,57.5,377.2,57.4,377.1,57.4z M386.3,51.9l0.2,0l0.2,0c0.1,0,0.2,0.1,0.3,0.3c0.1,0.2,0.1,0.4,0.1,0.4
				c0,0.1-0.1,0.2-0.3,0.4l0,0l-3.6,5.5c1.3-1.3,2.6-2.2,3.9-2.8l0,0c0.5-0.2,1-0.3,1.4-0.3c0.4,0,0.7,0.1,1,0.4
				c0.3,0.3,0.4,0.6,0.4,1c0,0.4-0.1,0.9-0.3,1.5c-0.2,0.6-0.5,1.2-0.9,1.9c-0.4,0.7-0.8,1.3-1.4,2c-0.5,0.7-1.1,1.3-1.7,1.8
				c-0.6,0.5-1.2,1-1.9,1.3c-0.7,0.3-1.3,0.5-1.8,0.5l0,0c-1.1,0-1.6-0.5-1.6-1.5l0,0c-1,1.5-2.1,3.3-3.4,5.4
				c-1.3,2.1-2,3.2-2.1,3.3c-0.1,0.1-0.2,0.2-0.2,0.2c-0.1,0-0.2,0-0.3-0.1c-0.1-0.1-0.3-0.2-0.4-0.4c-0.1-0.2-0.2-0.4-0.2-0.8
				c0-0.3,0.1-0.7,0.3-1l0,0c1.1-1.9,3.3-5.5,6.6-10.7c3.3-5.3,5-8,5.3-8.2l0,0C386,51.9,386.2,51.9,386.3,51.9L386.3,51.9z
				 M387.7,57.7L387.7,57.7c0-0.2-0.1-0.3-0.3-0.3l0,0c-0.5,0-1.4,0.7-2.9,2.1c-1.5,1.4-2.7,2.7-3.5,3.8l0,0c0.2,0.3,0.5,0.4,1,0.4
				c0.4,0,1-0.2,1.7-0.7c0.7-0.5,1.3-1,1.9-1.7c0.6-0.6,1.1-1.3,1.5-2C387.5,58.7,387.7,58.2,387.7,57.7z M406.7,46.9l1,0l0.6,0
				c0.2,0,0.3,0.1,0.3,0.3l0,0c0,0.1,0,0.1,0,0.1l0,0c-4,5.9-7.8,11.8-11.3,17.5l0,0c-0.2,0.3-0.4,0.5-0.5,0.5l0,0
				c0,0-0.1,0-0.1,0.1l0,0c-0.4,0.2-0.7,0.2-0.9,0.2c-0.2,0-0.3,0-0.3,0l0,0c-0.1,0.1-0.2,0.1-0.3,0.1c-0.1,0-0.2,0-0.2,0
				s-0.1,0-0.3-0.1c-0.2-0.1-0.2-0.1-0.2-0.1l0,0c0-0.4,0-0.7,0.1-0.8l0,0c0.2-0.6,1.2-2.3,2.9-5.1c1.8-2.8,3.6-5.5,5.4-8.2
				c1.8-2.7,3-4.1,3.3-4.4l0,0C406.4,47,406.5,46.9,406.7,46.9L406.7,46.9z M411.2,49.1l0.6-0.1l0.5,0.1c0.1,0,0.1,0,0.2,0.1
				c0.1,0.1,0.1,0.2,0.1,0.2c0,0.1-0.1,0.2-0.3,0.5c-0.2,0.3-0.4,0.6-0.6,1c-0.2,0.4-0.4,0.6-0.4,0.6l0,0c0.7-0.1,1.1-0.1,1.4-0.1
				c0.3,0,0.5,0,0.6,0.1c0.1,0,0.2,0.1,0.4,0.3c0.1,0.2,0.3,0.3,0.4,0.4c0.1,0.1,0.2,0.2,0.2,0.4s-0.1,0.3-0.3,0.4
				c-0.2,0.1-0.4,0.2-0.7,0.2l0,0c-2,0.2-3,0.3-3.2,0.3l0,0c-0.7,1-1.6,2.7-2.9,4.9c-1.2,2.2-1.9,3.6-2,4.2l0,0
				c0,0.3-0.1,0.5-0.1,0.6l0,0c0,0.3,0.2,0.5,0.5,0.5s0.7-0.1,1.2-0.4c0.4-0.3,0.8-0.6,1.2-0.9l0,0c0.9-0.8,1.5-1.3,1.5-1.3l0,0
				c0.2,0,0.3,0.4,0.3,1.1l0,0c0,0.4-0.2,0.8-0.6,1.1l0,0c-0.9,0.7-1.6,1.3-2.2,1.7c-0.6,0.4-1.2,0.6-1.8,0.6l0,0
				c-0.1,0-0.2,0-0.4,0l0,0c-0.7-0.1-1.2-0.4-1.5-0.7c-0.3-0.4-0.5-0.9-0.5-1.5c0-0.6,0.2-1.4,0.6-2.3s0.8-1.8,1.4-2.8l0,0
				c0.9-1.6,1.8-3.2,2.7-4.6l0,0l-0.5,0.1c-1,0.1-1.5,0.2-1.7,0.2l0,0h-0.1c-0.2,0-0.5,0-0.7-0.1c-0.2-0.1-0.3-0.2-0.3-0.4
				c0-0.1,0.1-0.3,0.2-0.4c0.1-0.1,0.2-0.2,0.2-0.3l0,0c0.1-0.2,0.3-0.4,0.7-0.6c0.4-0.2,0.7-0.4,0.9-0.4c0.2,0,0.4,0,0.6,0
				c0.2,0,0.4,0,0.6,0c0.2,0,0.4,0,0.5,0l0,0l1.1-0.1c0.7-1.1,1.2-1.8,1.5-2.1c0.3-0.3,0.4-0.5,0.5-0.5
				C411,49.1,411.1,49.1,411.2,49.1L411.2,49.1z"/>
		</g>
	</g>
	<g transform="rotate(0 0 0)">
		<g transform="matrix(1 0 0 1 0 0)">
			<path class="st0" d="M6.7,1.5c3.1,0,5.3,1.2,6.3,3.7l0,0l-1.1,0.9C11.5,4.9,10.9,4,10,3.5C9.2,3,8.1,2.7,6.7,2.7l0,0
				c-1,0-1.8,0.2-2.6,0.5S2.9,3.9,2.5,4.4C2.1,4.9,1.9,5.5,1.9,6.2l0,0c0,0.6,0.2,1.2,0.5,1.6C2.7,8.2,3.3,8.6,4,8.9
				s1.8,0.6,3.2,0.8l0,0c2.2,0.4,3.7,0.9,4.6,1.6c0.9,0.7,1.4,1.7,1.4,2.9l0,0c0,0.9-0.3,1.7-0.8,2.4c-0.5,0.7-1.3,1.2-2.2,1.6
				c-1,0.4-2.1,0.6-3.3,0.6l0,0c-1.8,0-3.2-0.4-4.5-1.1c-1.2-0.7-2-1.7-2.5-3l0,0l1.1-0.9c0.3,1.2,1,2.1,2,2.8s2.3,1,3.8,1l0,0
				c1.5,0,2.6-0.3,3.6-0.9c0.9-0.6,1.4-1.4,1.4-2.4l0,0c0-0.9-0.4-1.6-1.1-2.1c-0.8-0.5-2.1-0.9-3.9-1.3l0,0c-1.6-0.3-2.8-0.6-3.7-1
				C2.2,9.5,1.6,9,1.2,8.5S0.6,7.2,0.6,6.3l0,0c0-0.9,0.2-1.7,0.7-2.4c0.5-0.7,1.2-1.3,2.1-1.7C4.4,1.7,5.4,1.5,6.7,1.5L6.7,1.5z
				 M18,0v15.5c0,0.8,0.1,1.3,0.4,1.7s0.7,0.5,1.2,0.5l0,0c0.3,0,0.6,0,0.9-0.1c0.2-0.1,0.5-0.1,0.8-0.3l0,0l-0.2,1.2
				c-0.5,0.2-1,0.3-1.7,0.3l0,0c-0.9,0-1.6-0.3-2-0.8c-0.4-0.5-0.7-1.3-0.7-2.4l0,0V0H18z M28.9,5.6c1.9,0,3.4,0.6,4.4,1.8
				c1.1,1.2,1.6,2.8,1.6,4.8l0,0c0,2-0.5,3.7-1.6,4.8c-1.1,1.2-2.6,1.8-4.4,1.8l0,0c-1.9,0-3.4-0.6-4.4-1.8
				c-1.1-1.2-1.6-2.8-1.6-4.8l0,0c0-2,0.5-3.7,1.6-4.8C25.6,6.2,27,5.6,28.9,5.6L28.9,5.6z M28.9,6.7c-1.5,0-2.7,0.5-3.5,1.5
				c-0.8,1-1.3,2.3-1.3,4l0,0c0,1.7,0.4,3.1,1.3,4c0.8,1,2,1.5,3.5,1.5l0,0c1.5,0,2.7-0.5,3.5-1.5c0.8-1,1.3-2.3,1.3-4l0,0
				c0-1.7-0.4-3.1-1.3-4C31.6,7.2,30.4,6.7,28.9,6.7L28.9,6.7z M54.7,5.8h1.4l-4.3,12.7h-1.3l-4-11.1l-3.9,11.1h-1.3L36.9,5.8h1.4
				L41.9,17l4-11.2h1.3L51.1,17L54.7,5.8z M78.6,1.8h1.3v16.8h-1.3v-7.9H68.2v7.9h-1.3V1.8h1.3v7.6h10.4V1.8z M94.8,17.7
				c0.4,0,0.8-0.1,1-0.2l0,0l-0.1,1c-0.3,0.2-0.7,0.3-1.2,0.3l0,0c-0.6,0-1.1-0.2-1.4-0.5s-0.6-0.9-0.6-1.7l0,0
				c-0.4,0.7-1,1.2-1.9,1.6c-0.9,0.4-1.8,0.6-2.7,0.6l0,0c-1.3,0-2.3-0.3-3-0.8c-0.8-0.6-1.1-1.4-1.1-2.4l0,0c0-2,1.6-3.2,4.8-3.8
				l0,0l3.9-0.7V10c0-1-0.3-1.8-0.9-2.4S90,6.7,88.9,6.7l0,0c-2,0-3.4,0.9-4.1,2.7l0,0l-1-0.7c0.4-1,1-1.8,1.9-2.3
				c0.9-0.5,1.9-0.8,3.2-0.8l0,0c1.5,0,2.6,0.4,3.5,1.1c0.8,0.7,1.3,1.8,1.3,3.1l0,0v6.6C93.7,17.3,94.1,17.7,94.8,17.7L94.8,17.7z
				 M87.9,17.7c0.7,0,1.4-0.1,2.1-0.4s1.2-0.6,1.7-1.1c0.4-0.5,0.7-1.1,0.7-1.7l0,0v-2.4l-3.5,0.6c-1.4,0.3-2.4,0.6-3,1.1
				c-0.6,0.5-0.9,1-0.9,1.8l0,0c0,0.7,0.3,1.2,0.8,1.6C86.3,17.5,87,17.7,87.9,17.7L87.9,17.7z M104.4,5.6c1.5,0,2.6,0.4,3.5,1.2
				s1.3,2,1.3,3.5l0,0v8.2h-1.3v-7.8c0-1.4-0.3-2.4-1-3c-0.7-0.7-1.6-1-2.7-1l0,0c-0.8,0-1.6,0.2-2.3,0.6c-0.7,0.4-1.2,0.9-1.7,1.6
				s-0.6,1.5-0.6,2.5l0,0v7.2h-1.3V5.8h1.1l0.1,2.6c0.4-0.9,1-1.6,1.9-2.1C102.3,5.8,103.3,5.6,104.4,5.6L104.4,5.6z M123.3,0h1.3
				v18.5h-1.1l-0.1-2.8c-0.4,1-0.9,1.7-1.8,2.3c-0.8,0.6-1.8,0.8-2.9,0.8l0,0c-1.8,0-3.2-0.6-4.3-1.8c-1-1.2-1.6-2.8-1.6-4.9l0,0
				c0-2.1,0.5-3.7,1.6-4.9c1-1.2,2.5-1.8,4.3-1.8l0,0c1.1,0,2.1,0.3,2.9,0.8c0.8,0.5,1.4,1.2,1.8,2.2l0,0V0z M118.8,17.7
				c1.3,0,2.4-0.4,3.2-1.3s1.3-2.1,1.3-3.6l0,0v-1.1c-0.1-1.5-0.5-2.7-1.3-3.6c-0.8-0.9-1.9-1.3-3.2-1.3l0,0c-1.5,0-2.6,0.5-3.5,1.5
				c-0.8,1-1.2,2.3-1.2,4l0,0c0,1.7,0.4,3.1,1.2,4C116.1,17.2,117.3,17.7,118.8,17.7L118.8,17.7z M138.7,17.4h10.1v1.2h-11.3V1.8
				h1.3V17.4z M155.9,5.6c1.9,0,3.4,0.6,4.4,1.8c1.1,1.2,1.6,2.8,1.6,4.8l0,0c0,2-0.5,3.7-1.6,4.8c-1.1,1.2-2.6,1.8-4.4,1.8l0,0
				c-1.9,0-3.4-0.6-4.4-1.8c-1.1-1.2-1.6-2.8-1.6-4.8l0,0c0-2,0.5-3.7,1.6-4.8C152.6,6.2,154.1,5.6,155.9,5.6L155.9,5.6z M155.9,6.7
				c-1.5,0-2.7,0.5-3.5,1.5s-1.3,2.3-1.3,4l0,0c0,1.7,0.4,3.1,1.3,4s2,1.5,3.5,1.5l0,0c1.5,0,2.7-0.5,3.5-1.5c0.8-1,1.3-2.3,1.3-4
				l0,0c0-1.7-0.4-3.1-1.3-4C158.6,7.2,157.4,6.7,155.9,6.7L155.9,6.7z M172.2,17.2c1.3,0,2.3,0.3,3,0.8s1.1,1.2,1.1,2.1l0,0
				c0,0.8-0.3,1.4-0.8,2c-0.5,0.6-1.2,1-2.1,1.4s-2,0.5-3.1,0.5l0,0c-1.9,0-3.4-0.3-4.4-0.9c-1-0.6-1.5-1.4-1.5-2.5l0,0
				c0-0.7,0.2-1.2,0.6-1.7c0.4-0.5,1-0.8,1.7-1l0,0c-0.5-0.2-0.9-0.5-1.2-0.9s-0.4-0.8-0.4-1.3l0,0c0-0.6,0.2-1.1,0.6-1.5
				c0.4-0.4,0.9-0.7,1.6-0.9l0,0c-0.7-0.4-1.2-0.8-1.6-1.4c-0.4-0.6-0.6-1.3-0.6-2.1l0,0c0-1.3,0.5-2.3,1.4-3
				c0.9-0.8,2.2-1.1,3.7-1.1l0,0c1.1,0,2,0.2,2.9,0.6l0,0c0.1-0.8,0.4-1.5,1-1.9c0.6-0.5,1.3-0.7,2.2-0.7l0,0l0.3,1.1
				c-0.8,0-1.4,0.2-1.9,0.5c-0.5,0.4-0.7,0.9-0.8,1.5l0,0c1,0.8,1.4,1.8,1.4,3l0,0c0,1.3-0.5,2.3-1.4,3c-0.9,0.8-2.2,1.1-3.7,1.1
				l0,0c-0.5,0-1.1-0.1-1.7-0.2l0,0c-0.7,0.1-1.3,0.3-1.7,0.6c-0.4,0.3-0.6,0.7-0.6,1.2l0,0c0,0.5,0.2,1,0.7,1.3s1.1,0.5,2.1,0.5
				l0,0H172.2z M166.3,9.7c0,0.9,0.3,1.7,1,2.3c0.7,0.6,1.6,0.8,2.8,0.8l0,0c1.2,0,2.1-0.3,2.8-0.8c0.7-0.6,1-1.3,1-2.3l0,0
				c0-0.9-0.3-1.7-1-2.2c-0.7-0.6-1.6-0.8-2.8-0.8l0,0c-1.2,0-2.1,0.3-2.8,0.8C166.6,8,166.3,8.8,166.3,9.7L166.3,9.7z M170.4,22.9
				c1.4,0,2.6-0.2,3.5-0.7c0.9-0.5,1.3-1.1,1.3-1.9l0,0c0-0.6-0.3-1.1-0.8-1.4s-1.4-0.5-2.4-0.5l0,0h-3.3c-1,0-1.7,0.2-2.3,0.6
				c-0.6,0.4-0.9,0.9-0.9,1.5l0,0c0,0.8,0.4,1.4,1.3,1.8C167.6,22.7,168.8,22.9,170.4,22.9L170.4,22.9z M189,17.7
				c0.4,0,0.8-0.1,1-0.2l0,0l-0.1,1c-0.3,0.2-0.7,0.3-1.2,0.3l0,0c-0.6,0-1.1-0.2-1.4-0.5s-0.6-0.9-0.6-1.7l0,0
				c-0.4,0.7-1,1.2-1.9,1.6c-0.9,0.4-1.8,0.6-2.7,0.6l0,0c-1.3,0-2.3-0.3-3-0.8c-0.8-0.6-1.1-1.4-1.1-2.4l0,0c0-2,1.6-3.2,4.8-3.8
				l0,0l3.9-0.7V10c0-1-0.3-1.8-0.9-2.4c-0.6-0.6-1.5-0.9-2.6-0.9l0,0c-2,0-3.4,0.9-4.1,2.7l0,0l-1-0.7c0.4-1,1-1.8,1.9-2.3
				c0.9-0.5,1.9-0.8,3.2-0.8l0,0c1.5,0,2.6,0.4,3.5,1.1c0.8,0.7,1.3,1.8,1.3,3.1l0,0v6.6C187.8,17.3,188.2,17.7,189,17.7L189,17.7z
				 M182.1,17.7c0.7,0,1.4-0.1,2.1-0.4s1.2-0.6,1.7-1.1c0.4-0.5,0.7-1.1,0.7-1.7l0,0v-2.4l-3.5,0.6c-1.4,0.3-2.4,0.6-3,1.1
				c-0.6,0.5-0.9,1-0.9,1.8l0,0c0,0.7,0.3,1.2,0.8,1.6C180.4,17.5,181.2,17.7,182.1,17.7L182.1,17.7z M198.5,5.6
				c1.5,0,2.6,0.4,3.5,1.2c0.9,0.8,1.3,2,1.3,3.5l0,0v8.2h-1.3v-7.8c0-1.4-0.3-2.4-1-3c-0.7-0.7-1.6-1-2.7-1l0,0
				c-0.8,0-1.6,0.2-2.3,0.6c-0.7,0.4-1.2,0.9-1.7,1.6s-0.6,1.5-0.6,2.5l0,0v7.2h-1.3V5.8h1.1l0.1,2.6c0.4-0.9,1-1.6,1.9-2.1
				C196.5,5.8,197.4,5.6,198.5,5.6L198.5,5.6z M227.7,1.8h1.3v16.8h-1.3v-7.9h-10.4v7.9h-1.3V1.8h1.3v7.6h10.4V1.8z M238.9,5.6
				c1.9,0,3.4,0.6,4.4,1.8s1.6,2.8,1.6,4.8l0,0c0,2-0.5,3.7-1.6,4.8s-2.6,1.8-4.4,1.8l0,0c-1.9,0-3.4-0.6-4.4-1.8
				c-1.1-1.2-1.6-2.8-1.6-4.8l0,0c0-2,0.5-3.7,1.6-4.8C235.6,6.2,237,5.6,238.9,5.6L238.9,5.6z M238.9,6.7c-1.5,0-2.7,0.5-3.5,1.5
				c-0.8,1-1.3,2.3-1.3,4l0,0c0,1.7,0.4,3.1,1.3,4c0.8,1,2,1.5,3.5,1.5l0,0c1.5,0,2.7-0.5,3.5-1.5c0.8-1,1.3-2.3,1.3-4l0,0
				c0-1.7-0.4-3.1-1.3-4C241.6,7.2,240.4,6.7,238.9,6.7L238.9,6.7z M249.8,0v15.5c0,0.8,0.1,1.3,0.4,1.7c0.2,0.3,0.7,0.5,1.2,0.5
				l0,0c0.3,0,0.6,0,0.9-0.1c0.2-0.1,0.5-0.1,0.8-0.3l0,0l-0.2,1.2c-0.5,0.2-1,0.3-1.7,0.3l0,0c-0.9,0-1.6-0.3-2-0.8
				c-0.4-0.5-0.7-1.3-0.7-2.4l0,0V0H249.8z M256.8,0v15.5c0,0.8,0.1,1.3,0.4,1.7c0.2,0.3,0.7,0.5,1.2,0.5l0,0c0.3,0,0.6,0,0.9-0.1
				c0.2-0.1,0.5-0.1,0.8-0.3l0,0l-0.2,1.2c-0.5,0.2-1,0.3-1.7,0.3l0,0c-0.9,0-1.6-0.3-2-0.8c-0.4-0.5-0.7-1.3-0.7-2.4l0,0V0H256.8z
				 M272.8,17.7c0.4,0,0.8-0.1,1-0.2l0,0l-0.1,1c-0.3,0.2-0.7,0.3-1.2,0.3l0,0c-0.6,0-1.1-0.2-1.4-0.5c-0.4-0.3-0.6-0.9-0.6-1.7l0,0
				c-0.4,0.7-1,1.2-1.9,1.6c-0.9,0.4-1.8,0.6-2.7,0.6l0,0c-1.3,0-2.3-0.3-3-0.8c-0.8-0.6-1.1-1.4-1.1-2.4l0,0c0-2,1.6-3.2,4.8-3.8
				l0,0l3.9-0.7V10c0-1-0.3-1.8-0.9-2.4s-1.5-0.9-2.6-0.9l0,0c-2,0-3.4,0.9-4.1,2.7l0,0l-1-0.7c0.4-1,1-1.8,1.9-2.3
				c0.9-0.5,1.9-0.8,3.2-0.8l0,0c1.5,0,2.6,0.4,3.5,1.1s1.3,1.8,1.3,3.1l0,0v6.6C271.6,17.3,272,17.7,272.8,17.7L272.8,17.7z
				 M265.9,17.7c0.7,0,1.4-0.1,2.1-0.4c0.7-0.2,1.2-0.6,1.7-1.1c0.4-0.5,0.7-1.1,0.7-1.7l0,0v-2.4l-3.5,0.6c-1.4,0.3-2.4,0.6-3,1.1
				c-0.6,0.5-0.9,1-0.9,1.8l0,0c0,0.7,0.3,1.2,0.8,1.6C264.2,17.5,265,17.7,265.9,17.7L265.9,17.7z M282.3,5.6
				c1.5,0,2.6,0.4,3.5,1.2c0.9,0.8,1.3,2,1.3,3.5l0,0v8.2h-1.3v-7.8c0-1.4-0.3-2.4-1-3c-0.7-0.7-1.6-1-2.7-1l0,0
				c-0.8,0-1.6,0.2-2.3,0.6c-0.7,0.4-1.2,0.9-1.7,1.6s-0.6,1.5-0.6,2.5l0,0v7.2h-1.3V5.8h1.1l0.1,2.6c0.4-0.9,1-1.6,1.9-2.1
				C280.3,5.8,281.2,5.6,282.3,5.6L282.3,5.6z M301.2,0h1.3v18.5h-1.1l-0.1-2.8c-0.4,1-0.9,1.7-1.8,2.3c-0.8,0.6-1.8,0.8-2.9,0.8
				l0,0c-1.8,0-3.2-0.6-4.3-1.8s-1.6-2.8-1.6-4.9l0,0c0-2.1,0.5-3.7,1.6-4.9c1-1.2,2.5-1.8,4.3-1.8l0,0c1.1,0,2.1,0.3,2.9,0.8
				s1.4,1.2,1.8,2.2l0,0V0z M296.7,17.7c1.3,0,2.4-0.4,3.2-1.3c0.8-0.9,1.3-2.1,1.3-3.6l0,0v-1.1c-0.1-1.5-0.5-2.7-1.3-3.6
				c-0.8-0.9-1.9-1.3-3.2-1.3l0,0c-1.5,0-2.6,0.5-3.5,1.5c-0.8,1-1.2,2.3-1.2,4l0,0c0,1.7,0.4,3.1,1.2,4
				C294.1,17.2,295.2,17.7,296.7,17.7L296.7,17.7z M315.9,0v22.8h-1.1V0H315.9z M340,2.9h-10.2v6.5h8.1v1.2h-8.1v7.9h-1.3V1.8H340
				V2.9z M343.6,3.4c-0.3,0-0.6-0.1-0.8-0.3c-0.2-0.2-0.3-0.5-0.3-0.8l0,0c0-0.3,0.1-0.6,0.3-0.8c0.2-0.2,0.5-0.3,0.8-0.3l0,0
				c0.3,0,0.6,0.1,0.8,0.3c0.2,0.2,0.3,0.5,0.3,0.8l0,0c0,0.3-0.1,0.6-0.3,0.8C344.2,3.3,344,3.4,343.6,3.4L343.6,3.4z M344.3,5.8
				v12.7H343V5.8H344.3z M354.2,5.6c0.7,0,1.2,0.1,1.6,0.4l0,0l-0.3,1.2c-0.4-0.3-0.9-0.5-1.6-0.5l0,0c-0.6,0-1.2,0.2-1.8,0.6
				c-0.6,0.4-1,1-1.4,1.7c-0.3,0.7-0.5,1.5-0.5,2.4l0,0v7.1h-1.3V5.8h1.1l0.2,2.6c0.4-0.9,0.9-1.6,1.6-2.1
				C352.3,5.8,353.2,5.6,354.2,5.6L354.2,5.6z M362.1,18.8c-1.3,0-2.4-0.3-3.4-0.8c-0.9-0.5-1.6-1.2-2-2.2l0,0l1-0.7
				c0.3,0.8,0.8,1.5,1.5,1.9c0.8,0.4,1.7,0.6,2.9,0.6l0,0c1.2,0,2.1-0.2,2.7-0.7c0.7-0.4,1-1,1-1.8l0,0c0-0.6-0.3-1.1-0.8-1.5
				c-0.6-0.4-1.5-0.7-2.9-0.9l0,0c-1.8-0.3-3-0.8-3.8-1.3s-1.1-1.3-1.1-2.3l0,0c0-0.7,0.2-1.3,0.6-1.8c0.4-0.6,1-1,1.7-1.3
				c0.7-0.3,1.6-0.5,2.5-0.5l0,0c1.3,0,2.4,0.3,3.2,0.8c0.8,0.5,1.4,1.3,1.7,2.3l0,0L366,9.3c-0.5-1.7-1.7-2.6-3.8-2.6l0,0
				c-0.7,0-1.3,0.1-1.8,0.3c-0.6,0.2-1,0.5-1.3,0.9c-0.3,0.4-0.5,0.8-0.5,1.2l0,0c0,0.7,0.3,1.2,0.9,1.6c0.6,0.4,1.6,0.7,3,1l0,0
				c1.7,0.3,2.9,0.7,3.7,1.2c0.7,0.5,1.1,1.3,1.1,2.3l0,0c0,1.1-0.5,2-1.4,2.6C364.9,18.5,363.7,18.8,362.1,18.8L362.1,18.8z
				 M377.4,16.7l0.5,1c-0.3,0.3-0.8,0.6-1.2,0.8c-0.5,0.2-1,0.3-1.6,0.3l0,0c-1,0-1.8-0.3-2.4-0.9c-0.6-0.6-0.9-1.4-0.9-2.6l0,0V6.9
				h-2.5V5.8h2.5V2.7l1.3-0.4v3.5h4.8v1.1h-4.8v8.3c0,0.8,0.2,1.4,0.6,1.8c0.4,0.4,0.9,0.6,1.7,0.6l0,0
				C376,17.6,376.7,17.3,377.4,16.7L377.4,16.7z M401.9,14.3c-0.5,1.4-1.3,2.5-2.5,3.3c-1.2,0.8-2.6,1.2-4.2,1.2l0,0
				c-1.5,0-2.9-0.4-4-1.1c-1.2-0.7-2-1.7-2.7-3c-0.6-1.3-0.9-2.8-0.9-4.6l0,0c0-1.7,0.3-3.3,0.9-4.6c0.6-1.3,1.5-2.3,2.7-3
				c1.2-0.7,2.5-1.1,4-1.1l0,0c3.4,0,5.5,1.4,6.5,4.1l0,0l-1.2,0.6c-0.4-1.2-1-2.1-1.9-2.7c-0.9-0.6-2-0.9-3.3-0.9l0,0
				c-1.3,0-2.4,0.3-3.3,0.9c-1,0.6-1.7,1.5-2.2,2.6s-0.8,2.5-0.8,4l0,0c0,1.5,0.3,2.8,0.8,4s1.2,2,2.2,2.6c0.9,0.6,2,0.9,3.3,0.9
				l0,0c1.4,0,2.5-0.3,3.5-1c0.9-0.7,1.6-1.6,2-2.8l0,0L401.9,14.3z M411.2,5.6c1.5,0,2.6,0.4,3.5,1.2s1.3,2,1.3,3.5l0,0v8.3h-1.3
				v-7.8c0-1.3-0.3-2.3-1-3c-0.7-0.7-1.6-1-2.7-1l0,0c-0.8,0-1.6,0.2-2.3,0.6c-0.7,0.4-1.2,0.9-1.7,1.6c-0.4,0.7-0.6,1.5-0.6,2.5
				l0,0v7.2h-1.3V0h1.3v8.4c0.4-0.9,1-1.6,1.8-2.1C409.1,5.8,410.1,5.6,411.2,5.6L411.2,5.6z M430.6,17.7c0.4,0,0.8-0.1,1-0.2l0,0
				l-0.1,1c-0.3,0.2-0.7,0.3-1.2,0.3l0,0c-0.6,0-1.1-0.2-1.4-0.5c-0.4-0.3-0.6-0.9-0.6-1.7l0,0c-0.4,0.7-1,1.2-1.9,1.6
				c-0.9,0.4-1.8,0.6-2.7,0.6l0,0c-1.3,0-2.3-0.3-3-0.8c-0.8-0.6-1.1-1.4-1.1-2.4l0,0c0-2,1.6-3.2,4.8-3.8l0,0l3.9-0.7V10
				c0-1-0.3-1.8-0.9-2.4c-0.6-0.6-1.5-0.9-2.6-0.9l0,0c-2,0-3.4,0.9-4.1,2.7l0,0l-1-0.7c0.4-1,1-1.8,1.9-2.3
				c0.9-0.5,1.9-0.8,3.2-0.8l0,0c1.5,0,2.6,0.4,3.5,1.1c0.8,0.7,1.3,1.8,1.3,3.1l0,0v6.6C429.4,17.3,429.8,17.7,430.6,17.7
				L430.6,17.7z M423.7,17.7c0.7,0,1.4-0.1,2.1-0.4c0.7-0.2,1.2-0.6,1.7-1.1c0.4-0.5,0.7-1.1,0.7-1.7l0,0v-2.4l-3.5,0.6
				c-1.4,0.3-2.4,0.6-3,1.1c-0.6,0.5-0.9,1-0.9,1.8l0,0c0,0.7,0.3,1.2,0.8,1.6C422.1,17.5,422.8,17.7,423.7,17.7L423.7,17.7z
				 M434.8,3.4c-0.3,0-0.6-0.1-0.8-0.3c-0.2-0.2-0.3-0.5-0.3-0.8l0,0c0-0.3,0.1-0.6,0.3-0.8s0.5-0.3,0.8-0.3l0,0
				c0.3,0,0.6,0.1,0.8,0.3c0.2,0.2,0.3,0.5,0.3,0.8l0,0c0,0.3-0.1,0.6-0.3,0.8C435.4,3.3,435.1,3.4,434.8,3.4L434.8,3.4z M435.5,5.8
				v12.7h-1.3V5.8H435.5z M445.3,5.6c0.7,0,1.2,0.1,1.6,0.4l0,0l-0.3,1.2c-0.4-0.3-0.9-0.5-1.6-0.5l0,0c-0.6,0-1.2,0.2-1.8,0.6
				c-0.6,0.4-1,1-1.4,1.7c-0.3,0.7-0.5,1.5-0.5,2.4l0,0v7.1H440V5.8h1.1l0.2,2.6c0.4-0.9,0.9-1.6,1.6-2.1
				C443.5,5.8,444.4,5.6,445.3,5.6L445.3,5.6z"/>
		</g>
	</g>
</g>
</svg>
